  0
SECTION
  2
HEADER
  9
$ANGBASE
  50
0.0
  9
$ANGDIR
  70
1
  9
$MEASUREMENT
  70
0
  0
ENDSEC
  0
SECTION
  2
TABLES
  0
TABLE
  2
LTYPE
  70
4
  0
LTYPE
  5
40F
  2
CONTINUOUS
  70
0
  3
Solid line
  72
65
  73
0
  40
0.0
  0
LTYPE
  5
410
  2
DASHDOT
 70
0
  3
Dash Dot ____ _ ____ _
 72
65
 73
4
 40
2.0
 49
1.25
 49
-0.25
 49
0.25
 49
-0.25
  0
LTYPE
  5
411
  2
DASHED
 70
0
  3
Dashed __ __ __ __ __
 72
65
 73
2
 40
0.75
 49
0.5
 49
-0.25
  0
LTYPE
  5
43B
  2
DOTTED
 70
0
  3
Dotted .  .  .  .
 72
65
 73
2
 40
0.2
 49
0.0
 49
-0.2
  0
ENDTAB
  0
TABLE
  2
STYLE
  70
4
  0
STYLE
  2
KICAD
  70
0
  40
0
  41
1
  42
1
  50
0
  71
0
  3
isocp.shx
  0
STYLE
  2
KICADB
  70
0
  40
0
  41
1
  42
1
  50
0
  71
0
  3
isocp.shx
  0
STYLE
  2
KICADI
  70
0
  40
0
  41
1
  42
1
  50
15
  71
0
  3
isocp.shx
  0
STYLE
  2
KICADBI
  70
0
  40
0
  41
1
  42
1
  50
15
  71
0
  3
isocp.shx
  0
ENDTAB
  0
TABLE
  2
LAYER
  70
1
  0
LAYER
  2
BLACK
  70
0
  62
7
  6
CONTINUOUS
  0
ENDTAB
  0
ENDSEC
  0
SECTION
  2
ENTITIES
0
LINE
8
BLACK
6
CONTINUOUS
10
6.0641561811023621
20
-5.6329489370078738
11
6.0646888582677168
21
-5.6334816141732285
0
LINE
8
BLACK
6
CONTINUOUS
10
6.0646888582677168
20
-5.6334816141732285
11
6.0647637795275591
21
-5.6338582677165352
0
LINE
8
BLACK
6
CONTINUOUS
10
6.0647637795275591
20
-5.6338582677165352
11
6.0647637795275591
21
-5.8858267716535435
0
LINE
8
BLACK
6
CONTINUOUS
10
6.0647637795275591
20
-5.8858267716535435
11
6.0646888582677168
21
-5.8862034251968502
0
LINE
8
BLACK
6
CONTINUOUS
10
6.0646888582677168
20
-5.8862034251968502
11
6.0641561811023621
21
-5.8867361023622049
0
LINE
8
BLACK
6
CONTINUOUS
10
6.0641561811023621
20
-5.8867361023622049
11
6.0637795275590554
21
-5.8868110236220472
0
LINE
8
BLACK
6
CONTINUOUS
10
6.0637795275590554
20
-5.8868110236220472
11
5.4952755905511808
21
-5.8868110236220472
0
LINE
8
BLACK
6
CONTINUOUS
10
5.4952755905511808
20
-5.8868110236220472
11
5.494898937007874
21
-5.8867361023622049
0
LINE
8
BLACK
6
CONTINUOUS
10
5.494898937007874
20
-5.8867361023622049
11
5.4943662598425194
21
-5.8862034251968502
0
LINE
8
BLACK
6
CONTINUOUS
10
5.4943662598425194
20
-5.8862034251968502
11
5.494291338582677
21
-5.8858267716535435
0
LINE
8
BLACK
6
CONTINUOUS
10
5.494291338582677
20
-5.8858267716535435
11
5.494291338582677
21
-5.6338582677165352
0
LINE
8
BLACK
6
CONTINUOUS
10
5.494291338582677
20
-5.6338582677165352
11
5.4943662598425194
21
-5.6334816141732285
0
LINE
8
BLACK
6
CONTINUOUS
10
5.4943662598425194
20
-5.6334816141732285
11
5.494898937007874
21
-5.6329489370078738
0
LINE
8
BLACK
6
CONTINUOUS
10
5.494898937007874
20
-5.6329489370078738
11
5.4952755905511808
21
-5.6328740157480315
0
LINE
8
BLACK
6
CONTINUOUS
10
5.4952755905511808
20
-5.6328740157480315
11
6.0637795275590554
21
-5.6328740157480315
0
LINE
8
BLACK
6
CONTINUOUS
10
6.0637795275590554
20
-5.6328740157480315
11
6.0641561811023621
21
-5.6329489370078738
0
LINE
8
BLACK
6
CONTINUOUS
10
5.4962598425196854
20
-5.6348425196850389
11
5.4962598425196854
21
-5.8848425196850389
0
LINE
8
BLACK
6
CONTINUOUS
10
5.4962598425196854
20
-5.8848425196850389
11
6.0627952755905508
21
-5.8848425196850389
0
LINE
8
BLACK
6
CONTINUOUS
10
6.0627952755905508
20
-5.8848425196850389
11
6.0627952755905508
21
-5.6348425196850389
0
LINE
8
BLACK
6
CONTINUOUS
10
6.0627952755905508
20
-5.6348425196850389
11
5.4962598425196854
21
-5.6348425196850389
0
LINE
8
BLACK
6
CONTINUOUS
10
5.4570695669291336
20
-5.2589331889763775
11
5.4576022440944882
21
-5.2594658661417322
0
LINE
8
BLACK
6
CONTINUOUS
10
5.4576022440944882
20
-5.2594658661417322
11
5.4576771653543306
21
-5.2598425196850389
0
LINE
8
BLACK
6
CONTINUOUS
10
5.4576771653543306
20
-5.2598425196850389
11
5.4576771653543306
21
-5.8838582677165352
0
LINE
8
BLACK
6
CONTINUOUS
10
5.4576771653543306
20
-5.8838582677165352
11
5.4576022440944882
21
-5.8842349212598428
0
LINE
8
BLACK
6
CONTINUOUS
10
5.4576022440944882
20
-5.8842349212598428
11
5.4570695669291336
21
-5.8847675984251966
0
LINE
8
BLACK
6
CONTINUOUS
10
5.4570695669291336
20
-5.8847675984251966
11
5.4566929133858268
21
-5.8848425196850389
0
LINE
8
BLACK
6
CONTINUOUS
10
5.4566929133858268
20
-5.8848425196850389
11
4.893700787401575
21
-5.8848425196850389
0
LINE
8
BLACK
6
CONTINUOUS
10
4.893700787401575
20
-5.8848425196850389
11
4.8933241338582674
21
-5.8847675984251966
0
LINE
8
BLACK
6
CONTINUOUS
10
4.8933241338582674
20
-5.8847675984251966
11
4.8927914566929136
21
-5.8842349212598428
0
LINE
8
BLACK
6
CONTINUOUS
10
4.8927914566929136
20
-5.8842349212598428
11
4.8927165354330704
21
-5.8838582677165352
0
LINE
8
BLACK
6
CONTINUOUS
10
4.8927165354330704
20
-5.8838582677165352
11
4.8927165354330704
21
-5.2598425196850389
0
LINE
8
BLACK
6
CONTINUOUS
10
4.8927165354330704
20
-5.2598425196850389
11
4.8927914566929136
21
-5.2594658661417322
0
LINE
8
BLACK
6
CONTINUOUS
10
4.8927914566929136
20
-5.2594658661417322
11
4.8933241338582674
21
-5.2589331889763775
0
LINE
8
BLACK
6
CONTINUOUS
10
4.8933241338582674
20
-5.2589331889763775
11
4.893700787401575
21
-5.2588582677165352
0
LINE
8
BLACK
6
CONTINUOUS
10
4.893700787401575
20
-5.2588582677165352
11
5.4566929133858268
21
-5.2588582677165352
0
LINE
8
BLACK
6
CONTINUOUS
10
5.4566929133858268
20
-5.2588582677165352
11
5.4570695669291336
21
-5.2589331889763775
0
LINE
8
BLACK
6
CONTINUOUS
10
4.8946850393700787
20
-5.2608267716535435
11
4.8946850393700787
21
-5.8828740157480315
0
LINE
8
BLACK
6
CONTINUOUS
10
4.8946850393700787
20
-5.8828740157480315
11
5.4557086614173231
21
-5.8828740157480315
0
LINE
8
BLACK
6
CONTINUOUS
10
5.4557086614173231
20
-5.8828740157480315
11
5.4557086614173231
21
-5.2608267716535435
0
LINE
8
BLACK
6
CONTINUOUS
10
5.4557086614173231
20
-5.2608267716535435
11
4.8946850393700787
21
-5.2608267716535435
0
LINE
8
BLACK
6
CONTINUOUS
10
6.2535262598425199
20
-5.7321615354330708
11
6.2540589370078736
21
-5.7326942125984255
0
LINE
8
BLACK
6
CONTINUOUS
10
6.2540589370078736
20
-5.7326942125984255
11
6.254133858267716
21
-5.7330708661417322
0
LINE
8
BLACK
6
CONTINUOUS
10
6.254133858267716
20
-5.7330708661417322
11
6.254133858267716
21
-5.8496062992125983
0
LINE
8
BLACK
6
CONTINUOUS
10
6.254133858267716
20
-5.8496062992125983
11
6.2540589370078736
21
-5.8499829527559051
0
LINE
8
BLACK
6
CONTINUOUS
10
6.2540589370078736
20
-5.8499829527559051
11
6.2535262598425199
21
-5.8505156299212597
0
LINE
8
BLACK
6
CONTINUOUS
10
6.2535262598425199
20
-5.8505156299212597
11
6.2531496062992122
21
-5.8505905511811021
0
LINE
8
BLACK
6
CONTINUOUS
10
6.2531496062992122
20
-5.8505905511811021
11
6.1956692913385822
21
-5.8505905511811021
0
LINE
8
BLACK
6
CONTINUOUS
10
6.1956692913385822
20
-5.8505905511811021
11
6.1952926377952755
21
-5.8505156299212597
0
LINE
8
BLACK
6
CONTINUOUS
10
6.1952926377952755
20
-5.8505156299212597
11
6.1947599606299208
21
-5.8499829527559051
0
LINE
8
BLACK
6
CONTINUOUS
10
6.1947599606299208
20
-5.8499829527559051
11
6.1946850393700785
21
-5.8496062992125983
0
LINE
8
BLACK
6
CONTINUOUS
10
6.1946850393700785
20
-5.8496062992125983
11
6.1946850393700785
21
-5.7330708661417322
0
LINE
8
BLACK
6
CONTINUOUS
10
6.1946850393700785
20
-5.7330708661417322
11
6.1947599606299208
21
-5.7326942125984255
0
LINE
8
BLACK
6
CONTINUOUS
10
6.1947599606299208
20
-5.7326942125984255
11
6.1952926377952755
21
-5.7321615354330708
0
LINE
8
BLACK
6
CONTINUOUS
10
6.1952926377952755
20
-5.7321615354330708
11
6.1956692913385822
21
-5.7320866141732285
0
LINE
8
BLACK
6
CONTINUOUS
10
6.1956692913385822
20
-5.7320866141732285
11
6.2531496062992122
21
-5.7320866141732285
0
LINE
8
BLACK
6
CONTINUOUS
10
6.2531496062992122
20
-5.7320866141732285
11
6.2535262598425199
21
-5.7321615354330708
0
LINE
8
BLACK
6
CONTINUOUS
10
6.1966535433070868
20
-5.7340551181102359
11
6.1966535433070868
21
-5.8486220472440946
0
LINE
8
BLACK
6
CONTINUOUS
10
6.1966535433070868
20
-5.8486220472440946
11
6.2521653543307085
21
-5.8486220472440946
0
LINE
8
BLACK
6
CONTINUOUS
10
6.2521653543307085
20
-5.8486220472440946
11
6.2521653543307085
21
-5.7340551181102359
0
LINE
8
BLACK
6
CONTINUOUS
10
6.2521653543307085
20
-5.7340551181102359
11
6.1966535433070868
21
-5.7340551181102359
0
LINE
8
BLACK
6
CONTINUOUS
10
6.3572007874015748
20
-5.7321615354330708
11
6.3577334645669286
21
-5.7326942125984255
0
LINE
8
BLACK
6
CONTINUOUS
10
6.3577334645669286
20
-5.7326942125984255
11
6.3578083858267718
21
-5.7330708661417322
0
LINE
8
BLACK
6
CONTINUOUS
10
6.3578083858267718
20
-5.7330708661417322
11
6.3578083858267718
21
-5.8496062992125983
0
LINE
8
BLACK
6
CONTINUOUS
10
6.3578083858267718
20
-5.8496062992125983
11
6.3577334645669286
21
-5.8499829527559051
0
LINE
8
BLACK
6
CONTINUOUS
10
6.3577334645669286
20
-5.8499829527559051
11
6.3572007874015748
21
-5.8505156299212597
0
LINE
8
BLACK
6
CONTINUOUS
10
6.3572007874015748
20
-5.8505156299212597
11
6.3568241338582672
21
-5.8505905511811021
0
LINE
8
BLACK
6
CONTINUOUS
10
6.3568241338582672
20
-5.8505905511811021
11
6.2993438188976381
21
-5.8505905511811021
0
LINE
8
BLACK
6
CONTINUOUS
10
6.2993438188976381
20
-5.8505905511811021
11
6.2989671653543304
21
-5.8505156299212597
0
LINE
8
BLACK
6
CONTINUOUS
10
6.2989671653543304
20
-5.8505156299212597
11
6.2984344881889767
21
-5.8499829527559051
0
LINE
8
BLACK
6
CONTINUOUS
10
6.2984344881889767
20
-5.8499829527559051
11
6.2983595669291335
21
-5.8496062992125983
0
LINE
8
BLACK
6
CONTINUOUS
10
6.2983595669291335
20
-5.8496062992125983
11
6.2983595669291335
21
-5.7330708661417322
0
LINE
8
BLACK
6
CONTINUOUS
10
6.2983595669291335
20
-5.7330708661417322
11
6.2984344881889767
21
-5.7326942125984255
0
LINE
8
BLACK
6
CONTINUOUS
10
6.2984344881889767
20
-5.7326942125984255
11
6.2989671653543304
21
-5.7321615354330708
0
LINE
8
BLACK
6
CONTINUOUS
10
6.2989671653543304
20
-5.7321615354330708
11
6.2993438188976381
21
-5.7320866141732285
0
LINE
8
BLACK
6
CONTINUOUS
10
6.2993438188976381
20
-5.7320866141732285
11
6.3568241338582672
21
-5.7320866141732285
0
LINE
8
BLACK
6
CONTINUOUS
10
6.3568241338582672
20
-5.7320866141732285
11
6.3572007874015748
21
-5.7321615354330708
0
LINE
8
BLACK
6
CONTINUOUS
10
6.3003280708661418
20
-5.7340551181102359
11
6.3003280708661418
21
-5.8486220472440946
0
LINE
8
BLACK
6
CONTINUOUS
10
6.3003280708661418
20
-5.8486220472440946
11
6.3558398818897635
21
-5.8486220472440946
0
LINE
8
BLACK
6
CONTINUOUS
10
6.3558398818897635
20
-5.8486220472440946
11
6.3558398818897635
21
-5.7340551181102359
0
LINE
8
BLACK
6
CONTINUOUS
10
6.3558398818897635
20
-5.7340551181102359
11
6.3003280708661418
21
-5.7340551181102359
0
LINE
8
BLACK
6
CONTINUOUS
10
6.4608753149606297
20
-5.7321615354330708
11
6.4614079921259844
21
-5.7326942125984255
0
LINE
8
BLACK
6
CONTINUOUS
10
6.4614079921259844
20
-5.7326942125984255
11
6.4614829133858267
21
-5.7330708661417322
0
LINE
8
BLACK
6
CONTINUOUS
10
6.4614829133858267
20
-5.7330708661417322
11
6.4614829133858267
21
-5.8496062992125983
0
LINE
8
BLACK
6
CONTINUOUS
10
6.4614829133858267
20
-5.8496062992125983
11
6.4614079921259844
21
-5.8499829527559051
0
LINE
8
BLACK
6
CONTINUOUS
10
6.4614079921259844
20
-5.8499829527559051
11
6.4608753149606297
21
-5.8505156299212597
0
LINE
8
BLACK
6
CONTINUOUS
10
6.4608753149606297
20
-5.8505156299212597
11
6.460498661417323
21
-5.8505905511811021
0
LINE
8
BLACK
6
CONTINUOUS
10
6.460498661417323
20
-5.8505905511811021
11
6.403018346456693
21
-5.8505905511811021
0
LINE
8
BLACK
6
CONTINUOUS
10
6.403018346456693
20
-5.8505905511811021
11
6.4026416929133854
21
-5.8505156299212597
0
LINE
8
BLACK
6
CONTINUOUS
10
6.4026416929133854
20
-5.8505156299212597
11
6.4021090157480316
21
-5.8499829527559051
0
LINE
8
BLACK
6
CONTINUOUS
10
6.4021090157480316
20
-5.8499829527559051
11
6.4020340944881884
21
-5.8496062992125983
0
LINE
8
BLACK
6
CONTINUOUS
10
6.4020340944881884
20
-5.8496062992125983
11
6.4020340944881884
21
-5.7330708661417322
0
LINE
8
BLACK
6
CONTINUOUS
10
6.4020340944881884
20
-5.7330708661417322
11
6.4021090157480316
21
-5.7326942125984255
0
LINE
8
BLACK
6
CONTINUOUS
10
6.4021090157480316
20
-5.7326942125984255
11
6.4026416929133854
21
-5.7321615354330708
0
LINE
8
BLACK
6
CONTINUOUS
10
6.4026416929133854
20
-5.7321615354330708
11
6.403018346456693
21
-5.7320866141732285
0
LINE
8
BLACK
6
CONTINUOUS
10
6.403018346456693
20
-5.7320866141732285
11
6.460498661417323
21
-5.7320866141732285
0
LINE
8
BLACK
6
CONTINUOUS
10
6.460498661417323
20
-5.7320866141732285
11
6.4608753149606297
21
-5.7321615354330708
0
LINE
8
BLACK
6
CONTINUOUS
10
6.4040025984251967
20
-5.7340551181102359
11
6.4040025984251967
21
-5.8486220472440946
0
LINE
8
BLACK
6
CONTINUOUS
10
6.4040025984251967
20
-5.8486220472440946
11
6.4595144094488184
21
-5.8486220472440946
0
LINE
8
BLACK
6
CONTINUOUS
10
6.4595144094488184
20
-5.8486220472440946
11
6.4595144094488184
21
-5.7340551181102359
0
LINE
8
BLACK
6
CONTINUOUS
10
6.4595144094488184
20
-5.7340551181102359
11
6.4040025984251967
21
-5.7340551181102359
0
LINE
8
BLACK
6
CONTINUOUS
10
6.5645498818897634
20
-5.7321615354330708
11
6.5650825590551181
21
-5.7326942125984255
0
LINE
8
BLACK
6
CONTINUOUS
10
6.5650825590551181
20
-5.7326942125984255
11
6.5651574803149604
21
-5.7330708661417322
0
LINE
8
BLACK
6
CONTINUOUS
10
6.5651574803149604
20
-5.7330708661417322
11
6.5651574803149604
21
-5.8496062992125983
0
LINE
8
BLACK
6
CONTINUOUS
10
6.5651574803149604
20
-5.8496062992125983
11
6.5650825590551181
21
-5.8499829527559051
0
LINE
8
BLACK
6
CONTINUOUS
10
6.5650825590551181
20
-5.8499829527559051
11
6.5645498818897634
21
-5.8505156299212597
0
LINE
8
BLACK
6
CONTINUOUS
10
6.5645498818897634
20
-5.8505156299212597
11
6.5641732283464567
21
-5.8505905511811021
0
LINE
8
BLACK
6
CONTINUOUS
10
6.5641732283464567
20
-5.8505905511811021
11
6.5066929133858267
21
-5.8505905511811021
0
LINE
8
BLACK
6
CONTINUOUS
10
6.5066929133858267
20
-5.8505905511811021
11
6.5063162598425199
21
-5.8505156299212597
0
LINE
8
BLACK
6
CONTINUOUS
10
6.5063162598425199
20
-5.8505156299212597
11
6.5057835826771653
21
-5.8499829527559051
0
LINE
8
BLACK
6
CONTINUOUS
10
6.5057835826771653
20
-5.8499829527559051
11
6.505708661417323
21
-5.8496062992125983
0
LINE
8
BLACK
6
CONTINUOUS
10
6.505708661417323
20
-5.8496062992125983
11
6.505708661417323
21
-5.7330708661417322
0
LINE
8
BLACK
6
CONTINUOUS
10
6.505708661417323
20
-5.7330708661417322
11
6.5057835826771653
21
-5.7326942125984255
0
LINE
8
BLACK
6
CONTINUOUS
10
6.5057835826771653
20
-5.7326942125984255
11
6.5063162598425199
21
-5.7321615354330708
0
LINE
8
BLACK
6
CONTINUOUS
10
6.5063162598425199
20
-5.7321615354330708
11
6.5066929133858267
21
-5.7320866141732285
0
LINE
8
BLACK
6
CONTINUOUS
10
6.5066929133858267
20
-5.7320866141732285
11
6.5641732283464567
21
-5.7320866141732285
0
LINE
8
BLACK
6
CONTINUOUS
10
6.5641732283464567
20
-5.7320866141732285
11
6.5645498818897634
21
-5.7321615354330708
0
LINE
8
BLACK
6
CONTINUOUS
10
6.5076771653543304
20
-5.7340551181102359
11
6.5076771653543304
21
-5.8486220472440946
0
LINE
8
BLACK
6
CONTINUOUS
10
6.5076771653543304
20
-5.8486220472440946
11
6.563188976377953
21
-5.8486220472440946
0
LINE
8
BLACK
6
CONTINUOUS
10
6.563188976377953
20
-5.8486220472440946
11
6.563188976377953
21
-5.7340551181102359
0
LINE
8
BLACK
6
CONTINUOUS
10
6.563188976377953
20
-5.7340551181102359
11
6.5076771653543304
21
-5.7340551181102359
0
LINE
8
BLACK
6
CONTINUOUS
10
6.5645498818897634
20
-5.613067047244094
11
6.5650825590551181
21
-5.6135997244094487
0
LINE
8
BLACK
6
CONTINUOUS
10
6.5650825590551181
20
-5.6135997244094487
11
6.5651574803149604
21
-5.6139763779527554
0
LINE
8
BLACK
6
CONTINUOUS
10
6.5651574803149604
20
-5.6139763779527554
11
6.5651574803149604
21
-5.7305118110236215
0
LINE
8
BLACK
6
CONTINUOUS
10
6.5651574803149604
20
-5.7305118110236215
11
6.5650825590551181
21
-5.7308884645669291
0
LINE
8
BLACK
6
CONTINUOUS
10
6.5650825590551181
20
-5.7308884645669291
11
6.5645498818897634
21
-5.7314211417322829
0
LINE
8
BLACK
6
CONTINUOUS
10
6.5645498818897634
20
-5.7314211417322829
11
6.5641732283464567
21
-5.7314960629921261
0
LINE
8
BLACK
6
CONTINUOUS
10
6.5641732283464567
20
-5.7314960629921261
11
6.5066929133858267
21
-5.7314960629921261
0
LINE
8
BLACK
6
CONTINUOUS
10
6.5066929133858267
20
-5.7314960629921261
11
6.5063162598425199
21
-5.7314211417322829
0
LINE
8
BLACK
6
CONTINUOUS
10
6.5063162598425199
20
-5.7314211417322829
11
6.5057835826771653
21
-5.7308884645669291
0
LINE
8
BLACK
6
CONTINUOUS
10
6.5057835826771653
20
-5.7308884645669291
11
6.505708661417323
21
-5.7305118110236215
0
LINE
8
BLACK
6
CONTINUOUS
10
6.505708661417323
20
-5.7305118110236215
11
6.505708661417323
21
-5.6139763779527554
0
LINE
8
BLACK
6
CONTINUOUS
10
6.505708661417323
20
-5.6139763779527554
11
6.5057835826771653
21
-5.6135997244094487
0
LINE
8
BLACK
6
CONTINUOUS
10
6.5057835826771653
20
-5.6135997244094487
11
6.5063162598425199
21
-5.613067047244094
0
LINE
8
BLACK
6
CONTINUOUS
10
6.5063162598425199
20
-5.613067047244094
11
6.5066929133858267
21
-5.6129921259842517
0
LINE
8
BLACK
6
CONTINUOUS
10
6.5066929133858267
20
-5.6129921259842517
11
6.5641732283464567
21
-5.6129921259842517
0
LINE
8
BLACK
6
CONTINUOUS
10
6.5641732283464567
20
-5.6129921259842517
11
6.5645498818897634
21
-5.613067047244094
0
LINE
8
BLACK
6
CONTINUOUS
10
6.5076771653543304
20
-5.61496062992126
11
6.5076771653543304
21
-5.7295275590551178
0
LINE
8
BLACK
6
CONTINUOUS
10
6.5076771653543304
20
-5.7295275590551178
11
6.563188976377953
21
-5.7295275590551178
0
LINE
8
BLACK
6
CONTINUOUS
10
6.563188976377953
20
-5.7295275590551178
11
6.563188976377953
21
-5.61496062992126
0
LINE
8
BLACK
6
CONTINUOUS
10
6.563188976377953
20
-5.61496062992126
11
6.5076771653543304
21
-5.61496062992126
0
LINE
8
BLACK
6
CONTINUOUS
10
6.1432900393700782
20
-5.6101142913385829
11
6.1438227165354329
21
-5.6106469685039366
0
LINE
8
BLACK
6
CONTINUOUS
10
6.1438227165354329
20
-5.6106469685039366
11
6.1438976377952752
21
-5.6110236220472443
0
LINE
8
BLACK
6
CONTINUOUS
10
6.1438976377952752
20
-5.6110236220472443
11
6.1438976377952752
21
-5.7275590551181104
0
LINE
8
BLACK
6
CONTINUOUS
10
6.1438976377952752
20
-5.7275590551181104
11
6.1438227165354329
21
-5.7279357086614171
0
LINE
8
BLACK
6
CONTINUOUS
10
6.1438227165354329
20
-5.7279357086614171
11
6.1432900393700782
21
-5.7284683858267718
0
LINE
8
BLACK
6
CONTINUOUS
10
6.1432900393700782
20
-5.7284683858267718
11
6.1429133858267715
21
-5.7285433070866141
0
LINE
8
BLACK
6
CONTINUOUS
10
6.1429133858267715
20
-5.7285433070866141
11
6.0854330708661415
21
-5.7285433070866141
0
LINE
8
BLACK
6
CONTINUOUS
10
6.0854330708661415
20
-5.7285433070866141
11
6.0850564173228348
21
-5.7284683858267718
0
LINE
8
BLACK
6
CONTINUOUS
10
6.0850564173228348
20
-5.7284683858267718
11
6.0845237401574801
21
-5.7279357086614171
0
LINE
8
BLACK
6
CONTINUOUS
10
6.0845237401574801
20
-5.7279357086614171
11
6.0844488188976378
21
-5.7275590551181104
0
LINE
8
BLACK
6
CONTINUOUS
10
6.0844488188976378
20
-5.7275590551181104
11
6.0844488188976378
21
-5.6110236220472443
0
LINE
8
BLACK
6
CONTINUOUS
10
6.0844488188976378
20
-5.6110236220472443
11
6.0845237401574801
21
-5.6106469685039366
0
LINE
8
BLACK
6
CONTINUOUS
10
6.0845237401574801
20
-5.6106469685039366
11
6.0850564173228348
21
-5.6101142913385829
0
LINE
8
BLACK
6
CONTINUOUS
10
6.0850564173228348
20
-5.6101142913385829
11
6.0854330708661415
21
-5.6100393700787397
0
LINE
8
BLACK
6
CONTINUOUS
10
6.0854330708661415
20
-5.6100393700787397
11
6.1429133858267715
21
-5.6100393700787397
0
LINE
8
BLACK
6
CONTINUOUS
10
6.1429133858267715
20
-5.6100393700787397
11
6.1432900393700782
21
-5.6101142913385829
0
LINE
8
BLACK
6
CONTINUOUS
10
6.0864173228346452
20
-5.612007874015748
11
6.0864173228346452
21
-5.7265748031496058
0
LINE
8
BLACK
6
CONTINUOUS
10
6.0864173228346452
20
-5.7265748031496058
11
6.1419291338582678
21
-5.7265748031496058
0
LINE
8
BLACK
6
CONTINUOUS
10
6.1419291338582678
20
-5.7265748031496058
11
6.1419291338582678
21
-5.612007874015748
0
LINE
8
BLACK
6
CONTINUOUS
10
6.1419291338582678
20
-5.612007874015748
11
6.0864173228346452
21
-5.612007874015748
0
LINE
8
BLACK
6
CONTINUOUS
10
6.206282165354331
20
-5.6101142913385829
11
6.2066929133858268
21
-5.6105250393700787
0
LINE
8
BLACK
6
CONTINUOUS
10
6.2066929133858268
20
-5.6105250393700787
11
6.2071036614173227
21
-5.6101142913385829
0
LINE
8
BLACK
6
CONTINUOUS
10
6.2071036614173227
20
-5.6101142913385829
11
6.2074803149606295
21
-5.6100393700787397
0
LINE
8
BLACK
6
CONTINUOUS
10
6.2074803149606295
20
-5.6100393700787397
11
6.2649606299212595
21
-5.6100393700787397
0
LINE
8
BLACK
6
CONTINUOUS
10
6.2649606299212595
20
-5.6100393700787397
11
6.2653372834645671
21
-5.6101142913385829
0
LINE
8
BLACK
6
CONTINUOUS
10
6.2653372834645671
20
-5.6101142913385829
11
6.2658699606299209
21
-5.6106469685039366
0
LINE
8
BLACK
6
CONTINUOUS
10
6.2658699606299209
20
-5.6106469685039366
11
6.2659448818897641
21
-5.6110236220472443
0
LINE
8
BLACK
6
CONTINUOUS
10
6.2659448818897641
20
-5.6110236220472443
11
6.2659448818897641
21
-5.7275590551181104
0
LINE
8
BLACK
6
CONTINUOUS
10
6.2659448818897641
20
-5.7275590551181104
11
6.2658699606299209
21
-5.7279357086614171
0
LINE
8
BLACK
6
CONTINUOUS
10
6.2658699606299209
20
-5.7279357086614171
11
6.2653372834645671
21
-5.7284683858267718
0
LINE
8
BLACK
6
CONTINUOUS
10
6.2653372834645671
20
-5.7284683858267718
11
6.2649606299212595
21
-5.7285433070866141
0
LINE
8
BLACK
6
CONTINUOUS
10
6.2649606299212595
20
-5.7285433070866141
11
6.2074803149606295
21
-5.7285433070866141
0
LINE
8
BLACK
6
CONTINUOUS
10
6.2074803149606295
20
-5.7285433070866141
11
6.2071036614173227
21
-5.7284683858267718
0
LINE
8
BLACK
6
CONTINUOUS
10
6.2071036614173227
20
-5.7284683858267718
11
6.2066929133858268
21
-5.7280576377952759
0
LINE
8
BLACK
6
CONTINUOUS
10
6.2066929133858268
20
-5.7280576377952759
11
6.206282165354331
21
-5.7284683858267718
0
LINE
8
BLACK
6
CONTINUOUS
10
6.206282165354331
20
-5.7284683858267718
11
6.2059055118110233
21
-5.7285433070866141
0
LINE
8
BLACK
6
CONTINUOUS
10
6.2059055118110233
20
-5.7285433070866141
11
6.1484251968503933
21
-5.7285433070866141
0
LINE
8
BLACK
6
CONTINUOUS
10
6.1484251968503933
20
-5.7285433070866141
11
6.1480485433070866
21
-5.7284683858267718
0
LINE
8
BLACK
6
CONTINUOUS
10
6.1480485433070866
20
-5.7284683858267718
11
6.147515866141732
21
-5.7279357086614171
0
LINE
8
BLACK
6
CONTINUOUS
10
6.147515866141732
20
-5.7279357086614171
11
6.1474409448818896
21
-5.7275590551181104
0
LINE
8
BLACK
6
CONTINUOUS
10
6.1474409448818896
20
-5.7275590551181104
11
6.1474409448818896
21
-5.6110236220472443
0
LINE
8
BLACK
6
CONTINUOUS
10
6.1474409448818896
20
-5.6110236220472443
11
6.147515866141732
21
-5.6106469685039366
0
LINE
8
BLACK
6
CONTINUOUS
10
6.147515866141732
20
-5.6106469685039366
11
6.1480485433070866
21
-5.6101142913385829
0
LINE
8
BLACK
6
CONTINUOUS
10
6.1480485433070866
20
-5.6101142913385829
11
6.1484251968503933
21
-5.6100393700787397
0
LINE
8
BLACK
6
CONTINUOUS
10
6.1484251968503933
20
-5.6100393700787397
11
6.2059055118110233
21
-5.6100393700787397
0
LINE
8
BLACK
6
CONTINUOUS
10
6.2059055118110233
20
-5.6100393700787397
11
6.206282165354331
21
-5.6101142913385829
0
LINE
8
BLACK
6
CONTINUOUS
10
6.2084645669291341
20
-5.612007874015748
11
6.2084645669291341
21
-5.7265748031496058
0
LINE
8
BLACK
6
CONTINUOUS
10
6.2084645669291341
20
-5.7265748031496058
11
6.2639763779527557
21
-5.7265748031496058
0
LINE
8
BLACK
6
CONTINUOUS
10
6.2639763779527557
20
-5.7265748031496058
11
6.2639763779527557
21
-5.612007874015748
0
LINE
8
BLACK
6
CONTINUOUS
10
6.2639763779527557
20
-5.612007874015748
11
6.2084645669291341
21
-5.612007874015748
0
LINE
8
BLACK
6
CONTINUOUS
10
6.1494094488188971
20
-5.612007874015748
11
6.1494094488188971
21
-5.7265748031496058
0
LINE
8
BLACK
6
CONTINUOUS
10
6.1494094488188971
20
-5.7265748031496058
11
6.2049212598425196
21
-5.7265748031496058
0
LINE
8
BLACK
6
CONTINUOUS
10
6.2049212598425196
20
-5.7265748031496058
11
6.2049212598425196
21
-5.612007874015748
0
LINE
8
BLACK
6
CONTINUOUS
10
6.2049212598425196
20
-5.612007874015748
11
6.1494094488188971
21
-5.612007874015748
0
LINE
8
BLACK
6
CONTINUOUS
10
6.3322664173228347
20
-5.6101142913385829
11
6.3327990944881885
21
-5.6106469685039366
0
LINE
8
BLACK
6
CONTINUOUS
10
6.3327990944881885
20
-5.6106469685039366
11
6.3328740157480317
21
-5.6110236220472443
0
LINE
8
BLACK
6
CONTINUOUS
10
6.3328740157480317
20
-5.6110236220472443
11
6.3328740157480317
21
-5.7275590551181104
0
LINE
8
BLACK
6
CONTINUOUS
10
6.3328740157480317
20
-5.7275590551181104
11
6.3327990944881885
21
-5.7279357086614171
0
LINE
8
BLACK
6
CONTINUOUS
10
6.3327990944881885
20
-5.7279357086614171
11
6.3322664173228347
21
-5.7284683858267718
0
LINE
8
BLACK
6
CONTINUOUS
10
6.3322664173228347
20
-5.7284683858267718
11
6.3318897637795271
21
-5.7285433070866141
0
LINE
8
BLACK
6
CONTINUOUS
10
6.3318897637795271
20
-5.7285433070866141
11
6.2744094488188971
21
-5.7285433070866141
0
LINE
8
BLACK
6
CONTINUOUS
10
6.2744094488188971
20
-5.7285433070866141
11
6.2740327952755903
21
-5.7284683858267718
0
LINE
8
BLACK
6
CONTINUOUS
10
6.2740327952755903
20
-5.7284683858267718
11
6.2735001181102357
21
-5.7279357086614171
0
LINE
8
BLACK
6
CONTINUOUS
10
6.2735001181102357
20
-5.7279357086614171
11
6.2734251968503933
21
-5.7275590551181104
0
LINE
8
BLACK
6
CONTINUOUS
10
6.2734251968503933
20
-5.7275590551181104
11
6.2734251968503933
21
-5.6110236220472443
0
LINE
8
BLACK
6
CONTINUOUS
10
6.2734251968503933
20
-5.6110236220472443
11
6.2735001181102357
21
-5.6106469685039366
0
LINE
8
BLACK
6
CONTINUOUS
10
6.2735001181102357
20
-5.6106469685039366
11
6.2740327952755903
21
-5.6101142913385829
0
LINE
8
BLACK
6
CONTINUOUS
10
6.2740327952755903
20
-5.6101142913385829
11
6.2744094488188971
21
-5.6100393700787397
0
LINE
8
BLACK
6
CONTINUOUS
10
6.2744094488188971
20
-5.6100393700787397
11
6.3318897637795271
21
-5.6100393700787397
0
LINE
8
BLACK
6
CONTINUOUS
10
6.3318897637795271
20
-5.6100393700787397
11
6.3322664173228347
21
-5.6101142913385829
0
LINE
8
BLACK
6
CONTINUOUS
10
6.2753937007874017
20
-5.612007874015748
11
6.2753937007874017
21
-5.7265748031496058
0
LINE
8
BLACK
6
CONTINUOUS
10
6.2753937007874017
20
-5.7265748031496058
11
6.3309055118110233
21
-5.7265748031496058
0
LINE
8
BLACK
6
CONTINUOUS
10
6.3309055118110233
20
-5.7265748031496058
11
6.3309055118110233
21
-5.612007874015748
0
LINE
8
BLACK
6
CONTINUOUS
10
6.3309055118110233
20
-5.612007874015748
11
6.2753937007874017
21
-5.612007874015748
0
LINE
8
BLACK
6
CONTINUOUS
10
6.3952585433070865
20
-5.6101142913385829
11
6.3957912204724412
21
-5.6106469685039366
0
LINE
8
BLACK
6
CONTINUOUS
10
6.3957912204724412
20
-5.6106469685039366
11
6.3958661417322835
21
-5.6110236220472443
0
LINE
8
BLACK
6
CONTINUOUS
10
6.3958661417322835
20
-5.6110236220472443
11
6.3958661417322835
21
-5.7275590551181104
0
LINE
8
BLACK
6
CONTINUOUS
10
6.3958661417322835
20
-5.7275590551181104
11
6.3957912204724412
21
-5.7279357086614171
0
LINE
8
BLACK
6
CONTINUOUS
10
6.3957912204724412
20
-5.7279357086614171
11
6.3952585433070865
21
-5.7284683858267718
0
LINE
8
BLACK
6
CONTINUOUS
10
6.3952585433070865
20
-5.7284683858267718
11
6.3948818897637798
21
-5.7285433070866141
0
LINE
8
BLACK
6
CONTINUOUS
10
6.3948818897637798
20
-5.7285433070866141
11
6.3374015748031498
21
-5.7285433070866141
0
LINE
8
BLACK
6
CONTINUOUS
10
6.3374015748031498
20
-5.7285433070866141
11
6.3370249212598422
21
-5.7284683858267718
0
LINE
8
BLACK
6
CONTINUOUS
10
6.3370249212598422
20
-5.7284683858267718
11
6.3364922440944884
21
-5.7279357086614171
0
LINE
8
BLACK
6
CONTINUOUS
10
6.3364922440944884
20
-5.7279357086614171
11
6.3364173228346452
21
-5.7275590551181104
0
LINE
8
BLACK
6
CONTINUOUS
10
6.3364173228346452
20
-5.7275590551181104
11
6.3364173228346452
21
-5.6110236220472443
0
LINE
8
BLACK
6
CONTINUOUS
10
6.3364173228346452
20
-5.6110236220472443
11
6.3364922440944884
21
-5.6106469685039366
0
LINE
8
BLACK
6
CONTINUOUS
10
6.3364922440944884
20
-5.6106469685039366
11
6.3370249212598422
21
-5.6101142913385829
0
LINE
8
BLACK
6
CONTINUOUS
10
6.3370249212598422
20
-5.6101142913385829
11
6.3374015748031498
21
-5.6100393700787397
0
LINE
8
BLACK
6
CONTINUOUS
10
6.3374015748031498
20
-5.6100393700787397
11
6.3948818897637798
21
-5.6100393700787397
0
LINE
8
BLACK
6
CONTINUOUS
10
6.3948818897637798
20
-5.6100393700787397
11
6.3952585433070865
21
-5.6101142913385829
0
LINE
8
BLACK
6
CONTINUOUS
10
6.3383858267716535
20
-5.612007874015748
11
6.3383858267716535
21
-5.7265748031496058
0
LINE
8
BLACK
6
CONTINUOUS
10
6.3383858267716535
20
-5.7265748031496058
11
6.3938976377952752
21
-5.7265748031496058
0
LINE
8
BLACK
6
CONTINUOUS
10
6.3938976377952752
20
-5.7265748031496058
11
6.3938976377952752
21
-5.612007874015748
0
LINE
8
BLACK
6
CONTINUOUS
10
6.3938976377952752
20
-5.612007874015748
11
6.3383858267716535
21
-5.612007874015748
0
LINE
8
BLACK
6
CONTINUOUS
10
5.6304947637795273
20
-5.5668072047244097
11
5.6310274409448819
21
-5.5673398818897635
0
LINE
8
BLACK
6
CONTINUOUS
10
5.6310274409448819
20
-5.5673398818897635
11
5.6311023622047243
21
-5.5677165354330711
0
LINE
8
BLACK
6
CONTINUOUS
10
5.6311023622047243
20
-5.5677165354330711
11
5.6311023622047243
21
-5.6251968503937011
0
LINE
8
BLACK
6
CONTINUOUS
10
5.6311023622047243
20
-5.6251968503937011
11
5.6310274409448819
21
-5.6255735039370078
0
LINE
8
BLACK
6
CONTINUOUS
10
5.6310274409448819
20
-5.6255735039370078
11
5.6304947637795273
21
-5.6261061811023625
0
LINE
8
BLACK
6
CONTINUOUS
10
5.6304947637795273
20
-5.6261061811023625
11
5.6301181102362206
21
-5.6261811023622048
0
LINE
8
BLACK
6
CONTINUOUS
10
5.6301181102362206
20
-5.6261811023622048
11
5.5135826771653544
21
-5.6261811023622048
0
LINE
8
BLACK
6
CONTINUOUS
10
5.5135826771653544
20
-5.6261811023622048
11
5.5132060236220468
21
-5.6261061811023625
0
LINE
8
BLACK
6
CONTINUOUS
10
5.5132060236220468
20
-5.6261061811023625
11
5.512673346456693
21
-5.6255735039370078
0
LINE
8
BLACK
6
CONTINUOUS
10
5.512673346456693
20
-5.6255735039370078
11
5.5125984251968498
21
-5.6251968503937011
0
LINE
8
BLACK
6
CONTINUOUS
10
5.5125984251968498
20
-5.6251968503937011
11
5.5125984251968498
21
-5.5677165354330711
0
LINE
8
BLACK
6
CONTINUOUS
10
5.5125984251968498
20
-5.5677165354330711
11
5.512673346456693
21
-5.5673398818897635
0
LINE
8
BLACK
6
CONTINUOUS
10
5.512673346456693
20
-5.5673398818897635
11
5.5132060236220468
21
-5.5668072047244097
0
LINE
8
BLACK
6
CONTINUOUS
10
5.5132060236220468
20
-5.5668072047244097
11
5.5135826771653544
21
-5.5667322834645665
0
LINE
8
BLACK
6
CONTINUOUS
10
5.5135826771653544
20
-5.5667322834645665
11
5.6301181102362206
21
-5.5667322834645665
0
LINE
8
BLACK
6
CONTINUOUS
10
5.6301181102362206
20
-5.5667322834645665
11
5.6304947637795273
21
-5.5668072047244097
0
LINE
8
BLACK
6
CONTINUOUS
10
5.5145669291338582
20
-5.5687007874015748
11
5.5145669291338582
21
-5.6242125984251965
0
LINE
8
BLACK
6
CONTINUOUS
10
5.5145669291338582
20
-5.6242125984251965
11
5.6291338582677168
21
-5.6242125984251965
0
LINE
8
BLACK
6
CONTINUOUS
10
5.6291338582677168
20
-5.6242125984251965
11
5.6291338582677168
21
-5.5687007874015748
0
LINE
8
BLACK
6
CONTINUOUS
10
5.6291338582677168
20
-5.5687007874015748
11
5.5145669291338582
21
-5.5687007874015748
0
LINE
8
BLACK
6
CONTINUOUS
10
5.8873845275590551
20
-5.5500749212598421
11
5.8879172047244097
21
-5.5506075984251968
0
LINE
8
BLACK
6
CONTINUOUS
10
5.8879172047244097
20
-5.5506075984251968
11
5.887992125984252
21
-5.5509842519685035
0
LINE
8
BLACK
6
CONTINUOUS
10
5.887992125984252
20
-5.5509842519685035
11
5.887992125984252
21
-5.6084645669291335
0
LINE
8
BLACK
6
CONTINUOUS
10
5.887992125984252
20
-5.6084645669291335
11
5.8879172047244097
21
-5.6088412204724412
0
LINE
8
BLACK
6
CONTINUOUS
10
5.8879172047244097
20
-5.6088412204724412
11
5.8873845275590551
21
-5.6093738976377949
0
LINE
8
BLACK
6
CONTINUOUS
10
5.8873845275590551
20
-5.6093738976377949
11
5.8870078740157483
21
-5.6094488188976372
0
LINE
8
BLACK
6
CONTINUOUS
10
5.8870078740157483
20
-5.6094488188976372
11
5.7704724409448813
21
-5.6094488188976372
0
LINE
8
BLACK
6
CONTINUOUS
10
5.7704724409448813
20
-5.6094488188976372
11
5.7700957874015746
21
-5.6093738976377949
0
LINE
8
BLACK
6
CONTINUOUS
10
5.7700957874015746
20
-5.6093738976377949
11
5.7695631102362199
21
-5.6088412204724412
0
LINE
8
BLACK
6
CONTINUOUS
10
5.7695631102362199
20
-5.6088412204724412
11
5.7694881889763776
21
-5.6084645669291335
0
LINE
8
BLACK
6
CONTINUOUS
10
5.7694881889763776
20
-5.6084645669291335
11
5.7694881889763776
21
-5.5509842519685035
0
LINE
8
BLACK
6
CONTINUOUS
10
5.7694881889763776
20
-5.5509842519685035
11
5.7695631102362199
21
-5.5506075984251968
0
LINE
8
BLACK
6
CONTINUOUS
10
5.7695631102362199
20
-5.5506075984251968
11
5.7700957874015746
21
-5.5500749212598421
0
LINE
8
BLACK
6
CONTINUOUS
10
5.7700957874015746
20
-5.5500749212598421
11
5.7704724409448813
21
-5.5499999999999998
0
LINE
8
BLACK
6
CONTINUOUS
10
5.7704724409448813
20
-5.5499999999999998
11
5.8870078740157483
21
-5.5499999999999998
0
LINE
8
BLACK
6
CONTINUOUS
10
5.8870078740157483
20
-5.5499999999999998
11
5.8873845275590551
21
-5.5500749212598421
0
LINE
8
BLACK
6
CONTINUOUS
10
5.7714566929133859
20
-5.5519685039370081
11
5.7714566929133859
21
-5.6074803149606298
0
LINE
8
BLACK
6
CONTINUOUS
10
5.7714566929133859
20
-5.6074803149606298
11
5.8860236220472437
21
-5.6074803149606298
0
LINE
8
BLACK
6
CONTINUOUS
10
5.8860236220472437
20
-5.6074803149606298
11
5.8860236220472437
21
-5.5519685039370081
0
LINE
8
BLACK
6
CONTINUOUS
10
5.8860236220472437
20
-5.5519685039370081
11
5.7714566929133859
21
-5.5519685039370081
0
LINE
8
BLACK
6
CONTINUOUS
10
6.5377782283464567
20
-5.5502717716535432
11
6.5383109055118105
21
-5.5508044488188979
0
LINE
8
BLACK
6
CONTINUOUS
10
6.5383109055118105
20
-5.5508044488188979
11
6.5383858267716537
21
-5.5511811023622046
0
LINE
8
BLACK
6
CONTINUOUS
10
6.5383858267716537
20
-5.5511811023622046
11
6.5383858267716537
21
-5.606299212598425
0
LINE
8
BLACK
6
CONTINUOUS
10
6.5383858267716537
20
-5.606299212598425
11
6.5383109055118105
21
-5.6066758661417317
0
LINE
8
BLACK
6
CONTINUOUS
10
6.5383109055118105
20
-5.6066758661417317
11
6.5377782283464567
21
-5.6072085433070864
0
LINE
8
BLACK
6
CONTINUOUS
10
6.5377782283464567
20
-5.6072085433070864
11
6.5374015748031491
21
-5.6072834645669287
0
LINE
8
BLACK
6
CONTINUOUS
10
6.5374015748031491
20
-5.6072834645669287
11
6.4389763779527556
21
-5.6072834645669287
0
LINE
8
BLACK
6
CONTINUOUS
10
6.4389763779527556
20
-5.6072834645669287
11
6.4385997244094488
21
-5.6072085433070864
0
LINE
8
BLACK
6
CONTINUOUS
10
6.4385997244094488
20
-5.6072085433070864
11
6.4380670472440942
21
-5.6066758661417317
0
LINE
8
BLACK
6
CONTINUOUS
10
6.4380670472440942
20
-5.6066758661417317
11
6.4379921259842519
21
-5.606299212598425
0
LINE
8
BLACK
6
CONTINUOUS
10
6.4379921259842519
20
-5.606299212598425
11
6.4379921259842519
21
-5.5511811023622046
0
LINE
8
BLACK
6
CONTINUOUS
10
6.4379921259842519
20
-5.5511811023622046
11
6.4380670472440942
21
-5.5508044488188979
0
LINE
8
BLACK
6
CONTINUOUS
10
6.4380670472440942
20
-5.5508044488188979
11
6.4385997244094488
21
-5.5502717716535432
0
LINE
8
BLACK
6
CONTINUOUS
10
6.4385997244094488
20
-5.5502717716535432
11
6.4389763779527556
21
-5.5501968503937009
0
LINE
8
BLACK
6
CONTINUOUS
10
6.4389763779527556
20
-5.5501968503937009
11
6.5374015748031491
21
-5.5501968503937009
0
LINE
8
BLACK
6
CONTINUOUS
10
6.5374015748031491
20
-5.5501968503937009
11
6.5377782283464567
21
-5.5502717716535432
0
LINE
8
BLACK
6
CONTINUOUS
10
6.4399606299212593
20
-5.5521653543307083
11
6.4399606299212593
21
-5.6053149606299213
0
LINE
8
BLACK
6
CONTINUOUS
10
6.4399606299212593
20
-5.6053149606299213
11
6.5364173228346454
21
-5.6053149606299213
0
LINE
8
BLACK
6
CONTINUOUS
10
6.5364173228346454
20
-5.6053149606299213
11
6.5364173228346454
21
-5.5521653543307083
0
LINE
8
BLACK
6
CONTINUOUS
10
6.5364173228346454
20
-5.5521653543307083
11
6.4399606299212593
21
-5.5521653543307083
0
LINE
8
BLACK
6
CONTINUOUS
10
6.4216364960629919
20
-5.4311772834645664
11
6.4221691732283466
21
-5.4317099606299211
0
LINE
8
BLACK
6
CONTINUOUS
10
6.4221691732283466
20
-5.4317099606299211
11
6.4222440944881889
21
-5.4320866141732278
0
LINE
8
BLACK
6
CONTINUOUS
10
6.4222440944881889
20
-5.4320866141732278
11
6.4222440944881889
21
-5.5935039370078741
0
LINE
8
BLACK
6
CONTINUOUS
10
6.4222440944881889
20
-5.5935039370078741
11
6.4221691732283466
21
-5.5938805905511808
0
LINE
8
BLACK
6
CONTINUOUS
10
6.4221691732283466
20
-5.5938805905511808
11
6.4216364960629919
21
-5.5944132677165355
0
LINE
8
BLACK
6
CONTINUOUS
10
6.4216364960629919
20
-5.5944132677165355
11
6.4212598425196852
21
-5.5944881889763778
0
LINE
8
BLACK
6
CONTINUOUS
10
6.4212598425196852
20
-5.5944881889763778
11
6.2874015748031491
21
-5.5944881889763778
0
LINE
8
BLACK
6
CONTINUOUS
10
6.2874015748031491
20
-5.5944881889763778
11
6.2870249212598424
21
-5.5944132677165355
0
LINE
8
BLACK
6
CONTINUOUS
10
6.2870249212598424
20
-5.5944132677165355
11
6.2864922440944877
21
-5.5938805905511808
0
LINE
8
BLACK
6
CONTINUOUS
10
6.2864922440944877
20
-5.5938805905511808
11
6.2864173228346454
21
-5.5935039370078741
0
LINE
8
BLACK
6
CONTINUOUS
10
6.2864173228346454
20
-5.5935039370078741
11
6.2864173228346454
21
-5.4320866141732278
0
LINE
8
BLACK
6
CONTINUOUS
10
6.2864173228346454
20
-5.4320866141732278
11
6.2864922440944877
21
-5.4317099606299211
0
LINE
8
BLACK
6
CONTINUOUS
10
6.2864922440944877
20
-5.4317099606299211
11
6.2870249212598424
21
-5.4311772834645664
0
LINE
8
BLACK
6
CONTINUOUS
10
6.2870249212598424
20
-5.4311772834645664
11
6.2874015748031491
21
-5.4311023622047241
0
LINE
8
BLACK
6
CONTINUOUS
10
6.2874015748031491
20
-5.4311023622047241
11
6.4212598425196852
21
-5.4311023622047241
0
LINE
8
BLACK
6
CONTINUOUS
10
6.4212598425196852
20
-5.4311023622047241
11
6.4216364960629919
21
-5.4311772834645664
0
LINE
8
BLACK
6
CONTINUOUS
10
6.2883858267716537
20
-5.4330708661417324
11
6.2883858267716537
21
-5.5925196850393704
0
LINE
8
BLACK
6
CONTINUOUS
10
6.2883858267716537
20
-5.5925196850393704
11
6.4202755905511806
21
-5.5925196850393704
0
LINE
8
BLACK
6
CONTINUOUS
10
6.4202755905511806
20
-5.5925196850393704
11
6.4202755905511806
21
-5.4330708661417324
0
LINE
8
BLACK
6
CONTINUOUS
10
6.4202755905511806
20
-5.4330708661417324
11
6.2883858267716537
21
-5.4330708661417324
0
LINE
8
BLACK
6
CONTINUOUS
10
6.5507703543307088
20
-5.4309804330708662
11
6.5513030314960625
21
-5.43151311023622
0
LINE
8
BLACK
6
CONTINUOUS
10
6.5513030314960625
20
-5.43151311023622
11
6.5513779527559057
21
-5.4318897637795276
0
LINE
8
BLACK
6
CONTINUOUS
10
6.5513779527559057
20
-5.4318897637795276
11
6.5513779527559057
21
-5.4893700787401576
0
LINE
8
BLACK
6
CONTINUOUS
10
6.5513779527559057
20
-5.4893700787401576
11
6.5513030314960625
21
-5.4897467322834643
0
LINE
8
BLACK
6
CONTINUOUS
10
6.5513030314960625
20
-5.4897467322834643
11
6.5508922834645666
21
-5.4901574803149602
0
LINE
8
BLACK
6
CONTINUOUS
10
6.5508922834645666
20
-5.4901574803149602
11
6.5513030314960625
21
-5.490568228346457
0
LINE
8
BLACK
6
CONTINUOUS
10
6.5513030314960625
20
-5.490568228346457
11
6.5513779527559057
21
-5.4909448818897637
0
LINE
8
BLACK
6
CONTINUOUS
10
6.5513779527559057
20
-5.4909448818897637
11
6.5513779527559057
21
-5.5484251968503937
0
LINE
8
BLACK
6
CONTINUOUS
10
6.5513779527559057
20
-5.5484251968503937
11
6.5513030314960625
21
-5.5488018503937004
0
LINE
8
BLACK
6
CONTINUOUS
10
6.5513030314960625
20
-5.5488018503937004
11
6.5507703543307088
21
-5.5493345275590551
0
LINE
8
BLACK
6
CONTINUOUS
10
6.5507703543307088
20
-5.5493345275590551
11
6.5503937007874011
21
-5.5494094488188974
0
LINE
8
BLACK
6
CONTINUOUS
10
6.5503937007874011
20
-5.5494094488188974
11
6.433858267716535
21
-5.5494094488188974
0
LINE
8
BLACK
6
CONTINUOUS
10
6.433858267716535
20
-5.5494094488188974
11
6.4334816141732283
21
-5.5493345275590551
0
LINE
8
BLACK
6
CONTINUOUS
10
6.4334816141732283
20
-5.5493345275590551
11
6.4329489370078736
21
-5.5488018503937004
0
LINE
8
BLACK
6
CONTINUOUS
10
6.4329489370078736
20
-5.5488018503937004
11
6.4328740157480313
21
-5.5484251968503937
0
LINE
8
BLACK
6
CONTINUOUS
10
6.4328740157480313
20
-5.5484251968503937
11
6.4328740157480313
21
-5.4909448818897637
0
LINE
8
BLACK
6
CONTINUOUS
10
6.4328740157480313
20
-5.4909448818897637
11
6.4329489370078736
21
-5.490568228346457
0
LINE
8
BLACK
6
CONTINUOUS
10
6.4329489370078736
20
-5.490568228346457
11
6.4333596850393695
21
-5.4901574803149602
0
LINE
8
BLACK
6
CONTINUOUS
10
6.4333596850393695
20
-5.4901574803149602
11
6.4329489370078736
21
-5.4897467322834643
0
LINE
8
BLACK
6
CONTINUOUS
10
6.4329489370078736
20
-5.4897467322834643
11
6.4328740157480313
21
-5.4893700787401576
0
LINE
8
BLACK
6
CONTINUOUS
10
6.4328740157480313
20
-5.4893700787401576
11
6.4328740157480313
21
-5.4318897637795276
0
LINE
8
BLACK
6
CONTINUOUS
10
6.4328740157480313
20
-5.4318897637795276
11
6.4329489370078736
21
-5.43151311023622
0
LINE
8
BLACK
6
CONTINUOUS
10
6.4329489370078736
20
-5.43151311023622
11
6.4334816141732283
21
-5.4309804330708662
0
LINE
8
BLACK
6
CONTINUOUS
10
6.4334816141732283
20
-5.4309804330708662
11
6.433858267716535
21
-5.4309055118110239
0
LINE
8
BLACK
6
CONTINUOUS
10
6.433858267716535
20
-5.4309055118110239
11
6.5503937007874011
21
-5.4309055118110239
0
LINE
8
BLACK
6
CONTINUOUS
10
6.5503937007874011
20
-5.4309055118110239
11
6.5507703543307088
21
-5.4309804330708662
0
LINE
8
BLACK
6
CONTINUOUS
10
6.4348425196850396
20
-5.4919291338582674
11
6.4348425196850396
21
-5.54744094488189
0
LINE
8
BLACK
6
CONTINUOUS
10
6.4348425196850396
20
-5.54744094488189
11
6.5494094488188974
21
-5.54744094488189
0
LINE
8
BLACK
6
CONTINUOUS
10
6.5494094488188974
20
-5.54744094488189
11
6.5494094488188974
21
-5.4919291338582674
0
LINE
8
BLACK
6
CONTINUOUS
10
6.5494094488188974
20
-5.4919291338582674
11
6.4348425196850396
21
-5.4919291338582674
0
LINE
8
BLACK
6
CONTINUOUS
10
6.4348425196850396
20
-5.4328740157480313
11
6.4348425196850396
21
-5.488385826771653
0
LINE
8
BLACK
6
CONTINUOUS
10
6.4348425196850396
20
-5.488385826771653
11
6.5494094488188974
21
-5.488385826771653
0
LINE
8
BLACK
6
CONTINUOUS
10
6.5494094488188974
20
-5.488385826771653
11
6.5494094488188974
21
-5.4328740157480313
0
LINE
8
BLACK
6
CONTINUOUS
10
6.5494094488188974
20
-5.4328740157480313
11
6.4348425196850396
21
-5.4328740157480313
0
LINE
8
BLACK
6
CONTINUOUS
10
5.9779357086614171
20
-5.488067047244094
11
5.9784683858267718
21
-5.4885997244094487
0
LINE
8
BLACK
6
CONTINUOUS
10
5.9784683858267718
20
-5.4885997244094487
11
5.9785433070866141
21
-5.4889763779527554
0
LINE
8
BLACK
6
CONTINUOUS
10
5.9785433070866141
20
-5.4889763779527554
11
5.9785433070866141
21
-5.5464566929133854
0
LINE
8
BLACK
6
CONTINUOUS
10
5.9785433070866141
20
-5.5464566929133854
11
5.9784683858267718
21
-5.546833346456693
0
LINE
8
BLACK
6
CONTINUOUS
10
5.9784683858267718
20
-5.546833346456693
11
5.9779357086614171
21
-5.5473660236220468
0
LINE
8
BLACK
6
CONTINUOUS
10
5.9779357086614171
20
-5.5473660236220468
11
5.9775590551181104
21
-5.54744094488189
0
LINE
8
BLACK
6
CONTINUOUS
10
5.9775590551181104
20
-5.54744094488189
11
5.8610236220472443
21
-5.54744094488189
0
LINE
8
BLACK
6
CONTINUOUS
10
5.8610236220472443
20
-5.54744094488189
11
5.8606469685039366
21
-5.5473660236220468
0
LINE
8
BLACK
6
CONTINUOUS
10
5.8606469685039366
20
-5.5473660236220468
11
5.8601142913385829
21
-5.546833346456693
0
LINE
8
BLACK
6
CONTINUOUS
10
5.8601142913385829
20
-5.546833346456693
11
5.8600393700787397
21
-5.5464566929133854
0
LINE
8
BLACK
6
CONTINUOUS
10
5.8600393700787397
20
-5.5464566929133854
11
5.8600393700787397
21
-5.4889763779527554
0
LINE
8
BLACK
6
CONTINUOUS
10
5.8600393700787397
20
-5.4889763779527554
11
5.8601142913385829
21
-5.4885997244094487
0
LINE
8
BLACK
6
CONTINUOUS
10
5.8601142913385829
20
-5.4885997244094487
11
5.8606469685039366
21
-5.488067047244094
0
LINE
8
BLACK
6
CONTINUOUS
10
5.8606469685039366
20
-5.488067047244094
11
5.8610236220472443
21
-5.4879921259842517
0
LINE
8
BLACK
6
CONTINUOUS
10
5.8610236220472443
20
-5.4879921259842517
11
5.9775590551181104
21
-5.4879921259842517
0
LINE
8
BLACK
6
CONTINUOUS
10
5.9775590551181104
20
-5.4879921259842517
11
5.9779357086614171
21
-5.488067047244094
0
LINE
8
BLACK
6
CONTINUOUS
10
5.862007874015748
20
-5.48996062992126
11
5.862007874015748
21
-5.5454724409448817
0
LINE
8
BLACK
6
CONTINUOUS
10
5.862007874015748
20
-5.5454724409448817
11
5.9765748031496058
21
-5.5454724409448817
0
LINE
8
BLACK
6
CONTINUOUS
10
5.9765748031496058
20
-5.5454724409448817
11
5.9765748031496058
21
-5.48996062992126
0
LINE
8
BLACK
6
CONTINUOUS
10
5.9765748031496058
20
-5.48996062992126
11
5.862007874015748
21
-5.48996062992126
0
LINE
8
BLACK
6
CONTINUOUS
10
5.5146635433070861
20
-5.4623791732283467
11
5.521112598425197
21
-5.4646357874015745
0
LINE
8
BLACK
6
CONTINUOUS
10
5.521112598425197
20
-5.4646357874015745
11
5.526897834645669
21
-5.4682709055118108
0
LINE
8
BLACK
6
CONTINUOUS
10
5.526897834645669
20
-5.4682709055118108
11
5.5317290944881892
21
-5.473102165354331
0
LINE
8
BLACK
6
CONTINUOUS
10
5.5317290944881892
20
-5.473102165354331
11
5.5353642125984255
21
-5.478887401574803
0
LINE
8
BLACK
6
CONTINUOUS
10
5.5353642125984255
20
-5.478887401574803
11
5.5376208267716533
21
-5.485336456692913
0
LINE
8
BLACK
6
CONTINUOUS
10
5.5376208267716533
20
-5.485336456692913
11
5.5383858267716537
21
-5.4921259842519685
0
LINE
8
BLACK
6
CONTINUOUS
10
5.5383858267716537
20
-5.4921259842519685
11
5.5376208267716533
21
-5.4989155118110231
0
LINE
8
BLACK
6
CONTINUOUS
10
5.5376208267716533
20
-5.4989155118110231
11
5.5353642125984255
21
-5.505364566929134
0
LINE
8
BLACK
6
CONTINUOUS
10
5.5353642125984255
20
-5.505364566929134
11
5.5317290944881892
21
-5.511149803149606
0
LINE
8
BLACK
6
CONTINUOUS
10
5.5317290944881892
20
-5.511149803149606
11
5.526897834645669
21
-5.5159810629921262
0
LINE
8
BLACK
6
CONTINUOUS
10
5.526897834645669
20
-5.5159810629921262
11
5.521112598425197
21
-5.5196161811023625
0
LINE
8
BLACK
6
CONTINUOUS
10
5.521112598425197
20
-5.5196161811023625
11
5.5146635433070861
21
-5.5218727952755904
0
LINE
8
BLACK
6
CONTINUOUS
10
5.5146635433070861
20
-5.5218727952755904
11
5.5078740157480315
21
-5.5226377952755907
0
LINE
8
BLACK
6
CONTINUOUS
10
5.5078740157480315
20
-5.5226377952755907
11
5.501084488188976
21
-5.5218727952755904
0
LINE
8
BLACK
6
CONTINUOUS
10
5.501084488188976
20
-5.5218727952755904
11
5.494635433070866
21
-5.5196161811023625
0
LINE
8
BLACK
6
CONTINUOUS
10
5.494635433070866
20
-5.5196161811023625
11
5.488850196850394
21
-5.5159810629921262
0
LINE
8
BLACK
6
CONTINUOUS
10
5.488850196850394
20
-5.5159810629921262
11
5.4840189370078738
21
-5.511149803149606
0
LINE
8
BLACK
6
CONTINUOUS
10
5.4840189370078738
20
-5.511149803149606
11
5.4803838188976375
21
-5.505364566929134
0
LINE
8
BLACK
6
CONTINUOUS
10
5.4803838188976375
20
-5.505364566929134
11
5.4781272047244096
21
-5.4989155118110231
0
LINE
8
BLACK
6
CONTINUOUS
10
5.4781272047244096
20
-5.4989155118110231
11
5.4773622047244093
21
-5.4921259842519685
0
LINE
8
BLACK
6
CONTINUOUS
10
5.4773622047244093
20
-5.4921259842519685
11
5.4781272047244096
21
-5.485336456692913
0
LINE
8
BLACK
6
CONTINUOUS
10
5.4781272047244096
20
-5.485336456692913
11
5.4803838188976375
21
-5.478887401574803
0
LINE
8
BLACK
6
CONTINUOUS
10
5.4803838188976375
20
-5.478887401574803
11
5.4840189370078738
21
-5.473102165354331
0
LINE
8
BLACK
6
CONTINUOUS
10
5.4840189370078738
20
-5.473102165354331
11
5.488850196850394
21
-5.4682709055118108
0
LINE
8
BLACK
6
CONTINUOUS
10
5.488850196850394
20
-5.4682709055118108
11
5.494635433070866
21
-5.4646357874015745
0
LINE
8
BLACK
6
CONTINUOUS
10
5.494635433070866
20
-5.4646357874015745
11
5.501084488188976
21
-5.4623791732283467
0
LINE
8
BLACK
6
CONTINUOUS
10
5.501084488188976
20
-5.4623791732283467
11
5.5078740157480315
21
-5.4616141732283463
0
LINE
8
BLACK
6
CONTINUOUS
10
5.5078740157480315
20
-5.4616141732283463
11
5.5146635433070861
21
-5.4623791732283467
0
LINE
8
BLACK
6
CONTINUOUS
10
5.4798702755905513
20
-5.4985176377952758
11
5.4819946850393704
21
-5.5045888188976377
0
LINE
8
BLACK
6
CONTINUOUS
10
5.4819946850393704
20
-5.5045888188976377
11
5.4854167716535436
21
-5.510035039370079
0
LINE
8
BLACK
6
CONTINUOUS
10
5.4854167716535436
20
-5.510035039370079
11
5.489964960629921
21
-5.5145832283464564
0
LINE
8
BLACK
6
CONTINUOUS
10
5.489964960629921
20
-5.5145832283464564
11
5.4954111811023623
21
-5.5180053149606296
0
LINE
8
BLACK
6
CONTINUOUS
10
5.4954111811023623
20
-5.5180053149606296
11
5.5014823622047242
21
-5.5201297244094487
0
LINE
8
BLACK
6
CONTINUOUS
10
5.5014823622047242
20
-5.5201297244094487
11
5.5078740157480315
21
-5.520849881889764
0
LINE
8
BLACK
6
CONTINUOUS
10
5.5078740157480315
20
-5.520849881889764
11
5.5142656692913388
21
-5.5201297244094487
0
LINE
8
BLACK
6
CONTINUOUS
10
5.5142656692913388
20
-5.5201297244094487
11
5.5203368503937007
21
-5.5180053149606296
0
LINE
8
BLACK
6
CONTINUOUS
10
5.5203368503937007
20
-5.5180053149606296
11
5.525783070866142
21
-5.5145832283464564
0
LINE
8
BLACK
6
CONTINUOUS
10
5.525783070866142
20
-5.5145832283464564
11
5.5303312598425194
21
-5.510035039370079
0
LINE
8
BLACK
6
CONTINUOUS
10
5.5303312598425194
20
-5.510035039370079
11
5.5337533464566926
21
-5.5045888188976377
0
LINE
8
BLACK
6
CONTINUOUS
10
5.5337533464566926
20
-5.5045888188976377
11
5.5358777559055117
21
-5.4985176377952758
0
LINE
8
BLACK
6
CONTINUOUS
10
5.5358777559055117
20
-5.4985176377952758
11
5.536597913385827
21
-5.4921259842519685
0
LINE
8
BLACK
6
CONTINUOUS
10
5.536597913385827
20
-5.4921259842519685
11
5.5358777559055117
21
-5.4857343307086612
0
LINE
8
BLACK
6
CONTINUOUS
10
5.5358777559055117
20
-5.4857343307086612
11
5.5337533464566926
21
-5.4796631496062993
0
LINE
8
BLACK
6
CONTINUOUS
10
5.5337533464566926
20
-5.4796631496062993
11
5.5303312598425194
21
-5.474216929133858
0
LINE
8
BLACK
6
CONTINUOUS
10
5.5303312598425194
20
-5.474216929133858
11
5.525783070866142
21
-5.4696687401574806
0
LINE
8
BLACK
6
CONTINUOUS
10
5.525783070866142
20
-5.4696687401574806
11
5.5203368503937007
21
-5.4662466535433065
0
LINE
8
BLACK
6
CONTINUOUS
10
5.5203368503937007
20
-5.4662466535433065
11
5.5142656692913388
21
-5.4641222440944883
0
LINE
8
BLACK
6
CONTINUOUS
10
5.5142656692913388
20
-5.4641222440944883
11
5.5078740157480315
21
-5.463402086614173
0
LINE
8
BLACK
6
CONTINUOUS
10
5.5078740157480315
20
-5.463402086614173
11
5.5014823622047242
21
-5.4641222440944883
0
LINE
8
BLACK
6
CONTINUOUS
10
5.5014823622047242
20
-5.4641222440944883
11
5.4954111811023623
21
-5.4662466535433065
0
LINE
8
BLACK
6
CONTINUOUS
10
5.4954111811023623
20
-5.4662466535433065
11
5.489964960629921
21
-5.4696687401574806
0
LINE
8
BLACK
6
CONTINUOUS
10
5.489964960629921
20
-5.4696687401574806
11
5.4854167716535436
21
-5.474216929133858
0
LINE
8
BLACK
6
CONTINUOUS
10
5.4854167716535436
20
-5.474216929133858
11
5.4819946850393704
21
-5.4796631496062993
0
LINE
8
BLACK
6
CONTINUOUS
10
5.4819946850393704
20
-5.4796631496062993
11
5.4798702755905513
21
-5.4857343307086612
0
LINE
8
BLACK
6
CONTINUOUS
10
5.4798702755905513
20
-5.4857343307086612
11
5.479150118110236
21
-5.4921259842519685
0
LINE
8
BLACK
6
CONTINUOUS
10
5.479150118110236
20
-5.4921259842519685
11
5.4798702755905513
21
-5.4985176377952758
0
LINE
8
BLACK
6
CONTINUOUS
10
6.2830538188976375
20
-5.4388544488188977
11
6.2835864960629921
21
-5.4393871259842514
0
LINE
8
BLACK
6
CONTINUOUS
10
6.2835864960629921
20
-5.4393871259842514
11
6.2836614173228345
21
-5.4397637795275591
0
LINE
8
BLACK
6
CONTINUOUS
10
6.2836614173228345
20
-5.4397637795275591
11
6.2836614173228345
21
-5.4972440944881891
0
LINE
8
BLACK
6
CONTINUOUS
10
6.2836614173228345
20
-5.4972440944881891
11
6.2835864960629921
21
-5.4976207480314958
0
LINE
8
BLACK
6
CONTINUOUS
10
6.2835864960629921
20
-5.4976207480314958
11
6.2830538188976375
21
-5.4981534251968505
0
LINE
8
BLACK
6
CONTINUOUS
10
6.2830538188976375
20
-5.4981534251968505
11
6.2826771653543307
21
-5.4982283464566928
0
LINE
8
BLACK
6
CONTINUOUS
10
6.2826771653543307
20
-5.4982283464566928
11
6.1661417322834646
21
-5.4982283464566928
0
LINE
8
BLACK
6
CONTINUOUS
10
6.1661417322834646
20
-5.4982283464566928
11
6.165765078740157
21
-5.4981534251968505
0
LINE
8
BLACK
6
CONTINUOUS
10
6.165765078740157
20
-5.4981534251968505
11
6.1652324015748032
21
-5.4976207480314958
0
LINE
8
BLACK
6
CONTINUOUS
10
6.1652324015748032
20
-5.4976207480314958
11
6.1651574803149609
21
-5.4972440944881891
0
LINE
8
BLACK
6
CONTINUOUS
10
6.1651574803149609
20
-5.4972440944881891
11
6.1651574803149609
21
-5.4397637795275591
0
LINE
8
BLACK
6
CONTINUOUS
10
6.1651574803149609
20
-5.4397637795275591
11
6.1652324015748032
21
-5.4393871259842514
0
LINE
8
BLACK
6
CONTINUOUS
10
6.1652324015748032
20
-5.4393871259842514
11
6.165765078740157
21
-5.4388544488188977
0
LINE
8
BLACK
6
CONTINUOUS
10
6.165765078740157
20
-5.4388544488188977
11
6.1661417322834646
21
-5.4387795275590554
0
LINE
8
BLACK
6
CONTINUOUS
10
6.1661417322834646
20
-5.4387795275590554
11
6.2826771653543307
21
-5.4387795275590554
0
LINE
8
BLACK
6
CONTINUOUS
10
6.2826771653543307
20
-5.4387795275590554
11
6.2830538188976375
21
-5.4388544488188977
0
LINE
8
BLACK
6
CONTINUOUS
10
6.1671259842519683
20
-5.4407480314960628
11
6.1671259842519683
21
-5.4962598425196854
0
LINE
8
BLACK
6
CONTINUOUS
10
6.1671259842519683
20
-5.4962598425196854
11
6.281692913385827
21
-5.4962598425196854
0
LINE
8
BLACK
6
CONTINUOUS
10
6.281692913385827
20
-5.4962598425196854
11
6.281692913385827
21
-5.4407480314960628
0
LINE
8
BLACK
6
CONTINUOUS
10
6.281692913385827
20
-5.4407480314960628
11
6.1671259842519683
21
-5.4407480314960628
0
LINE
8
BLACK
6
CONTINUOUS
10
6.1031168110236216
20
-5.336822952755905
11
6.1036494881889762
21
-5.3373556299212597
0
LINE
8
BLACK
6
CONTINUOUS
10
6.1036494881889762
20
-5.3373556299212597
11
6.1037244094488186
21
-5.3377322834645664
0
LINE
8
BLACK
6
CONTINUOUS
10
6.1037244094488186
20
-5.3377322834645664
11
6.1037244094488186
21
-5.4542677165354325
0
LINE
8
BLACK
6
CONTINUOUS
10
6.1037244094488186
20
-5.4542677165354325
11
6.1036494881889762
21
-5.4546443700787401
0
LINE
8
BLACK
6
CONTINUOUS
10
6.1036494881889762
20
-5.4546443700787401
11
6.1031168110236216
21
-5.4551770472440948
0
LINE
8
BLACK
6
CONTINUOUS
10
6.1031168110236216
20
-5.4551770472440948
11
6.1027401574803148
21
-5.4552519685039371
0
LINE
8
BLACK
6
CONTINUOUS
10
6.1027401574803148
20
-5.4552519685039371
11
6.0452598425196848
21
-5.4552519685039371
0
LINE
8
BLACK
6
CONTINUOUS
10
6.0452598425196848
20
-5.4552519685039371
11
6.0448831889763781
21
-5.4551770472440948
0
LINE
8
BLACK
6
CONTINUOUS
10
6.0448831889763781
20
-5.4551770472440948
11
6.0443505118110235
21
-5.4546443700787401
0
LINE
8
BLACK
6
CONTINUOUS
10
6.0443505118110235
20
-5.4546443700787401
11
6.0442755905511811
21
-5.4542677165354325
0
LINE
8
BLACK
6
CONTINUOUS
10
6.0442755905511811
20
-5.4542677165354325
11
6.0442755905511811
21
-5.3377322834645664
0
LINE
8
BLACK
6
CONTINUOUS
10
6.0442755905511811
20
-5.3377322834645664
11
6.0443505118110235
21
-5.3373556299212597
0
LINE
8
BLACK
6
CONTINUOUS
10
6.0443505118110235
20
-5.3373556299212597
11
6.0448831889763781
21
-5.336822952755905
0
LINE
8
BLACK
6
CONTINUOUS
10
6.0448831889763781
20
-5.336822952755905
11
6.0452598425196848
21
-5.3367480314960627
0
LINE
8
BLACK
6
CONTINUOUS
10
6.0452598425196848
20
-5.3367480314960627
11
6.1027401574803148
21
-5.3367480314960627
0
LINE
8
BLACK
6
CONTINUOUS
10
6.1027401574803148
20
-5.3367480314960627
11
6.1031168110236216
21
-5.336822952755905
0
LINE
8
BLACK
6
CONTINUOUS
10
6.0462440944881886
20
-5.338716535433071
11
6.0462440944881886
21
-5.4532834645669288
0
LINE
8
BLACK
6
CONTINUOUS
10
6.0462440944881886
20
-5.4532834645669288
11
6.1017559055118111
21
-5.4532834645669288
0
LINE
8
BLACK
6
CONTINUOUS
10
6.1017559055118111
20
-5.4532834645669288
11
6.1017559055118111
21
-5.338716535433071
0
LINE
8
BLACK
6
CONTINUOUS
10
6.1017559055118111
20
-5.338716535433071
11
6.0462440944881886
21
-5.338716535433071
0
LINE
8
BLACK
6
CONTINUOUS
10
6.0419120866141727
20
-5.3807835826771653
11
6.0424447637795273
21
-5.3813162598425199
0
LINE
8
BLACK
6
CONTINUOUS
10
6.0424447637795273
20
-5.3813162598425199
11
6.0425196850393696
21
-5.3816929133858267
0
LINE
8
BLACK
6
CONTINUOUS
10
6.0425196850393696
20
-5.3816929133858267
11
6.0425196850393696
21
-5.4391732283464567
0
LINE
8
BLACK
6
CONTINUOUS
10
6.0425196850393696
20
-5.4391732283464567
11
6.0424447637795273
21
-5.4395498818897634
0
LINE
8
BLACK
6
CONTINUOUS
10
6.0424447637795273
20
-5.4395498818897634
11
6.0419120866141727
21
-5.4400825590551181
0
LINE
8
BLACK
6
CONTINUOUS
10
6.0419120866141727
20
-5.4400825590551181
11
6.0415354330708659
21
-5.4401574803149604
0
LINE
8
BLACK
6
CONTINUOUS
10
6.0415354330708659
20
-5.4401574803149604
11
5.9249999999999998
21
-5.4401574803149604
0
LINE
8
BLACK
6
CONTINUOUS
10
5.9249999999999998
20
-5.4401574803149604
11
5.9246233464566931
21
-5.4400825590551181
0
LINE
8
BLACK
6
CONTINUOUS
10
5.9246233464566931
20
-5.4400825590551181
11
5.9240906692913384
21
-5.4395498818897634
0
LINE
8
BLACK
6
CONTINUOUS
10
5.9240906692913384
20
-5.4395498818897634
11
5.9240157480314961
21
-5.4391732283464567
0
LINE
8
BLACK
6
CONTINUOUS
10
5.9240157480314961
20
-5.4391732283464567
11
5.9240157480314961
21
-5.3816929133858267
0
LINE
8
BLACK
6
CONTINUOUS
10
5.9240157480314961
20
-5.3816929133858267
11
5.9240906692913384
21
-5.3813162598425199
0
LINE
8
BLACK
6
CONTINUOUS
10
5.9240906692913384
20
-5.3813162598425199
11
5.9246233464566931
21
-5.3807835826771653
0
LINE
8
BLACK
6
CONTINUOUS
10
5.9246233464566931
20
-5.3807835826771653
11
5.9249999999999998
21
-5.380708661417323
0
LINE
8
BLACK
6
CONTINUOUS
10
5.9249999999999998
20
-5.380708661417323
11
6.0415354330708659
21
-5.380708661417323
0
LINE
8
BLACK
6
CONTINUOUS
10
6.0415354330708659
20
-5.380708661417323
11
6.0419120866141727
21
-5.3807835826771653
0
LINE
8
BLACK
6
CONTINUOUS
10
5.9259842519685035
20
-5.3826771653543304
11
5.9259842519685035
21
-5.438188976377953
0
LINE
8
BLACK
6
CONTINUOUS
10
5.9259842519685035
20
-5.438188976377953
11
6.0405511811023622
21
-5.438188976377953
0
LINE
8
BLACK
6
CONTINUOUS
10
6.0405511811023622
20
-5.438188976377953
11
6.0405511811023622
21
-5.3826771653543304
0
LINE
8
BLACK
6
CONTINUOUS
10
6.0405511811023622
20
-5.3826771653543304
11
5.9259842519685035
21
-5.3826771653543304
0
LINE
8
BLACK
6
CONTINUOUS
10
6.6106128740157475
20
-5.045547362204724
11
6.6111455511811021
21
-5.0460800393700787
0
LINE
8
BLACK
6
CONTINUOUS
10
6.6111455511811021
20
-5.0460800393700787
11
6.6112204724409445
21
-5.0464566929133854
0
LINE
8
BLACK
6
CONTINUOUS
10
6.6112204724409445
20
-5.0464566929133854
11
6.6112204724409445
21
-5.4181102362204721
0
LINE
8
BLACK
6
CONTINUOUS
10
6.6112204724409445
20
-5.4181102362204721
11
6.6111455511811021
21
-5.4184868897637797
0
LINE
8
BLACK
6
CONTINUOUS
10
6.6111455511811021
20
-5.4184868897637797
11
6.6106128740157475
21
-5.4190195669291334
0
LINE
8
BLACK
6
CONTINUOUS
10
6.6106128740157475
20
-5.4190195669291334
11
6.6102362204724407
21
-5.4190944881889767
0
LINE
8
BLACK
6
CONTINUOUS
10
6.6102362204724407
20
-5.4190944881889767
11
6.3582677165354333
21
-5.4190944881889767
0
LINE
8
BLACK
6
CONTINUOUS
10
6.3582677165354333
20
-5.4190944881889767
11
6.3578910629921257
21
-5.4190195669291334
0
LINE
8
BLACK
6
CONTINUOUS
10
6.3578910629921257
20
-5.4190195669291334
11
6.3573583858267719
21
-5.4184868897637797
0
LINE
8
BLACK
6
CONTINUOUS
10
6.3573583858267719
20
-5.4184868897637797
11
6.3572834645669287
21
-5.4181102362204721
0
LINE
8
BLACK
6
CONTINUOUS
10
6.3572834645669287
20
-5.4181102362204721
11
6.3572834645669287
21
-5.0464566929133854
0
LINE
8
BLACK
6
CONTINUOUS
10
6.3572834645669287
20
-5.0464566929133854
11
6.3573583858267719
21
-5.0460800393700787
0
LINE
8
BLACK
6
CONTINUOUS
10
6.3573583858267719
20
-5.0460800393700787
11
6.3578910629921257
21
-5.045547362204724
0
LINE
8
BLACK
6
CONTINUOUS
10
6.3578910629921257
20
-5.045547362204724
11
6.3582677165354333
21
-5.0454724409448817
0
LINE
8
BLACK
6
CONTINUOUS
10
6.3582677165354333
20
-5.0454724409448817
11
6.6102362204724407
21
-5.0454724409448817
0
LINE
8
BLACK
6
CONTINUOUS
10
6.6102362204724407
20
-5.0454724409448817
11
6.6106128740157475
21
-5.045547362204724
0
LINE
8
BLACK
6
CONTINUOUS
10
6.359251968503937
20
-5.04744094488189
11
6.359251968503937
21
-5.4171259842519683
0
LINE
8
BLACK
6
CONTINUOUS
10
6.359251968503937
20
-5.4171259842519683
11
6.609251968503937
21
-5.4171259842519683
0
LINE
8
BLACK
6
CONTINUOUS
10
6.609251968503937
20
-5.4171259842519683
11
6.609251968503937
21
-5.04744094488189
0
LINE
8
BLACK
6
CONTINUOUS
10
6.609251968503937
20
-5.04744094488189
11
6.359251968503937
21
-5.04744094488189
0
LINE
8
BLACK
6
CONTINUOUS
10
5.6844317716535429
20
-5.3170040551181099
11
5.6849644488188975
21
-5.3175367322834646
0
LINE
8
BLACK
6
CONTINUOUS
10
5.6849644488188975
20
-5.3175367322834646
11
5.6850393700787398
21
-5.3179133858267713
0
LINE
8
BLACK
6
CONTINUOUS
10
5.6850393700787398
20
-5.3179133858267713
11
5.6850393700787398
21
-5.3848425196850389
0
LINE
8
BLACK
6
CONTINUOUS
10
5.6850393700787398
20
-5.3848425196850389
11
5.6849644488188975
21
-5.3852191732283465
0
LINE
8
BLACK
6
CONTINUOUS
10
5.6849644488188975
20
-5.3852191732283465
11
5.6844317716535429
21
-5.3857518503937003
0
LINE
8
BLACK
6
CONTINUOUS
10
5.6844317716535429
20
-5.3857518503937003
11
5.6840551181102361
21
-5.3858267716535435
0
LINE
8
BLACK
6
CONTINUOUS
10
5.6840551181102361
20
-5.3858267716535435
11
5.5462598425196852
21
-5.3858267716535435
0
LINE
8
BLACK
6
CONTINUOUS
10
5.5462598425196852
20
-5.3858267716535435
11
5.5458831889763776
21
-5.3857518503937003
0
LINE
8
BLACK
6
CONTINUOUS
10
5.5458831889763776
20
-5.3857518503937003
11
5.5453505118110238
21
-5.3852191732283465
0
LINE
8
BLACK
6
CONTINUOUS
10
5.5453505118110238
20
-5.3852191732283465
11
5.5452755905511806
21
-5.3848425196850389
0
LINE
8
BLACK
6
CONTINUOUS
10
5.5452755905511806
20
-5.3848425196850389
11
5.5452755905511806
21
-5.3179133858267713
0
LINE
8
BLACK
6
CONTINUOUS
10
5.5452755905511806
20
-5.3179133858267713
11
5.5453505118110238
21
-5.3175367322834646
0
LINE
8
BLACK
6
CONTINUOUS
10
5.5453505118110238
20
-5.3175367322834646
11
5.5458831889763776
21
-5.3170040551181099
0
LINE
8
BLACK
6
CONTINUOUS
10
5.5458831889763776
20
-5.3170040551181099
11
5.5462598425196852
21
-5.3169291338582676
0
LINE
8
BLACK
6
CONTINUOUS
10
5.5462598425196852
20
-5.3169291338582676
11
5.6840551181102361
21
-5.3169291338582676
0
LINE
8
BLACK
6
CONTINUOUS
10
5.6840551181102361
20
-5.3169291338582676
11
5.6844317716535429
21
-5.3170040551181099
0
LINE
8
BLACK
6
CONTINUOUS
10
5.5472440944881889
20
-5.3188976377952759
11
5.5472440944881889
21
-5.3838582677165352
0
LINE
8
BLACK
6
CONTINUOUS
10
5.5472440944881889
20
-5.3838582677165352
11
5.6830708661417324
21
-5.3838582677165352
0
LINE
8
BLACK
6
CONTINUOUS
10
5.6830708661417324
20
-5.3838582677165352
11
5.6830708661417324
21
-5.3188976377952759
0
LINE
8
BLACK
6
CONTINUOUS
10
5.6830708661417324
20
-5.3188976377952759
11
5.5472440944881889
21
-5.3188976377952759
0
LINE
8
BLACK
6
CONTINUOUS
10
5.7486049999999995
20
-5.2557835826771653
11
5.7491376771653542
21
-5.2563162598425199
0
LINE
8
BLACK
6
CONTINUOUS
10
5.7491376771653542
20
-5.2563162598425199
11
5.7492125984251965
21
-5.2566929133858267
0
LINE
8
BLACK
6
CONTINUOUS
10
5.7492125984251965
20
-5.2566929133858267
11
5.7492125984251965
21
-5.3732283464566928
0
LINE
8
BLACK
6
CONTINUOUS
10
5.7492125984251965
20
-5.3732283464566928
11
5.7491376771653542
21
-5.3736049999999995
0
LINE
8
BLACK
6
CONTINUOUS
10
5.7491376771653542
20
-5.3736049999999995
11
5.7486049999999995
21
-5.3741376771653542
0
LINE
8
BLACK
6
CONTINUOUS
10
5.7486049999999995
20
-5.3741376771653542
11
5.7482283464566928
21
-5.3742125984251965
0
LINE
8
BLACK
6
CONTINUOUS
10
5.7482283464566928
20
-5.3742125984251965
11
5.6907480314960628
21
-5.3742125984251965
0
LINE
8
BLACK
6
CONTINUOUS
10
5.6907480314960628
20
-5.3742125984251965
11
5.690371377952756
21
-5.3741376771653542
0
LINE
8
BLACK
6
CONTINUOUS
10
5.690371377952756
20
-5.3741376771653542
11
5.6898387007874014
21
-5.3736049999999995
0
LINE
8
BLACK
6
CONTINUOUS
10
5.6898387007874014
20
-5.3736049999999995
11
5.6897637795275591
21
-5.3732283464566928
0
LINE
8
BLACK
6
CONTINUOUS
10
5.6897637795275591
20
-5.3732283464566928
11
5.6897637795275591
21
-5.2566929133858267
0
LINE
8
BLACK
6
CONTINUOUS
10
5.6897637795275591
20
-5.2566929133858267
11
5.6898387007874014
21
-5.2563162598425199
0
LINE
8
BLACK
6
CONTINUOUS
10
5.6898387007874014
20
-5.2563162598425199
11
5.690371377952756
21
-5.2557835826771653
0
LINE
8
BLACK
6
CONTINUOUS
10
5.690371377952756
20
-5.2557835826771653
11
5.6907480314960628
21
-5.255708661417323
0
LINE
8
BLACK
6
CONTINUOUS
10
5.6907480314960628
20
-5.255708661417323
11
5.7482283464566928
21
-5.255708661417323
0
LINE
8
BLACK
6
CONTINUOUS
10
5.7482283464566928
20
-5.255708661417323
11
5.7486049999999995
21
-5.2557835826771653
0
LINE
8
BLACK
6
CONTINUOUS
10
5.6917322834645665
20
-5.2576771653543304
11
5.6917322834645665
21
-5.3722440944881891
0
LINE
8
BLACK
6
CONTINUOUS
10
5.6917322834645665
20
-5.3722440944881891
11
5.7472440944881891
21
-5.3722440944881891
0
LINE
8
BLACK
6
CONTINUOUS
10
5.7472440944881891
20
-5.3722440944881891
11
5.7472440944881891
21
-5.2576771653543304
0
LINE
8
BLACK
6
CONTINUOUS
10
5.7472440944881891
20
-5.2576771653543304
11
5.6917322834645665
21
-5.2576771653543304
0
LINE
8
BLACK
6
CONTINUOUS
10
5.9816758661417317
20
-5.1083426377952756
11
5.9822085433070864
21
-5.1088753149606294
0
LINE
8
BLACK
6
CONTINUOUS
10
5.9822085433070864
20
-5.1088753149606294
11
5.9822834645669287
21
-5.109251968503937
0
LINE
8
BLACK
6
CONTINUOUS
10
5.9822834645669287
20
-5.109251968503937
11
5.9822834645669287
21
-5.3553149606299213
0
LINE
8
BLACK
6
CONTINUOUS
10
5.9822834645669287
20
-5.3553149606299213
11
5.9822085433070864
21
-5.355691614173228
0
LINE
8
BLACK
6
CONTINUOUS
10
5.9822085433070864
20
-5.355691614173228
11
5.9816758661417317
21
-5.3562242913385827
0
LINE
8
BLACK
6
CONTINUOUS
10
5.9816758661417317
20
-5.3562242913385827
11
5.981299212598425
21
-5.356299212598425
0
LINE
8
BLACK
6
CONTINUOUS
10
5.981299212598425
20
-5.356299212598425
11
5.7746062992125982
21
-5.356299212598425
0
LINE
8
BLACK
6
CONTINUOUS
10
5.7746062992125982
20
-5.356299212598425
11
5.7742296456692914
21
-5.3562242913385827
0
LINE
8
BLACK
6
CONTINUOUS
10
5.7742296456692914
20
-5.3562242913385827
11
5.7736969685039368
21
-5.355691614173228
0
LINE
8
BLACK
6
CONTINUOUS
10
5.7736969685039368
20
-5.355691614173228
11
5.7736220472440944
21
-5.3553149606299213
0
LINE
8
BLACK
6
CONTINUOUS
10
5.7736220472440944
20
-5.3553149606299213
11
5.7736220472440944
21
-5.109251968503937
0
LINE
8
BLACK
6
CONTINUOUS
10
5.7736220472440944
20
-5.109251968503937
11
5.7736969685039368
21
-5.1088753149606294
0
LINE
8
BLACK
6
CONTINUOUS
10
5.7736969685039368
20
-5.1088753149606294
11
5.7742296456692914
21
-5.1083426377952756
0
LINE
8
BLACK
6
CONTINUOUS
10
5.7742296456692914
20
-5.1083426377952756
11
5.7746062992125982
21
-5.1082677165354333
0
LINE
8
BLACK
6
CONTINUOUS
10
5.7746062992125982
20
-5.1082677165354333
11
5.981299212598425
21
-5.1082677165354333
0
LINE
8
BLACK
6
CONTINUOUS
10
5.981299212598425
20
-5.1082677165354333
11
5.9816758661417317
21
-5.1083426377952756
0
LINE
8
BLACK
6
CONTINUOUS
10
5.7755905511811019
20
-5.1102362204724407
11
5.7755905511811019
21
-5.3543307086614176
0
LINE
8
BLACK
6
CONTINUOUS
10
5.7755905511811019
20
-5.3543307086614176
11
5.9803149606299213
21
-5.3543307086614176
0
LINE
8
BLACK
6
CONTINUOUS
10
5.9803149606299213
20
-5.3543307086614176
11
5.9803149606299213
21
-5.1102362204724407
0
LINE
8
BLACK
6
CONTINUOUS
10
5.9803149606299213
20
-5.1102362204724407
11
5.7755905511811019
21
-5.1102362204724407
0
LINE
8
BLACK
6
CONTINUOUS
10
6.1793057874015744
20
-5.245507992125984
11
6.1798384645669291
21
-5.2460406692913386
0
LINE
8
BLACK
6
CONTINUOUS
10
6.1798384645669291
20
-5.2460406692913386
11
6.1799133858267714
21
-5.2464173228346453
0
LINE
8
BLACK
6
CONTINUOUS
10
6.1799133858267714
20
-5.2464173228346453
11
6.1799133858267714
21
-5.323582677165354
0
LINE
8
BLACK
6
CONTINUOUS
10
6.1799133858267714
20
-5.323582677165354
11
6.1798384645669291
21
-5.3239593307086617
0
LINE
8
BLACK
6
CONTINUOUS
10
6.1798384645669291
20
-5.3239593307086617
11
6.1793057874015744
21
-5.3244920078740154
0
LINE
8
BLACK
6
CONTINUOUS
10
6.1793057874015744
20
-5.3244920078740154
11
6.1789291338582677
21
-5.3245669291338578
0
LINE
8
BLACK
6
CONTINUOUS
10
6.1789291338582677
20
-5.3245669291338578
11
6.0450708661417325
21
-5.3245669291338578
0
LINE
8
BLACK
6
CONTINUOUS
10
6.0450708661417325
20
-5.3245669291338578
11
6.0446942125984249
21
-5.3244920078740154
0
LINE
8
BLACK
6
CONTINUOUS
10
6.0446942125984249
20
-5.3244920078740154
11
6.0441615354330711
21
-5.3239593307086617
0
LINE
8
BLACK
6
CONTINUOUS
10
6.0441615354330711
20
-5.3239593307086617
11
6.0440866141732279
21
-5.323582677165354
0
LINE
8
BLACK
6
CONTINUOUS
10
6.0440866141732279
20
-5.323582677165354
11
6.0440866141732279
21
-5.2464173228346453
0
LINE
8
BLACK
6
CONTINUOUS
10
6.0440866141732279
20
-5.2464173228346453
11
6.0441615354330711
21
-5.2460406692913386
0
LINE
8
BLACK
6
CONTINUOUS
10
6.0441615354330711
20
-5.2460406692913386
11
6.0446942125984249
21
-5.245507992125984
0
LINE
8
BLACK
6
CONTINUOUS
10
6.0446942125984249
20
-5.245507992125984
11
6.0450708661417325
21
-5.2454330708661416
0
LINE
8
BLACK
6
CONTINUOUS
10
6.0450708661417325
20
-5.2454330708661416
11
6.1789291338582677
21
-5.2454330708661416
0
LINE
8
BLACK
6
CONTINUOUS
10
6.1789291338582677
20
-5.2454330708661416
11
6.1793057874015744
21
-5.245507992125984
0
LINE
8
BLACK
6
CONTINUOUS
10
6.0460551181102362
20
-5.2474015748031491
11
6.0460551181102362
21
-5.3225984251968503
0
LINE
8
BLACK
6
CONTINUOUS
10
6.0460551181102362
20
-5.3225984251968503
11
6.177944881889764
21
-5.3225984251968503
0
LINE
8
BLACK
6
CONTINUOUS
10
6.177944881889764
20
-5.3225984251968503
11
6.177944881889764
21
-5.2474015748031491
0
LINE
8
BLACK
6
CONTINUOUS
10
6.177944881889764
20
-5.2474015748031491
11
6.0460551181102362
21
-5.2474015748031491
0
LINE
8
BLACK
6
CONTINUOUS
10
6.2928963385826773
20
-5.2006654724409449
11
6.293429015748031
21
-5.2011981496062987
0
LINE
8
BLACK
6
CONTINUOUS
10
6.293429015748031
20
-5.2011981496062987
11
6.2935039370078742
21
-5.2015748031496063
0
LINE
8
BLACK
6
CONTINUOUS
10
6.2935039370078742
20
-5.2015748031496063
11
6.2935039370078742
21
-5.3181102362204724
0
LINE
8
BLACK
6
CONTINUOUS
10
6.2935039370078742
20
-5.3181102362204724
11
6.293429015748031
21
-5.3184868897637791
0
LINE
8
BLACK
6
CONTINUOUS
10
6.293429015748031
20
-5.3184868897637791
11
6.2928963385826773
21
-5.3190195669291338
0
LINE
8
BLACK
6
CONTINUOUS
10
6.2928963385826773
20
-5.3190195669291338
11
6.2925196850393696
21
-5.3190944881889761
0
LINE
8
BLACK
6
CONTINUOUS
10
6.2925196850393696
20
-5.3190944881889761
11
6.2350393700787397
21
-5.3190944881889761
0
LINE
8
BLACK
6
CONTINUOUS
10
6.2350393700787397
20
-5.3190944881889761
11
6.2346627165354329
21
-5.3190195669291338
0
LINE
8
BLACK
6
CONTINUOUS
10
6.2346627165354329
20
-5.3190195669291338
11
6.2341300393700783
21
-5.3184868897637791
0
LINE
8
BLACK
6
CONTINUOUS
10
6.2341300393700783
20
-5.3184868897637791
11
6.2340551181102359
21
-5.3181102362204724
0
LINE
8
BLACK
6
CONTINUOUS
10
6.2340551181102359
20
-5.3181102362204724
11
6.2340551181102359
21
-5.2015748031496063
0
LINE
8
BLACK
6
CONTINUOUS
10
6.2340551181102359
20
-5.2015748031496063
11
6.2341300393700783
21
-5.2011981496062987
0
LINE
8
BLACK
6
CONTINUOUS
10
6.2341300393700783
20
-5.2011981496062987
11
6.2346627165354329
21
-5.2006654724409449
0
LINE
8
BLACK
6
CONTINUOUS
10
6.2346627165354329
20
-5.2006654724409449
11
6.2350393700787397
21
-5.2005905511811026
0
LINE
8
BLACK
6
CONTINUOUS
10
6.2350393700787397
20
-5.2005905511811026
11
6.2925196850393696
21
-5.2005905511811026
0
LINE
8
BLACK
6
CONTINUOUS
10
6.2925196850393696
20
-5.2005905511811026
11
6.2928963385826773
21
-5.2006654724409449
0
LINE
8
BLACK
6
CONTINUOUS
10
6.2360236220472443
20
-5.20255905511811
11
6.2360236220472443
21
-5.3171259842519687
0
LINE
8
BLACK
6
CONTINUOUS
10
6.2360236220472443
20
-5.3171259842519687
11
6.2915354330708659
21
-5.3171259842519687
0
LINE
8
BLACK
6
CONTINUOUS
10
6.2915354330708659
20
-5.3171259842519687
11
6.2915354330708659
21
-5.20255905511811
0
LINE
8
BLACK
6
CONTINUOUS
10
6.2915354330708659
20
-5.20255905511811
11
6.2360236220472443
21
-5.20255905511811
0
LINE
8
BLACK
6
CONTINUOUS
10
6.3558884645669291
20
-5.2006654724409449
11
6.3564211417322829
21
-5.2011981496062987
0
LINE
8
BLACK
6
CONTINUOUS
10
6.3564211417322829
20
-5.2011981496062987
11
6.3564960629921261
21
-5.2015748031496063
0
LINE
8
BLACK
6
CONTINUOUS
10
6.3564960629921261
20
-5.2015748031496063
11
6.3564960629921261
21
-5.3181102362204724
0
LINE
8
BLACK
6
CONTINUOUS
10
6.3564960629921261
20
-5.3181102362204724
11
6.3564211417322829
21
-5.3184868897637791
0
LINE
8
BLACK
6
CONTINUOUS
10
6.3564211417322829
20
-5.3184868897637791
11
6.3558884645669291
21
-5.3190195669291338
0
LINE
8
BLACK
6
CONTINUOUS
10
6.3558884645669291
20
-5.3190195669291338
11
6.3555118110236215
21
-5.3190944881889761
0
LINE
8
BLACK
6
CONTINUOUS
10
6.3555118110236215
20
-5.3190944881889761
11
6.2980314960629924
21
-5.3190944881889761
0
LINE
8
BLACK
6
CONTINUOUS
10
6.2980314960629924
20
-5.3190944881889761
11
6.2976548425196848
21
-5.3190195669291338
0
LINE
8
BLACK
6
CONTINUOUS
10
6.2976548425196848
20
-5.3190195669291338
11
6.297122165354331
21
-5.3184868897637791
0
LINE
8
BLACK
6
CONTINUOUS
10
6.297122165354331
20
-5.3184868897637791
11
6.2970472440944878
21
-5.3181102362204724
0
LINE
8
BLACK
6
CONTINUOUS
10
6.2970472440944878
20
-5.3181102362204724
11
6.2970472440944878
21
-5.2015748031496063
0
LINE
8
BLACK
6
CONTINUOUS
10
6.2970472440944878
20
-5.2015748031496063
11
6.297122165354331
21
-5.2011981496062987
0
LINE
8
BLACK
6
CONTINUOUS
10
6.297122165354331
20
-5.2011981496062987
11
6.2976548425196848
21
-5.2006654724409449
0
LINE
8
BLACK
6
CONTINUOUS
10
6.2976548425196848
20
-5.2006654724409449
11
6.2980314960629924
21
-5.2005905511811026
0
LINE
8
BLACK
6
CONTINUOUS
10
6.2980314960629924
20
-5.2005905511811026
11
6.3555118110236215
21
-5.2005905511811026
0
LINE
8
BLACK
6
CONTINUOUS
10
6.3555118110236215
20
-5.2005905511811026
11
6.3558884645669291
21
-5.2006654724409449
0
LINE
8
BLACK
6
CONTINUOUS
10
6.2990157480314961
20
-5.20255905511811
11
6.2990157480314961
21
-5.3171259842519687
0
LINE
8
BLACK
6
CONTINUOUS
10
6.2990157480314961
20
-5.3171259842519687
11
6.3545275590551178
21
-5.3171259842519687
0
LINE
8
BLACK
6
CONTINUOUS
10
6.3545275590551178
20
-5.3171259842519687
11
6.3545275590551178
21
-5.20255905511811
0
LINE
8
BLACK
6
CONTINUOUS
10
6.3545275590551178
20
-5.20255905511811
11
6.2990157480314961
21
-5.20255905511811
0
LINE
8
BLACK
6
CONTINUOUS
10
5.687581377952756
20
-5.1573583858267718
11
5.6881140551181097
21
-5.1578910629921255
0
LINE
8
BLACK
6
CONTINUOUS
10
5.6881140551181097
20
-5.1578910629921255
11
5.688188976377953
21
-5.1582677165354331
0
LINE
8
BLACK
6
CONTINUOUS
10
5.688188976377953
20
-5.1582677165354331
11
5.688188976377953
21
-5.2748031496062993
0
LINE
8
BLACK
6
CONTINUOUS
10
5.688188976377953
20
-5.2748031496062993
11
5.6881140551181097
21
-5.275179803149606
0
LINE
8
BLACK
6
CONTINUOUS
10
5.6881140551181097
20
-5.275179803149606
11
5.687581377952756
21
-5.2757124803149607
0
LINE
8
BLACK
6
CONTINUOUS
10
5.687581377952756
20
-5.2757124803149607
11
5.6872047244094484
21
-5.275787401574803
0
LINE
8
BLACK
6
CONTINUOUS
10
5.6872047244094484
20
-5.275787401574803
11
5.6297244094488184
21
-5.275787401574803
0
LINE
8
BLACK
6
CONTINUOUS
10
5.6297244094488184
20
-5.275787401574803
11
5.6293477559055116
21
-5.2757124803149607
0
LINE
8
BLACK
6
CONTINUOUS
10
5.6293477559055116
20
-5.2757124803149607
11
5.628815078740157
21
-5.275179803149606
0
LINE
8
BLACK
6
CONTINUOUS
10
5.628815078740157
20
-5.275179803149606
11
5.6287401574803146
21
-5.2748031496062993
0
LINE
8
BLACK
6
CONTINUOUS
10
5.6287401574803146
20
-5.2748031496062993
11
5.6287401574803146
21
-5.1582677165354331
0
LINE
8
BLACK
6
CONTINUOUS
10
5.6287401574803146
20
-5.1582677165354331
11
5.628815078740157
21
-5.1578910629921255
0
LINE
8
BLACK
6
CONTINUOUS
10
5.628815078740157
20
-5.1578910629921255
11
5.6293477559055116
21
-5.1573583858267718
0
LINE
8
BLACK
6
CONTINUOUS
10
5.6293477559055116
20
-5.1573583858267718
11
5.6297244094488184
21
-5.1572834645669294
0
LINE
8
BLACK
6
CONTINUOUS
10
5.6297244094488184
20
-5.1572834645669294
11
5.6872047244094484
21
-5.1572834645669294
0
LINE
8
BLACK
6
CONTINUOUS
10
5.6872047244094484
20
-5.1572834645669294
11
5.687581377952756
21
-5.1573583858267718
0
LINE
8
BLACK
6
CONTINUOUS
10
5.630708661417323
20
-5.1592519685039369
11
5.630708661417323
21
-5.2738188976377955
0
LINE
8
BLACK
6
CONTINUOUS
10
5.630708661417323
20
-5.2738188976377955
11
5.6862204724409446
21
-5.2738188976377955
0
LINE
8
BLACK
6
CONTINUOUS
10
5.6862204724409446
20
-5.2738188976377955
11
5.6862204724409446
21
-5.1592519685039369
0
LINE
8
BLACK
6
CONTINUOUS
10
5.6862204724409446
20
-5.1592519685039369
11
5.630708661417323
21
-5.1592519685039369
0
LINE
8
BLACK
6
CONTINUOUS
10
5.0554947637795271
20
-5.1477127165354331
11
5.0560274409448818
21
-5.1482453937007877
0
LINE
8
BLACK
6
CONTINUOUS
10
5.0560274409448818
20
-5.1482453937007877
11
5.0561023622047241
21
-5.1486220472440944
0
LINE
8
BLACK
6
CONTINUOUS
10
5.0561023622047241
20
-5.1486220472440944
11
5.0561023622047241
21
-5.2391732283464565
0
LINE
8
BLACK
6
CONTINUOUS
10
5.0561023622047241
20
-5.2391732283464565
11
5.0560274409448818
21
-5.2395498818897632
0
LINE
8
BLACK
6
CONTINUOUS
10
5.0560274409448818
20
-5.2395498818897632
11
5.0554947637795271
21
-5.2400825590551179
0
LINE
8
BLACK
6
CONTINUOUS
10
5.0554947637795271
20
-5.2400825590551179
11
5.0551181102362204
21
-5.2401574803149602
0
LINE
8
BLACK
6
CONTINUOUS
10
5.0551181102362204
20
-5.2401574803149602
11
4.8740157480314963
21
-5.2401574803149602
0
LINE
8
BLACK
6
CONTINUOUS
10
4.8740157480314963
20
-5.2401574803149602
11
4.8736390944881887
21
-5.2400825590551179
0
LINE
8
BLACK
6
CONTINUOUS
10
4.8736390944881887
20
-5.2400825590551179
11
4.8731064173228349
21
-5.2395498818897632
0
LINE
8
BLACK
6
CONTINUOUS
10
4.8731064173228349
20
-5.2395498818897632
11
4.8730314960629917
21
-5.2391732283464565
0
LINE
8
BLACK
6
CONTINUOUS
10
4.8730314960629917
20
-5.2391732283464565
11
4.8730314960629917
21
-5.1486220472440944
0
LINE
8
BLACK
6
CONTINUOUS
10
4.8730314960629917
20
-5.1486220472440944
11
4.8731064173228349
21
-5.1482453937007877
0
LINE
8
BLACK
6
CONTINUOUS
10
4.8731064173228349
20
-5.1482453937007877
11
4.8736390944881887
21
-5.1477127165354331
0
LINE
8
BLACK
6
CONTINUOUS
10
4.8736390944881887
20
-5.1477127165354331
11
4.8740157480314963
21
-5.1476377952755907
0
LINE
8
BLACK
6
CONTINUOUS
10
4.8740157480314963
20
-5.1476377952755907
11
5.0551181102362204
21
-5.1476377952755907
0
LINE
8
BLACK
6
CONTINUOUS
10
5.0551181102362204
20
-5.1476377952755907
11
5.0554947637795271
21
-5.1477127165354331
0
LINE
8
BLACK
6
CONTINUOUS
10
4.875
20
-5.1496062992125982
11
4.875
21
-5.2381889763779528
0
LINE
8
BLACK
6
CONTINUOUS
10
4.875
20
-5.2381889763779528
11
5.0541338582677167
21
-5.2381889763779528
0
LINE
8
BLACK
6
CONTINUOUS
10
5.0541338582677167
20
-5.2381889763779528
11
5.0541338582677167
21
-5.1496062992125982
0
LINE
8
BLACK
6
CONTINUOUS
10
5.0541338582677167
20
-5.1496062992125982
11
4.875
21
-5.1496062992125982
0
LINE
8
BLACK
6
CONTINUOUS
10
6.0684868897637791
20
-5.0481064173228347
11
6.0690195669291338
21
-5.0486390944881885
0
LINE
8
BLACK
6
CONTINUOUS
10
6.0690195669291338
20
-5.0486390944881885
11
6.0690944881889761
21
-5.0490157480314961
0
LINE
8
BLACK
6
CONTINUOUS
10
6.0690944881889761
20
-5.0490157480314961
11
6.0690944881889761
21
-5.1603777165354332
0
LINE
8
BLACK
6
CONTINUOUS
10
6.0690944881889761
20
-5.1603777165354332
11
6.0691615354330706
21
-5.1600406692913383
0
LINE
8
BLACK
6
CONTINUOUS
10
6.0691615354330706
20
-5.1600406692913383
11
6.0696942125984252
21
-5.1595079921259845
0
LINE
8
BLACK
6
CONTINUOUS
10
6.0696942125984252
20
-5.1595079921259845
11
6.070070866141732
21
-5.1594330708661413
0
LINE
8
BLACK
6
CONTINUOUS
10
6.070070866141732
20
-5.1594330708661413
11
6.2039291338582672
21
-5.1594330708661413
0
LINE
8
BLACK
6
CONTINUOUS
10
6.2039291338582672
20
-5.1594330708661413
11
6.2043057874015748
21
-5.1595079921259845
0
LINE
8
BLACK
6
CONTINUOUS
10
6.2043057874015748
20
-5.1595079921259845
11
6.2048384645669286
21
-5.1600406692913383
0
LINE
8
BLACK
6
CONTINUOUS
10
6.2048384645669286
20
-5.1600406692913383
11
6.2049133858267718
21
-5.1604173228346459
0
LINE
8
BLACK
6
CONTINUOUS
10
6.2049133858267718
20
-5.1604173228346459
11
6.2049133858267718
21
-5.2375826771653546
0
LINE
8
BLACK
6
CONTINUOUS
10
6.2049133858267718
20
-5.2375826771653546
11
6.2048384645669286
21
-5.2379593307086614
0
LINE
8
BLACK
6
CONTINUOUS
10
6.2048384645669286
20
-5.2379593307086614
11
6.2043057874015748
21
-5.238492007874016
0
LINE
8
BLACK
6
CONTINUOUS
10
6.2043057874015748
20
-5.238492007874016
11
6.2039291338582672
21
-5.2385669291338584
0
LINE
8
BLACK
6
CONTINUOUS
10
6.2039291338582672
20
-5.2385669291338584
11
6.070070866141732
21
-5.2385669291338584
0
LINE
8
BLACK
6
CONTINUOUS
10
6.070070866141732
20
-5.2385669291338584
11
6.0696942125984252
21
-5.238492007874016
0
LINE
8
BLACK
6
CONTINUOUS
10
6.0696942125984252
20
-5.238492007874016
11
6.0691615354330706
21
-5.2379593307086614
0
LINE
8
BLACK
6
CONTINUOUS
10
6.0691615354330706
20
-5.2379593307086614
11
6.0690866141732283
21
-5.2375826771653546
0
LINE
8
BLACK
6
CONTINUOUS
10
6.0690866141732283
20
-5.2375826771653546
11
6.0690866141732283
21
-5.1655907480314962
0
LINE
8
BLACK
6
CONTINUOUS
10
6.0690866141732283
20
-5.1655907480314962
11
6.0690195669291338
21
-5.165927834645669
0
LINE
8
BLACK
6
CONTINUOUS
10
6.0690195669291338
20
-5.165927834645669
11
6.0684868897637791
21
-5.1664605118110236
0
LINE
8
BLACK
6
CONTINUOUS
10
6.0684868897637791
20
-5.1664605118110236
11
6.0681102362204724
21
-5.1665354330708659
0
LINE
8
BLACK
6
CONTINUOUS
10
6.0681102362204724
20
-5.1665354330708659
11
6.0106299212598424
21
-5.1665354330708659
0
LINE
8
BLACK
6
CONTINUOUS
10
6.0106299212598424
20
-5.1665354330708659
11
6.0102532677165357
21
-5.1664605118110236
0
LINE
8
BLACK
6
CONTINUOUS
10
6.0102532677165357
20
-5.1664605118110236
11
6.009720590551181
21
-5.165927834645669
0
LINE
8
BLACK
6
CONTINUOUS
10
6.009720590551181
20
-5.165927834645669
11
6.0096456692913387
21
-5.1655511811023622
0
LINE
8
BLACK
6
CONTINUOUS
10
6.0096456692913387
20
-5.1655511811023622
11
6.0096456692913387
21
-5.0490157480314961
0
LINE
8
BLACK
6
CONTINUOUS
10
6.0096456692913387
20
-5.0490157480314961
11
6.009720590551181
21
-5.0486390944881885
0
LINE
8
BLACK
6
CONTINUOUS
10
6.009720590551181
20
-5.0486390944881885
11
6.0102532677165357
21
-5.0481064173228347
0
LINE
8
BLACK
6
CONTINUOUS
10
6.0102532677165357
20
-5.0481064173228347
11
6.0106299212598424
21
-5.0480314960629924
0
LINE
8
BLACK
6
CONTINUOUS
10
6.0106299212598424
20
-5.0480314960629924
11
6.0681102362204724
21
-5.0480314960629924
0
LINE
8
BLACK
6
CONTINUOUS
10
6.0681102362204724
20
-5.0480314960629924
11
6.0684868897637791
21
-5.0481064173228347
0
LINE
8
BLACK
6
CONTINUOUS
10
6.0710551181102357
20
-5.1614015748031496
11
6.0710551181102357
21
-5.23659842519685
0
LINE
8
BLACK
6
CONTINUOUS
10
6.0710551181102357
20
-5.23659842519685
11
6.2029448818897635
21
-5.23659842519685
0
LINE
8
BLACK
6
CONTINUOUS
10
6.2029448818897635
20
-5.23659842519685
11
6.2029448818897635
21
-5.1614015748031496
0
LINE
8
BLACK
6
CONTINUOUS
10
6.2029448818897635
20
-5.1614015748031496
11
6.0710551181102357
21
-5.1614015748031496
0
LINE
8
BLACK
6
CONTINUOUS
10
6.0116141732283461
20
-5.0499999999999998
11
6.0116141732283461
21
-5.1645669291338585
0
LINE
8
BLACK
6
CONTINUOUS
10
6.0116141732283461
20
-5.1645669291338585
11
6.0671259842519687
21
-5.1645669291338585
0
LINE
8
BLACK
6
CONTINUOUS
10
6.0671259842519687
20
-5.1645669291338585
11
6.0671259842519687
21
-5.0499999999999998
0
LINE
8
BLACK
6
CONTINUOUS
10
6.0671259842519687
20
-5.0499999999999998
11
6.0116141732283461
21
-5.0499999999999998
0
LINE
8
BLACK
6
CONTINUOUS
10
5.523801850393701
20
-4.8890512992125981
11
5.5243345275590547
21
-4.8895839763779527
0
LINE
8
BLACK
6
CONTINUOUS
10
5.5243345275590547
20
-4.8895839763779527
11
5.5244094488188979
21
-4.8899606299212595
0
LINE
8
BLACK
6
CONTINUOUS
10
5.5244094488188979
20
-4.8899606299212595
11
5.5244094488188979
21
-5.1907480314960628
0
LINE
8
BLACK
6
CONTINUOUS
10
5.5244094488188979
20
-5.1907480314960628
11
5.5243345275590547
21
-5.1911246850393695
0
LINE
8
BLACK
6
CONTINUOUS
10
5.5243345275590547
20
-5.1911246850393695
11
5.523801850393701
21
-5.1916573622047242
0
LINE
8
BLACK
6
CONTINUOUS
10
5.523801850393701
20
-5.1916573622047242
11
5.5234251968503933
21
-5.1917322834645665
0
LINE
8
BLACK
6
CONTINUOUS
10
5.5234251968503933
20
-5.1917322834645665
11
5.3722440944881891
21
-5.1917322834645665
0
LINE
8
BLACK
6
CONTINUOUS
10
5.3722440944881891
20
-5.1917322834645665
11
5.3718674409448814
21
-5.1916573622047242
0
LINE
8
BLACK
6
CONTINUOUS
10
5.3718674409448814
20
-5.1916573622047242
11
5.3713347637795277
21
-5.1911246850393695
0
LINE
8
BLACK
6
CONTINUOUS
10
5.3713347637795277
20
-5.1911246850393695
11
5.3712598425196854
21
-5.1907480314960628
0
LINE
8
BLACK
6
CONTINUOUS
10
5.3712598425196854
20
-5.1907480314960628
11
5.3712598425196854
21
-4.8899606299212595
0
LINE
8
BLACK
6
CONTINUOUS
10
5.3712598425196854
20
-4.8899606299212595
11
5.3713347637795277
21
-4.8895839763779527
0
LINE
8
BLACK
6
CONTINUOUS
10
5.3713347637795277
20
-4.8895839763779527
11
5.3718674409448814
21
-4.8890512992125981
0
LINE
8
BLACK
6
CONTINUOUS
10
5.3718674409448814
20
-4.8890512992125981
11
5.3722440944881891
21
-4.8889763779527557
0
LINE
8
BLACK
6
CONTINUOUS
10
5.3722440944881891
20
-4.8889763779527557
11
5.5234251968503933
21
-4.8889763779527557
0
LINE
8
BLACK
6
CONTINUOUS
10
5.5234251968503933
20
-4.8889763779527557
11
5.523801850393701
21
-4.8890512992125981
0
LINE
8
BLACK
6
CONTINUOUS
10
5.3732283464566928
20
-4.8909448818897641
11
5.3732283464566928
21
-5.1897637795275591
0
LINE
8
BLACK
6
CONTINUOUS
10
5.3732283464566928
20
-5.1897637795275591
11
5.5224409448818896
21
-5.1897637795275591
0
LINE
8
BLACK
6
CONTINUOUS
10
5.5224409448818896
20
-5.1897637795275591
11
5.5224409448818896
21
-4.8909448818897641
0
LINE
8
BLACK
6
CONTINUOUS
10
5.5224409448818896
20
-4.8909448818897641
11
5.3732283464566928
21
-4.8909448818897641
0
LINE
8
BLACK
6
CONTINUOUS
10
6.2599278346456693
20
-5.0658150787401572
11
6.2604605118110239
21
-5.0663477559055119
0
LINE
8
BLACK
6
CONTINUOUS
10
6.2604605118110239
20
-5.0663477559055119
11
6.2605354330708662
21
-5.0667244094488186
0
LINE
8
BLACK
6
CONTINUOUS
10
6.2605354330708662
20
-5.0667244094488186
11
6.2605354330708662
21
-5.1572755905511807
0
LINE
8
BLACK
6
CONTINUOUS
10
6.2605354330708662
20
-5.1572755905511807
11
6.2604605118110239
21
-5.1576522440944883
0
LINE
8
BLACK
6
CONTINUOUS
10
6.2604605118110239
20
-5.1576522440944883
11
6.2599278346456693
21
-5.1581849212598421
0
LINE
8
BLACK
6
CONTINUOUS
10
6.2599278346456693
20
-5.1581849212598421
11
6.2595511811023616
21
-5.1582598425196853
0
LINE
8
BLACK
6
CONTINUOUS
10
6.2595511811023616
20
-5.1582598425196853
11
6.0784488188976376
21
-5.1582598425196853
0
LINE
8
BLACK
6
CONTINUOUS
10
6.0784488188976376
20
-5.1582598425196853
11
6.0780721653543308
21
-5.1581849212598421
0
LINE
8
BLACK
6
CONTINUOUS
10
6.0780721653543308
20
-5.1581849212598421
11
6.0775394881889762
21
-5.1576522440944883
0
LINE
8
BLACK
6
CONTINUOUS
10
6.0775394881889762
20
-5.1576522440944883
11
6.0774645669291338
21
-5.1572755905511807
0
LINE
8
BLACK
6
CONTINUOUS
10
6.0774645669291338
20
-5.1572755905511807
11
6.0774645669291338
21
-5.0667244094488186
0
LINE
8
BLACK
6
CONTINUOUS
10
6.0774645669291338
20
-5.0667244094488186
11
6.0775394881889762
21
-5.0663477559055119
0
LINE
8
BLACK
6
CONTINUOUS
10
6.0775394881889762
20
-5.0663477559055119
11
6.0780721653543308
21
-5.0658150787401572
0
LINE
8
BLACK
6
CONTINUOUS
10
6.0780721653543308
20
-5.0658150787401572
11
6.0784488188976376
21
-5.0657401574803149
0
LINE
8
BLACK
6
CONTINUOUS
10
6.0784488188976376
20
-5.0657401574803149
11
6.2595511811023616
21
-5.0657401574803149
0
LINE
8
BLACK
6
CONTINUOUS
10
6.2595511811023616
20
-5.0657401574803149
11
6.2599278346456693
21
-5.0658150787401572
0
LINE
8
BLACK
6
CONTINUOUS
10
6.0794330708661413
20
-5.0677086614173223
11
6.0794330708661413
21
-5.156291338582677
0
LINE
8
BLACK
6
CONTINUOUS
10
6.0794330708661413
20
-5.156291338582677
11
6.2585669291338579
21
-5.156291338582677
0
LINE
8
BLACK
6
CONTINUOUS
10
6.2585669291338579
20
-5.156291338582677
11
6.2585669291338579
21
-5.0677086614173223
0
LINE
8
BLACK
6
CONTINUOUS
10
6.2585669291338579
20
-5.0677086614173223
11
6.0794330708661413
21
-5.0677086614173223
0
LINE
8
BLACK
6
CONTINUOUS
10
6.3549593307086614
20
-5.0101615354330704
11
6.355492007874016
21
-5.0106942125984251
0
LINE
8
BLACK
6
CONTINUOUS
10
6.355492007874016
20
-5.0106942125984251
11
6.3555669291338583
21
-5.0110708661417318
0
LINE
8
BLACK
6
CONTINUOUS
10
6.3555669291338583
20
-5.0110708661417318
11
6.3555669291338583
21
-5.1449291338582679
0
LINE
8
BLACK
6
CONTINUOUS
10
6.3555669291338583
20
-5.1449291338582679
11
6.355492007874016
21
-5.1453057874015746
0
LINE
8
BLACK
6
CONTINUOUS
10
6.355492007874016
20
-5.1453057874015746
11
6.3549593307086614
21
-5.1458384645669293
0
LINE
8
BLACK
6
CONTINUOUS
10
6.3549593307086614
20
-5.1458384645669293
11
6.3545826771653537
21
-5.1459133858267716
0
LINE
8
BLACK
6
CONTINUOUS
10
6.3545826771653537
20
-5.1459133858267716
11
6.2774173228346459
21
-5.1459133858267716
0
LINE
8
BLACK
6
CONTINUOUS
10
6.2774173228346459
20
-5.1459133858267716
11
6.2770406692913383
21
-5.1458384645669293
0
LINE
8
BLACK
6
CONTINUOUS
10
6.2770406692913383
20
-5.1458384645669293
11
6.2765079921259845
21
-5.1453057874015746
0
LINE
8
BLACK
6
CONTINUOUS
10
6.2765079921259845
20
-5.1453057874015746
11
6.2764330708661413
21
-5.1449291338582679
0
LINE
8
BLACK
6
CONTINUOUS
10
6.2764330708661413
20
-5.1449291338582679
11
6.2764330708661413
21
-5.0110708661417318
0
LINE
8
BLACK
6
CONTINUOUS
10
6.2764330708661413
20
-5.0110708661417318
11
6.2765079921259845
21
-5.0106942125984251
0
LINE
8
BLACK
6
CONTINUOUS
10
6.2765079921259845
20
-5.0106942125984251
11
6.2770406692913383
21
-5.0101615354330704
0
LINE
8
BLACK
6
CONTINUOUS
10
6.2770406692913383
20
-5.0101615354330704
11
6.2774173228346459
21
-5.0100866141732281
0
LINE
8
BLACK
6
CONTINUOUS
10
6.2774173228346459
20
-5.0100866141732281
11
6.3545826771653537
21
-5.0100866141732281
0
LINE
8
BLACK
6
CONTINUOUS
10
6.3545826771653537
20
-5.0100866141732281
11
6.3549593307086614
21
-5.0101615354330704
0
LINE
8
BLACK
6
CONTINUOUS
10
6.2784015748031496
20
-5.0120551181102364
11
6.2784015748031496
21
-5.1439448818897633
0
LINE
8
BLACK
6
CONTINUOUS
10
6.2784015748031496
20
-5.1439448818897633
11
6.35359842519685
21
-5.1439448818897633
0
LINE
8
BLACK
6
CONTINUOUS
10
6.35359842519685
20
-5.1439448818897633
11
6.35359842519685
21
-5.0120551181102364
0
LINE
8
BLACK
6
CONTINUOUS
10
6.35359842519685
20
-5.0120551181102364
11
6.2784015748031496
21
-5.0120551181102364
0
LINE
8
BLACK
6
CONTINUOUS
10
5.0554947637795271
20
-5.0532245275590553
11
5.0560274409448818
21
-5.053757204724409
0
LINE
8
BLACK
6
CONTINUOUS
10
5.0560274409448818
20
-5.053757204724409
11
5.0561023622047241
21
-5.0541338582677167
0
LINE
8
BLACK
6
CONTINUOUS
10
5.0561023622047241
20
-5.0541338582677167
11
5.0561023622047241
21
-5.1446850393700787
0
LINE
8
BLACK
6
CONTINUOUS
10
5.0561023622047241
20
-5.1446850393700787
11
5.0560274409448818
21
-5.1450616929133854
0
LINE
8
BLACK
6
CONTINUOUS
10
5.0560274409448818
20
-5.1450616929133854
11
5.0554947637795271
21
-5.1455943700787401
0
LINE
8
BLACK
6
CONTINUOUS
10
5.0554947637795271
20
-5.1455943700787401
11
5.0551181102362204
21
-5.1456692913385824
0
LINE
8
BLACK
6
CONTINUOUS
10
5.0551181102362204
20
-5.1456692913385824
11
4.8740157480314963
21
-5.1456692913385824
0
LINE
8
BLACK
6
CONTINUOUS
10
4.8740157480314963
20
-5.1456692913385824
11
4.8736390944881887
21
-5.1455943700787401
0
LINE
8
BLACK
6
CONTINUOUS
10
4.8736390944881887
20
-5.1455943700787401
11
4.8731064173228349
21
-5.1450616929133854
0
LINE
8
BLACK
6
CONTINUOUS
10
4.8731064173228349
20
-5.1450616929133854
11
4.8730314960629917
21
-5.1446850393700787
0
LINE
8
BLACK
6
CONTINUOUS
10
4.8730314960629917
20
-5.1446850393700787
11
4.8730314960629917
21
-5.0541338582677167
0
LINE
8
BLACK
6
CONTINUOUS
10
4.8730314960629917
20
-5.0541338582677167
11
4.8731064173228349
21
-5.053757204724409
0
LINE
8
BLACK
6
CONTINUOUS
10
4.8731064173228349
20
-5.053757204724409
11
4.8736390944881887
21
-5.0532245275590553
0
LINE
8
BLACK
6
CONTINUOUS
10
4.8736390944881887
20
-5.0532245275590553
11
4.8740157480314963
21
-5.0531496062992121
0
LINE
8
BLACK
6
CONTINUOUS
10
4.8740157480314963
20
-5.0531496062992121
11
5.0551181102362204
21
-5.0531496062992121
0
LINE
8
BLACK
6
CONTINUOUS
10
5.0551181102362204
20
-5.0531496062992121
11
5.0554947637795271
21
-5.0532245275590553
0
LINE
8
BLACK
6
CONTINUOUS
10
4.875
20
-5.0551181102362204
11
4.875
21
-5.143700787401575
0
LINE
8
BLACK
6
CONTINUOUS
10
4.875
20
-5.143700787401575
11
5.0541338582677167
21
-5.143700787401575
0
LINE
8
BLACK
6
CONTINUOUS
10
5.0541338582677167
20
-5.143700787401575
11
5.0541338582677167
21
-5.0551181102362204
0
LINE
8
BLACK
6
CONTINUOUS
10
5.0541338582677167
20
-5.0551181102362204
11
4.875
21
-5.0551181102362204
0
LINE
8
BLACK
6
CONTINUOUS
10
5.8440774409448819
20
-5.0136575984251968
11
5.8446101181102357
21
-5.0141902755905514
0
LINE
8
BLACK
6
CONTINUOUS
10
5.8446101181102357
20
-5.0141902755905514
11
5.8446850393700789
21
-5.0145669291338582
0
LINE
8
BLACK
6
CONTINUOUS
10
5.8446850393700789
20
-5.0145669291338582
11
5.8446850393700789
21
-5.0720472440944881
0
LINE
8
BLACK
6
CONTINUOUS
10
5.8446850393700789
20
-5.0720472440944881
11
5.8446101181102357
21
-5.0724238976377949
0
LINE
8
BLACK
6
CONTINUOUS
10
5.8446101181102357
20
-5.0724238976377949
11
5.8440774409448819
21
-5.0729565748031495
0
LINE
8
BLACK
6
CONTINUOUS
10
5.8440774409448819
20
-5.0729565748031495
11
5.8437007874015743
21
-5.0730314960629919
0
LINE
8
BLACK
6
CONTINUOUS
10
5.8437007874015743
20
-5.0730314960629919
11
5.7271653543307082
21
-5.0730314960629919
0
LINE
8
BLACK
6
CONTINUOUS
10
5.7271653543307082
20
-5.0730314960629919
11
5.7267887007874014
21
-5.0729565748031495
0
LINE
8
BLACK
6
CONTINUOUS
10
5.7267887007874014
20
-5.0729565748031495
11
5.7262560236220468
21
-5.0724238976377949
0
LINE
8
BLACK
6
CONTINUOUS
10
5.7262560236220468
20
-5.0724238976377949
11
5.7261811023622045
21
-5.0720472440944881
0
LINE
8
BLACK
6
CONTINUOUS
10
5.7261811023622045
20
-5.0720472440944881
11
5.7261811023622045
21
-5.0145669291338582
0
LINE
8
BLACK
6
CONTINUOUS
10
5.7261811023622045
20
-5.0145669291338582
11
5.7262560236220468
21
-5.0141902755905514
0
LINE
8
BLACK
6
CONTINUOUS
10
5.7262560236220468
20
-5.0141902755905514
11
5.7267887007874014
21
-5.0136575984251968
0
LINE
8
BLACK
6
CONTINUOUS
10
5.7267887007874014
20
-5.0136575984251968
11
5.7271653543307082
21
-5.0135826771653544
0
LINE
8
BLACK
6
CONTINUOUS
10
5.7271653543307082
20
-5.0135826771653544
11
5.8437007874015743
21
-5.0135826771653544
0
LINE
8
BLACK
6
CONTINUOUS
10
5.8437007874015743
20
-5.0135826771653544
11
5.8440774409448819
21
-5.0136575984251968
0
LINE
8
BLACK
6
CONTINUOUS
10
5.7281496062992128
20
-5.0155511811023619
11
5.7281496062992128
21
-5.0710629921259844
0
LINE
8
BLACK
6
CONTINUOUS
10
5.7281496062992128
20
-5.0710629921259844
11
5.8427165354330706
21
-5.0710629921259844
0
LINE
8
BLACK
6
CONTINUOUS
10
5.8427165354330706
20
-5.0710629921259844
11
5.8427165354330706
21
-5.0155511811023619
0
LINE
8
BLACK
6
CONTINUOUS
10
5.8427165354330706
20
-5.0155511811023619
11
5.7281496062992128
21
-5.0155511811023619
0
LINE
8
BLACK
6
CONTINUOUS
10
5.9759672047244097
20
-4.9782245275590551
11
5.9764998818897634
21
-4.9787572047244097
0
LINE
8
BLACK
6
CONTINUOUS
10
5.9764998818897634
20
-4.9787572047244097
11
5.9765748031496058
21
-4.9791338582677165
0
LINE
8
BLACK
6
CONTINUOUS
10
5.9765748031496058
20
-4.9791338582677165
11
5.9765748031496058
21
-5.0366141732283465
0
LINE
8
BLACK
6
CONTINUOUS
10
5.9765748031496058
20
-5.0366141732283465
11
5.9764998818897634
21
-5.0369908267716532
0
LINE
8
BLACK
6
CONTINUOUS
10
5.9764998818897634
20
-5.0369908267716532
11
5.9759672047244097
21
-5.0375235039370079
0
LINE
8
BLACK
6
CONTINUOUS
10
5.9759672047244097
20
-5.0375235039370079
11
5.9755905511811021
21
-5.0375984251968502
0
LINE
8
BLACK
6
CONTINUOUS
10
5.9755905511811021
20
-5.0375984251968502
11
5.8590551181102359
21
-5.0375984251968502
0
LINE
8
BLACK
6
CONTINUOUS
10
5.8590551181102359
20
-5.0375984251968502
11
5.8586784645669292
21
-5.0375235039370079
0
LINE
8
BLACK
6
CONTINUOUS
10
5.8586784645669292
20
-5.0375235039370079
11
5.8581457874015745
21
-5.0369908267716532
0
LINE
8
BLACK
6
CONTINUOUS
10
5.8581457874015745
20
-5.0369908267716532
11
5.8580708661417322
21
-5.0366141732283465
0
LINE
8
BLACK
6
CONTINUOUS
10
5.8580708661417322
20
-5.0366141732283465
11
5.8580708661417322
21
-4.9791338582677165
0
LINE
8
BLACK
6
CONTINUOUS
10
5.8580708661417322
20
-4.9791338582677165
11
5.8581457874015745
21
-4.9787572047244097
0
LINE
8
BLACK
6
CONTINUOUS
10
5.8581457874015745
20
-4.9787572047244097
11
5.8586784645669292
21
-4.9782245275590551
0
LINE
8
BLACK
6
CONTINUOUS
10
5.8586784645669292
20
-4.9782245275590551
11
5.8590551181102359
21
-4.9781496062992128
0
LINE
8
BLACK
6
CONTINUOUS
10
5.8590551181102359
20
-4.9781496062992128
11
5.9755905511811021
21
-4.9781496062992128
0
LINE
8
BLACK
6
CONTINUOUS
10
5.9755905511811021
20
-4.9781496062992128
11
5.9759672047244097
21
-4.9782245275590551
0
LINE
8
BLACK
6
CONTINUOUS
10
5.8600393700787397
20
-4.9801181102362202
11
5.8600393700787397
21
-5.0356299212598428
0
LINE
8
BLACK
6
CONTINUOUS
10
5.8600393700787397
20
-5.0356299212598428
11
5.9746062992125983
21
-5.0356299212598428
0
LINE
8
BLACK
6
CONTINUOUS
10
5.9746062992125983
20
-5.0356299212598428
11
5.9746062992125983
21
-4.9801181102362202
0
LINE
8
BLACK
6
CONTINUOUS
10
5.9746062992125983
20
-4.9801181102362202
11
5.8600393700787397
21
-4.9801181102362202
0
LINE
8
BLACK
6
CONTINUOUS
10
6.5114002755905513
20
-4.8827520866141727
11
6.5119329527559051
21
-4.8832847637795274
0
LINE
8
BLACK
6
CONTINUOUS
10
6.5119329527559051
20
-4.8832847637795274
11
6.5120078740157483
21
-4.8836614173228341
0
LINE
8
BLACK
6
CONTINUOUS
10
6.5120078740157483
20
-4.8836614173228341
11
6.5120078740157483
21
-5.0001968503937011
0
LINE
8
BLACK
6
CONTINUOUS
10
6.5120078740157483
20
-5.0001968503937011
11
6.5119329527559051
21
-5.0005735039370078
0
LINE
8
BLACK
6
CONTINUOUS
10
6.5119329527559051
20
-5.0005735039370078
11
6.5114002755905513
21
-5.0011061811023625
0
LINE
8
BLACK
6
CONTINUOUS
10
6.5114002755905513
20
-5.0011061811023625
11
6.5110236220472437
21
-5.0011811023622048
0
LINE
8
BLACK
6
CONTINUOUS
10
6.5110236220472437
20
-5.0011811023622048
11
6.4535433070866137
21
-5.0011811023622048
0
LINE
8
BLACK
6
CONTINUOUS
10
6.4535433070866137
20
-5.0011811023622048
11
6.453166653543307
21
-5.0011061811023625
0
LINE
8
BLACK
6
CONTINUOUS
10
6.453166653543307
20
-5.0011061811023625
11
6.4526339763779523
21
-5.0005735039370078
0
LINE
8
BLACK
6
CONTINUOUS
10
6.4526339763779523
20
-5.0005735039370078
11
6.45255905511811
21
-5.0001968503937011
0
LINE
8
BLACK
6
CONTINUOUS
10
6.45255905511811
20
-5.0001968503937011
11
6.45255905511811
21
-4.8836614173228341
0
LINE
8
BLACK
6
CONTINUOUS
10
6.45255905511811
20
-4.8836614173228341
11
6.4526339763779523
21
-4.8832847637795274
0
LINE
8
BLACK
6
CONTINUOUS
10
6.4526339763779523
20
-4.8832847637795274
11
6.453166653543307
21
-4.8827520866141727
0
LINE
8
BLACK
6
CONTINUOUS
10
6.453166653543307
20
-4.8827520866141727
11
6.4535433070866137
21
-4.8826771653543304
0
LINE
8
BLACK
6
CONTINUOUS
10
6.4535433070866137
20
-4.8826771653543304
11
6.5110236220472437
21
-4.8826771653543304
0
LINE
8
BLACK
6
CONTINUOUS
10
6.5110236220472437
20
-4.8826771653543304
11
6.5114002755905513
21
-4.8827520866141727
0
LINE
8
BLACK
6
CONTINUOUS
10
6.4545275590551183
20
-4.8846456692913387
11
6.4545275590551183
21
-4.9992125984251965
0
LINE
8
BLACK
6
CONTINUOUS
10
6.4545275590551183
20
-4.9992125984251965
11
6.51003937007874
21
-4.9992125984251965
0
LINE
8
BLACK
6
CONTINUOUS
10
6.51003937007874
20
-4.9992125984251965
11
6.51003937007874
21
-4.8846456692913387
0
LINE
8
BLACK
6
CONTINUOUS
10
6.51003937007874
20
-4.8846456692913387
11
6.4545275590551183
21
-4.8846456692913387
0
LINE
8
BLACK
6
CONTINUOUS
10
5.2663057874015751
20
-4.8075079921259842
11
5.2668384645669288
21
-4.8080406692913389
0
LINE
8
BLACK
6
CONTINUOUS
10
5.2668384645669288
20
-4.8080406692913389
11
5.2669133858267712
21
-4.8084173228346456
0
LINE
8
BLACK
6
CONTINUOUS
10
5.2669133858267712
20
-4.8084173228346456
11
5.2669133858267712
21
-4.8855826771653543
0
LINE
8
BLACK
6
CONTINUOUS
10
5.2669133858267712
20
-4.8855826771653543
11
5.2668384645669288
21
-4.8859593307086611
0
LINE
8
BLACK
6
CONTINUOUS
10
5.2668384645669288
20
-4.8859593307086611
11
5.2663057874015751
21
-4.8864920078740157
0
LINE
8
BLACK
6
CONTINUOUS
10
5.2663057874015751
20
-4.8864920078740157
11
5.2659291338582674
21
-4.886566929133858
0
LINE
8
BLACK
6
CONTINUOUS
10
5.2659291338582674
20
-4.886566929133858
11
5.1320708661417322
21
-4.886566929133858
0
LINE
8
BLACK
6
CONTINUOUS
10
5.1320708661417322
20
-4.886566929133858
11
5.1316942125984255
21
-4.8864920078740157
0
LINE
8
BLACK
6
CONTINUOUS
10
5.1316942125984255
20
-4.8864920078740157
11
5.1311615354330709
21
-4.8859593307086611
0
LINE
8
BLACK
6
CONTINUOUS
10
5.1311615354330709
20
-4.8859593307086611
11
5.1311023622047243
21
-4.8856618110236223
0
LINE
8
BLACK
6
CONTINUOUS
10
5.1311023622047243
20
-4.8856618110236223
11
5.1311023622047243
21
-4.9519685039370076
0
LINE
8
BLACK
6
CONTINUOUS
10
5.1311023622047243
20
-4.9519685039370076
11
5.1310274409448819
21
-4.9523451574803152
0
LINE
8
BLACK
6
CONTINUOUS
10
5.1310274409448819
20
-4.9523451574803152
11
5.1304947637795273
21
-4.952877834645669
0
LINE
8
BLACK
6
CONTINUOUS
10
5.1304947637795273
20
-4.952877834645669
11
5.1301181102362206
21
-4.9529527559055113
0
LINE
8
BLACK
6
CONTINUOUS
10
5.1301181102362206
20
-4.9529527559055113
11
5.0726377952755906
21
-4.9529527559055113
0
LINE
8
BLACK
6
CONTINUOUS
10
5.0726377952755906
20
-4.9529527559055113
11
5.0722611417322829
21
-4.952877834645669
0
LINE
8
BLACK
6
CONTINUOUS
10
5.0722611417322829
20
-4.952877834645669
11
5.0717284645669292
21
-4.9523451574803152
0
LINE
8
BLACK
6
CONTINUOUS
10
5.0717284645669292
20
-4.9523451574803152
11
5.0716535433070868
21
-4.9519685039370076
0
LINE
8
BLACK
6
CONTINUOUS
10
5.0716535433070868
20
-4.9519685039370076
11
5.0716535433070868
21
-4.8354330708661415
0
LINE
8
BLACK
6
CONTINUOUS
10
5.0716535433070868
20
-4.8354330708661415
11
5.0717284645669292
21
-4.8350564173228348
0
LINE
8
BLACK
6
CONTINUOUS
10
5.0717284645669292
20
-4.8350564173228348
11
5.0722611417322829
21
-4.8345237401574801
0
LINE
8
BLACK
6
CONTINUOUS
10
5.0722611417322829
20
-4.8345237401574801
11
5.0726377952755906
21
-4.8344488188976378
0
LINE
8
BLACK
6
CONTINUOUS
10
5.0726377952755906
20
-4.8344488188976378
11
5.1301181102362206
21
-4.8344488188976378
0
LINE
8
BLACK
6
CONTINUOUS
10
5.1301181102362206
20
-4.8344488188976378
11
5.1304947637795273
21
-4.8345237401574801
0
LINE
8
BLACK
6
CONTINUOUS
10
5.1304947637795273
20
-4.8345237401574801
11
5.1310274409448819
21
-4.8350564173228348
0
LINE
8
BLACK
6
CONTINUOUS
10
5.1310274409448819
20
-4.8350564173228348
11
5.1310866141732285
21
-4.8353538976377948
0
LINE
8
BLACK
6
CONTINUOUS
10
5.1310866141732285
20
-4.8353538976377948
11
5.1310866141732285
21
-4.8084173228346456
0
LINE
8
BLACK
6
CONTINUOUS
10
5.1310866141732285
20
-4.8084173228346456
11
5.1311615354330709
21
-4.8080406692913389
0
LINE
8
BLACK
6
CONTINUOUS
10
5.1311615354330709
20
-4.8080406692913389
11
5.1316942125984255
21
-4.8075079921259842
0
LINE
8
BLACK
6
CONTINUOUS
10
5.1316942125984255
20
-4.8075079921259842
11
5.1320708661417322
21
-4.8074330708661419
0
LINE
8
BLACK
6
CONTINUOUS
10
5.1320708661417322
20
-4.8074330708661419
11
5.2659291338582674
21
-4.8074330708661419
0
LINE
8
BLACK
6
CONTINUOUS
10
5.2659291338582674
20
-4.8074330708661419
11
5.2663057874015751
21
-4.8075079921259842
0
LINE
8
BLACK
6
CONTINUOUS
10
5.0736220472440943
20
-4.8364173228346452
11
5.0736220472440943
21
-4.9509842519685039
0
LINE
8
BLACK
6
CONTINUOUS
10
5.0736220472440943
20
-4.9509842519685039
11
5.1291338582677168
21
-4.9509842519685039
0
LINE
8
BLACK
6
CONTINUOUS
10
5.1291338582677168
20
-4.9509842519685039
11
5.1291338582677168
21
-4.8364173228346452
0
LINE
8
BLACK
6
CONTINUOUS
10
5.1291338582677168
20
-4.8364173228346452
11
5.0736220472440943
21
-4.8364173228346452
0
LINE
8
BLACK
6
CONTINUOUS
10
5.133055118110236
20
-4.8094015748031493
11
5.133055118110236
21
-4.8845984251968506
0
LINE
8
BLACK
6
CONTINUOUS
10
5.133055118110236
20
-4.8845984251968506
11
5.2649448818897637
21
-4.8845984251968506
0
LINE
8
BLACK
6
CONTINUOUS
10
5.2649448818897637
20
-4.8845984251968506
11
5.2649448818897637
21
-4.8094015748031493
0
LINE
8
BLACK
6
CONTINUOUS
10
5.2649448818897637
20
-4.8094015748031493
11
5.133055118110236
21
-4.8094015748031493
0
LINE
8
BLACK
6
CONTINUOUS
10
5.059628622047244
20
-4.8335394881889764
11
5.0601612992125986
21
-4.834072165354331
0
LINE
8
BLACK
6
CONTINUOUS
10
5.0601612992125986
20
-4.834072165354331
11
5.0602362204724409
21
-4.8344488188976378
0
LINE
8
BLACK
6
CONTINUOUS
10
5.0602362204724409
20
-4.8344488188976378
11
5.0602362204724409
21
-4.9509842519685039
0
LINE
8
BLACK
6
CONTINUOUS
10
5.0602362204724409
20
-4.9509842519685039
11
5.0601612992125986
21
-4.9513609055118106
0
LINE
8
BLACK
6
CONTINUOUS
10
5.0601612992125986
20
-4.9513609055118106
11
5.059628622047244
21
-4.9518935826771653
0
LINE
8
BLACK
6
CONTINUOUS
10
5.059628622047244
20
-4.9518935826771653
11
5.0592519685039372
21
-4.9519685039370076
0
LINE
8
BLACK
6
CONTINUOUS
10
5.0592519685039372
20
-4.9519685039370076
11
5.0017716535433072
21
-4.9519685039370076
0
LINE
8
BLACK
6
CONTINUOUS
10
5.0017716535433072
20
-4.9519685039370076
11
5.0013949999999996
21
-4.9518935826771653
0
LINE
8
BLACK
6
CONTINUOUS
10
5.0013949999999996
20
-4.9518935826771653
11
5.0008623228346458
21
-4.9513609055118106
0
LINE
8
BLACK
6
CONTINUOUS
10
5.0008623228346458
20
-4.9513609055118106
11
5.0007874015748026
21
-4.9509842519685039
0
LINE
8
BLACK
6
CONTINUOUS
10
5.0007874015748026
20
-4.9509842519685039
11
5.0007874015748026
21
-4.8344488188976378
0
LINE
8
BLACK
6
CONTINUOUS
10
5.0007874015748026
20
-4.8344488188976378
11
5.0008623228346458
21
-4.834072165354331
0
LINE
8
BLACK
6
CONTINUOUS
10
5.0008623228346458
20
-4.834072165354331
11
5.0013949999999996
21
-4.8335394881889764
0
LINE
8
BLACK
6
CONTINUOUS
10
5.0013949999999996
20
-4.8335394881889764
11
5.0017716535433072
21
-4.8334645669291341
0
LINE
8
BLACK
6
CONTINUOUS
10
5.0017716535433072
20
-4.8334645669291341
11
5.0592519685039372
21
-4.8334645669291341
0
LINE
8
BLACK
6
CONTINUOUS
10
5.0592519685039372
20
-4.8334645669291341
11
5.059628622047244
21
-4.8335394881889764
0
LINE
8
BLACK
6
CONTINUOUS
10
5.0027559055118109
20
-4.8354330708661415
11
5.0027559055118109
21
-4.9500000000000002
0
LINE
8
BLACK
6
CONTINUOUS
10
5.0027559055118109
20
-4.9500000000000002
11
5.0582677165354326
21
-4.9500000000000002
0
LINE
8
BLACK
6
CONTINUOUS
10
5.0582677165354326
20
-4.9500000000000002
11
5.0582677165354326
21
-4.8354330708661415
0
LINE
8
BLACK
6
CONTINUOUS
10
5.0582677165354326
20
-4.8354330708661415
11
5.0027559055118109
21
-4.8354330708661415
0
LINE
8
BLACK
6
CONTINUOUS
10
5.415927834645669
20
-4.8207442125984254
11
5.4163385826771648
21
-4.8211549606299213
0
LINE
8
BLACK
6
CONTINUOUS
10
5.4163385826771648
20
-4.8211549606299213
11
5.4167493307086616
21
-4.8207442125984254
0
LINE
8
BLACK
6
CONTINUOUS
10
5.4167493307086616
20
-4.8207442125984254
11
5.4171259842519683
21
-4.8206692913385822
0
LINE
8
BLACK
6
CONTINUOUS
10
5.4171259842519683
20
-4.8206692913385822
11
5.5336614173228345
21
-4.8206692913385822
0
LINE
8
BLACK
6
CONTINUOUS
10
5.5336614173228345
20
-4.8206692913385822
11
5.5340380708661412
21
-4.8207442125984254
0
LINE
8
BLACK
6
CONTINUOUS
10
5.5340380708661412
20
-4.8207442125984254
11
5.5345707480314958
21
-4.8212768897637792
0
LINE
8
BLACK
6
CONTINUOUS
10
5.5345707480314958
20
-4.8212768897637792
11
5.5346456692913382
21
-4.8216535433070868
0
LINE
8
BLACK
6
CONTINUOUS
10
5.5346456692913382
20
-4.8216535433070868
11
5.5346456692913382
21
-4.82755905511811
0
LINE
8
BLACK
6
CONTINUOUS
10
5.5346456692913382
20
-4.82755905511811
11
5.5917322834645669
21
-4.82755905511811
0
LINE
8
BLACK
6
CONTINUOUS
10
5.5917322834645669
20
-4.82755905511811
11
5.5921089370078736
21
-4.8276339763779523
0
LINE
8
BLACK
6
CONTINUOUS
10
5.5921089370078736
20
-4.8276339763779523
11
5.5926416141732282
21
-4.828166653543307
0
LINE
8
BLACK
6
CONTINUOUS
10
5.5926416141732282
20
-4.828166653543307
11
5.5927165354330706
21
-4.8285433070866137
0
LINE
8
BLACK
6
CONTINUOUS
10
5.5927165354330706
20
-4.8285433070866137
11
5.5927165354330706
21
-4.8324803149606295
0
LINE
8
BLACK
6
CONTINUOUS
10
5.5927165354330706
20
-4.8324803149606295
11
5.7076771653543306
21
-4.8324803149606295
0
LINE
8
BLACK
6
CONTINUOUS
10
5.7076771653543306
20
-4.8324803149606295
11
5.7076771653543306
21
-4.8236220472440943
0
LINE
8
BLACK
6
CONTINUOUS
10
5.7076771653543306
20
-4.8236220472440943
11
5.7077520866141729
21
-4.8232453937007875
0
LINE
8
BLACK
6
CONTINUOUS
10
5.7077520866141729
20
-4.8232453937007875
11
5.7082847637795275
21
-4.8227127165354329
0
LINE
8
BLACK
6
CONTINUOUS
10
5.7082847637795275
20
-4.8227127165354329
11
5.7086614173228343
21
-4.8226377952755906
0
LINE
8
BLACK
6
CONTINUOUS
10
5.7086614173228343
20
-4.8226377952755906
11
5.8425196850393704
21
-4.8226377952755906
0
LINE
8
BLACK
6
CONTINUOUS
10
5.8425196850393704
20
-4.8226377952755906
11
5.8428963385826771
21
-4.8227127165354329
0
LINE
8
BLACK
6
CONTINUOUS
10
5.8428963385826771
20
-4.8227127165354329
11
5.8434290157480318
21
-4.8232453937007875
0
LINE
8
BLACK
6
CONTINUOUS
10
5.8434290157480318
20
-4.8232453937007875
11
5.8435039370078741
21
-4.8236220472440943
0
LINE
8
BLACK
6
CONTINUOUS
10
5.8435039370078741
20
-4.8236220472440943
11
5.8435039370078741
21
-4.8312755905511811
0
LINE
8
BLACK
6
CONTINUOUS
10
5.8435039370078741
20
-4.8312755905511811
11
5.9592677165354333
21
-4.8312755905511811
0
LINE
8
BLACK
6
CONTINUOUS
10
5.9592677165354333
20
-4.8312755905511811
11
5.9595000000000002
21
-4.8313217716535428
0
LINE
8
BLACK
6
CONTINUOUS
10
5.9595000000000002
20
-4.8313217716535428
11
5.9597322834645672
21
-4.8312755905511811
0
LINE
8
BLACK
6
CONTINUOUS
10
5.9597322834645672
20
-4.8312755905511811
11
6.0762677165354333
21
-4.8312755905511811
0
LINE
8
BLACK
6
CONTINUOUS
10
6.0762677165354333
20
-4.8312755905511811
11
6.0766052755905511
21
-4.831342716535433
0
LINE
8
BLACK
6
CONTINUOUS
10
6.0766052755905511
20
-4.831342716535433
11
6.0766497244094486
21
-4.831119409448819
0
LINE
8
BLACK
6
CONTINUOUS
10
6.0766497244094486
20
-4.831119409448819
11
6.0771824015748033
21
-4.8305867322834644
0
LINE
8
BLACK
6
CONTINUOUS
10
6.0771824015748033
20
-4.8305867322834644
11
6.07755905511811
21
-4.830511811023622
0
LINE
8
BLACK
6
CONTINUOUS
10
6.07755905511811
20
-4.830511811023622
11
6.13503937007874
21
-4.830511811023622
0
LINE
8
BLACK
6
CONTINUOUS
10
6.13503937007874
20
-4.830511811023622
11
6.1354160236220467
21
-4.8305867322834644
0
LINE
8
BLACK
6
CONTINUOUS
10
6.1354160236220467
20
-4.8305867322834644
11
6.1359487007874014
21
-4.831119409448819
0
LINE
8
BLACK
6
CONTINUOUS
10
6.1359487007874014
20
-4.831119409448819
11
6.1360236220472437
21
-4.8314960629921258
0
LINE
8
BLACK
6
CONTINUOUS
10
6.1360236220472437
20
-4.8314960629921258
11
6.1360236220472437
21
-4.9480314960629919
0
LINE
8
BLACK
6
CONTINUOUS
10
6.1360236220472437
20
-4.9480314960629919
11
6.1359487007874014
21
-4.9484081496062995
0
LINE
8
BLACK
6
CONTINUOUS
10
6.1359487007874014
20
-4.9484081496062995
11
6.1354160236220467
21
-4.9489408267716533
0
LINE
8
BLACK
6
CONTINUOUS
10
6.1354160236220467
20
-4.9489408267716533
11
6.13503937007874
21
-4.9490157480314956
0
LINE
8
BLACK
6
CONTINUOUS
10
6.13503937007874
20
-4.9490157480314956
11
6.07755905511811
21
-4.9490157480314956
0
LINE
8
BLACK
6
CONTINUOUS
10
6.07755905511811
20
-4.9490157480314956
11
6.0771824015748033
21
-4.9489408267716533
0
LINE
8
BLACK
6
CONTINUOUS
10
6.0771824015748033
20
-4.9489408267716533
11
6.0766497244094486
21
-4.9484081496062995
0
LINE
8
BLACK
6
CONTINUOUS
10
6.0766497244094486
20
-4.9484081496062995
11
6.0765748031496063
21
-4.9480314960629919
0
LINE
8
BLACK
6
CONTINUOUS
10
6.0765748031496063
20
-4.9480314960629919
11
6.0765748031496063
21
-4.8906633070866139
0
LINE
8
BLACK
6
CONTINUOUS
10
6.0765748031496063
20
-4.8906633070866139
11
6.0762677165354333
21
-4.8907244094488185
0
LINE
8
BLACK
6
CONTINUOUS
10
6.0762677165354333
20
-4.8907244094488185
11
5.9597322834645672
21
-4.8907244094488185
0
LINE
8
BLACK
6
CONTINUOUS
10
5.9597322834645672
20
-4.8907244094488185
11
5.9595000000000002
21
-4.890678188976378
0
LINE
8
BLACK
6
CONTINUOUS
10
5.9595000000000002
20
-4.890678188976378
11
5.9592677165354333
21
-4.8907244094488185
0
LINE
8
BLACK
6
CONTINUOUS
10
5.9592677165354333
20
-4.8907244094488185
11
5.8435039370078741
21
-4.8907244094488185
0
LINE
8
BLACK
6
CONTINUOUS
10
5.8435039370078741
20
-4.8907244094488185
11
5.8435039370078741
21
-4.900787401574803
0
LINE
8
BLACK
6
CONTINUOUS
10
5.8435039370078741
20
-4.900787401574803
11
5.8434290157480318
21
-4.9011640551181097
0
LINE
8
BLACK
6
CONTINUOUS
10
5.8434290157480318
20
-4.9011640551181097
11
5.8428963385826771
21
-4.9016967322834644
0
LINE
8
BLACK
6
CONTINUOUS
10
5.8428963385826771
20
-4.9016967322834644
11
5.8425196850393704
21
-4.9017716535433067
0
LINE
8
BLACK
6
CONTINUOUS
10
5.8425196850393704
20
-4.9017716535433067
11
5.7086614173228343
21
-4.9017716535433067
0
LINE
8
BLACK
6
CONTINUOUS
10
5.7086614173228343
20
-4.9017716535433067
11
5.7082847637795275
21
-4.9016967322834644
0
LINE
8
BLACK
6
CONTINUOUS
10
5.7082847637795275
20
-4.9016967322834644
11
5.7077520866141729
21
-4.9011640551181097
0
LINE
8
BLACK
6
CONTINUOUS
10
5.7077520866141729
20
-4.9011640551181097
11
5.7076771653543306
21
-4.900787401574803
0
LINE
8
BLACK
6
CONTINUOUS
10
5.7076771653543306
20
-4.900787401574803
11
5.7076771653543306
21
-4.8919291338582678
0
LINE
8
BLACK
6
CONTINUOUS
10
5.7076771653543306
20
-4.8919291338582678
11
5.5927165354330706
21
-4.8919291338582678
0
LINE
8
BLACK
6
CONTINUOUS
10
5.5927165354330706
20
-4.8919291338582678
11
5.5927165354330706
21
-4.9450787401574798
0
LINE
8
BLACK
6
CONTINUOUS
10
5.5927165354330706
20
-4.9450787401574798
11
5.5926416141732282
21
-4.9454553937007875
0
LINE
8
BLACK
6
CONTINUOUS
10
5.5926416141732282
20
-4.9454553937007875
11
5.5921089370078736
21
-4.9459880708661412
0
LINE
8
BLACK
6
CONTINUOUS
10
5.5921089370078736
20
-4.9459880708661412
11
5.5917322834645669
21
-4.9460629921259844
0
LINE
8
BLACK
6
CONTINUOUS
10
5.5917322834645669
20
-4.9460629921259844
11
5.5342519685039369
21
-4.9460629921259844
0
LINE
8
BLACK
6
CONTINUOUS
10
5.5342519685039369
20
-4.9460629921259844
11
5.5338753149606301
21
-4.9459880708661412
0
LINE
8
BLACK
6
CONTINUOUS
10
5.5338753149606301
20
-4.9459880708661412
11
5.5333426377952755
21
-4.9454553937007875
0
LINE
8
BLACK
6
CONTINUOUS
10
5.5333426377952755
20
-4.9454553937007875
11
5.5332677165354331
21
-4.9450787401574798
0
LINE
8
BLACK
6
CONTINUOUS
10
5.5332677165354331
20
-4.9450787401574798
11
5.5332677165354331
21
-4.8801181102362206
0
LINE
8
BLACK
6
CONTINUOUS
10
5.5332677165354331
20
-4.8801181102362206
11
5.4171259842519683
21
-4.8801181102362206
0
LINE
8
BLACK
6
CONTINUOUS
10
5.4171259842519683
20
-4.8801181102362206
11
5.4167493307086616
21
-4.8800431889763782
0
LINE
8
BLACK
6
CONTINUOUS
10
5.4167493307086616
20
-4.8800431889763782
11
5.4163385826771648
21
-4.8796324409448815
0
LINE
8
BLACK
6
CONTINUOUS
10
5.4163385826771648
20
-4.8796324409448815
11
5.415927834645669
21
-4.8800431889763782
0
LINE
8
BLACK
6
CONTINUOUS
10
5.415927834645669
20
-4.8800431889763782
11
5.4155511811023622
21
-4.8801181102362206
0
LINE
8
BLACK
6
CONTINUOUS
10
5.4155511811023622
20
-4.8801181102362206
11
5.2990157480314961
21
-4.8801181102362206
0
LINE
8
BLACK
6
CONTINUOUS
10
5.2990157480314961
20
-4.8801181102362206
11
5.2986390944881885
21
-4.8800431889763782
0
LINE
8
BLACK
6
CONTINUOUS
10
5.2986390944881885
20
-4.8800431889763782
11
5.2981064173228347
21
-4.8795105118110236
0
LINE
8
BLACK
6
CONTINUOUS
10
5.2981064173228347
20
-4.8795105118110236
11
5.2980314960629924
21
-4.8791338582677168
0
LINE
8
BLACK
6
CONTINUOUS
10
5.2980314960629924
20
-4.8791338582677168
11
5.2980314960629924
21
-4.8216535433070868
0
LINE
8
BLACK
6
CONTINUOUS
10
5.2980314960629924
20
-4.8216535433070868
11
5.2981064173228347
21
-4.8212768897637792
0
LINE
8
BLACK
6
CONTINUOUS
10
5.2981064173228347
20
-4.8212768897637792
11
5.2986390944881885
21
-4.8207442125984254
0
LINE
8
BLACK
6
CONTINUOUS
10
5.2986390944881885
20
-4.8207442125984254
11
5.2990157480314961
21
-4.8206692913385822
0
LINE
8
BLACK
6
CONTINUOUS
10
5.2990157480314961
20
-4.8206692913385822
11
5.4155511811023622
21
-4.8206692913385822
0
LINE
8
BLACK
6
CONTINUOUS
10
5.4155511811023622
20
-4.8206692913385822
11
5.415927834645669
21
-4.8207442125984254
0
LINE
8
BLACK
6
CONTINUOUS
10
6.0785433070866137
20
-4.8324803149606295
11
6.0785433070866137
21
-4.9470472440944881
0
LINE
8
BLACK
6
CONTINUOUS
10
6.0785433070866137
20
-4.9470472440944881
11
6.1340551181102363
21
-4.9470472440944881
0
LINE
8
BLACK
6
CONTINUOUS
10
6.1340551181102363
20
-4.9470472440944881
11
6.1340551181102363
21
-4.8324803149606295
0
LINE
8
BLACK
6
CONTINUOUS
10
6.1340551181102363
20
-4.8324803149606295
11
6.0785433070866137
21
-4.8324803149606295
0
LINE
8
BLACK
6
CONTINUOUS
10
5.5352362204724406
20
-4.8295275590551183
11
5.5352362204724406
21
-4.9440944881889761
0
LINE
8
BLACK
6
CONTINUOUS
10
5.5352362204724406
20
-4.9440944881889761
11
5.5907480314960631
21
-4.9440944881889761
0
LINE
8
BLACK
6
CONTINUOUS
10
5.5907480314960631
20
-4.9440944881889761
11
5.5907480314960631
21
-4.8295275590551183
0
LINE
8
BLACK
6
CONTINUOUS
10
5.5907480314960631
20
-4.8295275590551183
11
5.5352362204724406
21
-4.8295275590551183
0
LINE
8
BLACK
6
CONTINUOUS
10
5.7096456692913389
20
-4.824606299212598
11
5.7096456692913389
21
-4.8329659842519685
0
LINE
8
BLACK
6
CONTINUOUS
10
5.7096456692913389
20
-4.8329659842519685
11
5.7097675984251968
21
-4.8330879133858264
0
LINE
8
BLACK
6
CONTINUOUS
10
5.7097675984251968
20
-4.8330879133858264
11
5.7098425196850391
21
-4.8334645669291341
0
LINE
8
BLACK
6
CONTINUOUS
10
5.7098425196850391
20
-4.8334645669291341
11
5.7098425196850391
21
-4.8909448818897641
0
LINE
8
BLACK
6
CONTINUOUS
10
5.7098425196850391
20
-4.8909448818897641
11
5.7097675984251968
21
-4.8913215354330708
0
LINE
8
BLACK
6
CONTINUOUS
10
5.7097675984251968
20
-4.8913215354330708
11
5.7096456692913389
21
-4.8914434645669287
0
LINE
8
BLACK
6
CONTINUOUS
10
5.7096456692913389
20
-4.8914434645669287
11
5.7096456692913389
21
-4.8998031496062993
0
LINE
8
BLACK
6
CONTINUOUS
10
5.7096456692913389
20
-4.8998031496062993
11
5.8415354330708658
21
-4.8998031496062993
0
LINE
8
BLACK
6
CONTINUOUS
10
5.8415354330708658
20
-4.8998031496062993
11
5.8415354330708658
21
-4.824606299212598
0
LINE
8
BLACK
6
CONTINUOUS
10
5.8415354330708658
20
-4.824606299212598
11
5.7096456692913389
21
-4.824606299212598
0
LINE
8
BLACK
6
CONTINUOUS
10
5.593307086614173
20
-4.8344488188976378
11
5.593307086614173
21
-4.8899606299212595
0
LINE
8
BLACK
6
CONTINUOUS
10
5.593307086614173
20
-4.8899606299212595
11
5.7076771653543306
21
-4.8899606299212595
0
LINE
8
BLACK
6
CONTINUOUS
10
5.7076771653543306
20
-4.8899606299212595
11
5.7076771653543306
21
-4.8344488188976378
0
LINE
8
BLACK
6
CONTINUOUS
10
5.7076771653543306
20
-4.8344488188976378
11
5.593307086614173
21
-4.8344488188976378
0
LINE
8
BLACK
6
CONTINUOUS
10
5.9607165354330709
20
-4.8332440944881885
11
5.9607165354330709
21
-4.8887559055118111
0
LINE
8
BLACK
6
CONTINUOUS
10
5.9607165354330709
20
-4.8887559055118111
11
6.0752834645669287
21
-4.8887559055118111
0
LINE
8
BLACK
6
CONTINUOUS
10
6.0752834645669287
20
-4.8887559055118111
11
6.0752834645669287
21
-4.8332440944881885
0
LINE
8
BLACK
6
CONTINUOUS
10
6.0752834645669287
20
-4.8332440944881885
11
5.9607165354330709
21
-4.8332440944881885
0
LINE
8
BLACK
6
CONTINUOUS
10
5.8437165354330709
20
-4.8332440944881885
11
5.8437165354330709
21
-4.8887559055118111
0
LINE
8
BLACK
6
CONTINUOUS
10
5.8437165354330709
20
-4.8887559055118111
11
5.9582834645669287
21
-4.8887559055118111
0
LINE
8
BLACK
6
CONTINUOUS
10
5.9582834645669287
20
-4.8887559055118111
11
5.9582834645669287
21
-4.8332440944881885
0
LINE
8
BLACK
6
CONTINUOUS
10
5.9582834645669287
20
-4.8332440944881885
11
5.8437165354330709
21
-4.8332440944881885
0
LINE
8
BLACK
6
CONTINUOUS
10
5.4181102362204721
20
-4.8226377952755906
11
5.4181102362204721
21
-4.8781496062992122
0
LINE
8
BLACK
6
CONTINUOUS
10
5.4181102362204721
20
-4.8781496062992122
11
5.5326771653543307
21
-4.8781496062992122
0
LINE
8
BLACK
6
CONTINUOUS
10
5.5326771653543307
20
-4.8781496062992122
11
5.5326771653543307
21
-4.8226377952755906
0
LINE
8
BLACK
6
CONTINUOUS
10
5.5326771653543307
20
-4.8226377952755906
11
5.4181102362204721
21
-4.8226377952755906
0
LINE
8
BLACK
6
CONTINUOUS
10
5.2999999999999998
20
-4.8226377952755906
11
5.2999999999999998
21
-4.8781496062992122
0
LINE
8
BLACK
6
CONTINUOUS
10
5.2999999999999998
20
-4.8781496062992122
11
5.4145669291338585
21
-4.8781496062992122
0
LINE
8
BLACK
6
CONTINUOUS
10
5.4145669291338585
20
-4.8781496062992122
11
5.4145669291338585
21
-4.8226377952755906
0
LINE
8
BLACK
6
CONTINUOUS
10
5.4145669291338585
20
-4.8226377952755906
11
5.2999999999999998
21
-4.8226377952755906
0
LINE
8
BLACK
6
CONTINUOUS
10
6.3339593307086615
20
-4.8131615354330703
11
6.3344920078740152
21
-4.813694212598425
0
LINE
8
BLACK
6
CONTINUOUS
10
6.3344920078740152
20
-4.813694212598425
11
6.3345669291338584
21
-4.8140708661417317
0
LINE
8
BLACK
6
CONTINUOUS
10
6.3345669291338584
20
-4.8140708661417317
11
6.3345669291338584
21
-4.9479291338582678
0
LINE
8
BLACK
6
CONTINUOUS
10
6.3345669291338584
20
-4.9479291338582678
11
6.3344920078740152
21
-4.9483057874015746
0
LINE
8
BLACK
6
CONTINUOUS
10
6.3344920078740152
20
-4.9483057874015746
11
6.3339593307086615
21
-4.9488384645669292
0
LINE
8
BLACK
6
CONTINUOUS
10
6.3339593307086615
20
-4.9488384645669292
11
6.3335826771653538
21
-4.9489133858267715
0
LINE
8
BLACK
6
CONTINUOUS
10
6.3335826771653538
20
-4.9489133858267715
11
6.2564173228346451
21
-4.9489133858267715
0
LINE
8
BLACK
6
CONTINUOUS
10
6.2564173228346451
20
-4.9489133858267715
11
6.2560406692913384
21
-4.9488384645669292
0
LINE
8
BLACK
6
CONTINUOUS
10
6.2560406692913384
20
-4.9488384645669292
11
6.2555079921259837
21
-4.9483057874015746
0
LINE
8
BLACK
6
CONTINUOUS
10
6.2555079921259837
20
-4.9483057874015746
11
6.2554330708661414
21
-4.9479291338582678
0
LINE
8
BLACK
6
CONTINUOUS
10
6.2554330708661414
20
-4.9479291338582678
11
6.2554330708661414
21
-4.8140708661417317
0
LINE
8
BLACK
6
CONTINUOUS
10
6.2554330708661414
20
-4.8140708661417317
11
6.2555079921259837
21
-4.813694212598425
0
LINE
8
BLACK
6
CONTINUOUS
10
6.2555079921259837
20
-4.813694212598425
11
6.2560406692913384
21
-4.8131615354330703
0
LINE
8
BLACK
6
CONTINUOUS
10
6.2560406692913384
20
-4.8131615354330703
11
6.2564173228346451
21
-4.813086614173228
0
LINE
8
BLACK
6
CONTINUOUS
10
6.2564173228346451
20
-4.813086614173228
11
6.3335826771653538
21
-4.813086614173228
0
LINE
8
BLACK
6
CONTINUOUS
10
6.3335826771653538
20
-4.813086614173228
11
6.3339593307086615
21
-4.8131615354330703
0
LINE
8
BLACK
6
CONTINUOUS
10
6.2574015748031497
20
-4.8150551181102363
11
6.2574015748031497
21
-4.9469448818897632
0
LINE
8
BLACK
6
CONTINUOUS
10
6.2574015748031497
20
-4.9469448818897632
11
6.3325984251968501
21
-4.9469448818897632
0
LINE
8
BLACK
6
CONTINUOUS
10
6.3325984251968501
20
-4.9469448818897632
11
6.3325984251968501
21
-4.8150551181102363
0
LINE
8
BLACK
6
CONTINUOUS
10
6.3325984251968501
20
-4.8150551181102363
11
6.2574015748031497
21
-4.8150551181102363
0
LINE
8
BLACK
6
CONTINUOUS
10
6.2545105118110236
20
-4.8286182283464569
11
6.2550431889763782
21
-4.8291509055118107
0
LINE
8
BLACK
6
CONTINUOUS
10
6.2550431889763782
20
-4.8291509055118107
11
6.2551181102362206
21
-4.8295275590551183
0
LINE
8
BLACK
6
CONTINUOUS
10
6.2551181102362206
20
-4.8295275590551183
11
6.2551181102362206
21
-4.8870078740157483
0
LINE
8
BLACK
6
CONTINUOUS
10
6.2551181102362206
20
-4.8870078740157483
11
6.2550431889763782
21
-4.8873845275590551
0
LINE
8
BLACK
6
CONTINUOUS
10
6.2550431889763782
20
-4.8873845275590551
11
6.2545105118110236
21
-4.8879172047244097
0
LINE
8
BLACK
6
CONTINUOUS
10
6.2545105118110236
20
-4.8879172047244097
11
6.254133858267716
21
-4.887992125984252
0
LINE
8
BLACK
6
CONTINUOUS
10
6.254133858267716
20
-4.887992125984252
11
6.1375984251968498
21
-4.887992125984252
0
LINE
8
BLACK
6
CONTINUOUS
10
6.1375984251968498
20
-4.887992125984252
11
6.1372217716535431
21
-4.8879172047244097
0
LINE
8
BLACK
6
CONTINUOUS
10
6.1372217716535431
20
-4.8879172047244097
11
6.1366890944881884
21
-4.8873845275590551
0
LINE
8
BLACK
6
CONTINUOUS
10
6.1366890944881884
20
-4.8873845275590551
11
6.1366141732283461
21
-4.8870078740157483
0
LINE
8
BLACK
6
CONTINUOUS
10
6.1366141732283461
20
-4.8870078740157483
11
6.1366141732283461
21
-4.8295275590551183
0
LINE
8
BLACK
6
CONTINUOUS
10
6.1366141732283461
20
-4.8295275590551183
11
6.1366890944881884
21
-4.8291509055118107
0
LINE
8
BLACK
6
CONTINUOUS
10
6.1366890944881884
20
-4.8291509055118107
11
6.1372217716535431
21
-4.8286182283464569
0
LINE
8
BLACK
6
CONTINUOUS
10
6.1372217716535431
20
-4.8286182283464569
11
6.1375984251968498
21
-4.8285433070866137
0
LINE
8
BLACK
6
CONTINUOUS
10
6.1375984251968498
20
-4.8285433070866137
11
6.254133858267716
21
-4.8285433070866137
0
LINE
8
BLACK
6
CONTINUOUS
10
6.254133858267716
20
-4.8285433070866137
11
6.2545105118110236
21
-4.8286182283464569
0
LINE
8
BLACK
6
CONTINUOUS
10
6.1385826771653544
20
-4.830511811023622
11
6.1385826771653544
21
-4.8860236220472437
0
LINE
8
BLACK
6
CONTINUOUS
10
6.1385826771653544
20
-4.8860236220472437
11
6.2531496062992122
21
-4.8860236220472437
0
LINE
8
BLACK
6
CONTINUOUS
10
6.2531496062992122
20
-4.8860236220472437
11
6.2531496062992122
21
-4.830511811023622
0
LINE
8
BLACK
6
CONTINUOUS
10
6.2531496062992122
20
-4.830511811023622
11
6.1385826771653544
21
-4.830511811023622
0
LINE
8
BLACK
6
CONTINUOUS
10
6.5104160236220467
20
-4.8049961811023625
11
6.5109487007874014
21
-4.8055288582677163
0
LINE
8
BLACK
6
CONTINUOUS
10
6.5109487007874014
20
-4.8055288582677163
11
6.5110236220472437
21
-4.8059055118110239
0
LINE
8
BLACK
6
CONTINUOUS
10
6.5110236220472437
20
-4.8059055118110239
11
6.5110236220472437
21
-4.8633858267716539
0
LINE
8
BLACK
6
CONTINUOUS
10
6.5110236220472437
20
-4.8633858267716539
11
6.5109487007874014
21
-4.8637624803149606
0
LINE
8
BLACK
6
CONTINUOUS
10
6.5109487007874014
20
-4.8637624803149606
11
6.5104160236220467
21
-4.8642951574803153
0
LINE
8
BLACK
6
CONTINUOUS
10
6.5104160236220467
20
-4.8642951574803153
11
6.51003937007874
21
-4.8643700787401576
0
LINE
8
BLACK
6
CONTINUOUS
10
6.51003937007874
20
-4.8643700787401576
11
6.3935039370078739
21
-4.8643700787401576
0
LINE
8
BLACK
6
CONTINUOUS
10
6.3935039370078739
20
-4.8643700787401576
11
6.3931272834645672
21
-4.8642951574803153
0
LINE
8
BLACK
6
CONTINUOUS
10
6.3931272834645672
20
-4.8642951574803153
11
6.3925946062992125
21
-4.8637624803149606
0
LINE
8
BLACK
6
CONTINUOUS
10
6.3925946062992125
20
-4.8637624803149606
11
6.3925196850393702
21
-4.8633858267716539
0
LINE
8
BLACK
6
CONTINUOUS
10
6.3925196850393702
20
-4.8633858267716539
11
6.3925196850393702
21
-4.8059055118110239
0
LINE
8
BLACK
6
CONTINUOUS
10
6.3925196850393702
20
-4.8059055118110239
11
6.3925946062992125
21
-4.8055288582677163
0
LINE
8
BLACK
6
CONTINUOUS
10
6.3925946062992125
20
-4.8055288582677163
11
6.3931272834645672
21
-4.8049961811023625
0
LINE
8
BLACK
6
CONTINUOUS
10
6.3931272834645672
20
-4.8049961811023625
11
6.3935039370078739
21
-4.8049212598425193
0
LINE
8
BLACK
6
CONTINUOUS
10
6.3935039370078739
20
-4.8049212598425193
11
6.51003937007874
21
-4.8049212598425193
0
LINE
8
BLACK
6
CONTINUOUS
10
6.51003937007874
20
-4.8049212598425193
11
6.5104160236220467
21
-4.8049961811023625
0
LINE
8
BLACK
6
CONTINUOUS
10
6.3944881889763776
20
-4.8068897637795276
11
6.3944881889763776
21
-4.8624015748031493
0
LINE
8
BLACK
6
CONTINUOUS
10
6.3944881889763776
20
-4.8624015748031493
11
6.5090551181102363
21
-4.8624015748031493
0
LINE
8
BLACK
6
CONTINUOUS
10
6.5090551181102363
20
-4.8624015748031493
11
6.5090551181102363
21
-4.8068897637795276
0
LINE
8
BLACK
6
CONTINUOUS
10
6.5090551181102363
20
-4.8068897637795276
11
6.3944881889763776
21
-4.8068897637795276
0
LINE
8
BLACK
6
CONTINUOUS
10
5.1814790157480317
20
-4.5305867322834645
11
5.1820116929133855
21
-4.5311194094488192
0
LINE
8
BLACK
6
CONTINUOUS
10
5.1820116929133855
20
-4.5311194094488192
11
5.1820866141732278
21
-4.5314960629921259
0
LINE
8
BLACK
6
CONTINUOUS
10
5.1820866141732278
20
-4.5314960629921259
11
5.1820866141732278
21
-4.7992125984251963
0
LINE
8
BLACK
6
CONTINUOUS
10
5.1820866141732278
20
-4.7992125984251963
11
5.1820116929133855
21
-4.7995892519685039
0
LINE
8
BLACK
6
CONTINUOUS
10
5.1820116929133855
20
-4.7995892519685039
11
5.1814790157480317
21
-4.8001219291338586
0
LINE
8
BLACK
6
CONTINUOUS
10
5.1814790157480317
20
-4.8001219291338586
11
5.1811023622047241
21
-4.8001968503937009
0
LINE
8
BLACK
6
CONTINUOUS
10
5.1811023622047241
20
-4.8001968503937009
11
4.9527559055118111
21
-4.8001968503937009
0
LINE
8
BLACK
6
CONTINUOUS
10
4.9527559055118111
20
-4.8001968503937009
11
4.9523792519685035
21
-4.8001219291338586
0
LINE
8
BLACK
6
CONTINUOUS
10
4.9523792519685035
20
-4.8001219291338586
11
4.9518465748031497
21
-4.7995892519685039
0
LINE
8
BLACK
6
CONTINUOUS
10
4.9518465748031497
20
-4.7995892519685039
11
4.9517716535433074
21
-4.7992125984251963
0
LINE
8
BLACK
6
CONTINUOUS
10
4.9517716535433074
20
-4.7992125984251963
11
4.9517716535433074
21
-4.5314960629921259
0
LINE
8
BLACK
6
CONTINUOUS
10
4.9517716535433074
20
-4.5314960629921259
11
4.9518465748031497
21
-4.5311194094488192
0
LINE
8
BLACK
6
CONTINUOUS
10
4.9518465748031497
20
-4.5311194094488192
11
4.9523792519685035
21
-4.5305867322834645
0
LINE
8
BLACK
6
CONTINUOUS
10
4.9523792519685035
20
-4.5305867322834645
11
4.9527559055118111
21
-4.5305118110236222
0
LINE
8
BLACK
6
CONTINUOUS
10
4.9527559055118111
20
-4.5305118110236222
11
5.1811023622047241
21
-4.5305118110236222
0
LINE
8
BLACK
6
CONTINUOUS
10
5.1811023622047241
20
-4.5305118110236222
11
5.1814790157480317
21
-4.5305867322834645
0
LINE
8
BLACK
6
CONTINUOUS
10
4.9537401574803148
20
-4.5324803149606296
11
4.9537401574803148
21
-4.7982283464566926
0
LINE
8
BLACK
6
CONTINUOUS
10
4.9537401574803148
20
-4.7982283464566926
11
5.1801181102362204
21
-4.7982283464566926
0
LINE
8
BLACK
6
CONTINUOUS
10
5.1801181102362204
20
-4.7982283464566926
11
5.1801181102362204
21
-4.5324803149606296
0
LINE
8
BLACK
6
CONTINUOUS
10
5.1801181102362204
20
-4.5324803149606296
11
4.9537401574803148
21
-4.5324803149606296
0
LINE
8
BLACK
6
CONTINUOUS
10
5.4314790157480317
20
-4.5296024803149608
11
5.4320116929133855
21
-4.5301351574803146
0
LINE
8
BLACK
6
CONTINUOUS
10
5.4320116929133855
20
-4.5301351574803146
11
5.4320866141732278
21
-4.5305118110236222
0
LINE
8
BLACK
6
CONTINUOUS
10
5.4320866141732278
20
-4.5305118110236222
11
5.4320866141732278
21
-4.7982283464566926
0
LINE
8
BLACK
6
CONTINUOUS
10
5.4320866141732278
20
-4.7982283464566926
11
5.4320116929133855
21
-4.7986050000000002
0
LINE
8
BLACK
6
CONTINUOUS
10
5.4320116929133855
20
-4.7986050000000002
11
5.4314790157480317
21
-4.799137677165354
0
LINE
8
BLACK
6
CONTINUOUS
10
5.4314790157480317
20
-4.799137677165354
11
5.4311023622047241
21
-4.7992125984251963
0
LINE
8
BLACK
6
CONTINUOUS
10
5.4311023622047241
20
-4.7992125984251963
11
5.2027559055118111
21
-4.7992125984251963
0
LINE
8
BLACK
6
CONTINUOUS
10
5.2027559055118111
20
-4.7992125984251963
11
5.2023792519685035
21
-4.799137677165354
0
LINE
8
BLACK
6
CONTINUOUS
10
5.2023792519685035
20
-4.799137677165354
11
5.2018465748031497
21
-4.7986050000000002
0
LINE
8
BLACK
6
CONTINUOUS
10
5.2018465748031497
20
-4.7986050000000002
11
5.2017716535433074
21
-4.7982283464566926
0
LINE
8
BLACK
6
CONTINUOUS
10
5.2017716535433074
20
-4.7982283464566926
11
5.2017716535433074
21
-4.5305118110236222
0
LINE
8
BLACK
6
CONTINUOUS
10
5.2017716535433074
20
-4.5305118110236222
11
5.2018465748031497
21
-4.5301351574803146
0
LINE
8
BLACK
6
CONTINUOUS
10
5.2018465748031497
20
-4.5301351574803146
11
5.2023792519685035
21
-4.5296024803149608
0
LINE
8
BLACK
6
CONTINUOUS
10
5.2023792519685035
20
-4.5296024803149608
11
5.2027559055118111
21
-4.5295275590551176
0
LINE
8
BLACK
6
CONTINUOUS
10
5.2027559055118111
20
-4.5295275590551176
11
5.4311023622047241
21
-4.5295275590551176
0
LINE
8
BLACK
6
CONTINUOUS
10
5.4311023622047241
20
-4.5295275590551176
11
5.4314790157480317
21
-4.5296024803149608
0
LINE
8
BLACK
6
CONTINUOUS
10
5.2037401574803148
20
-4.5314960629921259
11
5.2037401574803148
21
-4.7972440944881889
0
LINE
8
BLACK
6
CONTINUOUS
10
5.2037401574803148
20
-4.7972440944881889
11
5.4301181102362204
21
-4.7972440944881889
0
LINE
8
BLACK
6
CONTINUOUS
10
5.4301181102362204
20
-4.7972440944881889
11
5.4301181102362204
21
-4.5314960629921259
0
LINE
8
BLACK
6
CONTINUOUS
10
5.4301181102362204
20
-4.5314960629921259
11
5.2037401574803148
21
-4.5314960629921259
0
LINE
8
BLACK
6
CONTINUOUS
10
5.7297073622047243
20
-4.5286182283464562
11
5.730240039370079
21
-4.5291509055118109
0
LINE
8
BLACK
6
CONTINUOUS
10
5.730240039370079
20
-4.5291509055118109
11
5.7303149606299213
21
-4.5295275590551176
0
LINE
8
BLACK
6
CONTINUOUS
10
5.7303149606299213
20
-4.5295275590551176
11
5.7303149606299213
21
-4.7972440944881889
0
LINE
8
BLACK
6
CONTINUOUS
10
5.7303149606299213
20
-4.7972440944881889
11
5.730240039370079
21
-4.7976207480314956
0
LINE
8
BLACK
6
CONTINUOUS
10
5.730240039370079
20
-4.7976207480314956
11
5.7297073622047243
21
-4.7981534251968503
0
LINE
8
BLACK
6
CONTINUOUS
10
5.7297073622047243
20
-4.7981534251968503
11
5.7293307086614176
21
-4.7982283464566926
0
LINE
8
BLACK
6
CONTINUOUS
10
5.7293307086614176
20
-4.7982283464566926
11
5.5009842519685037
21
-4.7982283464566926
0
LINE
8
BLACK
6
CONTINUOUS
10
5.5009842519685037
20
-4.7982283464566926
11
5.500607598425197
21
-4.7981534251968503
0
LINE
8
BLACK
6
CONTINUOUS
10
5.500607598425197
20
-4.7981534251968503
11
5.5000749212598423
21
-4.7976207480314956
0
LINE
8
BLACK
6
CONTINUOUS
10
5.5000749212598423
20
-4.7976207480314956
11
5.5
21
-4.7972440944881889
0
LINE
8
BLACK
6
CONTINUOUS
10
5.5
20
-4.7972440944881889
11
5.5
21
-4.5295275590551176
0
LINE
8
BLACK
6
CONTINUOUS
10
5.5
20
-4.5295275590551176
11
5.5000749212598423
21
-4.5291509055118109
0
LINE
8
BLACK
6
CONTINUOUS
10
5.5000749212598423
20
-4.5291509055118109
11
5.500607598425197
21
-4.5286182283464562
0
LINE
8
BLACK
6
CONTINUOUS
10
5.500607598425197
20
-4.5286182283464562
11
5.5009842519685037
21
-4.5285433070866139
0
LINE
8
BLACK
6
CONTINUOUS
10
5.5009842519685037
20
-4.5285433070866139
11
5.7293307086614176
21
-4.5285433070866139
0
LINE
8
BLACK
6
CONTINUOUS
10
5.7293307086614176
20
-4.5285433070866139
11
5.7297073622047243
21
-4.5286182283464562
0
LINE
8
BLACK
6
CONTINUOUS
10
5.5019685039370074
20
-4.5305118110236222
11
5.5019685039370074
21
-4.7962598425196852
0
LINE
8
BLACK
6
CONTINUOUS
10
5.5019685039370074
20
-4.7962598425196852
11
5.728346456692913
21
-4.7962598425196852
0
LINE
8
BLACK
6
CONTINUOUS
10
5.728346456692913
20
-4.7962598425196852
11
5.728346456692913
21
-4.5305118110236222
0
LINE
8
BLACK
6
CONTINUOUS
10
5.728346456692913
20
-4.5305118110236222
11
5.5019685039370074
21
-4.5305118110236222
0
LINE
8
BLACK
6
CONTINUOUS
10
5.9797073622047243
20
-4.5286182283464562
11
5.980240039370079
21
-4.5291509055118109
0
LINE
8
BLACK
6
CONTINUOUS
10
5.980240039370079
20
-4.5291509055118109
11
5.9803149606299213
21
-4.5295275590551176
0
LINE
8
BLACK
6
CONTINUOUS
10
5.9803149606299213
20
-4.5295275590551176
11
5.9803149606299213
21
-4.7972440944881889
0
LINE
8
BLACK
6
CONTINUOUS
10
5.9803149606299213
20
-4.7972440944881889
11
5.980240039370079
21
-4.7976207480314956
0
LINE
8
BLACK
6
CONTINUOUS
10
5.980240039370079
20
-4.7976207480314956
11
5.9797073622047243
21
-4.7981534251968503
0
LINE
8
BLACK
6
CONTINUOUS
10
5.9797073622047243
20
-4.7981534251968503
11
5.9793307086614176
21
-4.7982283464566926
0
LINE
8
BLACK
6
CONTINUOUS
10
5.9793307086614176
20
-4.7982283464566926
11
5.7509842519685037
21
-4.7982283464566926
0
LINE
8
BLACK
6
CONTINUOUS
10
5.7509842519685037
20
-4.7982283464566926
11
5.750607598425197
21
-4.7981534251968503
0
LINE
8
BLACK
6
CONTINUOUS
10
5.750607598425197
20
-4.7981534251968503
11
5.7500749212598423
21
-4.7976207480314956
0
LINE
8
BLACK
6
CONTINUOUS
10
5.7500749212598423
20
-4.7976207480314956
11
5.75
21
-4.7972440944881889
0
LINE
8
BLACK
6
CONTINUOUS
10
5.75
20
-4.7972440944881889
11
5.75
21
-4.5295275590551176
0
LINE
8
BLACK
6
CONTINUOUS
10
5.75
20
-4.5295275590551176
11
5.7500749212598423
21
-4.5291509055118109
0
LINE
8
BLACK
6
CONTINUOUS
10
5.7500749212598423
20
-4.5291509055118109
11
5.750607598425197
21
-4.5286182283464562
0
LINE
8
BLACK
6
CONTINUOUS
10
5.750607598425197
20
-4.5286182283464562
11
5.7509842519685037
21
-4.5285433070866139
0
LINE
8
BLACK
6
CONTINUOUS
10
5.7509842519685037
20
-4.5285433070866139
11
5.9793307086614176
21
-4.5285433070866139
0
LINE
8
BLACK
6
CONTINUOUS
10
5.9793307086614176
20
-4.5285433070866139
11
5.9797073622047243
21
-4.5286182283464562
0
LINE
8
BLACK
6
CONTINUOUS
10
5.7519685039370074
20
-4.5305118110236222
11
5.7519685039370074
21
-4.7962598425196852
0
LINE
8
BLACK
6
CONTINUOUS
10
5.7519685039370074
20
-4.7962598425196852
11
5.978346456692913
21
-4.7962598425196852
0
LINE
8
BLACK
6
CONTINUOUS
10
5.978346456692913
20
-4.7962598425196852
11
5.978346456692913
21
-4.5305118110236222
0
LINE
8
BLACK
6
CONTINUOUS
10
5.978346456692913
20
-4.5305118110236222
11
5.7519685039370074
21
-4.5305118110236222
0
LINE
8
BLACK
6
CONTINUOUS
10
6.5102191732283465
20
-4.5236969685039368
11
6.5107518503937003
21
-4.5242296456692914
0
LINE
8
BLACK
6
CONTINUOUS
10
6.5107518503937003
20
-4.5242296456692914
11
6.5108267716535435
21
-4.5246062992125982
0
LINE
8
BLACK
6
CONTINUOUS
10
6.5108267716535435
20
-4.5246062992125982
11
6.5108267716535435
21
-4.7923228346456694
0
LINE
8
BLACK
6
CONTINUOUS
10
6.5108267716535435
20
-4.7923228346456694
11
6.5107518503937003
21
-4.7926994881889762
0
LINE
8
BLACK
6
CONTINUOUS
10
6.5107518503937003
20
-4.7926994881889762
11
6.5102191732283465
21
-4.7932321653543308
0
LINE
8
BLACK
6
CONTINUOUS
10
6.5102191732283465
20
-4.7932321653543308
11
6.5098425196850389
21
-4.7933070866141732
0
LINE
8
BLACK
6
CONTINUOUS
10
6.5098425196850389
20
-4.7933070866141732
11
6.2814960629921259
21
-4.7933070866141732
0
LINE
8
BLACK
6
CONTINUOUS
10
6.2814960629921259
20
-4.7933070866141732
11
6.2811194094488192
21
-4.7932321653543308
0
LINE
8
BLACK
6
CONTINUOUS
10
6.2811194094488192
20
-4.7932321653543308
11
6.2805867322834645
21
-4.7926994881889762
0
LINE
8
BLACK
6
CONTINUOUS
10
6.2805867322834645
20
-4.7926994881889762
11
6.2805118110236222
21
-4.7923228346456694
0
LINE
8
BLACK
6
CONTINUOUS
10
6.2805118110236222
20
-4.7923228346456694
11
6.2805118110236222
21
-4.5246062992125982
0
LINE
8
BLACK
6
CONTINUOUS
10
6.2805118110236222
20
-4.5246062992125982
11
6.2805867322834645
21
-4.5242296456692914
0
LINE
8
BLACK
6
CONTINUOUS
10
6.2805867322834645
20
-4.5242296456692914
11
6.2811194094488192
21
-4.5236969685039368
0
LINE
8
BLACK
6
CONTINUOUS
10
6.2811194094488192
20
-4.5236969685039368
11
6.2814960629921259
21
-4.5236220472440944
0
LINE
8
BLACK
6
CONTINUOUS
10
6.2814960629921259
20
-4.5236220472440944
11
6.5098425196850389
21
-4.5236220472440944
0
LINE
8
BLACK
6
CONTINUOUS
10
6.5098425196850389
20
-4.5236220472440944
11
6.5102191732283465
21
-4.5236969685039368
0
LINE
8
BLACK
6
CONTINUOUS
10
6.2824803149606296
20
-4.5255905511811019
11
6.2824803149606296
21
-4.7913385826771648
0
LINE
8
BLACK
6
CONTINUOUS
10
6.2824803149606296
20
-4.7913385826771648
11
6.5088582677165352
21
-4.7913385826771648
0
LINE
8
BLACK
6
CONTINUOUS
10
6.5088582677165352
20
-4.7913385826771648
11
6.5088582677165352
21
-4.5255905511811019
0
LINE
8
BLACK
6
CONTINUOUS
10
6.5088582677165352
20
-4.5255905511811019
11
6.2824803149606296
21
-4.5255905511811019
0
LINE
8
BLACK
6
CONTINUOUS
10
6.2612034251968502
20
-4.5227127165354331
11
6.2617361023622049
21
-4.5232453937007877
0
LINE
8
BLACK
6
CONTINUOUS
10
6.2617361023622049
20
-4.5232453937007877
11
6.2618110236220472
21
-4.5236220472440944
0
LINE
8
BLACK
6
CONTINUOUS
10
6.2618110236220472
20
-4.5236220472440944
11
6.2618110236220472
21
-4.7913385826771648
0
LINE
8
BLACK
6
CONTINUOUS
10
6.2618110236220472
20
-4.7913385826771648
11
6.2617361023622049
21
-4.7917152362204725
0
LINE
8
BLACK
6
CONTINUOUS
10
6.2617361023622049
20
-4.7917152362204725
11
6.2612034251968502
21
-4.7922479133858262
0
LINE
8
BLACK
6
CONTINUOUS
10
6.2612034251968502
20
-4.7922479133858262
11
6.2608267716535435
21
-4.7923228346456694
0
LINE
8
BLACK
6
CONTINUOUS
10
6.2608267716535435
20
-4.7923228346456694
11
6.0324803149606296
21
-4.7923228346456694
0
LINE
8
BLACK
6
CONTINUOUS
10
6.0324803149606296
20
-4.7923228346456694
11
6.0321036614173229
21
-4.7922479133858262
0
LINE
8
BLACK
6
CONTINUOUS
10
6.0321036614173229
20
-4.7922479133858262
11
6.0315709842519682
21
-4.7917152362204725
0
LINE
8
BLACK
6
CONTINUOUS
10
6.0315709842519682
20
-4.7917152362204725
11
6.0314960629921259
21
-4.7913385826771648
0
LINE
8
BLACK
6
CONTINUOUS
10
6.0314960629921259
20
-4.7913385826771648
11
6.0314960629921259
21
-4.5236220472440944
0
LINE
8
BLACK
6
CONTINUOUS
10
6.0314960629921259
20
-4.5236220472440944
11
6.0315709842519682
21
-4.5232453937007877
0
LINE
8
BLACK
6
CONTINUOUS
10
6.0315709842519682
20
-4.5232453937007877
11
6.0321036614173229
21
-4.5227127165354331
0
LINE
8
BLACK
6
CONTINUOUS
10
6.0321036614173229
20
-4.5227127165354331
11
6.0324803149606296
21
-4.5226377952755907
0
LINE
8
BLACK
6
CONTINUOUS
10
6.0324803149606296
20
-4.5226377952755907
11
6.2608267716535435
21
-4.5226377952755907
0
LINE
8
BLACK
6
CONTINUOUS
10
6.2608267716535435
20
-4.5226377952755907
11
6.2612034251968502
21
-4.5227127165354331
0
LINE
8
BLACK
6
CONTINUOUS
10
6.0334645669291334
20
-4.5246062992125982
11
6.0334645669291334
21
-4.7903543307086611
0
LINE
8
BLACK
6
CONTINUOUS
10
6.0334645669291334
20
-4.7903543307086611
11
6.2598425196850389
21
-4.7903543307086611
0
LINE
8
BLACK
6
CONTINUOUS
10
6.2598425196850389
20
-4.7903543307086611
11
6.2598425196850389
21
-4.5246062992125982
0
LINE
8
BLACK
6
CONTINUOUS
10
6.2598425196850389
20
-4.5246062992125982
11
6.0334645669291334
21
-4.5246062992125982
0
LINE
8
BLACK
6
CONTINUOUS
10
5.9511640551181104
20
-3.8357048425196849
11
5.9516967322834642
21
-3.8362375196850391
0
LINE
8
BLACK
6
CONTINUOUS
10
5.9516967322834642
20
-3.8362375196850391
11
5.9517716535433074
21
-3.8366141732283463
0
LINE
8
BLACK
6
CONTINUOUS
10
5.9517716535433074
20
-3.8366141732283463
11
5.9517716535433074
21
-4.0757874015748028
0
LINE
8
BLACK
6
CONTINUOUS
10
5.9517716535433074
20
-4.0757874015748028
11
6.0511811023622046
21
-4.0757874015748028
0
LINE
8
BLACK
6
CONTINUOUS
10
6.0511811023622046
20
-4.0757874015748028
11
6.0515577559055114
21
-4.075862322834646
0
LINE
8
BLACK
6
CONTINUOUS
10
6.0515577559055114
20
-4.075862322834646
11
6.052090433070866
21
-4.0763949999999998
0
LINE
8
BLACK
6
CONTINUOUS
10
6.052090433070866
20
-4.0763949999999998
11
6.0521653543307083
21
-4.0767716535433074
0
LINE
8
BLACK
6
CONTINUOUS
10
6.0521653543307083
20
-4.0767716535433074
11
6.0521653543307083
21
-4.4921259842519685
0
LINE
8
BLACK
6
CONTINUOUS
10
6.0521653543307083
20
-4.4921259842519685
11
6.052090433070866
21
-4.4925026377952753
0
LINE
8
BLACK
6
CONTINUOUS
10
6.052090433070866
20
-4.4925026377952753
11
6.0515577559055114
21
-4.4930353149606299
0
LINE
8
BLACK
6
CONTINUOUS
10
6.0515577559055114
20
-4.4930353149606299
11
6.0511811023622046
21
-4.4931102362204722
0
LINE
8
BLACK
6
CONTINUOUS
10
6.0511811023622046
20
-4.4931102362204722
11
5.4055118110236222
21
-4.4931102362204722
0
LINE
8
BLACK
6
CONTINUOUS
10
5.4055118110236222
20
-4.4931102362204722
11
5.4051351574803146
21
-4.4930353149606299
0
LINE
8
BLACK
6
CONTINUOUS
10
5.4051351574803146
20
-4.4930353149606299
11
5.4046024803149608
21
-4.4925026377952753
0
LINE
8
BLACK
6
CONTINUOUS
10
5.4046024803149608
20
-4.4925026377952753
11
5.4045275590551176
21
-4.4921259842519685
0
LINE
8
BLACK
6
CONTINUOUS
10
5.4045275590551176
20
-4.4921259842519685
11
5.4045275590551176
21
-4.0767716535433074
0
LINE
8
BLACK
6
CONTINUOUS
10
5.4045275590551176
20
-4.0767716535433074
11
5.4046024803149608
21
-4.0763949999999998
0
LINE
8
BLACK
6
CONTINUOUS
10
5.4046024803149608
20
-4.0763949999999998
11
5.4051351574803146
21
-4.075862322834646
0
LINE
8
BLACK
6
CONTINUOUS
10
5.4051351574803146
20
-4.075862322834646
11
5.4055118110236222
21
-4.0757874015748028
0
LINE
8
BLACK
6
CONTINUOUS
10
5.4055118110236222
20
-4.0757874015748028
11
5.5049212598425195
21
-4.0757874015748028
0
LINE
8
BLACK
6
CONTINUOUS
10
5.5049212598425195
20
-4.0757874015748028
11
5.5049212598425195
21
-3.8366141732283463
0
LINE
8
BLACK
6
CONTINUOUS
10
5.5049212598425195
20
-3.8366141732283463
11
5.5049961811023618
21
-3.8362375196850391
0
LINE
8
BLACK
6
CONTINUOUS
10
5.5049961811023618
20
-3.8362375196850391
11
5.5055288582677164
21
-3.8357048425196849
0
LINE
8
BLACK
6
CONTINUOUS
10
5.5055288582677164
20
-3.8357048425196849
11
5.5059055118110232
21
-3.8356299212598426
0
LINE
8
BLACK
6
CONTINUOUS
10
5.5059055118110232
20
-3.8356299212598426
11
5.9507874015748028
21
-3.8356299212598426
0
LINE
8
BLACK
6
CONTINUOUS
10
5.9507874015748028
20
-3.8356299212598426
11
5.9511640551181104
21
-3.8357048425196849
0
LINE
8
BLACK
6
CONTINUOUS
10
5.5068897637795278
20
-3.8375984251968505
11
5.5068897637795278
21
-4.0767716535433074
0
LINE
8
BLACK
6
CONTINUOUS
10
5.5068897637795278
20
-4.0767716535433074
11
5.5068148425196846
21
-4.0771483070866141
0
LINE
8
BLACK
6
CONTINUOUS
10
5.5068148425196846
20
-4.0771483070866141
11
5.5062821653543308
21
-4.0776809842519688
0
LINE
8
BLACK
6
CONTINUOUS
10
5.5062821653543308
20
-4.0776809842519688
11
5.5059055118110232
21
-4.0777559055118111
0
LINE
8
BLACK
6
CONTINUOUS
10
5.5059055118110232
20
-4.0777559055118111
11
5.4064960629921259
21
-4.0777559055118111
0
LINE
8
BLACK
6
CONTINUOUS
10
5.4064960629921259
20
-4.0777559055118111
11
5.4064960629921259
21
-4.4911417322834648
0
LINE
8
BLACK
6
CONTINUOUS
10
5.4064960629921259
20
-4.4911417322834648
11
6.0501968503937009
21
-4.4911417322834648
0
LINE
8
BLACK
6
CONTINUOUS
10
6.0501968503937009
20
-4.4911417322834648
11
6.0501968503937009
21
-4.0777559055118111
0
LINE
8
BLACK
6
CONTINUOUS
10
6.0501968503937009
20
-4.0777559055118111
11
5.9507874015748028
21
-4.0777559055118111
0
LINE
8
BLACK
6
CONTINUOUS
10
5.9507874015748028
20
-4.0777559055118111
11
5.9504107480314961
21
-4.0776809842519688
0
LINE
8
BLACK
6
CONTINUOUS
10
5.9504107480314961
20
-4.0776809842519688
11
5.9498780708661414
21
-4.0771483070866141
0
LINE
8
BLACK
6
CONTINUOUS
10
5.9498780708661414
20
-4.0771483070866141
11
5.9498031496062991
21
-4.0767716535433074
0
LINE
8
BLACK
6
CONTINUOUS
10
5.9498031496062991
20
-4.0767716535433074
11
5.9498031496062991
21
-3.8375984251968505
0
LINE
8
BLACK
6
CONTINUOUS
10
5.9498031496062991
20
-3.8375984251968505
11
5.5068897637795278
21
-3.8375984251968505
0
LINE
8
BLACK
6
CONTINUOUS
10
6.1760808661417324
20
-4.3334421653543309
11
6.1825299212598424
21
-4.3356987795275588
0
LINE
8
BLACK
6
CONTINUOUS
10
6.1825299212598424
20
-4.3356987795275588
11
6.1883151574803152
21
-4.3393338976377951
0
LINE
8
BLACK
6
CONTINUOUS
10
6.1883151574803152
20
-4.3393338976377951
11
6.1931464173228346
21
-4.3441651574803153
0
LINE
8
BLACK
6
CONTINUOUS
10
6.1931464173228346
20
-4.3441651574803153
11
6.1967815354330709
21
-4.3499503937007873
0
LINE
8
BLACK
6
CONTINUOUS
10
6.1967815354330709
20
-4.3499503937007873
11
6.1990381496062987
21
-4.3563994488188973
0
LINE
8
BLACK
6
CONTINUOUS
10
6.1990381496062987
20
-4.3563994488188973
11
6.1998031496062991
21
-4.3631889763779528
0
LINE
8
BLACK
6
CONTINUOUS
10
6.1998031496062991
20
-4.3631889763779528
11
6.1990381496062987
21
-4.3699785039370074
0
LINE
8
BLACK
6
CONTINUOUS
10
6.1990381496062987
20
-4.3699785039370074
11
6.1967815354330709
21
-4.3764275590551183
0
LINE
8
BLACK
6
CONTINUOUS
10
6.1967815354330709
20
-4.3764275590551183
11
6.1931464173228346
21
-4.3822127952755903
0
LINE
8
BLACK
6
CONTINUOUS
10
6.1931464173228346
20
-4.3822127952755903
11
6.1883151574803152
21
-4.3870440551181105
0
LINE
8
BLACK
6
CONTINUOUS
10
6.1883151574803152
20
-4.3870440551181105
11
6.1825299212598424
21
-4.3906791732283468
0
LINE
8
BLACK
6
CONTINUOUS
10
6.1825299212598424
20
-4.3906791732283468
11
6.1760808661417324
21
-4.3929357874015746
0
LINE
8
BLACK
6
CONTINUOUS
10
6.1760808661417324
20
-4.3929357874015746
11
6.1692913385826769
21
-4.393700787401575
0
LINE
8
BLACK
6
CONTINUOUS
10
6.1692913385826769
20
-4.393700787401575
11
6.1625018110236223
21
-4.3929357874015746
0
LINE
8
BLACK
6
CONTINUOUS
10
6.1625018110236223
20
-4.3929357874015746
11
6.1560527559055114
21
-4.3906791732283468
0
LINE
8
BLACK
6
CONTINUOUS
10
6.1560527559055114
20
-4.3906791732283468
11
6.1502675196850394
21
-4.3870440551181105
0
LINE
8
BLACK
6
CONTINUOUS
10
6.1502675196850394
20
-4.3870440551181105
11
6.1454362598425192
21
-4.3822127952755903
0
LINE
8
BLACK
6
CONTINUOUS
10
6.1454362598425192
20
-4.3822127952755903
11
6.1418011417322838
21
-4.3764275590551183
0
LINE
8
BLACK
6
CONTINUOUS
10
6.1418011417322838
20
-4.3764275590551183
11
6.139544527559055
21
-4.3699785039370074
0
LINE
8
BLACK
6
CONTINUOUS
10
6.139544527559055
20
-4.3699785039370074
11
6.1387795275590546
21
-4.3631889763779528
0
LINE
8
BLACK
6
CONTINUOUS
10
6.1387795275590546
20
-4.3631889763779528
11
6.139544527559055
21
-4.3563994488188973
0
LINE
8
BLACK
6
CONTINUOUS
10
6.139544527559055
20
-4.3563994488188973
11
6.1418011417322838
21
-4.3499503937007873
0
LINE
8
BLACK
6
CONTINUOUS
10
6.1418011417322838
20
-4.3499503937007873
11
6.1454362598425192
21
-4.3441651574803153
0
LINE
8
BLACK
6
CONTINUOUS
10
6.1454362598425192
20
-4.3441651574803153
11
6.1502675196850394
21
-4.3393338976377951
0
LINE
8
BLACK
6
CONTINUOUS
10
6.1502675196850394
20
-4.3393338976377951
11
6.1560527559055114
21
-4.3356987795275588
0
LINE
8
BLACK
6
CONTINUOUS
10
6.1560527559055114
20
-4.3356987795275588
11
6.1625018110236223
21
-4.3334421653543309
0
LINE
8
BLACK
6
CONTINUOUS
10
6.1625018110236223
20
-4.3334421653543309
11
6.1692913385826769
21
-4.3326771653543306
0
LINE
8
BLACK
6
CONTINUOUS
10
6.1692913385826769
20
-4.3326771653543306
11
6.1760808661417324
21
-4.3334421653543309
0
LINE
8
BLACK
6
CONTINUOUS
10
6.1412875984251967
20
-4.3695806299212601
11
6.1434120078740158
21
-4.375651811023622
0
LINE
8
BLACK
6
CONTINUOUS
10
6.1434120078740158
20
-4.375651811023622
11
6.146834094488189
21
-4.3810980314960632
0
LINE
8
BLACK
6
CONTINUOUS
10
6.146834094488189
20
-4.3810980314960632
11
6.1513822834645664
21
-4.3856462204724407
0
LINE
8
BLACK
6
CONTINUOUS
10
6.1513822834645664
20
-4.3856462204724407
11
6.1568285039370076
21
-4.3890683070866139
0
LINE
8
BLACK
6
CONTINUOUS
10
6.1568285039370076
20
-4.3890683070866139
11
6.1628996850393696
21
-4.391192716535433
0
LINE
8
BLACK
6
CONTINUOUS
10
6.1628996850393696
20
-4.391192716535433
11
6.1692913385826769
21
-4.3919128740157483
0
LINE
8
BLACK
6
CONTINUOUS
10
6.1692913385826769
20
-4.3919128740157483
11
6.1756829921259841
21
-4.391192716535433
0
LINE
8
BLACK
6
CONTINUOUS
10
6.1756829921259841
20
-4.391192716535433
11
6.1817541732283461
21
-4.3890683070866139
0
LINE
8
BLACK
6
CONTINUOUS
10
6.1817541732283461
20
-4.3890683070866139
11
6.1872003937007873
21
-4.3856462204724407
0
LINE
8
BLACK
6
CONTINUOUS
10
6.1872003937007873
20
-4.3856462204724407
11
6.1917485826771648
21
-4.3810980314960632
0
LINE
8
BLACK
6
CONTINUOUS
10
6.1917485826771648
20
-4.3810980314960632
11
6.1951706692913389
21
-4.375651811023622
0
LINE
8
BLACK
6
CONTINUOUS
10
6.1951706692913389
20
-4.375651811023622
11
6.1972950787401571
21
-4.3695806299212601
0
LINE
8
BLACK
6
CONTINUOUS
10
6.1972950787401571
20
-4.3695806299212601
11
6.1980152362204723
21
-4.3631889763779528
0
LINE
8
BLACK
6
CONTINUOUS
10
6.1980152362204723
20
-4.3631889763779528
11
6.1972950787401571
21
-4.3567973228346455
0
LINE
8
BLACK
6
CONTINUOUS
10
6.1972950787401571
20
-4.3567973228346455
11
6.1951706692913389
21
-4.3507261417322836
0
LINE
8
BLACK
6
CONTINUOUS
10
6.1951706692913389
20
-4.3507261417322836
11
6.1917485826771648
21
-4.3452799212598423
0
LINE
8
BLACK
6
CONTINUOUS
10
6.1917485826771648
20
-4.3452799212598423
11
6.1872003937007873
21
-4.3407317322834649
0
LINE
8
BLACK
6
CONTINUOUS
10
6.1872003937007873
20
-4.3407317322834649
11
6.1817541732283461
21
-4.3373096456692917
0
LINE
8
BLACK
6
CONTINUOUS
10
6.1817541732283461
20
-4.3373096456692917
11
6.1756829921259841
21
-4.3351852362204726
0
LINE
8
BLACK
6
CONTINUOUS
10
6.1756829921259841
20
-4.3351852362204726
11
6.1692913385826769
21
-4.3344650787401573
0
LINE
8
BLACK
6
CONTINUOUS
10
6.1692913385826769
20
-4.3344650787401573
11
6.1628996850393696
21
-4.3351852362204726
0
LINE
8
BLACK
6
CONTINUOUS
10
6.1628996850393696
20
-4.3351852362204726
11
6.1568285039370076
21
-4.3373096456692917
0
LINE
8
BLACK
6
CONTINUOUS
10
6.1568285039370076
20
-4.3373096456692917
11
6.1513822834645664
21
-4.3407317322834649
0
LINE
8
BLACK
6
CONTINUOUS
10
6.1513822834645664
20
-4.3407317322834649
11
6.146834094488189
21
-4.3452799212598423
0
LINE
8
BLACK
6
CONTINUOUS
10
6.146834094488189
20
-4.3452799212598423
11
6.1434120078740158
21
-4.3507261417322836
0
LINE
8
BLACK
6
CONTINUOUS
10
6.1434120078740158
20
-4.3507261417322836
11
6.1412875984251967
21
-4.3567973228346455
0
LINE
8
BLACK
6
CONTINUOUS
10
6.1412875984251967
20
-4.3567973228346455
11
6.1405674409448814
21
-4.3631889763779528
0
LINE
8
BLACK
6
CONTINUOUS
10
6.1405674409448814
20
-4.3631889763779528
11
6.1412875984251967
21
-4.3695806299212601
0
CIRCLE
8
BLACK
10
5.4724409448818898
20
-4.2165354330708658
40
0.0068897637795276
0
CIRCLE
8
BLACK
10
5.984251968503937
20
-4.2165354330708658
40
0.0068897637795276
0
CIRCLE
8
BLACK
10
5.8661417322834648
20
-4.4133858267716537
40
0.0068897637795276
0
CIRCLE
8
BLACK
10
5.728346456692913
20
-4.4133858267716537
40
0.0068897637795276
0
CIRCLE
8
BLACK
10
5.590551181102362
20
-4.4133858267716537
40
0.0068897637795276
0
CIRCLE
8
BLACK
10
5.3917322834645667
20
-5.7421259842519685
40
0.0068897637795276
0
CIRCLE
8
BLACK
10
4.9586614173228343
20
-5.7421259842519685
40
0.0068897637795276
0
CIRCLE
8
BLACK
10
5.0767716535433074
20
-5.3484251968503935
40
0.0068897637795276
0
CIRCLE
8
BLACK
10
5.2736220472440944
20
-5.3484251968503935
40
0.0068897637795276
  0
ENDSEC
  0
EOF
