  0
SECTION
  2
HEADER
  9
$ANGBASE
  50
0.0
  9
$ANGDIR
  70
1
  9
$MEASUREMENT
  70
0
  0
ENDSEC
  0
SECTION
  2
TABLES
  0
TABLE
  2
LTYPE
  70
4
  0
LTYPE
  5
40F
  2
CONTINUOUS
  70
0
  3
Solid line
  72
65
  73
0
  40
0.0
  0
LTYPE
  5
410
  2
DASHDOT
 70
0
  3
Dash Dot ____ _ ____ _
 72
65
 73
4
 40
2.0
 49
1.25
 49
-0.25
 49
0.25
 49
-0.25
  0
LTYPE
  5
411
  2
DASHED
 70
0
  3
Dashed __ __ __ __ __
 72
65
 73
2
 40
0.75
 49
0.5
 49
-0.25
  0
LTYPE
  5
43B
  2
DOTTED
 70
0
  3
Dotted .  .  .  .
 72
65
 73
2
 40
0.2
 49
0.0
 49
-0.2
  0
ENDTAB
  0
TABLE
  2
STYLE
  70
4
  0
STYLE
  2
KICAD
  70
0
  40
0
  41
1
  42
1
  50
0
  71
0
  3
isocp.shx
  0
STYLE
  2
KICADB
  70
0
  40
0
  41
1
  42
1
  50
0
  71
0
  3
isocp.shx
  0
STYLE
  2
KICADI
  70
0
  40
0
  41
1
  42
1
  50
15
  71
0
  3
isocp.shx
  0
STYLE
  2
KICADBI
  70
0
  40
0
  41
1
  42
1
  50
15
  71
0
  3
isocp.shx
  0
ENDTAB
  0
TABLE
  2
LAYER
  70
1
  0
LAYER
  2
BLACK
  70
0
  62
7
  6
CONTINUOUS
  0
ENDTAB
  0
ENDSEC
  0
SECTION
  2
ENTITIES
0
LINE
8
BLACK
6
CONTINUOUS
10
4.9684339763779528
20
-5.7163578346456694
11
4.974316732283464
21
-5.7194453149606295
0
LINE
8
BLACK
6
CONTINUOUS
10
4.974316732283464
20
-5.7194453149606295
11
4.9792896850393698
21
-5.7238509448818897
0
LINE
8
BLACK
6
CONTINUOUS
10
4.9792896850393698
20
-5.7238509448818897
11
4.9830637401574798
21
-5.7293186614173228
0
LINE
8
BLACK
6
CONTINUOUS
10
4.9830637401574798
20
-5.7293186614173228
11
4.9854196456692916
21
-5.7355306692913386
0
LINE
8
BLACK
6
CONTINUOUS
10
4.9854196456692916
20
-5.7355306692913386
11
4.9862204724409445
21
-5.7421259842519685
0
LINE
8
BLACK
6
CONTINUOUS
10
4.9862204724409445
20
-5.7421259842519685
11
4.9854196456692916
21
-5.7487212992125984
0
LINE
8
BLACK
6
CONTINUOUS
10
4.9854196456692916
20
-5.7487212992125984
11
4.9830637401574798
21
-5.7549333070866142
0
LINE
8
BLACK
6
CONTINUOUS
10
4.9830637401574798
20
-5.7549333070866142
11
4.9792896850393698
21
-5.7604010236220473
0
LINE
8
BLACK
6
CONTINUOUS
10
4.9792896850393698
20
-5.7604010236220473
11
4.974316732283464
21
-5.7648066535433067
0
LINE
8
BLACK
6
CONTINUOUS
10
4.974316732283464
20
-5.7648066535433067
11
4.9684339763779528
21
-5.7678941338582677
0
LINE
8
BLACK
6
CONTINUOUS
10
4.9684339763779528
20
-5.7678941338582677
11
4.9619833070866139
21
-5.7694840944881891
0
LINE
8
BLACK
6
CONTINUOUS
10
4.9619833070866139
20
-5.7694840944881891
11
4.9553395275590546
21
-5.7694840944881891
0
LINE
8
BLACK
6
CONTINUOUS
10
4.9553395275590546
20
-5.7694840944881891
11
4.9488888582677166
21
-5.7678941338582677
0
LINE
8
BLACK
6
CONTINUOUS
10
4.9488888582677166
20
-5.7678941338582677
11
4.9430061023622045
21
-5.7648066535433067
0
LINE
8
BLACK
6
CONTINUOUS
10
4.9430061023622045
20
-5.7648066535433067
11
4.9380331496062988
21
-5.7604010236220473
0
LINE
8
BLACK
6
CONTINUOUS
10
4.9380331496062988
20
-5.7604010236220473
11
4.9342590944881888
21
-5.7549333070866142
0
LINE
8
BLACK
6
CONTINUOUS
10
4.9342590944881888
20
-5.7549333070866142
11
4.9319031889763778
21
-5.7487212992125984
0
LINE
8
BLACK
6
CONTINUOUS
10
4.9319031889763778
20
-5.7487212992125984
11
4.9311023622047241
21
-5.7421259842519685
0
LINE
8
BLACK
6
CONTINUOUS
10
4.9311023622047241
20
-5.7421259842519685
11
4.9319031889763778
21
-5.7355306692913386
0
LINE
8
BLACK
6
CONTINUOUS
10
4.9319031889763778
20
-5.7355306692913386
11
4.9342590944881888
21
-5.7293186614173228
0
LINE
8
BLACK
6
CONTINUOUS
10
4.9342590944881888
20
-5.7293186614173228
11
4.9380331496062988
21
-5.7238509448818897
0
LINE
8
BLACK
6
CONTINUOUS
10
4.9380331496062988
20
-5.7238509448818897
11
4.9430061023622045
21
-5.7194453149606295
0
LINE
8
BLACK
6
CONTINUOUS
10
4.9430061023622045
20
-5.7194453149606295
11
4.9488888582677166
21
-5.7163578346456694
0
LINE
8
BLACK
6
CONTINUOUS
10
4.9488888582677166
20
-5.7163578346456694
11
4.9553395275590546
21
-5.7147678740157479
0
LINE
8
BLACK
6
CONTINUOUS
10
4.9553395275590546
20
-5.7147678740157479
11
4.9619833070866139
21
-5.7147678740157479
0
LINE
8
BLACK
6
CONTINUOUS
10
4.9619833070866139
20
-5.7147678740157479
11
4.9684339763779528
21
-5.7163578346456694
0
LINE
8
BLACK
6
CONTINUOUS
10
5.4015048425196852
20
-5.7163578346456694
11
5.4073875984251965
21
-5.7194453149606295
0
LINE
8
BLACK
6
CONTINUOUS
10
5.4073875984251965
20
-5.7194453149606295
11
5.4123605511811022
21
-5.7238509448818897
0
LINE
8
BLACK
6
CONTINUOUS
10
5.4123605511811022
20
-5.7238509448818897
11
5.4161346062992122
21
-5.7293186614173228
0
LINE
8
BLACK
6
CONTINUOUS
10
5.4161346062992122
20
-5.7293186614173228
11
5.4184905118110231
21
-5.7355306692913386
0
LINE
8
BLACK
6
CONTINUOUS
10
5.4184905118110231
20
-5.7355306692913386
11
5.4192913385826769
21
-5.7421259842519685
0
LINE
8
BLACK
6
CONTINUOUS
10
5.4192913385826769
20
-5.7421259842519685
11
5.4184905118110231
21
-5.7487212992125984
0
LINE
8
BLACK
6
CONTINUOUS
10
5.4184905118110231
20
-5.7487212992125984
11
5.4161346062992122
21
-5.7549333070866142
0
LINE
8
BLACK
6
CONTINUOUS
10
5.4161346062992122
20
-5.7549333070866142
11
5.4123605511811022
21
-5.7604010236220473
0
LINE
8
BLACK
6
CONTINUOUS
10
5.4123605511811022
20
-5.7604010236220473
11
5.4073875984251965
21
-5.7648066535433067
0
LINE
8
BLACK
6
CONTINUOUS
10
5.4073875984251965
20
-5.7648066535433067
11
5.4015048425196852
21
-5.7678941338582677
0
LINE
8
BLACK
6
CONTINUOUS
10
5.4015048425196852
20
-5.7678941338582677
11
5.3950541732283464
21
-5.7694840944881891
0
LINE
8
BLACK
6
CONTINUOUS
10
5.3950541732283464
20
-5.7694840944881891
11
5.388410393700787
21
-5.7694840944881891
0
LINE
8
BLACK
6
CONTINUOUS
10
5.388410393700787
20
-5.7694840944881891
11
5.381959724409449
21
-5.7678941338582677
0
LINE
8
BLACK
6
CONTINUOUS
10
5.381959724409449
20
-5.7678941338582677
11
5.3760769685039369
21
-5.7648066535433067
0
LINE
8
BLACK
6
CONTINUOUS
10
5.3760769685039369
20
-5.7648066535433067
11
5.3711040157480312
21
-5.7604010236220473
0
LINE
8
BLACK
6
CONTINUOUS
10
5.3711040157480312
20
-5.7604010236220473
11
5.3673299606299212
21
-5.7549333070866142
0
LINE
8
BLACK
6
CONTINUOUS
10
5.3673299606299212
20
-5.7549333070866142
11
5.3649740551181102
21
-5.7487212992125984
0
LINE
8
BLACK
6
CONTINUOUS
10
5.3649740551181102
20
-5.7487212992125984
11
5.3641732283464565
21
-5.7421259842519685
0
LINE
8
BLACK
6
CONTINUOUS
10
5.3641732283464565
20
-5.7421259842519685
11
5.3649740551181102
21
-5.7355306692913386
0
LINE
8
BLACK
6
CONTINUOUS
10
5.3649740551181102
20
-5.7355306692913386
11
5.3673299606299212
21
-5.7293186614173228
0
LINE
8
BLACK
6
CONTINUOUS
10
5.3673299606299212
20
-5.7293186614173228
11
5.3711040157480312
21
-5.7238509448818897
0
LINE
8
BLACK
6
CONTINUOUS
10
5.3711040157480312
20
-5.7238509448818897
11
5.3760769685039369
21
-5.7194453149606295
0
LINE
8
BLACK
6
CONTINUOUS
10
5.3760769685039369
20
-5.7194453149606295
11
5.381959724409449
21
-5.7163578346456694
0
LINE
8
BLACK
6
CONTINUOUS
10
5.381959724409449
20
-5.7163578346456694
11
5.388410393700787
21
-5.7147678740157479
0
LINE
8
BLACK
6
CONTINUOUS
10
5.388410393700787
20
-5.7147678740157479
11
5.3950541732283464
21
-5.7147678740157479
0
LINE
8
BLACK
6
CONTINUOUS
10
5.3950541732283464
20
-5.7147678740157479
11
5.4015048425196852
21
-5.7163578346456694
0
LINE
8
BLACK
6
CONTINUOUS
10
5.7250744488188978
20
-5.3757403149606295
11
5.7313154724409445
21
-5.3779241338582677
0
LINE
8
BLACK
6
CONTINUOUS
10
5.7313154724409445
20
-5.3779241338582677
11
5.7369140551181097
21
-5.3814419685039372
0
LINE
8
BLACK
6
CONTINUOUS
10
5.7369140551181097
20
-5.3814419685039372
11
5.7415895275590554
21
-5.386117440944882
0
LINE
8
BLACK
6
CONTINUOUS
10
5.7415895275590554
20
-5.386117440944882
11
5.745107362204724
21
-5.3917160236220472
0
LINE
8
BLACK
6
CONTINUOUS
10
5.745107362204724
20
-5.3917160236220472
11
5.7472911811023621
21
-5.3979570472440948
0
LINE
8
BLACK
6
CONTINUOUS
10
5.7472911811023621
20
-5.3979570472440948
11
5.7480314960629917
21
-5.4045275590551176
0
LINE
8
BLACK
6
CONTINUOUS
10
5.7480314960629917
20
-5.4045275590551176
11
5.7472911811023621
21
-5.4110980708661414
0
LINE
8
BLACK
6
CONTINUOUS
10
5.7472911811023621
20
-5.4110980708661414
11
5.745107362204724
21
-5.417339094488189
0
LINE
8
BLACK
6
CONTINUOUS
10
5.745107362204724
20
-5.417339094488189
11
5.7415895275590554
21
-5.4229376771653541
0
LINE
8
BLACK
6
CONTINUOUS
10
5.7415895275590554
20
-5.4229376771653541
11
5.7369140551181097
21
-5.4276131496062989
0
LINE
8
BLACK
6
CONTINUOUS
10
5.7369140551181097
20
-5.4276131496062989
11
5.7313154724409445
21
-5.4311309842519684
0
LINE
8
BLACK
6
CONTINUOUS
10
5.7313154724409445
20
-5.4311309842519684
11
5.7250744488188978
21
-5.4333148031496066
0
LINE
8
BLACK
6
CONTINUOUS
10
5.7250744488188978
20
-5.4333148031496066
11
5.7185039370078741
21
-5.4340551181102361
0
LINE
8
BLACK
6
CONTINUOUS
10
5.7185039370078741
20
-5.4340551181102361
11
5.7119334251968503
21
-5.4333148031496066
0
LINE
8
BLACK
6
CONTINUOUS
10
5.7119334251968503
20
-5.4333148031496066
11
5.7056924015748027
21
-5.4311309842519684
0
LINE
8
BLACK
6
CONTINUOUS
10
5.7056924015748027
20
-5.4311309842519684
11
5.7000938188976376
21
-5.4276131496062989
0
LINE
8
BLACK
6
CONTINUOUS
10
5.7000938188976376
20
-5.4276131496062989
11
5.6954183464566928
21
-5.4229376771653541
0
LINE
8
BLACK
6
CONTINUOUS
10
5.6954183464566928
20
-5.4229376771653541
11
5.6919005118110233
21
-5.417339094488189
0
LINE
8
BLACK
6
CONTINUOUS
10
5.6919005118110233
20
-5.417339094488189
11
5.689716692913386
21
-5.4110980708661414
0
LINE
8
BLACK
6
CONTINUOUS
10
5.689716692913386
20
-5.4110980708661414
11
5.6889763779527556
21
-5.4045275590551176
0
LINE
8
BLACK
6
CONTINUOUS
10
5.6889763779527556
20
-5.4045275590551176
11
5.689716692913386
21
-5.3979570472440948
0
LINE
8
BLACK
6
CONTINUOUS
10
5.689716692913386
20
-5.3979570472440948
11
5.6919005118110233
21
-5.3917160236220472
0
LINE
8
BLACK
6
CONTINUOUS
10
5.6919005118110233
20
-5.3917160236220472
11
5.6954183464566928
21
-5.386117440944882
0
LINE
8
BLACK
6
CONTINUOUS
10
5.6954183464566928
20
-5.386117440944882
11
5.7000938188976376
21
-5.3814419685039372
0
LINE
8
BLACK
6
CONTINUOUS
10
5.7000938188976376
20
-5.3814419685039372
11
5.7056924015748027
21
-5.3779241338582677
0
LINE
8
BLACK
6
CONTINUOUS
10
5.7056924015748027
20
-5.3779241338582677
11
5.7119334251968503
21
-5.3757403149606295
0
LINE
8
BLACK
6
CONTINUOUS
10
5.7119334251968503
20
-5.3757403149606295
11
5.7185039370078741
21
-5.375
0
LINE
8
BLACK
6
CONTINUOUS
10
5.7185039370078741
20
-5.375
11
5.7250744488188978
21
-5.3757403149606295
0
LINE
8
BLACK
6
CONTINUOUS
10
5.1456692913385824
20
-5.4173228346456694
11
5.0078740157480315
21
-5.4173228346456694
0
LINE
8
BLACK
6
CONTINUOUS
10
5.0078740157480315
20
-5.4173228346456694
11
5.0078740157480315
21
-5.2795275590551176
0
LINE
8
BLACK
6
CONTINUOUS
10
5.0078740157480315
20
-5.2795275590551176
11
5.1456692913385824
21
-5.2795275590551176
0
LINE
8
BLACK
6
CONTINUOUS
10
5.1456692913385824
20
-5.2795275590551176
11
5.1456692913385824
21
-5.4173228346456694
0
LINE
8
BLACK
6
CONTINUOUS
10
5.2889532283464566
20
-5.2812549606299211
11
5.2987931889763775
21
-5.2842901968503933
0
LINE
8
BLACK
6
CONTINUOUS
10
5.2987931889763775
20
-5.2842901968503933
11
5.3080708661417324
21
-5.2887581102362207
0
LINE
8
BLACK
6
CONTINUOUS
10
5.3080708661417324
20
-5.2887581102362207
11
5.3165790157480313
21
-5.2945588582677168
0
LINE
8
BLACK
6
CONTINUOUS
10
5.3165790157480313
20
-5.2945588582677168
11
5.3241275984251963
21
-5.3015629133858271
0
LINE
8
BLACK
6
CONTINUOUS
10
5.3241275984251963
20
-5.3015629133858271
11
5.3305479527559054
21
-5.3096137795275586
0
LINE
8
BLACK
6
CONTINUOUS
10
5.3305479527559054
20
-5.3096137795275586
11
5.3356966929133858
21
-5.318531614173228
0
LINE
8
BLACK
6
CONTINUOUS
10
5.3356966929133858
20
-5.318531614173228
11
5.3394587401574798
21
-5.3281172440944884
0
LINE
8
BLACK
6
CONTINUOUS
10
5.3394587401574798
20
-5.3281172440944884
11
5.3417501574803152
21
-5.3381565354330709
0
LINE
8
BLACK
6
CONTINUOUS
10
5.3417501574803152
20
-5.3381565354330709
11
5.3425196850393704
21
-5.3484251968503935
0
LINE
8
BLACK
6
CONTINUOUS
10
5.3425196850393704
20
-5.3484251968503935
11
5.3417501574803152
21
-5.3586938582677162
0
LINE
8
BLACK
6
CONTINUOUS
10
5.3417501574803152
20
-5.3586938582677162
11
5.3394587401574798
21
-5.3687331496062987
0
LINE
8
BLACK
6
CONTINUOUS
10
5.3394587401574798
20
-5.3687331496062987
11
5.3356966929133858
21
-5.3783187795275591
0
LINE
8
BLACK
6
CONTINUOUS
10
5.3356966929133858
20
-5.3783187795275591
11
5.3305479527559054
21
-5.3872366141732284
0
LINE
8
BLACK
6
CONTINUOUS
10
5.3305479527559054
20
-5.3872366141732284
11
5.3241275984251963
21
-5.3952874803149609
0
LINE
8
BLACK
6
CONTINUOUS
10
5.3241275984251963
20
-5.3952874803149609
11
5.3165790157480313
21
-5.4022915354330712
0
LINE
8
BLACK
6
CONTINUOUS
10
5.3165790157480313
20
-5.4022915354330712
11
5.3080708661417324
21
-5.4080922834645664
0
LINE
8
BLACK
6
CONTINUOUS
10
5.3080708661417324
20
-5.4080922834645664
11
5.2987931889763775
21
-5.4125601968503938
0
LINE
8
BLACK
6
CONTINUOUS
10
5.2987931889763775
20
-5.4125601968503938
11
5.2889532283464566
21
-5.415595433070866
0
LINE
8
BLACK
6
CONTINUOUS
10
5.2889532283464566
20
-5.415595433070866
11
5.2787707874015748
21
-5.417130196850394
0
LINE
8
BLACK
6
CONTINUOUS
10
5.2787707874015748
20
-5.417130196850394
11
5.2684733070866141
21
-5.417130196850394
0
LINE
8
BLACK
6
CONTINUOUS
10
5.2684733070866141
20
-5.417130196850394
11
5.2582908661417322
21
-5.415595433070866
0
LINE
8
BLACK
6
CONTINUOUS
10
5.2582908661417322
20
-5.415595433070866
11
5.2484509055118105
21
-5.4125601968503938
0
LINE
8
BLACK
6
CONTINUOUS
10
5.2484509055118105
20
-5.4125601968503938
11
5.2391732283464565
21
-5.4080922834645664
0
LINE
8
BLACK
6
CONTINUOUS
10
5.2391732283464565
20
-5.4080922834645664
11
5.2306650787401576
21
-5.4022915354330712
0
LINE
8
BLACK
6
CONTINUOUS
10
5.2306650787401576
20
-5.4022915354330712
11
5.2231164960629917
21
-5.3952874803149609
0
LINE
8
BLACK
6
CONTINUOUS
10
5.2231164960629917
20
-5.3952874803149609
11
5.2166961417322835
21
-5.3872366141732284
0
LINE
8
BLACK
6
CONTINUOUS
10
5.2166961417322835
20
-5.3872366141732284
11
5.2115474015748031
21
-5.3783187795275591
0
LINE
8
BLACK
6
CONTINUOUS
10
5.2115474015748031
20
-5.3783187795275591
11
5.2077853543307082
21
-5.3687331496062987
0
LINE
8
BLACK
6
CONTINUOUS
10
5.2077853543307082
20
-5.3687331496062987
11
5.2054939370078737
21
-5.3586938582677162
0
LINE
8
BLACK
6
CONTINUOUS
10
5.2054939370078737
20
-5.3586938582677162
11
5.2047244094488185
21
-5.3484251968503935
0
LINE
8
BLACK
6
CONTINUOUS
10
5.2047244094488185
20
-5.3484251968503935
11
5.2054939370078737
21
-5.3381565354330709
0
LINE
8
BLACK
6
CONTINUOUS
10
5.2054939370078737
20
-5.3381565354330709
11
5.2077853543307082
21
-5.3281172440944884
0
LINE
8
BLACK
6
CONTINUOUS
10
5.2077853543307082
20
-5.3281172440944884
11
5.2115474015748031
21
-5.318531614173228
0
LINE
8
BLACK
6
CONTINUOUS
10
5.2115474015748031
20
-5.318531614173228
11
5.2166961417322835
21
-5.3096137795275586
0
LINE
8
BLACK
6
CONTINUOUS
10
5.2166961417322835
20
-5.3096137795275586
11
5.2231164960629917
21
-5.3015629133858271
0
LINE
8
BLACK
6
CONTINUOUS
10
5.2231164960629917
20
-5.3015629133858271
11
5.2306650787401576
21
-5.2945588582677168
0
LINE
8
BLACK
6
CONTINUOUS
10
5.2306650787401576
20
-5.2945588582677168
11
5.2391732283464565
21
-5.2887581102362207
0
LINE
8
BLACK
6
CONTINUOUS
10
5.2391732283464565
20
-5.2887581102362207
11
5.2484509055118105
21
-5.2842901968503933
0
LINE
8
BLACK
6
CONTINUOUS
10
5.2484509055118105
20
-5.2842901968503933
11
5.2582908661417322
21
-5.2812549606299211
0
LINE
8
BLACK
6
CONTINUOUS
10
5.2582908661417322
20
-5.2812549606299211
11
5.2684733070866141
21
-5.279720196850394
0
LINE
8
BLACK
6
CONTINUOUS
10
5.2684733070866141
20
-5.279720196850394
11
5.2787707874015748
21
-5.279720196850394
0
LINE
8
BLACK
6
CONTINUOUS
10
5.2787707874015748
20
-5.279720196850394
11
5.2889532283464566
21
-5.2812549606299211
0
LINE
8
BLACK
6
CONTINUOUS
10
5.9251968503937009
20
-4.4724409448818898
11
5.8070866141732278
21
-4.4724409448818898
0
LINE
8
BLACK
6
CONTINUOUS
10
5.8070866141732278
20
-4.4724409448818898
11
5.8070866141732278
21
-4.3543307086614176
0
LINE
8
BLACK
6
CONTINUOUS
10
5.8070866141732278
20
-4.3543307086614176
11
5.9251968503937009
21
-4.3543307086614176
0
LINE
8
BLACK
6
CONTINUOUS
10
5.9251968503937009
20
-4.3543307086614176
11
5.9251968503937009
21
-4.4724409448818898
0
LINE
8
BLACK
6
CONTINUOUS
10
5.6050483464566927
20
-4.3561377952755906
11
5.6142733464566925
21
-4.3593047244094487
0
LINE
8
BLACK
6
CONTINUOUS
10
5.6142733464566925
20
-4.3593047244094487
11
5.6228512598425198
21
-4.3639468503937007
0
LINE
8
BLACK
6
CONTINUOUS
10
5.6228512598425198
20
-4.3639468503937007
11
5.6305481102362203
21
-4.3699375590551179
0
LINE
8
BLACK
6
CONTINUOUS
10
5.6305481102362203
20
-4.3699375590551179
11
5.6371539763779523
21
-4.3771134251968506
0
LINE
8
BLACK
6
CONTINUOUS
10
5.6371539763779523
20
-4.3771134251968506
11
5.6424886220472441
21
-4.3852787007874019
0
LINE
8
BLACK
6
CONTINUOUS
10
5.6424886220472441
20
-4.3852787007874019
11
5.646406535433071
21
-4.3942106692913381
0
LINE
8
BLACK
6
CONTINUOUS
10
5.646406535433071
20
-4.3942106692913381
11
5.6488008661417322
21
-4.4036656692913381
0
LINE
8
BLACK
6
CONTINUOUS
10
5.6488008661417322
20
-4.4036656692913381
11
5.6496062992125982
21
-4.4133858267716537
0
LINE
8
BLACK
6
CONTINUOUS
10
5.6496062992125982
20
-4.4133858267716537
11
5.6488008661417322
21
-4.4231059842519684
0
LINE
8
BLACK
6
CONTINUOUS
10
5.6488008661417322
20
-4.4231059842519684
11
5.646406535433071
21
-4.4325609842519684
0
LINE
8
BLACK
6
CONTINUOUS
10
5.646406535433071
20
-4.4325609842519684
11
5.6424886220472441
21
-4.4414929527559055
0
LINE
8
BLACK
6
CONTINUOUS
10
5.6424886220472441
20
-4.4414929527559055
11
5.6371539763779523
21
-4.4496582283464567
0
LINE
8
BLACK
6
CONTINUOUS
10
5.6371539763779523
20
-4.4496582283464567
11
5.6305481102362203
21
-4.4568340944881886
0
LINE
8
BLACK
6
CONTINUOUS
10
5.6305481102362203
20
-4.4568340944881886
11
5.6228512598425198
21
-4.4628248031496058
0
LINE
8
BLACK
6
CONTINUOUS
10
5.6228512598425198
20
-4.4628248031496058
11
5.6142733464566925
21
-4.4674669291338578
0
LINE
8
BLACK
6
CONTINUOUS
10
5.6142733464566925
20
-4.4674669291338578
11
5.6050483464566927
21
-4.4706338582677168
0
LINE
8
BLACK
6
CONTINUOUS
10
5.6050483464566927
20
-4.4706338582677168
11
5.5954279133858265
21
-4.4722392519685039
0
LINE
8
BLACK
6
CONTINUOUS
10
5.5954279133858265
20
-4.4722392519685039
11
5.5856744488188976
21
-4.4722392519685039
0
LINE
8
BLACK
6
CONTINUOUS
10
5.5856744488188976
20
-4.4722392519685039
11
5.5760540157480314
21
-4.4706338582677168
0
LINE
8
BLACK
6
CONTINUOUS
10
5.5760540157480314
20
-4.4706338582677168
11
5.5668290157480316
21
-4.4674669291338578
0
LINE
8
BLACK
6
CONTINUOUS
10
5.5668290157480316
20
-4.4674669291338578
11
5.5582511023622043
21
-4.4628248031496058
0
LINE
8
BLACK
6
CONTINUOUS
10
5.5582511023622043
20
-4.4628248031496058
11
5.5505542519685038
21
-4.4568340944881886
0
LINE
8
BLACK
6
CONTINUOUS
10
5.5505542519685038
20
-4.4568340944881886
11
5.5439483858267717
21
-4.4496582283464567
0
LINE
8
BLACK
6
CONTINUOUS
10
5.5439483858267717
20
-4.4496582283464567
11
5.53861374015748
21
-4.4414929527559055
0
LINE
8
BLACK
6
CONTINUOUS
10
5.53861374015748
20
-4.4414929527559055
11
5.5346958267716531
21
-4.4325609842519684
0
LINE
8
BLACK
6
CONTINUOUS
10
5.5346958267716531
20
-4.4325609842519684
11
5.5323014960629919
21
-4.4231059842519684
0
LINE
8
BLACK
6
CONTINUOUS
10
5.5323014960629919
20
-4.4231059842519684
11
5.5314960629921259
21
-4.4133858267716537
0
LINE
8
BLACK
6
CONTINUOUS
10
5.5314960629921259
20
-4.4133858267716537
11
5.5323014960629919
21
-4.4036656692913381
0
LINE
8
BLACK
6
CONTINUOUS
10
5.5323014960629919
20
-4.4036656692913381
11
5.5346958267716531
21
-4.3942106692913381
0
LINE
8
BLACK
6
CONTINUOUS
10
5.5346958267716531
20
-4.3942106692913381
11
5.53861374015748
21
-4.3852787007874019
0
LINE
8
BLACK
6
CONTINUOUS
10
5.53861374015748
20
-4.3852787007874019
11
5.5439483858267717
21
-4.3771134251968506
0
LINE
8
BLACK
6
CONTINUOUS
10
5.5439483858267717
20
-4.3771134251968506
11
5.5505542519685038
21
-4.3699375590551179
0
LINE
8
BLACK
6
CONTINUOUS
10
5.5505542519685038
20
-4.3699375590551179
11
5.5582511023622043
21
-4.3639468503937007
0
LINE
8
BLACK
6
CONTINUOUS
10
5.5582511023622043
20
-4.3639468503937007
11
5.5668290157480316
21
-4.3593047244094487
0
LINE
8
BLACK
6
CONTINUOUS
10
5.5668290157480316
20
-4.3593047244094487
11
5.5760540157480314
21
-4.3561377952755906
0
LINE
8
BLACK
6
CONTINUOUS
10
5.5760540157480314
20
-4.3561377952755906
11
5.5856744488188976
21
-4.3545324015748035
0
LINE
8
BLACK
6
CONTINUOUS
10
5.5856744488188976
20
-4.3545324015748035
11
5.5954279133858265
21
-4.3545324015748035
0
LINE
8
BLACK
6
CONTINUOUS
10
5.5954279133858265
20
-4.3545324015748035
11
5.6050483464566927
21
-4.3561377952755906
0
LINE
8
BLACK
6
CONTINUOUS
10
5.7428436220472436
20
-4.3561377952755906
11
5.7520686220472443
21
-4.3593047244094487
0
LINE
8
BLACK
6
CONTINUOUS
10
5.7520686220472443
20
-4.3593047244094487
11
5.7606465354330707
21
-4.3639468503937007
0
LINE
8
BLACK
6
CONTINUOUS
10
5.7606465354330707
20
-4.3639468503937007
11
5.7683433858267712
21
-4.3699375590551179
0
LINE
8
BLACK
6
CONTINUOUS
10
5.7683433858267712
20
-4.3699375590551179
11
5.7749492519685042
21
-4.3771134251968506
0
LINE
8
BLACK
6
CONTINUOUS
10
5.7749492519685042
20
-4.3771134251968506
11
5.780283897637795
21
-4.3852787007874019
0
LINE
8
BLACK
6
CONTINUOUS
10
5.780283897637795
20
-4.3852787007874019
11
5.784201811023622
21
-4.3942106692913381
0
LINE
8
BLACK
6
CONTINUOUS
10
5.784201811023622
20
-4.3942106692913381
11
5.7865961417322831
21
-4.4036656692913381
0
LINE
8
BLACK
6
CONTINUOUS
10
5.7865961417322831
20
-4.4036656692913381
11
5.7874015748031491
21
-4.4133858267716537
0
LINE
8
BLACK
6
CONTINUOUS
10
5.7874015748031491
20
-4.4133858267716537
11
5.7865961417322831
21
-4.4231059842519684
0
LINE
8
BLACK
6
CONTINUOUS
10
5.7865961417322831
20
-4.4231059842519684
11
5.784201811023622
21
-4.4325609842519684
0
LINE
8
BLACK
6
CONTINUOUS
10
5.784201811023622
20
-4.4325609842519684
11
5.780283897637795
21
-4.4414929527559055
0
LINE
8
BLACK
6
CONTINUOUS
10
5.780283897637795
20
-4.4414929527559055
11
5.7749492519685042
21
-4.4496582283464567
0
LINE
8
BLACK
6
CONTINUOUS
10
5.7749492519685042
20
-4.4496582283464567
11
5.7683433858267712
21
-4.4568340944881886
0
LINE
8
BLACK
6
CONTINUOUS
10
5.7683433858267712
20
-4.4568340944881886
11
5.7606465354330707
21
-4.4628248031496058
0
LINE
8
BLACK
6
CONTINUOUS
10
5.7606465354330707
20
-4.4628248031496058
11
5.7520686220472443
21
-4.4674669291338578
0
LINE
8
BLACK
6
CONTINUOUS
10
5.7520686220472443
20
-4.4674669291338578
11
5.7428436220472436
21
-4.4706338582677168
0
LINE
8
BLACK
6
CONTINUOUS
10
5.7428436220472436
20
-4.4706338582677168
11
5.7332231889763774
21
-4.4722392519685039
0
LINE
8
BLACK
6
CONTINUOUS
10
5.7332231889763774
20
-4.4722392519685039
11
5.7234697244094486
21
-4.4722392519685039
0
LINE
8
BLACK
6
CONTINUOUS
10
5.7234697244094486
20
-4.4722392519685039
11
5.7138492913385823
21
-4.4706338582677168
0
LINE
8
BLACK
6
CONTINUOUS
10
5.7138492913385823
20
-4.4706338582677168
11
5.7046242913385825
21
-4.4674669291338578
0
LINE
8
BLACK
6
CONTINUOUS
10
5.7046242913385825
20
-4.4674669291338578
11
5.6960463779527561
21
-4.4628248031496058
0
LINE
8
BLACK
6
CONTINUOUS
10
5.6960463779527561
20
-4.4628248031496058
11
5.6883495275590548
21
-4.4568340944881886
0
LINE
8
BLACK
6
CONTINUOUS
10
5.6883495275590548
20
-4.4568340944881886
11
5.6817436614173227
21
-4.4496582283464567
0
LINE
8
BLACK
6
CONTINUOUS
10
5.6817436614173227
20
-4.4496582283464567
11
5.6764090157480318
21
-4.4414929527559055
0
LINE
8
BLACK
6
CONTINUOUS
10
5.6764090157480318
20
-4.4414929527559055
11
5.6724911023622049
21
-4.4325609842519684
0
LINE
8
BLACK
6
CONTINUOUS
10
5.6724911023622049
20
-4.4325609842519684
11
5.6700967716535429
21
-4.4231059842519684
0
LINE
8
BLACK
6
CONTINUOUS
10
5.6700967716535429
20
-4.4231059842519684
11
5.6692913385826769
21
-4.4133858267716537
0
LINE
8
BLACK
6
CONTINUOUS
10
5.6692913385826769
20
-4.4133858267716537
11
5.6700967716535429
21
-4.4036656692913381
0
LINE
8
BLACK
6
CONTINUOUS
10
5.6700967716535429
20
-4.4036656692913381
11
5.6724911023622049
21
-4.3942106692913381
0
LINE
8
BLACK
6
CONTINUOUS
10
5.6724911023622049
20
-4.3942106692913381
11
5.6764090157480318
21
-4.3852787007874019
0
LINE
8
BLACK
6
CONTINUOUS
10
5.6764090157480318
20
-4.3852787007874019
11
5.6817436614173227
21
-4.3771134251968506
0
LINE
8
BLACK
6
CONTINUOUS
10
5.6817436614173227
20
-4.3771134251968506
11
5.6883495275590548
21
-4.3699375590551179
0
LINE
8
BLACK
6
CONTINUOUS
10
5.6883495275590548
20
-4.3699375590551179
11
5.6960463779527561
21
-4.3639468503937007
0
LINE
8
BLACK
6
CONTINUOUS
10
5.6960463779527561
20
-4.3639468503937007
11
5.7046242913385825
21
-4.3593047244094487
0
LINE
8
BLACK
6
CONTINUOUS
10
5.7046242913385825
20
-4.3593047244094487
11
5.7138492913385823
21
-4.3561377952755906
0
LINE
8
BLACK
6
CONTINUOUS
10
5.7138492913385823
20
-4.3561377952755906
11
5.7234697244094486
21
-4.3545324015748035
0
LINE
8
BLACK
6
CONTINUOUS
10
5.7234697244094486
20
-4.3545324015748035
11
5.7332231889763774
21
-4.3545324015748035
0
LINE
8
BLACK
6
CONTINUOUS
10
5.7332231889763774
20
-4.3545324015748035
11
5.7428436220472436
21
-4.3561377952755906
0
LINE
8
BLACK
6
CONTINUOUS
10
5.4822135039370075
20
-4.1907672834645666
11
5.4880962598425196
21
-4.1938547637795276
0
LINE
8
BLACK
6
CONTINUOUS
10
5.4880962598425196
20
-4.1938547637795276
11
5.4930692125984253
21
-4.198260393700787
0
LINE
8
BLACK
6
CONTINUOUS
10
5.4930692125984253
20
-4.198260393700787
11
5.4968432677165353
21
-4.2037281102362201
0
LINE
8
BLACK
6
CONTINUOUS
10
5.4968432677165353
20
-4.2037281102362201
11
5.4991991732283463
21
-4.2099401181102358
0
LINE
8
BLACK
6
CONTINUOUS
10
5.4991991732283463
20
-4.2099401181102358
11
5.5
21
-4.2165354330708658
0
LINE
8
BLACK
6
CONTINUOUS
10
5.5
20
-4.2165354330708658
11
5.4991991732283463
21
-4.2231307480314957
0
LINE
8
BLACK
6
CONTINUOUS
10
5.4991991732283463
20
-4.2231307480314957
11
5.4968432677165353
21
-4.2293427559055115
0
LINE
8
BLACK
6
CONTINUOUS
10
5.4968432677165353
20
-4.2293427559055115
11
5.4930692125984253
21
-4.2348104724409446
0
LINE
8
BLACK
6
CONTINUOUS
10
5.4930692125984253
20
-4.2348104724409446
11
5.4880962598425196
21
-4.2392161023622048
0
LINE
8
BLACK
6
CONTINUOUS
10
5.4880962598425196
20
-4.2392161023622048
11
5.4822135039370075
21
-4.2423035826771649
0
LINE
8
BLACK
6
CONTINUOUS
10
5.4822135039370075
20
-4.2423035826771649
11
5.4757628346456695
21
-4.2438935433070863
0
LINE
8
BLACK
6
CONTINUOUS
10
5.4757628346456695
20
-4.2438935433070863
11
5.4691190551181101
21
-4.2438935433070863
0
LINE
8
BLACK
6
CONTINUOUS
10
5.4691190551181101
20
-4.2438935433070863
11
5.4626683858267713
21
-4.2423035826771649
0
LINE
8
BLACK
6
CONTINUOUS
10
5.4626683858267713
20
-4.2423035826771649
11
5.45678562992126
21
-4.2392161023622048
0
LINE
8
BLACK
6
CONTINUOUS
10
5.45678562992126
20
-4.2392161023622048
11
5.4518126771653543
21
-4.2348104724409446
0
LINE
8
BLACK
6
CONTINUOUS
10
5.4518126771653543
20
-4.2348104724409446
11
5.4480386220472443
21
-4.2293427559055115
0
LINE
8
BLACK
6
CONTINUOUS
10
5.4480386220472443
20
-4.2293427559055115
11
5.4456827165354333
21
-4.2231307480314957
0
LINE
8
BLACK
6
CONTINUOUS
10
5.4456827165354333
20
-4.2231307480314957
11
5.4448818897637796
21
-4.2165354330708658
0
LINE
8
BLACK
6
CONTINUOUS
10
5.4448818897637796
20
-4.2165354330708658
11
5.4456827165354333
21
-4.2099401181102358
0
LINE
8
BLACK
6
CONTINUOUS
10
5.4456827165354333
20
-4.2099401181102358
11
5.4480386220472443
21
-4.2037281102362201
0
LINE
8
BLACK
6
CONTINUOUS
10
5.4480386220472443
20
-4.2037281102362201
11
5.4518126771653543
21
-4.198260393700787
0
LINE
8
BLACK
6
CONTINUOUS
10
5.4518126771653543
20
-4.198260393700787
11
5.45678562992126
21
-4.1938547637795276
0
LINE
8
BLACK
6
CONTINUOUS
10
5.45678562992126
20
-4.1938547637795276
11
5.4626683858267713
21
-4.1907672834645666
0
LINE
8
BLACK
6
CONTINUOUS
10
5.4626683858267713
20
-4.1907672834645666
11
5.4691190551181101
21
-4.1891773228346452
0
LINE
8
BLACK
6
CONTINUOUS
10
5.4691190551181101
20
-4.1891773228346452
11
5.4757628346456695
21
-4.1891773228346452
0
LINE
8
BLACK
6
CONTINUOUS
10
5.4757628346456695
20
-4.1891773228346452
11
5.4822135039370075
21
-4.1907672834645666
0
LINE
8
BLACK
6
CONTINUOUS
10
5.9940245275590547
20
-4.1907672834645666
11
5.9999072834645668
21
-4.1938547637795276
0
LINE
8
BLACK
6
CONTINUOUS
10
5.9999072834645668
20
-4.1938547637795276
11
6.0048802362204725
21
-4.198260393700787
0
LINE
8
BLACK
6
CONTINUOUS
10
6.0048802362204725
20
-4.198260393700787
11
6.0086542913385825
21
-4.2037281102362201
0
LINE
8
BLACK
6
CONTINUOUS
10
6.0086542913385825
20
-4.2037281102362201
11
6.0110101968503935
21
-4.2099401181102358
0
LINE
8
BLACK
6
CONTINUOUS
10
6.0110101968503935
20
-4.2099401181102358
11
6.0118110236220472
21
-4.2165354330708658
0
LINE
8
BLACK
6
CONTINUOUS
10
6.0118110236220472
20
-4.2165354330708658
11
6.0110101968503935
21
-4.2231307480314957
0
LINE
8
BLACK
6
CONTINUOUS
10
6.0110101968503935
20
-4.2231307480314957
11
6.0086542913385825
21
-4.2293427559055115
0
LINE
8
BLACK
6
CONTINUOUS
10
6.0086542913385825
20
-4.2293427559055115
11
6.0048802362204725
21
-4.2348104724409446
0
LINE
8
BLACK
6
CONTINUOUS
10
6.0048802362204725
20
-4.2348104724409446
11
5.9999072834645668
21
-4.2392161023622048
0
LINE
8
BLACK
6
CONTINUOUS
10
5.9999072834645668
20
-4.2392161023622048
11
5.9940245275590547
21
-4.2423035826771649
0
LINE
8
BLACK
6
CONTINUOUS
10
5.9940245275590547
20
-4.2423035826771649
11
5.9875738582677167
21
-4.2438935433070863
0
LINE
8
BLACK
6
CONTINUOUS
10
5.9875738582677167
20
-4.2438935433070863
11
5.9809300787401574
21
-4.2438935433070863
0
LINE
8
BLACK
6
CONTINUOUS
10
5.9809300787401574
20
-4.2438935433070863
11
5.9744794094488185
21
-4.2423035826771649
0
LINE
8
BLACK
6
CONTINUOUS
10
5.9744794094488185
20
-4.2423035826771649
11
5.9685966535433073
21
-4.2392161023622048
0
LINE
8
BLACK
6
CONTINUOUS
10
5.9685966535433073
20
-4.2392161023622048
11
5.9636237007874016
21
-4.2348104724409446
0
LINE
8
BLACK
6
CONTINUOUS
10
5.9636237007874016
20
-4.2348104724409446
11
5.9598496456692915
21
-4.2293427559055115
0
LINE
8
BLACK
6
CONTINUOUS
10
5.9598496456692915
20
-4.2293427559055115
11
5.9574937401574806
21
-4.2231307480314957
0
LINE
8
BLACK
6
CONTINUOUS
10
5.9574937401574806
20
-4.2231307480314957
11
5.9566929133858268
21
-4.2165354330708658
0
LINE
8
BLACK
6
CONTINUOUS
10
5.9566929133858268
20
-4.2165354330708658
11
5.9574937401574806
21
-4.2099401181102358
0
LINE
8
BLACK
6
CONTINUOUS
10
5.9574937401574806
20
-4.2099401181102358
11
5.9598496456692915
21
-4.2037281102362201
0
LINE
8
BLACK
6
CONTINUOUS
10
5.9598496456692915
20
-4.2037281102362201
11
5.9636237007874016
21
-4.198260393700787
0
LINE
8
BLACK
6
CONTINUOUS
10
5.9636237007874016
20
-4.198260393700787
11
5.9685966535433073
21
-4.1938547637795276
0
LINE
8
BLACK
6
CONTINUOUS
10
5.9685966535433073
20
-4.1938547637795276
11
5.9744794094488185
21
-4.1907672834645666
0
LINE
8
BLACK
6
CONTINUOUS
10
5.9744794094488185
20
-4.1907672834645666
11
5.9809300787401574
21
-4.1891773228346452
0
LINE
8
BLACK
6
CONTINUOUS
10
5.9809300787401574
20
-4.1891773228346452
11
5.9875738582677167
21
-4.1891773228346452
0
LINE
8
BLACK
6
CONTINUOUS
10
5.9875738582677167
20
-4.1891773228346452
11
5.9940245275590547
21
-4.1907672834645666
  0
ENDSEC
  0
EOF
