  0
SECTION
  2
HEADER
  9
$ANGBASE
  50
0.0
  9
$ANGDIR
  70
1
  9
$MEASUREMENT
  70
0
  0
ENDSEC
  0
SECTION
  2
TABLES
  0
TABLE
  2
LTYPE
  70
4
  0
LTYPE
  5
40F
  2
CONTINUOUS
  70
0
  3
Solid line
  72
65
  73
0
  40
0.0
  0
LTYPE
  5
410
  2
DASHDOT
 70
0
  3
Dash Dot ____ _ ____ _
 72
65
 73
4
 40
2.0
 49
1.25
 49
-0.25
 49
0.25
 49
-0.25
  0
LTYPE
  5
411
  2
DASHED
 70
0
  3
Dashed __ __ __ __ __
 72
65
 73
2
 40
0.75
 49
0.5
 49
-0.25
  0
LTYPE
  5
43B
  2
DOTTED
 70
0
  3
Dotted .  .  .  .
 72
65
 73
2
 40
0.2
 49
0.0
 49
-0.2
  0
ENDTAB
  0
TABLE
  2
STYLE
  70
4
  0
STYLE
  2
KICAD
  70
0
  40
0
  41
1
  42
1
  50
0
  71
0
  3
isocp.shx
  0
STYLE
  2
KICADB
  70
0
  40
0
  41
1
  42
1
  50
0
  71
0
  3
isocp.shx
  0
STYLE
  2
KICADI
  70
0
  40
0
  41
1
  42
1
  50
15
  71
0
  3
isocp.shx
  0
STYLE
  2
KICADBI
  70
0
  40
0
  41
1
  42
1
  50
15
  71
0
  3
isocp.shx
  0
ENDTAB
  0
TABLE
  2
LAYER
  70
1
  0
LAYER
  2
BLACK
  70
0
  62
7
  6
CONTINUOUS
  0
ENDTAB
  0
ENDSEC
  0
SECTION
  2
ENTITIES
0
LINE
8
BLACK
6
CONTINUOUS
10
6.0641561811023621
20
-5.6329489370078738
11
6.0646888582677168
21
-5.6334816141732285
0
LINE
8
BLACK
6
CONTINUOUS
10
6.0646888582677168
20
-5.6334816141732285
11
6.0647637795275591
21
-5.8858267716535435
0
LINE
8
BLACK
6
CONTINUOUS
10
6.0647637795275591
20
-5.8858267716535435
11
6.0646888582677168
21
-5.8862034251968502
0
LINE
8
BLACK
6
CONTINUOUS
10
6.0646888582677168
20
-5.8862034251968502
11
6.0641561811023621
21
-5.8867361023622049
0
LINE
8
BLACK
6
CONTINUOUS
10
6.0641561811023621
20
-5.8867361023622049
11
5.4952755905511808
21
-5.8868110236220472
0
LINE
8
BLACK
6
CONTINUOUS
10
5.4952755905511808
20
-5.8868110236220472
11
5.494898937007874
21
-5.8867361023622049
0
LINE
8
BLACK
6
CONTINUOUS
10
5.494898937007874
20
-5.8867361023622049
11
5.4943662598425194
21
-5.8862034251968502
0
LINE
8
BLACK
6
CONTINUOUS
10
5.4943662598425194
20
-5.8862034251968502
11
5.494291338582677
21
-5.6338582677165352
0
LINE
8
BLACK
6
CONTINUOUS
10
5.494291338582677
20
-5.6338582677165352
11
5.4943662598425194
21
-5.6334816141732285
0
LINE
8
BLACK
6
CONTINUOUS
10
5.4943662598425194
20
-5.6334816141732285
11
5.494898937007874
21
-5.6329489370078738
0
LINE
8
BLACK
6
CONTINUOUS
10
5.494898937007874
20
-5.6329489370078738
11
6.0637795275590554
21
-5.6328740157480315
0
LINE
8
BLACK
6
CONTINUOUS
10
6.0637795275590554
20
-5.6328740157480315
11
6.0641561811023621
21
-5.6329489370078738
0
LINE
8
BLACK
6
CONTINUOUS
10
5.4961853149606297
20
-5.6348423622047239
11
5.4962595669291341
21
-5.8849172440944884
0
LINE
8
BLACK
6
CONTINUOUS
10
5.4962595669291341
20
-5.8849172440944884
11
6.0628697637795277
21
-5.8848426377952752
0
LINE
8
BLACK
6
CONTINUOUS
10
6.0628697637795277
20
-5.8848426377952752
11
6.0627955118110233
21
-5.6347677559055116
0
LINE
8
BLACK
6
CONTINUOUS
10
6.0627955118110233
20
-5.6347677559055116
11
5.4961853149606297
21
-5.6348423622047239
0
LINE
8
BLACK
6
CONTINUOUS
10
6.2535262598425199
20
-5.7321615354330708
11
6.2540589370078736
21
-5.7326942125984255
0
LINE
8
BLACK
6
CONTINUOUS
10
6.2540589370078736
20
-5.7326942125984255
11
6.254133858267716
21
-5.8496062992125983
0
LINE
8
BLACK
6
CONTINUOUS
10
6.254133858267716
20
-5.8496062992125983
11
6.2540589370078736
21
-5.8499829527559051
0
LINE
8
BLACK
6
CONTINUOUS
10
6.2540589370078736
20
-5.8499829527559051
11
6.2535262598425199
21
-5.8505156299212597
0
LINE
8
BLACK
6
CONTINUOUS
10
6.2535262598425199
20
-5.8505156299212597
11
6.1956692913385822
21
-5.8505905511811021
0
LINE
8
BLACK
6
CONTINUOUS
10
6.1956692913385822
20
-5.8505905511811021
11
6.1952926377952755
21
-5.8505156299212597
0
LINE
8
BLACK
6
CONTINUOUS
10
6.1952926377952755
20
-5.8505156299212597
11
6.1947599606299208
21
-5.8499829527559051
0
LINE
8
BLACK
6
CONTINUOUS
10
6.1947599606299208
20
-5.8499829527559051
11
6.1946850393700785
21
-5.7330708661417322
0
LINE
8
BLACK
6
CONTINUOUS
10
6.1946850393700785
20
-5.7330708661417322
11
6.1947599606299208
21
-5.7326942125984255
0
LINE
8
BLACK
6
CONTINUOUS
10
6.1947599606299208
20
-5.7326942125984255
11
6.1952926377952755
21
-5.7321615354330708
0
LINE
8
BLACK
6
CONTINUOUS
10
6.1952926377952755
20
-5.7321615354330708
11
6.2531496062992122
21
-5.7320866141732285
0
LINE
8
BLACK
6
CONTINUOUS
10
6.2531496062992122
20
-5.7320866141732285
11
6.2535262598425199
21
-5.7321615354330708
0
LINE
8
BLACK
6
CONTINUOUS
10
6.1965794881889762
20
-5.7340539370078742
11
6.1966529527559056
21
-5.848695196850394
0
LINE
8
BLACK
6
CONTINUOUS
10
6.1966529527559056
20
-5.848695196850394
11
6.2522393700787404
21
-5.8486231889763776
0
LINE
8
BLACK
6
CONTINUOUS
10
6.2522393700787404
20
-5.8486231889763776
11
6.2521659055118111
21
-5.7339819291338578
0
LINE
8
BLACK
6
CONTINUOUS
10
6.2521659055118111
20
-5.7339819291338578
11
6.1965794881889762
21
-5.7340539370078742
0
LINE
8
BLACK
6
CONTINUOUS
10
6.3655997244094484
20
-5.7321615354330708
11
6.3661324015748031
21
-5.7326942125984255
0
LINE
8
BLACK
6
CONTINUOUS
10
6.3661324015748031
20
-5.7326942125984255
11
6.3662073228346454
21
-5.8496062992125983
0
LINE
8
BLACK
6
CONTINUOUS
10
6.3662073228346454
20
-5.8496062992125983
11
6.3661324015748031
21
-5.8499829527559051
0
LINE
8
BLACK
6
CONTINUOUS
10
6.3661324015748031
20
-5.8499829527559051
11
6.3655997244094484
21
-5.8505156299212597
0
LINE
8
BLACK
6
CONTINUOUS
10
6.3655997244094484
20
-5.8505156299212597
11
6.3077427559055117
21
-5.8505905511811021
0
LINE
8
BLACK
6
CONTINUOUS
10
6.3077427559055117
20
-5.8505905511811021
11
6.307366102362205
21
-5.8505156299212597
0
LINE
8
BLACK
6
CONTINUOUS
10
6.307366102362205
20
-5.8505156299212597
11
6.3068334251968503
21
-5.8499829527559051
0
LINE
8
BLACK
6
CONTINUOUS
10
6.3068334251968503
20
-5.8499829527559051
11
6.306758503937008
21
-5.7330708661417322
0
LINE
8
BLACK
6
CONTINUOUS
10
6.306758503937008
20
-5.7330708661417322
11
6.3068334251968503
21
-5.7326942125984255
0
LINE
8
BLACK
6
CONTINUOUS
10
6.3068334251968503
20
-5.7326942125984255
11
6.307366102362205
21
-5.7321615354330708
0
LINE
8
BLACK
6
CONTINUOUS
10
6.307366102362205
20
-5.7321615354330708
11
6.3652230708661417
21
-5.7320866141732285
0
LINE
8
BLACK
6
CONTINUOUS
10
6.3652230708661417
20
-5.7320866141732285
11
6.3655997244094484
21
-5.7321615354330708
0
LINE
8
BLACK
6
CONTINUOUS
10
6.3086529527559057
20
-5.7340539370078742
11
6.3087264173228341
21
-5.848695196850394
0
LINE
8
BLACK
6
CONTINUOUS
10
6.3087264173228341
20
-5.848695196850394
11
6.364312834645669
21
-5.8486231889763776
0
LINE
8
BLACK
6
CONTINUOUS
10
6.364312834645669
20
-5.8486231889763776
11
6.3642393700787396
21
-5.7339819291338578
0
LINE
8
BLACK
6
CONTINUOUS
10
6.3642393700787396
20
-5.7339819291338578
11
6.3086529527559057
21
-5.7340539370078742
0
LINE
8
BLACK
6
CONTINUOUS
10
6.4650747637795272
20
-5.7321615354330708
11
6.4656074409448818
21
-5.7326942125984255
0
LINE
8
BLACK
6
CONTINUOUS
10
6.4656074409448818
20
-5.7326942125984255
11
6.4656823622047241
21
-5.8496062992125983
0
LINE
8
BLACK
6
CONTINUOUS
10
6.4656823622047241
20
-5.8496062992125983
11
6.4656074409448818
21
-5.8499829527559051
0
LINE
8
BLACK
6
CONTINUOUS
10
6.4656074409448818
20
-5.8499829527559051
11
6.4650747637795272
21
-5.8505156299212597
0
LINE
8
BLACK
6
CONTINUOUS
10
6.4650747637795272
20
-5.8505156299212597
11
6.4072177952755904
21
-5.8505905511811021
0
LINE
8
BLACK
6
CONTINUOUS
10
6.4072177952755904
20
-5.8505905511811021
11
6.4068411417322837
21
-5.8505156299212597
0
LINE
8
BLACK
6
CONTINUOUS
10
6.4068411417322837
20
-5.8505156299212597
11
6.406308464566929
21
-5.8499829527559051
0
LINE
8
BLACK
6
CONTINUOUS
10
6.406308464566929
20
-5.8499829527559051
11
6.4062335433070867
21
-5.7330708661417322
0
LINE
8
BLACK
6
CONTINUOUS
10
6.4062335433070867
20
-5.7330708661417322
11
6.406308464566929
21
-5.7326942125984255
0
LINE
8
BLACK
6
CONTINUOUS
10
6.406308464566929
20
-5.7326942125984255
11
6.4068411417322837
21
-5.7321615354330708
0
LINE
8
BLACK
6
CONTINUOUS
10
6.4068411417322837
20
-5.7321615354330708
11
6.4646981102362204
21
-5.7320866141732285
0
LINE
8
BLACK
6
CONTINUOUS
10
6.4646981102362204
20
-5.7320866141732285
11
6.4650747637795272
21
-5.7321615354330708
0
LINE
8
BLACK
6
CONTINUOUS
10
6.4081279921259844
20
-5.7340539370078742
11
6.4082014566929129
21
-5.848695196850394
0
LINE
8
BLACK
6
CONTINUOUS
10
6.4082014566929129
20
-5.848695196850394
11
6.4637878740157477
21
-5.8486231889763776
0
LINE
8
BLACK
6
CONTINUOUS
10
6.4637878740157477
20
-5.8486231889763776
11
6.4637144094488184
21
-5.7339819291338578
0
LINE
8
BLACK
6
CONTINUOUS
10
6.4637144094488184
20
-5.7339819291338578
11
6.4081279921259844
21
-5.7340539370078742
0
LINE
8
BLACK
6
CONTINUOUS
10
6.5645498818897634
20
-5.7321615354330708
11
6.5650825590551181
21
-5.7326942125984255
0
LINE
8
BLACK
6
CONTINUOUS
10
6.5650825590551181
20
-5.7326942125984255
11
6.5651574803149604
21
-5.8496062992125983
0
LINE
8
BLACK
6
CONTINUOUS
10
6.5651574803149604
20
-5.8496062992125983
11
6.5650825590551181
21
-5.8499829527559051
0
LINE
8
BLACK
6
CONTINUOUS
10
6.5650825590551181
20
-5.8499829527559051
11
6.5645498818897634
21
-5.8505156299212597
0
LINE
8
BLACK
6
CONTINUOUS
10
6.5645498818897634
20
-5.8505156299212597
11
6.5066929133858267
21
-5.8505905511811021
0
LINE
8
BLACK
6
CONTINUOUS
10
6.5066929133858267
20
-5.8505905511811021
11
6.5063162598425199
21
-5.8505156299212597
0
LINE
8
BLACK
6
CONTINUOUS
10
6.5063162598425199
20
-5.8505156299212597
11
6.5057835826771653
21
-5.8499829527559051
0
LINE
8
BLACK
6
CONTINUOUS
10
6.5057835826771653
20
-5.8499829527559051
11
6.505708661417323
21
-5.7330708661417322
0
LINE
8
BLACK
6
CONTINUOUS
10
6.505708661417323
20
-5.7330708661417322
11
6.5057835826771653
21
-5.7326942125984255
0
LINE
8
BLACK
6
CONTINUOUS
10
6.5057835826771653
20
-5.7326942125984255
11
6.5063162598425199
21
-5.7321615354330708
0
LINE
8
BLACK
6
CONTINUOUS
10
6.5063162598425199
20
-5.7321615354330708
11
6.5641732283464567
21
-5.7320866141732285
0
LINE
8
BLACK
6
CONTINUOUS
10
6.5641732283464567
20
-5.7320866141732285
11
6.5645498818897634
21
-5.7321615354330708
0
LINE
8
BLACK
6
CONTINUOUS
10
6.5076031102362206
20
-5.7340539370078742
11
6.5076765748031491
21
-5.848695196850394
0
LINE
8
BLACK
6
CONTINUOUS
10
6.5076765748031491
20
-5.848695196850394
11
6.563262992125984
21
-5.8486231889763776
0
LINE
8
BLACK
6
CONTINUOUS
10
6.563262992125984
20
-5.8486231889763776
11
6.5631895275590546
21
-5.7339819291338578
0
LINE
8
BLACK
6
CONTINUOUS
10
6.5631895275590546
20
-5.7339819291338578
11
6.5076031102362206
21
-5.7340539370078742
0
LINE
8
BLACK
6
CONTINUOUS
10
5.4513609055118106
20
-5.7705473622047245
11
5.4518935826771653
21
-5.7710800393700783
0
LINE
8
BLACK
6
CONTINUOUS
10
5.4518935826771653
20
-5.7710800393700783
11
5.4519685039370076
21
-5.8289370078740159
0
LINE
8
BLACK
6
CONTINUOUS
10
5.4519685039370076
20
-5.8289370078740159
11
5.4518935826771653
21
-5.8293136614173227
0
LINE
8
BLACK
6
CONTINUOUS
10
5.4518935826771653
20
-5.8293136614173227
11
5.4513609055118106
21
-5.8298463385826773
0
LINE
8
BLACK
6
CONTINUOUS
10
5.4513609055118106
20
-5.8298463385826773
11
5.3344488188976378
21
-5.8299212598425196
0
LINE
8
BLACK
6
CONTINUOUS
10
5.3344488188976378
20
-5.8299212598425196
11
5.3340721653543302
21
-5.8298463385826773
0
LINE
8
BLACK
6
CONTINUOUS
10
5.3340721653543302
20
-5.8298463385826773
11
5.3335394881889764
21
-5.8293136614173227
0
LINE
8
BLACK
6
CONTINUOUS
10
5.3335394881889764
20
-5.8293136614173227
11
5.3334645669291341
21
-5.7714566929133859
0
LINE
8
BLACK
6
CONTINUOUS
10
5.3334645669291341
20
-5.7714566929133859
11
5.3335394881889764
21
-5.7710800393700783
0
LINE
8
BLACK
6
CONTINUOUS
10
5.3335394881889764
20
-5.7710800393700783
11
5.3340721653543302
21
-5.7705473622047245
0
LINE
8
BLACK
6
CONTINUOUS
10
5.3340721653543302
20
-5.7705473622047245
11
5.4509842519685039
21
-5.7704724409448813
0
LINE
8
BLACK
6
CONTINUOUS
10
5.4509842519685039
20
-5.7704724409448813
11
5.4513609055118106
21
-5.7705473622047245
0
LINE
8
BLACK
6
CONTINUOUS
10
5.3353598818897634
20
-5.7724403543307083
11
5.3354318897637798
21
-5.8280267716535432
0
LINE
8
BLACK
6
CONTINUOUS
10
5.3354318897637798
20
-5.8280267716535432
11
5.4500731496062995
21
-5.8279533070866139
0
LINE
8
BLACK
6
CONTINUOUS
10
5.4500731496062995
20
-5.8279533070866139
11
5.4500011417322831
21
-5.772366889763779
0
LINE
8
BLACK
6
CONTINUOUS
10
5.4500011417322831
20
-5.772366889763779
11
5.3353598818897634
21
-5.7724403543307083
0
LINE
8
BLACK
6
CONTINUOUS
10
5.4513609055118106
20
-5.7075552362204727
11
5.4518935826771653
21
-5.7080879133858264
0
LINE
8
BLACK
6
CONTINUOUS
10
5.4518935826771653
20
-5.7080879133858264
11
5.4519685039370076
21
-5.7659448818897641
0
LINE
8
BLACK
6
CONTINUOUS
10
5.4519685039370076
20
-5.7659448818897641
11
5.4518935826771653
21
-5.7663215354330708
0
LINE
8
BLACK
6
CONTINUOUS
10
5.4518935826771653
20
-5.7663215354330708
11
5.4513609055118106
21
-5.7668542125984255
0
LINE
8
BLACK
6
CONTINUOUS
10
5.4513609055118106
20
-5.7668542125984255
11
5.3344488188976378
21
-5.7669291338582678
0
LINE
8
BLACK
6
CONTINUOUS
10
5.3344488188976378
20
-5.7669291338582678
11
5.3340721653543302
21
-5.7668542125984255
0
LINE
8
BLACK
6
CONTINUOUS
10
5.3340721653543302
20
-5.7668542125984255
11
5.3335394881889764
21
-5.7663215354330708
0
LINE
8
BLACK
6
CONTINUOUS
10
5.3335394881889764
20
-5.7663215354330708
11
5.3334645669291341
21
-5.7084645669291341
0
LINE
8
BLACK
6
CONTINUOUS
10
5.3334645669291341
20
-5.7084645669291341
11
5.3335394881889764
21
-5.7080879133858264
0
LINE
8
BLACK
6
CONTINUOUS
10
5.3335394881889764
20
-5.7080879133858264
11
5.3340721653543302
21
-5.7075552362204727
0
LINE
8
BLACK
6
CONTINUOUS
10
5.3340721653543302
20
-5.7075552362204727
11
5.4509842519685039
21
-5.7074803149606295
0
LINE
8
BLACK
6
CONTINUOUS
10
5.4509842519685039
20
-5.7074803149606295
11
5.4513609055118106
21
-5.7075552362204727
0
LINE
8
BLACK
6
CONTINUOUS
10
5.3353598818897634
20
-5.7094482283464565
11
5.3354318897637798
21
-5.7650346456692914
0
LINE
8
BLACK
6
CONTINUOUS
10
5.3354318897637798
20
-5.7650346456692914
11
5.4500731496062995
21
-5.764961181102362
0
LINE
8
BLACK
6
CONTINUOUS
10
5.4500731496062995
20
-5.764961181102362
11
5.4500011417322831
21
-5.7093747637795271
0
LINE
8
BLACK
6
CONTINUOUS
10
5.4500011417322831
20
-5.7093747637795271
11
5.3353598818897634
21
-5.7094482283464565
0
LINE
8
BLACK
6
CONTINUOUS
10
6.5645498818897634
20
-5.613067047244094
11
6.5650825590551181
21
-5.6135997244094487
0
LINE
8
BLACK
6
CONTINUOUS
10
6.5650825590551181
20
-5.6135997244094487
11
6.5651574803149604
21
-5.7305118110236215
0
LINE
8
BLACK
6
CONTINUOUS
10
6.5651574803149604
20
-5.7305118110236215
11
6.5650825590551181
21
-5.7308884645669291
0
LINE
8
BLACK
6
CONTINUOUS
10
6.5650825590551181
20
-5.7308884645669291
11
6.5645498818897634
21
-5.7314211417322829
0
LINE
8
BLACK
6
CONTINUOUS
10
6.5645498818897634
20
-5.7314211417322829
11
6.5066929133858267
21
-5.7314960629921261
0
LINE
8
BLACK
6
CONTINUOUS
10
6.5066929133858267
20
-5.7314960629921261
11
6.5063162598425199
21
-5.7314211417322829
0
LINE
8
BLACK
6
CONTINUOUS
10
6.5063162598425199
20
-5.7314211417322829
11
6.5057835826771653
21
-5.7308884645669291
0
LINE
8
BLACK
6
CONTINUOUS
10
6.5057835826771653
20
-5.7308884645669291
11
6.505708661417323
21
-5.6139763779527554
0
LINE
8
BLACK
6
CONTINUOUS
10
6.505708661417323
20
-5.6139763779527554
11
6.5057835826771653
21
-5.6135997244094487
0
LINE
8
BLACK
6
CONTINUOUS
10
6.5057835826771653
20
-5.6135997244094487
11
6.5063162598425199
21
-5.613067047244094
0
LINE
8
BLACK
6
CONTINUOUS
10
6.5063162598425199
20
-5.613067047244094
11
6.5641732283464567
21
-5.6129921259842517
0
LINE
8
BLACK
6
CONTINUOUS
10
6.5641732283464567
20
-5.6129921259842517
11
6.5645498818897634
21
-5.613067047244094
0
LINE
8
BLACK
6
CONTINUOUS
10
6.5076031102362206
20
-5.6149594488188974
11
6.5076765748031491
21
-5.7296007086614171
0
LINE
8
BLACK
6
CONTINUOUS
10
6.5076765748031491
20
-5.7296007086614171
11
6.563262992125984
21
-5.7295287007874016
0
LINE
8
BLACK
6
CONTINUOUS
10
6.563262992125984
20
-5.7295287007874016
11
6.5631895275590546
21
-5.6148874409448819
0
LINE
8
BLACK
6
CONTINUOUS
10
6.5631895275590546
20
-5.6148874409448819
11
6.5076031102362206
21
-5.6149594488188974
0
LINE
8
BLACK
6
CONTINUOUS
10
6.1432900393700782
20
-5.6101142913385829
11
6.1438227165354329
21
-5.6106469685039366
0
LINE
8
BLACK
6
CONTINUOUS
10
6.1438227165354329
20
-5.6106469685039366
11
6.1438976377952752
21
-5.7275590551181104
0
LINE
8
BLACK
6
CONTINUOUS
10
6.1438976377952752
20
-5.7275590551181104
11
6.1438227165354329
21
-5.7279357086614171
0
LINE
8
BLACK
6
CONTINUOUS
10
6.1438227165354329
20
-5.7279357086614171
11
6.1432900393700782
21
-5.7284683858267718
0
LINE
8
BLACK
6
CONTINUOUS
10
6.1432900393700782
20
-5.7284683858267718
11
6.0854330708661415
21
-5.7285433070866141
0
LINE
8
BLACK
6
CONTINUOUS
10
6.0854330708661415
20
-5.7285433070866141
11
6.0850564173228348
21
-5.7284683858267718
0
LINE
8
BLACK
6
CONTINUOUS
10
6.0850564173228348
20
-5.7284683858267718
11
6.0845237401574801
21
-5.7279357086614171
0
LINE
8
BLACK
6
CONTINUOUS
10
6.0845237401574801
20
-5.7279357086614171
11
6.0844488188976378
21
-5.6110236220472443
0
LINE
8
BLACK
6
CONTINUOUS
10
6.0844488188976378
20
-5.6110236220472443
11
6.0845237401574801
21
-5.6106469685039366
0
LINE
8
BLACK
6
CONTINUOUS
10
6.0845237401574801
20
-5.6106469685039366
11
6.0850564173228348
21
-5.6101142913385829
0
LINE
8
BLACK
6
CONTINUOUS
10
6.0850564173228348
20
-5.6101142913385829
11
6.1429133858267715
21
-5.6100393700787397
0
LINE
8
BLACK
6
CONTINUOUS
10
6.1429133858267715
20
-5.6100393700787397
11
6.1432900393700782
21
-5.6101142913385829
0
LINE
8
BLACK
6
CONTINUOUS
10
6.0863432677165354
20
-5.6120066929133854
11
6.0864167322834648
21
-5.7266479527559051
0
LINE
8
BLACK
6
CONTINUOUS
10
6.0864167322834648
20
-5.7266479527559051
11
6.1420031496062988
21
-5.7265759448818896
0
LINE
8
BLACK
6
CONTINUOUS
10
6.1420031496062988
20
-5.7265759448818896
11
6.1419296850393703
21
-5.6119346850393699
0
LINE
8
BLACK
6
CONTINUOUS
10
6.1419296850393703
20
-5.6119346850393699
11
6.0863432677165354
21
-5.6120066929133854
0
LINE
8
BLACK
6
CONTINUOUS
10
6.2653372834645671
20
-5.6101142913385829
11
6.2658699606299209
21
-5.6106469685039366
0
LINE
8
BLACK
6
CONTINUOUS
10
6.2658699606299209
20
-5.6106469685039366
11
6.2659448818897641
21
-5.7275590551181104
0
LINE
8
BLACK
6
CONTINUOUS
10
6.2659448818897641
20
-5.7275590551181104
11
6.2658699606299209
21
-5.7279357086614171
0
LINE
8
BLACK
6
CONTINUOUS
10
6.2658699606299209
20
-5.7279357086614171
11
6.2653372834645671
21
-5.7284683858267718
0
LINE
8
BLACK
6
CONTINUOUS
10
6.2653372834645671
20
-5.7284683858267718
11
6.2074803149606295
21
-5.7285433070866141
0
LINE
8
BLACK
6
CONTINUOUS
10
6.2074803149606295
20
-5.7285433070866141
11
6.2071036614173227
21
-5.7284683858267718
0
LINE
8
BLACK
6
CONTINUOUS
10
6.2071036614173227
20
-5.7284683858267718
11
6.2066929133858268
21
-5.7280576377952759
0
LINE
8
BLACK
6
CONTINUOUS
10
6.2066929133858268
20
-5.7280576377952759
11
6.206282165354331
21
-5.7284683858267718
0
LINE
8
BLACK
6
CONTINUOUS
10
6.206282165354331
20
-5.7284683858267718
11
6.1484251968503933
21
-5.7285433070866141
0
LINE
8
BLACK
6
CONTINUOUS
10
6.1484251968503933
20
-5.7285433070866141
11
6.1480485433070866
21
-5.7284683858267718
0
LINE
8
BLACK
6
CONTINUOUS
10
6.1480485433070866
20
-5.7284683858267718
11
6.147515866141732
21
-5.7279357086614171
0
LINE
8
BLACK
6
CONTINUOUS
10
6.147515866141732
20
-5.7279357086614171
11
6.1474409448818896
21
-5.6110236220472443
0
LINE
8
BLACK
6
CONTINUOUS
10
6.1474409448818896
20
-5.6110236220472443
11
6.147515866141732
21
-5.6106469685039366
0
LINE
8
BLACK
6
CONTINUOUS
10
6.147515866141732
20
-5.6106469685039366
11
6.1480485433070866
21
-5.6101142913385829
0
LINE
8
BLACK
6
CONTINUOUS
10
6.1480485433070866
20
-5.6101142913385829
11
6.2059055118110233
21
-5.6100393700787397
0
LINE
8
BLACK
6
CONTINUOUS
10
6.2059055118110233
20
-5.6100393700787397
11
6.206282165354331
21
-5.6101142913385829
0
LINE
8
BLACK
6
CONTINUOUS
10
6.206282165354331
20
-5.6101142913385829
11
6.2066929133858268
21
-5.6105250393700787
0
LINE
8
BLACK
6
CONTINUOUS
10
6.2066929133858268
20
-5.6105250393700787
11
6.2071036614173227
21
-5.6101142913385829
0
LINE
8
BLACK
6
CONTINUOUS
10
6.2071036614173227
20
-5.6101142913385829
11
6.2649606299212595
21
-5.6100393700787397
0
LINE
8
BLACK
6
CONTINUOUS
10
6.2649606299212595
20
-5.6100393700787397
11
6.2653372834645671
21
-5.6101142913385829
0
LINE
8
BLACK
6
CONTINUOUS
10
6.1493353937007873
20
-5.6120066929133854
11
6.1494088582677167
21
-5.7266479527559051
0
LINE
8
BLACK
6
CONTINUOUS
10
6.1494088582677167
20
-5.7266479527559051
11
6.2049952755905506
21
-5.7265759448818896
0
LINE
8
BLACK
6
CONTINUOUS
10
6.2049952755905506
20
-5.7265759448818896
11
6.2049218110236222
21
-5.6119346850393699
0
LINE
8
BLACK
6
CONTINUOUS
10
6.2049218110236222
20
-5.6119346850393699
11
6.1493353937007873
21
-5.6120066929133854
0
LINE
8
BLACK
6
CONTINUOUS
10
6.2083905118110234
20
-5.6120066929133854
11
6.2084639763779528
21
-5.7266479527559051
0
LINE
8
BLACK
6
CONTINUOUS
10
6.2084639763779528
20
-5.7266479527559051
11
6.2640503937007876
21
-5.7265759448818896
0
LINE
8
BLACK
6
CONTINUOUS
10
6.2640503937007876
20
-5.7265759448818896
11
6.2639769291338583
21
-5.6119346850393699
0
LINE
8
BLACK
6
CONTINUOUS
10
6.2639769291338583
20
-5.6119346850393699
11
6.2083905118110234
21
-5.6120066929133854
0
LINE
8
BLACK
6
CONTINUOUS
10
6.3322664173228347
20
-5.6101142913385829
11
6.3327990944881885
21
-5.6106469685039366
0
LINE
8
BLACK
6
CONTINUOUS
10
6.3327990944881885
20
-5.6106469685039366
11
6.3328740157480317
21
-5.7275590551181104
0
LINE
8
BLACK
6
CONTINUOUS
10
6.3328740157480317
20
-5.7275590551181104
11
6.3327990944881885
21
-5.7279357086614171
0
LINE
8
BLACK
6
CONTINUOUS
10
6.3327990944881885
20
-5.7279357086614171
11
6.3322664173228347
21
-5.7284683858267718
0
LINE
8
BLACK
6
CONTINUOUS
10
6.3322664173228347
20
-5.7284683858267718
11
6.2744094488188971
21
-5.7285433070866141
0
LINE
8
BLACK
6
CONTINUOUS
10
6.2744094488188971
20
-5.7285433070866141
11
6.2740327952755903
21
-5.7284683858267718
0
LINE
8
BLACK
6
CONTINUOUS
10
6.2740327952755903
20
-5.7284683858267718
11
6.2735001181102357
21
-5.7279357086614171
0
LINE
8
BLACK
6
CONTINUOUS
10
6.2735001181102357
20
-5.7279357086614171
11
6.2734251968503933
21
-5.6110236220472443
0
LINE
8
BLACK
6
CONTINUOUS
10
6.2734251968503933
20
-5.6110236220472443
11
6.2735001181102357
21
-5.6106469685039366
0
LINE
8
BLACK
6
CONTINUOUS
10
6.2735001181102357
20
-5.6106469685039366
11
6.2740327952755903
21
-5.6101142913385829
0
LINE
8
BLACK
6
CONTINUOUS
10
6.2740327952755903
20
-5.6101142913385829
11
6.3318897637795271
21
-5.6100393700787397
0
LINE
8
BLACK
6
CONTINUOUS
10
6.3318897637795271
20
-5.6100393700787397
11
6.3322664173228347
21
-5.6101142913385829
0
LINE
8
BLACK
6
CONTINUOUS
10
6.275319645669291
20
-5.6120066929133854
11
6.2753931102362204
21
-5.7266479527559051
0
LINE
8
BLACK
6
CONTINUOUS
10
6.2753931102362204
20
-5.7266479527559051
11
6.3309795275590552
21
-5.7265759448818896
0
LINE
8
BLACK
6
CONTINUOUS
10
6.3309795275590552
20
-5.7265759448818896
11
6.3309060629921259
21
-5.6119346850393699
0
LINE
8
BLACK
6
CONTINUOUS
10
6.3309060629921259
20
-5.6119346850393699
11
6.275319645669291
21
-5.6120066929133854
0
LINE
8
BLACK
6
CONTINUOUS
10
6.3952585433070865
20
-5.6101142913385829
11
6.3957912204724412
21
-5.6106469685039366
0
LINE
8
BLACK
6
CONTINUOUS
10
6.3957912204724412
20
-5.6106469685039366
11
6.3958661417322835
21
-5.7275590551181104
0
LINE
8
BLACK
6
CONTINUOUS
10
6.3958661417322835
20
-5.7275590551181104
11
6.3957912204724412
21
-5.7279357086614171
0
LINE
8
BLACK
6
CONTINUOUS
10
6.3957912204724412
20
-5.7279357086614171
11
6.3952585433070865
21
-5.7284683858267718
0
LINE
8
BLACK
6
CONTINUOUS
10
6.3952585433070865
20
-5.7284683858267718
11
6.3374015748031498
21
-5.7285433070866141
0
LINE
8
BLACK
6
CONTINUOUS
10
6.3374015748031498
20
-5.7285433070866141
11
6.3370249212598422
21
-5.7284683858267718
0
LINE
8
BLACK
6
CONTINUOUS
10
6.3370249212598422
20
-5.7284683858267718
11
6.3364922440944884
21
-5.7279357086614171
0
LINE
8
BLACK
6
CONTINUOUS
10
6.3364922440944884
20
-5.7279357086614171
11
6.3364173228346452
21
-5.6110236220472443
0
LINE
8
BLACK
6
CONTINUOUS
10
6.3364173228346452
20
-5.6110236220472443
11
6.3364922440944884
21
-5.6106469685039366
0
LINE
8
BLACK
6
CONTINUOUS
10
6.3364922440944884
20
-5.6106469685039366
11
6.3370249212598422
21
-5.6101142913385829
0
LINE
8
BLACK
6
CONTINUOUS
10
6.3370249212598422
20
-5.6101142913385829
11
6.3948818897637798
21
-5.6100393700787397
0
LINE
8
BLACK
6
CONTINUOUS
10
6.3948818897637798
20
-5.6100393700787397
11
6.3952585433070865
21
-5.6101142913385829
0
LINE
8
BLACK
6
CONTINUOUS
10
6.3383117716535429
20
-5.6120066929133854
11
6.3383852362204722
21
-5.7266479527559051
0
LINE
8
BLACK
6
CONTINUOUS
10
6.3383852362204722
20
-5.7266479527559051
11
6.3939716535433071
21
-5.7265759448818896
0
LINE
8
BLACK
6
CONTINUOUS
10
6.3939716535433071
20
-5.7265759448818896
11
6.3938981889763777
21
-5.6119346850393699
0
LINE
8
BLACK
6
CONTINUOUS
10
6.3938981889763777
20
-5.6119346850393699
11
6.3383117716535429
21
-5.6120066929133854
0
LINE
8
BLACK
6
CONTINUOUS
10
5.4513609055118106
20
-5.6406261023622042
11
5.4518935826771653
21
-5.6411587795275588
0
LINE
8
BLACK
6
CONTINUOUS
10
5.4518935826771653
20
-5.6411587795275588
11
5.4519685039370076
21
-5.6990157480314956
0
LINE
8
BLACK
6
CONTINUOUS
10
5.4519685039370076
20
-5.6990157480314956
11
5.4518935826771653
21
-5.6993924015748032
0
LINE
8
BLACK
6
CONTINUOUS
10
5.4518935826771653
20
-5.6993924015748032
11
5.4513609055118106
21
-5.699925078740157
0
LINE
8
BLACK
6
CONTINUOUS
10
5.4513609055118106
20
-5.699925078740157
11
5.3344488188976378
21
-5.7000000000000002
0
LINE
8
BLACK
6
CONTINUOUS
10
5.3344488188976378
20
-5.7000000000000002
11
5.3340721653543302
21
-5.699925078740157
0
LINE
8
BLACK
6
CONTINUOUS
10
5.3340721653543302
20
-5.699925078740157
11
5.3335394881889764
21
-5.6993924015748032
0
LINE
8
BLACK
6
CONTINUOUS
10
5.3335394881889764
20
-5.6993924015748032
11
5.3334645669291341
21
-5.6415354330708656
0
LINE
8
BLACK
6
CONTINUOUS
10
5.3334645669291341
20
-5.6415354330708656
11
5.3335394881889764
21
-5.6411587795275588
0
LINE
8
BLACK
6
CONTINUOUS
10
5.3335394881889764
20
-5.6411587795275588
11
5.3340721653543302
21
-5.6406261023622042
0
LINE
8
BLACK
6
CONTINUOUS
10
5.3340721653543302
20
-5.6406261023622042
11
5.4509842519685039
21
-5.6405511811023619
0
LINE
8
BLACK
6
CONTINUOUS
10
5.4509842519685039
20
-5.6405511811023619
11
5.4513609055118106
21
-5.6406261023622042
0
LINE
8
BLACK
6
CONTINUOUS
10
5.3353598818897634
20
-5.6425190944881889
11
5.3354318897637798
21
-5.6981055118110238
0
LINE
8
BLACK
6
CONTINUOUS
10
5.3354318897637798
20
-5.6981055118110238
11
5.4500731496062995
21
-5.6980320472440944
0
LINE
8
BLACK
6
CONTINUOUS
10
5.4500731496062995
20
-5.6980320472440944
11
5.4500011417322831
21
-5.6424456299212595
0
LINE
8
BLACK
6
CONTINUOUS
10
5.4500011417322831
20
-5.6424456299212595
11
5.3353598818897634
21
-5.6425190944881889
0
LINE
8
BLACK
6
CONTINUOUS
10
6.5377782283464567
20
-5.5502717716535432
11
6.5383109055118105
21
-5.5508044488188979
0
LINE
8
BLACK
6
CONTINUOUS
10
6.5383109055118105
20
-5.5508044488188979
11
6.5383858267716537
21
-5.606299212598425
0
LINE
8
BLACK
6
CONTINUOUS
10
6.5383858267716537
20
-5.606299212598425
11
6.5383109055118105
21
-5.6066758661417317
0
LINE
8
BLACK
6
CONTINUOUS
10
6.5383109055118105
20
-5.6066758661417317
11
6.5377782283464567
21
-5.6072085433070864
0
LINE
8
BLACK
6
CONTINUOUS
10
6.5377782283464567
20
-5.6072085433070864
11
6.4389763779527556
21
-5.6072834645669287
0
LINE
8
BLACK
6
CONTINUOUS
10
6.4389763779527556
20
-5.6072834645669287
11
6.4385997244094488
21
-5.6072085433070864
0
LINE
8
BLACK
6
CONTINUOUS
10
6.4385997244094488
20
-5.6072085433070864
11
6.4380670472440942
21
-5.6066758661417317
0
LINE
8
BLACK
6
CONTINUOUS
10
6.4380670472440942
20
-5.6066758661417317
11
6.4379921259842519
21
-5.5511811023622046
0
LINE
8
BLACK
6
CONTINUOUS
10
6.4379921259842519
20
-5.5511811023622046
11
6.4380670472440942
21
-5.5508044488188979
0
LINE
8
BLACK
6
CONTINUOUS
10
6.4380670472440942
20
-5.5508044488188979
11
6.4385997244094488
21
-5.5502717716535432
0
LINE
8
BLACK
6
CONTINUOUS
10
6.4385997244094488
20
-5.5502717716535432
11
6.5374015748031491
21
-5.5501968503937009
0
LINE
8
BLACK
6
CONTINUOUS
10
6.5374015748031491
20
-5.5501968503937009
11
6.5377782283464567
21
-5.5502717716535432
0
LINE
8
BLACK
6
CONTINUOUS
10
6.4398875196850396
20
-5.5521646456692908
11
6.4399593700787401
21
-5.6053888188976373
0
LINE
8
BLACK
6
CONTINUOUS
10
6.4399593700787401
20
-5.6053888188976373
11
6.5364903937007872
21
-5.6053156299212601
0
LINE
8
BLACK
6
CONTINUOUS
10
6.5364903937007872
20
-5.6053156299212601
11
6.5364185433070867
21
-5.5520914566929136
0
LINE
8
BLACK
6
CONTINUOUS
10
6.5364185433070867
20
-5.5520914566929136
11
6.4398875196850396
21
-5.5521646456692908
0
LINE
8
BLACK
6
CONTINUOUS
10
5.3121876771653538
20
-4.9172009055118107
11
5.3127203543307084
21
-4.9177335826771653
0
LINE
8
BLACK
6
CONTINUOUS
10
5.3127203543307084
20
-4.9177335826771653
11
5.3127714173228346
21
-5.0403755905511813
0
LINE
8
BLACK
6
CONTINUOUS
10
5.3127714173228346
20
-5.0403755905511813
11
5.4901574803149602
21
-5.0403543307086611
0
LINE
8
BLACK
6
CONTINUOUS
10
5.4901574803149602
20
-5.0403543307086611
11
5.4905341338582678
21
-5.0404292519685034
0
LINE
8
BLACK
6
CONTINUOUS
10
5.4905341338582678
20
-5.0404292519685034
11
5.4910668110236216
21
-5.0409619291338581
0
LINE
8
BLACK
6
CONTINUOUS
10
5.4910668110236216
20
-5.0409619291338581
11
5.4911417322834648
21
-5.6043307086614176
0
LINE
8
BLACK
6
CONTINUOUS
10
5.4911417322834648
20
-5.6043307086614176
11
5.4910668110236216
21
-5.6047073622047243
0
LINE
8
BLACK
6
CONTINUOUS
10
5.4910668110236216
20
-5.6047073622047243
11
5.4905341338582678
21
-5.605240039370079
0
LINE
8
BLACK
6
CONTINUOUS
10
5.4905341338582678
20
-5.605240039370079
11
4.8661417322834648
21
-5.6053149606299213
0
LINE
8
BLACK
6
CONTINUOUS
10
4.8661417322834648
20
-5.6053149606299213
11
4.8657650787401572
21
-5.605240039370079
0
LINE
8
BLACK
6
CONTINUOUS
10
4.8657650787401572
20
-5.605240039370079
11
4.8652324015748034
21
-5.6047073622047243
0
LINE
8
BLACK
6
CONTINUOUS
10
4.8652324015748034
20
-5.6047073622047243
11
4.8651574803149602
21
-5.0413385826771648
0
LINE
8
BLACK
6
CONTINUOUS
10
4.8651574803149602
20
-5.0413385826771648
11
4.8652324015748034
21
-5.0409619291338581
0
LINE
8
BLACK
6
CONTINUOUS
10
4.8652324015748034
20
-5.0409619291338581
11
4.8657650787401572
21
-5.0404292519685034
0
LINE
8
BLACK
6
CONTINUOUS
10
4.8657650787401572
20
-5.0404292519685034
11
5.2226887007874012
21
-5.0403864173228348
0
LINE
8
BLACK
6
CONTINUOUS
10
5.2226887007874012
20
-5.0403864173228348
11
5.22263779527559
21
-4.9181102362204721
0
LINE
8
BLACK
6
CONTINUOUS
10
5.22263779527559
20
-4.9181102362204721
11
5.2227127165354332
21
-4.9177335826771653
0
LINE
8
BLACK
6
CONTINUOUS
10
5.2227127165354332
20
-4.9177335826771653
11
5.223245393700787
21
-4.9172009055118107
0
LINE
8
BLACK
6
CONTINUOUS
10
5.223245393700787
20
-4.9172009055118107
11
5.311811023622047
21
-4.9171259842519683
0
LINE
8
BLACK
6
CONTINUOUS
10
5.311811023622047
20
-4.9171259842519683
11
5.3121876771653538
21
-4.9172009055118107
0
LINE
8
BLACK
6
CONTINUOUS
10
5.3127722047244097
20
-5.0422692125984252
11
5.3127952755905508
21
-5.09763779527559
0
LINE
8
BLACK
6
CONTINUOUS
10
5.3127952755905508
20
-5.09763779527559
11
5.3127203543307084
21
-5.0980144488188976
0
LINE
8
BLACK
6
CONTINUOUS
10
5.3127203543307084
20
-5.0980144488188976
11
5.3121876771653538
21
-5.0985471259842514
0
LINE
8
BLACK
6
CONTINUOUS
10
5.3121876771653538
20
-5.0985471259842514
11
5.2236220472440946
21
-5.0986220472440946
0
LINE
8
BLACK
6
CONTINUOUS
10
5.2236220472440946
20
-5.0986220472440946
11
5.223245393700787
21
-5.0985471259842514
0
LINE
8
BLACK
6
CONTINUOUS
10
5.223245393700787
20
-5.0985471259842514
11
5.2227127165354332
21
-5.0980144488188976
0
LINE
8
BLACK
6
CONTINUOUS
10
5.2227127165354332
20
-5.0980144488188976
11
5.2226894881889763
21
-5.0422800393700786
0
LINE
8
BLACK
6
CONTINUOUS
10
5.2226894881889763
20
-5.0422800393700786
11
4.8670512204724412
21
-5.0423227165354332
0
LINE
8
BLACK
6
CONTINUOUS
10
4.8670512204724412
20
-5.0423227165354332
11
4.8671258267716535
21
-5.6034211811023624
0
LINE
8
BLACK
6
CONTINUOUS
10
4.8671258267716535
20
-5.6034211811023624
11
5.489247952755905
21
-5.6033465354330705
0
LINE
8
BLACK
6
CONTINUOUS
10
5.489247952755905
20
-5.6033465354330705
11
5.4891733464566927
21
-5.0422480708661412
0
LINE
8
BLACK
6
CONTINUOUS
10
5.4891733464566927
20
-5.0422480708661412
11
5.3127722047244097
21
-5.0422692125984252
0
LINE
8
BLACK
6
CONTINUOUS
10
5.2245832283464564
20
-5.0422798031496061
11
5.2246059055118108
21
-5.0967272834645669
0
LINE
8
BLACK
6
CONTINUOUS
10
5.2246059055118108
20
-5.0967272834645669
11
5.3109011023622044
21
-5.0966542913385826
0
LINE
8
BLACK
6
CONTINUOUS
10
5.3109011023622044
20
-5.0966542913385826
11
5.3108784645669287
21
-5.0422694488188977
0
LINE
8
BLACK
6
CONTINUOUS
10
5.3108784645669287
20
-5.0422694488188977
11
5.2245832283464564
21
-5.0422798031496061
0
LINE
8
BLACK
6
CONTINUOUS
10
5.2245319291338586
20
-4.9190937007874016
11
5.2245824409448813
21
-5.0403861811023623
0
LINE
8
BLACK
6
CONTINUOUS
10
5.2245824409448813
20
-5.0403861811023623
11
5.3108776771653545
21
-5.0403758267716539
0
LINE
8
BLACK
6
CONTINUOUS
10
5.3108776771653545
20
-5.0403758267716539
11
5.3108271259842521
21
-4.9190207086614173
0
LINE
8
BLACK
6
CONTINUOUS
10
5.3108271259842521
20
-4.9190207086614173
11
5.2245319291338586
21
-4.9190937007874016
0
LINE
8
BLACK
6
CONTINUOUS
10
6.4216364960629919
20
-5.4341300393700784
11
6.4221691732283466
21
-5.4346627165354331
0
LINE
8
BLACK
6
CONTINUOUS
10
6.4221691732283466
20
-5.4346627165354331
11
6.4222440944881889
21
-5.5964566929133861
0
LINE
8
BLACK
6
CONTINUOUS
10
6.4222440944881889
20
-5.5964566929133861
11
6.4221691732283466
21
-5.5968333464566928
0
LINE
8
BLACK
6
CONTINUOUS
10
6.4221691732283466
20
-5.5968333464566928
11
6.4216364960629919
21
-5.5973660236220475
0
LINE
8
BLACK
6
CONTINUOUS
10
6.4216364960629919
20
-5.5973660236220475
11
6.2874015748031491
21
-5.5974409448818898
0
LINE
8
BLACK
6
CONTINUOUS
10
6.2874015748031491
20
-5.5974409448818898
11
6.2870249212598424
21
-5.5973660236220475
0
LINE
8
BLACK
6
CONTINUOUS
10
6.2870249212598424
20
-5.5973660236220475
11
6.2864922440944877
21
-5.5968333464566928
0
LINE
8
BLACK
6
CONTINUOUS
10
6.2864922440944877
20
-5.5968333464566928
11
6.2864173228346454
21
-5.4350393700787398
0
LINE
8
BLACK
6
CONTINUOUS
10
6.2864173228346454
20
-5.4350393700787398
11
6.2864922440944877
21
-5.4346627165354331
0
LINE
8
BLACK
6
CONTINUOUS
10
6.2864922440944877
20
-5.4346627165354331
11
6.2870249212598424
21
-5.4341300393700784
0
LINE
8
BLACK
6
CONTINUOUS
10
6.2870249212598424
20
-5.4341300393700784
11
6.4212598425196852
21
-5.4340551181102361
0
LINE
8
BLACK
6
CONTINUOUS
10
6.4212598425196852
20
-5.4340551181102361
11
6.4216364960629919
21
-5.4341300393700784
0
LINE
8
BLACK
6
CONTINUOUS
10
6.2883115354330705
20
-5.4360231102362206
11
6.2883853937007874
21
-5.5955465748031497
0
LINE
8
BLACK
6
CONTINUOUS
10
6.2883853937007874
20
-5.5955465748031497
11
6.420349842519685
21
-5.5954729133858265
0
LINE
8
BLACK
6
CONTINUOUS
10
6.420349842519685
20
-5.5954729133858265
11
6.4202759842519681
21
-5.4359494488188975
0
LINE
8
BLACK
6
CONTINUOUS
10
6.4202759842519681
20
-5.4359494488188975
11
6.2883115354330705
21
-5.4360231102362206
0
LINE
8
BLACK
6
CONTINUOUS
10
6.5507703543307088
20
-5.4309804330708662
11
6.5513030314960625
21
-5.43151311023622
0
LINE
8
BLACK
6
CONTINUOUS
10
6.5513030314960625
20
-5.43151311023622
11
6.5513779527559057
21
-5.4893700787401576
0
LINE
8
BLACK
6
CONTINUOUS
10
6.5513779527559057
20
-5.4893700787401576
11
6.5513030314960625
21
-5.4897467322834643
0
LINE
8
BLACK
6
CONTINUOUS
10
6.5513030314960625
20
-5.4897467322834643
11
6.5508922834645666
21
-5.4901574803149602
0
LINE
8
BLACK
6
CONTINUOUS
10
6.5508922834645666
20
-5.4901574803149602
11
6.5513030314960625
21
-5.490568228346457
0
LINE
8
BLACK
6
CONTINUOUS
10
6.5513030314960625
20
-5.490568228346457
11
6.5513779527559057
21
-5.5484251968503937
0
LINE
8
BLACK
6
CONTINUOUS
10
6.5513779527559057
20
-5.5484251968503937
11
6.5513030314960625
21
-5.5488018503937004
0
LINE
8
BLACK
6
CONTINUOUS
10
6.5513030314960625
20
-5.5488018503937004
11
6.5507703543307088
21
-5.5493345275590551
0
LINE
8
BLACK
6
CONTINUOUS
10
6.5507703543307088
20
-5.5493345275590551
11
6.433858267716535
21
-5.5494094488188974
0
LINE
8
BLACK
6
CONTINUOUS
10
6.433858267716535
20
-5.5494094488188974
11
6.4334816141732283
21
-5.5493345275590551
0
LINE
8
BLACK
6
CONTINUOUS
10
6.4334816141732283
20
-5.5493345275590551
11
6.4329489370078736
21
-5.5488018503937004
0
LINE
8
BLACK
6
CONTINUOUS
10
6.4329489370078736
20
-5.5488018503937004
11
6.4328740157480313
21
-5.4909448818897637
0
LINE
8
BLACK
6
CONTINUOUS
10
6.4328740157480313
20
-5.4909448818897637
11
6.4329489370078736
21
-5.490568228346457
0
LINE
8
BLACK
6
CONTINUOUS
10
6.4329489370078736
20
-5.490568228346457
11
6.4333596850393695
21
-5.4901574803149602
0
LINE
8
BLACK
6
CONTINUOUS
10
6.4333596850393695
20
-5.4901574803149602
11
6.4329489370078736
21
-5.4897467322834643
0
LINE
8
BLACK
6
CONTINUOUS
10
6.4329489370078736
20
-5.4897467322834643
11
6.4328740157480313
21
-5.4318897637795276
0
LINE
8
BLACK
6
CONTINUOUS
10
6.4328740157480313
20
-5.4318897637795276
11
6.4329489370078736
21
-5.43151311023622
0
LINE
8
BLACK
6
CONTINUOUS
10
6.4329489370078736
20
-5.43151311023622
11
6.4334816141732283
21
-5.4309804330708662
0
LINE
8
BLACK
6
CONTINUOUS
10
6.4334816141732283
20
-5.4309804330708662
11
6.5503937007874011
21
-5.4309055118110239
0
LINE
8
BLACK
6
CONTINUOUS
10
6.5503937007874011
20
-5.4309055118110239
11
6.5507703543307088
21
-5.4309804330708662
0
LINE
8
BLACK
6
CONTINUOUS
10
6.4347693307086615
20
-5.4919285433070861
11
6.434841338582677
21
-5.547514960629921
0
LINE
8
BLACK
6
CONTINUOUS
10
6.434841338582677
20
-5.547514960629921
11
6.5494825984251968
21
-5.5474414960629916
0
LINE
8
BLACK
6
CONTINUOUS
10
6.5494825984251968
20
-5.5474414960629916
11
6.5494105905511812
21
-5.4918550787401577
0
LINE
8
BLACK
6
CONTINUOUS
10
6.5494105905511812
20
-5.4918550787401577
11
6.4347693307086615
21
-5.4919285433070861
0
LINE
8
BLACK
6
CONTINUOUS
10
6.4347693307086615
20
-5.43287342519685
11
6.434841338582677
21
-5.4884598425196849
0
LINE
8
BLACK
6
CONTINUOUS
10
6.434841338582677
20
-5.4884598425196849
11
6.5494825984251968
21
-5.4883863779527555
0
LINE
8
BLACK
6
CONTINUOUS
10
6.5494825984251968
20
-5.4883863779527555
11
6.5494105905511812
21
-5.4327999606299215
0
LINE
8
BLACK
6
CONTINUOUS
10
6.5494105905511812
20
-5.4327999606299215
11
6.4347693307086615
21
-5.43287342519685
0
LINE
8
BLACK
6
CONTINUOUS
10
6.2830538188976375
20
-5.4388544488188977
11
6.2835864960629921
21
-5.4393871259842514
0
LINE
8
BLACK
6
CONTINUOUS
10
6.2835864960629921
20
-5.4393871259842514
11
6.2836614173228345
21
-5.4972440944881891
0
LINE
8
BLACK
6
CONTINUOUS
10
6.2836614173228345
20
-5.4972440944881891
11
6.2835864960629921
21
-5.4976207480314958
0
LINE
8
BLACK
6
CONTINUOUS
10
6.2835864960629921
20
-5.4976207480314958
11
6.2830538188976375
21
-5.4981534251968505
0
LINE
8
BLACK
6
CONTINUOUS
10
6.2830538188976375
20
-5.4981534251968505
11
6.1661417322834646
21
-5.4982283464566928
0
LINE
8
BLACK
6
CONTINUOUS
10
6.1661417322834646
20
-5.4982283464566928
11
6.165765078740157
21
-5.4981534251968505
0
LINE
8
BLACK
6
CONTINUOUS
10
6.165765078740157
20
-5.4981534251968505
11
6.1652324015748032
21
-5.4976207480314958
0
LINE
8
BLACK
6
CONTINUOUS
10
6.1652324015748032
20
-5.4976207480314958
11
6.1651574803149609
21
-5.4397637795275591
0
LINE
8
BLACK
6
CONTINUOUS
10
6.1651574803149609
20
-5.4397637795275591
11
6.1652324015748032
21
-5.4393871259842514
0
LINE
8
BLACK
6
CONTINUOUS
10
6.1652324015748032
20
-5.4393871259842514
11
6.165765078740157
21
-5.4388544488188977
0
LINE
8
BLACK
6
CONTINUOUS
10
6.165765078740157
20
-5.4388544488188977
11
6.2826771653543307
21
-5.4387795275590554
0
LINE
8
BLACK
6
CONTINUOUS
10
6.2826771653543307
20
-5.4387795275590554
11
6.2830538188976375
21
-5.4388544488188977
0
LINE
8
BLACK
6
CONTINUOUS
10
6.1670527952755902
20
-5.4407474409448815
11
6.1671248031496058
21
-5.4963338582677164
0
LINE
8
BLACK
6
CONTINUOUS
10
6.1671248031496058
20
-5.4963338582677164
11
6.2817660629921255
21
-5.496260393700787
0
LINE
8
BLACK
6
CONTINUOUS
10
6.2817660629921255
20
-5.496260393700787
11
6.28169405511811
21
-5.440673976377953
0
LINE
8
BLACK
6
CONTINUOUS
10
6.28169405511811
20
-5.440673976377953
11
6.1670527952755902
21
-5.4407474409448815
0
LINE
8
BLACK
6
CONTINUOUS
10
6.0379750787401569
20
-5.403421377952756
11
6.0385077559055116
21
-5.4039540551181098
0
LINE
8
BLACK
6
CONTINUOUS
10
6.0385077559055116
20
-5.4039540551181098
11
6.0385826771653539
21
-5.4618110236220474
0
LINE
8
BLACK
6
CONTINUOUS
10
6.0385826771653539
20
-5.4618110236220474
11
6.0385077559055116
21
-5.4621876771653541
0
LINE
8
BLACK
6
CONTINUOUS
10
6.0385077559055116
20
-5.4621876771653541
11
6.0379750787401569
21
-5.4627203543307088
0
LINE
8
BLACK
6
CONTINUOUS
10
6.0379750787401569
20
-5.4627203543307088
11
5.9210629921259841
21
-5.4627952755905511
0
LINE
8
BLACK
6
CONTINUOUS
10
5.9210629921259841
20
-5.4627952755905511
11
5.9206863385826773
21
-5.4627203543307088
0
LINE
8
BLACK
6
CONTINUOUS
10
5.9206863385826773
20
-5.4627203543307088
11
5.9201536614173227
21
-5.4621876771653541
0
LINE
8
BLACK
6
CONTINUOUS
10
5.9201536614173227
20
-5.4621876771653541
11
5.9200787401574804
21
-5.4043307086614174
0
LINE
8
BLACK
6
CONTINUOUS
10
5.9200787401574804
20
-5.4043307086614174
11
5.9201536614173227
21
-5.4039540551181098
0
LINE
8
BLACK
6
CONTINUOUS
10
5.9201536614173227
20
-5.4039540551181098
11
5.9206863385826773
21
-5.403421377952756
0
LINE
8
BLACK
6
CONTINUOUS
10
5.9206863385826773
20
-5.403421377952756
11
6.0375984251968502
21
-5.4033464566929137
0
LINE
8
BLACK
6
CONTINUOUS
10
6.0375984251968502
20
-5.4033464566929137
11
6.0379750787401569
21
-5.403421377952756
0
LINE
8
BLACK
6
CONTINUOUS
10
5.9219740551181097
20
-5.4053143700787398
11
5.9220460629921261
21
-5.4609007874015747
0
LINE
8
BLACK
6
CONTINUOUS
10
5.9220460629921261
20
-5.4609007874015747
11
6.0366873228346458
21
-5.4608273228346453
0
LINE
8
BLACK
6
CONTINUOUS
10
6.0366873228346458
20
-5.4608273228346453
11
6.0366153149606294
21
-5.4052409055118105
0
LINE
8
BLACK
6
CONTINUOUS
10
6.0366153149606294
20
-5.4052409055118105
11
5.9219740551181097
21
-5.4053143700787398
0
LINE
8
BLACK
6
CONTINUOUS
10
5.7486049999999995
20
-5.2636575984251968
11
5.7491376771653542
21
-5.2641902755905514
0
LINE
8
BLACK
6
CONTINUOUS
10
5.7491376771653542
20
-5.2641902755905514
11
5.7492125984251965
21
-5.3811023622047243
0
LINE
8
BLACK
6
CONTINUOUS
10
5.7492125984251965
20
-5.3811023622047243
11
5.7491376771653542
21
-5.381479015748031
0
LINE
8
BLACK
6
CONTINUOUS
10
5.7491376771653542
20
-5.381479015748031
11
5.7486049999999995
21
-5.3820116929133857
0
LINE
8
BLACK
6
CONTINUOUS
10
5.7486049999999995
20
-5.3820116929133857
11
5.7085870866141732
21
-5.3820635039370082
0
LINE
8
BLACK
6
CONTINUOUS
10
5.7085870866141732
20
-5.3820635039370082
11
5.7086614173228343
21
-5.4488188976377954
0
LINE
8
BLACK
6
CONTINUOUS
10
5.7086614173228343
20
-5.4488188976377954
11
5.708586496062992
21
-5.4491955511811021
0
LINE
8
BLACK
6
CONTINUOUS
10
5.708586496062992
20
-5.4491955511811021
11
5.7080538188976373
21
-5.4497282283464568
0
LINE
8
BLACK
6
CONTINUOUS
10
5.7080538188976373
20
-5.4497282283464568
11
5.5698818897637796
21
-5.4498031496062991
0
LINE
8
BLACK
6
CONTINUOUS
10
5.5698818897637796
20
-5.4498031496062991
11
5.569505236220472
21
-5.4497282283464568
0
LINE
8
BLACK
6
CONTINUOUS
10
5.569505236220472
20
-5.4497282283464568
11
5.5689725590551182
21
-5.4491955511811021
0
LINE
8
BLACK
6
CONTINUOUS
10
5.5689725590551182
20
-5.4491955511811021
11
5.568897637795275
21
-5.3818897637795278
0
LINE
8
BLACK
6
CONTINUOUS
10
5.568897637795275
20
-5.3818897637795278
11
5.5689725590551182
21
-5.3815131102362201
0
LINE
8
BLACK
6
CONTINUOUS
10
5.5689725590551182
20
-5.3815131102362201
11
5.569505236220472
21
-5.3809804330708664
0
LINE
8
BLACK
6
CONTINUOUS
10
5.569505236220472
20
-5.3809804330708664
11
5.6898383070866139
21
-5.3809151574803149
0
LINE
8
BLACK
6
CONTINUOUS
10
5.6898383070866139
20
-5.3809151574803149
11
5.6897637795275591
21
-5.2645669291338582
0
LINE
8
BLACK
6
CONTINUOUS
10
5.6897637795275591
20
-5.2645669291338582
11
5.6898387007874014
21
-5.2641902755905514
0
LINE
8
BLACK
6
CONTINUOUS
10
5.6898387007874014
20
-5.2641902755905514
11
5.690371377952756
21
-5.2636575984251968
0
LINE
8
BLACK
6
CONTINUOUS
10
5.690371377952756
20
-5.2636575984251968
11
5.7482283464566928
21
-5.2635826771653544
0
LINE
8
BLACK
6
CONTINUOUS
10
5.7482283464566928
20
-5.2635826771653544
11
5.7486049999999995
21
-5.2636575984251968
0
LINE
8
BLACK
6
CONTINUOUS
10
5.5707927165354327
20
-5.3828735039370077
11
5.5708651181102358
21
-5.4479088188976377
0
LINE
8
BLACK
6
CONTINUOUS
10
5.5708651181102358
20
-5.4479088188976377
11
5.7067662992125987
21
-5.4478351181102358
0
LINE
8
BLACK
6
CONTINUOUS
10
5.7067662992125987
20
-5.4478351181102358
11
5.7066938976377948
21
-5.3827998031496058
0
LINE
8
BLACK
6
CONTINUOUS
10
5.7066938976377948
20
-5.3827998031496058
11
5.5707927165354327
21
-5.3828735039370077
0
LINE
8
BLACK
6
CONTINUOUS
10
5.6916582283464567
20
-5.2655500000000002
11
5.6917316929133861
21
-5.3801912598425199
0
LINE
8
BLACK
6
CONTINUOUS
10
5.6917316929133861
20
-5.3801912598425199
11
5.7473181102362201
21
-5.3801192519685035
0
LINE
8
BLACK
6
CONTINUOUS
10
5.7473181102362201
20
-5.3801192519685035
11
5.7472446456692916
21
-5.2654779921259838
0
LINE
8
BLACK
6
CONTINUOUS
10
5.7472446456692916
20
-5.2654779921259838
11
5.6916582283464567
21
-5.2655500000000002
0
LINE
8
BLACK
6
CONTINUOUS
10
6.1275420078740153
20
-5.3069646850393699
11
6.1280746850393699
21
-5.3074973622047246
0
LINE
8
BLACK
6
CONTINUOUS
10
6.1280746850393699
20
-5.3074973622047246
11
6.1281496062992122
21
-5.4244094488188974
0
LINE
8
BLACK
6
CONTINUOUS
10
6.1281496062992122
20
-5.4244094488188974
11
6.1280746850393699
21
-5.424786102362205
0
LINE
8
BLACK
6
CONTINUOUS
10
6.1280746850393699
20
-5.424786102362205
11
6.1275420078740153
21
-5.4253187795275588
0
LINE
8
BLACK
6
CONTINUOUS
10
6.1275420078740153
20
-5.4253187795275588
11
6.0696850393700785
21
-5.4253937007874011
0
LINE
8
BLACK
6
CONTINUOUS
10
6.0696850393700785
20
-5.4253937007874011
11
6.0693083858267718
21
-5.4253187795275588
0
LINE
8
BLACK
6
CONTINUOUS
10
6.0693083858267718
20
-5.4253187795275588
11
6.0687757086614171
21
-5.424786102362205
0
LINE
8
BLACK
6
CONTINUOUS
10
6.0687757086614171
20
-5.424786102362205
11
6.0687007874015748
21
-5.3078740157480313
0
LINE
8
BLACK
6
CONTINUOUS
10
6.0687007874015748
20
-5.3078740157480313
11
6.0687757086614171
21
-5.3074973622047246
0
LINE
8
BLACK
6
CONTINUOUS
10
6.0687757086614171
20
-5.3074973622047246
11
6.0693083858267718
21
-5.3069646850393699
0
LINE
8
BLACK
6
CONTINUOUS
10
6.0693083858267718
20
-5.3069646850393699
11
6.1271653543307085
21
-5.3068897637795276
0
LINE
8
BLACK
6
CONTINUOUS
10
6.1271653543307085
20
-5.3068897637795276
11
6.1275420078740153
21
-5.3069646850393699
0
LINE
8
BLACK
6
CONTINUOUS
10
6.0705952362204725
20
-5.3088570866141733
11
6.0706687007874018
21
-5.423498346456693
0
LINE
8
BLACK
6
CONTINUOUS
10
6.0706687007874018
20
-5.423498346456693
11
6.1262551181102358
21
-5.4234263385826766
0
LINE
8
BLACK
6
CONTINUOUS
10
6.1262551181102358
20
-5.4234263385826766
11
6.1261816535433073
21
-5.3087850787401569
0
LINE
8
BLACK
6
CONTINUOUS
10
6.1261816535433073
20
-5.3087850787401569
11
6.0705952362204725
21
-5.3088570866141733
0
LINE
8
BLACK
6
CONTINUOUS
10
6.6106128740157475
20
-5.045547362204724
11
6.6111455511811021
21
-5.0460800393700787
0
LINE
8
BLACK
6
CONTINUOUS
10
6.6111455511811021
20
-5.0460800393700787
11
6.6112204724409445
21
-5.4181102362204721
0
LINE
8
BLACK
6
CONTINUOUS
10
6.6112204724409445
20
-5.4181102362204721
11
6.6111455511811021
21
-5.4184868897637797
0
LINE
8
BLACK
6
CONTINUOUS
10
6.6111455511811021
20
-5.4184868897637797
11
6.6106128740157475
21
-5.4190195669291334
0
LINE
8
BLACK
6
CONTINUOUS
10
6.6106128740157475
20
-5.4190195669291334
11
6.3582677165354333
21
-5.4190944881889767
0
LINE
8
BLACK
6
CONTINUOUS
10
6.3582677165354333
20
-5.4190944881889767
11
6.3578910629921257
21
-5.4190195669291334
0
LINE
8
BLACK
6
CONTINUOUS
10
6.3578910629921257
20
-5.4190195669291334
11
6.3573583858267719
21
-5.4184868897637797
0
LINE
8
BLACK
6
CONTINUOUS
10
6.3573583858267719
20
-5.4184868897637797
11
6.3572834645669287
21
-5.0464566929133854
0
LINE
8
BLACK
6
CONTINUOUS
10
6.3572834645669287
20
-5.0464566929133854
11
6.3573583858267719
21
-5.0460800393700787
0
LINE
8
BLACK
6
CONTINUOUS
10
6.3573583858267719
20
-5.0460800393700787
11
6.3578910629921257
21
-5.045547362204724
0
LINE
8
BLACK
6
CONTINUOUS
10
6.3578910629921257
20
-5.045547362204724
11
6.6102362204724407
21
-5.0454724409448817
0
LINE
8
BLACK
6
CONTINUOUS
10
6.6102362204724407
20
-5.0454724409448817
11
6.6106128740157475
21
-5.045547362204724
0
LINE
8
BLACK
6
CONTINUOUS
10
6.3591772834645663
20
-5.0474406692913387
11
6.3592517716535433
21
-5.4172004724409444
0
LINE
8
BLACK
6
CONTINUOUS
10
6.3592517716535433
20
-5.4172004724409444
11
6.6093266141732281
21
-5.4171262204724409
0
LINE
8
BLACK
6
CONTINUOUS
10
6.6093266141732281
20
-5.4171262204724409
11
6.609252125984252
21
-5.0473664173228343
0
LINE
8
BLACK
6
CONTINUOUS
10
6.609252125984252
20
-5.0473664173228343
11
6.3591772834645663
21
-5.0474406692913387
0
LINE
8
BLACK
6
CONTINUOUS
10
5.5635656299212597
20
-5.2449568110236218
11
5.5640983070866143
21
-5.2454894881889764
0
LINE
8
BLACK
6
CONTINUOUS
10
5.5640983070866143
20
-5.2454894881889764
11
5.5641732283464567
21
-5.3624015748031493
0
LINE
8
BLACK
6
CONTINUOUS
10
5.5641732283464567
20
-5.3624015748031493
11
5.5640983070866143
21
-5.3627782283464569
0
LINE
8
BLACK
6
CONTINUOUS
10
5.5640983070866143
20
-5.3627782283464569
11
5.5635656299212597
21
-5.3633109055118107
0
LINE
8
BLACK
6
CONTINUOUS
10
5.5635656299212597
20
-5.3633109055118107
11
5.505708661417323
21
-5.363385826771653
0
LINE
8
BLACK
6
CONTINUOUS
10
5.505708661417323
20
-5.363385826771653
11
5.5053320078740153
21
-5.3633109055118107
0
LINE
8
BLACK
6
CONTINUOUS
10
5.5053320078740153
20
-5.3633109055118107
11
5.5047993307086616
21
-5.3627782283464569
0
LINE
8
BLACK
6
CONTINUOUS
10
5.5047993307086616
20
-5.3627782283464569
11
5.5047244094488184
21
-5.2458661417322832
0
LINE
8
BLACK
6
CONTINUOUS
10
5.5047244094488184
20
-5.2458661417322832
11
5.5047993307086616
21
-5.2454894881889764
0
LINE
8
BLACK
6
CONTINUOUS
10
5.5047993307086616
20
-5.2454894881889764
11
5.5053320078740153
21
-5.2449568110236218
0
LINE
8
BLACK
6
CONTINUOUS
10
5.5053320078740153
20
-5.2449568110236218
11
5.563188976377953
21
-5.2448818897637794
0
LINE
8
BLACK
6
CONTINUOUS
10
5.563188976377953
20
-5.2448818897637794
11
5.5635656299212597
21
-5.2449568110236218
0
LINE
8
BLACK
6
CONTINUOUS
10
5.506618858267716
20
-5.2468492125984252
11
5.5066923228346454
21
-5.3614904724409449
0
LINE
8
BLACK
6
CONTINUOUS
10
5.5066923228346454
20
-5.3614904724409449
11
5.5622787401574803
21
-5.3614184645669294
0
LINE
8
BLACK
6
CONTINUOUS
10
5.5622787401574803
20
-5.3614184645669294
11
5.5622052755905509
21
-5.2467772047244097
0
LINE
8
BLACK
6
CONTINUOUS
10
5.5622052755905509
20
-5.2467772047244097
11
5.506618858267716
21
-5.2468492125984252
0
LINE
8
BLACK
6
CONTINUOUS
10
5.6265577559055115
20
-5.2449568110236218
11
5.6270904330708662
21
-5.2454894881889764
0
LINE
8
BLACK
6
CONTINUOUS
10
5.6270904330708662
20
-5.2454894881889764
11
5.6271653543307085
21
-5.3624015748031493
0
LINE
8
BLACK
6
CONTINUOUS
10
5.6271653543307085
20
-5.3624015748031493
11
5.6270904330708662
21
-5.3627782283464569
0
LINE
8
BLACK
6
CONTINUOUS
10
5.6270904330708662
20
-5.3627782283464569
11
5.6265577559055115
21
-5.3633109055118107
0
LINE
8
BLACK
6
CONTINUOUS
10
5.6265577559055115
20
-5.3633109055118107
11
5.5687007874015748
21
-5.363385826771653
0
LINE
8
BLACK
6
CONTINUOUS
10
5.5687007874015748
20
-5.363385826771653
11
5.5683241338582672
21
-5.3633109055118107
0
LINE
8
BLACK
6
CONTINUOUS
10
5.5683241338582672
20
-5.3633109055118107
11
5.5677914566929134
21
-5.3627782283464569
0
LINE
8
BLACK
6
CONTINUOUS
10
5.5677914566929134
20
-5.3627782283464569
11
5.5677165354330711
21
-5.2458661417322832
0
LINE
8
BLACK
6
CONTINUOUS
10
5.5677165354330711
20
-5.2458661417322832
11
5.5677914566929134
21
-5.2454894881889764
0
LINE
8
BLACK
6
CONTINUOUS
10
5.5677914566929134
20
-5.2454894881889764
11
5.5683241338582672
21
-5.2449568110236218
0
LINE
8
BLACK
6
CONTINUOUS
10
5.5683241338582672
20
-5.2449568110236218
11
5.6261811023622048
21
-5.2448818897637794
0
LINE
8
BLACK
6
CONTINUOUS
10
5.6261811023622048
20
-5.2448818897637794
11
5.6265577559055115
21
-5.2449568110236218
0
LINE
8
BLACK
6
CONTINUOUS
10
5.5696109842519688
20
-5.2468492125984252
11
5.5696844488188972
21
-5.3614904724409449
0
LINE
8
BLACK
6
CONTINUOUS
10
5.5696844488188972
20
-5.3614904724409449
11
5.6252708661417321
21
-5.3614184645669294
0
LINE
8
BLACK
6
CONTINUOUS
10
5.6252708661417321
20
-5.3614184645669294
11
5.6251974015748027
21
-5.2467772047244097
0
LINE
8
BLACK
6
CONTINUOUS
10
5.6251974015748027
20
-5.2467772047244097
11
5.5696109842519688
21
-5.2468492125984252
0
LINE
8
BLACK
6
CONTINUOUS
10
5.9816758661417317
20
-5.1083426377952756
11
5.9822085433070864
21
-5.1088753149606294
0
LINE
8
BLACK
6
CONTINUOUS
10
5.9822085433070864
20
-5.1088753149606294
11
5.9822834645669287
21
-5.3553149606299213
0
LINE
8
BLACK
6
CONTINUOUS
10
5.9822834645669287
20
-5.3553149606299213
11
5.9822085433070864
21
-5.355691614173228
0
LINE
8
BLACK
6
CONTINUOUS
10
5.9822085433070864
20
-5.355691614173228
11
5.9816758661417317
21
-5.3562242913385827
0
LINE
8
BLACK
6
CONTINUOUS
10
5.9816758661417317
20
-5.3562242913385827
11
5.7746062992125982
21
-5.356299212598425
0
LINE
8
BLACK
6
CONTINUOUS
10
5.7746062992125982
20
-5.356299212598425
11
5.7742296456692914
21
-5.3562242913385827
0
LINE
8
BLACK
6
CONTINUOUS
10
5.7742296456692914
20
-5.3562242913385827
11
5.7736969685039368
21
-5.355691614173228
0
LINE
8
BLACK
6
CONTINUOUS
10
5.7736969685039368
20
-5.355691614173228
11
5.7736220472440944
21
-5.109251968503937
0
LINE
8
BLACK
6
CONTINUOUS
10
5.7736220472440944
20
-5.109251968503937
11
5.7736969685039368
21
-5.1088753149606294
0
LINE
8
BLACK
6
CONTINUOUS
10
5.7736969685039368
20
-5.1088753149606294
11
5.7742296456692914
21
-5.1083426377952756
0
LINE
8
BLACK
6
CONTINUOUS
10
5.7742296456692914
20
-5.1083426377952756
11
5.981299212598425
21
-5.1082677165354333
0
LINE
8
BLACK
6
CONTINUOUS
10
5.981299212598425
20
-5.1082677165354333
11
5.9816758661417317
21
-5.1083426377952756
0
LINE
8
BLACK
6
CONTINUOUS
10
5.7755160236220471
20
-5.110235866141732
11
5.7755902362204727
21
-5.3544051181102361
0
LINE
8
BLACK
6
CONTINUOUS
10
5.7755902362204727
20
-5.3544051181102361
11
5.9803894488188973
21
-5.3543310236220467
0
LINE
8
BLACK
6
CONTINUOUS
10
5.9803894488188973
20
-5.3543310236220467
11
5.9803152362204726
21
-5.1101617716535435
0
LINE
8
BLACK
6
CONTINUOUS
10
5.9803152362204726
20
-5.1101617716535435
11
5.7755160236220471
21
-5.110235866141732
0
LINE
8
BLACK
6
CONTINUOUS
10
6.2928963385826773
20
-5.2006654724409449
11
6.293429015748031
21
-5.2011981496062987
0
LINE
8
BLACK
6
CONTINUOUS
10
6.293429015748031
20
-5.2011981496062987
11
6.2935039370078742
21
-5.3181102362204724
0
LINE
8
BLACK
6
CONTINUOUS
10
6.2935039370078742
20
-5.3181102362204724
11
6.293429015748031
21
-5.3184868897637791
0
LINE
8
BLACK
6
CONTINUOUS
10
6.293429015748031
20
-5.3184868897637791
11
6.2928963385826773
21
-5.3190195669291338
0
LINE
8
BLACK
6
CONTINUOUS
10
6.2928963385826773
20
-5.3190195669291338
11
6.2350393700787397
21
-5.3190944881889761
0
LINE
8
BLACK
6
CONTINUOUS
10
6.2350393700787397
20
-5.3190944881889761
11
6.2346627165354329
21
-5.3190195669291338
0
LINE
8
BLACK
6
CONTINUOUS
10
6.2346627165354329
20
-5.3190195669291338
11
6.2341300393700783
21
-5.3184868897637791
0
LINE
8
BLACK
6
CONTINUOUS
10
6.2341300393700783
20
-5.3184868897637791
11
6.2340551181102359
21
-5.2015748031496063
0
LINE
8
BLACK
6
CONTINUOUS
10
6.2340551181102359
20
-5.2015748031496063
11
6.2341300393700783
21
-5.2011981496062987
0
LINE
8
BLACK
6
CONTINUOUS
10
6.2341300393700783
20
-5.2011981496062987
11
6.2346627165354329
21
-5.2006654724409449
0
LINE
8
BLACK
6
CONTINUOUS
10
6.2346627165354329
20
-5.2006654724409449
11
6.2925196850393696
21
-5.2005905511811026
0
LINE
8
BLACK
6
CONTINUOUS
10
6.2925196850393696
20
-5.2005905511811026
11
6.2928963385826773
21
-5.2006654724409449
0
LINE
8
BLACK
6
CONTINUOUS
10
6.2359495669291336
20
-5.2025578740157483
11
6.236023031496063
21
-5.317199133858268
0
LINE
8
BLACK
6
CONTINUOUS
10
6.236023031496063
20
-5.317199133858268
11
6.2916094488188978
21
-5.3171271259842516
0
LINE
8
BLACK
6
CONTINUOUS
10
6.2916094488188978
20
-5.3171271259842516
11
6.2915359842519685
21
-5.2024858661417319
0
LINE
8
BLACK
6
CONTINUOUS
10
6.2915359842519685
20
-5.2024858661417319
11
6.2359495669291336
21
-5.2025578740157483
0
LINE
8
BLACK
6
CONTINUOUS
10
6.3558884645669291
20
-5.2006654724409449
11
6.3564211417322829
21
-5.2011981496062987
0
LINE
8
BLACK
6
CONTINUOUS
10
6.3564211417322829
20
-5.2011981496062987
11
6.3564960629921261
21
-5.3181102362204724
0
LINE
8
BLACK
6
CONTINUOUS
10
6.3564960629921261
20
-5.3181102362204724
11
6.3564211417322829
21
-5.3184868897637791
0
LINE
8
BLACK
6
CONTINUOUS
10
6.3564211417322829
20
-5.3184868897637791
11
6.3558884645669291
21
-5.3190195669291338
0
LINE
8
BLACK
6
CONTINUOUS
10
6.3558884645669291
20
-5.3190195669291338
11
6.2980314960629924
21
-5.3190944881889761
0
LINE
8
BLACK
6
CONTINUOUS
10
6.2980314960629924
20
-5.3190944881889761
11
6.2976548425196848
21
-5.3190195669291338
0
LINE
8
BLACK
6
CONTINUOUS
10
6.2976548425196848
20
-5.3190195669291338
11
6.297122165354331
21
-5.3184868897637791
0
LINE
8
BLACK
6
CONTINUOUS
10
6.297122165354331
20
-5.3184868897637791
11
6.2970472440944878
21
-5.2015748031496063
0
LINE
8
BLACK
6
CONTINUOUS
10
6.2970472440944878
20
-5.2015748031496063
11
6.297122165354331
21
-5.2011981496062987
0
LINE
8
BLACK
6
CONTINUOUS
10
6.297122165354331
20
-5.2011981496062987
11
6.2976548425196848
21
-5.2006654724409449
0
LINE
8
BLACK
6
CONTINUOUS
10
6.2976548425196848
20
-5.2006654724409449
11
6.3555118110236215
21
-5.2005905511811026
0
LINE
8
BLACK
6
CONTINUOUS
10
6.3555118110236215
20
-5.2005905511811026
11
6.3558884645669291
21
-5.2006654724409449
0
LINE
8
BLACK
6
CONTINUOUS
10
6.2989416929133855
20
-5.2025578740157483
11
6.2990151574803148
21
-5.317199133858268
0
LINE
8
BLACK
6
CONTINUOUS
10
6.2990151574803148
20
-5.317199133858268
11
6.3546015748031497
21
-5.3171271259842516
0
LINE
8
BLACK
6
CONTINUOUS
10
6.3546015748031497
20
-5.3171271259842516
11
6.3545281102362203
21
-5.2024858661417319
0
LINE
8
BLACK
6
CONTINUOUS
10
6.3545281102362203
20
-5.2024858661417319
11
6.2989416929133855
21
-5.2025578740157483
0
LINE
8
BLACK
6
CONTINUOUS
10
6.0684868897637791
20
-5.0481064173228347
11
6.0690195669291338
21
-5.0486390944881885
0
LINE
8
BLACK
6
CONTINUOUS
10
6.0690195669291338
20
-5.0486390944881885
11
6.0690936220472436
21
-5.164247125984252
0
LINE
8
BLACK
6
CONTINUOUS
10
6.0690936220472436
20
-5.164247125984252
11
6.1261811023622048
21
-5.1641732283464563
0
LINE
8
BLACK
6
CONTINUOUS
10
6.1261811023622048
20
-5.1641732283464563
11
6.1265577559055115
21
-5.1642481496062995
0
LINE
8
BLACK
6
CONTINUOUS
10
6.1265577559055115
20
-5.1642481496062995
11
6.1270904330708662
21
-5.1647808267716533
0
LINE
8
BLACK
6
CONTINUOUS
10
6.1270904330708662
20
-5.1647808267716533
11
6.1271653543307085
21
-5.281692913385827
0
LINE
8
BLACK
6
CONTINUOUS
10
6.1271653543307085
20
-5.281692913385827
11
6.1270904330708662
21
-5.2820695669291338
0
LINE
8
BLACK
6
CONTINUOUS
10
6.1270904330708662
20
-5.2820695669291338
11
6.1265577559055115
21
-5.2826022440944884
0
LINE
8
BLACK
6
CONTINUOUS
10
6.1265577559055115
20
-5.2826022440944884
11
6.0687007874015748
21
-5.2826771653543307
0
LINE
8
BLACK
6
CONTINUOUS
10
6.0687007874015748
20
-5.2826771653543307
11
6.0683241338582672
21
-5.2826022440944884
0
LINE
8
BLACK
6
CONTINUOUS
10
6.0683241338582672
20
-5.2826022440944884
11
6.0677914566929134
21
-5.2820695669291338
0
LINE
8
BLACK
6
CONTINUOUS
10
6.0677914566929134
20
-5.2820695669291338
11
6.067717362204724
21
-5.1664614960629924
0
LINE
8
BLACK
6
CONTINUOUS
10
6.067717362204724
20
-5.1664614960629924
11
6.0106299212598424
21
-5.1665354330708659
0
LINE
8
BLACK
6
CONTINUOUS
10
6.0106299212598424
20
-5.1665354330708659
11
6.0102532677165357
21
-5.1664605118110236
0
LINE
8
BLACK
6
CONTINUOUS
10
6.0102532677165357
20
-5.1664605118110236
11
6.009720590551181
21
-5.165927834645669
0
LINE
8
BLACK
6
CONTINUOUS
10
6.009720590551181
20
-5.165927834645669
11
6.0096456692913387
21
-5.0490157480314961
0
LINE
8
BLACK
6
CONTINUOUS
10
6.0096456692913387
20
-5.0490157480314961
11
6.009720590551181
21
-5.0486390944881885
0
LINE
8
BLACK
6
CONTINUOUS
10
6.009720590551181
20
-5.0486390944881885
11
6.0102532677165357
21
-5.0481064173228347
0
LINE
8
BLACK
6
CONTINUOUS
10
6.0102532677165357
20
-5.0481064173228347
11
6.0681102362204724
21
-5.0480314960629924
0
LINE
8
BLACK
6
CONTINUOUS
10
6.0681102362204724
20
-5.0480314960629924
11
6.0684868897637791
21
-5.0481064173228347
0
LINE
8
BLACK
6
CONTINUOUS
10
6.0696109842519688
20
-5.166140551181102
11
6.0696844488188972
21
-5.2807818110236218
0
LINE
8
BLACK
6
CONTINUOUS
10
6.0696844488188972
20
-5.2807818110236218
11
6.1252708661417321
21
-5.2807098031496063
0
LINE
8
BLACK
6
CONTINUOUS
10
6.1252708661417321
20
-5.2807098031496063
11
6.1251974015748027
21
-5.1660685433070865
0
LINE
8
BLACK
6
CONTINUOUS
10
6.1251974015748027
20
-5.1660685433070865
11
6.0696109842519688
21
-5.166140551181102
0
LINE
8
BLACK
6
CONTINUOUS
10
6.0115401181102364
20
-5.0499988188976372
11
6.0116135826771648
21
-5.164640078740157
0
LINE
8
BLACK
6
CONTINUOUS
10
6.0116135826771648
20
-5.164640078740157
11
6.0671999999999997
21
-5.1645680708661414
0
LINE
8
BLACK
6
CONTINUOUS
10
6.0671999999999997
20
-5.1645680708661414
11
6.0671265354330703
21
-5.0499268110236217
0
LINE
8
BLACK
6
CONTINUOUS
10
6.0671265354330703
20
-5.0499268110236217
11
6.0115401181102364
21
-5.0499988188976372
0
LINE
8
BLACK
6
CONTINUOUS
10
5.687581377952756
20
-5.1573583858267718
11
5.6881140551181097
21
-5.1578910629921255
0
LINE
8
BLACK
6
CONTINUOUS
10
5.6881140551181097
20
-5.1578910629921255
11
5.688188976377953
21
-5.2748031496062993
0
LINE
8
BLACK
6
CONTINUOUS
10
5.688188976377953
20
-5.2748031496062993
11
5.6881140551181097
21
-5.275179803149606
0
LINE
8
BLACK
6
CONTINUOUS
10
5.6881140551181097
20
-5.275179803149606
11
5.687581377952756
21
-5.2757124803149607
0
LINE
8
BLACK
6
CONTINUOUS
10
5.687581377952756
20
-5.2757124803149607
11
5.6297244094488184
21
-5.275787401574803
0
LINE
8
BLACK
6
CONTINUOUS
10
5.6297244094488184
20
-5.275787401574803
11
5.6293477559055116
21
-5.2757124803149607
0
LINE
8
BLACK
6
CONTINUOUS
10
5.6293477559055116
20
-5.2757124803149607
11
5.628815078740157
21
-5.275179803149606
0
LINE
8
BLACK
6
CONTINUOUS
10
5.628815078740157
20
-5.275179803149606
11
5.6287401574803146
21
-5.1582677165354331
0
LINE
8
BLACK
6
CONTINUOUS
10
5.6287401574803146
20
-5.1582677165354331
11
5.628815078740157
21
-5.1578910629921255
0
LINE
8
BLACK
6
CONTINUOUS
10
5.628815078740157
20
-5.1578910629921255
11
5.6293477559055116
21
-5.1573583858267718
0
LINE
8
BLACK
6
CONTINUOUS
10
5.6293477559055116
20
-5.1573583858267718
11
5.6872047244094484
21
-5.1572834645669294
0
LINE
8
BLACK
6
CONTINUOUS
10
5.6872047244094484
20
-5.1572834645669294
11
5.687581377952756
21
-5.1573583858267718
0
LINE
8
BLACK
6
CONTINUOUS
10
5.6306346062992123
20
-5.1592507874015743
11
5.6307080708661417
21
-5.273892047244094
0
LINE
8
BLACK
6
CONTINUOUS
10
5.6307080708661417
20
-5.273892047244094
11
5.6862944881889765
21
-5.2738200393700785
0
LINE
8
BLACK
6
CONTINUOUS
10
5.6862944881889765
20
-5.2738200393700785
11
5.6862210236220472
21
-5.1591787795275588
0
LINE
8
BLACK
6
CONTINUOUS
10
5.6862210236220472
20
-5.1591787795275588
11
5.6306346062992123
21
-5.1592507874015743
0
LINE
8
BLACK
6
CONTINUOUS
10
6.187581377952756
20
-5.1042087795275588
11
6.1881140551181097
21
-5.1047414566929135
0
LINE
8
BLACK
6
CONTINUOUS
10
6.1881140551181097
20
-5.1047414566929135
11
6.188188976377953
21
-5.1625984251968502
0
LINE
8
BLACK
6
CONTINUOUS
10
6.188188976377953
20
-5.1625984251968502
11
6.1881140551181097
21
-5.1629750787401569
0
LINE
8
BLACK
6
CONTINUOUS
10
6.1881140551181097
20
-5.1629750787401569
11
6.187581377952756
21
-5.1635077559055116
0
LINE
8
BLACK
6
CONTINUOUS
10
6.187581377952756
20
-5.1635077559055116
11
6.0706692913385822
21
-5.1635826771653539
0
LINE
8
BLACK
6
CONTINUOUS
10
6.0706692913385822
20
-5.1635826771653539
11
6.0702926377952755
21
-5.1635077559055116
0
LINE
8
BLACK
6
CONTINUOUS
10
6.0702926377952755
20
-5.1635077559055116
11
6.0697599606299208
21
-5.1629750787401569
0
LINE
8
BLACK
6
CONTINUOUS
10
6.0697599606299208
20
-5.1629750787401569
11
6.0696850393700785
21
-5.1051181102362202
0
LINE
8
BLACK
6
CONTINUOUS
10
6.0696850393700785
20
-5.1051181102362202
11
6.0697599606299208
21
-5.1047414566929135
0
LINE
8
BLACK
6
CONTINUOUS
10
6.0697599606299208
20
-5.1047414566929135
11
6.0702926377952755
21
-5.1042087795275588
0
LINE
8
BLACK
6
CONTINUOUS
10
6.0702926377952755
20
-5.1042087795275588
11
6.1872047244094484
21
-5.1041338582677165
0
LINE
8
BLACK
6
CONTINUOUS
10
6.1872047244094484
20
-5.1041338582677165
11
6.187581377952756
21
-5.1042087795275588
0
LINE
8
BLACK
6
CONTINUOUS
10
6.0715803543307088
20
-5.1061017716535435
11
6.0716523622047243
21
-5.1616881889763775
0
LINE
8
BLACK
6
CONTINUOUS
10
6.0716523622047243
20
-5.1616881889763775
11
6.186293622047244
21
-5.161614724409449
0
LINE
8
BLACK
6
CONTINUOUS
10
6.186293622047244
20
-5.161614724409449
11
6.1862216141732285
21
-5.1060283070866141
0
LINE
8
BLACK
6
CONTINUOUS
10
6.1862216141732285
20
-5.1060283070866141
11
6.0715803543307088
21
-5.1061017716535435
0
LINE
8
BLACK
6
CONTINUOUS
10
5.8450616929133856
20
-5.0136575984251968
11
5.8455943700787403
21
-5.0141902755905514
0
LINE
8
BLACK
6
CONTINUOUS
10
5.8455943700787403
20
-5.0141902755905514
11
5.8456692913385826
21
-5.0720472440944881
0
LINE
8
BLACK
6
CONTINUOUS
10
5.8456692913385826
20
-5.0720472440944881
11
5.8455943700787403
21
-5.0724238976377949
0
LINE
8
BLACK
6
CONTINUOUS
10
5.8455943700787403
20
-5.0724238976377949
11
5.8450616929133856
21
-5.0729565748031495
0
LINE
8
BLACK
6
CONTINUOUS
10
5.8450616929133856
20
-5.0729565748031495
11
5.7281496062992128
21
-5.0730314960629919
0
LINE
8
BLACK
6
CONTINUOUS
10
5.7281496062992128
20
-5.0730314960629919
11
5.7277729527559051
21
-5.0729565748031495
0
LINE
8
BLACK
6
CONTINUOUS
10
5.7277729527559051
20
-5.0729565748031495
11
5.7272402755905514
21
-5.0724238976377949
0
LINE
8
BLACK
6
CONTINUOUS
10
5.7272402755905514
20
-5.0724238976377949
11
5.7271653543307082
21
-5.0145669291338582
0
LINE
8
BLACK
6
CONTINUOUS
10
5.7271653543307082
20
-5.0145669291338582
11
5.7272402755905514
21
-5.0141902755905514
0
LINE
8
BLACK
6
CONTINUOUS
10
5.7272402755905514
20
-5.0141902755905514
11
5.7277729527559051
21
-5.0136575984251968
0
LINE
8
BLACK
6
CONTINUOUS
10
5.7277729527559051
20
-5.0136575984251968
11
5.8446850393700789
21
-5.0135826771653544
0
LINE
8
BLACK
6
CONTINUOUS
10
5.8446850393700789
20
-5.0135826771653544
11
5.8450616929133856
21
-5.0136575984251968
0
LINE
8
BLACK
6
CONTINUOUS
10
5.7290606692913384
20
-5.0155505905511806
11
5.7291326771653539
21
-5.0711370078740154
0
LINE
8
BLACK
6
CONTINUOUS
10
5.7291326771653539
20
-5.0711370078740154
11
5.8437739370078736
21
-5.0710635433070861
0
LINE
8
BLACK
6
CONTINUOUS
10
5.8437739370078736
20
-5.0710635433070861
11
5.8437019291338581
21
-5.0154771259842521
0
LINE
8
BLACK
6
CONTINUOUS
10
5.8437019291338581
20
-5.0154771259842521
11
5.7290606692913384
21
-5.0155505905511806
0
LINE
8
BLACK
6
CONTINUOUS
10
5.9759672047244097
20
-4.9782245275590551
11
5.9764998818897634
21
-4.9787572047244097
0
LINE
8
BLACK
6
CONTINUOUS
10
5.9764998818897634
20
-4.9787572047244097
11
5.9765748031496058
21
-5.0366141732283465
0
LINE
8
BLACK
6
CONTINUOUS
10
5.9765748031496058
20
-5.0366141732283465
11
5.9764998818897634
21
-5.0369908267716532
0
LINE
8
BLACK
6
CONTINUOUS
10
5.9764998818897634
20
-5.0369908267716532
11
5.9759672047244097
21
-5.0375235039370079
0
LINE
8
BLACK
6
CONTINUOUS
10
5.9759672047244097
20
-5.0375235039370079
11
5.8590551181102359
21
-5.0375984251968502
0
LINE
8
BLACK
6
CONTINUOUS
10
5.8590551181102359
20
-5.0375984251968502
11
5.8586784645669292
21
-5.0375235039370079
0
LINE
8
BLACK
6
CONTINUOUS
10
5.8586784645669292
20
-5.0375235039370079
11
5.8581457874015745
21
-5.0369908267716532
0
LINE
8
BLACK
6
CONTINUOUS
10
5.8581457874015745
20
-5.0369908267716532
11
5.8580708661417322
21
-4.9791338582677165
0
LINE
8
BLACK
6
CONTINUOUS
10
5.8580708661417322
20
-4.9791338582677165
11
5.8581457874015745
21
-4.9787572047244097
0
LINE
8
BLACK
6
CONTINUOUS
10
5.8581457874015745
20
-4.9787572047244097
11
5.8586784645669292
21
-4.9782245275590551
0
LINE
8
BLACK
6
CONTINUOUS
10
5.8586784645669292
20
-4.9782245275590551
11
5.9755905511811021
21
-4.9781496062992128
0
LINE
8
BLACK
6
CONTINUOUS
10
5.9755905511811021
20
-4.9781496062992128
11
5.9759672047244097
21
-4.9782245275590551
0
LINE
8
BLACK
6
CONTINUOUS
10
5.8599661811023624
20
-4.9801175196850389
11
5.860038188976378
21
-5.0357039370078738
0
LINE
8
BLACK
6
CONTINUOUS
10
5.860038188976378
20
-5.0357039370078738
11
5.9746794488188977
21
-5.0356304724409444
0
LINE
8
BLACK
6
CONTINUOUS
10
5.9746794488188977
20
-5.0356304724409444
11
5.9746074409448822
21
-4.9800440551181104
0
LINE
8
BLACK
6
CONTINUOUS
10
5.9746074409448822
20
-4.9800440551181104
11
5.8599661811023624
21
-4.9801175196850389
0
LINE
8
BLACK
6
CONTINUOUS
10
6.509431771653543
20
-4.8670040551181097
11
6.5099644488188977
21
-4.8675367322834644
0
LINE
8
BLACK
6
CONTINUOUS
10
6.5099644488188977
20
-4.8675367322834644
11
6.51003937007874
21
-4.9844488188976372
0
LINE
8
BLACK
6
CONTINUOUS
10
6.51003937007874
20
-4.9844488188976372
11
6.5099644488188977
21
-4.9848254724409449
0
LINE
8
BLACK
6
CONTINUOUS
10
6.5099644488188977
20
-4.9848254724409449
11
6.509431771653543
21
-4.9853581496062995
0
LINE
8
BLACK
6
CONTINUOUS
10
6.509431771653543
20
-4.9853581496062995
11
6.4515748031496063
21
-4.9854330708661418
0
LINE
8
BLACK
6
CONTINUOUS
10
6.4515748031496063
20
-4.9854330708661418
11
6.4511981496062987
21
-4.9853581496062995
0
LINE
8
BLACK
6
CONTINUOUS
10
6.4511981496062987
20
-4.9853581496062995
11
6.4506654724409449
21
-4.9848254724409449
0
LINE
8
BLACK
6
CONTINUOUS
10
6.4506654724409449
20
-4.9848254724409449
11
6.4505905511811026
21
-4.8679133858267711
0
LINE
8
BLACK
6
CONTINUOUS
10
6.4505905511811026
20
-4.8679133858267711
11
6.4506654724409449
21
-4.8675367322834644
0
LINE
8
BLACK
6
CONTINUOUS
10
6.4506654724409449
20
-4.8675367322834644
11
6.4511981496062987
21
-4.8670040551181097
0
LINE
8
BLACK
6
CONTINUOUS
10
6.4511981496062987
20
-4.8670040551181097
11
6.5090551181102363
21
-4.8669291338582674
0
LINE
8
BLACK
6
CONTINUOUS
10
6.5090551181102363
20
-4.8669291338582674
11
6.509431771653543
21
-4.8670040551181097
0
LINE
8
BLACK
6
CONTINUOUS
10
6.4524850000000002
20
-4.8688964566929132
11
6.4525584645669287
21
-4.9835377165354329
0
LINE
8
BLACK
6
CONTINUOUS
10
6.4525584645669287
20
-4.9835377165354329
11
6.5081448818897636
21
-4.9834657086614174
0
LINE
8
BLACK
6
CONTINUOUS
10
6.5081448818897636
20
-4.9834657086614174
11
6.5080714173228342
21
-4.8688244488188976
0
LINE
8
BLACK
6
CONTINUOUS
10
6.5080714173228342
20
-4.8688244488188976
11
6.4524850000000002
21
-4.8688964566929132
0
LINE
8
BLACK
6
CONTINUOUS
10
5.0999829527559051
20
-4.8345237401574801
11
5.1005156299212597
21
-4.8350564173228348
0
LINE
8
BLACK
6
CONTINUOUS
10
5.1005156299212597
20
-4.8350564173228348
11
5.1005905511811021
21
-4.9519685039370076
0
LINE
8
BLACK
6
CONTINUOUS
10
5.1005905511811021
20
-4.9519685039370076
11
5.1005156299212597
21
-4.9523451574803152
0
LINE
8
BLACK
6
CONTINUOUS
10
5.1005156299212597
20
-4.9523451574803152
11
5.0999829527559051
21
-4.952877834645669
0
LINE
8
BLACK
6
CONTINUOUS
10
5.0999829527559051
20
-4.952877834645669
11
5.0421259842519683
21
-4.9529527559055113
0
LINE
8
BLACK
6
CONTINUOUS
10
5.0421259842519683
20
-4.9529527559055113
11
5.0417493307086616
21
-4.952877834645669
0
LINE
8
BLACK
6
CONTINUOUS
10
5.0417493307086616
20
-4.952877834645669
11
5.0412166535433069
21
-4.9523451574803152
0
LINE
8
BLACK
6
CONTINUOUS
10
5.0412166535433069
20
-4.9523451574803152
11
5.0411417322834646
21
-4.8354330708661415
0
LINE
8
BLACK
6
CONTINUOUS
10
5.0411417322834646
20
-4.8354330708661415
11
5.0412166535433069
21
-4.8350564173228348
0
LINE
8
BLACK
6
CONTINUOUS
10
5.0412166535433069
20
-4.8350564173228348
11
5.0417493307086616
21
-4.8345237401574801
0
LINE
8
BLACK
6
CONTINUOUS
10
5.0417493307086616
20
-4.8345237401574801
11
5.0996062992125983
21
-4.8344488188976378
0
LINE
8
BLACK
6
CONTINUOUS
10
5.0996062992125983
20
-4.8344488188976378
11
5.0999829527559051
21
-4.8345237401574801
0
LINE
8
BLACK
6
CONTINUOUS
10
5.0430361811023623
20
-4.8364161417322835
11
5.0431096456692917
21
-4.9510574015748032
0
LINE
8
BLACK
6
CONTINUOUS
10
5.0431096456692917
20
-4.9510574015748032
11
5.0986960629921256
21
-4.9509853937007877
0
LINE
8
BLACK
6
CONTINUOUS
10
5.0986960629921256
20
-4.9509853937007877
11
5.0986225984251972
21
-4.836344133858268
0
LINE
8
BLACK
6
CONTINUOUS
10
5.0986225984251972
20
-4.836344133858268
11
5.0430361811023623
21
-4.8364161417322835
0
LINE
8
BLACK
6
CONTINUOUS
10
5.0291168110236217
20
-4.8335394881889764
11
5.0296494881889764
21
-4.834072165354331
0
LINE
8
BLACK
6
CONTINUOUS
10
5.0296494881889764
20
-4.834072165354331
11
5.0297244094488187
21
-4.9509842519685039
0
LINE
8
BLACK
6
CONTINUOUS
10
5.0297244094488187
20
-4.9509842519685039
11
5.0296494881889764
21
-4.9513609055118106
0
LINE
8
BLACK
6
CONTINUOUS
10
5.0296494881889764
20
-4.9513609055118106
11
5.0291168110236217
21
-4.9518935826771653
0
LINE
8
BLACK
6
CONTINUOUS
10
5.0291168110236217
20
-4.9518935826771653
11
4.971259842519685
21
-4.9519685039370076
0
LINE
8
BLACK
6
CONTINUOUS
10
4.971259842519685
20
-4.9519685039370076
11
4.9708831889763783
21
-4.9518935826771653
0
LINE
8
BLACK
6
CONTINUOUS
10
4.9708831889763783
20
-4.9518935826771653
11
4.9703505118110236
21
-4.9513609055118106
0
LINE
8
BLACK
6
CONTINUOUS
10
4.9703505118110236
20
-4.9513609055118106
11
4.9702755905511813
21
-4.8344488188976378
0
LINE
8
BLACK
6
CONTINUOUS
10
4.9702755905511813
20
-4.8344488188976378
11
4.9703505118110236
21
-4.834072165354331
0
LINE
8
BLACK
6
CONTINUOUS
10
4.9703505118110236
20
-4.834072165354331
11
4.9708831889763783
21
-4.8335394881889764
0
LINE
8
BLACK
6
CONTINUOUS
10
4.9708831889763783
20
-4.8335394881889764
11
5.028740157480315
21
-4.8334645669291341
0
LINE
8
BLACK
6
CONTINUOUS
10
5.028740157480315
20
-4.8334645669291341
11
5.0291168110236217
21
-4.8335394881889764
0
LINE
8
BLACK
6
CONTINUOUS
10
4.972170039370079
20
-4.8354318897637798
11
4.9722435039370074
21
-4.9500731496062995
0
LINE
8
BLACK
6
CONTINUOUS
10
4.9722435039370074
20
-4.9500731496062995
11
5.0278299212598423
21
-4.9500011417322831
0
LINE
8
BLACK
6
CONTINUOUS
10
5.0278299212598423
20
-4.9500011417322831
11
5.0277564566929129
21
-4.8353598818897634
0
LINE
8
BLACK
6
CONTINUOUS
10
5.0277564566929129
20
-4.8353598818897634
11
4.972170039370079
21
-4.8354318897637798
0
LINE
8
BLACK
6
CONTINUOUS
10
6.1354160236220467
20
-4.8305867322834644
11
6.1359487007874014
21
-4.831119409448819
0
LINE
8
BLACK
6
CONTINUOUS
10
6.1359487007874014
20
-4.831119409448819
11
6.1360236220472437
21
-4.9480314960629919
0
LINE
8
BLACK
6
CONTINUOUS
10
6.1360236220472437
20
-4.9480314960629919
11
6.1359487007874014
21
-4.9484081496062995
0
LINE
8
BLACK
6
CONTINUOUS
10
6.1359487007874014
20
-4.9484081496062995
11
6.1354160236220467
21
-4.9489408267716533
0
LINE
8
BLACK
6
CONTINUOUS
10
6.1354160236220467
20
-4.9489408267716533
11
6.07755905511811
21
-4.9490157480314956
0
LINE
8
BLACK
6
CONTINUOUS
10
6.07755905511811
20
-4.9490157480314956
11
6.0771824015748033
21
-4.9489408267716533
0
LINE
8
BLACK
6
CONTINUOUS
10
6.0771824015748033
20
-4.9489408267716533
11
6.0766497244094486
21
-4.9484081496062995
0
LINE
8
BLACK
6
CONTINUOUS
10
6.0766497244094486
20
-4.9484081496062995
11
6.0765748031496063
21
-4.8314960629921258
0
LINE
8
BLACK
6
CONTINUOUS
10
6.0765748031496063
20
-4.8314960629921258
11
6.0766497244094486
21
-4.831119409448819
0
LINE
8
BLACK
6
CONTINUOUS
10
6.0766497244094486
20
-4.831119409448819
11
6.0771824015748033
21
-4.8305867322834644
0
LINE
8
BLACK
6
CONTINUOUS
10
6.0771824015748033
20
-4.8305867322834644
11
6.13503937007874
21
-4.830511811023622
0
LINE
8
BLACK
6
CONTINUOUS
10
6.13503937007874
20
-4.830511811023622
11
6.1354160236220467
21
-4.8305867322834644
0
LINE
8
BLACK
6
CONTINUOUS
10
6.078469251968504
20
-4.8324791338582678
11
6.0785427165354333
21
-4.9471203937007875
0
LINE
8
BLACK
6
CONTINUOUS
10
6.0785427165354333
20
-4.9471203937007875
11
6.1341291338582673
21
-4.947048385826772
0
LINE
8
BLACK
6
CONTINUOUS
10
6.1341291338582673
20
-4.947048385826772
11
6.1340556692913388
21
-4.8324071259842523
0
LINE
8
BLACK
6
CONTINUOUS
10
6.1340556692913388
20
-4.8324071259842523
11
6.078469251968504
21
-4.8324791338582678
0
LINE
8
BLACK
6
CONTINUOUS
10
5.5340380708661412
20
-4.8207442125984254
11
5.5345707480314958
21
-4.8212768897637792
0
LINE
8
BLACK
6
CONTINUOUS
10
5.5345707480314958
20
-4.8212768897637792
11
5.5345789763779525
21
-4.8276330314960632
0
LINE
8
BLACK
6
CONTINUOUS
10
5.5345789763779525
20
-4.8276330314960632
11
5.5917322834645669
21
-4.82755905511811
0
LINE
8
BLACK
6
CONTINUOUS
10
5.5917322834645669
20
-4.82755905511811
11
5.5921089370078736
21
-4.8276339763779523
0
LINE
8
BLACK
6
CONTINUOUS
10
5.5921089370078736
20
-4.8276339763779523
11
5.5926416141732282
21
-4.828166653543307
0
LINE
8
BLACK
6
CONTINUOUS
10
5.5926416141732282
20
-4.828166653543307
11
5.5926444094488188
21
-4.8325547637795276
0
LINE
8
BLACK
6
CONTINUOUS
10
5.5926444094488188
20
-4.8325547637795276
11
5.7088582677165354
21
-4.8324803149606295
0
LINE
8
BLACK
6
CONTINUOUS
10
5.7088582677165354
20
-4.8324803149606295
11
5.7092349212598421
21
-4.8325552362204727
0
LINE
8
BLACK
6
CONTINUOUS
10
5.7092349212598421
20
-4.8325552362204727
11
5.7096456692913389
21
-4.8329659842519685
0
LINE
8
BLACK
6
CONTINUOUS
10
5.7096456692913389
20
-4.8329659842519685
11
5.7100564173228348
21
-4.8325552362204727
0
LINE
8
BLACK
6
CONTINUOUS
10
5.7100564173228348
20
-4.8325552362204727
11
5.8269685039370076
21
-4.8324803149606295
0
LINE
8
BLACK
6
CONTINUOUS
10
5.8269685039370076
20
-4.8324803149606295
11
5.8273451574803152
21
-4.8325552362204727
0
LINE
8
BLACK
6
CONTINUOUS
10
5.8273451574803152
20
-4.8325552362204727
11
5.827877834645669
21
-4.8330879133858264
0
LINE
8
BLACK
6
CONTINUOUS
10
5.827877834645669
20
-4.8330879133858264
11
5.8279527559055113
21
-4.8909448818897641
0
LINE
8
BLACK
6
CONTINUOUS
10
5.8279527559055113
20
-4.8909448818897641
11
5.827877834645669
21
-4.8913215354330708
0
LINE
8
BLACK
6
CONTINUOUS
10
5.827877834645669
20
-4.8913215354330708
11
5.8273451574803152
21
-4.8918542125984255
0
LINE
8
BLACK
6
CONTINUOUS
10
5.8273451574803152
20
-4.8918542125984255
11
5.7104330708661415
21
-4.8919291338582678
0
LINE
8
BLACK
6
CONTINUOUS
10
5.7104330708661415
20
-4.8919291338582678
11
5.7100564173228348
21
-4.8918542125984255
0
LINE
8
BLACK
6
CONTINUOUS
10
5.7100564173228348
20
-4.8918542125984255
11
5.7096456692913389
21
-4.8914434645669287
0
LINE
8
BLACK
6
CONTINUOUS
10
5.7096456692913389
20
-4.8914434645669287
11
5.7092349212598421
21
-4.8918542125984255
0
LINE
8
BLACK
6
CONTINUOUS
10
5.7092349212598421
20
-4.8918542125984255
11
5.5926824409448814
21
-4.8919288976377953
0
LINE
8
BLACK
6
CONTINUOUS
10
5.5926824409448814
20
-4.8919288976377953
11
5.5927165354330706
21
-4.9450787401574798
0
LINE
8
BLACK
6
CONTINUOUS
10
5.5927165354330706
20
-4.9450787401574798
11
5.5926416141732282
21
-4.9454553937007875
0
LINE
8
BLACK
6
CONTINUOUS
10
5.5926416141732282
20
-4.9454553937007875
11
5.5921089370078736
21
-4.9459880708661412
0
LINE
8
BLACK
6
CONTINUOUS
10
5.5921089370078736
20
-4.9459880708661412
11
5.5342519685039369
21
-4.9460629921259844
0
LINE
8
BLACK
6
CONTINUOUS
10
5.5342519685039369
20
-4.9460629921259844
11
5.5338753149606301
21
-4.9459880708661412
0
LINE
8
BLACK
6
CONTINUOUS
10
5.5338753149606301
20
-4.9459880708661412
11
5.5333426377952755
21
-4.9454553937007875
0
LINE
8
BLACK
6
CONTINUOUS
10
5.5333426377952755
20
-4.9454553937007875
11
5.5333007086614172
21
-4.8800436614173224
0
LINE
8
BLACK
6
CONTINUOUS
10
5.5333007086614172
20
-4.8800436614173224
11
5.4171259842519683
21
-4.8801181102362206
0
LINE
8
BLACK
6
CONTINUOUS
10
5.4171259842519683
20
-4.8801181102362206
11
5.4167493307086616
21
-4.8800431889763782
0
LINE
8
BLACK
6
CONTINUOUS
10
5.4167493307086616
20
-4.8800431889763782
11
5.4163385826771648
21
-4.8796324409448815
0
LINE
8
BLACK
6
CONTINUOUS
10
5.4163385826771648
20
-4.8796324409448815
11
5.415927834645669
21
-4.8800431889763782
0
LINE
8
BLACK
6
CONTINUOUS
10
5.415927834645669
20
-4.8800431889763782
11
5.2990157480314961
21
-4.8801181102362206
0
LINE
8
BLACK
6
CONTINUOUS
10
5.2990157480314961
20
-4.8801181102362206
11
5.2986390944881885
21
-4.8800431889763782
0
LINE
8
BLACK
6
CONTINUOUS
10
5.2986390944881885
20
-4.8800431889763782
11
5.2981064173228347
21
-4.8795105118110236
0
LINE
8
BLACK
6
CONTINUOUS
10
5.2981064173228347
20
-4.8795105118110236
11
5.2980314960629924
21
-4.8216535433070868
0
LINE
8
BLACK
6
CONTINUOUS
10
5.2980314960629924
20
-4.8216535433070868
11
5.2981064173228347
21
-4.8212768897637792
0
LINE
8
BLACK
6
CONTINUOUS
10
5.2981064173228347
20
-4.8212768897637792
11
5.2986390944881885
21
-4.8207442125984254
0
LINE
8
BLACK
6
CONTINUOUS
10
5.2986390944881885
20
-4.8207442125984254
11
5.4155511811023622
21
-4.8206692913385822
0
LINE
8
BLACK
6
CONTINUOUS
10
5.4155511811023622
20
-4.8206692913385822
11
5.415927834645669
21
-4.8207442125984254
0
LINE
8
BLACK
6
CONTINUOUS
10
5.415927834645669
20
-4.8207442125984254
11
5.4163385826771648
21
-4.8211549606299213
0
LINE
8
BLACK
6
CONTINUOUS
10
5.4163385826771648
20
-4.8211549606299213
11
5.4167493307086616
21
-4.8207442125984254
0
LINE
8
BLACK
6
CONTINUOUS
10
5.4167493307086616
20
-4.8207442125984254
11
5.5336614173228345
21
-4.8206692913385822
0
LINE
8
BLACK
6
CONTINUOUS
10
5.5336614173228345
20
-4.8206692913385822
11
5.5340380708661412
21
-4.8207442125984254
0
LINE
8
BLACK
6
CONTINUOUS
10
5.5351621653543308
20
-4.8295263779527557
11
5.5352356299212593
21
-4.9441676377952755
0
LINE
8
BLACK
6
CONTINUOUS
10
5.5352356299212593
20
-4.9441676377952755
11
5.5908220472440942
21
-4.9440956299212599
0
LINE
8
BLACK
6
CONTINUOUS
10
5.5908220472440942
20
-4.9440956299212599
11
5.5907485826771648
21
-4.8294543700787402
0
LINE
8
BLACK
6
CONTINUOUS
10
5.5907485826771648
20
-4.8294543700787402
11
5.5351621653543308
21
-4.8295263779527557
0
LINE
8
BLACK
6
CONTINUOUS
10
5.5932338976377949
20
-4.8344482283464565
11
5.5933059055118113
21
-4.8900346456692914
0
LINE
8
BLACK
6
CONTINUOUS
10
5.5933059055118113
20
-4.8900346456692914
11
5.707947165354331
21
-4.889961181102362
0
LINE
8
BLACK
6
CONTINUOUS
10
5.707947165354331
20
-4.889961181102362
11
5.7078751574803146
21
-4.8343747637795271
0
LINE
8
BLACK
6
CONTINUOUS
10
5.7078751574803146
20
-4.8343747637795271
11
5.5932338976377949
21
-4.8344482283464565
0
LINE
8
BLACK
6
CONTINUOUS
10
5.711344133858268
20
-4.8344482283464565
11
5.7114161417322835
21
-4.8900346456692914
0
LINE
8
BLACK
6
CONTINUOUS
10
5.7114161417322835
20
-4.8900346456692914
11
5.8260574015748032
21
-4.889961181102362
0
LINE
8
BLACK
6
CONTINUOUS
10
5.8260574015748032
20
-4.889961181102362
11
5.8259853937007868
21
-4.8343747637795271
0
LINE
8
BLACK
6
CONTINUOUS
10
5.8259853937007868
20
-4.8343747637795271
11
5.711344133858268
21
-4.8344482283464565
0
LINE
8
BLACK
6
CONTINUOUS
10
5.2999268110236217
20
-4.8226372047244093
11
5.2999988188976372
21
-4.8782236220472441
0
LINE
8
BLACK
6
CONTINUOUS
10
5.2999988188976372
20
-4.8782236220472441
11
5.414640078740157
21
-4.8781501574803148
0
LINE
8
BLACK
6
CONTINUOUS
10
5.414640078740157
20
-4.8781501574803148
11
5.4145680708661414
21
-4.8225637401574799
0
LINE
8
BLACK
6
CONTINUOUS
10
5.4145680708661414
20
-4.8225637401574799
11
5.2999268110236217
21
-4.8226372047244093
0
LINE
8
BLACK
6
CONTINUOUS
10
5.418037047244094
20
-4.8226372047244093
11
5.4181090551181104
21
-4.8782236220472441
0
LINE
8
BLACK
6
CONTINUOUS
10
5.4181090551181104
20
-4.8782236220472441
11
5.5327503149606301
21
-4.8781501574803148
0
LINE
8
BLACK
6
CONTINUOUS
10
5.5327503149606301
20
-4.8781501574803148
11
5.5326783070866137
21
-4.8225637401574799
0
LINE
8
BLACK
6
CONTINUOUS
10
5.5326783070866137
20
-4.8225637401574799
11
5.418037047244094
21
-4.8226372047244093
0
LINE
8
BLACK
6
CONTINUOUS
10
6.0743924015748032
20
-4.8325552362204727
11
6.074925078740157
21
-4.8330879133858264
0
LINE
8
BLACK
6
CONTINUOUS
10
6.074925078740157
20
-4.8330879133858264
11
6.0750000000000002
21
-4.8909448818897641
0
LINE
8
BLACK
6
CONTINUOUS
10
6.0750000000000002
20
-4.8909448818897641
11
6.074925078740157
21
-4.8913215354330708
0
LINE
8
BLACK
6
CONTINUOUS
10
6.074925078740157
20
-4.8913215354330708
11
6.0743924015748032
21
-4.8918542125984255
0
LINE
8
BLACK
6
CONTINUOUS
10
6.0743924015748032
20
-4.8918542125984255
11
5.9574803149606295
21
-4.8919291338582678
0
LINE
8
BLACK
6
CONTINUOUS
10
5.9574803149606295
20
-4.8919291338582678
11
5.9571036614173227
21
-4.8918542125984255
0
LINE
8
BLACK
6
CONTINUOUS
10
5.9571036614173227
20
-4.8918542125984255
11
5.9566929133858268
21
-4.8914434645669287
0
LINE
8
BLACK
6
CONTINUOUS
10
5.9566929133858268
20
-4.8914434645669287
11
5.956282165354331
21
-4.8918542125984255
0
LINE
8
BLACK
6
CONTINUOUS
10
5.956282165354331
20
-4.8918542125984255
11
5.8393700787401572
21
-4.8919291338582678
0
LINE
8
BLACK
6
CONTINUOUS
10
5.8393700787401572
20
-4.8919291338582678
11
5.8389934251968505
21
-4.8918542125984255
0
LINE
8
BLACK
6
CONTINUOUS
10
5.8389934251968505
20
-4.8918542125984255
11
5.8384607480314958
21
-4.8913215354330708
0
LINE
8
BLACK
6
CONTINUOUS
10
5.8384607480314958
20
-4.8913215354330708
11
5.8383858267716535
21
-4.8334645669291341
0
LINE
8
BLACK
6
CONTINUOUS
10
5.8383858267716535
20
-4.8334645669291341
11
5.8384607480314958
21
-4.8330879133858264
0
LINE
8
BLACK
6
CONTINUOUS
10
5.8384607480314958
20
-4.8330879133858264
11
5.8389934251968505
21
-4.8325552362204727
0
LINE
8
BLACK
6
CONTINUOUS
10
5.8389934251968505
20
-4.8325552362204727
11
5.9559055118110233
21
-4.8324803149606295
0
LINE
8
BLACK
6
CONTINUOUS
10
5.9559055118110233
20
-4.8324803149606295
11
5.956282165354331
21
-4.8325552362204727
0
LINE
8
BLACK
6
CONTINUOUS
10
5.956282165354331
20
-4.8325552362204727
11
5.9566929133858268
21
-4.8329659842519685
0
LINE
8
BLACK
6
CONTINUOUS
10
5.9566929133858268
20
-4.8329659842519685
11
5.9571036614173227
21
-4.8325552362204727
0
LINE
8
BLACK
6
CONTINUOUS
10
5.9571036614173227
20
-4.8325552362204727
11
6.0740157480314956
21
-4.8324803149606295
0
LINE
8
BLACK
6
CONTINUOUS
10
6.0740157480314956
20
-4.8324803149606295
11
6.0743924015748032
21
-4.8325552362204727
0
LINE
8
BLACK
6
CONTINUOUS
10
5.8402811417322837
20
-4.8344482283464565
11
5.8403531496062993
21
-4.8900346456692914
0
LINE
8
BLACK
6
CONTINUOUS
10
5.8403531496062993
20
-4.8900346456692914
11
5.954994409448819
21
-4.889961181102362
0
LINE
8
BLACK
6
CONTINUOUS
10
5.954994409448819
20
-4.889961181102362
11
5.9549224015748026
21
-4.8343747637795271
0
LINE
8
BLACK
6
CONTINUOUS
10
5.9549224015748026
20
-4.8343747637795271
11
5.8402811417322837
21
-4.8344482283464565
0
LINE
8
BLACK
6
CONTINUOUS
10
5.958391377952756
20
-4.8344482283464565
11
5.9584633858267715
21
-4.8900346456692914
0
LINE
8
BLACK
6
CONTINUOUS
10
5.9584633858267715
20
-4.8900346456692914
11
6.0731046456692912
21
-4.889961181102362
0
LINE
8
BLACK
6
CONTINUOUS
10
6.0731046456692912
20
-4.889961181102362
11
6.0730326377952757
21
-4.8343747637795271
0
LINE
8
BLACK
6
CONTINUOUS
10
6.0730326377952757
20
-4.8343747637795271
11
5.958391377952756
21
-4.8344482283464565
0
LINE
8
BLACK
6
CONTINUOUS
10
6.3726207480314958
20
-4.8286182283464569
11
6.3731534251968505
21
-4.8291509055118107
0
LINE
8
BLACK
6
CONTINUOUS
10
6.3731534251968505
20
-4.8291509055118107
11
6.3732283464566928
21
-4.8870078740157483
0
LINE
8
BLACK
6
CONTINUOUS
10
6.3732283464566928
20
-4.8870078740157483
11
6.3731534251968505
21
-4.8873845275590551
0
LINE
8
BLACK
6
CONTINUOUS
10
6.3731534251968505
20
-4.8873845275590551
11
6.3726207480314958
21
-4.8879172047244097
0
LINE
8
BLACK
6
CONTINUOUS
10
6.3726207480314958
20
-4.8879172047244097
11
6.255708661417323
21
-4.887992125984252
0
LINE
8
BLACK
6
CONTINUOUS
10
6.255708661417323
20
-4.887992125984252
11
6.2553320078740153
21
-4.8879172047244097
0
LINE
8
BLACK
6
CONTINUOUS
10
6.2553320078740153
20
-4.8879172047244097
11
6.2549212598425195
21
-4.8875064566929129
0
LINE
8
BLACK
6
CONTINUOUS
10
6.2549212598425195
20
-4.8875064566929129
11
6.2545105118110236
21
-4.8879172047244097
0
LINE
8
BLACK
6
CONTINUOUS
10
6.2545105118110236
20
-4.8879172047244097
11
6.1375984251968498
21
-4.887992125984252
0
LINE
8
BLACK
6
CONTINUOUS
10
6.1375984251968498
20
-4.887992125984252
11
6.1372217716535431
21
-4.8879172047244097
0
LINE
8
BLACK
6
CONTINUOUS
10
6.1372217716535431
20
-4.8879172047244097
11
6.1366890944881884
21
-4.8873845275590551
0
LINE
8
BLACK
6
CONTINUOUS
10
6.1366890944881884
20
-4.8873845275590551
11
6.1366141732283461
21
-4.8295275590551183
0
LINE
8
BLACK
6
CONTINUOUS
10
6.1366141732283461
20
-4.8295275590551183
11
6.1366890944881884
21
-4.8291509055118107
0
LINE
8
BLACK
6
CONTINUOUS
10
6.1366890944881884
20
-4.8291509055118107
11
6.1372217716535431
21
-4.8286182283464569
0
LINE
8
BLACK
6
CONTINUOUS
10
6.1372217716535431
20
-4.8286182283464569
11
6.254133858267716
21
-4.8285433070866137
0
LINE
8
BLACK
6
CONTINUOUS
10
6.254133858267716
20
-4.8285433070866137
11
6.2545105118110236
21
-4.8286182283464569
0
LINE
8
BLACK
6
CONTINUOUS
10
6.2545105118110236
20
-4.8286182283464569
11
6.2549212598425195
21
-4.8290289763779528
0
LINE
8
BLACK
6
CONTINUOUS
10
6.2549212598425195
20
-4.8290289763779528
11
6.2553320078740153
21
-4.8286182283464569
0
LINE
8
BLACK
6
CONTINUOUS
10
6.2553320078740153
20
-4.8286182283464569
11
6.3722440944881891
21
-4.8285433070866137
0
LINE
8
BLACK
6
CONTINUOUS
10
6.3722440944881891
20
-4.8285433070866137
11
6.3726207480314958
21
-4.8286182283464569
0
LINE
8
BLACK
6
CONTINUOUS
10
6.1385094881889763
20
-4.8305112204724407
11
6.1385814960629919
21
-4.8860976377952756
0
LINE
8
BLACK
6
CONTINUOUS
10
6.1385814960629919
20
-4.8860976377952756
11
6.2532227559055116
21
-4.8860241732283463
0
LINE
8
BLACK
6
CONTINUOUS
10
6.2532227559055116
20
-4.8860241732283463
11
6.2531507480314961
21
-4.8304377559055114
0
LINE
8
BLACK
6
CONTINUOUS
10
6.2531507480314961
20
-4.8304377559055114
11
6.1385094881889763
21
-4.8305112204724407
0
LINE
8
BLACK
6
CONTINUOUS
10
6.2566197244094486
20
-4.8305112204724407
11
6.2566917322834641
21
-4.8860976377952756
0
LINE
8
BLACK
6
CONTINUOUS
10
6.2566917322834641
20
-4.8860976377952756
11
6.3713329921259838
21
-4.8860241732283463
0
LINE
8
BLACK
6
CONTINUOUS
10
6.3713329921259838
20
-4.8860241732283463
11
6.3712609842519683
21
-4.8304377559055114
0
LINE
8
BLACK
6
CONTINUOUS
10
6.3712609842519683
20
-4.8304377559055114
11
6.2566197244094486
21
-4.8305112204724407
0
LINE
8
BLACK
6
CONTINUOUS
10
5.259431771653543
20
-4.8049961811023625
11
5.2599644488188977
21
-4.8055288582677163
0
LINE
8
BLACK
6
CONTINUOUS
10
5.2599644488188977
20
-4.8055288582677163
11
5.26003937007874
21
-4.8633858267716539
0
LINE
8
BLACK
6
CONTINUOUS
10
5.26003937007874
20
-4.8633858267716539
11
5.2599644488188977
21
-4.8637624803149606
0
LINE
8
BLACK
6
CONTINUOUS
10
5.2599644488188977
20
-4.8637624803149606
11
5.259431771653543
21
-4.8642951574803153
0
LINE
8
BLACK
6
CONTINUOUS
10
5.259431771653543
20
-4.8642951574803153
11
5.1425196850393702
21
-4.8643700787401576
0
LINE
8
BLACK
6
CONTINUOUS
10
5.1425196850393702
20
-4.8643700787401576
11
5.1421430314960626
21
-4.8642951574803153
0
LINE
8
BLACK
6
CONTINUOUS
10
5.1421430314960626
20
-4.8642951574803153
11
5.1416103543307088
21
-4.8637624803149606
0
LINE
8
BLACK
6
CONTINUOUS
10
5.1416103543307088
20
-4.8637624803149606
11
5.1415354330708665
21
-4.8059055118110239
0
LINE
8
BLACK
6
CONTINUOUS
10
5.1415354330708665
20
-4.8059055118110239
11
5.1416103543307088
21
-4.8055288582677163
0
LINE
8
BLACK
6
CONTINUOUS
10
5.1416103543307088
20
-4.8055288582677163
11
5.1421430314960626
21
-4.8049961811023625
0
LINE
8
BLACK
6
CONTINUOUS
10
5.1421430314960626
20
-4.8049961811023625
11
5.2590551181102363
21
-4.8049212598425193
0
LINE
8
BLACK
6
CONTINUOUS
10
5.2590551181102363
20
-4.8049212598425193
11
5.259431771653543
21
-4.8049961811023625
0
LINE
8
BLACK
6
CONTINUOUS
10
5.1434307480314958
20
-4.8068891732283463
11
5.1435027559055113
21
-4.8624755905511812
0
LINE
8
BLACK
6
CONTINUOUS
10
5.1435027559055113
20
-4.8624755905511812
11
5.258144015748031
21
-4.8624021259842518
0
LINE
8
BLACK
6
CONTINUOUS
10
5.258144015748031
20
-4.8624021259842518
11
5.2580720078740155
21
-4.8068157086614169
0
LINE
8
BLACK
6
CONTINUOUS
10
5.2580720078740155
20
-4.8068157086614169
11
5.1434307480314958
21
-4.8068891732283463
0
LINE
8
BLACK
6
CONTINUOUS
10
6.5104160236220467
20
-4.8049961811023625
11
6.5109487007874014
21
-4.8055288582677163
0
LINE
8
BLACK
6
CONTINUOUS
10
6.5109487007874014
20
-4.8055288582677163
11
6.5110236220472437
21
-4.8633858267716539
0
LINE
8
BLACK
6
CONTINUOUS
10
6.5110236220472437
20
-4.8633858267716539
11
6.5109487007874014
21
-4.8637624803149606
0
LINE
8
BLACK
6
CONTINUOUS
10
6.5109487007874014
20
-4.8637624803149606
11
6.5104160236220467
21
-4.8642951574803153
0
LINE
8
BLACK
6
CONTINUOUS
10
6.5104160236220467
20
-4.8642951574803153
11
6.3935039370078739
21
-4.8643700787401576
0
LINE
8
BLACK
6
CONTINUOUS
10
6.3935039370078739
20
-4.8643700787401576
11
6.3931272834645672
21
-4.8642951574803153
0
LINE
8
BLACK
6
CONTINUOUS
10
6.3931272834645672
20
-4.8642951574803153
11
6.3925946062992125
21
-4.8637624803149606
0
LINE
8
BLACK
6
CONTINUOUS
10
6.3925946062992125
20
-4.8637624803149606
11
6.3925196850393702
21
-4.8059055118110239
0
LINE
8
BLACK
6
CONTINUOUS
10
6.3925196850393702
20
-4.8059055118110239
11
6.3925946062992125
21
-4.8055288582677163
0
LINE
8
BLACK
6
CONTINUOUS
10
6.3925946062992125
20
-4.8055288582677163
11
6.3931272834645672
21
-4.8049961811023625
0
LINE
8
BLACK
6
CONTINUOUS
10
6.3931272834645672
20
-4.8049961811023625
11
6.51003937007874
21
-4.8049212598425193
0
LINE
8
BLACK
6
CONTINUOUS
10
6.51003937007874
20
-4.8049212598425193
11
6.5104160236220467
21
-4.8049961811023625
0
LINE
8
BLACK
6
CONTINUOUS
10
6.3944149999999995
20
-4.8068891732283463
11
6.3944870078740159
21
-4.8624755905511812
0
LINE
8
BLACK
6
CONTINUOUS
10
6.3944870078740159
20
-4.8624755905511812
11
6.5091282677165356
21
-4.8624021259842518
0
LINE
8
BLACK
6
CONTINUOUS
10
6.5091282677165356
20
-4.8624021259842518
11
6.5090562598425192
21
-4.8068157086614169
0
LINE
8
BLACK
6
CONTINUOUS
10
6.5090562598425192
20
-4.8068157086614169
11
6.3944149999999995
21
-4.8068891732283463
0
LINE
8
BLACK
6
CONTINUOUS
10
5.9511640551181104
20
-3.8357048425196849
11
5.9516967322834642
21
-3.8362375196850391
0
LINE
8
BLACK
6
CONTINUOUS
10
5.9516967322834642
20
-3.8362375196850391
11
5.9517713385826774
21
-4.0758612992125984
0
LINE
8
BLACK
6
CONTINUOUS
10
5.9517713385826774
20
-4.0758612992125984
11
6.0511811023622046
21
-4.0757874015748028
0
LINE
8
BLACK
6
CONTINUOUS
10
6.0511811023622046
20
-4.0757874015748028
11
6.0515577559055114
21
-4.075862322834646
0
LINE
8
BLACK
6
CONTINUOUS
10
6.0515577559055114
20
-4.075862322834646
11
6.052090433070866
21
-4.0763949999999998
0
LINE
8
BLACK
6
CONTINUOUS
10
6.052090433070866
20
-4.0763949999999998
11
6.0521653543307083
21
-4.4921259842519685
0
LINE
8
BLACK
6
CONTINUOUS
10
6.0521653543307083
20
-4.4921259842519685
11
6.052090433070866
21
-4.4925026377952753
0
LINE
8
BLACK
6
CONTINUOUS
10
6.052090433070866
20
-4.4925026377952753
11
6.0515577559055114
21
-4.4930353149606299
0
LINE
8
BLACK
6
CONTINUOUS
10
6.0515577559055114
20
-4.4930353149606299
11
5.4055118110236222
21
-4.4931102362204722
0
LINE
8
BLACK
6
CONTINUOUS
10
5.4055118110236222
20
-4.4931102362204722
11
5.4051351574803146
21
-4.4930353149606299
0
LINE
8
BLACK
6
CONTINUOUS
10
5.4051351574803146
20
-4.4930353149606299
11
5.4046024803149608
21
-4.4925026377952753
0
LINE
8
BLACK
6
CONTINUOUS
10
5.4046024803149608
20
-4.4925026377952753
11
5.4045275590551176
21
-4.0767716535433074
0
LINE
8
BLACK
6
CONTINUOUS
10
5.4045275590551176
20
-4.0767716535433074
11
5.4046024803149608
21
-4.0763949999999998
0
LINE
8
BLACK
6
CONTINUOUS
10
5.4046024803149608
20
-4.0763949999999998
11
5.4051351574803146
21
-4.075862322834646
0
LINE
8
BLACK
6
CONTINUOUS
10
5.4051351574803146
20
-4.075862322834646
11
5.5049957480314955
21
-4.0757880708661416
0
LINE
8
BLACK
6
CONTINUOUS
10
5.5049957480314955
20
-4.0757880708661416
11
5.5049212598425195
21
-3.8366141732283463
0
LINE
8
BLACK
6
CONTINUOUS
10
5.5049212598425195
20
-3.8366141732283463
11
5.5049961811023618
21
-3.8362375196850391
0
LINE
8
BLACK
6
CONTINUOUS
10
5.5049961811023618
20
-3.8362375196850391
11
5.5055288582677164
21
-3.8357048425196849
0
LINE
8
BLACK
6
CONTINUOUS
10
5.5055288582677164
20
-3.8357048425196849
11
5.9507874015748028
21
-3.8356299212598426
0
LINE
8
BLACK
6
CONTINUOUS
10
5.9507874015748028
20
-3.8356299212598426
11
5.9511640551181104
21
-3.8357048425196849
0
LINE
8
BLACK
6
CONTINUOUS
10
5.5068152362204721
20
-3.8375982677165354
11
5.5068897637795278
21
-4.0767716535433074
0
LINE
8
BLACK
6
CONTINUOUS
10
5.5068897637795278
20
-4.0767716535433074
11
5.5068148425196846
21
-4.0771483070866141
0
LINE
8
BLACK
6
CONTINUOUS
10
5.5068148425196846
20
-4.0771483070866141
11
5.5062821653543308
21
-4.0776809842519688
0
LINE
8
BLACK
6
CONTINUOUS
10
5.5062821653543308
20
-4.0776809842519688
11
5.4064213779527561
21
-4.0777551968503936
0
LINE
8
BLACK
6
CONTINUOUS
10
5.4064213779527561
20
-4.0777551968503936
11
5.4064958661417322
21
-4.4912164566929134
0
LINE
8
BLACK
6
CONTINUOUS
10
5.4064958661417322
20
-4.4912164566929134
11
6.050271496062992
21
-4.4911418110236223
0
LINE
8
BLACK
6
CONTINUOUS
10
6.050271496062992
20
-4.4911418110236223
11
6.0501970078740159
21
-4.0776819685039367
0
LINE
8
BLACK
6
CONTINUOUS
10
6.0501970078740159
20
-4.0776819685039367
11
5.9507874015748028
21
-4.0777559055118111
0
LINE
8
BLACK
6
CONTINUOUS
10
5.9507874015748028
20
-4.0777559055118111
11
5.9504107480314961
21
-4.0776809842519688
0
LINE
8
BLACK
6
CONTINUOUS
10
5.9504107480314961
20
-4.0776809842519688
11
5.9498780708661414
21
-4.0771483070866141
0
LINE
8
BLACK
6
CONTINUOUS
10
5.9498780708661414
20
-4.0771483070866141
11
5.9498034251968503
21
-3.8375237007874015
0
LINE
8
BLACK
6
CONTINUOUS
10
5.9498034251968503
20
-3.8375237007874015
11
5.5068152362204721
21
-3.8375982677165354
  0
ENDSEC
  0
EOF
