  0
SECTION
  2
HEADER
  9
$ANGBASE
  50
0.0
  9
$ANGDIR
  70
1
  9
$MEASUREMENT
  70
0
  0
ENDSEC
  0
SECTION
  2
TABLES
  0
TABLE
  2
LTYPE
  70
4
  0
LTYPE
  5
40F
  2
CONTINUOUS
  70
0
  3
Solid line
  72
65
  73
0
  40
0.0
  0
LTYPE
  5
410
  2
DASHDOT
 70
0
  3
Dash Dot ____ _ ____ _
 72
65
 73
4
 40
2.0
 49
1.25
 49
-0.25
 49
0.25
 49
-0.25
  0
LTYPE
  5
411
  2
DASHED
 70
0
  3
Dashed __ __ __ __ __
 72
65
 73
2
 40
0.75
 49
0.5
 49
-0.25
  0
LTYPE
  5
43B
  2
DOTTED
 70
0
  3
Dotted .  .  .  .
 72
65
 73
2
 40
0.2
 49
0.0
 49
-0.2
  0
ENDTAB
  0
TABLE
  2
STYLE
  70
4
  0
STYLE
  2
KICAD
  70
0
  40
0
  41
1
  42
1
  50
0
  71
0
  3
isocp.shx
  0
STYLE
  2
KICADB
  70
0
  40
0
  41
1
  42
1
  50
0
  71
0
  3
isocp.shx
  0
STYLE
  2
KICADI
  70
0
  40
0
  41
1
  42
1
  50
15
  71
0
  3
isocp.shx
  0
STYLE
  2
KICADBI
  70
0
  40
0
  41
1
  42
1
  50
15
  71
0
  3
isocp.shx
  0
ENDTAB
  0
TABLE
  2
LAYER
  70
1
  0
LAYER
  2
BLACK
  70
0
  62
7
  6
CONTINUOUS
  0
ENDTAB
  0
ENDSEC
  0
SECTION
  2
ENTITIES
0
LINE
8
BLACK
6
CONTINUOUS
10
5.7272205118110238
20
-5.355093307086614
11
5.7356722834645666
21
-5.3573579527559057
0
LINE
8
BLACK
6
CONTINUOUS
10
5.7356722834645666
20
-5.3573579527559057
11
5.7436023622047241
21
-5.3610558267716533
0
LINE
8
BLACK
6
CONTINUOUS
10
5.7436023622047241
20
-5.3610558267716533
11
5.7507698425196851
21
-5.3660745275590553
0
LINE
8
BLACK
6
CONTINUOUS
10
5.7507698425196851
20
-5.3660745275590553
11
5.7569569685039372
21
-5.3722616535433065
0
LINE
8
BLACK
6
CONTINUOUS
10
5.7569569685039372
20
-5.3722616535433065
11
5.7619756692913384
21
-5.3794291338582676
0
LINE
8
BLACK
6
CONTINUOUS
10
5.7619756692913384
20
-5.3794291338582676
11
5.7656735433070869
21
-5.3873592125984251
0
LINE
8
BLACK
6
CONTINUOUS
10
5.7656735433070869
20
-5.3873592125984251
11
5.7679381889763777
21
-5.3958109842519688
0
LINE
8
BLACK
6
CONTINUOUS
10
5.7679381889763777
20
-5.3958109842519688
11
5.768700787401575
21
-5.4045275590551176
0
LINE
8
BLACK
6
CONTINUOUS
10
5.768700787401575
20
-5.4045275590551176
11
5.7679381889763777
21
-5.4132441338582673
0
LINE
8
BLACK
6
CONTINUOUS
10
5.7679381889763777
20
-5.4132441338582673
11
5.7656735433070869
21
-5.421695905511811
0
LINE
8
BLACK
6
CONTINUOUS
10
5.7656735433070869
20
-5.421695905511811
11
5.7619756692913384
21
-5.4296259842519685
0
LINE
8
BLACK
6
CONTINUOUS
10
5.7619756692913384
20
-5.4296259842519685
11
5.7569569685039372
21
-5.4367934645669287
0
LINE
8
BLACK
6
CONTINUOUS
10
5.7569569685039372
20
-5.4367934645669287
11
5.7507698425196851
21
-5.4429805905511808
0
LINE
8
BLACK
6
CONTINUOUS
10
5.7507698425196851
20
-5.4429805905511808
11
5.7436023622047241
21
-5.4479992913385829
0
LINE
8
BLACK
6
CONTINUOUS
10
5.7436023622047241
20
-5.4479992913385829
11
5.7356722834645666
21
-5.4516971653543305
0
LINE
8
BLACK
6
CONTINUOUS
10
5.7356722834645666
20
-5.4516971653543305
11
5.7272205118110238
21
-5.4539618110236221
0
LINE
8
BLACK
6
CONTINUOUS
10
5.7272205118110238
20
-5.4539618110236221
11
5.7185039370078741
21
-5.4547244094488185
0
LINE
8
BLACK
6
CONTINUOUS
10
5.7185039370078741
20
-5.4547244094488185
11
5.7097873622047244
21
-5.4539618110236221
0
LINE
8
BLACK
6
CONTINUOUS
10
5.7097873622047244
20
-5.4539618110236221
11
5.7013355905511807
21
-5.4516971653543305
0
LINE
8
BLACK
6
CONTINUOUS
10
5.7013355905511807
20
-5.4516971653543305
11
5.6934055118110232
21
-5.4479992913385829
0
LINE
8
BLACK
6
CONTINUOUS
10
5.6934055118110232
20
-5.4479992913385829
11
5.686238031496063
21
-5.4429805905511808
0
LINE
8
BLACK
6
CONTINUOUS
10
5.686238031496063
20
-5.4429805905511808
11
5.6800509055118109
21
-5.4367934645669287
0
LINE
8
BLACK
6
CONTINUOUS
10
5.6800509055118109
20
-5.4367934645669287
11
5.6750322047244097
21
-5.4296259842519685
0
LINE
8
BLACK
6
CONTINUOUS
10
5.6750322047244097
20
-5.4296259842519685
11
5.6713343307086612
21
-5.421695905511811
0
LINE
8
BLACK
6
CONTINUOUS
10
5.6713343307086612
20
-5.421695905511811
11
5.6690696850393696
21
-5.4132441338582673
0
LINE
8
BLACK
6
CONTINUOUS
10
5.6690696850393696
20
-5.4132441338582673
11
5.6683070866141732
21
-5.4045275590551176
0
LINE
8
BLACK
6
CONTINUOUS
10
5.6683070866141732
20
-5.4045275590551176
11
5.6690696850393696
21
-5.3958109842519688
0
LINE
8
BLACK
6
CONTINUOUS
10
5.6690696850393696
20
-5.3958109842519688
11
5.6713343307086612
21
-5.3873592125984251
0
LINE
8
BLACK
6
CONTINUOUS
10
5.6713343307086612
20
-5.3873592125984251
11
5.6750322047244097
21
-5.3794291338582676
0
LINE
8
BLACK
6
CONTINUOUS
10
5.6750322047244097
20
-5.3794291338582676
11
5.6800509055118109
21
-5.3722616535433065
0
LINE
8
BLACK
6
CONTINUOUS
10
5.6800509055118109
20
-5.3722616535433065
11
5.686238031496063
21
-5.3660745275590553
0
LINE
8
BLACK
6
CONTINUOUS
10
5.686238031496063
20
-5.3660745275590553
11
5.6934055118110232
21
-5.3610558267716533
0
LINE
8
BLACK
6
CONTINUOUS
10
5.6934055118110232
20
-5.3610558267716533
11
5.7013355905511807
21
-5.3573579527559057
0
LINE
8
BLACK
6
CONTINUOUS
10
5.7013355905511807
20
-5.3573579527559057
11
5.7097873622047244
21
-5.355093307086614
0
LINE
8
BLACK
6
CONTINUOUS
10
5.7097873622047244
20
-5.355093307086614
11
5.7185039370078741
21
-5.3543307086614176
0
LINE
8
BLACK
6
CONTINUOUS
10
5.7185039370078741
20
-5.3543307086614176
11
5.7272205118110238
21
-5.355093307086614
0
LINE
8
BLACK
6
CONTINUOUS
10
5.670826889763779
20
-5.4129343307086613
11
5.6730110236220472
21
-5.4210856299212598
0
LINE
8
BLACK
6
CONTINUOUS
10
5.6730110236220472
20
-5.4210856299212598
11
5.6765774409448815
21
-5.4287338582677167
0
LINE
8
BLACK
6
CONTINUOUS
10
5.6765774409448815
20
-5.4287338582677167
11
5.6814177559055121
21
-5.4356465354330705
0
LINE
8
BLACK
6
CONTINUOUS
10
5.6814177559055121
20
-5.4356465354330705
11
5.6873849606299212
21
-5.4416137401574804
0
LINE
8
BLACK
6
CONTINUOUS
10
5.6873849606299212
20
-5.4416137401574804
11
5.6942976377952759
21
-5.4464540551181102
0
LINE
8
BLACK
6
CONTINUOUS
10
5.6942976377952759
20
-5.4464540551181102
11
5.7019458661417319
21
-5.4500204724409445
0
LINE
8
BLACK
6
CONTINUOUS
10
5.7019458661417319
20
-5.4500204724409445
11
5.7100971653543304
21
-5.4522046062992127
0
LINE
8
BLACK
6
CONTINUOUS
10
5.7100971653543304
20
-5.4522046062992127
11
5.7185039370078741
21
-5.4529401181102362
0
LINE
8
BLACK
6
CONTINUOUS
10
5.7185039370078741
20
-5.4529401181102362
11
5.7269107086614168
21
-5.4522046062992127
0
LINE
8
BLACK
6
CONTINUOUS
10
5.7269107086614168
20
-5.4522046062992127
11
5.7350620078740153
21
-5.4500204724409445
0
LINE
8
BLACK
6
CONTINUOUS
10
5.7350620078740153
20
-5.4500204724409445
11
5.7427102362204723
21
-5.4464540551181102
0
LINE
8
BLACK
6
CONTINUOUS
10
5.7427102362204723
20
-5.4464540551181102
11
5.749622913385827
21
-5.4416137401574804
0
LINE
8
BLACK
6
CONTINUOUS
10
5.749622913385827
20
-5.4416137401574804
11
5.755590118110236
21
-5.4356465354330705
0
LINE
8
BLACK
6
CONTINUOUS
10
5.755590118110236
20
-5.4356465354330705
11
5.7604304330708658
21
-5.4287338582677167
0
LINE
8
BLACK
6
CONTINUOUS
10
5.7604304330708658
20
-5.4287338582677167
11
5.7639968503937009
21
-5.4210856299212598
0
LINE
8
BLACK
6
CONTINUOUS
10
5.7639968503937009
20
-5.4210856299212598
11
5.7661809842519682
21
-5.4129343307086613
0
LINE
8
BLACK
6
CONTINUOUS
10
5.7661809842519682
20
-5.4129343307086613
11
5.7669164960629917
21
-5.4045275590551176
0
LINE
8
BLACK
6
CONTINUOUS
10
5.7669164960629917
20
-5.4045275590551176
11
5.7661809842519682
21
-5.3961207874015749
0
LINE
8
BLACK
6
CONTINUOUS
10
5.7661809842519682
20
-5.3961207874015749
11
5.7639968503937009
21
-5.3879694881889764
0
LINE
8
BLACK
6
CONTINUOUS
10
5.7639968503937009
20
-5.3879694881889764
11
5.7604304330708658
21
-5.3803212992125982
0
LINE
8
BLACK
6
CONTINUOUS
10
5.7604304330708658
20
-5.3803212992125982
11
5.755590118110236
21
-5.3734085826771656
0
LINE
8
BLACK
6
CONTINUOUS
10
5.755590118110236
20
-5.3734085826771656
11
5.749622913385827
21
-5.3674413779527557
0
LINE
8
BLACK
6
CONTINUOUS
10
5.749622913385827
20
-5.3674413779527557
11
5.7427102362204723
21
-5.3626010629921259
0
LINE
8
BLACK
6
CONTINUOUS
10
5.7427102362204723
20
-5.3626010629921259
11
5.7350620078740153
21
-5.3590346456692908
0
LINE
8
BLACK
6
CONTINUOUS
10
5.7350620078740153
20
-5.3590346456692908
11
5.7269107086614168
21
-5.3568505118110235
0
LINE
8
BLACK
6
CONTINUOUS
10
5.7269107086614168
20
-5.3568505118110235
11
5.7185039370078741
21
-5.356115
0
LINE
8
BLACK
6
CONTINUOUS
10
5.7185039370078741
20
-5.356115
11
5.7100971653543304
21
-5.3568505118110235
0
LINE
8
BLACK
6
CONTINUOUS
10
5.7100971653543304
20
-5.3568505118110235
11
5.7019458661417319
21
-5.3590346456692908
0
LINE
8
BLACK
6
CONTINUOUS
10
5.7019458661417319
20
-5.3590346456692908
11
5.6942976771653546
21
-5.3626010629921259
0
LINE
8
BLACK
6
CONTINUOUS
10
5.6942976771653546
20
-5.3626010629921259
11
5.6873849606299212
21
-5.3674413779527557
0
LINE
8
BLACK
6
CONTINUOUS
10
5.6873849606299212
20
-5.3674413779527557
11
5.6814177559055121
21
-5.3734085826771656
0
LINE
8
BLACK
6
CONTINUOUS
10
5.6814177559055121
20
-5.3734085826771656
11
5.6765774409448815
21
-5.3803212992125982
0
LINE
8
BLACK
6
CONTINUOUS
10
5.6765774409448815
20
-5.3803212992125982
11
5.6730110236220472
21
-5.3879694881889764
0
LINE
8
BLACK
6
CONTINUOUS
10
5.6730110236220472
20
-5.3879694881889764
11
5.670826889763779
21
-5.3961207874015749
0
LINE
8
BLACK
6
CONTINUOUS
10
5.670826889763779
20
-5.3961207874015749
11
5.6700913779527555
21
-5.4045275590551176
0
LINE
8
BLACK
6
CONTINUOUS
10
5.6700913779527555
20
-5.4045275590551176
11
5.670826889763779
21
-5.4129343307086613
  0
ENDSEC
  0
EOF
