  0
SECTION
  2
HEADER
  9
$ANGBASE
  50
0.0
  9
$ANGDIR
  70
1
  9
$MEASUREMENT
  70
0
  0
ENDSEC
  0
SECTION
  2
TABLES
  0
TABLE
  2
LTYPE
  70
4
  0
LTYPE
  5
40F
  2
CONTINUOUS
  70
0
  3
Solid line
  72
65
  73
0
  40
0.0
  0
LTYPE
  5
410
  2
DASHDOT
 70
0
  3
Dash Dot ____ _ ____ _
 72
65
 73
4
 40
2.0
 49
1.25
 49
-0.25
 49
0.25
 49
-0.25
  0
LTYPE
  5
411
  2
DASHED
 70
0
  3
Dashed __ __ __ __ __
 72
65
 73
2
 40
0.75
 49
0.5
 49
-0.25
  0
LTYPE
  5
43B
  2
DOTTED
 70
0
  3
Dotted .  .  .  .
 72
65
 73
2
 40
0.2
 49
0.0
 49
-0.2
  0
ENDTAB
  0
TABLE
  2
STYLE
  70
4
  0
STYLE
  2
KICAD
  70
0
  40
0
  41
1
  42
1
  50
0
  71
0
  3
isocp.shx
  0
STYLE
  2
KICADB
  70
0
  40
0
  41
1
  42
1
  50
0
  71
0
  3
isocp.shx
  0
STYLE
  2
KICADI
  70
0
  40
0
  41
1
  42
1
  50
15
  71
0
  3
isocp.shx
  0
STYLE
  2
KICADBI
  70
0
  40
0
  41
1
  42
1
  50
15
  71
0
  3
isocp.shx
  0
ENDTAB
  0
TABLE
  2
LAYER
  70
1
  0
LAYER
  2
BLACK
  70
0
  62
7
  6
CONTINUOUS
  0
ENDTAB
  0
ENDSEC
  0
SECTION
  2
ENTITIES
0
LINE
8
BLACK
6
CONTINUOUS
10
5.9767546062992123
20
-3.6821615354330706
11
5.9772872834645669
21
-3.6826942125984252
0
LINE
8
BLACK
6
CONTINUOUS
10
5.9772872834645669
20
-3.6826942125984252
11
5.9773622047244093
21
-3.9350393700787403
0
LINE
8
BLACK
6
CONTINUOUS
10
5.9773622047244093
20
-3.9350393700787403
11
5.9772872834645669
21
-3.935416023622047
0
LINE
8
BLACK
6
CONTINUOUS
10
5.9772872834645669
20
-3.935416023622047
11
5.9767546062992123
21
-3.9359487007874017
0
LINE
8
BLACK
6
CONTINUOUS
10
5.9767546062992123
20
-3.9359487007874017
11
5.4566929133858268
21
-3.936023622047244
0
LINE
8
BLACK
6
CONTINUOUS
10
5.4566929133858268
20
-3.936023622047244
11
5.4563162598425192
21
-3.9359487007874017
0
LINE
8
BLACK
6
CONTINUOUS
10
5.4563162598425192
20
-3.9359487007874017
11
5.4557835826771655
21
-3.935416023622047
0
LINE
8
BLACK
6
CONTINUOUS
10
5.4557835826771655
20
-3.935416023622047
11
5.4557086614173231
21
-3.6830708661417324
0
LINE
8
BLACK
6
CONTINUOUS
10
5.4557086614173231
20
-3.6830708661417324
11
5.4557835826771655
21
-3.6826942125984252
0
LINE
8
BLACK
6
CONTINUOUS
10
5.4557835826771655
20
-3.6826942125984252
11
5.4563162598425192
21
-3.6821615354330706
0
LINE
8
BLACK
6
CONTINUOUS
10
5.4563162598425192
20
-3.6821615354330706
11
5.9763779527559056
21
-3.6820866141732282
0
LINE
8
BLACK
6
CONTINUOUS
10
5.9763779527559056
20
-3.6820866141732282
11
5.9767546062992123
21
-3.6821615354330706
0
LINE
8
BLACK
6
CONTINUOUS
10
5.4576026377952758
20
-3.6840549606299211
11
5.4576768897637793
21
-3.9341298425196851
0
LINE
8
BLACK
6
CONTINUOUS
10
5.4576768897637793
20
-3.9341298425196851
11
5.9754681889763779
21
-3.9340552362204724
0
LINE
8
BLACK
6
CONTINUOUS
10
5.9754681889763779
20
-3.9340552362204724
11
5.9753939370078735
21
-3.6839803543307084
0
LINE
8
BLACK
6
CONTINUOUS
10
5.9753939370078735
20
-3.6839803543307084
11
5.4576026377952758
21
-3.6840549606299211
0
LINE
8
BLACK
6
CONTINUOUS
10
4.9421089370078741
20
-3.6097205905511811
11
4.9426416141732279
21
-3.6102532677165353
0
LINE
8
BLACK
6
CONTINUOUS
10
4.9426416141732279
20
-3.6102532677165353
11
4.9427165354330711
21
-3.6681102362204725
0
LINE
8
BLACK
6
CONTINUOUS
10
4.9427165354330711
20
-3.6681102362204725
11
4.9426416141732279
21
-3.6684868897637792
0
LINE
8
BLACK
6
CONTINUOUS
10
4.9426416141732279
20
-3.6684868897637792
11
4.9421089370078741
21
-3.6690195669291339
0
LINE
8
BLACK
6
CONTINUOUS
10
4.9421089370078741
20
-3.6690195669291339
11
4.8251968503937004
21
-3.6690944881889762
0
LINE
8
BLACK
6
CONTINUOUS
10
4.8251968503937004
20
-3.6690944881889762
11
4.8248201968503936
21
-3.6690195669291339
0
LINE
8
BLACK
6
CONTINUOUS
10
4.8248201968503936
20
-3.6690195669291339
11
4.824287519685039
21
-3.6684868897637792
0
LINE
8
BLACK
6
CONTINUOUS
10
4.824287519685039
20
-3.6684868897637792
11
4.8242125984251967
21
-3.6106299212598425
0
LINE
8
BLACK
6
CONTINUOUS
10
4.8242125984251967
20
-3.6106299212598425
11
4.824287519685039
21
-3.6102532677165353
0
LINE
8
BLACK
6
CONTINUOUS
10
4.824287519685039
20
-3.6102532677165353
11
4.8248201968503936
21
-3.6097205905511811
0
LINE
8
BLACK
6
CONTINUOUS
10
4.8248201968503936
20
-3.6097205905511811
11
4.9417322834645665
21
-3.6096456692913383
0
LINE
8
BLACK
6
CONTINUOUS
10
4.9417322834645665
20
-3.6096456692913383
11
4.9421089370078741
21
-3.6097205905511811
0
LINE
8
BLACK
6
CONTINUOUS
10
4.8261079133858269
20
-3.6116135826771654
11
4.8261799212598424
21
-3.6671999999999998
0
LINE
8
BLACK
6
CONTINUOUS
10
4.8261799212598424
20
-3.6671999999999998
11
4.9408211811023621
21
-3.6671265354330709
0
LINE
8
BLACK
6
CONTINUOUS
10
4.9408211811023621
20
-3.6671265354330709
11
4.9407491732283466
21
-3.611540118110236
0
LINE
8
BLACK
6
CONTINUOUS
10
4.9407491732283466
20
-3.611540118110236
11
4.8261079133858269
21
-3.6116135826771654
0
LINE
8
BLACK
6
CONTINUOUS
10
5.0999829527559051
20
-3.6097205905511811
11
5.1005156299212597
21
-3.6102532677165353
0
LINE
8
BLACK
6
CONTINUOUS
10
5.1005156299212597
20
-3.6102532677165353
11
5.1005905511811021
21
-3.6681102362204725
0
LINE
8
BLACK
6
CONTINUOUS
10
5.1005905511811021
20
-3.6681102362204725
11
5.1005156299212597
21
-3.6684868897637792
0
LINE
8
BLACK
6
CONTINUOUS
10
5.1005156299212597
20
-3.6684868897637792
11
5.0999829527559051
21
-3.6690195669291339
0
LINE
8
BLACK
6
CONTINUOUS
10
5.0999829527559051
20
-3.6690195669291339
11
4.9830708661417322
21
-3.6690944881889762
0
LINE
8
BLACK
6
CONTINUOUS
10
4.9830708661417322
20
-3.6690944881889762
11
4.9826942125984255
21
-3.6690195669291339
0
LINE
8
BLACK
6
CONTINUOUS
10
4.9826942125984255
20
-3.6690195669291339
11
4.9821615354330708
21
-3.6684868897637792
0
LINE
8
BLACK
6
CONTINUOUS
10
4.9821615354330708
20
-3.6684868897637792
11
4.9820866141732285
21
-3.6106299212598425
0
LINE
8
BLACK
6
CONTINUOUS
10
4.9820866141732285
20
-3.6106299212598425
11
4.9821615354330708
21
-3.6102532677165353
0
LINE
8
BLACK
6
CONTINUOUS
10
4.9821615354330708
20
-3.6102532677165353
11
4.9826942125984255
21
-3.6097205905511811
0
LINE
8
BLACK
6
CONTINUOUS
10
4.9826942125984255
20
-3.6097205905511811
11
5.0996062992125983
21
-3.6096456692913383
0
LINE
8
BLACK
6
CONTINUOUS
10
5.0996062992125983
20
-3.6096456692913383
11
5.0999829527559051
21
-3.6097205905511811
0
LINE
8
BLACK
6
CONTINUOUS
10
4.9839819291338578
20
-3.6116135826771654
11
4.9840539370078742
21
-3.6671999999999998
0
LINE
8
BLACK
6
CONTINUOUS
10
4.9840539370078742
20
-3.6671999999999998
11
5.098695196850394
21
-3.6671265354330709
0
LINE
8
BLACK
6
CONTINUOUS
10
5.098695196850394
20
-3.6671265354330709
11
5.0986231889763776
21
-3.611540118110236
0
LINE
8
BLACK
6
CONTINUOUS
10
5.0986231889763776
20
-3.611540118110236
11
4.9839819291338578
21
-3.6116135826771654
0
LINE
8
BLACK
6
CONTINUOUS
10
5.2578569685039369
20
-3.6097205905511811
11
5.2583896456692916
21
-3.6102532677165353
0
LINE
8
BLACK
6
CONTINUOUS
10
5.2583896456692916
20
-3.6102532677165353
11
5.2584645669291339
21
-3.6681102362204725
0
LINE
8
BLACK
6
CONTINUOUS
10
5.2584645669291339
20
-3.6681102362204725
11
5.2583896456692916
21
-3.6684868897637792
0
LINE
8
BLACK
6
CONTINUOUS
10
5.2583896456692916
20
-3.6684868897637792
11
5.2578569685039369
21
-3.6690195669291339
0
LINE
8
BLACK
6
CONTINUOUS
10
5.2578569685039369
20
-3.6690195669291339
11
5.1409448818897641
21
-3.6690944881889762
0
LINE
8
BLACK
6
CONTINUOUS
10
5.1409448818897641
20
-3.6690944881889762
11
5.1405682283464564
21
-3.6690195669291339
0
LINE
8
BLACK
6
CONTINUOUS
10
5.1405682283464564
20
-3.6690195669291339
11
5.1400355511811027
21
-3.6684868897637792
0
LINE
8
BLACK
6
CONTINUOUS
10
5.1400355511811027
20
-3.6684868897637792
11
5.1399606299212595
21
-3.6106299212598425
0
LINE
8
BLACK
6
CONTINUOUS
10
5.1399606299212595
20
-3.6106299212598425
11
5.1400355511811027
21
-3.6102532677165353
0
LINE
8
BLACK
6
CONTINUOUS
10
5.1400355511811027
20
-3.6102532677165353
11
5.1405682283464564
21
-3.6097205905511811
0
LINE
8
BLACK
6
CONTINUOUS
10
5.1405682283464564
20
-3.6097205905511811
11
5.2574803149606302
21
-3.6096456692913383
0
LINE
8
BLACK
6
CONTINUOUS
10
5.2574803149606302
20
-3.6096456692913383
11
5.2578569685039369
21
-3.6097205905511811
0
LINE
8
BLACK
6
CONTINUOUS
10
5.1418559448818897
20
-3.6116135826771654
11
5.1419279527559052
21
-3.6671999999999998
0
LINE
8
BLACK
6
CONTINUOUS
10
5.1419279527559052
20
-3.6671999999999998
11
5.2565692125984249
21
-3.6671265354330709
0
LINE
8
BLACK
6
CONTINUOUS
10
5.2565692125984249
20
-3.6671265354330709
11
5.2564972047244094
21
-3.611540118110236
0
LINE
8
BLACK
6
CONTINUOUS
10
5.2564972047244094
20
-3.611540118110236
11
5.1418559448818897
21
-3.6116135826771654
0
LINE
8
BLACK
6
CONTINUOUS
10
4.9421089370078741
20
-3.5109016929133858
11
4.9426416141732279
21
-3.51143437007874
0
LINE
8
BLACK
6
CONTINUOUS
10
4.9426416141732279
20
-3.51143437007874
11
4.9427165354330711
21
-3.5692913385826772
0
LINE
8
BLACK
6
CONTINUOUS
10
4.9427165354330711
20
-3.5692913385826772
11
4.9426416141732279
21
-3.569667992125984
0
LINE
8
BLACK
6
CONTINUOUS
10
4.9426416141732279
20
-3.569667992125984
11
4.9421089370078741
21
-3.5702006692913386
0
LINE
8
BLACK
6
CONTINUOUS
10
4.9421089370078741
20
-3.5702006692913386
11
4.8251968503937004
21
-3.5702755905511809
0
LINE
8
BLACK
6
CONTINUOUS
10
4.8251968503937004
20
-3.5702755905511809
11
4.8248201968503936
21
-3.5702006692913386
0
LINE
8
BLACK
6
CONTINUOUS
10
4.8248201968503936
20
-3.5702006692913386
11
4.824287519685039
21
-3.569667992125984
0
LINE
8
BLACK
6
CONTINUOUS
10
4.824287519685039
20
-3.569667992125984
11
4.8242125984251967
21
-3.5118110236220472
0
LINE
8
BLACK
6
CONTINUOUS
10
4.8242125984251967
20
-3.5118110236220472
11
4.824287519685039
21
-3.51143437007874
0
LINE
8
BLACK
6
CONTINUOUS
10
4.824287519685039
20
-3.51143437007874
11
4.8248201968503936
21
-3.5109016929133858
0
LINE
8
BLACK
6
CONTINUOUS
10
4.8248201968503936
20
-3.5109016929133858
11
4.9417322834645665
21
-3.5108267716535431
0
LINE
8
BLACK
6
CONTINUOUS
10
4.9417322834645665
20
-3.5108267716535431
11
4.9421089370078741
21
-3.5109016929133858
0
LINE
8
BLACK
6
CONTINUOUS
10
4.8261079133858269
20
-3.5127946850393701
11
4.8261799212598424
21
-3.5683811023622045
0
LINE
8
BLACK
6
CONTINUOUS
10
4.8261799212598424
20
-3.5683811023622045
11
4.9408211811023621
21
-3.5683076377952756
0
LINE
8
BLACK
6
CONTINUOUS
10
4.9408211811023621
20
-3.5683076377952756
11
4.9407491732283466
21
-3.5127212204724407
0
LINE
8
BLACK
6
CONTINUOUS
10
4.9407491732283466
20
-3.5127212204724407
11
4.8261079133858269
21
-3.5127946850393701
0
LINE
8
BLACK
6
CONTINUOUS
10
5.0999829527559051
20
-3.5109016929133858
11
5.1005156299212597
21
-3.51143437007874
0
LINE
8
BLACK
6
CONTINUOUS
10
5.1005156299212597
20
-3.51143437007874
11
5.1005905511811021
21
-3.5692913385826772
0
LINE
8
BLACK
6
CONTINUOUS
10
5.1005905511811021
20
-3.5692913385826772
11
5.1005156299212597
21
-3.569667992125984
0
LINE
8
BLACK
6
CONTINUOUS
10
5.1005156299212597
20
-3.569667992125984
11
5.0999829527559051
21
-3.5702006692913386
0
LINE
8
BLACK
6
CONTINUOUS
10
5.0999829527559051
20
-3.5702006692913386
11
4.9830708661417322
21
-3.5702755905511809
0
LINE
8
BLACK
6
CONTINUOUS
10
4.9830708661417322
20
-3.5702755905511809
11
4.9826942125984255
21
-3.5702006692913386
0
LINE
8
BLACK
6
CONTINUOUS
10
4.9826942125984255
20
-3.5702006692913386
11
4.9821615354330708
21
-3.569667992125984
0
LINE
8
BLACK
6
CONTINUOUS
10
4.9821615354330708
20
-3.569667992125984
11
4.9820866141732285
21
-3.5118110236220472
0
LINE
8
BLACK
6
CONTINUOUS
10
4.9820866141732285
20
-3.5118110236220472
11
4.9821615354330708
21
-3.51143437007874
0
LINE
8
BLACK
6
CONTINUOUS
10
4.9821615354330708
20
-3.51143437007874
11
4.9826942125984255
21
-3.5109016929133858
0
LINE
8
BLACK
6
CONTINUOUS
10
4.9826942125984255
20
-3.5109016929133858
11
5.0996062992125983
21
-3.5108267716535431
0
LINE
8
BLACK
6
CONTINUOUS
10
5.0996062992125983
20
-3.5108267716535431
11
5.0999829527559051
21
-3.5109016929133858
0
LINE
8
BLACK
6
CONTINUOUS
10
4.9839819291338578
20
-3.5127946850393701
11
4.9840539370078742
21
-3.5683811023622045
0
LINE
8
BLACK
6
CONTINUOUS
10
4.9840539370078742
20
-3.5683811023622045
11
5.098695196850394
21
-3.5683076377952756
0
LINE
8
BLACK
6
CONTINUOUS
10
5.098695196850394
20
-3.5683076377952756
11
5.0986231889763776
21
-3.5127212204724407
0
LINE
8
BLACK
6
CONTINUOUS
10
5.0986231889763776
20
-3.5127212204724407
11
4.9839819291338578
21
-3.5127946850393701
0
LINE
8
BLACK
6
CONTINUOUS
10
5.2578569685039369
20
-3.5109016929133858
11
5.2583896456692916
21
-3.51143437007874
0
LINE
8
BLACK
6
CONTINUOUS
10
5.2583896456692916
20
-3.51143437007874
11
5.2584645669291339
21
-3.5692913385826772
0
LINE
8
BLACK
6
CONTINUOUS
10
5.2584645669291339
20
-3.5692913385826772
11
5.2583896456692916
21
-3.569667992125984
0
LINE
8
BLACK
6
CONTINUOUS
10
5.2583896456692916
20
-3.569667992125984
11
5.2578569685039369
21
-3.5702006692913386
0
LINE
8
BLACK
6
CONTINUOUS
10
5.2578569685039369
20
-3.5702006692913386
11
5.1409448818897641
21
-3.5702755905511809
0
LINE
8
BLACK
6
CONTINUOUS
10
5.1409448818897641
20
-3.5702755905511809
11
5.1405682283464564
21
-3.5702006692913386
0
LINE
8
BLACK
6
CONTINUOUS
10
5.1405682283464564
20
-3.5702006692913386
11
5.1400355511811027
21
-3.569667992125984
0
LINE
8
BLACK
6
CONTINUOUS
10
5.1400355511811027
20
-3.569667992125984
11
5.1399606299212595
21
-3.5118110236220472
0
LINE
8
BLACK
6
CONTINUOUS
10
5.1399606299212595
20
-3.5118110236220472
11
5.1400355511811027
21
-3.51143437007874
0
LINE
8
BLACK
6
CONTINUOUS
10
5.1400355511811027
20
-3.51143437007874
11
5.1405682283464564
21
-3.5109016929133858
0
LINE
8
BLACK
6
CONTINUOUS
10
5.1405682283464564
20
-3.5109016929133858
11
5.2574803149606302
21
-3.5108267716535431
0
LINE
8
BLACK
6
CONTINUOUS
10
5.2574803149606302
20
-3.5108267716535431
11
5.2578569685039369
21
-3.5109016929133858
0
LINE
8
BLACK
6
CONTINUOUS
10
5.1418559448818897
20
-3.5127946850393701
11
5.1419279527559052
21
-3.5683811023622045
0
LINE
8
BLACK
6
CONTINUOUS
10
5.1419279527559052
20
-3.5683811023622045
11
5.2565692125984249
21
-3.5683076377952756
0
LINE
8
BLACK
6
CONTINUOUS
10
5.2565692125984249
20
-3.5683076377952756
11
5.2564972047244094
21
-3.5127212204724407
0
LINE
8
BLACK
6
CONTINUOUS
10
5.2564972047244094
20
-3.5127212204724407
11
5.1418559448818897
21
-3.5127946850393701
0
LINE
8
BLACK
6
CONTINUOUS
10
5.4157309842519687
20
-3.5109016929133858
11
5.4162636614173225
21
-3.51143437007874
0
LINE
8
BLACK
6
CONTINUOUS
10
5.4162636614173225
20
-3.51143437007874
11
5.4163385826771648
21
-3.5692913385826772
0
LINE
8
BLACK
6
CONTINUOUS
10
5.4163385826771648
20
-3.5692913385826772
11
5.4162636614173225
21
-3.569667992125984
0
LINE
8
BLACK
6
CONTINUOUS
10
5.4162636614173225
20
-3.569667992125984
11
5.4157309842519687
21
-3.5702006692913386
0
LINE
8
BLACK
6
CONTINUOUS
10
5.4157309842519687
20
-3.5702006692913386
11
5.298818897637795
21
-3.5702755905511809
0
LINE
8
BLACK
6
CONTINUOUS
10
5.298818897637795
20
-3.5702755905511809
11
5.2984422440944883
21
-3.5702006692913386
0
LINE
8
BLACK
6
CONTINUOUS
10
5.2984422440944883
20
-3.5702006692913386
11
5.2979095669291336
21
-3.569667992125984
0
LINE
8
BLACK
6
CONTINUOUS
10
5.2979095669291336
20
-3.569667992125984
11
5.2978346456692913
21
-3.5118110236220472
0
LINE
8
BLACK
6
CONTINUOUS
10
5.2978346456692913
20
-3.5118110236220472
11
5.2979095669291336
21
-3.51143437007874
0
LINE
8
BLACK
6
CONTINUOUS
10
5.2979095669291336
20
-3.51143437007874
11
5.2984422440944883
21
-3.5109016929133858
0
LINE
8
BLACK
6
CONTINUOUS
10
5.2984422440944883
20
-3.5109016929133858
11
5.4153543307086611
21
-3.5108267716535431
0
LINE
8
BLACK
6
CONTINUOUS
10
5.4153543307086611
20
-3.5108267716535431
11
5.4157309842519687
21
-3.5109016929133858
0
LINE
8
BLACK
6
CONTINUOUS
10
5.2997299606299215
20
-3.5127946850393701
11
5.299801968503937
21
-3.5683811023622045
0
LINE
8
BLACK
6
CONTINUOUS
10
5.299801968503937
20
-3.5683811023622045
11
5.4144432283464567
21
-3.5683076377952756
0
LINE
8
BLACK
6
CONTINUOUS
10
5.4144432283464567
20
-3.5683076377952756
11
5.4143712204724412
21
-3.5127212204724407
0
LINE
8
BLACK
6
CONTINUOUS
10
5.4143712204724412
20
-3.5127212204724407
11
5.2997299606299215
21
-3.5127946850393701
0
LINE
8
BLACK
6
CONTINUOUS
10
4.9421089370078741
20
-3.4120827952755906
11
4.9426416141732279
21
-3.4126154724409448
0
LINE
8
BLACK
6
CONTINUOUS
10
4.9426416141732279
20
-3.4126154724409448
11
4.9427165354330711
21
-3.4704724409448819
0
LINE
8
BLACK
6
CONTINUOUS
10
4.9427165354330711
20
-3.4704724409448819
11
4.9426416141732279
21
-3.4708490944881887
0
LINE
8
BLACK
6
CONTINUOUS
10
4.9426416141732279
20
-3.4708490944881887
11
4.9421089370078741
21
-3.4713817716535433
0
LINE
8
BLACK
6
CONTINUOUS
10
4.9421089370078741
20
-3.4713817716535433
11
4.8251968503937004
21
-3.4714566929133857
0
LINE
8
BLACK
6
CONTINUOUS
10
4.8251968503937004
20
-3.4714566929133857
11
4.8248201968503936
21
-3.4713817716535433
0
LINE
8
BLACK
6
CONTINUOUS
10
4.8248201968503936
20
-3.4713817716535433
11
4.824287519685039
21
-3.4708490944881887
0
LINE
8
BLACK
6
CONTINUOUS
10
4.824287519685039
20
-3.4708490944881887
11
4.8242125984251967
21
-3.4129921259842519
0
LINE
8
BLACK
6
CONTINUOUS
10
4.8242125984251967
20
-3.4129921259842519
11
4.824287519685039
21
-3.4126154724409448
0
LINE
8
BLACK
6
CONTINUOUS
10
4.824287519685039
20
-3.4126154724409448
11
4.8248201968503936
21
-3.4120827952755906
0
LINE
8
BLACK
6
CONTINUOUS
10
4.8248201968503936
20
-3.4120827952755906
11
4.9417322834645665
21
-3.4120078740157478
0
LINE
8
BLACK
6
CONTINUOUS
10
4.9417322834645665
20
-3.4120078740157478
11
4.9421089370078741
21
-3.4120827952755906
0
LINE
8
BLACK
6
CONTINUOUS
10
4.8261079133858269
20
-3.4139757874015748
11
4.8261799212598424
21
-3.4695622047244092
0
LINE
8
BLACK
6
CONTINUOUS
10
4.8261799212598424
20
-3.4695622047244092
11
4.9408211811023621
21
-3.4694887401574803
0
LINE
8
BLACK
6
CONTINUOUS
10
4.9408211811023621
20
-3.4694887401574803
11
4.9407491732283466
21
-3.4139023228346455
0
LINE
8
BLACK
6
CONTINUOUS
10
4.9407491732283466
20
-3.4139023228346455
11
4.8261079133858269
21
-3.4139757874015748
0
LINE
8
BLACK
6
CONTINUOUS
10
5.0999829527559051
20
-3.4120827952755906
11
5.1005156299212597
21
-3.4126154724409448
0
LINE
8
BLACK
6
CONTINUOUS
10
5.1005156299212597
20
-3.4126154724409448
11
5.1005905511811021
21
-3.4704724409448819
0
LINE
8
BLACK
6
CONTINUOUS
10
5.1005905511811021
20
-3.4704724409448819
11
5.1005156299212597
21
-3.4708490944881887
0
LINE
8
BLACK
6
CONTINUOUS
10
5.1005156299212597
20
-3.4708490944881887
11
5.0999829527559051
21
-3.4713817716535433
0
LINE
8
BLACK
6
CONTINUOUS
10
5.0999829527559051
20
-3.4713817716535433
11
4.9830708661417322
21
-3.4714566929133857
0
LINE
8
BLACK
6
CONTINUOUS
10
4.9830708661417322
20
-3.4714566929133857
11
4.9826942125984255
21
-3.4713817716535433
0
LINE
8
BLACK
6
CONTINUOUS
10
4.9826942125984255
20
-3.4713817716535433
11
4.9821615354330708
21
-3.4708490944881887
0
LINE
8
BLACK
6
CONTINUOUS
10
4.9821615354330708
20
-3.4708490944881887
11
4.9820866141732285
21
-3.4129921259842519
0
LINE
8
BLACK
6
CONTINUOUS
10
4.9820866141732285
20
-3.4129921259842519
11
4.9821615354330708
21
-3.4126154724409448
0
LINE
8
BLACK
6
CONTINUOUS
10
4.9821615354330708
20
-3.4126154724409448
11
4.9826942125984255
21
-3.4120827952755906
0
LINE
8
BLACK
6
CONTINUOUS
10
4.9826942125984255
20
-3.4120827952755906
11
5.0996062992125983
21
-3.4120078740157478
0
LINE
8
BLACK
6
CONTINUOUS
10
5.0996062992125983
20
-3.4120078740157478
11
5.0999829527559051
21
-3.4120827952755906
0
LINE
8
BLACK
6
CONTINUOUS
10
4.9839819291338578
20
-3.4139757874015748
11
4.9840539370078742
21
-3.4695622047244092
0
LINE
8
BLACK
6
CONTINUOUS
10
4.9840539370078742
20
-3.4695622047244092
11
5.098695196850394
21
-3.4694887401574803
0
LINE
8
BLACK
6
CONTINUOUS
10
5.098695196850394
20
-3.4694887401574803
11
5.0986231889763776
21
-3.4139023228346455
0
LINE
8
BLACK
6
CONTINUOUS
10
5.0986231889763776
20
-3.4139023228346455
11
4.9839819291338578
21
-3.4139757874015748
0
LINE
8
BLACK
6
CONTINUOUS
10
5.2578569685039369
20
-3.4120827952755906
11
5.2583896456692916
21
-3.4126154724409448
0
LINE
8
BLACK
6
CONTINUOUS
10
5.2583896456692916
20
-3.4126154724409448
11
5.2584645669291339
21
-3.4704724409448819
0
LINE
8
BLACK
6
CONTINUOUS
10
5.2584645669291339
20
-3.4704724409448819
11
5.2583896456692916
21
-3.4708490944881887
0
LINE
8
BLACK
6
CONTINUOUS
10
5.2583896456692916
20
-3.4708490944881887
11
5.2578569685039369
21
-3.4713817716535433
0
LINE
8
BLACK
6
CONTINUOUS
10
5.2578569685039369
20
-3.4713817716535433
11
5.1409448818897641
21
-3.4714566929133857
0
LINE
8
BLACK
6
CONTINUOUS
10
5.1409448818897641
20
-3.4714566929133857
11
5.1405682283464564
21
-3.4713817716535433
0
LINE
8
BLACK
6
CONTINUOUS
10
5.1405682283464564
20
-3.4713817716535433
11
5.1400355511811027
21
-3.4708490944881887
0
LINE
8
BLACK
6
CONTINUOUS
10
5.1400355511811027
20
-3.4708490944881887
11
5.1399606299212595
21
-3.4129921259842519
0
LINE
8
BLACK
6
CONTINUOUS
10
5.1399606299212595
20
-3.4129921259842519
11
5.1400355511811027
21
-3.4126154724409448
0
LINE
8
BLACK
6
CONTINUOUS
10
5.1400355511811027
20
-3.4126154724409448
11
5.1405682283464564
21
-3.4120827952755906
0
LINE
8
BLACK
6
CONTINUOUS
10
5.1405682283464564
20
-3.4120827952755906
11
5.2574803149606302
21
-3.4120078740157478
0
LINE
8
BLACK
6
CONTINUOUS
10
5.2574803149606302
20
-3.4120078740157478
11
5.2578569685039369
21
-3.4120827952755906
0
LINE
8
BLACK
6
CONTINUOUS
10
5.1418559448818897
20
-3.4139757874015748
11
5.1419279527559052
21
-3.4695622047244092
0
LINE
8
BLACK
6
CONTINUOUS
10
5.1419279527559052
20
-3.4695622047244092
11
5.2565692125984249
21
-3.4694887401574803
0
LINE
8
BLACK
6
CONTINUOUS
10
5.2565692125984249
20
-3.4694887401574803
11
5.2564972047244094
21
-3.4139023228346455
0
LINE
8
BLACK
6
CONTINUOUS
10
5.2564972047244094
20
-3.4139023228346455
11
5.1418559448818897
21
-3.4139757874015748
0
LINE
8
BLACK
6
CONTINUOUS
10
5.4157309842519687
20
-3.4120827952755906
11
5.4162636614173225
21
-3.4126154724409448
0
LINE
8
BLACK
6
CONTINUOUS
10
5.4162636614173225
20
-3.4126154724409448
11
5.4163385826771648
21
-3.4704724409448819
0
LINE
8
BLACK
6
CONTINUOUS
10
5.4163385826771648
20
-3.4704724409448819
11
5.4162636614173225
21
-3.4708490944881887
0
LINE
8
BLACK
6
CONTINUOUS
10
5.4162636614173225
20
-3.4708490944881887
11
5.4157309842519687
21
-3.4713817716535433
0
LINE
8
BLACK
6
CONTINUOUS
10
5.4157309842519687
20
-3.4713817716535433
11
5.298818897637795
21
-3.4714566929133857
0
LINE
8
BLACK
6
CONTINUOUS
10
5.298818897637795
20
-3.4714566929133857
11
5.2984422440944883
21
-3.4713817716535433
0
LINE
8
BLACK
6
CONTINUOUS
10
5.2984422440944883
20
-3.4713817716535433
11
5.2979095669291336
21
-3.4708490944881887
0
LINE
8
BLACK
6
CONTINUOUS
10
5.2979095669291336
20
-3.4708490944881887
11
5.2978346456692913
21
-3.4129921259842519
0
LINE
8
BLACK
6
CONTINUOUS
10
5.2978346456692913
20
-3.4129921259842519
11
5.2979095669291336
21
-3.4126154724409448
0
LINE
8
BLACK
6
CONTINUOUS
10
5.2979095669291336
20
-3.4126154724409448
11
5.2984422440944883
21
-3.4120827952755906
0
LINE
8
BLACK
6
CONTINUOUS
10
5.2984422440944883
20
-3.4120827952755906
11
5.4153543307086611
21
-3.4120078740157478
0
LINE
8
BLACK
6
CONTINUOUS
10
5.4153543307086611
20
-3.4120078740157478
11
5.4157309842519687
21
-3.4120827952755906
0
LINE
8
BLACK
6
CONTINUOUS
10
5.2997299606299215
20
-3.4139757874015748
11
5.299801968503937
21
-3.4695622047244092
0
LINE
8
BLACK
6
CONTINUOUS
10
5.299801968503937
20
-3.4695622047244092
11
5.4144432283464567
21
-3.4694887401574803
0
LINE
8
BLACK
6
CONTINUOUS
10
5.4144432283464567
20
-3.4694887401574803
11
5.4143712204724412
21
-3.4139023228346455
0
LINE
8
BLACK
6
CONTINUOUS
10
5.4143712204724412
20
-3.4139023228346455
11
5.2997299606299215
21
-3.4139757874015748
0
LINE
8
BLACK
6
CONTINUOUS
10
6.2779357086614169
20
-3.3242875196850394
11
6.2784683858267716
21
-3.3248201968503936
0
LINE
8
BLACK
6
CONTINUOUS
10
6.2784683858267716
20
-3.3248201968503936
11
6.2785433070866139
21
-3.3826771653543308
0
LINE
8
BLACK
6
CONTINUOUS
10
6.2785433070866139
20
-3.3826771653543308
11
6.2784683858267716
21
-3.3830538188976376
0
LINE
8
BLACK
6
CONTINUOUS
10
6.2784683858267716
20
-3.3830538188976376
11
6.2779357086614169
21
-3.3835864960629922
0
LINE
8
BLACK
6
CONTINUOUS
10
6.2779357086614169
20
-3.3835864960629922
11
6.1610236220472441
21
-3.3836614173228345
0
LINE
8
BLACK
6
CONTINUOUS
10
6.1610236220472441
20
-3.3836614173228345
11
6.1606469685039364
21
-3.3835864960629922
0
LINE
8
BLACK
6
CONTINUOUS
10
6.1606469685039364
20
-3.3835864960629922
11
6.1601142913385827
21
-3.3830538188976376
0
LINE
8
BLACK
6
CONTINUOUS
10
6.1601142913385827
20
-3.3830538188976376
11
6.1600393700787404
21
-3.3251968503937008
0
LINE
8
BLACK
6
CONTINUOUS
10
6.1600393700787404
20
-3.3251968503937008
11
6.1601142913385827
21
-3.3248201968503936
0
LINE
8
BLACK
6
CONTINUOUS
10
6.1601142913385827
20
-3.3248201968503936
11
6.1606469685039364
21
-3.3242875196850394
0
LINE
8
BLACK
6
CONTINUOUS
10
6.1606469685039364
20
-3.3242875196850394
11
6.2775590551181102
21
-3.3242125984251967
0
LINE
8
BLACK
6
CONTINUOUS
10
6.2775590551181102
20
-3.3242125984251967
11
6.2779357086614169
21
-3.3242875196850394
0
LINE
8
BLACK
6
CONTINUOUS
10
6.1619346850393697
20
-3.3261805118110237
11
6.1620066929133861
21
-3.3817669291338581
0
LINE
8
BLACK
6
CONTINUOUS
10
6.1620066929133861
20
-3.3817669291338581
11
6.2766479527559058
21
-3.3816934645669292
0
LINE
8
BLACK
6
CONTINUOUS
10
6.2766479527559058
20
-3.3816934645669292
11
6.2765759448818894
21
-3.3261070472440943
0
LINE
8
BLACK
6
CONTINUOUS
10
6.2765759448818894
20
-3.3261070472440943
11
6.1619346850393697
21
-3.3261805118110237
0
LINE
8
BLACK
6
CONTINUOUS
10
4.9421089370078741
20
-3.3132638976377953
11
4.9426416141732279
21
-3.3137965748031495
0
LINE
8
BLACK
6
CONTINUOUS
10
4.9426416141732279
20
-3.3137965748031495
11
4.9427165354330711
21
-3.3716535433070867
0
LINE
8
BLACK
6
CONTINUOUS
10
4.9427165354330711
20
-3.3716535433070867
11
4.9426416141732279
21
-3.3720301968503934
0
LINE
8
BLACK
6
CONTINUOUS
10
4.9426416141732279
20
-3.3720301968503934
11
4.9421089370078741
21
-3.3725628740157481
0
LINE
8
BLACK
6
CONTINUOUS
10
4.9421089370078741
20
-3.3725628740157481
11
4.8251968503937004
21
-3.3726377952755904
0
LINE
8
BLACK
6
CONTINUOUS
10
4.8251968503937004
20
-3.3726377952755904
11
4.8248201968503936
21
-3.3725628740157481
0
LINE
8
BLACK
6
CONTINUOUS
10
4.8248201968503936
20
-3.3725628740157481
11
4.824287519685039
21
-3.3720301968503934
0
LINE
8
BLACK
6
CONTINUOUS
10
4.824287519685039
20
-3.3720301968503934
11
4.8242125984251967
21
-3.3141732283464567
0
LINE
8
BLACK
6
CONTINUOUS
10
4.8242125984251967
20
-3.3141732283464567
11
4.824287519685039
21
-3.3137965748031495
0
LINE
8
BLACK
6
CONTINUOUS
10
4.824287519685039
20
-3.3137965748031495
11
4.8248201968503936
21
-3.3132638976377953
0
LINE
8
BLACK
6
CONTINUOUS
10
4.8248201968503936
20
-3.3132638976377953
11
4.9417322834645665
21
-3.3131889763779525
0
LINE
8
BLACK
6
CONTINUOUS
10
4.9417322834645665
20
-3.3131889763779525
11
4.9421089370078741
21
-3.3132638976377953
0
LINE
8
BLACK
6
CONTINUOUS
10
4.8261079133858269
20
-3.3151568897637795
11
4.8261799212598424
21
-3.370743307086614
0
LINE
8
BLACK
6
CONTINUOUS
10
4.8261799212598424
20
-3.370743307086614
11
4.9408211811023621
21
-3.370669842519685
0
LINE
8
BLACK
6
CONTINUOUS
10
4.9408211811023621
20
-3.370669842519685
11
4.9407491732283466
21
-3.3150834251968502
0
LINE
8
BLACK
6
CONTINUOUS
10
4.9407491732283466
20
-3.3150834251968502
11
4.8261079133858269
21
-3.3151568897637795
0
LINE
8
BLACK
6
CONTINUOUS
10
5.0999829527559051
20
-3.3132638976377953
11
5.1005156299212597
21
-3.3137965748031495
0
LINE
8
BLACK
6
CONTINUOUS
10
5.1005156299212597
20
-3.3137965748031495
11
5.1005905511811021
21
-3.3716535433070867
0
LINE
8
BLACK
6
CONTINUOUS
10
5.1005905511811021
20
-3.3716535433070867
11
5.1005156299212597
21
-3.3720301968503934
0
LINE
8
BLACK
6
CONTINUOUS
10
5.1005156299212597
20
-3.3720301968503934
11
5.0999829527559051
21
-3.3725628740157481
0
LINE
8
BLACK
6
CONTINUOUS
10
5.0999829527559051
20
-3.3725628740157481
11
4.9830708661417322
21
-3.3726377952755904
0
LINE
8
BLACK
6
CONTINUOUS
10
4.9830708661417322
20
-3.3726377952755904
11
4.9826942125984255
21
-3.3725628740157481
0
LINE
8
BLACK
6
CONTINUOUS
10
4.9826942125984255
20
-3.3725628740157481
11
4.9821615354330708
21
-3.3720301968503934
0
LINE
8
BLACK
6
CONTINUOUS
10
4.9821615354330708
20
-3.3720301968503934
11
4.9820866141732285
21
-3.3141732283464567
0
LINE
8
BLACK
6
CONTINUOUS
10
4.9820866141732285
20
-3.3141732283464567
11
4.9821615354330708
21
-3.3137965748031495
0
LINE
8
BLACK
6
CONTINUOUS
10
4.9821615354330708
20
-3.3137965748031495
11
4.9826942125984255
21
-3.3132638976377953
0
LINE
8
BLACK
6
CONTINUOUS
10
4.9826942125984255
20
-3.3132638976377953
11
5.0996062992125983
21
-3.3131889763779525
0
LINE
8
BLACK
6
CONTINUOUS
10
5.0996062992125983
20
-3.3131889763779525
11
5.0999829527559051
21
-3.3132638976377953
0
LINE
8
BLACK
6
CONTINUOUS
10
4.9839819291338578
20
-3.3151568897637795
11
4.9840539370078742
21
-3.370743307086614
0
LINE
8
BLACK
6
CONTINUOUS
10
4.9840539370078742
20
-3.370743307086614
11
5.098695196850394
21
-3.370669842519685
0
LINE
8
BLACK
6
CONTINUOUS
10
5.098695196850394
20
-3.370669842519685
11
5.0986231889763776
21
-3.3150834251968502
0
LINE
8
BLACK
6
CONTINUOUS
10
5.0986231889763776
20
-3.3150834251968502
11
4.9839819291338578
21
-3.3151568897637795
0
LINE
8
BLACK
6
CONTINUOUS
10
5.2578569685039369
20
-3.3132638976377953
11
5.2583896456692916
21
-3.3137965748031495
0
LINE
8
BLACK
6
CONTINUOUS
10
5.2583896456692916
20
-3.3137965748031495
11
5.2584645669291339
21
-3.3716535433070867
0
LINE
8
BLACK
6
CONTINUOUS
10
5.2584645669291339
20
-3.3716535433070867
11
5.2583896456692916
21
-3.3720301968503934
0
LINE
8
BLACK
6
CONTINUOUS
10
5.2583896456692916
20
-3.3720301968503934
11
5.2578569685039369
21
-3.3725628740157481
0
LINE
8
BLACK
6
CONTINUOUS
10
5.2578569685039369
20
-3.3725628740157481
11
5.1409448818897641
21
-3.3726377952755904
0
LINE
8
BLACK
6
CONTINUOUS
10
5.1409448818897641
20
-3.3726377952755904
11
5.1405682283464564
21
-3.3725628740157481
0
LINE
8
BLACK
6
CONTINUOUS
10
5.1405682283464564
20
-3.3725628740157481
11
5.1400355511811027
21
-3.3720301968503934
0
LINE
8
BLACK
6
CONTINUOUS
10
5.1400355511811027
20
-3.3720301968503934
11
5.1399606299212595
21
-3.3141732283464567
0
LINE
8
BLACK
6
CONTINUOUS
10
5.1399606299212595
20
-3.3141732283464567
11
5.1400355511811027
21
-3.3137965748031495
0
LINE
8
BLACK
6
CONTINUOUS
10
5.1400355511811027
20
-3.3137965748031495
11
5.1405682283464564
21
-3.3132638976377953
0
LINE
8
BLACK
6
CONTINUOUS
10
5.1405682283464564
20
-3.3132638976377953
11
5.2574803149606302
21
-3.3131889763779525
0
LINE
8
BLACK
6
CONTINUOUS
10
5.2574803149606302
20
-3.3131889763779525
11
5.2578569685039369
21
-3.3132638976377953
0
LINE
8
BLACK
6
CONTINUOUS
10
5.1418559448818897
20
-3.3151568897637795
11
5.1419279527559052
21
-3.370743307086614
0
LINE
8
BLACK
6
CONTINUOUS
10
5.1419279527559052
20
-3.370743307086614
11
5.2565692125984249
21
-3.370669842519685
0
LINE
8
BLACK
6
CONTINUOUS
10
5.2565692125984249
20
-3.370669842519685
11
5.2564972047244094
21
-3.3150834251968502
0
LINE
8
BLACK
6
CONTINUOUS
10
5.2564972047244094
20
-3.3150834251968502
11
5.1418559448818897
21
-3.3151568897637795
0
LINE
8
BLACK
6
CONTINUOUS
10
5.4157309842519687
20
-3.3132638976377953
11
5.4162636614173225
21
-3.3137965748031495
0
LINE
8
BLACK
6
CONTINUOUS
10
5.4162636614173225
20
-3.3137965748031495
11
5.4163385826771648
21
-3.3716535433070867
0
LINE
8
BLACK
6
CONTINUOUS
10
5.4163385826771648
20
-3.3716535433070867
11
5.4162636614173225
21
-3.3720301968503934
0
LINE
8
BLACK
6
CONTINUOUS
10
5.4162636614173225
20
-3.3720301968503934
11
5.4157309842519687
21
-3.3725628740157481
0
LINE
8
BLACK
6
CONTINUOUS
10
5.4157309842519687
20
-3.3725628740157481
11
5.298818897637795
21
-3.3726377952755904
0
LINE
8
BLACK
6
CONTINUOUS
10
5.298818897637795
20
-3.3726377952755904
11
5.2984422440944883
21
-3.3725628740157481
0
LINE
8
BLACK
6
CONTINUOUS
10
5.2984422440944883
20
-3.3725628740157481
11
5.2979095669291336
21
-3.3720301968503934
0
LINE
8
BLACK
6
CONTINUOUS
10
5.2979095669291336
20
-3.3720301968503934
11
5.2978346456692913
21
-3.3141732283464567
0
LINE
8
BLACK
6
CONTINUOUS
10
5.2978346456692913
20
-3.3141732283464567
11
5.2979095669291336
21
-3.3137965748031495
0
LINE
8
BLACK
6
CONTINUOUS
10
5.2979095669291336
20
-3.3137965748031495
11
5.2984422440944883
21
-3.3132638976377953
0
LINE
8
BLACK
6
CONTINUOUS
10
5.2984422440944883
20
-3.3132638976377953
11
5.4153543307086611
21
-3.3131889763779525
0
LINE
8
BLACK
6
CONTINUOUS
10
5.4153543307086611
20
-3.3131889763779525
11
5.4157309842519687
21
-3.3132638976377953
0
LINE
8
BLACK
6
CONTINUOUS
10
5.2997299606299215
20
-3.3151568897637795
11
5.299801968503937
21
-3.370743307086614
0
LINE
8
BLACK
6
CONTINUOUS
10
5.299801968503937
20
-3.370743307086614
11
5.4144432283464567
21
-3.370669842519685
0
LINE
8
BLACK
6
CONTINUOUS
10
5.4144432283464567
20
-3.370669842519685
11
5.4143712204724412
21
-3.3150834251968502
0
LINE
8
BLACK
6
CONTINUOUS
10
5.4143712204724412
20
-3.3150834251968502
11
5.2997299606299215
21
-3.3151568897637795
0
LINE
8
BLACK
6
CONTINUOUS
10
4.4039199606299215
20
-2.7963347637795275
11
4.4044526377952753
21
-2.7968674409448817
0
LINE
8
BLACK
6
CONTINUOUS
10
4.4044526377952753
20
-2.7968674409448817
11
4.4045275590551176
21
-3.3602362204724407
0
LINE
8
BLACK
6
CONTINUOUS
10
4.4045275590551176
20
-3.3602362204724407
11
4.4044526377952753
21
-3.3606128740157479
0
LINE
8
BLACK
6
CONTINUOUS
10
4.4044526377952753
20
-3.3606128740157479
11
4.4039199606299215
21
-3.3611455511811021
0
LINE
8
BLACK
6
CONTINUOUS
10
4.4039199606299215
20
-3.3611455511811021
11
3.7795275590551181
21
-3.3612204724409449
0
LINE
8
BLACK
6
CONTINUOUS
10
3.7795275590551181
20
-3.3612204724409449
11
3.7791509055118109
21
-3.3611455511811021
0
LINE
8
BLACK
6
CONTINUOUS
10
3.7791509055118109
20
-3.3611455511811021
11
3.7786182283464567
21
-3.3606128740157479
0
LINE
8
BLACK
6
CONTINUOUS
10
3.7786182283464567
20
-3.3606128740157479
11
3.7785433070866139
21
-2.7972440944881889
0
LINE
8
BLACK
6
CONTINUOUS
10
3.7785433070866139
20
-2.7972440944881889
11
3.7786182283464567
21
-2.7968674409448817
0
LINE
8
BLACK
6
CONTINUOUS
10
3.7786182283464567
20
-2.7968674409448817
11
3.7791509055118109
21
-2.7963347637795275
0
LINE
8
BLACK
6
CONTINUOUS
10
3.7791509055118109
20
-2.7963347637795275
11
4.4035433070866139
21
-2.7962598425196852
0
LINE
8
BLACK
6
CONTINUOUS
10
4.4035433070866139
20
-2.7962598425196852
11
4.4039199606299215
21
-2.7963347637795275
0
LINE
8
BLACK
6
CONTINUOUS
10
3.7804370472440945
20
-2.7982282283464568
11
3.7805116535433072
21
-3.3593266929133856
0
LINE
8
BLACK
6
CONTINUOUS
10
3.7805116535433072
20
-3.3593266929133856
11
4.4026337795275587
21
-3.3592520472440945
0
LINE
8
BLACK
6
CONTINUOUS
10
4.4026337795275587
20
-3.3592520472440945
11
4.4025591732283464
21
-2.7981535826771653
0
LINE
8
BLACK
6
CONTINUOUS
10
4.4025591732283464
20
-2.7981535826771653
11
3.7804370472440945
21
-2.7982282283464568
0
LINE
8
BLACK
6
CONTINUOUS
10
5.5871876771653541
20
-3.3010591732283463
11
5.5877203543307088
21
-3.3015918503937005
0
LINE
8
BLACK
6
CONTINUOUS
10
5.5877203543307088
20
-3.3015918503937005
11
5.5877952755905511
21
-3.3594488188976377
0
LINE
8
BLACK
6
CONTINUOUS
10
5.5877952755905511
20
-3.3594488188976377
11
5.5877203543307088
21
-3.3598254724409449
0
LINE
8
BLACK
6
CONTINUOUS
10
5.5877203543307088
20
-3.3598254724409449
11
5.5871876771653541
21
-3.3603581496062991
0
LINE
8
BLACK
6
CONTINUOUS
10
5.5871876771653541
20
-3.3603581496062991
11
5.4702755905511813
21
-3.3604330708661418
0
LINE
8
BLACK
6
CONTINUOUS
10
5.4702755905511813
20
-3.3604330708661418
11
5.4698989370078737
21
-3.3603581496062991
0
LINE
8
BLACK
6
CONTINUOUS
10
5.4698989370078737
20
-3.3603581496062991
11
5.4693662598425199
21
-3.3598254724409449
0
LINE
8
BLACK
6
CONTINUOUS
10
5.4693662598425199
20
-3.3598254724409449
11
5.4692913385826767
21
-3.3019685039370077
0
LINE
8
BLACK
6
CONTINUOUS
10
5.4692913385826767
20
-3.3019685039370077
11
5.4693662598425199
21
-3.3015918503937005
0
LINE
8
BLACK
6
CONTINUOUS
10
5.4693662598425199
20
-3.3015918503937005
11
5.4698989370078737
21
-3.3010591732283463
0
LINE
8
BLACK
6
CONTINUOUS
10
5.4698989370078737
20
-3.3010591732283463
11
5.5868110236220474
21
-3.300984251968504
0
LINE
8
BLACK
6
CONTINUOUS
10
5.5868110236220474
20
-3.300984251968504
11
5.5871876771653541
21
-3.3010591732283463
0
LINE
8
BLACK
6
CONTINUOUS
10
5.4711866535433069
20
-3.3029521653543306
11
5.4712586614173224
21
-3.3585385826771654
0
LINE
8
BLACK
6
CONTINUOUS
10
5.4712586614173224
20
-3.3585385826771654
11
5.5858999212598421
21
-3.3584651181102361
0
LINE
8
BLACK
6
CONTINUOUS
10
5.5858999212598421
20
-3.3584651181102361
11
5.5858279133858266
21
-3.3028787007874016
0
LINE
8
BLACK
6
CONTINUOUS
10
5.5858279133858266
20
-3.3028787007874016
11
5.4711866535433069
21
-3.3029521653543306
0
LINE
8
BLACK
6
CONTINUOUS
10
5.8202585433070864
20
-3.0650355511811025
11
5.820791220472441
21
-3.0655682283464567
0
LINE
8
BLACK
6
CONTINUOUS
10
5.820791220472441
20
-3.0655682283464567
11
5.8208661417322833
21
-3.3120078740157481
0
LINE
8
BLACK
6
CONTINUOUS
10
5.8208661417322833
20
-3.3120078740157481
11
5.820791220472441
21
-3.3123845275590549
0
LINE
8
BLACK
6
CONTINUOUS
10
5.820791220472441
20
-3.3123845275590549
11
5.8202585433070864
21
-3.3129172047244095
0
LINE
8
BLACK
6
CONTINUOUS
10
5.8202585433070864
20
-3.3129172047244095
11
5.6131889763779528
21
-3.3129921259842519
0
LINE
8
BLACK
6
CONTINUOUS
10
5.6131889763779528
20
-3.3129921259842519
11
5.6128123228346452
21
-3.3129172047244095
0
LINE
8
BLACK
6
CONTINUOUS
10
5.6128123228346452
20
-3.3129172047244095
11
5.6122796456692914
21
-3.3123845275590549
0
LINE
8
BLACK
6
CONTINUOUS
10
5.6122796456692914
20
-3.3123845275590549
11
5.6122047244094491
21
-3.0659448818897639
0
LINE
8
BLACK
6
CONTINUOUS
10
5.6122047244094491
20
-3.0659448818897639
11
5.6122796456692914
21
-3.0655682283464567
0
LINE
8
BLACK
6
CONTINUOUS
10
5.6122796456692914
20
-3.0655682283464567
11
5.6128123228346452
21
-3.0650355511811025
0
LINE
8
BLACK
6
CONTINUOUS
10
5.6128123228346452
20
-3.0650355511811025
11
5.8198818897637796
21
-3.0649606299212597
0
LINE
8
BLACK
6
CONTINUOUS
10
5.8198818897637796
20
-3.0649606299212597
11
5.8202585433070864
21
-3.0650355511811025
0
LINE
8
BLACK
6
CONTINUOUS
10
5.6140987007874017
20
-3.0669287795275588
11
5.6141729133858265
21
-3.311098031496063
0
LINE
8
BLACK
6
CONTINUOUS
10
5.6141729133858265
20
-3.311098031496063
11
5.818972125984252
21
-3.311023937007874
0
LINE
8
BLACK
6
CONTINUOUS
10
5.818972125984252
20
-3.311023937007874
11
5.8188979133858263
21
-3.0668546850393699
0
LINE
8
BLACK
6
CONTINUOUS
10
5.8188979133858263
20
-3.0668546850393699
11
5.6140987007874017
21
-3.0669287795275588
0
LINE
8
BLACK
6
CONTINUOUS
10
6.2779357086614169
20
-3.2223190157480315
11
6.2784683858267716
21
-3.2228516929133857
0
LINE
8
BLACK
6
CONTINUOUS
10
6.2784683858267716
20
-3.2228516929133857
11
6.2785433070866139
21
-3.2807086614173229
0
LINE
8
BLACK
6
CONTINUOUS
10
6.2785433070866139
20
-3.2807086614173229
11
6.2784683858267716
21
-3.2810853149606301
0
LINE
8
BLACK
6
CONTINUOUS
10
6.2784683858267716
20
-3.2810853149606301
11
6.2779357086614169
21
-3.2816179921259843
0
LINE
8
BLACK
6
CONTINUOUS
10
6.2779357086614169
20
-3.2816179921259843
11
6.1610236220472441
21
-3.2816929133858266
0
LINE
8
BLACK
6
CONTINUOUS
10
6.1610236220472441
20
-3.2816929133858266
11
6.1606469685039364
21
-3.2816179921259843
0
LINE
8
BLACK
6
CONTINUOUS
10
6.1606469685039364
20
-3.2816179921259843
11
6.1601142913385827
21
-3.2810853149606301
0
LINE
8
BLACK
6
CONTINUOUS
10
6.1601142913385827
20
-3.2810853149606301
11
6.1600393700787404
21
-3.2232283464566929
0
LINE
8
BLACK
6
CONTINUOUS
10
6.1600393700787404
20
-3.2232283464566929
11
6.1601142913385827
21
-3.2228516929133857
0
LINE
8
BLACK
6
CONTINUOUS
10
6.1601142913385827
20
-3.2228516929133857
11
6.1606469685039364
21
-3.2223190157480315
0
LINE
8
BLACK
6
CONTINUOUS
10
6.1606469685039364
20
-3.2223190157480315
11
6.2775590551181102
21
-3.2222440944881887
0
LINE
8
BLACK
6
CONTINUOUS
10
6.2775590551181102
20
-3.2222440944881887
11
6.2779357086614169
21
-3.2223190157480315
0
LINE
8
BLACK
6
CONTINUOUS
10
6.1619346850393697
20
-3.2242120078740157
11
6.1620066929133861
21
-3.2797984251968502
0
LINE
8
BLACK
6
CONTINUOUS
10
6.1620066929133861
20
-3.2797984251968502
11
6.2766479527559058
21
-3.2797249606299212
0
LINE
8
BLACK
6
CONTINUOUS
10
6.2766479527559058
20
-3.2797249606299212
11
6.2765759448818894
21
-3.2241385433070864
0
LINE
8
BLACK
6
CONTINUOUS
10
6.2765759448818894
20
-3.2241385433070864
11
6.1619346850393697
21
-3.2242120078740157
0
LINE
8
BLACK
6
CONTINUOUS
10
4.9421089370078741
20
-3.214445
11
4.9426416141732279
21
-3.2149776771653542
0
LINE
8
BLACK
6
CONTINUOUS
10
4.9426416141732279
20
-3.2149776771653542
11
4.9427165354330711
21
-3.2728346456692914
0
LINE
8
BLACK
6
CONTINUOUS
10
4.9427165354330711
20
-3.2728346456692914
11
4.9426416141732279
21
-3.2732112992125986
0
LINE
8
BLACK
6
CONTINUOUS
10
4.9426416141732279
20
-3.2732112992125986
11
4.9421089370078741
21
-3.2737439763779528
0
LINE
8
BLACK
6
CONTINUOUS
10
4.9421089370078741
20
-3.2737439763779528
11
4.8251968503937004
21
-3.2738188976377951
0
LINE
8
BLACK
6
CONTINUOUS
10
4.8251968503937004
20
-3.2738188976377951
11
4.8248201968503936
21
-3.2737439763779528
0
LINE
8
BLACK
6
CONTINUOUS
10
4.8248201968503936
20
-3.2737439763779528
11
4.824287519685039
21
-3.2732112992125986
0
LINE
8
BLACK
6
CONTINUOUS
10
4.824287519685039
20
-3.2732112992125986
11
4.8242125984251967
21
-3.2153543307086614
0
LINE
8
BLACK
6
CONTINUOUS
10
4.8242125984251967
20
-3.2153543307086614
11
4.824287519685039
21
-3.2149776771653542
0
LINE
8
BLACK
6
CONTINUOUS
10
4.824287519685039
20
-3.2149776771653542
11
4.8248201968503936
21
-3.214445
0
LINE
8
BLACK
6
CONTINUOUS
10
4.8248201968503936
20
-3.214445
11
4.9417322834645665
21
-3.2143700787401572
0
LINE
8
BLACK
6
CONTINUOUS
10
4.9417322834645665
20
-3.2143700787401572
11
4.9421089370078741
21
-3.214445
0
LINE
8
BLACK
6
CONTINUOUS
10
4.8261079133858269
20
-3.2163379921259843
11
4.8261799212598424
21
-3.2719244094488187
0
LINE
8
BLACK
6
CONTINUOUS
10
4.8261799212598424
20
-3.2719244094488187
11
4.9408211811023621
21
-3.2718509448818898
0
LINE
8
BLACK
6
CONTINUOUS
10
4.9408211811023621
20
-3.2718509448818898
11
4.9407491732283466
21
-3.2162645275590549
0
LINE
8
BLACK
6
CONTINUOUS
10
4.9407491732283466
20
-3.2162645275590549
11
4.8261079133858269
21
-3.2163379921259843
0
LINE
8
BLACK
6
CONTINUOUS
10
5.2578569685039369
20
-3.214445
11
5.2583896456692916
21
-3.2149776771653542
0
LINE
8
BLACK
6
CONTINUOUS
10
5.2583896456692916
20
-3.2149776771653542
11
5.2584645669291339
21
-3.2728346456692914
0
LINE
8
BLACK
6
CONTINUOUS
10
5.2584645669291339
20
-3.2728346456692914
11
5.2583896456692916
21
-3.2732112992125986
0
LINE
8
BLACK
6
CONTINUOUS
10
5.2583896456692916
20
-3.2732112992125986
11
5.2578569685039369
21
-3.2737439763779528
0
LINE
8
BLACK
6
CONTINUOUS
10
5.2578569685039369
20
-3.2737439763779528
11
5.1409448818897641
21
-3.2738188976377951
0
LINE
8
BLACK
6
CONTINUOUS
10
5.1409448818897641
20
-3.2738188976377951
11
5.1405682283464564
21
-3.2737439763779528
0
LINE
8
BLACK
6
CONTINUOUS
10
5.1405682283464564
20
-3.2737439763779528
11
5.1400355511811027
21
-3.2732112992125986
0
LINE
8
BLACK
6
CONTINUOUS
10
5.1400355511811027
20
-3.2732112992125986
11
5.1399606299212595
21
-3.2153543307086614
0
LINE
8
BLACK
6
CONTINUOUS
10
5.1399606299212595
20
-3.2153543307086614
11
5.1400355511811027
21
-3.2149776771653542
0
LINE
8
BLACK
6
CONTINUOUS
10
5.1400355511811027
20
-3.2149776771653542
11
5.1405682283464564
21
-3.214445
0
LINE
8
BLACK
6
CONTINUOUS
10
5.1405682283464564
20
-3.214445
11
5.2574803149606302
21
-3.2143700787401572
0
LINE
8
BLACK
6
CONTINUOUS
10
5.2574803149606302
20
-3.2143700787401572
11
5.2578569685039369
21
-3.214445
0
LINE
8
BLACK
6
CONTINUOUS
10
5.1418559448818897
20
-3.2163379921259843
11
5.1419279527559052
21
-3.2719244094488187
0
LINE
8
BLACK
6
CONTINUOUS
10
5.1419279527559052
20
-3.2719244094488187
11
5.2565692125984249
21
-3.2718509448818898
0
LINE
8
BLACK
6
CONTINUOUS
10
5.2565692125984249
20
-3.2718509448818898
11
5.2564972047244094
21
-3.2162645275590549
0
LINE
8
BLACK
6
CONTINUOUS
10
5.2564972047244094
20
-3.2162645275590549
11
5.1418559448818897
21
-3.2163379921259843
0
LINE
8
BLACK
6
CONTINUOUS
10
5.4157309842519687
20
-3.214445
11
5.4162636614173225
21
-3.2149776771653542
0
LINE
8
BLACK
6
CONTINUOUS
10
5.4162636614173225
20
-3.2149776771653542
11
5.4163385826771648
21
-3.2728346456692914
0
LINE
8
BLACK
6
CONTINUOUS
10
5.4163385826771648
20
-3.2728346456692914
11
5.4162636614173225
21
-3.2732112992125986
0
LINE
8
BLACK
6
CONTINUOUS
10
5.4162636614173225
20
-3.2732112992125986
11
5.4157309842519687
21
-3.2737439763779528
0
LINE
8
BLACK
6
CONTINUOUS
10
5.4157309842519687
20
-3.2737439763779528
11
5.298818897637795
21
-3.2738188976377951
0
LINE
8
BLACK
6
CONTINUOUS
10
5.298818897637795
20
-3.2738188976377951
11
5.2984422440944883
21
-3.2737439763779528
0
LINE
8
BLACK
6
CONTINUOUS
10
5.2984422440944883
20
-3.2737439763779528
11
5.2979095669291336
21
-3.2732112992125986
0
LINE
8
BLACK
6
CONTINUOUS
10
5.2979095669291336
20
-3.2732112992125986
11
5.2978346456692913
21
-3.2153543307086614
0
LINE
8
BLACK
6
CONTINUOUS
10
5.2978346456692913
20
-3.2153543307086614
11
5.2979095669291336
21
-3.2149776771653542
0
LINE
8
BLACK
6
CONTINUOUS
10
5.2979095669291336
20
-3.2149776771653542
11
5.2984422440944883
21
-3.214445
0
LINE
8
BLACK
6
CONTINUOUS
10
5.2984422440944883
20
-3.214445
11
5.4153543307086611
21
-3.2143700787401572
0
LINE
8
BLACK
6
CONTINUOUS
10
5.4153543307086611
20
-3.2143700787401572
11
5.4157309842519687
21
-3.214445
0
LINE
8
BLACK
6
CONTINUOUS
10
5.2997299606299215
20
-3.2163379921259843
11
5.299801968503937
21
-3.2719244094488187
0
LINE
8
BLACK
6
CONTINUOUS
10
5.299801968503937
20
-3.2719244094488187
11
5.4144432283464567
21
-3.2718509448818898
0
LINE
8
BLACK
6
CONTINUOUS
10
5.4144432283464567
20
-3.2718509448818898
11
5.4143712204724412
21
-3.2162645275590549
0
LINE
8
BLACK
6
CONTINUOUS
10
5.4143712204724412
20
-3.2162645275590549
11
5.2997299606299215
21
-3.2163379921259843
0
LINE
8
BLACK
6
CONTINUOUS
10
5.5478175984251967
20
-3.2065709842519685
11
5.5483502755905514
21
-3.2071036614173227
0
LINE
8
BLACK
6
CONTINUOUS
10
5.5483502755905514
20
-3.2071036614173227
11
5.5484251968503937
21
-3.2649606299212599
0
LINE
8
BLACK
6
CONTINUOUS
10
5.5484251968503937
20
-3.2649606299212599
11
5.5483502755905514
21
-3.2653372834645666
0
LINE
8
BLACK
6
CONTINUOUS
10
5.5483502755905514
20
-3.2653372834645666
11
5.5478175984251967
21
-3.2658699606299213
0
LINE
8
BLACK
6
CONTINUOUS
10
5.5478175984251967
20
-3.2658699606299213
11
5.4309055118110239
21
-3.2659448818897636
0
LINE
8
BLACK
6
CONTINUOUS
10
5.4309055118110239
20
-3.2659448818897636
11
5.4305288582677163
21
-3.2658699606299213
0
LINE
8
BLACK
6
CONTINUOUS
10
5.4305288582677163
20
-3.2658699606299213
11
5.4299961811023625
21
-3.2653372834645666
0
LINE
8
BLACK
6
CONTINUOUS
10
5.4299961811023625
20
-3.2653372834645666
11
5.4299212598425193
21
-3.2074803149606299
0
LINE
8
BLACK
6
CONTINUOUS
10
5.4299212598425193
20
-3.2074803149606299
11
5.4299961811023625
21
-3.2071036614173227
0
LINE
8
BLACK
6
CONTINUOUS
10
5.4299961811023625
20
-3.2071036614173227
11
5.4305288582677163
21
-3.2065709842519685
0
LINE
8
BLACK
6
CONTINUOUS
10
5.4305288582677163
20
-3.2065709842519685
11
5.54744094488189
21
-3.2064960629921258
0
LINE
8
BLACK
6
CONTINUOUS
10
5.54744094488189
20
-3.2064960629921258
11
5.5478175984251967
21
-3.2065709842519685
0
LINE
8
BLACK
6
CONTINUOUS
10
5.4318165748031495
20
-3.2084639763779528
11
5.431888582677165
21
-3.2640503937007872
0
LINE
8
BLACK
6
CONTINUOUS
10
5.431888582677165
20
-3.2640503937007872
11
5.5465298425196847
21
-3.2639769291338583
0
LINE
8
BLACK
6
CONTINUOUS
10
5.5465298425196847
20
-3.2639769291338583
11
5.5464578346456692
21
-3.2083905118110234
0
LINE
8
BLACK
6
CONTINUOUS
10
5.5464578346456692
20
-3.2083905118110234
11
5.4318165748031495
21
-3.2084639763779528
0
LINE
8
BLACK
6
CONTINUOUS
10
6.2779357086614169
20
-3.1203505118110235
11
6.2784683858267716
21
-3.1208831889763777
0
LINE
8
BLACK
6
CONTINUOUS
10
6.2784683858267716
20
-3.1208831889763777
11
6.2785433070866139
21
-3.1787401574803149
0
LINE
8
BLACK
6
CONTINUOUS
10
6.2785433070866139
20
-3.1787401574803149
11
6.2784683858267716
21
-3.1791168110236221
0
LINE
8
BLACK
6
CONTINUOUS
10
6.2784683858267716
20
-3.1791168110236221
11
6.2779357086614169
21
-3.1796494881889763
0
LINE
8
BLACK
6
CONTINUOUS
10
6.2779357086614169
20
-3.1796494881889763
11
6.1610236220472441
21
-3.1797244094488186
0
LINE
8
BLACK
6
CONTINUOUS
10
6.1610236220472441
20
-3.1797244094488186
11
6.1606469685039364
21
-3.1796494881889763
0
LINE
8
BLACK
6
CONTINUOUS
10
6.1606469685039364
20
-3.1796494881889763
11
6.1601142913385827
21
-3.1791168110236221
0
LINE
8
BLACK
6
CONTINUOUS
10
6.1601142913385827
20
-3.1791168110236221
11
6.1600393700787404
21
-3.1212598425196849
0
LINE
8
BLACK
6
CONTINUOUS
10
6.1600393700787404
20
-3.1212598425196849
11
6.1601142913385827
21
-3.1208831889763777
0
LINE
8
BLACK
6
CONTINUOUS
10
6.1601142913385827
20
-3.1208831889763777
11
6.1606469685039364
21
-3.1203505118110235
0
LINE
8
BLACK
6
CONTINUOUS
10
6.1606469685039364
20
-3.1203505118110235
11
6.2775590551181102
21
-3.1202755905511812
0
LINE
8
BLACK
6
CONTINUOUS
10
6.2775590551181102
20
-3.1202755905511812
11
6.2779357086614169
21
-3.1203505118110235
0
LINE
8
BLACK
6
CONTINUOUS
10
6.1619346850393697
20
-3.1222435039370078
11
6.1620066929133861
21
-3.1778299212598426
0
LINE
8
BLACK
6
CONTINUOUS
10
6.1620066929133861
20
-3.1778299212598426
11
6.2766479527559058
21
-3.1777564566929133
0
LINE
8
BLACK
6
CONTINUOUS
10
6.2766479527559058
20
-3.1777564566929133
11
6.2765759448818894
21
-3.1221700393700789
0
LINE
8
BLACK
6
CONTINUOUS
10
6.2765759448818894
20
-3.1221700393700789
11
6.1619346850393697
21
-3.1222435039370078
0
LINE
8
BLACK
6
CONTINUOUS
10
4.9421089370078741
20
-3.1156261023622047
11
4.9426416141732279
21
-3.1161587795275589
0
LINE
8
BLACK
6
CONTINUOUS
10
4.9426416141732279
20
-3.1161587795275589
11
4.9427165354330711
21
-3.1740157480314961
0
LINE
8
BLACK
6
CONTINUOUS
10
4.9427165354330711
20
-3.1740157480314961
11
4.9426416141732279
21
-3.1743924015748033
0
LINE
8
BLACK
6
CONTINUOUS
10
4.9426416141732279
20
-3.1743924015748033
11
4.9421089370078741
21
-3.1749250787401575
0
LINE
8
BLACK
6
CONTINUOUS
10
4.9421089370078741
20
-3.1749250787401575
11
4.8251968503937004
21
-3.1749999999999998
0
LINE
8
BLACK
6
CONTINUOUS
10
4.8251968503937004
20
-3.1749999999999998
11
4.8248201968503936
21
-3.1749250787401575
0
LINE
8
BLACK
6
CONTINUOUS
10
4.8248201968503936
20
-3.1749250787401575
11
4.824287519685039
21
-3.1743924015748033
0
LINE
8
BLACK
6
CONTINUOUS
10
4.824287519685039
20
-3.1743924015748033
11
4.8242125984251967
21
-3.1165354330708661
0
LINE
8
BLACK
6
CONTINUOUS
10
4.8242125984251967
20
-3.1165354330708661
11
4.824287519685039
21
-3.1161587795275589
0
LINE
8
BLACK
6
CONTINUOUS
10
4.824287519685039
20
-3.1161587795275589
11
4.8248201968503936
21
-3.1156261023622047
0
LINE
8
BLACK
6
CONTINUOUS
10
4.8248201968503936
20
-3.1156261023622047
11
4.9417322834645665
21
-3.115551181102362
0
LINE
8
BLACK
6
CONTINUOUS
10
4.9417322834645665
20
-3.115551181102362
11
4.9421089370078741
21
-3.1156261023622047
0
LINE
8
BLACK
6
CONTINUOUS
10
4.8261079133858269
20
-3.117519094488189
11
4.8261799212598424
21
-3.1731055118110234
0
LINE
8
BLACK
6
CONTINUOUS
10
4.8261799212598424
20
-3.1731055118110234
11
4.9408211811023621
21
-3.1730320472440945
0
LINE
8
BLACK
6
CONTINUOUS
10
4.9408211811023621
20
-3.1730320472440945
11
4.9407491732283466
21
-3.1174456299212596
0
LINE
8
BLACK
6
CONTINUOUS
10
4.9407491732283466
20
-3.1174456299212596
11
4.8261079133858269
21
-3.117519094488189
0
LINE
8
BLACK
6
CONTINUOUS
10
5.0999829527559051
20
-3.1156261023622047
11
5.1005156299212597
21
-3.1161587795275589
0
LINE
8
BLACK
6
CONTINUOUS
10
5.1005156299212597
20
-3.1161587795275589
11
5.1005905511811021
21
-3.1740157480314961
0
LINE
8
BLACK
6
CONTINUOUS
10
5.1005905511811021
20
-3.1740157480314961
11
5.1005156299212597
21
-3.1743924015748033
0
LINE
8
BLACK
6
CONTINUOUS
10
5.1005156299212597
20
-3.1743924015748033
11
5.0999829527559051
21
-3.1749250787401575
0
LINE
8
BLACK
6
CONTINUOUS
10
5.0999829527559051
20
-3.1749250787401575
11
4.9830708661417322
21
-3.1749999999999998
0
LINE
8
BLACK
6
CONTINUOUS
10
4.9830708661417322
20
-3.1749999999999998
11
4.9826942125984255
21
-3.1749250787401575
0
LINE
8
BLACK
6
CONTINUOUS
10
4.9826942125984255
20
-3.1749250787401575
11
4.9821615354330708
21
-3.1743924015748033
0
LINE
8
BLACK
6
CONTINUOUS
10
4.9821615354330708
20
-3.1743924015748033
11
4.9820866141732285
21
-3.1165354330708661
0
LINE
8
BLACK
6
CONTINUOUS
10
4.9820866141732285
20
-3.1165354330708661
11
4.9821615354330708
21
-3.1161587795275589
0
LINE
8
BLACK
6
CONTINUOUS
10
4.9821615354330708
20
-3.1161587795275589
11
4.9826942125984255
21
-3.1156261023622047
0
LINE
8
BLACK
6
CONTINUOUS
10
4.9826942125984255
20
-3.1156261023622047
11
5.0996062992125983
21
-3.115551181102362
0
LINE
8
BLACK
6
CONTINUOUS
10
5.0996062992125983
20
-3.115551181102362
11
5.0999829527559051
21
-3.1156261023622047
0
LINE
8
BLACK
6
CONTINUOUS
10
4.9839819291338578
20
-3.117519094488189
11
4.9840539370078742
21
-3.1731055118110234
0
LINE
8
BLACK
6
CONTINUOUS
10
4.9840539370078742
20
-3.1731055118110234
11
5.098695196850394
21
-3.1730320472440945
0
LINE
8
BLACK
6
CONTINUOUS
10
5.098695196850394
20
-3.1730320472440945
11
5.0986231889763776
21
-3.1174456299212596
0
LINE
8
BLACK
6
CONTINUOUS
10
5.0986231889763776
20
-3.1174456299212596
11
4.9839819291338578
21
-3.117519094488189
0
LINE
8
BLACK
6
CONTINUOUS
10
5.2578569685039369
20
-3.1156261023622047
11
5.2583896456692916
21
-3.1161587795275589
0
LINE
8
BLACK
6
CONTINUOUS
10
5.2583896456692916
20
-3.1161587795275589
11
5.2584645669291339
21
-3.1740157480314961
0
LINE
8
BLACK
6
CONTINUOUS
10
5.2584645669291339
20
-3.1740157480314961
11
5.2583896456692916
21
-3.1743924015748033
0
LINE
8
BLACK
6
CONTINUOUS
10
5.2583896456692916
20
-3.1743924015748033
11
5.2578569685039369
21
-3.1749250787401575
0
LINE
8
BLACK
6
CONTINUOUS
10
5.2578569685039369
20
-3.1749250787401575
11
5.1409448818897641
21
-3.1749999999999998
0
LINE
8
BLACK
6
CONTINUOUS
10
5.1409448818897641
20
-3.1749999999999998
11
5.1405682283464564
21
-3.1749250787401575
0
LINE
8
BLACK
6
CONTINUOUS
10
5.1405682283464564
20
-3.1749250787401575
11
5.1400355511811027
21
-3.1743924015748033
0
LINE
8
BLACK
6
CONTINUOUS
10
5.1400355511811027
20
-3.1743924015748033
11
5.1399606299212595
21
-3.1165354330708661
0
LINE
8
BLACK
6
CONTINUOUS
10
5.1399606299212595
20
-3.1165354330708661
11
5.1400355511811027
21
-3.1161587795275589
0
LINE
8
BLACK
6
CONTINUOUS
10
5.1400355511811027
20
-3.1161587795275589
11
5.1405682283464564
21
-3.1156261023622047
0
LINE
8
BLACK
6
CONTINUOUS
10
5.1405682283464564
20
-3.1156261023622047
11
5.2574803149606302
21
-3.115551181102362
0
LINE
8
BLACK
6
CONTINUOUS
10
5.2574803149606302
20
-3.115551181102362
11
5.2578569685039369
21
-3.1156261023622047
0
LINE
8
BLACK
6
CONTINUOUS
10
5.1418559448818897
20
-3.117519094488189
11
5.1419279527559052
21
-3.1731055118110234
0
LINE
8
BLACK
6
CONTINUOUS
10
5.1419279527559052
20
-3.1731055118110234
11
5.2565692125984249
21
-3.1730320472440945
0
LINE
8
BLACK
6
CONTINUOUS
10
5.2565692125984249
20
-3.1730320472440945
11
5.2564972047244094
21
-3.1174456299212596
0
LINE
8
BLACK
6
CONTINUOUS
10
5.2564972047244094
20
-3.1174456299212596
11
5.1418559448818897
21
-3.117519094488189
0
LINE
8
BLACK
6
CONTINUOUS
10
5.4157309842519687
20
-3.1156261023622047
11
5.4162636614173225
21
-3.1161587795275589
0
LINE
8
BLACK
6
CONTINUOUS
10
5.4162636614173225
20
-3.1161587795275589
11
5.4163385826771648
21
-3.1740157480314961
0
LINE
8
BLACK
6
CONTINUOUS
10
5.4163385826771648
20
-3.1740157480314961
11
5.4162636614173225
21
-3.1743924015748033
0
LINE
8
BLACK
6
CONTINUOUS
10
5.4162636614173225
20
-3.1743924015748033
11
5.4157309842519687
21
-3.1749250787401575
0
LINE
8
BLACK
6
CONTINUOUS
10
5.4157309842519687
20
-3.1749250787401575
11
5.298818897637795
21
-3.1749999999999998
0
LINE
8
BLACK
6
CONTINUOUS
10
5.298818897637795
20
-3.1749999999999998
11
5.2984422440944883
21
-3.1749250787401575
0
LINE
8
BLACK
6
CONTINUOUS
10
5.2984422440944883
20
-3.1749250787401575
11
5.2979095669291336
21
-3.1743924015748033
0
LINE
8
BLACK
6
CONTINUOUS
10
5.2979095669291336
20
-3.1743924015748033
11
5.2978346456692913
21
-3.1165354330708661
0
LINE
8
BLACK
6
CONTINUOUS
10
5.2978346456692913
20
-3.1165354330708661
11
5.2979095669291336
21
-3.1161587795275589
0
LINE
8
BLACK
6
CONTINUOUS
10
5.2979095669291336
20
-3.1161587795275589
11
5.2984422440944883
21
-3.1156261023622047
0
LINE
8
BLACK
6
CONTINUOUS
10
5.2984422440944883
20
-3.1156261023622047
11
5.4153543307086611
21
-3.115551181102362
0
LINE
8
BLACK
6
CONTINUOUS
10
5.4153543307086611
20
-3.115551181102362
11
5.4157309842519687
21
-3.1156261023622047
0
LINE
8
BLACK
6
CONTINUOUS
10
5.2997299606299215
20
-3.117519094488189
11
5.299801968503937
21
-3.1731055118110234
0
LINE
8
BLACK
6
CONTINUOUS
10
5.299801968503937
20
-3.1731055118110234
11
5.4144432283464567
21
-3.1730320472440945
0
LINE
8
BLACK
6
CONTINUOUS
10
5.4144432283464567
20
-3.1730320472440945
11
5.4143712204724412
21
-3.1174456299212596
0
LINE
8
BLACK
6
CONTINUOUS
10
5.4143712204724412
20
-3.1174456299212596
11
5.2997299606299215
21
-3.117519094488189
0
LINE
8
BLACK
6
CONTINUOUS
10
6.2779357086614169
20
-3.0183820078740156
11
6.2784683858267716
21
-3.0189146850393702
0
LINE
8
BLACK
6
CONTINUOUS
10
6.2784683858267716
20
-3.0189146850393702
11
6.2785433070866139
21
-3.076771653543307
0
LINE
8
BLACK
6
CONTINUOUS
10
6.2785433070866139
20
-3.076771653543307
11
6.2784683858267716
21
-3.0771483070866141
0
LINE
8
BLACK
6
CONTINUOUS
10
6.2784683858267716
20
-3.0771483070866141
11
6.2779357086614169
21
-3.0776809842519683
0
LINE
8
BLACK
6
CONTINUOUS
10
6.2779357086614169
20
-3.0776809842519683
11
6.1610236220472441
21
-3.0777559055118111
0
LINE
8
BLACK
6
CONTINUOUS
10
6.1610236220472441
20
-3.0777559055118111
11
6.1606469685039364
21
-3.0776809842519683
0
LINE
8
BLACK
6
CONTINUOUS
10
6.1606469685039364
20
-3.0776809842519683
11
6.1601142913385827
21
-3.0771483070866141
0
LINE
8
BLACK
6
CONTINUOUS
10
6.1601142913385827
20
-3.0771483070866141
11
6.1600393700787404
21
-3.019291338582677
0
LINE
8
BLACK
6
CONTINUOUS
10
6.1600393700787404
20
-3.019291338582677
11
6.1601142913385827
21
-3.0189146850393702
0
LINE
8
BLACK
6
CONTINUOUS
10
6.1601142913385827
20
-3.0189146850393702
11
6.1606469685039364
21
-3.0183820078740156
0
LINE
8
BLACK
6
CONTINUOUS
10
6.1606469685039364
20
-3.0183820078740156
11
6.2775590551181102
21
-3.0183070866141732
0
LINE
8
BLACK
6
CONTINUOUS
10
6.2775590551181102
20
-3.0183070866141732
11
6.2779357086614169
21
-3.0183820078740156
0
LINE
8
BLACK
6
CONTINUOUS
10
6.1619346850393697
20
-3.0202749999999998
11
6.1620066929133861
21
-3.0758614173228347
0
LINE
8
BLACK
6
CONTINUOUS
10
6.1620066929133861
20
-3.0758614173228347
11
6.2766479527559058
21
-3.0757879527559053
0
LINE
8
BLACK
6
CONTINUOUS
10
6.2766479527559058
20
-3.0757879527559053
11
6.2765759448818894
21
-3.0202015354330709
0
LINE
8
BLACK
6
CONTINUOUS
10
6.2765759448818894
20
-3.0202015354330709
11
6.1619346850393697
21
-3.0202749999999998
0
LINE
8
BLACK
6
CONTINUOUS
10
4.9421089370078741
20
-3.0168072047244094
11
4.9426416141732279
21
-3.0173398818897637
0
LINE
8
BLACK
6
CONTINUOUS
10
4.9426416141732279
20
-3.0173398818897637
11
4.9427165354330711
21
-3.0751968503937008
0
LINE
8
BLACK
6
CONTINUOUS
10
4.9427165354330711
20
-3.0751968503937008
11
4.9426416141732279
21
-3.075573503937008
0
LINE
8
BLACK
6
CONTINUOUS
10
4.9426416141732279
20
-3.075573503937008
11
4.9421089370078741
21
-3.0761061811023622
0
LINE
8
BLACK
6
CONTINUOUS
10
4.9421089370078741
20
-3.0761061811023622
11
4.8251968503937004
21
-3.0761811023622045
0
LINE
8
BLACK
6
CONTINUOUS
10
4.8251968503937004
20
-3.0761811023622045
11
4.8248201968503936
21
-3.0761061811023622
0
LINE
8
BLACK
6
CONTINUOUS
10
4.8248201968503936
20
-3.0761061811023622
11
4.824287519685039
21
-3.075573503937008
0
LINE
8
BLACK
6
CONTINUOUS
10
4.824287519685039
20
-3.075573503937008
11
4.8242125984251967
21
-3.0177165354330708
0
LINE
8
BLACK
6
CONTINUOUS
10
4.8242125984251967
20
-3.0177165354330708
11
4.824287519685039
21
-3.0173398818897637
0
LINE
8
BLACK
6
CONTINUOUS
10
4.824287519685039
20
-3.0173398818897637
11
4.8248201968503936
21
-3.0168072047244094
0
LINE
8
BLACK
6
CONTINUOUS
10
4.8248201968503936
20
-3.0168072047244094
11
4.9417322834645665
21
-3.0167322834645667
0
LINE
8
BLACK
6
CONTINUOUS
10
4.9417322834645665
20
-3.0167322834645667
11
4.9421089370078741
21
-3.0168072047244094
0
LINE
8
BLACK
6
CONTINUOUS
10
4.8261079133858269
20
-3.0187001968503937
11
4.8261799212598424
21
-3.0742866141732281
0
LINE
8
BLACK
6
CONTINUOUS
10
4.8261799212598424
20
-3.0742866141732281
11
4.9408211811023621
21
-3.0742131496062992
0
LINE
8
BLACK
6
CONTINUOUS
10
4.9408211811023621
20
-3.0742131496062992
11
4.9407491732283466
21
-3.0186267322834643
0
LINE
8
BLACK
6
CONTINUOUS
10
4.9407491732283466
20
-3.0186267322834643
11
4.8261079133858269
21
-3.0187001968503937
0
LINE
8
BLACK
6
CONTINUOUS
10
5.0999829527559051
20
-3.0168072047244094
11
5.1005156299212597
21
-3.0173398818897637
0
LINE
8
BLACK
6
CONTINUOUS
10
5.1005156299212597
20
-3.0173398818897637
11
5.1005905511811021
21
-3.0751968503937008
0
LINE
8
BLACK
6
CONTINUOUS
10
5.1005905511811021
20
-3.0751968503937008
11
5.1005156299212597
21
-3.075573503937008
0
LINE
8
BLACK
6
CONTINUOUS
10
5.1005156299212597
20
-3.075573503937008
11
5.0999829527559051
21
-3.0761061811023622
0
LINE
8
BLACK
6
CONTINUOUS
10
5.0999829527559051
20
-3.0761061811023622
11
4.9830708661417322
21
-3.0761811023622045
0
LINE
8
BLACK
6
CONTINUOUS
10
4.9830708661417322
20
-3.0761811023622045
11
4.9826942125984255
21
-3.0761061811023622
0
LINE
8
BLACK
6
CONTINUOUS
10
4.9826942125984255
20
-3.0761061811023622
11
4.9821615354330708
21
-3.075573503937008
0
LINE
8
BLACK
6
CONTINUOUS
10
4.9821615354330708
20
-3.075573503937008
11
4.9820866141732285
21
-3.0177165354330708
0
LINE
8
BLACK
6
CONTINUOUS
10
4.9820866141732285
20
-3.0177165354330708
11
4.9821615354330708
21
-3.0173398818897637
0
LINE
8
BLACK
6
CONTINUOUS
10
4.9821615354330708
20
-3.0173398818897637
11
4.9826942125984255
21
-3.0168072047244094
0
LINE
8
BLACK
6
CONTINUOUS
10
4.9826942125984255
20
-3.0168072047244094
11
5.0996062992125983
21
-3.0167322834645667
0
LINE
8
BLACK
6
CONTINUOUS
10
5.0996062992125983
20
-3.0167322834645667
11
5.0999829527559051
21
-3.0168072047244094
0
LINE
8
BLACK
6
CONTINUOUS
10
4.9839819291338578
20
-3.0187001968503937
11
4.9840539370078742
21
-3.0742866141732281
0
LINE
8
BLACK
6
CONTINUOUS
10
4.9840539370078742
20
-3.0742866141732281
11
5.098695196850394
21
-3.0742131496062992
0
LINE
8
BLACK
6
CONTINUOUS
10
5.098695196850394
20
-3.0742131496062992
11
5.0986231889763776
21
-3.0186267322834643
0
LINE
8
BLACK
6
CONTINUOUS
10
5.0986231889763776
20
-3.0186267322834643
11
4.9839819291338578
21
-3.0187001968503937
0
LINE
8
BLACK
6
CONTINUOUS
10
5.2578569685039369
20
-3.0168072047244094
11
5.2583896456692916
21
-3.0173398818897637
0
LINE
8
BLACK
6
CONTINUOUS
10
5.2583896456692916
20
-3.0173398818897637
11
5.2584645669291339
21
-3.0751968503937008
0
LINE
8
BLACK
6
CONTINUOUS
10
5.2584645669291339
20
-3.0751968503937008
11
5.2583896456692916
21
-3.075573503937008
0
LINE
8
BLACK
6
CONTINUOUS
10
5.2583896456692916
20
-3.075573503937008
11
5.2578569685039369
21
-3.0761061811023622
0
LINE
8
BLACK
6
CONTINUOUS
10
5.2578569685039369
20
-3.0761061811023622
11
5.1409448818897641
21
-3.0761811023622045
0
LINE
8
BLACK
6
CONTINUOUS
10
5.1409448818897641
20
-3.0761811023622045
11
5.1405682283464564
21
-3.0761061811023622
0
LINE
8
BLACK
6
CONTINUOUS
10
5.1405682283464564
20
-3.0761061811023622
11
5.1400355511811027
21
-3.075573503937008
0
LINE
8
BLACK
6
CONTINUOUS
10
5.1400355511811027
20
-3.075573503937008
11
5.1399606299212595
21
-3.0177165354330708
0
LINE
8
BLACK
6
CONTINUOUS
10
5.1399606299212595
20
-3.0177165354330708
11
5.1400355511811027
21
-3.0173398818897637
0
LINE
8
BLACK
6
CONTINUOUS
10
5.1400355511811027
20
-3.0173398818897637
11
5.1405682283464564
21
-3.0168072047244094
0
LINE
8
BLACK
6
CONTINUOUS
10
5.1405682283464564
20
-3.0168072047244094
11
5.2574803149606302
21
-3.0167322834645667
0
LINE
8
BLACK
6
CONTINUOUS
10
5.2574803149606302
20
-3.0167322834645667
11
5.2578569685039369
21
-3.0168072047244094
0
LINE
8
BLACK
6
CONTINUOUS
10
5.1418559448818897
20
-3.0187001968503937
11
5.1419279527559052
21
-3.0742866141732281
0
LINE
8
BLACK
6
CONTINUOUS
10
5.1419279527559052
20
-3.0742866141732281
11
5.2565692125984249
21
-3.0742131496062992
0
LINE
8
BLACK
6
CONTINUOUS
10
5.2565692125984249
20
-3.0742131496062992
11
5.2564972047244094
21
-3.0186267322834643
0
LINE
8
BLACK
6
CONTINUOUS
10
5.2564972047244094
20
-3.0186267322834643
11
5.1418559448818897
21
-3.0187001968503937
0
LINE
8
BLACK
6
CONTINUOUS
10
5.4157309842519687
20
-3.0168072047244094
11
5.4162636614173225
21
-3.0173398818897637
0
LINE
8
BLACK
6
CONTINUOUS
10
5.4162636614173225
20
-3.0173398818897637
11
5.4163385826771648
21
-3.0751968503937008
0
LINE
8
BLACK
6
CONTINUOUS
10
5.4163385826771648
20
-3.0751968503937008
11
5.4162636614173225
21
-3.075573503937008
0
LINE
8
BLACK
6
CONTINUOUS
10
5.4162636614173225
20
-3.075573503937008
11
5.4157309842519687
21
-3.0761061811023622
0
LINE
8
BLACK
6
CONTINUOUS
10
5.4157309842519687
20
-3.0761061811023622
11
5.298818897637795
21
-3.0761811023622045
0
LINE
8
BLACK
6
CONTINUOUS
10
5.298818897637795
20
-3.0761811023622045
11
5.2984422440944883
21
-3.0761061811023622
0
LINE
8
BLACK
6
CONTINUOUS
10
5.2984422440944883
20
-3.0761061811023622
11
5.2979095669291336
21
-3.075573503937008
0
LINE
8
BLACK
6
CONTINUOUS
10
5.2979095669291336
20
-3.075573503937008
11
5.2978346456692913
21
-3.0177165354330708
0
LINE
8
BLACK
6
CONTINUOUS
10
5.2978346456692913
20
-3.0177165354330708
11
5.2979095669291336
21
-3.0173398818897637
0
LINE
8
BLACK
6
CONTINUOUS
10
5.2979095669291336
20
-3.0173398818897637
11
5.2984422440944883
21
-3.0168072047244094
0
LINE
8
BLACK
6
CONTINUOUS
10
5.2984422440944883
20
-3.0168072047244094
11
5.4153543307086611
21
-3.0167322834645667
0
LINE
8
BLACK
6
CONTINUOUS
10
5.4153543307086611
20
-3.0167322834645667
11
5.4157309842519687
21
-3.0168072047244094
0
LINE
8
BLACK
6
CONTINUOUS
10
5.2997299606299215
20
-3.0187001968503937
11
5.299801968503937
21
-3.0742866141732281
0
LINE
8
BLACK
6
CONTINUOUS
10
5.299801968503937
20
-3.0742866141732281
11
5.4144432283464567
21
-3.0742131496062992
0
LINE
8
BLACK
6
CONTINUOUS
10
5.4144432283464567
20
-3.0742131496062992
11
5.4143712204724412
21
-3.0186267322834643
0
LINE
8
BLACK
6
CONTINUOUS
10
5.4143712204724412
20
-3.0186267322834643
11
5.2997299606299215
21
-3.0187001968503937
0
LINE
8
BLACK
6
CONTINUOUS
10
6.1860065748031499
20
-2.8943662598425197
11
6.1865392519685036
21
-2.8948989370078739
0
LINE
8
BLACK
6
CONTINUOUS
10
6.1865392519685036
20
-2.8948989370078739
11
6.1866141732283459
21
-2.9503937007874015
0
LINE
8
BLACK
6
CONTINUOUS
10
6.1866141732283459
20
-2.9503937007874015
11
6.1865392519685036
21
-2.9507703543307087
0
LINE
8
BLACK
6
CONTINUOUS
10
6.1865392519685036
20
-2.9507703543307087
11
6.1860065748031499
21
-2.9513030314960629
0
LINE
8
BLACK
6
CONTINUOUS
10
6.1860065748031499
20
-2.9513030314960629
11
6.0872047244094487
21
-2.9513779527559056
0
LINE
8
BLACK
6
CONTINUOUS
10
6.0872047244094487
20
-2.9513779527559056
11
6.086828070866142
21
-2.9513030314960629
0
LINE
8
BLACK
6
CONTINUOUS
10
6.086828070866142
20
-2.9513030314960629
11
6.0862953937007873
21
-2.9507703543307087
0
LINE
8
BLACK
6
CONTINUOUS
10
6.0862953937007873
20
-2.9507703543307087
11
6.086220472440945
21
-2.8952755905511811
0
LINE
8
BLACK
6
CONTINUOUS
10
6.086220472440945
20
-2.8952755905511811
11
6.0862953937007873
21
-2.8948989370078739
0
LINE
8
BLACK
6
CONTINUOUS
10
6.0862953937007873
20
-2.8948989370078739
11
6.086828070866142
21
-2.8943662598425197
0
LINE
8
BLACK
6
CONTINUOUS
10
6.086828070866142
20
-2.8943662598425197
11
6.1856299212598422
21
-2.894291338582677
0
LINE
8
BLACK
6
CONTINUOUS
10
6.1856299212598422
20
-2.894291338582677
11
6.1860065748031499
21
-2.8943662598425197
0
LINE
8
BLACK
6
CONTINUOUS
10
6.0881158661417318
20
-2.8962591338582677
11
6.0881877165354332
21
-2.9494833070866142
0
LINE
8
BLACK
6
CONTINUOUS
10
6.0881877165354332
20
-2.9494833070866142
11
6.1847187401574804
21
-2.9494101181102361
0
LINE
8
BLACK
6
CONTINUOUS
10
6.1847187401574804
20
-2.9494101181102361
11
6.184646889763779
21
-2.8961859448818896
0
LINE
8
BLACK
6
CONTINUOUS
10
6.184646889763779
20
-2.8961859448818896
11
6.0881158661417318
21
-2.8962591338582677
0
LINE
8
BLACK
6
CONTINUOUS
10
6.2472270472440945
20
-2.7193662598425195
11
6.2477597244094483
21
-2.7198989370078741
0
LINE
8
BLACK
6
CONTINUOUS
10
6.2477597244094483
20
-2.7198989370078741
11
6.2478346456692915
21
-2.8541338582677165
0
LINE
8
BLACK
6
CONTINUOUS
10
6.2478346456692915
20
-2.8541338582677165
11
6.2477597244094483
21
-2.8545105118110237
0
LINE
8
BLACK
6
CONTINUOUS
10
6.2477597244094483
20
-2.8545105118110237
11
6.2472270472440945
21
-2.8550431889763779
0
LINE
8
BLACK
6
CONTINUOUS
10
6.2472270472440945
20
-2.8550431889763779
11
6.0854330708661415
21
-2.8551181102362202
0
LINE
8
BLACK
6
CONTINUOUS
10
6.0854330708661415
20
-2.8551181102362202
11
6.0850564173228348
21
-2.8550431889763779
0
LINE
8
BLACK
6
CONTINUOUS
10
6.0850564173228348
20
-2.8550431889763779
11
6.0845237401574801
21
-2.8545105118110237
0
LINE
8
BLACK
6
CONTINUOUS
10
6.0845237401574801
20
-2.8545105118110237
11
6.0844488188976378
21
-2.7202755905511808
0
LINE
8
BLACK
6
CONTINUOUS
10
6.0844488188976378
20
-2.7202755905511808
11
6.0845237401574801
21
-2.7198989370078741
0
LINE
8
BLACK
6
CONTINUOUS
10
6.0845237401574801
20
-2.7198989370078741
11
6.0850564173228348
21
-2.7193662598425195
0
LINE
8
BLACK
6
CONTINUOUS
10
6.0850564173228348
20
-2.7193662598425195
11
6.2468503937007869
21
-2.7192913385826771
0
LINE
8
BLACK
6
CONTINUOUS
10
6.2468503937007869
20
-2.7192913385826771
11
6.2472270472440945
21
-2.7193662598425195
0
LINE
8
BLACK
6
CONTINUOUS
10
6.0863431496062992
20
-2.7212594094488187
11
6.0864168110236223
21
-2.8532238582677163
0
LINE
8
BLACK
6
CONTINUOUS
10
6.0864168110236223
20
-2.8532238582677163
11
6.2459402755905513
21
-2.8531499999999999
0
LINE
8
BLACK
6
CONTINUOUS
10
6.2459402755905513
20
-2.8531499999999999
11
6.2458666141732282
21
-2.7211855511811023
0
LINE
8
BLACK
6
CONTINUOUS
10
6.2458666141732282
20
-2.7211855511811023
11
6.0863431496062992
21
-2.7212594094488187
0
LINE
8
BLACK
6
CONTINUOUS
10
6.0444711417322834
20
-2.7124764960629921
11
6.045003818897638
21
-2.7130091732283463
0
LINE
8
BLACK
6
CONTINUOUS
10
6.045003818897638
20
-2.7130091732283463
11
6.0450787401574804
21
-2.8015748031496064
0
LINE
8
BLACK
6
CONTINUOUS
10
6.0450787401574804
20
-2.8015748031496064
11
6.045003818897638
21
-2.8019514566929131
0
LINE
8
BLACK
6
CONTINUOUS
10
6.045003818897638
20
-2.8019514566929131
11
6.0444711417322834
21
-2.8024841338582678
0
LINE
8
BLACK
6
CONTINUOUS
10
6.0444711417322834
20
-2.8024841338582678
11
5.8645669291338578
21
-2.8025590551181101
0
LINE
8
BLACK
6
CONTINUOUS
10
5.8645669291338578
20
-2.8025590551181101
11
5.8641902755905511
21
-2.8024841338582678
0
LINE
8
BLACK
6
CONTINUOUS
10
5.8641902755905511
20
-2.8024841338582678
11
5.8636575984251964
21
-2.8019514566929131
0
LINE
8
BLACK
6
CONTINUOUS
10
5.8636575984251964
20
-2.8019514566929131
11
5.8635826771653541
21
-2.7133858267716535
0
LINE
8
BLACK
6
CONTINUOUS
10
5.8635826771653541
20
-2.7133858267716535
11
5.8636575984251964
21
-2.7130091732283463
0
LINE
8
BLACK
6
CONTINUOUS
10
5.8636575984251964
20
-2.7130091732283463
11
5.8641902755905511
21
-2.7124764960629921
0
LINE
8
BLACK
6
CONTINUOUS
10
5.8641902755905511
20
-2.7124764960629921
11
6.0440944881889767
21
-2.7124015748031494
0
LINE
8
BLACK
6
CONTINUOUS
10
6.0440944881889767
20
-2.7124015748031494
11
6.0444711417322834
21
-2.7124764960629921
0
LINE
8
BLACK
6
CONTINUOUS
10
5.865477401574803
20
-2.7143696850393702
11
5.8655503937007873
21
-2.8006648818897637
0
LINE
8
BLACK
6
CONTINUOUS
10
5.8655503937007873
20
-2.8006648818897637
11
6.0431839763779527
21
-2.800590905511811
0
LINE
8
BLACK
6
CONTINUOUS
10
6.0431839763779527
20
-2.800590905511811
11
6.0431109842519684
21
-2.7142957086614175
0
LINE
8
BLACK
6
CONTINUOUS
10
6.0431109842519684
20
-2.7142957086614175
11
5.865477401574803
21
-2.7143696850393702
0
LINE
8
BLACK
6
CONTINUOUS
10
6.2365971259842521
20
-2.419169409448819
11
6.2371298031496059
21
-2.4197020866141732
0
LINE
8
BLACK
6
CONTINUOUS
10
6.2371298031496059
20
-2.4197020866141732
11
6.2372047244094491
21
-2.6720472440944882
0
LINE
8
BLACK
6
CONTINUOUS
10
6.2372047244094491
20
-2.6720472440944882
11
6.2371298031496059
21
-2.6724238976377954
0
LINE
8
BLACK
6
CONTINUOUS
10
6.2371298031496059
20
-2.6724238976377954
11
6.2365971259842521
21
-2.6729565748031496
0
LINE
8
BLACK
6
CONTINUOUS
10
6.2365971259842521
20
-2.6729565748031496
11
5.8645669291338578
21
-2.673031496062992
0
LINE
8
BLACK
6
CONTINUOUS
10
5.8645669291338578
20
-2.673031496062992
11
5.8641902755905511
21
-2.6729565748031496
0
LINE
8
BLACK
6
CONTINUOUS
10
5.8641902755905511
20
-2.6729565748031496
11
5.8636575984251964
21
-2.6724238976377954
0
LINE
8
BLACK
6
CONTINUOUS
10
5.8636575984251964
20
-2.6724238976377954
11
5.8635826771653541
21
-2.4200787401574804
0
LINE
8
BLACK
6
CONTINUOUS
10
5.8635826771653541
20
-2.4200787401574804
11
5.8636575984251964
21
-2.4197020866141732
0
LINE
8
BLACK
6
CONTINUOUS
10
5.8636575984251964
20
-2.4197020866141732
11
5.8641902755905511
21
-2.419169409448819
0
LINE
8
BLACK
6
CONTINUOUS
10
5.8641902755905511
20
-2.419169409448819
11
6.2362204724409445
21
-2.4190944881889762
0
LINE
8
BLACK
6
CONTINUOUS
10
6.2362204724409445
20
-2.4190944881889762
11
6.2365971259842521
21
-2.419169409448819
0
LINE
8
BLACK
6
CONTINUOUS
10
5.8654766535433067
20
-2.4210627952755903
11
5.8655509055118111
21
-2.6711376377952756
0
LINE
8
BLACK
6
CONTINUOUS
10
5.8655509055118111
20
-2.6711376377952756
11
6.2353107086614168
21
-2.6710631496062991
0
LINE
8
BLACK
6
CONTINUOUS
10
6.2353107086614168
20
-2.6710631496062991
11
6.2352364566929133
21
-2.4209883070866143
0
LINE
8
BLACK
6
CONTINUOUS
10
6.2352364566929133
20
-2.4209883070866143
11
5.8654766535433067
21
-2.4210627952755903
  0
ENDSEC
  0
EOF
