  0
SECTION
  2
HEADER
  9
$ANGBASE
  50
0.0
  9
$ANGDIR
  70
1
  9
$MEASUREMENT
  70
0
  0
ENDSEC
  0
SECTION
  2
TABLES
  0
TABLE
  2
LTYPE
  70
4
  0
LTYPE
  5
40F
  2
CONTINUOUS
  70
0
  3
Solid line
  72
65
  73
0
  40
0.0
  0
LTYPE
  5
410
  2
DASHDOT
 70
0
  3
Dash Dot ____ _ ____ _
 72
65
 73
4
 40
2.0
 49
1.25
 49
-0.25
 49
0.25
 49
-0.25
  0
LTYPE
  5
411
  2
DASHED
 70
0
  3
Dashed __ __ __ __ __
 72
65
 73
2
 40
0.75
 49
0.5
 49
-0.25
  0
LTYPE
  5
43B
  2
DOTTED
 70
0
  3
Dotted .  .  .  .
 72
65
 73
2
 40
0.2
 49
0.0
 49
-0.2
  0
ENDTAB
  0
TABLE
  2
STYLE
  70
4
  0
STYLE
  2
KICAD
  70
0
  40
0
  41
1
  42
1
  50
0
  71
0
  3
isocp.shx
  0
STYLE
  2
KICADB
  70
0
  40
0
  41
1
  42
1
  50
0
  71
0
  3
isocp.shx
  0
STYLE
  2
KICADI
  70
0
  40
0
  41
1
  42
1
  50
15
  71
0
  3
isocp.shx
  0
STYLE
  2
KICADBI
  70
0
  40
0
  41
1
  42
1
  50
15
  71
0
  3
isocp.shx
  0
ENDTAB
  0
TABLE
  2
LAYER
  70
1
  0
LAYER
  2
BLACK
  70
0
  62
7
  6
CONTINUOUS
  0
ENDTAB
  0
ENDSEC
  0
SECTION
  2
ENTITIES
0
LINE
8
BLACK
6
CONTINUOUS
10
5.0009142913385825
20
-5.5854523228346453
11
5.0067970472440946
21
-5.5885398031496063
0
LINE
8
BLACK
6
CONTINUOUS
10
5.0067970472440946
20
-5.5885398031496063
11
5.0117700000000003
21
-5.5929454330708657
0
LINE
8
BLACK
6
CONTINUOUS
10
5.0117700000000003
20
-5.5929454330708657
11
5.0155440551181103
21
-5.5984131496062988
0
LINE
8
BLACK
6
CONTINUOUS
10
5.0155440551181103
20
-5.5984131496062988
11
5.0178999606299213
21
-5.6046251574803145
0
LINE
8
BLACK
6
CONTINUOUS
10
5.0178999606299213
20
-5.6046251574803145
11
5.018700787401575
21
-5.6112204724409445
0
LINE
8
BLACK
6
CONTINUOUS
10
5.018700787401575
20
-5.6112204724409445
11
5.0178999606299213
21
-5.6178157874015744
0
LINE
8
BLACK
6
CONTINUOUS
10
5.0178999606299213
20
-5.6178157874015744
11
5.0155440551181103
21
-5.6240277952755902
0
LINE
8
BLACK
6
CONTINUOUS
10
5.0155440551181103
20
-5.6240277952755902
11
5.0117700000000003
21
-5.6294955118110233
0
LINE
8
BLACK
6
CONTINUOUS
10
5.0117700000000003
20
-5.6294955118110233
11
5.0067970472440946
21
-5.6339011417322835
0
LINE
8
BLACK
6
CONTINUOUS
10
5.0067970472440946
20
-5.6339011417322835
11
5.0009142913385825
21
-5.6369886220472436
0
LINE
8
BLACK
6
CONTINUOUS
10
5.0009142913385825
20
-5.6369886220472436
11
4.9944636220472436
21
-5.6385785826771651
0
LINE
8
BLACK
6
CONTINUOUS
10
4.9944636220472436
20
-5.6385785826771651
11
4.9878198425196851
21
-5.6385785826771651
0
LINE
8
BLACK
6
CONTINUOUS
10
4.9878198425196851
20
-5.6385785826771651
11
4.9813691732283463
21
-5.6369886220472436
0
LINE
8
BLACK
6
CONTINUOUS
10
4.9813691732283463
20
-5.6369886220472436
11
4.9754864173228341
21
-5.6339011417322835
0
LINE
8
BLACK
6
CONTINUOUS
10
4.9754864173228341
20
-5.6339011417322835
11
4.9705134645669293
21
-5.6294955118110233
0
LINE
8
BLACK
6
CONTINUOUS
10
4.9705134645669293
20
-5.6294955118110233
11
4.9667394094488184
21
-5.6240277952755902
0
LINE
8
BLACK
6
CONTINUOUS
10
4.9667394094488184
20
-5.6240277952755902
11
4.9643835039370074
21
-5.6178157874015744
0
LINE
8
BLACK
6
CONTINUOUS
10
4.9643835039370074
20
-5.6178157874015744
11
4.9635826771653546
21
-5.6112204724409445
0
LINE
8
BLACK
6
CONTINUOUS
10
4.9635826771653546
20
-5.6112204724409445
11
4.9643835039370074
21
-5.6046251574803145
0
LINE
8
BLACK
6
CONTINUOUS
10
4.9643835039370074
20
-5.6046251574803145
11
4.9667394094488184
21
-5.5984131496062988
0
LINE
8
BLACK
6
CONTINUOUS
10
4.9667394094488184
20
-5.5984131496062988
11
4.9705134645669293
21
-5.5929454330708657
0
LINE
8
BLACK
6
CONTINUOUS
10
4.9705134645669293
20
-5.5929454330708657
11
4.9754864173228341
21
-5.5885398031496063
0
LINE
8
BLACK
6
CONTINUOUS
10
4.9754864173228341
20
-5.5885398031496063
11
4.9813691732283463
21
-5.5854523228346453
0
LINE
8
BLACK
6
CONTINUOUS
10
4.9813691732283463
20
-5.5854523228346453
11
4.9878198425196851
21
-5.5838623622047239
0
LINE
8
BLACK
6
CONTINUOUS
10
4.9878198425196851
20
-5.5838623622047239
11
4.9944636220472436
21
-5.5838623622047239
0
LINE
8
BLACK
6
CONTINUOUS
10
4.9944636220472436
20
-5.5838623622047239
11
5.0009142913385825
21
-5.5854523228346453
0
LINE
8
BLACK
6
CONTINUOUS
10
5.4001737007874011
20
-5.4259399999999998
11
5.4100136614173229
21
-5.428975236220472
0
LINE
8
BLACK
6
CONTINUOUS
10
5.4100136614173229
20
-5.428975236220472
11
5.4192913385826769
21
-5.4334431496062994
0
LINE
8
BLACK
6
CONTINUOUS
10
5.4192913385826769
20
-5.4334431496062994
11
5.4277994881889766
21
-5.4392438976377955
0
LINE
8
BLACK
6
CONTINUOUS
10
5.4277994881889766
20
-5.4392438976377955
11
5.4353480708661417
21
-5.4462479527559058
0
LINE
8
BLACK
6
CONTINUOUS
10
5.4353480708661417
20
-5.4462479527559058
11
5.4417684251968499
21
-5.4542988188976373
0
LINE
8
BLACK
6
CONTINUOUS
10
5.4417684251968499
20
-5.4542988188976373
11
5.4469171653543302
21
-5.4632166535433067
0
LINE
8
BLACK
6
CONTINUOUS
10
5.4469171653543302
20
-5.4632166535433067
11
5.4506792125984251
21
-5.4728022834645671
0
LINE
8
BLACK
6
CONTINUOUS
10
5.4506792125984251
20
-5.4728022834645671
11
5.4529706299212597
21
-5.4828415748031496
0
LINE
8
BLACK
6
CONTINUOUS
10
5.4529706299212597
20
-5.4828415748031496
11
5.4537401574803148
21
-5.4931102362204722
0
LINE
8
BLACK
6
CONTINUOUS
10
5.4537401574803148
20
-5.4931102362204722
11
5.4529706299212597
21
-5.5033788976377949
0
LINE
8
BLACK
6
CONTINUOUS
10
5.4529706299212597
20
-5.5033788976377949
11
5.4506792125984251
21
-5.5134181889763783
0
LINE
8
BLACK
6
CONTINUOUS
10
5.4506792125984251
20
-5.5134181889763783
11
5.4469171653543302
21
-5.5230038188976378
0
LINE
8
BLACK
6
CONTINUOUS
10
5.4469171653543302
20
-5.5230038188976378
11
5.4417684251968499
21
-5.5319216535433071
0
LINE
8
BLACK
6
CONTINUOUS
10
5.4417684251968499
20
-5.5319216535433071
11
5.4353480708661417
21
-5.5399725196850396
0
LINE
8
BLACK
6
CONTINUOUS
10
5.4353480708661417
20
-5.5399725196850396
11
5.4277994881889766
21
-5.5469765748031499
0
LINE
8
BLACK
6
CONTINUOUS
10
5.4277994881889766
20
-5.5469765748031499
11
5.4192913385826769
21
-5.552777322834646
0
LINE
8
BLACK
6
CONTINUOUS
10
5.4192913385826769
20
-5.552777322834646
11
5.4100136614173229
21
-5.5572452362204725
0
LINE
8
BLACK
6
CONTINUOUS
10
5.4100136614173229
20
-5.5572452362204725
11
5.4001737007874011
21
-5.5602804724409447
0
LINE
8
BLACK
6
CONTINUOUS
10
5.4001737007874011
20
-5.5602804724409447
11
5.3899912598425193
21
-5.5618152362204727
0
LINE
8
BLACK
6
CONTINUOUS
10
5.3899912598425193
20
-5.5618152362204727
11
5.3796937795275586
21
-5.5618152362204727
0
LINE
8
BLACK
6
CONTINUOUS
10
5.3796937795275586
20
-5.5618152362204727
11
5.3695113385826767
21
-5.5602804724409447
0
LINE
8
BLACK
6
CONTINUOUS
10
5.3695113385826767
20
-5.5602804724409447
11
5.3596713779527558
21
-5.5572452362204725
0
LINE
8
BLACK
6
CONTINUOUS
10
5.3596713779527558
20
-5.5572452362204725
11
5.3503937007874018
21
-5.552777322834646
0
LINE
8
BLACK
6
CONTINUOUS
10
5.3503937007874018
20
-5.552777322834646
11
5.3418855511811021
21
-5.5469765748031499
0
LINE
8
BLACK
6
CONTINUOUS
10
5.3418855511811021
20
-5.5469765748031499
11
5.334336968503937
21
-5.5399725196850396
0
LINE
8
BLACK
6
CONTINUOUS
10
5.334336968503937
20
-5.5399725196850396
11
5.3279166141732279
21
-5.5319216535433071
0
LINE
8
BLACK
6
CONTINUOUS
10
5.3279166141732279
20
-5.5319216535433071
11
5.3227678740157476
21
-5.5230038188976378
0
LINE
8
BLACK
6
CONTINUOUS
10
5.3227678740157476
20
-5.5230038188976378
11
5.3190058267716536
21
-5.5134181889763783
0
LINE
8
BLACK
6
CONTINUOUS
10
5.3190058267716536
20
-5.5134181889763783
11
5.316714409448819
21
-5.5033788976377949
0
LINE
8
BLACK
6
CONTINUOUS
10
5.316714409448819
20
-5.5033788976377949
11
5.3159448818897639
21
-5.4931102362204722
0
LINE
8
BLACK
6
CONTINUOUS
10
5.3159448818897639
20
-5.4931102362204722
11
5.316714409448819
21
-5.4828415748031496
0
LINE
8
BLACK
6
CONTINUOUS
10
5.316714409448819
20
-5.4828415748031496
11
5.3190058267716536
21
-5.4728022834645671
0
LINE
8
BLACK
6
CONTINUOUS
10
5.3190058267716536
20
-5.4728022834645671
11
5.3227678740157476
21
-5.4632166535433067
0
LINE
8
BLACK
6
CONTINUOUS
10
5.3227678740157476
20
-5.4632166535433067
11
5.3279166141732279
21
-5.4542988188976373
0
LINE
8
BLACK
6
CONTINUOUS
10
5.3279166141732279
20
-5.4542988188976373
11
5.334336968503937
21
-5.4462479527559058
0
LINE
8
BLACK
6
CONTINUOUS
10
5.334336968503937
20
-5.4462479527559058
11
5.3418855511811021
21
-5.4392438976377955
0
LINE
8
BLACK
6
CONTINUOUS
10
5.3418855511811021
20
-5.4392438976377955
11
5.3503937007874018
21
-5.4334431496062994
0
LINE
8
BLACK
6
CONTINUOUS
10
5.3503937007874018
20
-5.4334431496062994
11
5.3596713779527558
21
-5.428975236220472
0
LINE
8
BLACK
6
CONTINUOUS
10
5.3596713779527558
20
-5.428975236220472
11
5.3695113385826767
21
-5.4259399999999998
0
LINE
8
BLACK
6
CONTINUOUS
10
5.3695113385826767
20
-5.4259399999999998
11
5.3796937795275586
21
-5.4244052362204727
0
LINE
8
BLACK
6
CONTINUOUS
10
5.3796937795275586
20
-5.4244052362204727
11
5.3899912598425193
21
-5.4244052362204727
0
LINE
8
BLACK
6
CONTINUOUS
10
5.3899912598425193
20
-5.4244052362204727
11
5.4001737007874011
21
-5.4259399999999998
0
LINE
8
BLACK
6
CONTINUOUS
10
5.4537401574803148
20
-5.3651574803149602
11
5.3159448818897639
21
-5.3651574803149602
0
LINE
8
BLACK
6
CONTINUOUS
10
5.3159448818897639
20
-5.3651574803149602
11
5.3159448818897639
21
-5.2273622047244093
0
LINE
8
BLACK
6
CONTINUOUS
10
5.3159448818897639
20
-5.2273622047244093
11
5.4537401574803148
21
-5.2273622047244093
0
LINE
8
BLACK
6
CONTINUOUS
10
5.4537401574803148
20
-5.2273622047244093
11
5.4537401574803148
21
-5.3651574803149602
0
LINE
8
BLACK
6
CONTINUOUS
10
5.0009142913385825
20
-5.1523814566929129
11
5.0067970472440946
21
-5.1554689370078739
0
LINE
8
BLACK
6
CONTINUOUS
10
5.0067970472440946
20
-5.1554689370078739
11
5.0117700000000003
21
-5.1598745669291342
0
LINE
8
BLACK
6
CONTINUOUS
10
5.0117700000000003
20
-5.1598745669291342
11
5.0155440551181103
21
-5.1653422834645673
0
LINE
8
BLACK
6
CONTINUOUS
10
5.0155440551181103
20
-5.1653422834645673
11
5.0178999606299213
21
-5.1715542913385821
0
LINE
8
BLACK
6
CONTINUOUS
10
5.0178999606299213
20
-5.1715542913385821
11
5.018700787401575
21
-5.1781496062992121
0
LINE
8
BLACK
6
CONTINUOUS
10
5.018700787401575
20
-5.1781496062992121
11
5.0178999606299213
21
-5.184744921259842
0
LINE
8
BLACK
6
CONTINUOUS
10
5.0178999606299213
20
-5.184744921259842
11
5.0155440551181103
21
-5.1909569291338578
0
LINE
8
BLACK
6
CONTINUOUS
10
5.0155440551181103
20
-5.1909569291338578
11
5.0117700000000003
21
-5.1964246456692909
0
LINE
8
BLACK
6
CONTINUOUS
10
5.0117700000000003
20
-5.1964246456692909
11
5.0067970472440946
21
-5.2008302755905511
0
LINE
8
BLACK
6
CONTINUOUS
10
5.0067970472440946
20
-5.2008302755905511
11
5.0009142913385825
21
-5.2039177559055121
0
LINE
8
BLACK
6
CONTINUOUS
10
5.0009142913385825
20
-5.2039177559055121
11
4.9944636220472436
21
-5.2055077165354326
0
LINE
8
BLACK
6
CONTINUOUS
10
4.9944636220472436
20
-5.2055077165354326
11
4.9878198425196851
21
-5.2055077165354326
0
LINE
8
BLACK
6
CONTINUOUS
10
4.9878198425196851
20
-5.2055077165354326
11
4.9813691732283463
21
-5.2039177559055121
0
LINE
8
BLACK
6
CONTINUOUS
10
4.9813691732283463
20
-5.2039177559055121
11
4.9754864173228341
21
-5.2008302755905511
0
LINE
8
BLACK
6
CONTINUOUS
10
4.9754864173228341
20
-5.2008302755905511
11
4.9705134645669293
21
-5.1964246456692909
0
LINE
8
BLACK
6
CONTINUOUS
10
4.9705134645669293
20
-5.1964246456692909
11
4.9667394094488184
21
-5.1909569291338578
0
LINE
8
BLACK
6
CONTINUOUS
10
4.9667394094488184
20
-5.1909569291338578
11
4.9643835039370074
21
-5.184744921259842
0
LINE
8
BLACK
6
CONTINUOUS
10
4.9643835039370074
20
-5.184744921259842
11
4.9635826771653546
21
-5.1781496062992121
0
LINE
8
BLACK
6
CONTINUOUS
10
4.9635826771653546
20
-5.1781496062992121
11
4.9643835039370074
21
-5.1715542913385821
0
LINE
8
BLACK
6
CONTINUOUS
10
4.9643835039370074
20
-5.1715542913385821
11
4.9667394094488184
21
-5.1653422834645673
0
LINE
8
BLACK
6
CONTINUOUS
10
4.9667394094488184
20
-5.1653422834645673
11
4.9705134645669293
21
-5.1598745669291342
0
LINE
8
BLACK
6
CONTINUOUS
10
4.9705134645669293
20
-5.1598745669291342
11
4.9754864173228341
21
-5.1554689370078739
0
LINE
8
BLACK
6
CONTINUOUS
10
4.9754864173228341
20
-5.1554689370078739
11
4.9813691732283463
21
-5.1523814566929129
0
LINE
8
BLACK
6
CONTINUOUS
10
4.9813691732283463
20
-5.1523814566929129
11
4.9878198425196851
21
-5.1507914960629924
0
LINE
8
BLACK
6
CONTINUOUS
10
4.9878198425196851
20
-5.1507914960629924
11
4.9944636220472436
21
-5.1507914960629924
0
LINE
8
BLACK
6
CONTINUOUS
10
4.9944636220472436
20
-5.1507914960629924
11
5.0009142913385825
21
-5.1523814566929129
0
LINE
8
BLACK
6
CONTINUOUS
10
5.9251968503937009
20
-4.4724409448818898
11
5.8070866141732278
21
-4.4724409448818898
0
LINE
8
BLACK
6
CONTINUOUS
10
5.8070866141732278
20
-4.4724409448818898
11
5.8070866141732278
21
-4.3543307086614176
0
LINE
8
BLACK
6
CONTINUOUS
10
5.8070866141732278
20
-4.3543307086614176
11
5.9251968503937009
21
-4.3543307086614176
0
LINE
8
BLACK
6
CONTINUOUS
10
5.9251968503937009
20
-4.3543307086614176
11
5.9251968503937009
21
-4.4724409448818898
0
LINE
8
BLACK
6
CONTINUOUS
10
5.6050483464566927
20
-4.3561377952755906
11
5.6142733464566925
21
-4.3593047244094487
0
LINE
8
BLACK
6
CONTINUOUS
10
5.6142733464566925
20
-4.3593047244094487
11
5.6228512598425198
21
-4.3639468503937007
0
LINE
8
BLACK
6
CONTINUOUS
10
5.6228512598425198
20
-4.3639468503937007
11
5.6305481102362203
21
-4.3699375590551179
0
LINE
8
BLACK
6
CONTINUOUS
10
5.6305481102362203
20
-4.3699375590551179
11
5.6371539763779523
21
-4.3771134251968506
0
LINE
8
BLACK
6
CONTINUOUS
10
5.6371539763779523
20
-4.3771134251968506
11
5.6424886220472441
21
-4.3852787007874019
0
LINE
8
BLACK
6
CONTINUOUS
10
5.6424886220472441
20
-4.3852787007874019
11
5.646406535433071
21
-4.3942106692913381
0
LINE
8
BLACK
6
CONTINUOUS
10
5.646406535433071
20
-4.3942106692913381
11
5.6488008661417322
21
-4.4036656692913381
0
LINE
8
BLACK
6
CONTINUOUS
10
5.6488008661417322
20
-4.4036656692913381
11
5.6496062992125982
21
-4.4133858267716537
0
LINE
8
BLACK
6
CONTINUOUS
10
5.6496062992125982
20
-4.4133858267716537
11
5.6488008661417322
21
-4.4231059842519684
0
LINE
8
BLACK
6
CONTINUOUS
10
5.6488008661417322
20
-4.4231059842519684
11
5.646406535433071
21
-4.4325609842519684
0
LINE
8
BLACK
6
CONTINUOUS
10
5.646406535433071
20
-4.4325609842519684
11
5.6424886220472441
21
-4.4414929527559055
0
LINE
8
BLACK
6
CONTINUOUS
10
5.6424886220472441
20
-4.4414929527559055
11
5.6371539763779523
21
-4.4496582283464567
0
LINE
8
BLACK
6
CONTINUOUS
10
5.6371539763779523
20
-4.4496582283464567
11
5.6305481102362203
21
-4.4568340944881886
0
LINE
8
BLACK
6
CONTINUOUS
10
5.6305481102362203
20
-4.4568340944881886
11
5.6228512598425198
21
-4.4628248031496058
0
LINE
8
BLACK
6
CONTINUOUS
10
5.6228512598425198
20
-4.4628248031496058
11
5.6142733464566925
21
-4.4674669291338578
0
LINE
8
BLACK
6
CONTINUOUS
10
5.6142733464566925
20
-4.4674669291338578
11
5.6050483464566927
21
-4.4706338582677168
0
LINE
8
BLACK
6
CONTINUOUS
10
5.6050483464566927
20
-4.4706338582677168
11
5.5954279133858265
21
-4.4722392519685039
0
LINE
8
BLACK
6
CONTINUOUS
10
5.5954279133858265
20
-4.4722392519685039
11
5.5856744488188976
21
-4.4722392519685039
0
LINE
8
BLACK
6
CONTINUOUS
10
5.5856744488188976
20
-4.4722392519685039
11
5.5760540157480314
21
-4.4706338582677168
0
LINE
8
BLACK
6
CONTINUOUS
10
5.5760540157480314
20
-4.4706338582677168
11
5.5668290157480316
21
-4.4674669291338578
0
LINE
8
BLACK
6
CONTINUOUS
10
5.5668290157480316
20
-4.4674669291338578
11
5.5582511023622043
21
-4.4628248031496058
0
LINE
8
BLACK
6
CONTINUOUS
10
5.5582511023622043
20
-4.4628248031496058
11
5.5505542519685038
21
-4.4568340944881886
0
LINE
8
BLACK
6
CONTINUOUS
10
5.5505542519685038
20
-4.4568340944881886
11
5.5439483858267717
21
-4.4496582283464567
0
LINE
8
BLACK
6
CONTINUOUS
10
5.5439483858267717
20
-4.4496582283464567
11
5.53861374015748
21
-4.4414929527559055
0
LINE
8
BLACK
6
CONTINUOUS
10
5.53861374015748
20
-4.4414929527559055
11
5.5346958267716531
21
-4.4325609842519684
0
LINE
8
BLACK
6
CONTINUOUS
10
5.5346958267716531
20
-4.4325609842519684
11
5.5323014960629919
21
-4.4231059842519684
0
LINE
8
BLACK
6
CONTINUOUS
10
5.5323014960629919
20
-4.4231059842519684
11
5.5314960629921259
21
-4.4133858267716537
0
LINE
8
BLACK
6
CONTINUOUS
10
5.5314960629921259
20
-4.4133858267716537
11
5.5323014960629919
21
-4.4036656692913381
0
LINE
8
BLACK
6
CONTINUOUS
10
5.5323014960629919
20
-4.4036656692913381
11
5.5346958267716531
21
-4.3942106692913381
0
LINE
8
BLACK
6
CONTINUOUS
10
5.5346958267716531
20
-4.3942106692913381
11
5.53861374015748
21
-4.3852787007874019
0
LINE
8
BLACK
6
CONTINUOUS
10
5.53861374015748
20
-4.3852787007874019
11
5.5439483858267717
21
-4.3771134251968506
0
LINE
8
BLACK
6
CONTINUOUS
10
5.5439483858267717
20
-4.3771134251968506
11
5.5505542519685038
21
-4.3699375590551179
0
LINE
8
BLACK
6
CONTINUOUS
10
5.5505542519685038
20
-4.3699375590551179
11
5.5582511023622043
21
-4.3639468503937007
0
LINE
8
BLACK
6
CONTINUOUS
10
5.5582511023622043
20
-4.3639468503937007
11
5.5668290157480316
21
-4.3593047244094487
0
LINE
8
BLACK
6
CONTINUOUS
10
5.5668290157480316
20
-4.3593047244094487
11
5.5760540157480314
21
-4.3561377952755906
0
LINE
8
BLACK
6
CONTINUOUS
10
5.5760540157480314
20
-4.3561377952755906
11
5.5856744488188976
21
-4.3545324015748035
0
LINE
8
BLACK
6
CONTINUOUS
10
5.5856744488188976
20
-4.3545324015748035
11
5.5954279133858265
21
-4.3545324015748035
0
LINE
8
BLACK
6
CONTINUOUS
10
5.5954279133858265
20
-4.3545324015748035
11
5.6050483464566927
21
-4.3561377952755906
0
LINE
8
BLACK
6
CONTINUOUS
10
5.7428436220472436
20
-4.3561377952755906
11
5.7520686220472443
21
-4.3593047244094487
0
LINE
8
BLACK
6
CONTINUOUS
10
5.7520686220472443
20
-4.3593047244094487
11
5.7606465354330707
21
-4.3639468503937007
0
LINE
8
BLACK
6
CONTINUOUS
10
5.7606465354330707
20
-4.3639468503937007
11
5.7683433858267712
21
-4.3699375590551179
0
LINE
8
BLACK
6
CONTINUOUS
10
5.7683433858267712
20
-4.3699375590551179
11
5.7749492519685042
21
-4.3771134251968506
0
LINE
8
BLACK
6
CONTINUOUS
10
5.7749492519685042
20
-4.3771134251968506
11
5.780283897637795
21
-4.3852787007874019
0
LINE
8
BLACK
6
CONTINUOUS
10
5.780283897637795
20
-4.3852787007874019
11
5.784201811023622
21
-4.3942106692913381
0
LINE
8
BLACK
6
CONTINUOUS
10
5.784201811023622
20
-4.3942106692913381
11
5.7865961417322831
21
-4.4036656692913381
0
LINE
8
BLACK
6
CONTINUOUS
10
5.7865961417322831
20
-4.4036656692913381
11
5.7874015748031491
21
-4.4133858267716537
0
LINE
8
BLACK
6
CONTINUOUS
10
5.7874015748031491
20
-4.4133858267716537
11
5.7865961417322831
21
-4.4231059842519684
0
LINE
8
BLACK
6
CONTINUOUS
10
5.7865961417322831
20
-4.4231059842519684
11
5.784201811023622
21
-4.4325609842519684
0
LINE
8
BLACK
6
CONTINUOUS
10
5.784201811023622
20
-4.4325609842519684
11
5.780283897637795
21
-4.4414929527559055
0
LINE
8
BLACK
6
CONTINUOUS
10
5.780283897637795
20
-4.4414929527559055
11
5.7749492519685042
21
-4.4496582283464567
0
LINE
8
BLACK
6
CONTINUOUS
10
5.7749492519685042
20
-4.4496582283464567
11
5.7683433858267712
21
-4.4568340944881886
0
LINE
8
BLACK
6
CONTINUOUS
10
5.7683433858267712
20
-4.4568340944881886
11
5.7606465354330707
21
-4.4628248031496058
0
LINE
8
BLACK
6
CONTINUOUS
10
5.7606465354330707
20
-4.4628248031496058
11
5.7520686220472443
21
-4.4674669291338578
0
LINE
8
BLACK
6
CONTINUOUS
10
5.7520686220472443
20
-4.4674669291338578
11
5.7428436220472436
21
-4.4706338582677168
0
LINE
8
BLACK
6
CONTINUOUS
10
5.7428436220472436
20
-4.4706338582677168
11
5.7332231889763774
21
-4.4722392519685039
0
LINE
8
BLACK
6
CONTINUOUS
10
5.7332231889763774
20
-4.4722392519685039
11
5.7234697244094486
21
-4.4722392519685039
0
LINE
8
BLACK
6
CONTINUOUS
10
5.7234697244094486
20
-4.4722392519685039
11
5.7138492913385823
21
-4.4706338582677168
0
LINE
8
BLACK
6
CONTINUOUS
10
5.7138492913385823
20
-4.4706338582677168
11
5.7046242913385825
21
-4.4674669291338578
0
LINE
8
BLACK
6
CONTINUOUS
10
5.7046242913385825
20
-4.4674669291338578
11
5.6960463779527561
21
-4.4628248031496058
0
LINE
8
BLACK
6
CONTINUOUS
10
5.6960463779527561
20
-4.4628248031496058
11
5.6883495275590548
21
-4.4568340944881886
0
LINE
8
BLACK
6
CONTINUOUS
10
5.6883495275590548
20
-4.4568340944881886
11
5.6817436614173227
21
-4.4496582283464567
0
LINE
8
BLACK
6
CONTINUOUS
10
5.6817436614173227
20
-4.4496582283464567
11
5.6764090157480318
21
-4.4414929527559055
0
LINE
8
BLACK
6
CONTINUOUS
10
5.6764090157480318
20
-4.4414929527559055
11
5.6724911023622049
21
-4.4325609842519684
0
LINE
8
BLACK
6
CONTINUOUS
10
5.6724911023622049
20
-4.4325609842519684
11
5.6700967716535429
21
-4.4231059842519684
0
LINE
8
BLACK
6
CONTINUOUS
10
5.6700967716535429
20
-4.4231059842519684
11
5.6692913385826769
21
-4.4133858267716537
0
LINE
8
BLACK
6
CONTINUOUS
10
5.6692913385826769
20
-4.4133858267716537
11
5.6700967716535429
21
-4.4036656692913381
0
LINE
8
BLACK
6
CONTINUOUS
10
5.6700967716535429
20
-4.4036656692913381
11
5.6724911023622049
21
-4.3942106692913381
0
LINE
8
BLACK
6
CONTINUOUS
10
5.6724911023622049
20
-4.3942106692913381
11
5.6764090157480318
21
-4.3852787007874019
0
LINE
8
BLACK
6
CONTINUOUS
10
5.6764090157480318
20
-4.3852787007874019
11
5.6817436614173227
21
-4.3771134251968506
0
LINE
8
BLACK
6
CONTINUOUS
10
5.6817436614173227
20
-4.3771134251968506
11
5.6883495275590548
21
-4.3699375590551179
0
LINE
8
BLACK
6
CONTINUOUS
10
5.6883495275590548
20
-4.3699375590551179
11
5.6960463779527561
21
-4.3639468503937007
0
LINE
8
BLACK
6
CONTINUOUS
10
5.6960463779527561
20
-4.3639468503937007
11
5.7046242913385825
21
-4.3593047244094487
0
LINE
8
BLACK
6
CONTINUOUS
10
5.7046242913385825
20
-4.3593047244094487
11
5.7138492913385823
21
-4.3561377952755906
0
LINE
8
BLACK
6
CONTINUOUS
10
5.7138492913385823
20
-4.3561377952755906
11
5.7234697244094486
21
-4.3545324015748035
0
LINE
8
BLACK
6
CONTINUOUS
10
5.7234697244094486
20
-4.3545324015748035
11
5.7332231889763774
21
-4.3545324015748035
0
LINE
8
BLACK
6
CONTINUOUS
10
5.7332231889763774
20
-4.3545324015748035
11
5.7428436220472436
21
-4.3561377952755906
0
LINE
8
BLACK
6
CONTINUOUS
10
5.4822135039370075
20
-4.1907672834645666
11
5.4880962598425196
21
-4.1938547637795276
0
LINE
8
BLACK
6
CONTINUOUS
10
5.4880962598425196
20
-4.1938547637795276
11
5.4930692125984253
21
-4.198260393700787
0
LINE
8
BLACK
6
CONTINUOUS
10
5.4930692125984253
20
-4.198260393700787
11
5.4968432677165353
21
-4.2037281102362201
0
LINE
8
BLACK
6
CONTINUOUS
10
5.4968432677165353
20
-4.2037281102362201
11
5.4991991732283463
21
-4.2099401181102358
0
LINE
8
BLACK
6
CONTINUOUS
10
5.4991991732283463
20
-4.2099401181102358
11
5.5
21
-4.2165354330708658
0
LINE
8
BLACK
6
CONTINUOUS
10
5.5
20
-4.2165354330708658
11
5.4991991732283463
21
-4.2231307480314957
0
LINE
8
BLACK
6
CONTINUOUS
10
5.4991991732283463
20
-4.2231307480314957
11
5.4968432677165353
21
-4.2293427559055115
0
LINE
8
BLACK
6
CONTINUOUS
10
5.4968432677165353
20
-4.2293427559055115
11
5.4930692125984253
21
-4.2348104724409446
0
LINE
8
BLACK
6
CONTINUOUS
10
5.4930692125984253
20
-4.2348104724409446
11
5.4880962598425196
21
-4.2392161023622048
0
LINE
8
BLACK
6
CONTINUOUS
10
5.4880962598425196
20
-4.2392161023622048
11
5.4822135039370075
21
-4.2423035826771649
0
LINE
8
BLACK
6
CONTINUOUS
10
5.4822135039370075
20
-4.2423035826771649
11
5.4757628346456695
21
-4.2438935433070863
0
LINE
8
BLACK
6
CONTINUOUS
10
5.4757628346456695
20
-4.2438935433070863
11
5.4691190551181101
21
-4.2438935433070863
0
LINE
8
BLACK
6
CONTINUOUS
10
5.4691190551181101
20
-4.2438935433070863
11
5.4626683858267713
21
-4.2423035826771649
0
LINE
8
BLACK
6
CONTINUOUS
10
5.4626683858267713
20
-4.2423035826771649
11
5.45678562992126
21
-4.2392161023622048
0
LINE
8
BLACK
6
CONTINUOUS
10
5.45678562992126
20
-4.2392161023622048
11
5.4518126771653543
21
-4.2348104724409446
0
LINE
8
BLACK
6
CONTINUOUS
10
5.4518126771653543
20
-4.2348104724409446
11
5.4480386220472443
21
-4.2293427559055115
0
LINE
8
BLACK
6
CONTINUOUS
10
5.4480386220472443
20
-4.2293427559055115
11
5.4456827165354333
21
-4.2231307480314957
0
LINE
8
BLACK
6
CONTINUOUS
10
5.4456827165354333
20
-4.2231307480314957
11
5.4448818897637796
21
-4.2165354330708658
0
LINE
8
BLACK
6
CONTINUOUS
10
5.4448818897637796
20
-4.2165354330708658
11
5.4456827165354333
21
-4.2099401181102358
0
LINE
8
BLACK
6
CONTINUOUS
10
5.4456827165354333
20
-4.2099401181102358
11
5.4480386220472443
21
-4.2037281102362201
0
LINE
8
BLACK
6
CONTINUOUS
10
5.4480386220472443
20
-4.2037281102362201
11
5.4518126771653543
21
-4.198260393700787
0
LINE
8
BLACK
6
CONTINUOUS
10
5.4518126771653543
20
-4.198260393700787
11
5.45678562992126
21
-4.1938547637795276
0
LINE
8
BLACK
6
CONTINUOUS
10
5.45678562992126
20
-4.1938547637795276
11
5.4626683858267713
21
-4.1907672834645666
0
LINE
8
BLACK
6
CONTINUOUS
10
5.4626683858267713
20
-4.1907672834645666
11
5.4691190551181101
21
-4.1891773228346452
0
LINE
8
BLACK
6
CONTINUOUS
10
5.4691190551181101
20
-4.1891773228346452
11
5.4757628346456695
21
-4.1891773228346452
0
LINE
8
BLACK
6
CONTINUOUS
10
5.4757628346456695
20
-4.1891773228346452
11
5.4822135039370075
21
-4.1907672834645666
0
LINE
8
BLACK
6
CONTINUOUS
10
5.9940245275590547
20
-4.1907672834645666
11
5.9999072834645668
21
-4.1938547637795276
0
LINE
8
BLACK
6
CONTINUOUS
10
5.9999072834645668
20
-4.1938547637795276
11
6.0048802362204725
21
-4.198260393700787
0
LINE
8
BLACK
6
CONTINUOUS
10
6.0048802362204725
20
-4.198260393700787
11
6.0086542913385825
21
-4.2037281102362201
0
LINE
8
BLACK
6
CONTINUOUS
10
6.0086542913385825
20
-4.2037281102362201
11
6.0110101968503935
21
-4.2099401181102358
0
LINE
8
BLACK
6
CONTINUOUS
10
6.0110101968503935
20
-4.2099401181102358
11
6.0118110236220472
21
-4.2165354330708658
0
LINE
8
BLACK
6
CONTINUOUS
10
6.0118110236220472
20
-4.2165354330708658
11
6.0110101968503935
21
-4.2231307480314957
0
LINE
8
BLACK
6
CONTINUOUS
10
6.0110101968503935
20
-4.2231307480314957
11
6.0086542913385825
21
-4.2293427559055115
0
LINE
8
BLACK
6
CONTINUOUS
10
6.0086542913385825
20
-4.2293427559055115
11
6.0048802362204725
21
-4.2348104724409446
0
LINE
8
BLACK
6
CONTINUOUS
10
6.0048802362204725
20
-4.2348104724409446
11
5.9999072834645668
21
-4.2392161023622048
0
LINE
8
BLACK
6
CONTINUOUS
10
5.9999072834645668
20
-4.2392161023622048
11
5.9940245275590547
21
-4.2423035826771649
0
LINE
8
BLACK
6
CONTINUOUS
10
5.9940245275590547
20
-4.2423035826771649
11
5.9875738582677167
21
-4.2438935433070863
0
LINE
8
BLACK
6
CONTINUOUS
10
5.9875738582677167
20
-4.2438935433070863
11
5.9809300787401574
21
-4.2438935433070863
0
LINE
8
BLACK
6
CONTINUOUS
10
5.9809300787401574
20
-4.2438935433070863
11
5.9744794094488185
21
-4.2423035826771649
0
LINE
8
BLACK
6
CONTINUOUS
10
5.9744794094488185
20
-4.2423035826771649
11
5.9685966535433073
21
-4.2392161023622048
0
LINE
8
BLACK
6
CONTINUOUS
10
5.9685966535433073
20
-4.2392161023622048
11
5.9636237007874016
21
-4.2348104724409446
0
LINE
8
BLACK
6
CONTINUOUS
10
5.9636237007874016
20
-4.2348104724409446
11
5.9598496456692915
21
-4.2293427559055115
0
LINE
8
BLACK
6
CONTINUOUS
10
5.9598496456692915
20
-4.2293427559055115
11
5.9574937401574806
21
-4.2231307480314957
0
LINE
8
BLACK
6
CONTINUOUS
10
5.9574937401574806
20
-4.2231307480314957
11
5.9566929133858268
21
-4.2165354330708658
0
LINE
8
BLACK
6
CONTINUOUS
10
5.9566929133858268
20
-4.2165354330708658
11
5.9574937401574806
21
-4.2099401181102358
0
LINE
8
BLACK
6
CONTINUOUS
10
5.9574937401574806
20
-4.2099401181102358
11
5.9598496456692915
21
-4.2037281102362201
0
LINE
8
BLACK
6
CONTINUOUS
10
5.9598496456692915
20
-4.2037281102362201
11
5.9636237007874016
21
-4.198260393700787
0
LINE
8
BLACK
6
CONTINUOUS
10
5.9636237007874016
20
-4.198260393700787
11
5.9685966535433073
21
-4.1938547637795276
0
LINE
8
BLACK
6
CONTINUOUS
10
5.9685966535433073
20
-4.1938547637795276
11
5.9744794094488185
21
-4.1907672834645666
0
LINE
8
BLACK
6
CONTINUOUS
10
5.9744794094488185
20
-4.1907672834645666
11
5.9809300787401574
21
-4.1891773228346452
0
LINE
8
BLACK
6
CONTINUOUS
10
5.9809300787401574
20
-4.1891773228346452
11
5.9875738582677167
21
-4.1891773228346452
0
LINE
8
BLACK
6
CONTINUOUS
10
5.9875738582677167
20
-4.1891773228346452
11
5.9940245275590547
21
-4.1907672834645666
  0
ENDSEC
  0
EOF
