  0
SECTION
  2
HEADER
  9
$ANGBASE
  50
0.0
  9
$ANGDIR
  70
1
  9
$MEASUREMENT
  70
0
  0
ENDSEC
  0
SECTION
  2
TABLES
  0
TABLE
  2
LTYPE
  70
4
  0
LTYPE
  5
40F
  2
CONTINUOUS
  70
0
  3
Solid line
  72
65
  73
0
  40
0.0
  0
LTYPE
  5
410
  2
DASHDOT
 70
0
  3
Dash Dot ____ _ ____ _
 72
65
 73
4
 40
2.0
 49
1.25
 49
-0.25
 49
0.25
 49
-0.25
  0
LTYPE
  5
411
  2
DASHED
 70
0
  3
Dashed __ __ __ __ __
 72
65
 73
2
 40
0.75
 49
0.5
 49
-0.25
  0
LTYPE
  5
43B
  2
DOTTED
 70
0
  3
Dotted .  .  .  .
 72
65
 73
2
 40
0.2
 49
0.0
 49
-0.2
  0
ENDTAB
  0
TABLE
  2
STYLE
  70
4
  0
STYLE
  2
KICAD
  70
0
  40
0
  41
1
  42
1
  50
0
  71
0
  3
isocp.shx
  0
STYLE
  2
KICADB
  70
0
  40
0
  41
1
  42
1
  50
0
  71
0
  3
isocp.shx
  0
STYLE
  2
KICADI
  70
0
  40
0
  41
1
  42
1
  50
15
  71
0
  3
isocp.shx
  0
STYLE
  2
KICADBI
  70
0
  40
0
  41
1
  42
1
  50
15
  71
0
  3
isocp.shx
  0
ENDTAB
  0
TABLE
  2
LAYER
  70
1
  0
LAYER
  2
BLACK
  70
0
  62
7
  6
CONTINUOUS
  0
ENDTAB
  0
ENDSEC
  0
SECTION
  2
ENTITIES
0
LINE
8
BLACK
6
CONTINUOUS
10
5.5146635433070861
20
-5.4623791732283467
11
5.521112598425197
21
-5.4646357874015745
0
LINE
8
BLACK
6
CONTINUOUS
10
5.521112598425197
20
-5.4646357874015745
11
5.526897834645669
21
-5.4682709055118108
0
LINE
8
BLACK
6
CONTINUOUS
10
5.526897834645669
20
-5.4682709055118108
11
5.5317290944881892
21
-5.473102165354331
0
LINE
8
BLACK
6
CONTINUOUS
10
5.5317290944881892
20
-5.473102165354331
11
5.5353642125984255
21
-5.478887401574803
0
LINE
8
BLACK
6
CONTINUOUS
10
5.5353642125984255
20
-5.478887401574803
11
5.5376208267716533
21
-5.485336456692913
0
LINE
8
BLACK
6
CONTINUOUS
10
5.5376208267716533
20
-5.485336456692913
11
5.5383858267716537
21
-5.4921259842519685
0
LINE
8
BLACK
6
CONTINUOUS
10
5.5383858267716537
20
-5.4921259842519685
11
5.5376208267716533
21
-5.4989155118110231
0
LINE
8
BLACK
6
CONTINUOUS
10
5.5376208267716533
20
-5.4989155118110231
11
5.5353642125984255
21
-5.505364566929134
0
LINE
8
BLACK
6
CONTINUOUS
10
5.5353642125984255
20
-5.505364566929134
11
5.5317290944881892
21
-5.511149803149606
0
LINE
8
BLACK
6
CONTINUOUS
10
5.5317290944881892
20
-5.511149803149606
11
5.526897834645669
21
-5.5159810629921262
0
LINE
8
BLACK
6
CONTINUOUS
10
5.526897834645669
20
-5.5159810629921262
11
5.521112598425197
21
-5.5196161811023625
0
LINE
8
BLACK
6
CONTINUOUS
10
5.521112598425197
20
-5.5196161811023625
11
5.5146635433070861
21
-5.5218727952755904
0
LINE
8
BLACK
6
CONTINUOUS
10
5.5146635433070861
20
-5.5218727952755904
11
5.5078740157480315
21
-5.5226377952755907
0
LINE
8
BLACK
6
CONTINUOUS
10
5.5078740157480315
20
-5.5226377952755907
11
5.501084488188976
21
-5.5218727952755904
0
LINE
8
BLACK
6
CONTINUOUS
10
5.501084488188976
20
-5.5218727952755904
11
5.494635433070866
21
-5.5196161811023625
0
LINE
8
BLACK
6
CONTINUOUS
10
5.494635433070866
20
-5.5196161811023625
11
5.488850196850394
21
-5.5159810629921262
0
LINE
8
BLACK
6
CONTINUOUS
10
5.488850196850394
20
-5.5159810629921262
11
5.4840189370078738
21
-5.511149803149606
0
LINE
8
BLACK
6
CONTINUOUS
10
5.4840189370078738
20
-5.511149803149606
11
5.4803838188976375
21
-5.505364566929134
0
LINE
8
BLACK
6
CONTINUOUS
10
5.4803838188976375
20
-5.505364566929134
11
5.4781272047244096
21
-5.4989155118110231
0
LINE
8
BLACK
6
CONTINUOUS
10
5.4781272047244096
20
-5.4989155118110231
11
5.4773622047244093
21
-5.4921259842519685
0
LINE
8
BLACK
6
CONTINUOUS
10
5.4773622047244093
20
-5.4921259842519685
11
5.4781272047244096
21
-5.485336456692913
0
LINE
8
BLACK
6
CONTINUOUS
10
5.4781272047244096
20
-5.485336456692913
11
5.4803838188976375
21
-5.478887401574803
0
LINE
8
BLACK
6
CONTINUOUS
10
5.4803838188976375
20
-5.478887401574803
11
5.4840189370078738
21
-5.473102165354331
0
LINE
8
BLACK
6
CONTINUOUS
10
5.4840189370078738
20
-5.473102165354331
11
5.488850196850394
21
-5.4682709055118108
0
LINE
8
BLACK
6
CONTINUOUS
10
5.488850196850394
20
-5.4682709055118108
11
5.494635433070866
21
-5.4646357874015745
0
LINE
8
BLACK
6
CONTINUOUS
10
5.494635433070866
20
-5.4646357874015745
11
5.501084488188976
21
-5.4623791732283467
0
LINE
8
BLACK
6
CONTINUOUS
10
5.501084488188976
20
-5.4623791732283467
11
5.5078740157480315
21
-5.4616141732283463
0
LINE
8
BLACK
6
CONTINUOUS
10
5.5078740157480315
20
-5.4616141732283463
11
5.5146635433070861
21
-5.4623791732283467
0
LINE
8
BLACK
6
CONTINUOUS
10
5.4798702755905513
20
-5.4985176377952758
11
5.4819946850393704
21
-5.5045888188976377
0
LINE
8
BLACK
6
CONTINUOUS
10
5.4819946850393704
20
-5.5045888188976377
11
5.4854167716535436
21
-5.510035039370079
0
LINE
8
BLACK
6
CONTINUOUS
10
5.4854167716535436
20
-5.510035039370079
11
5.489964960629921
21
-5.5145832283464564
0
LINE
8
BLACK
6
CONTINUOUS
10
5.489964960629921
20
-5.5145832283464564
11
5.4954111811023623
21
-5.5180053149606296
0
LINE
8
BLACK
6
CONTINUOUS
10
5.4954111811023623
20
-5.5180053149606296
11
5.5014823622047242
21
-5.5201297244094487
0
LINE
8
BLACK
6
CONTINUOUS
10
5.5014823622047242
20
-5.5201297244094487
11
5.5078740157480315
21
-5.520849881889764
0
LINE
8
BLACK
6
CONTINUOUS
10
5.5078740157480315
20
-5.520849881889764
11
5.5142656692913388
21
-5.5201297244094487
0
LINE
8
BLACK
6
CONTINUOUS
10
5.5142656692913388
20
-5.5201297244094487
11
5.5203368503937007
21
-5.5180053149606296
0
LINE
8
BLACK
6
CONTINUOUS
10
5.5203368503937007
20
-5.5180053149606296
11
5.525783070866142
21
-5.5145832283464564
0
LINE
8
BLACK
6
CONTINUOUS
10
5.525783070866142
20
-5.5145832283464564
11
5.5303312598425194
21
-5.510035039370079
0
LINE
8
BLACK
6
CONTINUOUS
10
5.5303312598425194
20
-5.510035039370079
11
5.5337533464566926
21
-5.5045888188976377
0
LINE
8
BLACK
6
CONTINUOUS
10
5.5337533464566926
20
-5.5045888188976377
11
5.5358777559055117
21
-5.4985176377952758
0
LINE
8
BLACK
6
CONTINUOUS
10
5.5358777559055117
20
-5.4985176377952758
11
5.536597913385827
21
-5.4921259842519685
0
LINE
8
BLACK
6
CONTINUOUS
10
5.536597913385827
20
-5.4921259842519685
11
5.5358777559055117
21
-5.4857343307086612
0
LINE
8
BLACK
6
CONTINUOUS
10
5.5358777559055117
20
-5.4857343307086612
11
5.5337533464566926
21
-5.4796631496062993
0
LINE
8
BLACK
6
CONTINUOUS
10
5.5337533464566926
20
-5.4796631496062993
11
5.5303312598425194
21
-5.474216929133858
0
LINE
8
BLACK
6
CONTINUOUS
10
5.5303312598425194
20
-5.474216929133858
11
5.525783070866142
21
-5.4696687401574806
0
LINE
8
BLACK
6
CONTINUOUS
10
5.525783070866142
20
-5.4696687401574806
11
5.5203368503937007
21
-5.4662466535433065
0
LINE
8
BLACK
6
CONTINUOUS
10
5.5203368503937007
20
-5.4662466535433065
11
5.5142656692913388
21
-5.4641222440944883
0
LINE
8
BLACK
6
CONTINUOUS
10
5.5142656692913388
20
-5.4641222440944883
11
5.5078740157480315
21
-5.463402086614173
0
LINE
8
BLACK
6
CONTINUOUS
10
5.5078740157480315
20
-5.463402086614173
11
5.5014823622047242
21
-5.4641222440944883
0
LINE
8
BLACK
6
CONTINUOUS
10
5.5014823622047242
20
-5.4641222440944883
11
5.4954111811023623
21
-5.4662466535433065
0
LINE
8
BLACK
6
CONTINUOUS
10
5.4954111811023623
20
-5.4662466535433065
11
5.489964960629921
21
-5.4696687401574806
0
LINE
8
BLACK
6
CONTINUOUS
10
5.489964960629921
20
-5.4696687401574806
11
5.4854167716535436
21
-5.474216929133858
0
LINE
8
BLACK
6
CONTINUOUS
10
5.4854167716535436
20
-5.474216929133858
11
5.4819946850393704
21
-5.4796631496062993
0
LINE
8
BLACK
6
CONTINUOUS
10
5.4819946850393704
20
-5.4796631496062993
11
5.4798702755905513
21
-5.4857343307086612
0
LINE
8
BLACK
6
CONTINUOUS
10
5.4798702755905513
20
-5.4857343307086612
11
5.479150118110236
21
-5.4921259842519685
0
LINE
8
BLACK
6
CONTINUOUS
10
5.479150118110236
20
-5.4921259842519685
11
5.4798702755905513
21
-5.4985176377952758
0
LINE
8
BLACK
6
CONTINUOUS
10
5.7272205118110238
20
-5.355093307086614
11
5.7356722834645666
21
-5.3573579527559057
0
LINE
8
BLACK
6
CONTINUOUS
10
5.7356722834645666
20
-5.3573579527559057
11
5.7436023622047241
21
-5.3610558267716533
0
LINE
8
BLACK
6
CONTINUOUS
10
5.7436023622047241
20
-5.3610558267716533
11
5.7507698425196851
21
-5.3660745275590553
0
LINE
8
BLACK
6
CONTINUOUS
10
5.7507698425196851
20
-5.3660745275590553
11
5.7569569685039372
21
-5.3722616535433065
0
LINE
8
BLACK
6
CONTINUOUS
10
5.7569569685039372
20
-5.3722616535433065
11
5.7619756692913384
21
-5.3794291338582676
0
LINE
8
BLACK
6
CONTINUOUS
10
5.7619756692913384
20
-5.3794291338582676
11
5.7656735433070869
21
-5.3873592125984251
0
LINE
8
BLACK
6
CONTINUOUS
10
5.7656735433070869
20
-5.3873592125984251
11
5.7679381889763777
21
-5.3958109842519688
0
LINE
8
BLACK
6
CONTINUOUS
10
5.7679381889763777
20
-5.3958109842519688
11
5.768700787401575
21
-5.4045275590551176
0
LINE
8
BLACK
6
CONTINUOUS
10
5.768700787401575
20
-5.4045275590551176
11
5.7679381889763777
21
-5.4132441338582673
0
LINE
8
BLACK
6
CONTINUOUS
10
5.7679381889763777
20
-5.4132441338582673
11
5.7656735433070869
21
-5.421695905511811
0
LINE
8
BLACK
6
CONTINUOUS
10
5.7656735433070869
20
-5.421695905511811
11
5.7619756692913384
21
-5.4296259842519685
0
LINE
8
BLACK
6
CONTINUOUS
10
5.7619756692913384
20
-5.4296259842519685
11
5.7569569685039372
21
-5.4367934645669287
0
LINE
8
BLACK
6
CONTINUOUS
10
5.7569569685039372
20
-5.4367934645669287
11
5.7507698425196851
21
-5.4429805905511808
0
LINE
8
BLACK
6
CONTINUOUS
10
5.7507698425196851
20
-5.4429805905511808
11
5.7436023622047241
21
-5.4479992913385829
0
LINE
8
BLACK
6
CONTINUOUS
10
5.7436023622047241
20
-5.4479992913385829
11
5.7356722834645666
21
-5.4516971653543305
0
LINE
8
BLACK
6
CONTINUOUS
10
5.7356722834645666
20
-5.4516971653543305
11
5.7272205118110238
21
-5.4539618110236221
0
LINE
8
BLACK
6
CONTINUOUS
10
5.7272205118110238
20
-5.4539618110236221
11
5.7185039370078741
21
-5.4547244094488185
0
LINE
8
BLACK
6
CONTINUOUS
10
5.7185039370078741
20
-5.4547244094488185
11
5.7097873622047244
21
-5.4539618110236221
0
LINE
8
BLACK
6
CONTINUOUS
10
5.7097873622047244
20
-5.4539618110236221
11
5.7013355905511807
21
-5.4516971653543305
0
LINE
8
BLACK
6
CONTINUOUS
10
5.7013355905511807
20
-5.4516971653543305
11
5.6934055118110232
21
-5.4479992913385829
0
LINE
8
BLACK
6
CONTINUOUS
10
5.6934055118110232
20
-5.4479992913385829
11
5.686238031496063
21
-5.4429805905511808
0
LINE
8
BLACK
6
CONTINUOUS
10
5.686238031496063
20
-5.4429805905511808
11
5.6800509055118109
21
-5.4367934645669287
0
LINE
8
BLACK
6
CONTINUOUS
10
5.6800509055118109
20
-5.4367934645669287
11
5.6750322047244097
21
-5.4296259842519685
0
LINE
8
BLACK
6
CONTINUOUS
10
5.6750322047244097
20
-5.4296259842519685
11
5.6713343307086612
21
-5.421695905511811
0
LINE
8
BLACK
6
CONTINUOUS
10
5.6713343307086612
20
-5.421695905511811
11
5.6690696850393696
21
-5.4132441338582673
0
LINE
8
BLACK
6
CONTINUOUS
10
5.6690696850393696
20
-5.4132441338582673
11
5.6683070866141732
21
-5.4045275590551176
0
LINE
8
BLACK
6
CONTINUOUS
10
5.6683070866141732
20
-5.4045275590551176
11
5.6690696850393696
21
-5.3958109842519688
0
LINE
8
BLACK
6
CONTINUOUS
10
5.6690696850393696
20
-5.3958109842519688
11
5.6713343307086612
21
-5.3873592125984251
0
LINE
8
BLACK
6
CONTINUOUS
10
5.6713343307086612
20
-5.3873592125984251
11
5.6750322047244097
21
-5.3794291338582676
0
LINE
8
BLACK
6
CONTINUOUS
10
5.6750322047244097
20
-5.3794291338582676
11
5.6800509055118109
21
-5.3722616535433065
0
LINE
8
BLACK
6
CONTINUOUS
10
5.6800509055118109
20
-5.3722616535433065
11
5.686238031496063
21
-5.3660745275590553
0
LINE
8
BLACK
6
CONTINUOUS
10
5.686238031496063
20
-5.3660745275590553
11
5.6934055118110232
21
-5.3610558267716533
0
LINE
8
BLACK
6
CONTINUOUS
10
5.6934055118110232
20
-5.3610558267716533
11
5.7013355905511807
21
-5.3573579527559057
0
LINE
8
BLACK
6
CONTINUOUS
10
5.7013355905511807
20
-5.3573579527559057
11
5.7097873622047244
21
-5.355093307086614
0
LINE
8
BLACK
6
CONTINUOUS
10
5.7097873622047244
20
-5.355093307086614
11
5.7185039370078741
21
-5.3543307086614176
0
LINE
8
BLACK
6
CONTINUOUS
10
5.7185039370078741
20
-5.3543307086614176
11
5.7272205118110238
21
-5.355093307086614
0
LINE
8
BLACK
6
CONTINUOUS
10
5.670826889763779
20
-5.4129343307086613
11
5.6730110236220472
21
-5.4210856299212598
0
LINE
8
BLACK
6
CONTINUOUS
10
5.6730110236220472
20
-5.4210856299212598
11
5.6765774409448815
21
-5.4287338582677167
0
LINE
8
BLACK
6
CONTINUOUS
10
5.6765774409448815
20
-5.4287338582677167
11
5.6814177559055121
21
-5.4356465354330705
0
LINE
8
BLACK
6
CONTINUOUS
10
5.6814177559055121
20
-5.4356465354330705
11
5.6873849606299212
21
-5.4416137401574804
0
LINE
8
BLACK
6
CONTINUOUS
10
5.6873849606299212
20
-5.4416137401574804
11
5.6942976377952759
21
-5.4464540551181102
0
LINE
8
BLACK
6
CONTINUOUS
10
5.6942976377952759
20
-5.4464540551181102
11
5.7019458661417319
21
-5.4500204724409445
0
LINE
8
BLACK
6
CONTINUOUS
10
5.7019458661417319
20
-5.4500204724409445
11
5.7100971653543304
21
-5.4522046062992127
0
LINE
8
BLACK
6
CONTINUOUS
10
5.7100971653543304
20
-5.4522046062992127
11
5.7185039370078741
21
-5.4529401181102362
0
LINE
8
BLACK
6
CONTINUOUS
10
5.7185039370078741
20
-5.4529401181102362
11
5.7269107086614168
21
-5.4522046062992127
0
LINE
8
BLACK
6
CONTINUOUS
10
5.7269107086614168
20
-5.4522046062992127
11
5.7350620078740153
21
-5.4500204724409445
0
LINE
8
BLACK
6
CONTINUOUS
10
5.7350620078740153
20
-5.4500204724409445
11
5.7427102362204723
21
-5.4464540551181102
0
LINE
8
BLACK
6
CONTINUOUS
10
5.7427102362204723
20
-5.4464540551181102
11
5.749622913385827
21
-5.4416137401574804
0
LINE
8
BLACK
6
CONTINUOUS
10
5.749622913385827
20
-5.4416137401574804
11
5.755590118110236
21
-5.4356465354330705
0
LINE
8
BLACK
6
CONTINUOUS
10
5.755590118110236
20
-5.4356465354330705
11
5.7604304330708658
21
-5.4287338582677167
0
LINE
8
BLACK
6
CONTINUOUS
10
5.7604304330708658
20
-5.4287338582677167
11
5.7639968503937009
21
-5.4210856299212598
0
LINE
8
BLACK
6
CONTINUOUS
10
5.7639968503937009
20
-5.4210856299212598
11
5.7661809842519682
21
-5.4129343307086613
0
LINE
8
BLACK
6
CONTINUOUS
10
5.7661809842519682
20
-5.4129343307086613
11
5.7669164960629917
21
-5.4045275590551176
0
LINE
8
BLACK
6
CONTINUOUS
10
5.7669164960629917
20
-5.4045275590551176
11
5.7661809842519682
21
-5.3961207874015749
0
LINE
8
BLACK
6
CONTINUOUS
10
5.7661809842519682
20
-5.3961207874015749
11
5.7639968503937009
21
-5.3879694881889764
0
LINE
8
BLACK
6
CONTINUOUS
10
5.7639968503937009
20
-5.3879694881889764
11
5.7604304330708658
21
-5.3803212992125982
0
LINE
8
BLACK
6
CONTINUOUS
10
5.7604304330708658
20
-5.3803212992125982
11
5.755590118110236
21
-5.3734085826771656
0
LINE
8
BLACK
6
CONTINUOUS
10
5.755590118110236
20
-5.3734085826771656
11
5.749622913385827
21
-5.3674413779527557
0
LINE
8
BLACK
6
CONTINUOUS
10
5.749622913385827
20
-5.3674413779527557
11
5.7427102362204723
21
-5.3626010629921259
0
LINE
8
BLACK
6
CONTINUOUS
10
5.7427102362204723
20
-5.3626010629921259
11
5.7350620078740153
21
-5.3590346456692908
0
LINE
8
BLACK
6
CONTINUOUS
10
5.7350620078740153
20
-5.3590346456692908
11
5.7269107086614168
21
-5.3568505118110235
0
LINE
8
BLACK
6
CONTINUOUS
10
5.7269107086614168
20
-5.3568505118110235
11
5.7185039370078741
21
-5.356115
0
LINE
8
BLACK
6
CONTINUOUS
10
5.7185039370078741
20
-5.356115
11
5.7100971653543304
21
-5.3568505118110235
0
LINE
8
BLACK
6
CONTINUOUS
10
5.7100971653543304
20
-5.3568505118110235
11
5.7019458661417319
21
-5.3590346456692908
0
LINE
8
BLACK
6
CONTINUOUS
10
5.7019458661417319
20
-5.3590346456692908
11
5.6942976771653546
21
-5.3626010629921259
0
LINE
8
BLACK
6
CONTINUOUS
10
5.6942976771653546
20
-5.3626010629921259
11
5.6873849606299212
21
-5.3674413779527557
0
LINE
8
BLACK
6
CONTINUOUS
10
5.6873849606299212
20
-5.3674413779527557
11
5.6814177559055121
21
-5.3734085826771656
0
LINE
8
BLACK
6
CONTINUOUS
10
5.6814177559055121
20
-5.3734085826771656
11
5.6765774409448815
21
-5.3803212992125982
0
LINE
8
BLACK
6
CONTINUOUS
10
5.6765774409448815
20
-5.3803212992125982
11
5.6730110236220472
21
-5.3879694881889764
0
LINE
8
BLACK
6
CONTINUOUS
10
5.6730110236220472
20
-5.3879694881889764
11
5.670826889763779
21
-5.3961207874015749
0
LINE
8
BLACK
6
CONTINUOUS
10
5.670826889763779
20
-5.3961207874015749
11
5.6700913779527555
21
-5.4045275590551176
0
LINE
8
BLACK
6
CONTINUOUS
10
5.6700913779527555
20
-5.4045275590551176
11
5.670826889763779
21
-5.4129343307086613
0
LINE
8
BLACK
6
CONTINUOUS
10
6.1760808661417324
20
-4.3334421653543309
11
6.1825299212598424
21
-4.3356987795275588
0
LINE
8
BLACK
6
CONTINUOUS
10
6.1825299212598424
20
-4.3356987795275588
11
6.1883151574803152
21
-4.3393338976377951
0
LINE
8
BLACK
6
CONTINUOUS
10
6.1883151574803152
20
-4.3393338976377951
11
6.1931464173228346
21
-4.3441651574803153
0
LINE
8
BLACK
6
CONTINUOUS
10
6.1931464173228346
20
-4.3441651574803153
11
6.1967815354330709
21
-4.3499503937007873
0
LINE
8
BLACK
6
CONTINUOUS
10
6.1967815354330709
20
-4.3499503937007873
11
6.1990381496062987
21
-4.3563994488188973
0
LINE
8
BLACK
6
CONTINUOUS
10
6.1990381496062987
20
-4.3563994488188973
11
6.1998031496062991
21
-4.3631889763779528
0
LINE
8
BLACK
6
CONTINUOUS
10
6.1998031496062991
20
-4.3631889763779528
11
6.1990381496062987
21
-4.3699785039370074
0
LINE
8
BLACK
6
CONTINUOUS
10
6.1990381496062987
20
-4.3699785039370074
11
6.1967815354330709
21
-4.3764275590551183
0
LINE
8
BLACK
6
CONTINUOUS
10
6.1967815354330709
20
-4.3764275590551183
11
6.1931464173228346
21
-4.3822127952755903
0
LINE
8
BLACK
6
CONTINUOUS
10
6.1931464173228346
20
-4.3822127952755903
11
6.1883151574803152
21
-4.3870440551181105
0
LINE
8
BLACK
6
CONTINUOUS
10
6.1883151574803152
20
-4.3870440551181105
11
6.1825299212598424
21
-4.3906791732283468
0
LINE
8
BLACK
6
CONTINUOUS
10
6.1825299212598424
20
-4.3906791732283468
11
6.1760808661417324
21
-4.3929357874015746
0
LINE
8
BLACK
6
CONTINUOUS
10
6.1760808661417324
20
-4.3929357874015746
11
6.1692913385826769
21
-4.393700787401575
0
LINE
8
BLACK
6
CONTINUOUS
10
6.1692913385826769
20
-4.393700787401575
11
6.1625018110236223
21
-4.3929357874015746
0
LINE
8
BLACK
6
CONTINUOUS
10
6.1625018110236223
20
-4.3929357874015746
11
6.1560527559055114
21
-4.3906791732283468
0
LINE
8
BLACK
6
CONTINUOUS
10
6.1560527559055114
20
-4.3906791732283468
11
6.1502675196850394
21
-4.3870440551181105
0
LINE
8
BLACK
6
CONTINUOUS
10
6.1502675196850394
20
-4.3870440551181105
11
6.1454362598425192
21
-4.3822127952755903
0
LINE
8
BLACK
6
CONTINUOUS
10
6.1454362598425192
20
-4.3822127952755903
11
6.1418011417322838
21
-4.3764275590551183
0
LINE
8
BLACK
6
CONTINUOUS
10
6.1418011417322838
20
-4.3764275590551183
11
6.139544527559055
21
-4.3699785039370074
0
LINE
8
BLACK
6
CONTINUOUS
10
6.139544527559055
20
-4.3699785039370074
11
6.1387795275590546
21
-4.3631889763779528
0
LINE
8
BLACK
6
CONTINUOUS
10
6.1387795275590546
20
-4.3631889763779528
11
6.139544527559055
21
-4.3563994488188973
0
LINE
8
BLACK
6
CONTINUOUS
10
6.139544527559055
20
-4.3563994488188973
11
6.1418011417322838
21
-4.3499503937007873
0
LINE
8
BLACK
6
CONTINUOUS
10
6.1418011417322838
20
-4.3499503937007873
11
6.1454362598425192
21
-4.3441651574803153
0
LINE
8
BLACK
6
CONTINUOUS
10
6.1454362598425192
20
-4.3441651574803153
11
6.1502675196850394
21
-4.3393338976377951
0
LINE
8
BLACK
6
CONTINUOUS
10
6.1502675196850394
20
-4.3393338976377951
11
6.1560527559055114
21
-4.3356987795275588
0
LINE
8
BLACK
6
CONTINUOUS
10
6.1560527559055114
20
-4.3356987795275588
11
6.1625018110236223
21
-4.3334421653543309
0
LINE
8
BLACK
6
CONTINUOUS
10
6.1625018110236223
20
-4.3334421653543309
11
6.1692913385826769
21
-4.3326771653543306
0
LINE
8
BLACK
6
CONTINUOUS
10
6.1692913385826769
20
-4.3326771653543306
11
6.1760808661417324
21
-4.3334421653543309
0
LINE
8
BLACK
6
CONTINUOUS
10
6.1412875984251967
20
-4.3695806299212601
11
6.1434120078740158
21
-4.375651811023622
0
LINE
8
BLACK
6
CONTINUOUS
10
6.1434120078740158
20
-4.375651811023622
11
6.146834094488189
21
-4.3810980314960632
0
LINE
8
BLACK
6
CONTINUOUS
10
6.146834094488189
20
-4.3810980314960632
11
6.1513822834645664
21
-4.3856462204724407
0
LINE
8
BLACK
6
CONTINUOUS
10
6.1513822834645664
20
-4.3856462204724407
11
6.1568285039370076
21
-4.3890683070866139
0
LINE
8
BLACK
6
CONTINUOUS
10
6.1568285039370076
20
-4.3890683070866139
11
6.1628996850393696
21
-4.391192716535433
0
LINE
8
BLACK
6
CONTINUOUS
10
6.1628996850393696
20
-4.391192716535433
11
6.1692913385826769
21
-4.3919128740157483
0
LINE
8
BLACK
6
CONTINUOUS
10
6.1692913385826769
20
-4.3919128740157483
11
6.1756829921259841
21
-4.391192716535433
0
LINE
8
BLACK
6
CONTINUOUS
10
6.1756829921259841
20
-4.391192716535433
11
6.1817541732283461
21
-4.3890683070866139
0
LINE
8
BLACK
6
CONTINUOUS
10
6.1817541732283461
20
-4.3890683070866139
11
6.1872003937007873
21
-4.3856462204724407
0
LINE
8
BLACK
6
CONTINUOUS
10
6.1872003937007873
20
-4.3856462204724407
11
6.1917485826771648
21
-4.3810980314960632
0
LINE
8
BLACK
6
CONTINUOUS
10
6.1917485826771648
20
-4.3810980314960632
11
6.1951706692913389
21
-4.375651811023622
0
LINE
8
BLACK
6
CONTINUOUS
10
6.1951706692913389
20
-4.375651811023622
11
6.1972950787401571
21
-4.3695806299212601
0
LINE
8
BLACK
6
CONTINUOUS
10
6.1972950787401571
20
-4.3695806299212601
11
6.1980152362204723
21
-4.3631889763779528
0
LINE
8
BLACK
6
CONTINUOUS
10
6.1980152362204723
20
-4.3631889763779528
11
6.1972950787401571
21
-4.3567973228346455
0
LINE
8
BLACK
6
CONTINUOUS
10
6.1972950787401571
20
-4.3567973228346455
11
6.1951706692913389
21
-4.3507261417322836
0
LINE
8
BLACK
6
CONTINUOUS
10
6.1951706692913389
20
-4.3507261417322836
11
6.1917485826771648
21
-4.3452799212598423
0
LINE
8
BLACK
6
CONTINUOUS
10
6.1917485826771648
20
-4.3452799212598423
11
6.1872003937007873
21
-4.3407317322834649
0
LINE
8
BLACK
6
CONTINUOUS
10
6.1872003937007873
20
-4.3407317322834649
11
6.1817541732283461
21
-4.3373096456692917
0
LINE
8
BLACK
6
CONTINUOUS
10
6.1817541732283461
20
-4.3373096456692917
11
6.1756829921259841
21
-4.3351852362204726
0
LINE
8
BLACK
6
CONTINUOUS
10
6.1756829921259841
20
-4.3351852362204726
11
6.1692913385826769
21
-4.3344650787401573
0
LINE
8
BLACK
6
CONTINUOUS
10
6.1692913385826769
20
-4.3344650787401573
11
6.1628996850393696
21
-4.3351852362204726
0
LINE
8
BLACK
6
CONTINUOUS
10
6.1628996850393696
20
-4.3351852362204726
11
6.1568285039370076
21
-4.3373096456692917
0
LINE
8
BLACK
6
CONTINUOUS
10
6.1568285039370076
20
-4.3373096456692917
11
6.1513822834645664
21
-4.3407317322834649
0
LINE
8
BLACK
6
CONTINUOUS
10
6.1513822834645664
20
-4.3407317322834649
11
6.146834094488189
21
-4.3452799212598423
0
LINE
8
BLACK
6
CONTINUOUS
10
6.146834094488189
20
-4.3452799212598423
11
6.1434120078740158
21
-4.3507261417322836
0
LINE
8
BLACK
6
CONTINUOUS
10
6.1434120078740158
20
-4.3507261417322836
11
6.1412875984251967
21
-4.3567973228346455
0
LINE
8
BLACK
6
CONTINUOUS
10
6.1412875984251967
20
-4.3567973228346455
11
6.1405674409448814
21
-4.3631889763779528
0
LINE
8
BLACK
6
CONTINUOUS
10
6.1405674409448814
20
-4.3631889763779528
11
6.1412875984251967
21
-4.3695806299212601
0
CIRCLE
8
BLACK
10
5.4724409448818898
20
-4.2165354330708658
40
0.0068897637795276
0
CIRCLE
8
BLACK
10
5.984251968503937
20
-4.2165354330708658
40
0.0068897637795276
0
CIRCLE
8
BLACK
10
5.8661417322834648
20
-4.4133858267716537
40
0.0068897637795276
0
CIRCLE
8
BLACK
10
5.728346456692913
20
-4.4133858267716537
40
0.0068897637795276
0
CIRCLE
8
BLACK
10
5.590551181102362
20
-4.4133858267716537
40
0.0068897637795276
0
CIRCLE
8
BLACK
10
5.3917322834645667
20
-5.7421259842519685
40
0.0068897637795276
0
CIRCLE
8
BLACK
10
4.9586614173228343
20
-5.7421259842519685
40
0.0068897637795276
0
CIRCLE
8
BLACK
10
5.0767716535433074
20
-5.3484251968503935
40
0.0068897637795276
0
CIRCLE
8
BLACK
10
5.2736220472440944
20
-5.3484251968503935
40
0.0068897637795276
  0
ENDSEC
  0
EOF
