  0
SECTION
  2
HEADER
  9
$ANGBASE
  50
0.0
  9
$ANGDIR
  70
1
  9
$MEASUREMENT
  70
0
  0
ENDSEC
  0
SECTION
  2
TABLES
  0
TABLE
  2
LTYPE
  70
4
  0
LTYPE
  5
40F
  2
CONTINUOUS
  70
0
  3
Solid line
  72
65
  73
0
  40
0.0
  0
LTYPE
  5
410
  2
DASHDOT
 70
0
  3
Dash Dot ____ _ ____ _
 72
65
 73
4
 40
2.0
 49
1.25
 49
-0.25
 49
0.25
 49
-0.25
  0
LTYPE
  5
411
  2
DASHED
 70
0
  3
Dashed __ __ __ __ __
 72
65
 73
2
 40
0.75
 49
0.5
 49
-0.25
  0
LTYPE
  5
43B
  2
DOTTED
 70
0
  3
Dotted .  .  .  .
 72
65
 73
2
 40
0.2
 49
0.0
 49
-0.2
  0
ENDTAB
  0
TABLE
  2
STYLE
  70
4
  0
STYLE
  2
KICAD
  70
0
  40
0
  41
1
  42
1
  50
0
  71
0
  3
isocp.shx
  0
STYLE
  2
KICADB
  70
0
  40
0
  41
1
  42
1
  50
0
  71
0
  3
isocp.shx
  0
STYLE
  2
KICADI
  70
0
  40
0
  41
1
  42
1
  50
15
  71
0
  3
isocp.shx
  0
STYLE
  2
KICADBI
  70
0
  40
0
  41
1
  42
1
  50
15
  71
0
  3
isocp.shx
  0
ENDTAB
  0
TABLE
  2
LAYER
  70
1
  0
LAYER
  2
BLACK
  70
0
  62
7
  6
CONTINUOUS
  0
ENDTAB
  0
ENDSEC
  0
SECTION
  2
ENTITIES
0
LINE
8
BLACK
6
CONTINUOUS
10
5.0176465748031491
20
-5.5136019291338583
11
5.0235293307086613
21
-5.5166894094488184
0
LINE
8
BLACK
6
CONTINUOUS
10
5.0235293307086613
20
-5.5166894094488184
11
5.028502283464567
21
-5.5210950393700786
0
LINE
8
BLACK
6
CONTINUOUS
10
5.028502283464567
20
-5.5210950393700786
11
5.032276338582677
21
-5.5265627559055117
0
LINE
8
BLACK
6
CONTINUOUS
10
5.032276338582677
20
-5.5265627559055117
11
5.034632244094488
21
-5.5327747637795275
0
LINE
8
BLACK
6
CONTINUOUS
10
5.034632244094488
20
-5.5327747637795275
11
5.0354330708661417
21
-5.5393700787401574
0
LINE
8
BLACK
6
CONTINUOUS
10
5.0354330708661417
20
-5.5393700787401574
11
5.034632244094488
21
-5.5459653937007873
0
LINE
8
BLACK
6
CONTINUOUS
10
5.034632244094488
20
-5.5459653937007873
11
5.032276338582677
21
-5.5521774015748031
0
LINE
8
BLACK
6
CONTINUOUS
10
5.032276338582677
20
-5.5521774015748031
11
5.028502283464567
21
-5.5576451181102362
0
LINE
8
BLACK
6
CONTINUOUS
10
5.028502283464567
20
-5.5576451181102362
11
5.0235293307086613
21
-5.5620507480314956
0
LINE
8
BLACK
6
CONTINUOUS
10
5.0235293307086613
20
-5.5620507480314956
11
5.0176465748031491
21
-5.5651382283464566
0
LINE
8
BLACK
6
CONTINUOUS
10
5.0176465748031491
20
-5.5651382283464566
11
5.0111959055118112
21
-5.566728188976378
0
LINE
8
BLACK
6
CONTINUOUS
10
5.0111959055118112
20
-5.566728188976378
11
5.0045521259842518
21
-5.566728188976378
0
LINE
8
BLACK
6
CONTINUOUS
10
5.0045521259842518
20
-5.566728188976378
11
4.9981014566929129
21
-5.5651382283464566
0
LINE
8
BLACK
6
CONTINUOUS
10
4.9981014566929129
20
-5.5651382283464566
11
4.9922187007874017
21
-5.5620507480314956
0
LINE
8
BLACK
6
CONTINUOUS
10
4.9922187007874017
20
-5.5620507480314956
11
4.987245748031496
21
-5.5576451181102362
0
LINE
8
BLACK
6
CONTINUOUS
10
4.987245748031496
20
-5.5576451181102362
11
4.983471692913386
21
-5.5521774015748031
0
LINE
8
BLACK
6
CONTINUOUS
10
4.983471692913386
20
-5.5521774015748031
11
4.981115787401575
21
-5.5459653937007873
0
LINE
8
BLACK
6
CONTINUOUS
10
4.981115787401575
20
-5.5459653937007873
11
4.9803149606299213
21
-5.5393700787401574
0
LINE
8
BLACK
6
CONTINUOUS
10
4.9803149606299213
20
-5.5393700787401574
11
4.981115787401575
21
-5.5327747637795275
0
LINE
8
BLACK
6
CONTINUOUS
10
4.981115787401575
20
-5.5327747637795275
11
4.983471692913386
21
-5.5265627559055117
0
LINE
8
BLACK
6
CONTINUOUS
10
4.983471692913386
20
-5.5265627559055117
11
4.987245748031496
21
-5.5210950393700786
0
LINE
8
BLACK
6
CONTINUOUS
10
4.987245748031496
20
-5.5210950393700786
11
4.9922187007874017
21
-5.5166894094488184
0
LINE
8
BLACK
6
CONTINUOUS
10
4.9922187007874017
20
-5.5166894094488184
11
4.9981014566929129
21
-5.5136019291338583
0
LINE
8
BLACK
6
CONTINUOUS
10
4.9981014566929129
20
-5.5136019291338583
11
5.0045521259842518
21
-5.5120119685039368
0
LINE
8
BLACK
6
CONTINUOUS
10
5.0045521259842518
20
-5.5120119685039368
11
5.0111959055118112
21
-5.5120119685039368
0
LINE
8
BLACK
6
CONTINUOUS
10
5.0111959055118112
20
-5.5120119685039368
11
5.0176465748031491
21
-5.5136019291338583
0
LINE
8
BLACK
6
CONTINUOUS
10
5.4169059842519687
20
-5.3540896062992127
11
5.4267459448818895
21
-5.3571248425196849
0
LINE
8
BLACK
6
CONTINUOUS
10
5.4267459448818895
20
-5.3571248425196849
11
5.4360236220472435
21
-5.3615927559055114
0
LINE
8
BLACK
6
CONTINUOUS
10
5.4360236220472435
20
-5.3615927559055114
11
5.4445317716535433
21
-5.3673935039370075
0
LINE
8
BLACK
6
CONTINUOUS
10
5.4445317716535433
20
-5.3673935039370075
11
5.4520803543307084
21
-5.3743975590551178
0
LINE
8
BLACK
6
CONTINUOUS
10
5.4520803543307084
20
-5.3743975590551178
11
5.4585007086614175
21
-5.3824484251968503
0
LINE
8
BLACK
6
CONTINUOUS
10
5.4585007086614175
20
-5.3824484251968503
11
5.4636494488188978
21
-5.3913662598425196
0
LINE
8
BLACK
6
CONTINUOUS
10
5.4636494488188978
20
-5.3913662598425196
11
5.4674114960629918
21
-5.4009518897637792
0
LINE
8
BLACK
6
CONTINUOUS
10
5.4674114960629918
20
-5.4009518897637792
11
5.4697029133858264
21
-5.4109911811023617
0
LINE
8
BLACK
6
CONTINUOUS
10
5.4697029133858264
20
-5.4109911811023617
11
5.4704724409448815
21
-5.4212598425196852
0
LINE
8
BLACK
6
CONTINUOUS
10
5.4704724409448815
20
-5.4212598425196852
11
5.4697029133858264
21
-5.4315285039370078
0
LINE
8
BLACK
6
CONTINUOUS
10
5.4697029133858264
20
-5.4315285039370078
11
5.4674114960629918
21
-5.4415677952755903
0
LINE
8
BLACK
6
CONTINUOUS
10
5.4674114960629918
20
-5.4415677952755903
11
5.4636494488188978
21
-5.4511534251968499
0
LINE
8
BLACK
6
CONTINUOUS
10
5.4636494488188978
20
-5.4511534251968499
11
5.4585007086614175
21
-5.4600712598425192
0
LINE
8
BLACK
6
CONTINUOUS
10
5.4585007086614175
20
-5.4600712598425192
11
5.4520803543307084
21
-5.4681221259842516
0
LINE
8
BLACK
6
CONTINUOUS
10
5.4520803543307084
20
-5.4681221259842516
11
5.4445317716535433
21
-5.4751261811023619
0
LINE
8
BLACK
6
CONTINUOUS
10
5.4445317716535433
20
-5.4751261811023619
11
5.4360236220472435
21
-5.480926929133858
0
LINE
8
BLACK
6
CONTINUOUS
10
5.4360236220472435
20
-5.480926929133858
11
5.4267459448818895
21
-5.4853948425196846
0
LINE
8
BLACK
6
CONTINUOUS
10
5.4267459448818895
20
-5.4853948425196846
11
5.4169059842519687
21
-5.4884300787401576
0
LINE
8
BLACK
6
CONTINUOUS
10
5.4169059842519687
20
-5.4884300787401576
11
5.4067235433070868
21
-5.4899648425196848
0
LINE
8
BLACK
6
CONTINUOUS
10
5.4067235433070868
20
-5.4899648425196848
11
5.3964260629921261
21
-5.4899648425196848
0
LINE
8
BLACK
6
CONTINUOUS
10
5.3964260629921261
20
-5.4899648425196848
11
5.3862436220472443
21
-5.4884300787401576
0
LINE
8
BLACK
6
CONTINUOUS
10
5.3862436220472443
20
-5.4884300787401576
11
5.3764036614173225
21
-5.4853948425196846
0
LINE
8
BLACK
6
CONTINUOUS
10
5.3764036614173225
20
-5.4853948425196846
11
5.3671259842519685
21
-5.480926929133858
0
LINE
8
BLACK
6
CONTINUOUS
10
5.3671259842519685
20
-5.480926929133858
11
5.3586178346456688
21
-5.4751261811023619
0
LINE
8
BLACK
6
CONTINUOUS
10
5.3586178346456688
20
-5.4751261811023619
11
5.3510692519685037
21
-5.4681221259842516
0
LINE
8
BLACK
6
CONTINUOUS
10
5.3510692519685037
20
-5.4681221259842516
11
5.3446488976377955
21
-5.4600712598425192
0
LINE
8
BLACK
6
CONTINUOUS
10
5.3446488976377955
20
-5.4600712598425192
11
5.3395001574803151
21
-5.4511534251968499
0
LINE
8
BLACK
6
CONTINUOUS
10
5.3395001574803151
20
-5.4511534251968499
11
5.3357381102362202
21
-5.4415677952755903
0
LINE
8
BLACK
6
CONTINUOUS
10
5.3357381102362202
20
-5.4415677952755903
11
5.3334466929133857
21
-5.4315285039370078
0
LINE
8
BLACK
6
CONTINUOUS
10
5.3334466929133857
20
-5.4315285039370078
11
5.3326771653543306
21
-5.4212598425196852
0
LINE
8
BLACK
6
CONTINUOUS
10
5.3326771653543306
20
-5.4212598425196852
11
5.3334466929133857
21
-5.4109911811023617
0
LINE
8
BLACK
6
CONTINUOUS
10
5.3334466929133857
20
-5.4109911811023617
11
5.3357381102362202
21
-5.4009518897637792
0
LINE
8
BLACK
6
CONTINUOUS
10
5.3357381102362202
20
-5.4009518897637792
11
5.3395001574803151
21
-5.3913662598425196
0
LINE
8
BLACK
6
CONTINUOUS
10
5.3395001574803151
20
-5.3913662598425196
11
5.3446488976377955
21
-5.3824484251968503
0
LINE
8
BLACK
6
CONTINUOUS
10
5.3446488976377955
20
-5.3824484251968503
11
5.3510692519685037
21
-5.3743975590551178
0
LINE
8
BLACK
6
CONTINUOUS
10
5.3510692519685037
20
-5.3743975590551178
11
5.3586178346456688
21
-5.3673935039370075
0
LINE
8
BLACK
6
CONTINUOUS
10
5.3586178346456688
20
-5.3673935039370075
11
5.3671259842519685
21
-5.3615927559055114
0
LINE
8
BLACK
6
CONTINUOUS
10
5.3671259842519685
20
-5.3615927559055114
11
5.3764036614173225
21
-5.3571248425196849
0
LINE
8
BLACK
6
CONTINUOUS
10
5.3764036614173225
20
-5.3571248425196849
11
5.3862436220472443
21
-5.3540896062992127
0
LINE
8
BLACK
6
CONTINUOUS
10
5.3862436220472443
20
-5.3540896062992127
11
5.3964260629921261
21
-5.3525548425196847
0
LINE
8
BLACK
6
CONTINUOUS
10
5.3964260629921261
20
-5.3525548425196847
11
5.4067235433070868
21
-5.3525548425196847
0
LINE
8
BLACK
6
CONTINUOUS
10
5.4067235433070868
20
-5.3525548425196847
11
5.4169059842519687
21
-5.3540896062992127
0
LINE
8
BLACK
6
CONTINUOUS
10
5.4704724409448815
20
-5.2933070866141732
11
5.3326771653543306
21
-5.2933070866141732
0
LINE
8
BLACK
6
CONTINUOUS
10
5.3326771653543306
20
-5.2933070866141732
11
5.3326771653543306
21
-5.1555118110236222
0
LINE
8
BLACK
6
CONTINUOUS
10
5.3326771653543306
20
-5.1555118110236222
11
5.4704724409448815
21
-5.1555118110236222
0
LINE
8
BLACK
6
CONTINUOUS
10
5.4704724409448815
20
-5.1555118110236222
11
5.4704724409448815
21
-5.2933070866141732
0
LINE
8
BLACK
6
CONTINUOUS
10
5.0176465748031491
20
-5.0805310629921259
11
5.0235293307086613
21
-5.0836185433070868
0
LINE
8
BLACK
6
CONTINUOUS
10
5.0235293307086613
20
-5.0836185433070868
11
5.028502283464567
21
-5.0880241732283462
0
LINE
8
BLACK
6
CONTINUOUS
10
5.028502283464567
20
-5.0880241732283462
11
5.032276338582677
21
-5.0934918897637793
0
LINE
8
BLACK
6
CONTINUOUS
10
5.032276338582677
20
-5.0934918897637793
11
5.034632244094488
21
-5.0997038976377951
0
LINE
8
BLACK
6
CONTINUOUS
10
5.034632244094488
20
-5.0997038976377951
11
5.0354330708661417
21
-5.106299212598425
0
LINE
8
BLACK
6
CONTINUOUS
10
5.0354330708661417
20
-5.106299212598425
11
5.034632244094488
21
-5.1128945275590549
0
LINE
8
BLACK
6
CONTINUOUS
10
5.034632244094488
20
-5.1128945275590549
11
5.032276338582677
21
-5.1191065354330707
0
LINE
8
BLACK
6
CONTINUOUS
10
5.032276338582677
20
-5.1191065354330707
11
5.028502283464567
21
-5.1245742519685038
0
LINE
8
BLACK
6
CONTINUOUS
10
5.028502283464567
20
-5.1245742519685038
11
5.0235293307086613
21
-5.1289798818897641
0
LINE
8
BLACK
6
CONTINUOUS
10
5.0235293307086613
20
-5.1289798818897641
11
5.0176465748031491
21
-5.1320673622047241
0
LINE
8
BLACK
6
CONTINUOUS
10
5.0176465748031491
20
-5.1320673622047241
11
5.0111959055118112
21
-5.1336573228346456
0
LINE
8
BLACK
6
CONTINUOUS
10
5.0111959055118112
20
-5.1336573228346456
11
5.0045521259842518
21
-5.1336573228346456
0
LINE
8
BLACK
6
CONTINUOUS
10
5.0045521259842518
20
-5.1336573228346456
11
4.9981014566929129
21
-5.1320673622047241
0
LINE
8
BLACK
6
CONTINUOUS
10
4.9981014566929129
20
-5.1320673622047241
11
4.9922187007874017
21
-5.1289798818897641
0
LINE
8
BLACK
6
CONTINUOUS
10
4.9922187007874017
20
-5.1289798818897641
11
4.987245748031496
21
-5.1245742519685038
0
LINE
8
BLACK
6
CONTINUOUS
10
4.987245748031496
20
-5.1245742519685038
11
4.983471692913386
21
-5.1191065354330707
0
LINE
8
BLACK
6
CONTINUOUS
10
4.983471692913386
20
-5.1191065354330707
11
4.981115787401575
21
-5.1128945275590549
0
LINE
8
BLACK
6
CONTINUOUS
10
4.981115787401575
20
-5.1128945275590549
11
4.9803149606299213
21
-5.106299212598425
0
LINE
8
BLACK
6
CONTINUOUS
10
4.9803149606299213
20
-5.106299212598425
11
4.981115787401575
21
-5.0997038976377951
0
LINE
8
BLACK
6
CONTINUOUS
10
4.981115787401575
20
-5.0997038976377951
11
4.983471692913386
21
-5.0934918897637793
0
LINE
8
BLACK
6
CONTINUOUS
10
4.983471692913386
20
-5.0934918897637793
11
4.987245748031496
21
-5.0880241732283462
0
LINE
8
BLACK
6
CONTINUOUS
10
4.987245748031496
20
-5.0880241732283462
11
4.9922187007874017
21
-5.0836185433070868
0
LINE
8
BLACK
6
CONTINUOUS
10
4.9922187007874017
20
-5.0836185433070868
11
4.9981014566929129
21
-5.0805310629921259
0
LINE
8
BLACK
6
CONTINUOUS
10
4.9981014566929129
20
-5.0805310629921259
11
5.0045521259842518
21
-5.0789411023622044
0
LINE
8
BLACK
6
CONTINUOUS
10
5.0045521259842518
20
-5.0789411023622044
11
5.0111959055118112
21
-5.0789411023622044
0
LINE
8
BLACK
6
CONTINUOUS
10
5.0111959055118112
20
-5.0789411023622044
11
5.0176465748031491
21
-5.0805310629921259
0
LINE
8
BLACK
6
CONTINUOUS
10
6.122047244094488
20
-4.4301181102362204
11
6.0039370078740157
21
-4.4301181102362204
0
LINE
8
BLACK
6
CONTINUOUS
10
6.0039370078740157
20
-4.4301181102362204
11
6.0039370078740157
21
-4.3120078740157481
0
LINE
8
BLACK
6
CONTINUOUS
10
6.0039370078740157
20
-4.3120078740157481
11
6.122047244094488
21
-4.3120078740157481
0
LINE
8
BLACK
6
CONTINUOUS
10
6.122047244094488
20
-4.3120078740157481
11
6.122047244094488
21
-4.4301181102362204
0
LINE
8
BLACK
6
CONTINUOUS
10
5.8018987401574798
20
-4.3138149606299212
11
5.8111237401574805
21
-4.3169818897637793
0
LINE
8
BLACK
6
CONTINUOUS
10
5.8111237401574805
20
-4.3169818897637793
11
5.8197016535433068
21
-4.3216240157480312
0
LINE
8
BLACK
6
CONTINUOUS
10
5.8197016535433068
20
-4.3216240157480312
11
5.8273985039370073
21
-4.3276147244094485
0
LINE
8
BLACK
6
CONTINUOUS
10
5.8273985039370073
20
-4.3276147244094485
11
5.8340043700787403
21
-4.3347905905511812
0
LINE
8
BLACK
6
CONTINUOUS
10
5.8340043700787403
20
-4.3347905905511812
11
5.8393390157480312
21
-4.3429558661417325
0
LINE
8
BLACK
6
CONTINUOUS
10
5.8393390157480312
20
-4.3429558661417325
11
5.8432569291338581
21
-4.3518878346456695
0
LINE
8
BLACK
6
CONTINUOUS
10
5.8432569291338581
20
-4.3518878346456695
11
5.8456512598425192
21
-4.3613428346456695
0
LINE
8
BLACK
6
CONTINUOUS
10
5.8456512598425192
20
-4.3613428346456695
11
5.8464566929133861
21
-4.3710629921259843
0
LINE
8
BLACK
6
CONTINUOUS
10
5.8464566929133861
20
-4.3710629921259843
11
5.8456512598425192
21
-4.380783149606299
0
LINE
8
BLACK
6
CONTINUOUS
10
5.8456512598425192
20
-4.380783149606299
11
5.8432569291338581
21
-4.390238149606299
0
LINE
8
BLACK
6
CONTINUOUS
10
5.8432569291338581
20
-4.390238149606299
11
5.8393390157480312
21
-4.3991701181102361
0
LINE
8
BLACK
6
CONTINUOUS
10
5.8393390157480312
20
-4.3991701181102361
11
5.8340043700787403
21
-4.4073353937007873
0
LINE
8
BLACK
6
CONTINUOUS
10
5.8340043700787403
20
-4.4073353937007873
11
5.8273985039370073
21
-4.41451125984252
0
LINE
8
BLACK
6
CONTINUOUS
10
5.8273985039370073
20
-4.41451125984252
11
5.8197016535433068
21
-4.4205019685039373
0
LINE
8
BLACK
6
CONTINUOUS
10
5.8197016535433068
20
-4.4205019685039373
11
5.8111237401574805
21
-4.4251440944881892
0
LINE
8
BLACK
6
CONTINUOUS
10
5.8111237401574805
20
-4.4251440944881892
11
5.8018987401574798
21
-4.4283110236220473
0
LINE
8
BLACK
6
CONTINUOUS
10
5.8018987401574798
20
-4.4283110236220473
11
5.7922783070866144
21
-4.4299164173228345
0
LINE
8
BLACK
6
CONTINUOUS
10
5.7922783070866144
20
-4.4299164173228345
11
5.7825248425196847
21
-4.4299164173228345
0
LINE
8
BLACK
6
CONTINUOUS
10
5.7825248425196847
20
-4.4299164173228345
11
5.7729044094488184
21
-4.4283110236220473
0
LINE
8
BLACK
6
CONTINUOUS
10
5.7729044094488184
20
-4.4283110236220473
11
5.7636794094488186
21
-4.4251440944881892
0
LINE
8
BLACK
6
CONTINUOUS
10
5.7636794094488186
20
-4.4251440944881892
11
5.7551014960629923
21
-4.4205019685039373
0
LINE
8
BLACK
6
CONTINUOUS
10
5.7551014960629923
20
-4.4205019685039373
11
5.7474046456692909
21
-4.41451125984252
0
LINE
8
BLACK
6
CONTINUOUS
10
5.7474046456692909
20
-4.41451125984252
11
5.7407987795275588
21
-4.4073353937007873
0
LINE
8
BLACK
6
CONTINUOUS
10
5.7407987795275588
20
-4.4073353937007873
11
5.7354641338582679
21
-4.3991701181102361
0
LINE
8
BLACK
6
CONTINUOUS
10
5.7354641338582679
20
-4.3991701181102361
11
5.731546220472441
21
-4.390238149606299
0
LINE
8
BLACK
6
CONTINUOUS
10
5.731546220472441
20
-4.390238149606299
11
5.729151889763779
21
-4.380783149606299
0
LINE
8
BLACK
6
CONTINUOUS
10
5.729151889763779
20
-4.380783149606299
11
5.728346456692913
21
-4.3710629921259843
0
LINE
8
BLACK
6
CONTINUOUS
10
5.728346456692913
20
-4.3710629921259843
11
5.729151889763779
21
-4.3613428346456695
0
LINE
8
BLACK
6
CONTINUOUS
10
5.729151889763779
20
-4.3613428346456695
11
5.731546220472441
21
-4.3518878346456695
0
LINE
8
BLACK
6
CONTINUOUS
10
5.731546220472441
20
-4.3518878346456695
11
5.7354641338582679
21
-4.3429558661417325
0
LINE
8
BLACK
6
CONTINUOUS
10
5.7354641338582679
20
-4.3429558661417325
11
5.7407987795275588
21
-4.3347905905511812
0
LINE
8
BLACK
6
CONTINUOUS
10
5.7407987795275588
20
-4.3347905905511812
11
5.7474046456692909
21
-4.3276147244094485
0
LINE
8
BLACK
6
CONTINUOUS
10
5.7474046456692909
20
-4.3276147244094485
11
5.7551014960629923
21
-4.3216240157480312
0
LINE
8
BLACK
6
CONTINUOUS
10
5.7551014960629923
20
-4.3216240157480312
11
5.7636794094488186
21
-4.3169818897637793
0
LINE
8
BLACK
6
CONTINUOUS
10
5.7636794094488186
20
-4.3169818897637793
11
5.7729044094488184
21
-4.3138149606299212
0
LINE
8
BLACK
6
CONTINUOUS
10
5.7729044094488184
20
-4.3138149606299212
11
5.7825248425196847
21
-4.312209566929134
0
LINE
8
BLACK
6
CONTINUOUS
10
5.7825248425196847
20
-4.312209566929134
11
5.7922783070866144
21
-4.312209566929134
0
LINE
8
BLACK
6
CONTINUOUS
10
5.7922783070866144
20
-4.312209566929134
11
5.8018987401574798
21
-4.3138149606299212
0
LINE
8
BLACK
6
CONTINUOUS
10
5.9396940157480316
20
-4.3138149606299212
11
5.9489190157480314
21
-4.3169818897637793
0
LINE
8
BLACK
6
CONTINUOUS
10
5.9489190157480314
20
-4.3169818897637793
11
5.9574969291338578
21
-4.3216240157480312
0
LINE
8
BLACK
6
CONTINUOUS
10
5.9574969291338578
20
-4.3216240157480312
11
5.9651937795275591
21
-4.3276147244094485
0
LINE
8
BLACK
6
CONTINUOUS
10
5.9651937795275591
20
-4.3276147244094485
11
5.9717996456692912
21
-4.3347905905511812
0
LINE
8
BLACK
6
CONTINUOUS
10
5.9717996456692912
20
-4.3347905905511812
11
5.977134291338583
21
-4.3429558661417325
0
LINE
8
BLACK
6
CONTINUOUS
10
5.977134291338583
20
-4.3429558661417325
11
5.981052204724409
21
-4.3518878346456695
0
LINE
8
BLACK
6
CONTINUOUS
10
5.981052204724409
20
-4.3518878346456695
11
5.983446535433071
21
-4.3613428346456695
0
LINE
8
BLACK
6
CONTINUOUS
10
5.983446535433071
20
-4.3613428346456695
11
5.984251968503937
21
-4.3710629921259843
0
LINE
8
BLACK
6
CONTINUOUS
10
5.984251968503937
20
-4.3710629921259843
11
5.983446535433071
21
-4.380783149606299
0
LINE
8
BLACK
6
CONTINUOUS
10
5.983446535433071
20
-4.380783149606299
11
5.981052204724409
21
-4.390238149606299
0
LINE
8
BLACK
6
CONTINUOUS
10
5.981052204724409
20
-4.390238149606299
11
5.977134291338583
21
-4.3991701181102361
0
LINE
8
BLACK
6
CONTINUOUS
10
5.977134291338583
20
-4.3991701181102361
11
5.9717996456692912
21
-4.4073353937007873
0
LINE
8
BLACK
6
CONTINUOUS
10
5.9717996456692912
20
-4.4073353937007873
11
5.9651937795275591
21
-4.41451125984252
0
LINE
8
BLACK
6
CONTINUOUS
10
5.9651937795275591
20
-4.41451125984252
11
5.9574969291338578
21
-4.4205019685039373
0
LINE
8
BLACK
6
CONTINUOUS
10
5.9574969291338578
20
-4.4205019685039373
11
5.9489190157480314
21
-4.4251440944881892
0
LINE
8
BLACK
6
CONTINUOUS
10
5.9489190157480314
20
-4.4251440944881892
11
5.9396940157480316
21
-4.4283110236220473
0
LINE
8
BLACK
6
CONTINUOUS
10
5.9396940157480316
20
-4.4283110236220473
11
5.9300735826771653
21
-4.4299164173228345
0
LINE
8
BLACK
6
CONTINUOUS
10
5.9300735826771653
20
-4.4299164173228345
11
5.9203201181102365
21
-4.4299164173228345
0
LINE
8
BLACK
6
CONTINUOUS
10
5.9203201181102365
20
-4.4299164173228345
11
5.9106996850393703
21
-4.4283110236220473
0
LINE
8
BLACK
6
CONTINUOUS
10
5.9106996850393703
20
-4.4283110236220473
11
5.9014746850393696
21
-4.4251440944881892
0
LINE
8
BLACK
6
CONTINUOUS
10
5.9014746850393696
20
-4.4251440944881892
11
5.8928967716535432
21
-4.4205019685039373
0
LINE
8
BLACK
6
CONTINUOUS
10
5.8928967716535432
20
-4.4205019685039373
11
5.8851999212598427
21
-4.41451125984252
0
LINE
8
BLACK
6
CONTINUOUS
10
5.8851999212598427
20
-4.41451125984252
11
5.8785940551181097
21
-4.4073353937007873
0
LINE
8
BLACK
6
CONTINUOUS
10
5.8785940551181097
20
-4.4073353937007873
11
5.8732594094488189
21
-4.3991701181102361
0
LINE
8
BLACK
6
CONTINUOUS
10
5.8732594094488189
20
-4.3991701181102361
11
5.8693414960629919
21
-4.390238149606299
0
LINE
8
BLACK
6
CONTINUOUS
10
5.8693414960629919
20
-4.390238149606299
11
5.8669471653543308
21
-4.380783149606299
0
LINE
8
BLACK
6
CONTINUOUS
10
5.8669471653543308
20
-4.380783149606299
11
5.8661417322834648
21
-4.3710629921259843
0
LINE
8
BLACK
6
CONTINUOUS
10
5.8661417322834648
20
-4.3710629921259843
11
5.8669471653543308
21
-4.3613428346456695
0
LINE
8
BLACK
6
CONTINUOUS
10
5.8669471653543308
20
-4.3613428346456695
11
5.8693414960629919
21
-4.3518878346456695
0
LINE
8
BLACK
6
CONTINUOUS
10
5.8693414960629919
20
-4.3518878346456695
11
5.8732594094488189
21
-4.3429558661417325
0
LINE
8
BLACK
6
CONTINUOUS
10
5.8732594094488189
20
-4.3429558661417325
11
5.8785940551181097
21
-4.3347905905511812
0
LINE
8
BLACK
6
CONTINUOUS
10
5.8785940551181097
20
-4.3347905905511812
11
5.8851999212598427
21
-4.3276147244094485
0
LINE
8
BLACK
6
CONTINUOUS
10
5.8851999212598427
20
-4.3276147244094485
11
5.8928967716535432
21
-4.3216240157480312
0
LINE
8
BLACK
6
CONTINUOUS
10
5.8928967716535432
20
-4.3216240157480312
11
5.9014746850393696
21
-4.3169818897637793
0
LINE
8
BLACK
6
CONTINUOUS
10
5.9014746850393696
20
-4.3169818897637793
11
5.9106996850393703
21
-4.3138149606299212
0
LINE
8
BLACK
6
CONTINUOUS
10
5.9106996850393703
20
-4.3138149606299212
11
5.9203201181102365
21
-4.312209566929134
0
LINE
8
BLACK
6
CONTINUOUS
10
5.9203201181102365
20
-4.312209566929134
11
5.9300735826771653
21
-4.312209566929134
0
LINE
8
BLACK
6
CONTINUOUS
10
5.9300735826771653
20
-4.312209566929134
11
5.9396940157480316
21
-4.3138149606299212
0
LINE
8
BLACK
6
CONTINUOUS
10
5.6790638976377954
20
-4.1484444488188972
11
5.6849466535433066
21
-4.1515319291338582
0
LINE
8
BLACK
6
CONTINUOUS
10
5.6849466535433066
20
-4.1515319291338582
11
5.6899196062992123
21
-4.1559375590551184
0
LINE
8
BLACK
6
CONTINUOUS
10
5.6899196062992123
20
-4.1559375590551184
11
5.6936936614173224
21
-4.1614052755905515
0
LINE
8
BLACK
6
CONTINUOUS
10
5.6936936614173224
20
-4.1614052755905515
11
5.6960495669291333
21
-4.1676172834645664
0
LINE
8
BLACK
6
CONTINUOUS
10
5.6960495669291333
20
-4.1676172834645664
11
5.6968503937007871
21
-4.1742125984251963
0
LINE
8
BLACK
6
CONTINUOUS
10
5.6968503937007871
20
-4.1742125984251963
11
5.6960495669291333
21
-4.1808079133858262
0
LINE
8
BLACK
6
CONTINUOUS
10
5.6960495669291333
20
-4.1808079133858262
11
5.6936936614173224
21
-4.187019921259842
0
LINE
8
BLACK
6
CONTINUOUS
10
5.6936936614173224
20
-4.187019921259842
11
5.6899196062992123
21
-4.1924876377952751
0
LINE
8
BLACK
6
CONTINUOUS
10
5.6899196062992123
20
-4.1924876377952751
11
5.6849466535433066
21
-4.1968932677165354
0
LINE
8
BLACK
6
CONTINUOUS
10
5.6849466535433066
20
-4.1968932677165354
11
5.6790638976377954
21
-4.1999807480314963
0
LINE
8
BLACK
6
CONTINUOUS
10
5.6790638976377954
20
-4.1999807480314963
11
5.6726132283464565
21
-4.2015707086614169
0
LINE
8
BLACK
6
CONTINUOUS
10
5.6726132283464565
20
-4.2015707086614169
11
5.6659694488188972
21
-4.2015707086614169
0
LINE
8
BLACK
6
CONTINUOUS
10
5.6659694488188972
20
-4.2015707086614169
11
5.6595187795275592
21
-4.1999807480314963
0
LINE
8
BLACK
6
CONTINUOUS
10
5.6595187795275592
20
-4.1999807480314963
11
5.6536360236220471
21
-4.1968932677165354
0
LINE
8
BLACK
6
CONTINUOUS
10
5.6536360236220471
20
-4.1968932677165354
11
5.6486630708661414
21
-4.1924876377952751
0
LINE
8
BLACK
6
CONTINUOUS
10
5.6486630708661414
20
-4.1924876377952751
11
5.6448890157480314
21
-4.187019921259842
0
LINE
8
BLACK
6
CONTINUOUS
10
5.6448890157480314
20
-4.187019921259842
11
5.6425331102362204
21
-4.1808079133858262
0
LINE
8
BLACK
6
CONTINUOUS
10
5.6425331102362204
20
-4.1808079133858262
11
5.6417322834645667
21
-4.1742125984251963
0
LINE
8
BLACK
6
CONTINUOUS
10
5.6417322834645667
20
-4.1742125984251963
11
5.6425331102362204
21
-4.1676172834645664
0
LINE
8
BLACK
6
CONTINUOUS
10
5.6425331102362204
20
-4.1676172834645664
11
5.6448890157480314
21
-4.1614052755905515
0
LINE
8
BLACK
6
CONTINUOUS
10
5.6448890157480314
20
-4.1614052755905515
11
5.6486630708661414
21
-4.1559375590551184
0
LINE
8
BLACK
6
CONTINUOUS
10
5.6486630708661414
20
-4.1559375590551184
11
5.6536360236220471
21
-4.1515319291338582
0
LINE
8
BLACK
6
CONTINUOUS
10
5.6536360236220471
20
-4.1515319291338582
11
5.6595187795275592
21
-4.1484444488188972
0
LINE
8
BLACK
6
CONTINUOUS
10
5.6595187795275592
20
-4.1484444488188972
11
5.6659694488188972
21
-4.1468544881889766
0
LINE
8
BLACK
6
CONTINUOUS
10
5.6659694488188972
20
-4.1468544881889766
11
5.6726132283464565
21
-4.1468544881889766
0
LINE
8
BLACK
6
CONTINUOUS
10
5.6726132283464565
20
-4.1468544881889766
11
5.6790638976377954
21
-4.1484444488188972
0
LINE
8
BLACK
6
CONTINUOUS
10
6.1908749212598426
20
-4.1484444488188972
11
6.1967576771653539
21
-4.1515319291338582
0
LINE
8
BLACK
6
CONTINUOUS
10
6.1967576771653539
20
-4.1515319291338582
11
6.2017306299212596
21
-4.1559375590551184
0
LINE
8
BLACK
6
CONTINUOUS
10
6.2017306299212596
20
-4.1559375590551184
11
6.2055046850393696
21
-4.1614052755905515
0
LINE
8
BLACK
6
CONTINUOUS
10
6.2055046850393696
20
-4.1614052755905515
11
6.2078605905511806
21
-4.1676172834645664
0
LINE
8
BLACK
6
CONTINUOUS
10
6.2078605905511806
20
-4.1676172834645664
11
6.2086614173228343
21
-4.1742125984251963
0
LINE
8
BLACK
6
CONTINUOUS
10
6.2086614173228343
20
-4.1742125984251963
11
6.2078605905511806
21
-4.1808079133858262
0
LINE
8
BLACK
6
CONTINUOUS
10
6.2078605905511806
20
-4.1808079133858262
11
6.2055046850393696
21
-4.187019921259842
0
LINE
8
BLACK
6
CONTINUOUS
10
6.2055046850393696
20
-4.187019921259842
11
6.2017306299212596
21
-4.1924876377952751
0
LINE
8
BLACK
6
CONTINUOUS
10
6.2017306299212596
20
-4.1924876377952751
11
6.1967576771653539
21
-4.1968932677165354
0
LINE
8
BLACK
6
CONTINUOUS
10
6.1967576771653539
20
-4.1968932677165354
11
6.1908749212598426
21
-4.1999807480314963
0
LINE
8
BLACK
6
CONTINUOUS
10
6.1908749212598426
20
-4.1999807480314963
11
6.1844242519685038
21
-4.2015707086614169
0
LINE
8
BLACK
6
CONTINUOUS
10
6.1844242519685038
20
-4.2015707086614169
11
6.1777804724409444
21
-4.2015707086614169
0
LINE
8
BLACK
6
CONTINUOUS
10
6.1777804724409444
20
-4.2015707086614169
11
6.1713298031496064
21
-4.1999807480314963
0
LINE
8
BLACK
6
CONTINUOUS
10
6.1713298031496064
20
-4.1999807480314963
11
6.1654470472440943
21
-4.1968932677165354
0
LINE
8
BLACK
6
CONTINUOUS
10
6.1654470472440943
20
-4.1968932677165354
11
6.1604740944881886
21
-4.1924876377952751
0
LINE
8
BLACK
6
CONTINUOUS
10
6.1604740944881886
20
-4.1924876377952751
11
6.1567000393700786
21
-4.187019921259842
0
LINE
8
BLACK
6
CONTINUOUS
10
6.1567000393700786
20
-4.187019921259842
11
6.1543441338582676
21
-4.1808079133858262
0
LINE
8
BLACK
6
CONTINUOUS
10
6.1543441338582676
20
-4.1808079133858262
11
6.1535433070866139
21
-4.1742125984251963
0
LINE
8
BLACK
6
CONTINUOUS
10
6.1535433070866139
20
-4.1742125984251963
11
6.1543441338582676
21
-4.1676172834645664
0
LINE
8
BLACK
6
CONTINUOUS
10
6.1543441338582676
20
-4.1676172834645664
11
6.1567000393700786
21
-4.1614052755905515
0
LINE
8
BLACK
6
CONTINUOUS
10
6.1567000393700786
20
-4.1614052755905515
11
6.1604740944881886
21
-4.1559375590551184
0
LINE
8
BLACK
6
CONTINUOUS
10
6.1604740944881886
20
-4.1559375590551184
11
6.1654470472440943
21
-4.1515319291338582
0
LINE
8
BLACK
6
CONTINUOUS
10
6.1654470472440943
20
-4.1515319291338582
11
6.1713298031496064
21
-4.1484444488188972
0
LINE
8
BLACK
6
CONTINUOUS
10
6.1713298031496064
20
-4.1484444488188972
11
6.1777804724409444
21
-4.1468544881889766
0
LINE
8
BLACK
6
CONTINUOUS
10
6.1777804724409444
20
-4.1468544881889766
11
6.1844242519685038
21
-4.1468544881889766
0
LINE
8
BLACK
6
CONTINUOUS
10
6.1844242519685038
20
-4.1468544881889766
11
6.1908749212598426
21
-4.1484444488188972
  0
ENDSEC
  0
EOF
