  0
SECTION
  2
HEADER
  9
$ANGBASE
  50
0.0
  9
$ANGDIR
  70
1
  9
$MEASUREMENT
  70
0
  0
ENDSEC
  0
SECTION
  2
TABLES
  0
TABLE
  2
LTYPE
  70
4
  0
LTYPE
  5
40F
  2
CONTINUOUS
  70
0
  3
Solid line
  72
65
  73
0
  40
0.0
  0
LTYPE
  5
410
  2
DASHDOT
 70
0
  3
Dash Dot ____ _ ____ _
 72
65
 73
4
 40
2.0
 49
1.25
 49
-0.25
 49
0.25
 49
-0.25
  0
LTYPE
  5
411
  2
DASHED
 70
0
  3
Dashed __ __ __ __ __
 72
65
 73
2
 40
0.75
 49
0.5
 49
-0.25
  0
LTYPE
  5
43B
  2
DOTTED
 70
0
  3
Dotted .  .  .  .
 72
65
 73
2
 40
0.2
 49
0.0
 49
-0.2
  0
ENDTAB
  0
TABLE
  2
STYLE
  70
4
  0
STYLE
  2
KICAD
  70
0
  40
0
  41
1
  42
1
  50
0
  71
0
  3
isocp.shx
  0
STYLE
  2
KICADB
  70
0
  40
0
  41
1
  42
1
  50
0
  71
0
  3
isocp.shx
  0
STYLE
  2
KICADI
  70
0
  40
0
  41
1
  42
1
  50
15
  71
0
  3
isocp.shx
  0
STYLE
  2
KICADBI
  70
0
  40
0
  41
1
  42
1
  50
15
  71
0
  3
isocp.shx
  0
ENDTAB
  0
TABLE
  2
LAYER
  70
1
  0
LAYER
  2
BLACK
  70
0
  62
7
  6
CONTINUOUS
  0
ENDTAB
  0
ENDSEC
  0
SECTION
  2
ENTITIES
0
LINE
8
BLACK
6
CONTINUOUS
10
5.0176465748031491
20
-5.5136019291338583
11
5.0235293307086613
21
-5.5166894094488184
0
LINE
8
BLACK
6
CONTINUOUS
10
5.0235293307086613
20
-5.5166894094488184
11
5.028502283464567
21
-5.5210950393700786
0
LINE
8
BLACK
6
CONTINUOUS
10
5.028502283464567
20
-5.5210950393700786
11
5.032276338582677
21
-5.5265627559055117
0
LINE
8
BLACK
6
CONTINUOUS
10
5.032276338582677
20
-5.5265627559055117
11
5.034632244094488
21
-5.5327747637795275
0
LINE
8
BLACK
6
CONTINUOUS
10
5.034632244094488
20
-5.5327747637795275
11
5.0354330708661417
21
-5.5393700787401574
0
LINE
8
BLACK
6
CONTINUOUS
10
5.0354330708661417
20
-5.5393700787401574
11
5.034632244094488
21
-5.5459653937007873
0
LINE
8
BLACK
6
CONTINUOUS
10
5.034632244094488
20
-5.5459653937007873
11
5.032276338582677
21
-5.5521774015748031
0
LINE
8
BLACK
6
CONTINUOUS
10
5.032276338582677
20
-5.5521774015748031
11
5.028502283464567
21
-5.5576451181102362
0
LINE
8
BLACK
6
CONTINUOUS
10
5.028502283464567
20
-5.5576451181102362
11
5.0235293307086613
21
-5.5620507480314956
0
LINE
8
BLACK
6
CONTINUOUS
10
5.0235293307086613
20
-5.5620507480314956
11
5.0176465748031491
21
-5.5651382283464566
0
LINE
8
BLACK
6
CONTINUOUS
10
5.0176465748031491
20
-5.5651382283464566
11
5.0111959055118112
21
-5.566728188976378
0
LINE
8
BLACK
6
CONTINUOUS
10
5.0111959055118112
20
-5.566728188976378
11
5.0045521259842518
21
-5.566728188976378
0
LINE
8
BLACK
6
CONTINUOUS
10
5.0045521259842518
20
-5.566728188976378
11
4.9981014566929129
21
-5.5651382283464566
0
LINE
8
BLACK
6
CONTINUOUS
10
4.9981014566929129
20
-5.5651382283464566
11
4.9922187007874017
21
-5.5620507480314956
0
LINE
8
BLACK
6
CONTINUOUS
10
4.9922187007874017
20
-5.5620507480314956
11
4.987245748031496
21
-5.5576451181102362
0
LINE
8
BLACK
6
CONTINUOUS
10
4.987245748031496
20
-5.5576451181102362
11
4.983471692913386
21
-5.5521774015748031
0
LINE
8
BLACK
6
CONTINUOUS
10
4.983471692913386
20
-5.5521774015748031
11
4.981115787401575
21
-5.5459653937007873
0
LINE
8
BLACK
6
CONTINUOUS
10
4.981115787401575
20
-5.5459653937007873
11
4.9803149606299213
21
-5.5393700787401574
0
LINE
8
BLACK
6
CONTINUOUS
10
4.9803149606299213
20
-5.5393700787401574
11
4.981115787401575
21
-5.5327747637795275
0
LINE
8
BLACK
6
CONTINUOUS
10
4.981115787401575
20
-5.5327747637795275
11
4.983471692913386
21
-5.5265627559055117
0
LINE
8
BLACK
6
CONTINUOUS
10
4.983471692913386
20
-5.5265627559055117
11
4.987245748031496
21
-5.5210950393700786
0
LINE
8
BLACK
6
CONTINUOUS
10
4.987245748031496
20
-5.5210950393700786
11
4.9922187007874017
21
-5.5166894094488184
0
LINE
8
BLACK
6
CONTINUOUS
10
4.9922187007874017
20
-5.5166894094488184
11
4.9981014566929129
21
-5.5136019291338583
0
LINE
8
BLACK
6
CONTINUOUS
10
4.9981014566929129
20
-5.5136019291338583
11
5.0045521259842518
21
-5.5120119685039368
0
LINE
8
BLACK
6
CONTINUOUS
10
5.0045521259842518
20
-5.5120119685039368
11
5.0111959055118112
21
-5.5120119685039368
0
LINE
8
BLACK
6
CONTINUOUS
10
5.0111959055118112
20
-5.5120119685039368
11
5.0176465748031491
21
-5.5136019291338583
0
LINE
8
BLACK
6
CONTINUOUS
10
5.4169059842519687
20
-5.3540896062992127
11
5.4267459448818895
21
-5.3571248425196849
0
LINE
8
BLACK
6
CONTINUOUS
10
5.4267459448818895
20
-5.3571248425196849
11
5.4360236220472435
21
-5.3615927559055114
0
LINE
8
BLACK
6
CONTINUOUS
10
5.4360236220472435
20
-5.3615927559055114
11
5.4445317716535433
21
-5.3673935039370075
0
LINE
8
BLACK
6
CONTINUOUS
10
5.4445317716535433
20
-5.3673935039370075
11
5.4520803543307084
21
-5.3743975590551178
0
LINE
8
BLACK
6
CONTINUOUS
10
5.4520803543307084
20
-5.3743975590551178
11
5.4585007086614175
21
-5.3824484251968503
0
LINE
8
BLACK
6
CONTINUOUS
10
5.4585007086614175
20
-5.3824484251968503
11
5.4636494488188978
21
-5.3913662598425196
0
LINE
8
BLACK
6
CONTINUOUS
10
5.4636494488188978
20
-5.3913662598425196
11
5.4674114960629918
21
-5.4009518897637792
0
LINE
8
BLACK
6
CONTINUOUS
10
5.4674114960629918
20
-5.4009518897637792
11
5.4697029133858264
21
-5.4109911811023617
0
LINE
8
BLACK
6
CONTINUOUS
10
5.4697029133858264
20
-5.4109911811023617
11
5.4704724409448815
21
-5.4212598425196852
0
LINE
8
BLACK
6
CONTINUOUS
10
5.4704724409448815
20
-5.4212598425196852
11
5.4697029133858264
21
-5.4315285039370078
0
LINE
8
BLACK
6
CONTINUOUS
10
5.4697029133858264
20
-5.4315285039370078
11
5.4674114960629918
21
-5.4415677952755903
0
LINE
8
BLACK
6
CONTINUOUS
10
5.4674114960629918
20
-5.4415677952755903
11
5.4636494488188978
21
-5.4511534251968499
0
LINE
8
BLACK
6
CONTINUOUS
10
5.4636494488188978
20
-5.4511534251968499
11
5.4585007086614175
21
-5.4600712598425192
0
LINE
8
BLACK
6
CONTINUOUS
10
5.4585007086614175
20
-5.4600712598425192
11
5.4520803543307084
21
-5.4681221259842516
0
LINE
8
BLACK
6
CONTINUOUS
10
5.4520803543307084
20
-5.4681221259842516
11
5.4445317716535433
21
-5.4751261811023619
0
LINE
8
BLACK
6
CONTINUOUS
10
5.4445317716535433
20
-5.4751261811023619
11
5.4360236220472435
21
-5.480926929133858
0
LINE
8
BLACK
6
CONTINUOUS
10
5.4360236220472435
20
-5.480926929133858
11
5.4267459448818895
21
-5.4853948425196846
0
LINE
8
BLACK
6
CONTINUOUS
10
5.4267459448818895
20
-5.4853948425196846
11
5.4169059842519687
21
-5.4884300787401576
0
LINE
8
BLACK
6
CONTINUOUS
10
5.4169059842519687
20
-5.4884300787401576
11
5.4067235433070868
21
-5.4899648425196848
0
LINE
8
BLACK
6
CONTINUOUS
10
5.4067235433070868
20
-5.4899648425196848
11
5.3964260629921261
21
-5.4899648425196848
0
LINE
8
BLACK
6
CONTINUOUS
10
5.3964260629921261
20
-5.4899648425196848
11
5.3862436220472443
21
-5.4884300787401576
0
LINE
8
BLACK
6
CONTINUOUS
10
5.3862436220472443
20
-5.4884300787401576
11
5.3764036614173225
21
-5.4853948425196846
0
LINE
8
BLACK
6
CONTINUOUS
10
5.3764036614173225
20
-5.4853948425196846
11
5.3671259842519685
21
-5.480926929133858
0
LINE
8
BLACK
6
CONTINUOUS
10
5.3671259842519685
20
-5.480926929133858
11
5.3586178346456688
21
-5.4751261811023619
0
LINE
8
BLACK
6
CONTINUOUS
10
5.3586178346456688
20
-5.4751261811023619
11
5.3510692519685037
21
-5.4681221259842516
0
LINE
8
BLACK
6
CONTINUOUS
10
5.3510692519685037
20
-5.4681221259842516
11
5.3446488976377955
21
-5.4600712598425192
0
LINE
8
BLACK
6
CONTINUOUS
10
5.3446488976377955
20
-5.4600712598425192
11
5.3395001574803151
21
-5.4511534251968499
0
LINE
8
BLACK
6
CONTINUOUS
10
5.3395001574803151
20
-5.4511534251968499
11
5.3357381102362202
21
-5.4415677952755903
0
LINE
8
BLACK
6
CONTINUOUS
10
5.3357381102362202
20
-5.4415677952755903
11
5.3334466929133857
21
-5.4315285039370078
0
LINE
8
BLACK
6
CONTINUOUS
10
5.3334466929133857
20
-5.4315285039370078
11
5.3326771653543306
21
-5.4212598425196852
0
LINE
8
BLACK
6
CONTINUOUS
10
5.3326771653543306
20
-5.4212598425196852
11
5.3334466929133857
21
-5.4109911811023617
0
LINE
8
BLACK
6
CONTINUOUS
10
5.3334466929133857
20
-5.4109911811023617
11
5.3357381102362202
21
-5.4009518897637792
0
LINE
8
BLACK
6
CONTINUOUS
10
5.3357381102362202
20
-5.4009518897637792
11
5.3395001574803151
21
-5.3913662598425196
0
LINE
8
BLACK
6
CONTINUOUS
10
5.3395001574803151
20
-5.3913662598425196
11
5.3446488976377955
21
-5.3824484251968503
0
LINE
8
BLACK
6
CONTINUOUS
10
5.3446488976377955
20
-5.3824484251968503
11
5.3510692519685037
21
-5.3743975590551178
0
LINE
8
BLACK
6
CONTINUOUS
10
5.3510692519685037
20
-5.3743975590551178
11
5.3586178346456688
21
-5.3673935039370075
0
LINE
8
BLACK
6
CONTINUOUS
10
5.3586178346456688
20
-5.3673935039370075
11
5.3671259842519685
21
-5.3615927559055114
0
LINE
8
BLACK
6
CONTINUOUS
10
5.3671259842519685
20
-5.3615927559055114
11
5.3764036614173225
21
-5.3571248425196849
0
LINE
8
BLACK
6
CONTINUOUS
10
5.3764036614173225
20
-5.3571248425196849
11
5.3862436220472443
21
-5.3540896062992127
0
LINE
8
BLACK
6
CONTINUOUS
10
5.3862436220472443
20
-5.3540896062992127
11
5.3964260629921261
21
-5.3525548425196847
0
LINE
8
BLACK
6
CONTINUOUS
10
5.3964260629921261
20
-5.3525548425196847
11
5.4067235433070868
21
-5.3525548425196847
0
LINE
8
BLACK
6
CONTINUOUS
10
5.4067235433070868
20
-5.3525548425196847
11
5.4169059842519687
21
-5.3540896062992127
0
LINE
8
BLACK
6
CONTINUOUS
10
5.4704724409448815
20
-5.2933070866141732
11
5.3326771653543306
21
-5.2933070866141732
0
LINE
8
BLACK
6
CONTINUOUS
10
5.3326771653543306
20
-5.2933070866141732
11
5.3326771653543306
21
-5.1555118110236222
0
LINE
8
BLACK
6
CONTINUOUS
10
5.3326771653543306
20
-5.1555118110236222
11
5.4704724409448815
21
-5.1555118110236222
0
LINE
8
BLACK
6
CONTINUOUS
10
5.4704724409448815
20
-5.1555118110236222
11
5.4704724409448815
21
-5.2933070866141732
0
LINE
8
BLACK
6
CONTINUOUS
10
5.0176465748031491
20
-5.0805310629921259
11
5.0235293307086613
21
-5.0836185433070868
0
LINE
8
BLACK
6
CONTINUOUS
10
5.0235293307086613
20
-5.0836185433070868
11
5.028502283464567
21
-5.0880241732283462
0
LINE
8
BLACK
6
CONTINUOUS
10
5.028502283464567
20
-5.0880241732283462
11
5.032276338582677
21
-5.0934918897637793
0
LINE
8
BLACK
6
CONTINUOUS
10
5.032276338582677
20
-5.0934918897637793
11
5.034632244094488
21
-5.0997038976377951
0
LINE
8
BLACK
6
CONTINUOUS
10
5.034632244094488
20
-5.0997038976377951
11
5.0354330708661417
21
-5.106299212598425
0
LINE
8
BLACK
6
CONTINUOUS
10
5.0354330708661417
20
-5.106299212598425
11
5.034632244094488
21
-5.1128945275590549
0
LINE
8
BLACK
6
CONTINUOUS
10
5.034632244094488
20
-5.1128945275590549
11
5.032276338582677
21
-5.1191065354330707
0
LINE
8
BLACK
6
CONTINUOUS
10
5.032276338582677
20
-5.1191065354330707
11
5.028502283464567
21
-5.1245742519685038
0
LINE
8
BLACK
6
CONTINUOUS
10
5.028502283464567
20
-5.1245742519685038
11
5.0235293307086613
21
-5.1289798818897641
0
LINE
8
BLACK
6
CONTINUOUS
10
5.0235293307086613
20
-5.1289798818897641
11
5.0176465748031491
21
-5.1320673622047241
0
LINE
8
BLACK
6
CONTINUOUS
10
5.0176465748031491
20
-5.1320673622047241
11
5.0111959055118112
21
-5.1336573228346456
0
LINE
8
BLACK
6
CONTINUOUS
10
5.0111959055118112
20
-5.1336573228346456
11
5.0045521259842518
21
-5.1336573228346456
0
LINE
8
BLACK
6
CONTINUOUS
10
5.0045521259842518
20
-5.1336573228346456
11
4.9981014566929129
21
-5.1320673622047241
0
LINE
8
BLACK
6
CONTINUOUS
10
4.9981014566929129
20
-5.1320673622047241
11
4.9922187007874017
21
-5.1289798818897641
0
LINE
8
BLACK
6
CONTINUOUS
10
4.9922187007874017
20
-5.1289798818897641
11
4.987245748031496
21
-5.1245742519685038
0
LINE
8
BLACK
6
CONTINUOUS
10
4.987245748031496
20
-5.1245742519685038
11
4.983471692913386
21
-5.1191065354330707
0
LINE
8
BLACK
6
CONTINUOUS
10
4.983471692913386
20
-5.1191065354330707
11
4.981115787401575
21
-5.1128945275590549
0
LINE
8
BLACK
6
CONTINUOUS
10
4.981115787401575
20
-5.1128945275590549
11
4.9803149606299213
21
-5.106299212598425
0
LINE
8
BLACK
6
CONTINUOUS
10
4.9803149606299213
20
-5.106299212598425
11
4.981115787401575
21
-5.0997038976377951
0
LINE
8
BLACK
6
CONTINUOUS
10
4.981115787401575
20
-5.0997038976377951
11
4.983471692913386
21
-5.0934918897637793
0
LINE
8
BLACK
6
CONTINUOUS
10
4.983471692913386
20
-5.0934918897637793
11
4.987245748031496
21
-5.0880241732283462
0
LINE
8
BLACK
6
CONTINUOUS
10
4.987245748031496
20
-5.0880241732283462
11
4.9922187007874017
21
-5.0836185433070868
0
LINE
8
BLACK
6
CONTINUOUS
10
4.9922187007874017
20
-5.0836185433070868
11
4.9981014566929129
21
-5.0805310629921259
0
LINE
8
BLACK
6
CONTINUOUS
10
4.9981014566929129
20
-5.0805310629921259
11
5.0045521259842518
21
-5.0789411023622044
0
LINE
8
BLACK
6
CONTINUOUS
10
5.0045521259842518
20
-5.0789411023622044
11
5.0111959055118112
21
-5.0789411023622044
0
LINE
8
BLACK
6
CONTINUOUS
10
5.0111959055118112
20
-5.0789411023622044
11
5.0176465748031491
21
-5.0805310629921259
0
LINE
8
BLACK
6
CONTINUOUS
10
5.9251968503937009
20
-4.4724409448818898
11
5.8070866141732278
21
-4.4724409448818898
0
LINE
8
BLACK
6
CONTINUOUS
10
5.8070866141732278
20
-4.4724409448818898
11
5.8070866141732278
21
-4.3543307086614176
0
LINE
8
BLACK
6
CONTINUOUS
10
5.8070866141732278
20
-4.3543307086614176
11
5.9251968503937009
21
-4.3543307086614176
0
LINE
8
BLACK
6
CONTINUOUS
10
5.9251968503937009
20
-4.3543307086614176
11
5.9251968503937009
21
-4.4724409448818898
0
LINE
8
BLACK
6
CONTINUOUS
10
5.6050483464566927
20
-4.3561377952755906
11
5.6142733464566925
21
-4.3593047244094487
0
LINE
8
BLACK
6
CONTINUOUS
10
5.6142733464566925
20
-4.3593047244094487
11
5.6228512598425198
21
-4.3639468503937007
0
LINE
8
BLACK
6
CONTINUOUS
10
5.6228512598425198
20
-4.3639468503937007
11
5.6305481102362203
21
-4.3699375590551179
0
LINE
8
BLACK
6
CONTINUOUS
10
5.6305481102362203
20
-4.3699375590551179
11
5.6371539763779523
21
-4.3771134251968506
0
LINE
8
BLACK
6
CONTINUOUS
10
5.6371539763779523
20
-4.3771134251968506
11
5.6424886220472441
21
-4.3852787007874019
0
LINE
8
BLACK
6
CONTINUOUS
10
5.6424886220472441
20
-4.3852787007874019
11
5.646406535433071
21
-4.3942106692913381
0
LINE
8
BLACK
6
CONTINUOUS
10
5.646406535433071
20
-4.3942106692913381
11
5.6488008661417322
21
-4.4036656692913381
0
LINE
8
BLACK
6
CONTINUOUS
10
5.6488008661417322
20
-4.4036656692913381
11
5.6496062992125982
21
-4.4133858267716537
0
LINE
8
BLACK
6
CONTINUOUS
10
5.6496062992125982
20
-4.4133858267716537
11
5.6488008661417322
21
-4.4231059842519684
0
LINE
8
BLACK
6
CONTINUOUS
10
5.6488008661417322
20
-4.4231059842519684
11
5.646406535433071
21
-4.4325609842519684
0
LINE
8
BLACK
6
CONTINUOUS
10
5.646406535433071
20
-4.4325609842519684
11
5.6424886220472441
21
-4.4414929527559055
0
LINE
8
BLACK
6
CONTINUOUS
10
5.6424886220472441
20
-4.4414929527559055
11
5.6371539763779523
21
-4.4496582283464567
0
LINE
8
BLACK
6
CONTINUOUS
10
5.6371539763779523
20
-4.4496582283464567
11
5.6305481102362203
21
-4.4568340944881886
0
LINE
8
BLACK
6
CONTINUOUS
10
5.6305481102362203
20
-4.4568340944881886
11
5.6228512598425198
21
-4.4628248031496058
0
LINE
8
BLACK
6
CONTINUOUS
10
5.6228512598425198
20
-4.4628248031496058
11
5.6142733464566925
21
-4.4674669291338578
0
LINE
8
BLACK
6
CONTINUOUS
10
5.6142733464566925
20
-4.4674669291338578
11
5.6050483464566927
21
-4.4706338582677168
0
LINE
8
BLACK
6
CONTINUOUS
10
5.6050483464566927
20
-4.4706338582677168
11
5.5954279133858265
21
-4.4722392519685039
0
LINE
8
BLACK
6
CONTINUOUS
10
5.5954279133858265
20
-4.4722392519685039
11
5.5856744488188976
21
-4.4722392519685039
0
LINE
8
BLACK
6
CONTINUOUS
10
5.5856744488188976
20
-4.4722392519685039
11
5.5760540157480314
21
-4.4706338582677168
0
LINE
8
BLACK
6
CONTINUOUS
10
5.5760540157480314
20
-4.4706338582677168
11
5.5668290157480316
21
-4.4674669291338578
0
LINE
8
BLACK
6
CONTINUOUS
10
5.5668290157480316
20
-4.4674669291338578
11
5.5582511023622043
21
-4.4628248031496058
0
LINE
8
BLACK
6
CONTINUOUS
10
5.5582511023622043
20
-4.4628248031496058
11
5.5505542519685038
21
-4.4568340944881886
0
LINE
8
BLACK
6
CONTINUOUS
10
5.5505542519685038
20
-4.4568340944881886
11
5.5439483858267717
21
-4.4496582283464567
0
LINE
8
BLACK
6
CONTINUOUS
10
5.5439483858267717
20
-4.4496582283464567
11
5.53861374015748
21
-4.4414929527559055
0
LINE
8
BLACK
6
CONTINUOUS
10
5.53861374015748
20
-4.4414929527559055
11
5.5346958267716531
21
-4.4325609842519684
0
LINE
8
BLACK
6
CONTINUOUS
10
5.5346958267716531
20
-4.4325609842519684
11
5.5323014960629919
21
-4.4231059842519684
0
LINE
8
BLACK
6
CONTINUOUS
10
5.5323014960629919
20
-4.4231059842519684
11
5.5314960629921259
21
-4.4133858267716537
0
LINE
8
BLACK
6
CONTINUOUS
10
5.5314960629921259
20
-4.4133858267716537
11
5.5323014960629919
21
-4.4036656692913381
0
LINE
8
BLACK
6
CONTINUOUS
10
5.5323014960629919
20
-4.4036656692913381
11
5.5346958267716531
21
-4.3942106692913381
0
LINE
8
BLACK
6
CONTINUOUS
10
5.5346958267716531
20
-4.3942106692913381
11
5.53861374015748
21
-4.3852787007874019
0
LINE
8
BLACK
6
CONTINUOUS
10
5.53861374015748
20
-4.3852787007874019
11
5.5439483858267717
21
-4.3771134251968506
0
LINE
8
BLACK
6
CONTINUOUS
10
5.5439483858267717
20
-4.3771134251968506
11
5.5505542519685038
21
-4.3699375590551179
0
LINE
8
BLACK
6
CONTINUOUS
10
5.5505542519685038
20
-4.3699375590551179
11
5.5582511023622043
21
-4.3639468503937007
0
LINE
8
BLACK
6
CONTINUOUS
10
5.5582511023622043
20
-4.3639468503937007
11
5.5668290157480316
21
-4.3593047244094487
0
LINE
8
BLACK
6
CONTINUOUS
10
5.5668290157480316
20
-4.3593047244094487
11
5.5760540157480314
21
-4.3561377952755906
0
LINE
8
BLACK
6
CONTINUOUS
10
5.5760540157480314
20
-4.3561377952755906
11
5.5856744488188976
21
-4.3545324015748035
0
LINE
8
BLACK
6
CONTINUOUS
10
5.5856744488188976
20
-4.3545324015748035
11
5.5954279133858265
21
-4.3545324015748035
0
LINE
8
BLACK
6
CONTINUOUS
10
5.5954279133858265
20
-4.3545324015748035
11
5.6050483464566927
21
-4.3561377952755906
0
LINE
8
BLACK
6
CONTINUOUS
10
5.7428436220472436
20
-4.3561377952755906
11
5.7520686220472443
21
-4.3593047244094487
0
LINE
8
BLACK
6
CONTINUOUS
10
5.7520686220472443
20
-4.3593047244094487
11
5.7606465354330707
21
-4.3639468503937007
0
LINE
8
BLACK
6
CONTINUOUS
10
5.7606465354330707
20
-4.3639468503937007
11
5.7683433858267712
21
-4.3699375590551179
0
LINE
8
BLACK
6
CONTINUOUS
10
5.7683433858267712
20
-4.3699375590551179
11
5.7749492519685042
21
-4.3771134251968506
0
LINE
8
BLACK
6
CONTINUOUS
10
5.7749492519685042
20
-4.3771134251968506
11
5.780283897637795
21
-4.3852787007874019
0
LINE
8
BLACK
6
CONTINUOUS
10
5.780283897637795
20
-4.3852787007874019
11
5.784201811023622
21
-4.3942106692913381
0
LINE
8
BLACK
6
CONTINUOUS
10
5.784201811023622
20
-4.3942106692913381
11
5.7865961417322831
21
-4.4036656692913381
0
LINE
8
BLACK
6
CONTINUOUS
10
5.7865961417322831
20
-4.4036656692913381
11
5.7874015748031491
21
-4.4133858267716537
0
LINE
8
BLACK
6
CONTINUOUS
10
5.7874015748031491
20
-4.4133858267716537
11
5.7865961417322831
21
-4.4231059842519684
0
LINE
8
BLACK
6
CONTINUOUS
10
5.7865961417322831
20
-4.4231059842519684
11
5.784201811023622
21
-4.4325609842519684
0
LINE
8
BLACK
6
CONTINUOUS
10
5.784201811023622
20
-4.4325609842519684
11
5.780283897637795
21
-4.4414929527559055
0
LINE
8
BLACK
6
CONTINUOUS
10
5.780283897637795
20
-4.4414929527559055
11
5.7749492519685042
21
-4.4496582283464567
0
LINE
8
BLACK
6
CONTINUOUS
10
5.7749492519685042
20
-4.4496582283464567
11
5.7683433858267712
21
-4.4568340944881886
0
LINE
8
BLACK
6
CONTINUOUS
10
5.7683433858267712
20
-4.4568340944881886
11
5.7606465354330707
21
-4.4628248031496058
0
LINE
8
BLACK
6
CONTINUOUS
10
5.7606465354330707
20
-4.4628248031496058
11
5.7520686220472443
21
-4.4674669291338578
0
LINE
8
BLACK
6
CONTINUOUS
10
5.7520686220472443
20
-4.4674669291338578
11
5.7428436220472436
21
-4.4706338582677168
0
LINE
8
BLACK
6
CONTINUOUS
10
5.7428436220472436
20
-4.4706338582677168
11
5.7332231889763774
21
-4.4722392519685039
0
LINE
8
BLACK
6
CONTINUOUS
10
5.7332231889763774
20
-4.4722392519685039
11
5.7234697244094486
21
-4.4722392519685039
0
LINE
8
BLACK
6
CONTINUOUS
10
5.7234697244094486
20
-4.4722392519685039
11
5.7138492913385823
21
-4.4706338582677168
0
LINE
8
BLACK
6
CONTINUOUS
10
5.7138492913385823
20
-4.4706338582677168
11
5.7046242913385825
21
-4.4674669291338578
0
LINE
8
BLACK
6
CONTINUOUS
10
5.7046242913385825
20
-4.4674669291338578
11
5.6960463779527561
21
-4.4628248031496058
0
LINE
8
BLACK
6
CONTINUOUS
10
5.6960463779527561
20
-4.4628248031496058
11
5.6883495275590548
21
-4.4568340944881886
0
LINE
8
BLACK
6
CONTINUOUS
10
5.6883495275590548
20
-4.4568340944881886
11
5.6817436614173227
21
-4.4496582283464567
0
LINE
8
BLACK
6
CONTINUOUS
10
5.6817436614173227
20
-4.4496582283464567
11
5.6764090157480318
21
-4.4414929527559055
0
LINE
8
BLACK
6
CONTINUOUS
10
5.6764090157480318
20
-4.4414929527559055
11
5.6724911023622049
21
-4.4325609842519684
0
LINE
8
BLACK
6
CONTINUOUS
10
5.6724911023622049
20
-4.4325609842519684
11
5.6700967716535429
21
-4.4231059842519684
0
LINE
8
BLACK
6
CONTINUOUS
10
5.6700967716535429
20
-4.4231059842519684
11
5.6692913385826769
21
-4.4133858267716537
0
LINE
8
BLACK
6
CONTINUOUS
10
5.6692913385826769
20
-4.4133858267716537
11
5.6700967716535429
21
-4.4036656692913381
0
LINE
8
BLACK
6
CONTINUOUS
10
5.6700967716535429
20
-4.4036656692913381
11
5.6724911023622049
21
-4.3942106692913381
0
LINE
8
BLACK
6
CONTINUOUS
10
5.6724911023622049
20
-4.3942106692913381
11
5.6764090157480318
21
-4.3852787007874019
0
LINE
8
BLACK
6
CONTINUOUS
10
5.6764090157480318
20
-4.3852787007874019
11
5.6817436614173227
21
-4.3771134251968506
0
LINE
8
BLACK
6
CONTINUOUS
10
5.6817436614173227
20
-4.3771134251968506
11
5.6883495275590548
21
-4.3699375590551179
0
LINE
8
BLACK
6
CONTINUOUS
10
5.6883495275590548
20
-4.3699375590551179
11
5.6960463779527561
21
-4.3639468503937007
0
LINE
8
BLACK
6
CONTINUOUS
10
5.6960463779527561
20
-4.3639468503937007
11
5.7046242913385825
21
-4.3593047244094487
0
LINE
8
BLACK
6
CONTINUOUS
10
5.7046242913385825
20
-4.3593047244094487
11
5.7138492913385823
21
-4.3561377952755906
0
LINE
8
BLACK
6
CONTINUOUS
10
5.7138492913385823
20
-4.3561377952755906
11
5.7234697244094486
21
-4.3545324015748035
0
LINE
8
BLACK
6
CONTINUOUS
10
5.7234697244094486
20
-4.3545324015748035
11
5.7332231889763774
21
-4.3545324015748035
0
LINE
8
BLACK
6
CONTINUOUS
10
5.7332231889763774
20
-4.3545324015748035
11
5.7428436220472436
21
-4.3561377952755906
0
LINE
8
BLACK
6
CONTINUOUS
10
5.4822135039370075
20
-4.1907672834645666
11
5.4880962598425196
21
-4.1938547637795276
0
LINE
8
BLACK
6
CONTINUOUS
10
5.4880962598425196
20
-4.1938547637795276
11
5.4930692125984253
21
-4.198260393700787
0
LINE
8
BLACK
6
CONTINUOUS
10
5.4930692125984253
20
-4.198260393700787
11
5.4968432677165353
21
-4.2037281102362201
0
LINE
8
BLACK
6
CONTINUOUS
10
5.4968432677165353
20
-4.2037281102362201
11
5.4991991732283463
21
-4.2099401181102358
0
LINE
8
BLACK
6
CONTINUOUS
10
5.4991991732283463
20
-4.2099401181102358
11
5.5
21
-4.2165354330708658
0
LINE
8
BLACK
6
CONTINUOUS
10
5.5
20
-4.2165354330708658
11
5.4991991732283463
21
-4.2231307480314957
0
LINE
8
BLACK
6
CONTINUOUS
10
5.4991991732283463
20
-4.2231307480314957
11
5.4968432677165353
21
-4.2293427559055115
0
LINE
8
BLACK
6
CONTINUOUS
10
5.4968432677165353
20
-4.2293427559055115
11
5.4930692125984253
21
-4.2348104724409446
0
LINE
8
BLACK
6
CONTINUOUS
10
5.4930692125984253
20
-4.2348104724409446
11
5.4880962598425196
21
-4.2392161023622048
0
LINE
8
BLACK
6
CONTINUOUS
10
5.4880962598425196
20
-4.2392161023622048
11
5.4822135039370075
21
-4.2423035826771649
0
LINE
8
BLACK
6
CONTINUOUS
10
5.4822135039370075
20
-4.2423035826771649
11
5.4757628346456695
21
-4.2438935433070863
0
LINE
8
BLACK
6
CONTINUOUS
10
5.4757628346456695
20
-4.2438935433070863
11
5.4691190551181101
21
-4.2438935433070863
0
LINE
8
BLACK
6
CONTINUOUS
10
5.4691190551181101
20
-4.2438935433070863
11
5.4626683858267713
21
-4.2423035826771649
0
LINE
8
BLACK
6
CONTINUOUS
10
5.4626683858267713
20
-4.2423035826771649
11
5.45678562992126
21
-4.2392161023622048
0
LINE
8
BLACK
6
CONTINUOUS
10
5.45678562992126
20
-4.2392161023622048
11
5.4518126771653543
21
-4.2348104724409446
0
LINE
8
BLACK
6
CONTINUOUS
10
5.4518126771653543
20
-4.2348104724409446
11
5.4480386220472443
21
-4.2293427559055115
0
LINE
8
BLACK
6
CONTINUOUS
10
5.4480386220472443
20
-4.2293427559055115
11
5.4456827165354333
21
-4.2231307480314957
0
LINE
8
BLACK
6
CONTINUOUS
10
5.4456827165354333
20
-4.2231307480314957
11
5.4448818897637796
21
-4.2165354330708658
0
LINE
8
BLACK
6
CONTINUOUS
10
5.4448818897637796
20
-4.2165354330708658
11
5.4456827165354333
21
-4.2099401181102358
0
LINE
8
BLACK
6
CONTINUOUS
10
5.4456827165354333
20
-4.2099401181102358
11
5.4480386220472443
21
-4.2037281102362201
0
LINE
8
BLACK
6
CONTINUOUS
10
5.4480386220472443
20
-4.2037281102362201
11
5.4518126771653543
21
-4.198260393700787
0
LINE
8
BLACK
6
CONTINUOUS
10
5.4518126771653543
20
-4.198260393700787
11
5.45678562992126
21
-4.1938547637795276
0
LINE
8
BLACK
6
CONTINUOUS
10
5.45678562992126
20
-4.1938547637795276
11
5.4626683858267713
21
-4.1907672834645666
0
LINE
8
BLACK
6
CONTINUOUS
10
5.4626683858267713
20
-4.1907672834645666
11
5.4691190551181101
21
-4.1891773228346452
0
LINE
8
BLACK
6
CONTINUOUS
10
5.4691190551181101
20
-4.1891773228346452
11
5.4757628346456695
21
-4.1891773228346452
0
LINE
8
BLACK
6
CONTINUOUS
10
5.4757628346456695
20
-4.1891773228346452
11
5.4822135039370075
21
-4.1907672834645666
0
LINE
8
BLACK
6
CONTINUOUS
10
5.9940245275590547
20
-4.1907672834645666
11
5.9999072834645668
21
-4.1938547637795276
0
LINE
8
BLACK
6
CONTINUOUS
10
5.9999072834645668
20
-4.1938547637795276
11
6.0048802362204725
21
-4.198260393700787
0
LINE
8
BLACK
6
CONTINUOUS
10
6.0048802362204725
20
-4.198260393700787
11
6.0086542913385825
21
-4.2037281102362201
0
LINE
8
BLACK
6
CONTINUOUS
10
6.0086542913385825
20
-4.2037281102362201
11
6.0110101968503935
21
-4.2099401181102358
0
LINE
8
BLACK
6
CONTINUOUS
10
6.0110101968503935
20
-4.2099401181102358
11
6.0118110236220472
21
-4.2165354330708658
0
LINE
8
BLACK
6
CONTINUOUS
10
6.0118110236220472
20
-4.2165354330708658
11
6.0110101968503935
21
-4.2231307480314957
0
LINE
8
BLACK
6
CONTINUOUS
10
6.0110101968503935
20
-4.2231307480314957
11
6.0086542913385825
21
-4.2293427559055115
0
LINE
8
BLACK
6
CONTINUOUS
10
6.0086542913385825
20
-4.2293427559055115
11
6.0048802362204725
21
-4.2348104724409446
0
LINE
8
BLACK
6
CONTINUOUS
10
6.0048802362204725
20
-4.2348104724409446
11
5.9999072834645668
21
-4.2392161023622048
0
LINE
8
BLACK
6
CONTINUOUS
10
5.9999072834645668
20
-4.2392161023622048
11
5.9940245275590547
21
-4.2423035826771649
0
LINE
8
BLACK
6
CONTINUOUS
10
5.9940245275590547
20
-4.2423035826771649
11
5.9875738582677167
21
-4.2438935433070863
0
LINE
8
BLACK
6
CONTINUOUS
10
5.9875738582677167
20
-4.2438935433070863
11
5.9809300787401574
21
-4.2438935433070863
0
LINE
8
BLACK
6
CONTINUOUS
10
5.9809300787401574
20
-4.2438935433070863
11
5.9744794094488185
21
-4.2423035826771649
0
LINE
8
BLACK
6
CONTINUOUS
10
5.9744794094488185
20
-4.2423035826771649
11
5.9685966535433073
21
-4.2392161023622048
0
LINE
8
BLACK
6
CONTINUOUS
10
5.9685966535433073
20
-4.2392161023622048
11
5.9636237007874016
21
-4.2348104724409446
0
LINE
8
BLACK
6
CONTINUOUS
10
5.9636237007874016
20
-4.2348104724409446
11
5.9598496456692915
21
-4.2293427559055115
0
LINE
8
BLACK
6
CONTINUOUS
10
5.9598496456692915
20
-4.2293427559055115
11
5.9574937401574806
21
-4.2231307480314957
0
LINE
8
BLACK
6
CONTINUOUS
10
5.9574937401574806
20
-4.2231307480314957
11
5.9566929133858268
21
-4.2165354330708658
0
LINE
8
BLACK
6
CONTINUOUS
10
5.9566929133858268
20
-4.2165354330708658
11
5.9574937401574806
21
-4.2099401181102358
0
LINE
8
BLACK
6
CONTINUOUS
10
5.9574937401574806
20
-4.2099401181102358
11
5.9598496456692915
21
-4.2037281102362201
0
LINE
8
BLACK
6
CONTINUOUS
10
5.9598496456692915
20
-4.2037281102362201
11
5.9636237007874016
21
-4.198260393700787
0
LINE
8
BLACK
6
CONTINUOUS
10
5.9636237007874016
20
-4.198260393700787
11
5.9685966535433073
21
-4.1938547637795276
0
LINE
8
BLACK
6
CONTINUOUS
10
5.9685966535433073
20
-4.1938547637795276
11
5.9744794094488185
21
-4.1907672834645666
0
LINE
8
BLACK
6
CONTINUOUS
10
5.9744794094488185
20
-4.1907672834645666
11
5.9809300787401574
21
-4.1891773228346452
0
LINE
8
BLACK
6
CONTINUOUS
10
5.9809300787401574
20
-4.1891773228346452
11
5.9875738582677167
21
-4.1891773228346452
0
LINE
8
BLACK
6
CONTINUOUS
10
5.9875738582677167
20
-4.1891773228346452
11
5.9940245275590547
21
-4.1907672834645666
  0
ENDSEC
  0
EOF
