  0
SECTION
  2
HEADER
  9
$ANGBASE
  50
0.0
  9
$ANGDIR
  70
1
  9
$MEASUREMENT
  70
0
  0
ENDSEC
  0
SECTION
  2
TABLES
  0
TABLE
  2
LTYPE
  70
4
  0
LTYPE
  5
40F
  2
CONTINUOUS
  70
0
  3
Solid line
  72
65
  73
0
  40
0.0
  0
LTYPE
  5
410
  2
DASHDOT
 70
0
  3
Dash Dot ____ _ ____ _
 72
65
 73
4
 40
2.0
 49
1.25
 49
-0.25
 49
0.25
 49
-0.25
  0
LTYPE
  5
411
  2
DASHED
 70
0
  3
Dashed __ __ __ __ __
 72
65
 73
2
 40
0.75
 49
0.5
 49
-0.25
  0
LTYPE
  5
43B
  2
DOTTED
 70
0
  3
Dotted .  .  .  .
 72
65
 73
2
 40
0.2
 49
0.0
 49
-0.2
  0
ENDTAB
  0
TABLE
  2
STYLE
  70
4
  0
STYLE
  2
KICAD
  70
0
  40
0
  41
1
  42
1
  50
0
  71
0
  3
isocp.shx
  0
STYLE
  2
KICADB
  70
0
  40
0
  41
1
  42
1
  50
0
  71
0
  3
isocp.shx
  0
STYLE
  2
KICADI
  70
0
  40
0
  41
1
  42
1
  50
15
  71
0
  3
isocp.shx
  0
STYLE
  2
KICADBI
  70
0
  40
0
  41
1
  42
1
  50
15
  71
0
  3
isocp.shx
  0
ENDTAB
  0
TABLE
  2
LAYER
  70
1
  0
LAYER
  2
BLACK
  70
0
  62
7
  6
CONTINUOUS
  0
ENDTAB
  0
ENDSEC
  0
SECTION
  2
ENTITIES
0
LINE
8
BLACK
6
CONTINUOUS
10
3.9310324015748033
20
-3.2695074409448819
11
3.936915157480315
21
-3.2725949212598424
0
LINE
8
BLACK
6
CONTINUOUS
10
3.936915157480315
20
-3.2725949212598424
11
3.9418881102362202
21
-3.2770005511811022
0
LINE
8
BLACK
6
CONTINUOUS
10
3.9418881102362202
20
-3.2770005511811022
11
3.9456621653543307
21
-3.2824682677165353
0
LINE
8
BLACK
6
CONTINUOUS
10
3.9456621653543307
20
-3.2824682677165353
11
3.9480180708661416
21
-3.2886802755905511
0
LINE
8
BLACK
6
CONTINUOUS
10
3.9480180708661416
20
-3.2886802755905511
11
3.9488188976377954
21
-3.295275590551181
0
LINE
8
BLACK
6
CONTINUOUS
10
3.9488188976377954
20
-3.295275590551181
11
3.9480180708661416
21
-3.3018709055118109
0
LINE
8
BLACK
6
CONTINUOUS
10
3.9480180708661416
20
-3.3018709055118109
11
3.9456621653543307
21
-3.3080829133858267
0
LINE
8
BLACK
6
CONTINUOUS
10
3.9456621653543307
20
-3.3080829133858267
11
3.9418881102362202
21
-3.3135506299212598
0
LINE
8
BLACK
6
CONTINUOUS
10
3.9418881102362202
20
-3.3135506299212598
11
3.936915157480315
21
-3.3179562598425196
0
LINE
8
BLACK
6
CONTINUOUS
10
3.936915157480315
20
-3.3179562598425196
11
3.9310324015748033
21
-3.3210437401574802
0
LINE
8
BLACK
6
CONTINUOUS
10
3.9310324015748033
20
-3.3210437401574802
11
3.9245817322834644
21
-3.3226337007874016
0
LINE
8
BLACK
6
CONTINUOUS
10
3.9245817322834644
20
-3.3226337007874016
11
3.9179379527559055
21
-3.3226337007874016
0
LINE
8
BLACK
6
CONTINUOUS
10
3.9179379527559055
20
-3.3226337007874016
11
3.9114872834645666
21
-3.3210437401574802
0
LINE
8
BLACK
6
CONTINUOUS
10
3.9114872834645666
20
-3.3210437401574802
11
3.905604527559055
21
-3.3179562598425196
0
LINE
8
BLACK
6
CONTINUOUS
10
3.905604527559055
20
-3.3179562598425196
11
3.9006315748031497
21
-3.3135506299212598
0
LINE
8
BLACK
6
CONTINUOUS
10
3.9006315748031497
20
-3.3135506299212598
11
3.8968575196850392
21
-3.3080829133858267
0
LINE
8
BLACK
6
CONTINUOUS
10
3.8968575196850392
20
-3.3080829133858267
11
3.8945016141732283
21
-3.3018709055118109
0
LINE
8
BLACK
6
CONTINUOUS
10
3.8945016141732283
20
-3.3018709055118109
11
3.8937007874015745
21
-3.295275590551181
0
LINE
8
BLACK
6
CONTINUOUS
10
3.8937007874015745
20
-3.295275590551181
11
3.8945016141732283
21
-3.2886802755905511
0
LINE
8
BLACK
6
CONTINUOUS
10
3.8945016141732283
20
-3.2886802755905511
11
3.8968575196850392
21
-3.2824682677165353
0
LINE
8
BLACK
6
CONTINUOUS
10
3.8968575196850392
20
-3.2824682677165353
11
3.9006315748031497
21
-3.2770005511811022
0
LINE
8
BLACK
6
CONTINUOUS
10
3.9006315748031497
20
-3.2770005511811022
11
3.905604527559055
21
-3.2725949212598424
0
LINE
8
BLACK
6
CONTINUOUS
10
3.905604527559055
20
-3.2725949212598424
11
3.9114872834645666
21
-3.2695074409448819
0
LINE
8
BLACK
6
CONTINUOUS
10
3.9114872834645666
20
-3.2695074409448819
11
3.9179379527559055
21
-3.2679174803149604
0
LINE
8
BLACK
6
CONTINUOUS
10
3.9179379527559055
20
-3.2679174803149604
11
3.9245817322834644
21
-3.2679174803149604
0
LINE
8
BLACK
6
CONTINUOUS
10
3.9245817322834644
20
-3.2679174803149604
11
3.9310324015748033
21
-3.2695074409448819
0
LINE
8
BLACK
6
CONTINUOUS
10
4.3302918110236224
20
-3.1099951181102363
11
4.3401317716535432
21
-3.1130303543307085
0
LINE
8
BLACK
6
CONTINUOUS
10
4.3401317716535432
20
-3.1130303543307085
11
4.3494094488188972
21
-3.1174982677165355
0
LINE
8
BLACK
6
CONTINUOUS
10
4.3494094488188972
20
-3.1174982677165355
11
4.357917598425197
21
-3.1232990157480316
0
LINE
8
BLACK
6
CONTINUOUS
10
4.357917598425197
20
-3.1232990157480316
11
4.3654661811023621
21
-3.1303030708661415
0
LINE
8
BLACK
6
CONTINUOUS
10
4.3654661811023621
20
-3.1303030708661415
11
4.3718865354330712
21
-3.1383539370078739
0
LINE
8
BLACK
6
CONTINUOUS
10
4.3718865354330712
20
-3.1383539370078739
11
4.3770352755905515
21
-3.1472717716535432
0
LINE
8
BLACK
6
CONTINUOUS
10
4.3770352755905515
20
-3.1472717716535432
11
4.3807973228346455
21
-3.1568574015748032
0
LINE
8
BLACK
6
CONTINUOUS
10
4.3807973228346455
20
-3.1568574015748032
11
4.3830887401574801
21
-3.1668966929133857
0
LINE
8
BLACK
6
CONTINUOUS
10
4.3830887401574801
20
-3.1668966929133857
11
4.3838582677165352
21
-3.1771653543307088
0
LINE
8
BLACK
6
CONTINUOUS
10
4.3838582677165352
20
-3.1771653543307088
11
4.3830887401574801
21
-3.1874340157480314
0
LINE
8
BLACK
6
CONTINUOUS
10
4.3830887401574801
20
-3.1874340157480314
11
4.3807973228346455
21
-3.1974733070866139
0
LINE
8
BLACK
6
CONTINUOUS
10
4.3807973228346455
20
-3.1974733070866139
11
4.3770352755905515
21
-3.2070589370078739
0
LINE
8
BLACK
6
CONTINUOUS
10
4.3770352755905515
20
-3.2070589370078739
11
4.3718865354330712
21
-3.2159767716535432
0
LINE
8
BLACK
6
CONTINUOUS
10
4.3718865354330712
20
-3.2159767716535432
11
4.3654661811023621
21
-3.2240276377952757
0
LINE
8
BLACK
6
CONTINUOUS
10
4.3654661811023621
20
-3.2240276377952757
11
4.357917598425197
21
-3.2310316929133855
0
LINE
8
BLACK
6
CONTINUOUS
10
4.357917598425197
20
-3.2310316929133855
11
4.3494094488188972
21
-3.2368324409448817
0
LINE
8
BLACK
6
CONTINUOUS
10
4.3494094488188972
20
-3.2368324409448817
11
4.3401317716535432
21
-3.2413003543307086
0
LINE
8
BLACK
6
CONTINUOUS
10
4.3401317716535432
20
-3.2413003543307086
11
4.3302918110236224
21
-3.2443355905511808
0
LINE
8
BLACK
6
CONTINUOUS
10
4.3302918110236224
20
-3.2443355905511808
11
4.3201093700787396
21
-3.2458703543307088
0
LINE
8
BLACK
6
CONTINUOUS
10
4.3201093700787396
20
-3.2458703543307088
11
4.3098118897637798
21
-3.2458703543307088
0
LINE
8
BLACK
6
CONTINUOUS
10
4.3098118897637798
20
-3.2458703543307088
11
4.299629448818898
21
-3.2443355905511808
0
LINE
8
BLACK
6
CONTINUOUS
10
4.299629448818898
20
-3.2443355905511808
11
4.2897894881889762
21
-3.2413003543307086
0
LINE
8
BLACK
6
CONTINUOUS
10
4.2897894881889762
20
-3.2413003543307086
11
4.2805118110236222
21
-3.2368324409448817
0
LINE
8
BLACK
6
CONTINUOUS
10
4.2805118110236222
20
-3.2368324409448817
11
4.2720036614173225
21
-3.2310316929133855
0
LINE
8
BLACK
6
CONTINUOUS
10
4.2720036614173225
20
-3.2310316929133855
11
4.2644550787401574
21
-3.2240276377952757
0
LINE
8
BLACK
6
CONTINUOUS
10
4.2644550787401574
20
-3.2240276377952757
11
4.2580347244094483
21
-3.2159767716535432
0
LINE
8
BLACK
6
CONTINUOUS
10
4.2580347244094483
20
-3.2159767716535432
11
4.2528859842519688
21
-3.2070589370078739
0
LINE
8
BLACK
6
CONTINUOUS
10
4.2528859842519688
20
-3.2070589370078739
11
4.2491239370078739
21
-3.1974733070866139
0
LINE
8
BLACK
6
CONTINUOUS
10
4.2491239370078739
20
-3.1974733070866139
11
4.2468325196850394
21
-3.1874340157480314
0
LINE
8
BLACK
6
CONTINUOUS
10
4.2468325196850394
20
-3.1874340157480314
11
4.2460629921259843
21
-3.1771653543307088
0
LINE
8
BLACK
6
CONTINUOUS
10
4.2460629921259843
20
-3.1771653543307088
11
4.2468325196850394
21
-3.1668966929133857
0
LINE
8
BLACK
6
CONTINUOUS
10
4.2468325196850394
20
-3.1668966929133857
11
4.2491239370078739
21
-3.1568574015748032
0
LINE
8
BLACK
6
CONTINUOUS
10
4.2491239370078739
20
-3.1568574015748032
11
4.2528859842519688
21
-3.1472717716535432
0
LINE
8
BLACK
6
CONTINUOUS
10
4.2528859842519688
20
-3.1472717716535432
11
4.2580347244094483
21
-3.1383539370078739
0
LINE
8
BLACK
6
CONTINUOUS
10
4.2580347244094483
20
-3.1383539370078739
11
4.2644550787401574
21
-3.1303030708661415
0
LINE
8
BLACK
6
CONTINUOUS
10
4.2644550787401574
20
-3.1303030708661415
11
4.2720036614173225
21
-3.1232990157480316
0
LINE
8
BLACK
6
CONTINUOUS
10
4.2720036614173225
20
-3.1232990157480316
11
4.2805118110236222
21
-3.1174982677165355
0
LINE
8
BLACK
6
CONTINUOUS
10
4.2805118110236222
20
-3.1174982677165355
11
4.2897894881889762
21
-3.1130303543307085
0
LINE
8
BLACK
6
CONTINUOUS
10
4.2897894881889762
20
-3.1130303543307085
11
4.299629448818898
21
-3.1099951181102363
0
LINE
8
BLACK
6
CONTINUOUS
10
4.299629448818898
20
-3.1099951181102363
11
4.3098118897637798
21
-3.1084603543307088
0
LINE
8
BLACK
6
CONTINUOUS
10
4.3098118897637798
20
-3.1084603543307088
11
4.3201093700787396
21
-3.1084603543307088
0
LINE
8
BLACK
6
CONTINUOUS
10
4.3201093700787396
20
-3.1084603543307088
11
4.3302918110236224
21
-3.1099951181102363
0
LINE
8
BLACK
6
CONTINUOUS
10
4.3838582677165352
20
-3.0492125984251968
11
4.2460629921259843
21
-3.0492125984251968
0
LINE
8
BLACK
6
CONTINUOUS
10
4.2460629921259843
20
-3.0492125984251968
11
4.2460629921259843
21
-2.9114173228346454
0
LINE
8
BLACK
6
CONTINUOUS
10
4.2460629921259843
20
-2.9114173228346454
11
4.3838582677165352
21
-2.9114173228346454
0
LINE
8
BLACK
6
CONTINUOUS
10
4.3838582677165352
20
-2.9114173228346454
11
4.3838582677165352
21
-3.0492125984251968
0
LINE
8
BLACK
6
CONTINUOUS
10
3.9310324015748033
20
-2.8364365748031495
11
3.936915157480315
21
-2.83952405511811
0
LINE
8
BLACK
6
CONTINUOUS
10
3.936915157480315
20
-2.83952405511811
11
3.9418881102362202
21
-2.8439296850393698
0
LINE
8
BLACK
6
CONTINUOUS
10
3.9418881102362202
20
-2.8439296850393698
11
3.9456621653543307
21
-2.8493974015748029
0
LINE
8
BLACK
6
CONTINUOUS
10
3.9456621653543307
20
-2.8493974015748029
11
3.9480180708661416
21
-2.8556094094488187
0
LINE
8
BLACK
6
CONTINUOUS
10
3.9480180708661416
20
-2.8556094094488187
11
3.9488188976377954
21
-2.8622047244094486
0
LINE
8
BLACK
6
CONTINUOUS
10
3.9488188976377954
20
-2.8622047244094486
11
3.9480180708661416
21
-2.8688000393700785
0
LINE
8
BLACK
6
CONTINUOUS
10
3.9480180708661416
20
-2.8688000393700785
11
3.9456621653543307
21
-2.8750120472440943
0
LINE
8
BLACK
6
CONTINUOUS
10
3.9456621653543307
20
-2.8750120472440943
11
3.9418881102362202
21
-2.8804797637795274
0
LINE
8
BLACK
6
CONTINUOUS
10
3.9418881102362202
20
-2.8804797637795274
11
3.936915157480315
21
-2.8848853937007872
0
LINE
8
BLACK
6
CONTINUOUS
10
3.936915157480315
20
-2.8848853937007872
11
3.9310324015748033
21
-2.8879728740157478
0
LINE
8
BLACK
6
CONTINUOUS
10
3.9310324015748033
20
-2.8879728740157478
11
3.9245817322834644
21
-2.8895628346456692
0
LINE
8
BLACK
6
CONTINUOUS
10
3.9245817322834644
20
-2.8895628346456692
11
3.9179379527559055
21
-2.8895628346456692
0
LINE
8
BLACK
6
CONTINUOUS
10
3.9179379527559055
20
-2.8895628346456692
11
3.9114872834645666
21
-2.8879728740157478
0
LINE
8
BLACK
6
CONTINUOUS
10
3.9114872834645666
20
-2.8879728740157478
11
3.905604527559055
21
-2.8848853937007872
0
LINE
8
BLACK
6
CONTINUOUS
10
3.905604527559055
20
-2.8848853937007872
11
3.9006315748031497
21
-2.8804797637795274
0
LINE
8
BLACK
6
CONTINUOUS
10
3.9006315748031497
20
-2.8804797637795274
11
3.8968575196850392
21
-2.8750120472440943
0
LINE
8
BLACK
6
CONTINUOUS
10
3.8968575196850392
20
-2.8750120472440943
11
3.8945016141732283
21
-2.8688000393700785
0
LINE
8
BLACK
6
CONTINUOUS
10
3.8945016141732283
20
-2.8688000393700785
11
3.8937007874015745
21
-2.8622047244094486
0
LINE
8
BLACK
6
CONTINUOUS
10
3.8937007874015745
20
-2.8622047244094486
11
3.8945016141732283
21
-2.8556094094488187
0
LINE
8
BLACK
6
CONTINUOUS
10
3.8945016141732283
20
-2.8556094094488187
11
3.8968575196850392
21
-2.8493974015748029
0
LINE
8
BLACK
6
CONTINUOUS
10
3.8968575196850392
20
-2.8493974015748029
11
3.9006315748031497
21
-2.8439296850393698
0
LINE
8
BLACK
6
CONTINUOUS
10
3.9006315748031497
20
-2.8439296850393698
11
3.905604527559055
21
-2.83952405511811
0
LINE
8
BLACK
6
CONTINUOUS
10
3.905604527559055
20
-2.83952405511811
11
3.9114872834645666
21
-2.8364365748031495
0
LINE
8
BLACK
6
CONTINUOUS
10
3.9114872834645666
20
-2.8364365748031495
11
3.9179379527559055
21
-2.8348466141732285
0
LINE
8
BLACK
6
CONTINUOUS
10
3.9179379527559055
20
-2.8348466141732285
11
3.9245817322834644
21
-2.8348466141732285
0
LINE
8
BLACK
6
CONTINUOUS
10
3.9245817322834644
20
-2.8348466141732285
11
3.9310324015748033
21
-2.8364365748031495
0
CIRCLE
8
BLACK
10
3.9212598425196847
20
-3.295275590551181
40
0.0068897637795276
0
CIRCLE
8
BLACK
10
3.9212598425196847
20
-2.8622047244094486
40
0.0068897637795276
0
CIRCLE
8
BLACK
10
4.3149606299212602
20
-2.9803149606299213
40
0.0068897637795276
0
CIRCLE
8
BLACK
10
4.3149606299212602
20
-3.1771653543307088
40
0.0068897637795276
  0
ENDSEC
  0
EOF
