  0
SECTION
  2
HEADER
  9
$ANGBASE
  50
0.0
  9
$ANGDIR
  70
1
  9
$MEASUREMENT
  70
0
  0
ENDSEC
  0
SECTION
  2
TABLES
  0
TABLE
  2
LTYPE
  70
4
  0
LTYPE
  5
40F
  2
CONTINUOUS
  70
0
  3
Solid line
  72
65
  73
0
  40
0.0
  0
LTYPE
  5
410
  2
DASHDOT
 70
0
  3
Dash Dot ____ _ ____ _
 72
65
 73
4
 40
2.0
 49
1.25
 49
-0.25
 49
0.25
 49
-0.25
  0
LTYPE
  5
411
  2
DASHED
 70
0
  3
Dashed __ __ __ __ __
 72
65
 73
2
 40
0.75
 49
0.5
 49
-0.25
  0
LTYPE
  5
43B
  2
DOTTED
 70
0
  3
Dotted .  .  .  .
 72
65
 73
2
 40
0.2
 49
0.0
 49
-0.2
  0
ENDTAB
  0
TABLE
  2
STYLE
  70
4
  0
STYLE
  2
KICAD
  70
0
  40
0
  41
1
  42
1
  50
0
  71
0
  3
isocp.shx
  0
STYLE
  2
KICADB
  70
0
  40
0
  41
1
  42
1
  50
0
  71
0
  3
isocp.shx
  0
STYLE
  2
KICADI
  70
0
  40
0
  41
1
  42
1
  50
15
  71
0
  3
isocp.shx
  0
STYLE
  2
KICADBI
  70
0
  40
0
  41
1
  42
1
  50
15
  71
0
  3
isocp.shx
  0
ENDTAB
  0
TABLE
  2
LAYER
  70
1
  0
LAYER
  2
BLACK
  70
0
  62
7
  6
CONTINUOUS
  0
ENDTAB
  0
ENDSEC
  0
SECTION
  2
ENTITIES
0
LINE
8
BLACK
6
CONTINUOUS
10
5.6723285433070867
20
-5.455541771653543
11
5.6724783858267713
21
-5.4877911417322833
0
LINE
8
BLACK
6
CONTINUOUS
10
5.6724783858267713
20
-5.4877911417322833
11
5.6723285433070867
21
-5.4885444488188977
0
LINE
8
BLACK
6
CONTINUOUS
10
5.6723285433070867
20
-5.4885444488188977
11
5.6712631889763783
21
-5.4896098031496061
0
LINE
8
BLACK
6
CONTINUOUS
10
5.6712631889763783
20
-5.4896098031496061
11
5.6555117716535435
21
-5.4897596456692916
0
LINE
8
BLACK
6
CONTINUOUS
10
5.6555117716535435
20
-5.4897596456692916
11
5.6547584645669291
21
-5.4896098031496061
0
LINE
8
BLACK
6
CONTINUOUS
10
5.6547584645669291
20
-5.4896098031496061
11
5.6536931102362207
21
-5.4885444488188977
0
LINE
8
BLACK
6
CONTINUOUS
10
5.6536931102362207
20
-5.4885444488188977
11
5.6536931102362207
21
-5.487037834645669
0
LINE
8
BLACK
6
CONTINUOUS
10
5.6536931102362207
20
-5.487037834645669
11
5.6547584645669291
21
-5.4859724803149605
0
LINE
8
BLACK
6
CONTINUOUS
10
5.6547584645669291
20
-5.4859724803149605
11
5.6686786220472438
21
-5.4858400393700784
0
LINE
8
BLACK
6
CONTINUOUS
10
5.6686786220472438
20
-5.4858400393700784
11
5.6685413779527556
21
-5.4562950787401574
0
LINE
8
BLACK
6
CONTINUOUS
10
5.6685413779527556
20
-5.4562950787401574
11
5.6686912204724411
21
-5.455541771653543
0
LINE
8
BLACK
6
CONTINUOUS
10
5.6686912204724411
20
-5.455541771653543
11
5.6697565748031495
21
-5.4544764173228346
0
LINE
8
BLACK
6
CONTINUOUS
10
5.6697565748031495
20
-5.4544764173228346
11
5.6712631889763783
21
-5.4544764173228346
0
LINE
8
BLACK
6
CONTINUOUS
10
5.6712631889763783
20
-5.4544764173228346
11
5.6723285433070867
21
-5.455541771653543
0
LINE
8
BLACK
6
CONTINUOUS
10
5.6937603937007877
20
-5.4544764173228346
11
5.6939411417322834
21
-5.4546571653543303
0
LINE
8
BLACK
6
CONTINUOUS
10
5.6939411417322834
20
-5.4546571653543303
11
5.6981290157480311
21
-5.4559274015748027
0
LINE
8
BLACK
6
CONTINUOUS
10
5.6981290157480311
20
-5.4559274015748027
11
5.6982146456692915
21
-5.4559762204724409
0
LINE
8
BLACK
6
CONTINUOUS
10
5.6982146456692915
20
-5.4559762204724409
11
5.6982598425196853
21
-5.4559762204724409
0
LINE
8
BLACK
6
CONTINUOUS
10
5.6982598425196853
20
-5.4559762204724409
11
5.698329094488189
21
-5.4560414566929136
0
LINE
8
BLACK
6
CONTINUOUS
10
5.698329094488189
20
-5.4560414566929136
11
5.6987962992125984
21
-5.4563077559055113
0
LINE
8
BLACK
6
CONTINUOUS
10
5.6987962992125984
20
-5.4563077559055113
11
5.6989603937007871
21
-5.4566359842519683
0
LINE
8
BLACK
6
CONTINUOUS
10
5.6989603937007871
20
-5.4566359842519683
11
5.7018980708661413
21
-5.4594025590551176
0
LINE
8
BLACK
6
CONTINUOUS
10
5.7018980708661413
20
-5.4594025590551176
11
5.7023248031496063
21
-5.4600411811023619
0
LINE
8
BLACK
6
CONTINUOUS
10
5.7023248031496063
20
-5.4600411811023619
11
5.7023248031496063
21
-5.4602752362204727
0
LINE
8
BLACK
6
CONTINUOUS
10
5.7023248031496063
20
-5.4602752362204727
11
5.7037666535433074
21
-5.4629138188976381
0
LINE
8
BLACK
6
CONTINUOUS
10
5.7037666535433074
20
-5.4629138188976381
11
5.7039694881889762
21
-5.4636546062992126
0
LINE
8
BLACK
6
CONTINUOUS
10
5.7039694881889762
20
-5.4636546062992126
11
5.7039145275590553
21
-5.4638194094488188
0
LINE
8
BLACK
6
CONTINUOUS
10
5.7039145275590553
20
-5.4638194094488188
11
5.7054155118110232
21
-5.46931594488189
0
LINE
8
BLACK
6
CONTINUOUS
10
5.7054155118110232
20
-5.46931594488189
11
5.7054528346456692
21
-5.47008311023622
0
LINE
8
BLACK
6
CONTINUOUS
10
5.7054528346456692
20
-5.47008311023622
11
5.7053586614173231
21
-5.4702400393700783
0
LINE
8
BLACK
6
CONTINUOUS
10
5.7053586614173231
20
-5.4702400393700783
11
5.7054742913385823
21
-5.4742928346456692
0
LINE
8
BLACK
6
CONTINUOUS
10
5.7054742913385823
20
-5.4742928346456692
11
5.7053244488188977
21
-5.4750461417322835
0
LINE
8
BLACK
6
CONTINUOUS
10
5.7053244488188977
20
-5.4750461417322835
11
5.7051839370078739
21
-5.4751866141732286
0
LINE
8
BLACK
6
CONTINUOUS
10
5.7051839370078739
20
-5.4751866141732286
11
5.7039156692913382
21
-5.4807695275590547
0
LINE
8
BLACK
6
CONTINUOUS
10
5.7039156692913382
20
-5.4807695275590547
11
5.7035875984251971
21
-5.4814640157480312
0
LINE
8
BLACK
6
CONTINUOUS
10
5.7035875984251971
20
-5.4814640157480312
11
5.7034664566929134
21
-5.4815366929133855
0
LINE
8
BLACK
6
CONTINUOUS
10
5.7034664566929134
20
-5.4815366929133855
11
5.7023248031496063
21
-5.4840446456692913
0
LINE
8
BLACK
6
CONTINUOUS
10
5.7023248031496063
20
-5.4840446456692913
11
5.7023248031496063
21
-5.4840450000000001
0
LINE
8
BLACK
6
CONTINUOUS
10
5.7023248031496063
20
-5.4840450000000001
11
5.7023244881889763
21
-5.4840453149606301
0
LINE
8
BLACK
6
CONTINUOUS
10
5.7023244881889763
20
-5.4840453149606301
11
5.7022668110236223
21
-5.484172047244094
0
LINE
8
BLACK
6
CONTINUOUS
10
5.7022668110236223
20
-5.484172047244094
11
5.701795905511811
21
-5.4847788188976381
0
LINE
8
BLACK
6
CONTINUOUS
10
5.701795905511811
20
-5.4847788188976381
11
5.7015595275590547
21
-5.4848575984251964
0
LINE
8
BLACK
6
CONTINUOUS
10
5.7015595275590547
20
-5.4848575984251964
11
5.6988985039370075
21
-5.4876832677165357
0
LINE
8
BLACK
6
CONTINUOUS
10
5.6988985039370075
20
-5.4876832677165357
11
5.6988164960629923
21
-5.4877380314960629
0
LINE
8
BLACK
6
CONTINUOUS
10
5.6988164960629923
20
-5.4877380314960629
11
5.6987962992125984
21
-5.4877784645669294
0
LINE
8
BLACK
6
CONTINUOUS
10
5.6987962992125984
20
-5.4877784645669294
11
5.6987078740157475
21
-5.4878106299212597
0
LINE
8
BLACK
6
CONTINUOUS
10
5.6987078740157475
20
-5.4878106299212597
11
5.6982598818897641
21
-5.4881099999999998
0
LINE
8
BLACK
6
CONTINUOUS
10
5.6982598818897641
20
-5.4881099999999998
11
5.6978852362204719
21
-5.4881099999999998
0
LINE
8
BLACK
6
CONTINUOUS
10
5.6978852362204719
20
-5.4881099999999998
11
5.6936295669291335
21
-5.4896586220472443
0
LINE
8
BLACK
6
CONTINUOUS
10
5.6936295669291335
20
-5.4896586220472443
11
5.6928675590551183
21
-5.4897546850393697
0
LINE
8
BLACK
6
CONTINUOUS
10
5.6928675590551183
20
-5.4897546850393697
11
5.6926652362204724
21
-5.4896535039370074
0
LINE
8
BLACK
6
CONTINUOUS
10
5.6926652362204724
20
-5.4896535039370074
11
5.6901482677165349
21
-5.4897540157480318
0
LINE
8
BLACK
6
CONTINUOUS
10
5.6901482677165349
20
-5.4897540157480318
11
5.690146968503937
21
-5.4897546850393697
0
LINE
8
BLACK
6
CONTINUOUS
10
5.690146968503937
20
-5.4897546850393697
11
5.6901451574803152
21
-5.4897541338582672
0
LINE
8
BLACK
6
CONTINUOUS
10
5.6901451574803152
20
-5.4897541338582672
11
5.690007440944882
21
-5.4897596456692916
0
LINE
8
BLACK
6
CONTINUOUS
10
5.690007440944882
20
-5.4897596456692916
11
5.6892541338582676
21
-5.4896098031496061
0
LINE
8
BLACK
6
CONTINUOUS
10
5.6892541338582676
20
-5.4896098031496061
11
5.6890733464566932
21
-5.4894290157480317
0
LINE
8
BLACK
6
CONTINUOUS
10
5.6890733464566932
20
-5.4894290157480317
11
5.6848855511811021
21
-5.488158818897638
0
LINE
8
BLACK
6
CONTINUOUS
10
5.6848855511811021
20
-5.488158818897638
11
5.6847999212598426
21
-5.4881099999999998
0
LINE
8
BLACK
6
CONTINUOUS
10
5.6847999212598426
20
-5.4881099999999998
11
5.6847547244094487
21
-5.4881099999999998
0
LINE
8
BLACK
6
CONTINUOUS
10
5.6847547244094487
20
-5.4881099999999998
11
5.6846768897637796
21
-5.4880398818897635
0
LINE
8
BLACK
6
CONTINUOUS
10
5.6846768897637796
20
-5.4880398818897635
11
5.6842182677165356
21
-5.4877784645669294
0
LINE
8
BLACK
6
CONTINUOUS
10
5.6842182677165356
20
-5.4877784645669294
11
5.6840801574803148
21
-5.4875022834645666
0
LINE
8
BLACK
6
CONTINUOUS
10
5.6840801574803148
20
-5.4875022834645666
11
5.6826162598425194
21
-5.4861834251968506
0
LINE
8
BLACK
6
CONTINUOUS
10
5.6826162598425194
20
-5.4861834251968506
11
5.6821895275590553
21
-5.4855448031496064
0
LINE
8
BLACK
6
CONTINUOUS
10
5.6821895275590553
20
-5.4855448031496064
11
5.6821895275590553
21
-5.4840381889763776
0
LINE
8
BLACK
6
CONTINUOUS
10
5.6821895275590553
20
-5.4840381889763776
11
5.6832548818897637
21
-5.4829728346456692
0
LINE
8
BLACK
6
CONTINUOUS
10
5.6832548818897637
20
-5.4829728346456692
11
5.6847614960629924
21
-5.4829728346456692
0
LINE
8
BLACK
6
CONTINUOUS
10
5.6847614960629924
20
-5.4829728346456692
11
5.6867207086614169
21
-5.4847379133858265
0
LINE
8
BLACK
6
CONTINUOUS
10
5.6867207086614169
20
-5.4847379133858265
11
5.6906120866141734
21
-5.4859182283464563
0
LINE
8
BLACK
6
CONTINUOUS
10
5.6906120866141734
20
-5.4859182283464563
11
5.6930070866141733
21
-5.4858226377952759
0
LINE
8
BLACK
6
CONTINUOUS
10
5.6930070866141733
20
-5.4858226377952759
11
5.6930284645669289
21
-5.4858268897637794
0
LINE
8
BLACK
6
CONTINUOUS
10
5.6930284645669289
20
-5.4858268897637794
11
5.6966605511811022
21
-5.4845051574803145
0
LINE
8
BLACK
6
CONTINUOUS
10
5.6966605511811022
20
-5.4845051574803145
11
5.6991112598425193
21
-5.4819028740157476
0
LINE
8
BLACK
6
CONTINUOUS
10
5.6991112598425193
20
-5.4819028740157476
11
5.7002452755905511
21
-5.4794117322834648
0
LINE
8
BLACK
6
CONTINUOUS
10
5.7002452755905511
20
-5.4794117322834648
11
5.7003575590551181
21
-5.4792670078740153
0
LINE
8
BLACK
6
CONTINUOUS
10
5.7003575590551181
20
-5.4792670078740153
11
5.7015960629921256
21
-5.4738153937007876
0
LINE
8
BLACK
6
CONTINUOUS
10
5.7015960629921256
20
-5.4738153937007876
11
5.7016488188976373
21
-5.4737036614173231
0
LINE
8
BLACK
6
CONTINUOUS
10
5.7016488188976373
20
-5.4737036614173231
11
5.7015372834645666
21
-5.4697933858267715
0
LINE
8
BLACK
6
CONTINUOUS
10
5.7015372834645666
20
-5.4697933858267715
11
5.7015654330708658
21
-5.4696517716535435
0
LINE
8
BLACK
6
CONTINUOUS
10
5.7015654330708658
20
-5.4696517716535435
11
5.7000962204724406
21
-5.4642715748031492
0
LINE
8
BLACK
6
CONTINUOUS
10
5.7000962204724406
20
-5.4642715748031492
11
5.7000895275590553
21
-5.4641344488188972
0
LINE
8
BLACK
6
CONTINUOUS
10
5.7000895275590553
20
-5.4641344488188972
11
5.6987454724409448
21
-5.4616748031496059
0
LINE
8
BLACK
6
CONTINUOUS
10
5.6987454724409448
20
-5.4616748031496059
11
5.6987416535433066
21
-5.4616608267716531
0
LINE
8
BLACK
6
CONTINUOUS
10
5.6987416535433066
20
-5.4616608267716531
11
5.6962823622047241
21
-5.4593447637795274
0
LINE
8
BLACK
6
CONTINUOUS
10
5.6962823622047241
20
-5.4593447637795274
11
5.6924024015748032
21
-5.4581679527559057
0
LINE
8
BLACK
6
CONTINUOUS
10
5.6924024015748032
20
-5.4581679527559057
11
5.690007440944882
21
-5.4582635826771648
0
LINE
8
BLACK
6
CONTINUOUS
10
5.690007440944882
20
-5.4582635826771648
11
5.6899860236220468
21
-5.4582592913385826
0
LINE
8
BLACK
6
CONTINUOUS
10
5.6899860236220468
20
-5.4582592913385826
11
5.6864167322834644
21
-5.459558188976378
0
LINE
8
BLACK
6
CONTINUOUS
10
5.6864167322834644
20
-5.459558188976378
11
5.6854001181102358
21
-5.4606866535433074
0
LINE
8
BLACK
6
CONTINUOUS
10
5.6854001181102358
20
-5.4606866535433074
11
5.6847614960629924
21
-5.4611133464566928
0
LINE
8
BLACK
6
CONTINUOUS
10
5.6847614960629924
20
-5.4611133464566928
11
5.6832548425196849
21
-5.4611133464566928
0
LINE
8
BLACK
6
CONTINUOUS
10
5.6832548425196849
20
-5.4611133464566928
11
5.6821895275590553
21
-5.4600479921259844
0
LINE
8
BLACK
6
CONTINUOUS
10
5.6821895275590553
20
-5.4600479921259844
11
5.6821895275590553
21
-5.4585413385826769
0
LINE
8
BLACK
6
CONTINUOUS
10
5.6821895275590553
20
-5.4585413385826769
11
5.6841161023622044
21
-5.4564029133858263
0
LINE
8
BLACK
6
CONTINUOUS
10
5.6841161023622044
20
-5.4564029133858263
11
5.6841980708661417
21
-5.4563481102362204
0
LINE
8
BLACK
6
CONTINUOUS
10
5.6841980708661417
20
-5.4563481102362204
11
5.6842182677165356
21
-5.4563077559055113
0
LINE
8
BLACK
6
CONTINUOUS
10
5.6842182677165356
20
-5.4563077559055113
11
5.6843066535433069
21
-5.4562755511811023
0
LINE
8
BLACK
6
CONTINUOUS
10
5.6843066535433069
20
-5.4562755511811023
11
5.6847547244094487
21
-5.4559762204724409
0
LINE
8
BLACK
6
CONTINUOUS
10
5.6847547244094487
20
-5.4559762204724409
11
5.6851292913385825
21
-5.4559762204724409
0
LINE
8
BLACK
6
CONTINUOUS
10
5.6851292913385825
20
-5.4559762204724409
11
5.6893849606299209
21
-5.4544275984251964
0
LINE
8
BLACK
6
CONTINUOUS
10
5.6893849606299209
20
-5.4544275984251964
11
5.690146968503937
21
-5.454331535433071
0
LINE
8
BLACK
6
CONTINUOUS
10
5.690146968503937
20
-5.454331535433071
11
5.6903492519685042
21
-5.4544326771653546
0
LINE
8
BLACK
6
CONTINUOUS
10
5.6903492519685042
20
-5.4544326771653546
11
5.6928662204724407
21
-5.4543321653543302
0
LINE
8
BLACK
6
CONTINUOUS
10
5.6928662204724407
20
-5.4543321653543302
11
5.6928675590551183
21
-5.454331535433071
0
LINE
8
BLACK
6
CONTINUOUS
10
5.6928675590551183
20
-5.454331535433071
11
5.6928693307086613
21
-5.4543320472440939
0
LINE
8
BLACK
6
CONTINUOUS
10
5.6928693307086613
20
-5.4543320472440939
11
5.6930070866141733
21
-5.4543265748031491
0
LINE
8
BLACK
6
CONTINUOUS
10
5.6930070866141733
20
-5.4543265748031491
11
5.6937603937007877
21
-5.4544764173228346
0
LINE
8
BLACK
6
CONTINUOUS
10
5.8092459842519686
20
-5.4544764173228346
11
5.810311338582677
21
-5.455541771653543
0
LINE
8
BLACK
6
CONTINUOUS
10
5.810311338582677
20
-5.455541771653543
11
5.8104611811023616
21
-5.4877911417322833
0
LINE
8
BLACK
6
CONTINUOUS
10
5.8104611811023616
20
-5.4877911417322833
11
5.810311338582677
21
-5.4885444488188977
0
LINE
8
BLACK
6
CONTINUOUS
10
5.810311338582677
20
-5.4885444488188977
11
5.8092459842519686
21
-5.4896098031496061
0
LINE
8
BLACK
6
CONTINUOUS
10
5.8092459842519686
20
-5.4896098031496061
11
5.7934945669291338
21
-5.4897596456692916
0
LINE
8
BLACK
6
CONTINUOUS
10
5.7934945669291338
20
-5.4897596456692916
11
5.7927412598425194
21
-5.4896098031496061
0
LINE
8
BLACK
6
CONTINUOUS
10
5.7927412598425194
20
-5.4896098031496061
11
5.791675905511811
21
-5.4885444488188977
0
LINE
8
BLACK
6
CONTINUOUS
10
5.791675905511811
20
-5.4885444488188977
11
5.791675905511811
21
-5.487037834645669
0
LINE
8
BLACK
6
CONTINUOUS
10
5.791675905511811
20
-5.487037834645669
11
5.7927412598425194
21
-5.4859724803149605
0
LINE
8
BLACK
6
CONTINUOUS
10
5.7927412598425194
20
-5.4859724803149605
11
5.8066614173228341
21
-5.4858400393700784
0
LINE
8
BLACK
6
CONTINUOUS
10
5.8066614173228341
20
-5.4858400393700784
11
5.8066024409448813
21
-5.473147047244094
0
LINE
8
BLACK
6
CONTINUOUS
10
5.8066024409448813
20
-5.473147047244094
11
5.7979940157480314
21
-5.4732616929133853
0
LINE
8
BLACK
6
CONTINUOUS
10
5.7979940157480314
20
-5.4732616929133853
11
5.7972407086614171
21
-5.4731118503937006
0
LINE
8
BLACK
6
CONTINUOUS
10
5.7972407086614171
20
-5.4731118503937006
11
5.7961753543307086
21
-5.4720464960629922
0
LINE
8
BLACK
6
CONTINUOUS
10
5.7961753543307086
20
-5.4720464960629922
11
5.7961753543307086
21
-5.4705398818897635
0
LINE
8
BLACK
6
CONTINUOUS
10
5.7961753543307086
20
-5.4705398818897635
11
5.7972407086614171
21
-5.4694745275590551
0
LINE
8
BLACK
6
CONTINUOUS
10
5.7972407086614171
20
-5.4694745275590551
11
5.8065848031496063
21
-5.469350078740157
0
LINE
8
BLACK
6
CONTINUOUS
10
5.8065848031496063
20
-5.469350078740157
11
5.8065327165354326
21
-5.4581395275590552
0
LINE
8
BLACK
6
CONTINUOUS
10
5.8065327165354326
20
-5.4581395275590552
11
5.7934945669291338
21
-5.4582635826771648
0
LINE
8
BLACK
6
CONTINUOUS
10
5.7934945669291338
20
-5.4582635826771648
11
5.7927412598425194
21
-5.4581137401574802
0
LINE
8
BLACK
6
CONTINUOUS
10
5.7927412598425194
20
-5.4581137401574802
11
5.791675905511811
21
-5.4570483858267718
0
LINE
8
BLACK
6
CONTINUOUS
10
5.791675905511811
20
-5.4570483858267718
11
5.791675905511811
21
-5.455541771653543
0
LINE
8
BLACK
6
CONTINUOUS
10
5.791675905511811
20
-5.455541771653543
11
5.7927412598425194
21
-5.4544764173228346
0
LINE
8
BLACK
6
CONTINUOUS
10
5.7927412598425194
20
-5.4544764173228346
11
5.8084926771653542
21
-5.4543265748031491
0
LINE
8
BLACK
6
CONTINUOUS
10
5.8084926771653542
20
-5.4543265748031491
11
5.8092459842519686
21
-5.4544764173228346
0
LINE
8
BLACK
6
CONTINUOUS
10
5.7846314566929129
20
-5.4551997244094483
11
5.7849269685039371
21
-5.4566770866141727
0
LINE
8
BLACK
6
CONTINUOUS
10
5.7849269685039371
20
-5.4566770866141727
11
5.77477468503937
21
-5.4720342519685037
0
LINE
8
BLACK
6
CONTINUOUS
10
5.77477468503937
20
-5.4720342519685037
11
5.7846337795275593
21
-5.4866992125984249
0
LINE
8
BLACK
6
CONTINUOUS
10
5.7846337795275593
20
-5.4866992125984249
11
5.7849269685039371
21
-5.487409133858268
0
LINE
8
BLACK
6
CONTINUOUS
10
5.7849269685039371
20
-5.487409133858268
11
5.7846314566929129
21
-5.4888864960629924
0
LINE
8
BLACK
6
CONTINUOUS
10
5.7846314566929129
20
-5.4888864960629924
11
5.7833779133858263
21
-5.4897222440944882
0
LINE
8
BLACK
6
CONTINUOUS
10
5.7833779133858263
20
-5.4897222440944882
11
5.7819005118110232
21
-5.4894267716535428
0
LINE
8
BLACK
6
CONTINUOUS
10
5.7819005118110232
20
-5.4894267716535428
11
5.7725103937007871
21
-5.47545937007874
0
LINE
8
BLACK
6
CONTINUOUS
10
5.7725103937007871
20
-5.47545937007874
11
5.7636363385826774
21
-5.4888830708661418
0
LINE
8
BLACK
6
CONTINUOUS
10
5.7636363385826774
20
-5.4888830708661418
11
5.7630938188976373
21
-5.489426732283464
0
LINE
8
BLACK
6
CONTINUOUS
10
5.7630938188976373
20
-5.489426732283464
11
5.7616164566929129
21
-5.4897222047244094
0
LINE
8
BLACK
6
CONTINUOUS
10
5.7616164566929129
20
-5.4897222047244094
11
5.7603628740157475
21
-5.4888864960629924
0
LINE
8
BLACK
6
CONTINUOUS
10
5.7603628740157475
20
-5.4888864960629924
11
5.760067401574803
21
-5.487409133858268
0
LINE
8
BLACK
6
CONTINUOUS
10
5.760067401574803
20
-5.487409133858268
11
5.7702196456692914
21
-5.4720519291338583
0
LINE
8
BLACK
6
CONTINUOUS
10
5.7702196456692914
20
-5.4720519291338583
11
5.7603605905511808
21
-5.4573870078740159
0
LINE
8
BLACK
6
CONTINUOUS
10
5.7603605905511808
20
-5.4573870078740159
11
5.760067401574803
21
-5.4566770866141727
0
LINE
8
BLACK
6
CONTINUOUS
10
5.760067401574803
20
-5.4566770866141727
11
5.7603628740157475
21
-5.4551997244094483
0
LINE
8
BLACK
6
CONTINUOUS
10
5.7603628740157475
20
-5.4551997244094483
11
5.7616164566929129
21
-5.4543640157480313
0
LINE
8
BLACK
6
CONTINUOUS
10
5.7616164566929129
20
-5.4543640157480313
11
5.7630938188976373
21
-5.4546594881889758
0
LINE
8
BLACK
6
CONTINUOUS
10
5.7630938188976373
20
-5.4546594881889758
11
5.7724838976377955
21
-5.468626811023622
0
LINE
8
BLACK
6
CONTINUOUS
10
5.7724838976377955
20
-5.468626811023622
11
5.7813579921259839
21
-5.4552031496062989
0
LINE
8
BLACK
6
CONTINUOUS
10
5.7813579921259839
20
-5.4552031496062989
11
5.7819005118110232
21
-5.4546594488188971
0
LINE
8
BLACK
6
CONTINUOUS
10
5.7819005118110232
20
-5.4546594488188971
11
5.7833779133858263
21
-5.4543639763779526
0
LINE
8
BLACK
6
CONTINUOUS
10
5.7833779133858263
20
-5.4543639763779526
11
5.7846314566929129
21
-5.4551997244094483
0
LINE
8
BLACK
6
CONTINUOUS
10
5.6431065354330707
20
-5.4696399606299213
11
5.6430445669291336
21
-5.4562950787401574
0
LINE
8
BLACK
6
CONTINUOUS
10
5.6430445669291336
20
-5.4562950787401574
11
5.6431944094488191
21
-5.455541771653543
0
LINE
8
BLACK
6
CONTINUOUS
10
5.6431944094488191
20
-5.455541771653543
11
5.6442597637795275
21
-5.4544764173228346
0
LINE
8
BLACK
6
CONTINUOUS
10
5.6442597637795275
20
-5.4544764173228346
11
5.6457663779527554
21
-5.4544764173228346
0
LINE
8
BLACK
6
CONTINUOUS
10
5.6457663779527554
20
-5.4544764173228346
11
5.6468317322834647
21
-5.455541771653543
0
LINE
8
BLACK
6
CONTINUOUS
10
5.6468317322834647
20
-5.455541771653543
11
5.6469815748031493
21
-5.4877911417322833
0
LINE
8
BLACK
6
CONTINUOUS
10
5.6469815748031493
20
-5.4877911417322833
11
5.6468317322834647
21
-5.4885444488188977
0
LINE
8
BLACK
6
CONTINUOUS
10
5.6468317322834647
20
-5.4885444488188977
11
5.6457663779527554
21
-5.4896098031496061
0
LINE
8
BLACK
6
CONTINUOUS
10
5.6457663779527554
20
-5.4896098031496061
11
5.6442597637795275
21
-5.4896098031496061
0
LINE
8
BLACK
6
CONTINUOUS
10
5.6442597637795275
20
-5.4896098031496061
11
5.6431944094488191
21
-5.4885444488188977
0
LINE
8
BLACK
6
CONTINUOUS
10
5.6431944094488191
20
-5.4885444488188977
11
5.6431314566929132
21
-5.4749959842519687
0
LINE
8
BLACK
6
CONTINUOUS
10
5.6431314566929132
20
-5.4749959842519687
11
5.6407063385826772
21
-5.4725984645669294
0
LINE
8
BLACK
6
CONTINUOUS
10
5.6407063385826772
20
-5.4725984645669294
11
5.6285901181102362
21
-5.4889722440944881
0
LINE
8
BLACK
6
CONTINUOUS
10
5.6285901181102362
20
-5.4889722440944881
11
5.6280182677165351
21
-5.4894850000000002
0
LINE
8
BLACK
6
CONTINUOUS
10
5.6280182677165351
20
-5.4894850000000002
11
5.626526771653543
21
-5.489698070866142
0
LINE
8
BLACK
6
CONTINUOUS
10
5.626526771653543
20
-5.489698070866142
11
5.6253214566929133
21
-5.4887940944881892
0
LINE
8
BLACK
6
CONTINUOUS
10
5.6253214566929133
20
-5.4887940944881892
11
5.6251083858267714
21
-5.4873025984251971
0
LINE
8
BLACK
6
CONTINUOUS
10
5.6251083858267714
20
-5.4873025984251971
11
5.6379820866141728
21
-5.4699051968503936
0
LINE
8
BLACK
6
CONTINUOUS
10
5.6379820866141728
20
-5.4699051968503936
11
5.6256233858267715
21
-5.4576870078740161
0
LINE
8
BLACK
6
CONTINUOUS
10
5.6256233858267715
20
-5.4576870078740161
11
5.6251966535433073
21
-5.4570483858267718
0
LINE
8
BLACK
6
CONTINUOUS
10
5.6251966535433073
20
-5.4570483858267718
11
5.6251966535433073
21
-5.455541771653543
0
LINE
8
BLACK
6
CONTINUOUS
10
5.6251966535433073
20
-5.455541771653543
11
5.6262620078740158
21
-5.4544764173228346
0
LINE
8
BLACK
6
CONTINUOUS
10
5.6262620078740158
20
-5.4544764173228346
11
5.6277686220472436
21
-5.4544764173228346
0
LINE
8
BLACK
6
CONTINUOUS
10
5.6277686220472436
20
-5.4544764173228346
11
5.6431065354330707
21
-5.4696399606299213
0
LINE
8
BLACK
6
CONTINUOUS
10
5.7552527165354332
20
-5.4544764173228346
11
5.7563180708661417
21
-5.455541771653543
0
LINE
8
BLACK
6
CONTINUOUS
10
5.7563180708661417
20
-5.455541771653543
11
5.7563180708661417
21
-5.4570483858267718
0
LINE
8
BLACK
6
CONTINUOUS
10
5.7563180708661417
20
-5.4570483858267718
11
5.7552527165354332
21
-5.4581137401574802
0
LINE
8
BLACK
6
CONTINUOUS
10
5.7552527165354332
20
-5.4581137401574802
11
5.7473314566929137
21
-5.4581770078740153
0
LINE
8
BLACK
6
CONTINUOUS
10
5.7473314566929137
20
-5.4581770078740153
11
5.7474690551181098
21
-5.4877911417322833
0
LINE
8
BLACK
6
CONTINUOUS
10
5.7474690551181098
20
-5.4877911417322833
11
5.7473192125984252
21
-5.4885444488188977
0
LINE
8
BLACK
6
CONTINUOUS
10
5.7473192125984252
20
-5.4885444488188977
11
5.7462538582677167
21
-5.4896098031496061
0
LINE
8
BLACK
6
CONTINUOUS
10
5.7462538582677167
20
-5.4896098031496061
11
5.744747244094488
21
-5.4896098031496061
0
LINE
8
BLACK
6
CONTINUOUS
10
5.744747244094488
20
-5.4896098031496061
11
5.7436818897637796
21
-5.4885444488188977
0
LINE
8
BLACK
6
CONTINUOUS
10
5.7436818897637796
20
-5.4885444488188977
11
5.7435409055118107
21
-5.4582073228346459
0
LINE
8
BLACK
6
CONTINUOUS
10
5.7435409055118107
20
-5.4582073228346459
11
5.7365016535433071
21
-5.4582635826771648
0
LINE
8
BLACK
6
CONTINUOUS
10
5.7365016535433071
20
-5.4582635826771648
11
5.7357483464566927
21
-5.4581137401574802
0
LINE
8
BLACK
6
CONTINUOUS
10
5.7357483464566927
20
-5.4581137401574802
11
5.7346829921259843
21
-5.4570483858267718
0
LINE
8
BLACK
6
CONTINUOUS
10
5.7346829921259843
20
-5.4570483858267718
11
5.7346829921259843
21
-5.455541771653543
0
LINE
8
BLACK
6
CONTINUOUS
10
5.7346829921259843
20
-5.455541771653543
11
5.7357483464566927
21
-5.4544764173228346
0
LINE
8
BLACK
6
CONTINUOUS
10
5.7357483464566927
20
-5.4544764173228346
11
5.7544994094488189
21
-5.4543265748031491
0
LINE
8
BLACK
6
CONTINUOUS
10
5.7544994094488189
20
-5.4543265748031491
11
5.7552527165354332
21
-5.4544764173228346
0
LINE
8
BLACK
6
CONTINUOUS
10
5.684107519685039
20
-5.3152070866141727
11
5.684396811023622
21
-5.3152070866141727
0
LINE
8
BLACK
6
CONTINUOUS
10
5.684396811023622
20
-5.3152070866141727
11
5.6846668897637791
21
-5.3153189370078735
0
LINE
8
BLACK
6
CONTINUOUS
10
5.6846668897637791
20
-5.3153189370078735
11
5.6849535433070866
21
-5.3153762992125984
0
LINE
8
BLACK
6
CONTINUOUS
10
5.6849535433070866
20
-5.3153762992125984
11
5.6851938976377951
21
-5.3155372440944877
0
LINE
8
BLACK
6
CONTINUOUS
10
5.6851938976377951
20
-5.3155372440944877
11
5.6854612204724404
21
-5.3156479921259843
0
LINE
8
BLACK
6
CONTINUOUS
10
5.6854612204724404
20
-5.3156479921259843
11
5.685667913385827
21
-5.31585468503937
0
LINE
8
BLACK
6
CONTINUOUS
10
5.685667913385827
20
-5.31585468503937
11
5.6859108267716536
21
-5.3160173622047244
0
LINE
8
BLACK
6
CONTINUOUS
10
5.6859108267716536
20
-5.3160173622047244
11
5.6860796850393696
21
-5.3162664566929134
0
LINE
8
BLACK
6
CONTINUOUS
10
5.6860796850393696
20
-5.3162664566929134
11
5.6862758661417319
21
-5.3164626377952757
0
LINE
8
BLACK
6
CONTINUOUS
10
5.6862758661417319
20
-5.3164626377952757
11
5.6863751181102362
21
-5.3167022834645667
0
LINE
8
BLACK
6
CONTINUOUS
10
5.6863751181102362
20
-5.3167022834645667
11
5.6899937795275592
21
-5.3220403543307082
0
LINE
8
BLACK
6
CONTINUOUS
10
5.6899937795275592
20
-5.3220403543307082
11
5.693154842519685
21
-5.3251409842519681
0
LINE
8
BLACK
6
CONTINUOUS
10
5.693154842519685
20
-5.3251409842519681
11
5.6963898425196851
21
-5.3267106692913382
0
LINE
8
BLACK
6
CONTINUOUS
10
5.6963898425196851
20
-5.3267106692913382
11
5.6968797244094489
21
-5.3270190157480313
0
LINE
8
BLACK
6
CONTINUOUS
10
5.6968797244094489
20
-5.3270190157480313
11
5.6976345669291337
21
-5.3278894094488187
0
LINE
8
BLACK
6
CONTINUOUS
10
5.6976345669291337
20
-5.3278894094488187
11
5.6979988976377953
21
-5.3289823622047239
0
LINE
8
BLACK
6
CONTINUOUS
10
5.6979988976377953
20
-5.3289823622047239
11
5.6979172440944881
21
-5.3301315748031497
0
LINE
8
BLACK
6
CONTINUOUS
10
5.6979172440944881
20
-5.3301315748031497
11
5.6974019685039368
21
-5.3311620866141727
0
LINE
8
BLACK
6
CONTINUOUS
10
5.6974019685039368
20
-5.3311620866141727
11
5.6965316141732281
21
-5.3319169291338584
0
LINE
8
BLACK
6
CONTINUOUS
10
5.6965316141732281
20
-5.3319169291338584
11
5.6954386220472442
21
-5.33228125984252
0
LINE
8
BLACK
6
CONTINUOUS
10
5.6954386220472442
20
-5.33228125984252
11
5.6942894094488183
21
-5.3321996062992127
0
LINE
8
BLACK
6
CONTINUOUS
10
5.6942894094488183
20
-5.3321996062992127
11
5.6899992913385828
21
-5.3301179527559057
0
LINE
8
BLACK
6
CONTINUOUS
10
5.6899992913385828
20
-5.3301179527559057
11
5.689751456692913
21
-5.3299619291338578
0
LINE
8
BLACK
6
CONTINUOUS
10
5.689751456692913
20
-5.3299619291338578
11
5.6896793307086613
21
-5.3299320866141731
0
LINE
8
BLACK
6
CONTINUOUS
10
5.6896793307086613
20
-5.3299320866141731
11
5.6896351181102363
21
-5.3298887401574806
0
LINE
8
BLACK
6
CONTINUOUS
10
5.6896351181102363
20
-5.3298887401574806
11
5.689509409448819
21
-5.3298096062992126
0
LINE
8
BLACK
6
CONTINUOUS
10
5.689509409448819
20
-5.3298096062992126
11
5.6892527165354325
21
-5.3295136220472443
0
LINE
8
BLACK
6
CONTINUOUS
10
5.6892527165354325
20
-5.3295136220472443
11
5.6867302755905511
21
-5.3270393700787402
0
LINE
8
BLACK
6
CONTINUOUS
10
5.6867302755905511
20
-5.3270393700787402
11
5.6867693307086613
21
-5.354540826771653
0
LINE
8
BLACK
6
CONTINUOUS
10
5.6867693307086613
20
-5.354540826771653
11
5.6950693307086615
21
-5.3545204330708662
0
LINE
8
BLACK
6
CONTINUOUS
10
5.6950693307086615
20
-5.3545204330708662
11
5.6956453937007874
21
-5.3545771653543301
0
LINE
8
BLACK
6
CONTINUOUS
10
5.6956453937007874
20
-5.3545771653543301
11
5.6967098031496057
21
-5.3550180708661417
0
LINE
8
BLACK
6
CONTINUOUS
10
5.6967098031496057
20
-5.3550180708661417
11
5.6975244488188972
21
-5.3558327165354331
0
LINE
8
BLACK
6
CONTINUOUS
10
5.6975244488188972
20
-5.3558327165354331
11
5.6979653543307087
21
-5.3568971259842515
0
LINE
8
BLACK
6
CONTINUOUS
10
5.6979653543307087
20
-5.3568971259842515
11
5.6979653543307087
21
-5.3580492519685041
0
LINE
8
BLACK
6
CONTINUOUS
10
5.6979653543307087
20
-5.3580492519685041
11
5.6975244488188972
21
-5.3591136614173225
0
LINE
8
BLACK
6
CONTINUOUS
10
5.6975244488188972
20
-5.3591136614173225
11
5.6967098031496057
21
-5.3599283070866139
0
LINE
8
BLACK
6
CONTINUOUS
10
5.6967098031496057
20
-5.3599283070866139
11
5.6956453937007874
21
-5.3603692125984255
0
LINE
8
BLACK
6
CONTINUOUS
10
5.6956453937007874
20
-5.3603692125984255
11
5.6725721653543308
21
-5.3604259448818894
0
LINE
8
BLACK
6
CONTINUOUS
10
5.6725721653543308
20
-5.3604259448818894
11
5.671996102362205
21
-5.3603692125984255
0
LINE
8
BLACK
6
CONTINUOUS
10
5.671996102362205
20
-5.3603692125984255
11
5.6709316929133857
21
-5.3599283070866139
0
LINE
8
BLACK
6
CONTINUOUS
10
5.6709316929133857
20
-5.3599283070866139
11
5.6701170472440943
21
-5.3591136614173225
0
LINE
8
BLACK
6
CONTINUOUS
10
5.6701170472440943
20
-5.3591136614173225
11
5.6696761417322836
21
-5.3580492519685041
0
LINE
8
BLACK
6
CONTINUOUS
10
5.6696761417322836
20
-5.3580492519685041
11
5.6696761417322836
21
-5.3568971259842515
0
LINE
8
BLACK
6
CONTINUOUS
10
5.6696761417322836
20
-5.3568971259842515
11
5.6701170472440943
21
-5.3558327165354331
0
LINE
8
BLACK
6
CONTINUOUS
10
5.6701170472440943
20
-5.3558327165354331
11
5.6709316929133857
21
-5.3550180708661417
0
LINE
8
BLACK
6
CONTINUOUS
10
5.6709316929133857
20
-5.3550180708661417
11
5.671996102362205
21
-5.3545771653543301
0
LINE
8
BLACK
6
CONTINUOUS
10
5.671996102362205
20
-5.3545771653543301
11
5.6809197244094483
21
-5.3545551968503933
0
LINE
8
BLACK
6
CONTINUOUS
10
5.6809197244094483
20
-5.3545551968503933
11
5.6808679921259841
21
-5.31810311023622
0
LINE
8
BLACK
6
CONTINUOUS
10
5.6808679921259841
20
-5.31810311023622
11
5.6808681889763779
21
-5.318101023622047
0
LINE
8
BLACK
6
CONTINUOUS
10
5.6808681889763779
20
-5.318101023622047
11
5.6808679921259841
21
-5.3181000000000003
0
LINE
8
BLACK
6
CONTINUOUS
10
5.6808679921259841
20
-5.3181000000000003
11
5.6808685826771654
21
-5.3180969685039372
0
LINE
8
BLACK
6
CONTINUOUS
10
5.6808685826771654
20
-5.3180969685039372
11
5.680924724409449
21
-5.3175270472440941
0
LINE
8
BLACK
6
CONTINUOUS
10
5.680924724409449
20
-5.3175270472440941
11
5.6810365748031497
21
-5.3172569291338583
0
LINE
8
BLACK
6
CONTINUOUS
10
5.6810365748031497
20
-5.3172569291338583
11
5.6810939370078737
21
-5.3169703149606296
0
LINE
8
BLACK
6
CONTINUOUS
10
5.6810939370078737
20
-5.3169703149606296
11
5.6812548818897639
21
-5.3167299212598422
0
LINE
8
BLACK
6
CONTINUOUS
10
5.6812548818897639
20
-5.3167299212598422
11
5.6813656299212596
21
-5.3164626377952757
0
LINE
8
BLACK
6
CONTINUOUS
10
5.6813656299212596
20
-5.3164626377952757
11
5.6815723228346453
21
-5.3162559055118113
0
LINE
8
BLACK
6
CONTINUOUS
10
5.6815723228346453
20
-5.3162559055118113
11
5.6817349999999998
21
-5.3160130314960625
0
LINE
8
BLACK
6
CONTINUOUS
10
5.6817349999999998
20
-5.3160130314960625
11
5.6819757086614171
21
-5.3158525196850395
0
LINE
8
BLACK
6
CONTINUOUS
10
5.6819757086614171
20
-5.3158525196850395
11
5.6821802755905511
21
-5.3156479921259843
0
LINE
8
BLACK
6
CONTINUOUS
10
5.6821802755905511
20
-5.3156479921259843
11
5.6824503543307081
21
-5.3155361023622048
0
LINE
8
BLACK
6
CONTINUOUS
10
5.6824503543307081
20
-5.3155361023622048
11
5.6826936220472444
21
-5.3153739370078741
0
LINE
8
BLACK
6
CONTINUOUS
10
5.6826936220472444
20
-5.3153739370078741
11
5.6829774015748029
21
-5.3153177952755906
0
LINE
8
BLACK
6
CONTINUOUS
10
5.6829774015748029
20
-5.3153177952755906
11
5.6832446850393703
21
-5.3152070866141727
0
LINE
8
BLACK
6
CONTINUOUS
10
5.6832446850393703
20
-5.3152070866141727
11
5.683537086614173
21
-5.3152070866141727
0
LINE
8
BLACK
6
CONTINUOUS
10
5.683537086614173
20
-5.3152070866141727
11
5.6838238582677167
21
-5.3151503543307088
0
LINE
8
BLACK
6
CONTINUOUS
10
5.6838238582677167
20
-5.3151503543307088
11
5.684107519685039
21
-5.3152070866141727
0
LINE
8
BLACK
6
CONTINUOUS
10
5.7331407086614172
20
-5.3152070866141727
11
5.7342051181102365
21
-5.3156479921259843
0
LINE
8
BLACK
6
CONTINUOUS
10
5.7342051181102365
20
-5.3156479921259843
11
5.735019763779527
21
-5.3164626377952757
0
LINE
8
BLACK
6
CONTINUOUS
10
5.735019763779527
20
-5.3164626377952757
11
5.7354606692913386
21
-5.3175270472440941
0
LINE
8
BLACK
6
CONTINUOUS
10
5.7354606692913386
20
-5.3175270472440941
11
5.7355174015748034
21
-5.3574731889763783
0
LINE
8
BLACK
6
CONTINUOUS
10
5.7355174015748034
20
-5.3574731889763783
11
5.7354606692913386
21
-5.3580492519685041
0
LINE
8
BLACK
6
CONTINUOUS
10
5.7354606692913386
20
-5.3580492519685041
11
5.735019763779527
21
-5.3591136614173225
0
LINE
8
BLACK
6
CONTINUOUS
10
5.735019763779527
20
-5.3591136614173225
11
5.7342051181102365
21
-5.3599283070866139
0
LINE
8
BLACK
6
CONTINUOUS
10
5.7342051181102365
20
-5.3599283070866139
11
5.7331407086614172
21
-5.3603692125984255
0
LINE
8
BLACK
6
CONTINUOUS
10
5.7331407086614172
20
-5.3603692125984255
11
5.7319885826771655
21
-5.3603692125984255
0
LINE
8
BLACK
6
CONTINUOUS
10
5.7319885826771655
20
-5.3603692125984255
11
5.7309241732283462
21
-5.3599283070866139
0
LINE
8
BLACK
6
CONTINUOUS
10
5.7309241732283462
20
-5.3599283070866139
11
5.7301095275590548
21
-5.3591136614173225
0
LINE
8
BLACK
6
CONTINUOUS
10
5.7301095275590548
20
-5.3591136614173225
11
5.7296686220472441
21
-5.3580492519685041
0
LINE
8
BLACK
6
CONTINUOUS
10
5.7296686220472441
20
-5.3580492519685041
11
5.7296452755905509
21
-5.3416342519685038
0
LINE
8
BLACK
6
CONTINUOUS
10
5.7296452755905509
20
-5.3416342519685038
11
5.7175665354330709
21
-5.3416782677165351
0
LINE
8
BLACK
6
CONTINUOUS
10
5.7175665354330709
20
-5.3416782677165351
11
5.716990472440945
21
-5.3416215354330712
0
LINE
8
BLACK
6
CONTINUOUS
10
5.716990472440945
20
-5.3416215354330712
11
5.7168924803149608
21
-5.3415809448818896
0
LINE
8
BLACK
6
CONTINUOUS
10
5.7168924803149608
20
-5.3415809448818896
11
5.7167866141732286
21
-5.3415734251968505
0
LINE
8
BLACK
6
CONTINUOUS
10
5.7167866141732286
20
-5.3415734251968505
11
5.7162748425196845
21
-5.3413250787401569
0
LINE
8
BLACK
6
CONTINUOUS
10
5.7162748425196845
20
-5.3413250787401569
11
5.7159260629921258
21
-5.3411806299212596
0
LINE
8
BLACK
6
CONTINUOUS
10
5.7159260629921258
20
-5.3411806299212596
11
5.7158779527559052
21
-5.341132519685039
0
LINE
8
BLACK
6
CONTINUOUS
10
5.7158779527559052
20
-5.341132519685039
11
5.7124964960629923
21
-5.3394917716535435
0
LINE
8
BLACK
6
CONTINUOUS
10
5.7124964960629923
20
-5.3394917716535435
11
5.7122484645669287
21
-5.3393356692913381
0
LINE
8
BLACK
6
CONTINUOUS
10
5.7122484645669287
20
-5.3393356692913381
11
5.7121765354330707
21
-5.3393058661417321
0
LINE
8
BLACK
6
CONTINUOUS
10
5.7121765354330707
20
-5.3393058661417321
11
5.7121304330708664
21
-5.339261338582677
0
LINE
8
BLACK
6
CONTINUOUS
10
5.7121304330708664
20
-5.339261338582677
11
5.7120066141732284
21
-5.3391834251968504
0
LINE
8
BLACK
6
CONTINUOUS
10
5.7120066141732284
20
-5.3391834251968504
11
5.7117848425196849
21
-5.3389277165354327
0
LINE
8
BLACK
6
CONTINUOUS
10
5.7117848425196849
20
-5.3389277165354327
11
5.7098543307086613
21
-5.3370638976377949
0
LINE
8
BLACK
6
CONTINUOUS
10
5.7098543307086613
20
-5.3370638976377949
11
5.7096685433070862
21
-5.3368375196850391
0
LINE
8
BLACK
6
CONTINUOUS
10
5.7096685433070862
20
-5.3368375196850391
11
5.7096095669291334
21
-5.3367863779527553
0
LINE
8
BLACK
6
CONTINUOUS
10
5.7096095669291334
20
-5.3367863779527553
11
5.7095809055118112
21
-5.3367307086614169
0
LINE
8
BLACK
6
CONTINUOUS
10
5.7095809055118112
20
-5.3367307086614169
11
5.7094871259842517
21
-5.3366164566929131
0
LINE
8
BLACK
6
CONTINUOUS
10
5.7094871259842517
20
-5.3366164566929131
11
5.7093434645669294
21
-5.3362696456692911
0
LINE
8
BLACK
6
CONTINUOUS
10
5.7093434645669294
20
-5.3362696456692911
11
5.7074264566929136
21
-5.3325469685039373
0
LINE
8
BLACK
6
CONTINUOUS
10
5.7074264566929136
20
-5.3325469685039373
11
5.7072195669291341
21
-5.3320063385826773
0
LINE
8
BLACK
6
CONTINUOUS
10
5.7072195669291341
20
-5.3320063385826773
11
5.7072120472440941
21
-5.3319005118110239
0
LINE
8
BLACK
6
CONTINUOUS
10
5.7072120472440941
20
-5.3319005118110239
11
5.7071714566929135
21
-5.3318025196850396
0
LINE
8
BLACK
6
CONTINUOUS
10
5.7071714566929135
20
-5.3318025196850396
11
5.7071664566929137
21
-5.331259251968504
0
LINE
8
BLACK
6
CONTINUOUS
10
5.7071664566929137
20
-5.331259251968504
11
5.7071379133858269
21
-5.3308571259842514
0
LINE
8
BLACK
6
CONTINUOUS
10
5.7071379133858269
20
-5.3308571259842514
11
5.7071621259842518
21
-5.3307844094488184
0
LINE
8
BLACK
6
CONTINUOUS
10
5.7071621259842518
20
-5.3307844094488184
11
5.7071147244094487
21
-5.3256021653543302
0
LINE
8
BLACK
6
CONTINUOUS
10
5.7071147244094487
20
-5.3256021653543302
11
5.7071714566929135
21
-5.3250261023622043
0
LINE
8
BLACK
6
CONTINUOUS
10
5.7071714566929135
20
-5.3250261023622043
11
5.7072120472440941
21
-5.3249280708661413
0
LINE
8
BLACK
6
CONTINUOUS
10
5.7072120472440941
20
-5.3249280708661413
11
5.7072195669291341
21
-5.3248222834645667
0
LINE
8
BLACK
6
CONTINUOUS
10
5.7072195669291341
20
-5.3248222834645667
11
5.7074677559055118
21
-5.3243107086614172
0
LINE
8
BLACK
6
CONTINUOUS
10
5.7074677559055118
20
-5.3243107086614172
11
5.7076123622047241
21
-5.3239616929133859
0
LINE
8
BLACK
6
CONTINUOUS
10
5.7076123622047241
20
-5.3239616929133859
11
5.7076604724409448
21
-5.3239135433070865
0
LINE
8
BLACK
6
CONTINUOUS
10
5.7076604724409448
20
-5.3239135433070865
11
5.7093012204724412
21
-5.3205321259842515
0
LINE
8
BLACK
6
CONTINUOUS
10
5.7093012204724412
20
-5.3205321259842515
11
5.7094572834645669
21
-5.3202840944881888
0
LINE
8
BLACK
6
CONTINUOUS
10
5.7094572834645669
20
-5.3202840944881888
11
5.7094871259842517
21
-5.3202121653543308
0
LINE
8
BLACK
6
CONTINUOUS
10
5.7094871259842517
20
-5.3202121653543308
11
5.709531614173228
21
-5.3201660629921257
0
LINE
8
BLACK
6
CONTINUOUS
10
5.709531614173228
20
-5.3201660629921257
11
5.7096095669291334
21
-5.3200422440944877
0
LINE
8
BLACK
6
CONTINUOUS
10
5.7096095669291334
20
-5.3200422440944877
11
5.7098652362204723
21
-5.319820472440945
0
LINE
8
BLACK
6
CONTINUOUS
10
5.7098652362204723
20
-5.319820472440945
11
5.7117290944881889
21
-5.3178899606299215
0
LINE
8
BLACK
6
CONTINUOUS
10
5.7117290944881889
20
-5.3178899606299215
11
5.711955433070866
21
-5.3177041732283463
0
LINE
8
BLACK
6
CONTINUOUS
10
5.711955433070866
20
-5.3177041732283463
11
5.7120066141732284
21
-5.3176451968503935
0
LINE
8
BLACK
6
CONTINUOUS
10
5.7120066141732284
20
-5.3176451968503935
11
5.7120622440944882
21
-5.3176165354330704
0
LINE
8
BLACK
6
CONTINUOUS
10
5.7120622440944882
20
-5.3176165354330704
11
5.7121765354330707
21
-5.3175227559055118
0
LINE
8
BLACK
6
CONTINUOUS
10
5.7121765354330707
20
-5.3175227559055118
11
5.7125233858267714
21
-5.3173790551181099
0
LINE
8
BLACK
6
CONTINUOUS
10
5.7125233858267714
20
-5.3173790551181099
11
5.7162460236220474
21
-5.3154620866141729
0
LINE
8
BLACK
6
CONTINUOUS
10
5.7162460236220474
20
-5.3154620866141729
11
5.7167866141732286
21
-5.3152551968503934
0
LINE
8
BLACK
6
CONTINUOUS
10
5.7167866141732286
20
-5.3152551968503934
11
5.7168924803149608
21
-5.3152476377952755
0
LINE
8
BLACK
6
CONTINUOUS
10
5.7168924803149608
20
-5.3152476377952755
11
5.716990472440945
21
-5.3152070866141727
0
LINE
8
BLACK
6
CONTINUOUS
10
5.716990472440945
20
-5.3152070866141727
11
5.7174892913385822
21
-5.3152052362204723
0
LINE
8
BLACK
6
CONTINUOUS
10
5.7174892913385822
20
-5.3152052362204723
11
5.7179358267716536
21
-5.3151735433070861
0
LINE
8
BLACK
6
CONTINUOUS
10
5.7179358267716536
20
-5.3151735433070861
11
5.7180251181102362
21
-5.3152033070866143
0
LINE
8
BLACK
6
CONTINUOUS
10
5.7180251181102362
20
-5.3152033070866143
11
5.7325646456692914
21
-5.3151503543307088
0
LINE
8
BLACK
6
CONTINUOUS
10
5.7325646456692914
20
-5.3151503543307088
11
5.7331407086614172
21
-5.3152070866141727
0
LINE
8
BLACK
6
CONTINUOUS
10
5.7181770866141735
20
-5.321053622047244
11
5.7154728346456691
21
-5.3224461811023618
0
LINE
8
BLACK
6
CONTINUOUS
10
5.7154728346456691
20
-5.3224461811023618
11
5.7142821259842522
21
-5.3236795275590554
0
LINE
8
BLACK
6
CONTINUOUS
10
5.7142821259842522
20
-5.3236795275590554
11
5.7129757874015743
21
-5.3263717322834641
0
LINE
8
BLACK
6
CONTINUOUS
10
5.7129757874015743
20
-5.3263717322834641
11
5.7130145669291341
21
-5.330609212598425
0
LINE
8
BLACK
6
CONTINUOUS
10
5.7130145669291341
20
-5.330609212598425
11
5.7144105511811025
21
-5.3333201181102359
0
LINE
8
BLACK
6
CONTINUOUS
10
5.7144105511811025
20
-5.3333201181102359
11
5.715643937007874
21
-5.3345108661417324
0
LINE
8
BLACK
6
CONTINUOUS
10
5.715643937007874
20
-5.3345108661417324
11
5.7183512598425192
21
-5.3358245275590548
0
LINE
8
BLACK
6
CONTINUOUS
10
5.7183512598425192
20
-5.3358245275590548
11
5.7296369685039368
21
-5.3357833858267716
0
LINE
8
BLACK
6
CONTINUOUS
10
5.7296369685039368
20
-5.3357833858267716
11
5.7296159842519687
21
-5.321011968503937
0
LINE
8
BLACK
6
CONTINUOUS
10
5.7296159842519687
20
-5.321011968503937
11
5.7181770866141735
21
-5.321053622047244
0
LINE
8
BLACK
6
CONTINUOUS
10
5.7687612598425195
20
-5.3152070866141727
11
5.7698256692913388
21
-5.3156479921259843
0
LINE
8
BLACK
6
CONTINUOUS
10
5.7698256692913388
20
-5.3156479921259843
11
5.7706403149606293
21
-5.3164626377952757
0
LINE
8
BLACK
6
CONTINUOUS
10
5.7706403149606293
20
-5.3164626377952757
11
5.7710812204724409
21
-5.3175270472440941
0
LINE
8
BLACK
6
CONTINUOUS
10
5.7710812204724409
20
-5.3175270472440941
11
5.7710812204724409
21
-5.3186791732283467
0
LINE
8
BLACK
6
CONTINUOUS
10
5.7710812204724409
20
-5.3186791732283467
11
5.7706403149606293
21
-5.3197435826771651
0
LINE
8
BLACK
6
CONTINUOUS
10
5.7706403149606293
20
-5.3197435826771651
11
5.7698256692913388
21
-5.3205582283464565
0
LINE
8
BLACK
6
CONTINUOUS
10
5.7698256692913388
20
-5.3205582283464565
11
5.7687612598425195
21
-5.3209991338582672
0
LINE
8
BLACK
6
CONTINUOUS
10
5.7687612598425195
20
-5.3209991338582672
11
5.7598375984251966
21
-5.3210210629921262
0
LINE
8
BLACK
6
CONTINUOUS
10
5.7598375984251966
20
-5.3210210629921262
11
5.7598893700787404
21
-5.3574731889763783
0
LINE
8
BLACK
6
CONTINUOUS
10
5.7598893700787404
20
-5.3574731889763783
11
5.7598326377952755
21
-5.3580492519685041
0
LINE
8
BLACK
6
CONTINUOUS
10
5.7598326377952755
20
-5.3580492519685041
11
5.759391732283464
21
-5.3591136614173225
0
LINE
8
BLACK
6
CONTINUOUS
10
5.759391732283464
20
-5.3591136614173225
11
5.7585770866141734
21
-5.3599283070866139
0
LINE
8
BLACK
6
CONTINUOUS
10
5.7585770866141734
20
-5.3599283070866139
11
5.7575126771653542
21
-5.3603692125984255
0
LINE
8
BLACK
6
CONTINUOUS
10
5.7575126771653542
20
-5.3603692125984255
11
5.7563605511811025
21
-5.3603692125984255
0
LINE
8
BLACK
6
CONTINUOUS
10
5.7563605511811025
20
-5.3603692125984255
11
5.7552961417322832
21
-5.3599283070866139
0
LINE
8
BLACK
6
CONTINUOUS
10
5.7552961417322832
20
-5.3599283070866139
11
5.7544814960629918
21
-5.3591136614173225
0
LINE
8
BLACK
6
CONTINUOUS
10
5.7544814960629918
20
-5.3591136614173225
11
5.7540405905511811
21
-5.3580492519685041
0
LINE
8
BLACK
6
CONTINUOUS
10
5.7540405905511811
20
-5.3580492519685041
11
5.7539879921259844
21
-5.3210354330708665
0
LINE
8
BLACK
6
CONTINUOUS
10
5.7539879921259844
20
-5.3210354330708665
11
5.745688031496063
21
-5.321055866141732
0
LINE
8
BLACK
6
CONTINUOUS
10
5.745688031496063
20
-5.321055866141732
11
5.7451119685039371
21
-5.3209991338582672
0
LINE
8
BLACK
6
CONTINUOUS
10
5.7451119685039371
20
-5.3209991338582672
11
5.7440475590551179
21
-5.3205582283464565
0
LINE
8
BLACK
6
CONTINUOUS
10
5.7440475590551179
20
-5.3205582283464565
11
5.7432329133858264
21
-5.3197435826771651
0
LINE
8
BLACK
6
CONTINUOUS
10
5.7432329133858264
20
-5.3197435826771651
11
5.7427920078740158
21
-5.3186791732283467
0
LINE
8
BLACK
6
CONTINUOUS
10
5.7427920078740158
20
-5.3186791732283467
11
5.7427920078740158
21
-5.3175270472440941
0
LINE
8
BLACK
6
CONTINUOUS
10
5.7427920078740158
20
-5.3175270472440941
11
5.7432329133858264
21
-5.3164626377952757
0
LINE
8
BLACK
6
CONTINUOUS
10
5.7432329133858264
20
-5.3164626377952757
11
5.7440475590551179
21
-5.3156479921259843
0
LINE
8
BLACK
6
CONTINUOUS
10
5.7440475590551179
20
-5.3156479921259843
11
5.7451119685039371
21
-5.3152070866141727
0
LINE
8
BLACK
6
CONTINUOUS
10
5.7451119685039371
20
-5.3152070866141727
11
5.7681851968503937
21
-5.3151503543307088
0
LINE
8
BLACK
6
CONTINUOUS
10
5.7681851968503937
20
-5.3151503543307088
11
5.7687612598425195
21
-5.3152070866141727
  0
ENDSEC
  0
EOF
