<?xml version='1.0' encoding='ASCII' standalone='yes'?>
<svg xmlns:svg="http://www.w3.org/2000/svg" xmlns="http://www.w3.org/2000/svg" xmlns:xlink="http://www.w3.org/1999/xlink" version="1.1" width="297.0022mm" height="210.0072mm" viewBox="0.0000 0.0000 297.0022 210.0072">
<title>SVG Image created as TFESC02-B_Fab.svg date 2024/07/20 14:58:45 </title>
  <desc>Image generated by PCBNEW </desc>
<g style="fill:#000084; fill-opacity:1.0000;stroke:#000084; stroke-opacity:1.0000; stroke-linecap:round; stroke-linejoin:round;" transform="translate(0 0) scale(1 1)">
</g>
<g style="fill:none;  stroke:#000084; stroke-width:0.6992; stroke-opacity:1;  stroke-linecap:round; stroke-linejoin:round;">
<text x="96.2924" y="38.9270" textLength="28.6903" font-size="6.2153" lengthAdjust="spacingAndGlyphs" text-anchor="middle" opacity="0">Fiducial</text>
<g class="stroked-text"><desc>Fiducial</desc>
<path d="M85.1937 36.2747 L83.6398 36.2747 "/>
<path d="M83.6398 38.7164 L83.6398 34.0549 "/>
<path d="M83.6398 34.0549 L85.8596 34.0549 "/>
<path d="M87.6354 38.7164 L87.6354 35.6087 "/>
<path d="M87.6354 34.0549 L87.4134 34.2769 "/>
<path d="M87.4134 34.2769 L87.6354 34.4989 "/>
<path d="M87.6354 34.4989 L87.8574 34.2769 "/>
<path d="M87.8574 34.2769 L87.6354 34.0549 "/>
<path d="M87.6354 34.0549 L87.6354 34.4989 "/>
<path d="M91.8529 38.7164 L91.8529 34.0549 "/>
<path d="M91.8529 38.4944 L91.4090 38.7164 "/>
<path d="M91.4090 38.7164 L90.5211 38.7164 "/>
<path d="M90.5211 38.7164 L90.0771 38.4944 "/>
<path d="M90.0771 38.4944 L89.8552 38.2725 "/>
<path d="M89.8552 38.2725 L89.6332 37.8285 "/>
<path d="M89.6332 37.8285 L89.6332 36.4966 "/>
<path d="M89.6332 36.4966 L89.8552 36.0527 "/>
<path d="M89.8552 36.0527 L90.0771 35.8307 "/>
<path d="M90.0771 35.8307 L90.5211 35.6087 "/>
<path d="M90.5211 35.6087 L91.4090 35.6087 "/>
<path d="M91.4090 35.6087 L91.8529 35.8307 "/>
<path d="M96.0705 35.6087 L96.0705 38.7164 "/>
<path d="M94.0727 35.6087 L94.0727 38.0505 "/>
<path d="M94.0727 38.0505 L94.2947 38.4944 "/>
<path d="M94.2947 38.4944 L94.7386 38.7164 "/>
<path d="M94.7386 38.7164 L95.4045 38.7164 "/>
<path d="M95.4045 38.7164 L95.8485 38.4944 "/>
<path d="M95.8485 38.4944 L96.0705 38.2725 "/>
<path d="M100.2880 38.4944 L99.8441 38.7164 "/>
<path d="M99.8441 38.7164 L98.9562 38.7164 "/>
<path d="M98.9562 38.7164 L98.5122 38.4944 "/>
<path d="M98.5122 38.4944 L98.2902 38.2725 "/>
<path d="M98.2902 38.2725 L98.0682 37.8285 "/>
<path d="M98.0682 37.8285 L98.0682 36.4966 "/>
<path d="M98.0682 36.4966 L98.2902 36.0527 "/>
<path d="M98.2902 36.0527 L98.5122 35.8307 "/>
<path d="M98.5122 35.8307 L98.9562 35.6087 "/>
<path d="M98.9562 35.6087 L99.8441 35.6087 "/>
<path d="M99.8441 35.6087 L100.2880 35.8307 "/>
<path d="M102.2858 38.7164 L102.2858 35.6087 "/>
<path d="M102.2858 34.0549 L102.0638 34.2769 "/>
<path d="M102.0638 34.2769 L102.2858 34.4989 "/>
<path d="M102.2858 34.4989 L102.5078 34.2769 "/>
<path d="M102.5078 34.2769 L102.2858 34.0549 "/>
<path d="M102.2858 34.0549 L102.2858 34.4989 "/>
<path d="M106.5033 38.7164 L106.5033 36.2747 "/>
<path d="M106.5033 36.2747 L106.2813 35.8307 "/>
<path d="M106.2813 35.8307 L105.8374 35.6087 "/>
<path d="M105.8374 35.6087 L104.9495 35.6087 "/>
<path d="M104.9495 35.6087 L104.5055 35.8307 "/>
<path d="M106.5033 38.4944 L106.0594 38.7164 "/>
<path d="M106.0594 38.7164 L104.9495 38.7164 "/>
<path d="M104.9495 38.7164 L104.5055 38.4944 "/>
<path d="M104.5055 38.4944 L104.2836 38.0505 "/>
<path d="M104.2836 38.0505 L104.2836 37.6065 "/>
<path d="M104.2836 37.6065 L104.5055 37.1626 "/>
<path d="M104.5055 37.1626 L104.9495 36.9406 "/>
<path d="M104.9495 36.9406 L106.0594 36.9406 "/>
<path d="M106.0594 36.9406 L106.5033 36.7186 "/>
<path d="M109.3890 38.7164 L108.9451 38.4944 "/>
<path d="M108.9451 38.4944 L108.7231 38.0505 "/>
<path d="M108.7231 38.0505 L108.7231 34.0549 "/>
</g></g>
<g style="fill:none;  stroke:#000084; stroke-width:0.1865; stroke-opacity:1;  stroke-linecap:round; stroke-linejoin:round;">
<text x="96.2924" y="30.0702" textLength="3.4362" font-size="1.2431" lengthAdjust="spacingAndGlyphs" text-anchor="middle" opacity="0">FID2</text>
<g class="stroked-text"><desc>FID2</desc>
<path d="M95.2936 29.5373 L94.9828 29.5373 "/>
<path d="M94.9828 30.0256 L94.9828 29.0933 "/>
<path d="M94.9828 29.0933 L95.4267 29.0933 "/>
<path d="M95.7819 30.0256 L95.7819 29.0933 "/>
<path d="M96.2259 30.0256 L96.2259 29.0933 "/>
<path d="M96.2259 29.0933 L96.4478 29.0933 "/>
<path d="M96.4478 29.0933 L96.5810 29.1377 "/>
<path d="M96.5810 29.1377 L96.6698 29.2265 "/>
<path d="M96.6698 29.2265 L96.7142 29.3153 "/>
<path d="M96.7142 29.3153 L96.7586 29.4929 "/>
<path d="M96.7586 29.4929 L96.7586 29.6261 "/>
<path d="M96.7586 29.6261 L96.7142 29.8037 "/>
<path d="M96.7142 29.8037 L96.6698 29.8925 "/>
<path d="M96.6698 29.8925 L96.5810 29.9813 "/>
<path d="M96.5810 29.9813 L96.4478 30.0256 "/>
<path d="M96.4478 30.0256 L96.2259 30.0256 "/>
<path d="M97.1138 29.1821 L97.1582 29.1377 "/>
<path d="M97.1582 29.1377 L97.2469 29.0933 "/>
<path d="M97.2469 29.0933 L97.4689 29.0933 "/>
<path d="M97.4689 29.0933 L97.5577 29.1377 "/>
<path d="M97.5577 29.1377 L97.6021 29.1821 "/>
<path d="M97.6021 29.1821 L97.6465 29.2709 "/>
<path d="M97.6465 29.2709 L97.6465 29.3597 "/>
<path d="M97.6465 29.3597 L97.6021 29.4929 "/>
<path d="M97.6021 29.4929 L97.0694 30.0256 "/>
<path d="M97.0694 30.0256 L97.6465 30.0256 "/>
</g></g>
<g style="fill:none;  stroke:#000084; stroke-width:0.4661; stroke-opacity:1;  stroke-linecap:round; stroke-linejoin:round;">
<text x="149.6665" y="162.9226" textLength="23.7381" font-size="4.9722" lengthAdjust="spacingAndGlyphs" text-anchor="middle" opacity="0">EXT CLK</text>
<g class="stroked-text"><desc>EXT CLK</desc>
<path d="M139.0116 160.8055 L140.2547 160.8055 "/>
<path d="M140.7874 162.7589 L139.0116 162.7589 "/>
<path d="M139.0116 162.7589 L139.0116 159.0297 "/>
<path d="M139.0116 159.0297 L140.7874 159.0297 "/>
<path d="M142.0305 159.0297 L144.5166 162.7589 "/>
<path d="M144.5166 159.0297 L142.0305 162.7589 "/>
<path d="M145.4045 159.0297 L147.5355 159.0297 "/>
<path d="M146.4700 162.7589 L146.4700 159.0297 "/>
<path d="M153.7508 162.4038 L153.5732 162.5814 "/>
<path d="M153.5732 162.5814 L153.0405 162.7589 "/>
<path d="M153.0405 162.7589 L152.6853 162.7589 "/>
<path d="M152.6853 162.7589 L152.1526 162.5814 "/>
<path d="M152.1526 162.5814 L151.7974 162.2262 "/>
<path d="M151.7974 162.2262 L151.6199 161.8710 "/>
<path d="M151.6199 161.8710 L151.4423 161.1607 "/>
<path d="M151.4423 161.1607 L151.4423 160.6280 "/>
<path d="M151.4423 160.6280 L151.6199 159.9176 "/>
<path d="M151.6199 159.9176 L151.7974 159.5625 "/>
<path d="M151.7974 159.5625 L152.1526 159.2073 "/>
<path d="M152.1526 159.2073 L152.6853 159.0297 "/>
<path d="M152.6853 159.0297 L153.0405 159.0297 "/>
<path d="M153.0405 159.0297 L153.5732 159.2073 "/>
<path d="M153.5732 159.2073 L153.7508 159.3849 "/>
<path d="M157.1249 162.7589 L155.3491 162.7589 "/>
<path d="M155.3491 162.7589 L155.3491 159.0297 "/>
<path d="M158.3679 162.7589 L158.3679 159.0297 "/>
<path d="M160.4989 162.7589 L158.9007 160.6280 "/>
<path d="M160.4989 159.0297 L158.3679 161.1607 "/>
</g></g>
<g style="fill:none;  stroke:#000084; stroke-width:0.6992; stroke-opacity:1;  stroke-linecap:round; stroke-linejoin:round;">
<text x="149.6665" y="147.5397" textLength="13.8180" font-size="6.2153" lengthAdjust="spacingAndGlyphs" text-anchor="middle" opacity="0">TP1</text>
<g class="stroked-text"><desc>TP1</desc>
<path d="M143.7841 142.6676 L146.4478 142.6676 "/>
<path d="M145.1160 147.3291 L145.1160 142.6676 "/>
<path d="M148.0017 147.3291 L148.0017 142.6676 "/>
<path d="M148.0017 142.6676 L149.7775 142.6676 "/>
<path d="M149.7775 142.6676 L150.2214 142.8895 "/>
<path d="M150.2214 142.8895 L150.4434 143.1115 "/>
<path d="M150.4434 143.1115 L150.6654 143.5555 "/>
<path d="M150.6654 143.5555 L150.6654 144.2214 "/>
<path d="M150.6654 144.2214 L150.4434 144.6654 "/>
<path d="M150.4434 144.6654 L150.2214 144.8873 "/>
<path d="M150.2214 144.8873 L149.7775 145.1093 "/>
<path d="M149.7775 145.1093 L148.0017 145.1093 "/>
<path d="M155.1049 147.3291 L152.4412 147.3291 "/>
<path d="M153.7730 147.3291 L153.7730 142.6676 "/>
<path d="M153.7730 142.6676 L153.3291 143.3335 "/>
<path d="M153.3291 143.3335 L152.8851 143.7774 "/>
<path d="M152.8851 143.7774 L152.4412 143.9994 "/>
</g><text x="174.6054" y="172.5952" textLength="28.6903" font-size="6.2153" lengthAdjust="spacingAndGlyphs" text-anchor="middle" opacity="0">Fiducial</text>
<g class="stroked-text"><desc>Fiducial</desc>
<path d="M163.5066 169.9428 L161.9528 169.9428 "/>
<path d="M161.9528 172.3846 L161.9528 167.7231 "/>
<path d="M161.9528 167.7231 L164.1726 167.7231 "/>
<path d="M165.9484 172.3846 L165.9484 169.2769 "/>
<path d="M165.9484 167.7231 L165.7264 167.9450 "/>
<path d="M165.7264 167.9450 L165.9484 168.1670 "/>
<path d="M165.9484 168.1670 L166.1704 167.9450 "/>
<path d="M166.1704 167.9450 L165.9484 167.7231 "/>
<path d="M165.9484 167.7231 L165.9484 168.1670 "/>
<path d="M170.1659 172.3846 L170.1659 167.7231 "/>
<path d="M170.1659 172.1626 L169.7220 172.3846 "/>
<path d="M169.7220 172.3846 L168.8341 172.3846 "/>
<path d="M168.8341 172.3846 L168.3901 172.1626 "/>
<path d="M168.3901 172.1626 L168.1681 171.9406 "/>
<path d="M168.1681 171.9406 L167.9462 171.4966 "/>
<path d="M167.9462 171.4966 L167.9462 170.1648 "/>
<path d="M167.9462 170.1648 L168.1681 169.7208 "/>
<path d="M168.1681 169.7208 L168.3901 169.4989 "/>
<path d="M168.3901 169.4989 L168.8341 169.2769 "/>
<path d="M168.8341 169.2769 L169.7220 169.2769 "/>
<path d="M169.7220 169.2769 L170.1659 169.4989 "/>
<path d="M174.3835 169.2769 L174.3835 172.3846 "/>
<path d="M172.3857 169.2769 L172.3857 171.7186 "/>
<path d="M172.3857 171.7186 L172.6076 172.1626 "/>
<path d="M172.6076 172.1626 L173.0516 172.3846 "/>
<path d="M173.0516 172.3846 L173.7175 172.3846 "/>
<path d="M173.7175 172.3846 L174.1615 172.1626 "/>
<path d="M174.1615 172.1626 L174.3835 171.9406 "/>
<path d="M178.6010 172.1626 L178.1570 172.3846 "/>
<path d="M178.1570 172.3846 L177.2691 172.3846 "/>
<path d="M177.2691 172.3846 L176.8252 172.1626 "/>
<path d="M176.8252 172.1626 L176.6032 171.9406 "/>
<path d="M176.6032 171.9406 L176.3812 171.4966 "/>
<path d="M176.3812 171.4966 L176.3812 170.1648 "/>
<path d="M176.3812 170.1648 L176.6032 169.7208 "/>
<path d="M176.6032 169.7208 L176.8252 169.4989 "/>
<path d="M176.8252 169.4989 L177.2691 169.2769 "/>
<path d="M177.2691 169.2769 L178.1570 169.2769 "/>
<path d="M178.1570 169.2769 L178.6010 169.4989 "/>
<path d="M180.5988 172.3846 L180.5988 169.2769 "/>
<path d="M180.5988 167.7231 L180.3768 167.9450 "/>
<path d="M180.3768 167.9450 L180.5988 168.1670 "/>
<path d="M180.5988 168.1670 L180.8207 167.9450 "/>
<path d="M180.8207 167.9450 L180.5988 167.7231 "/>
<path d="M180.5988 167.7231 L180.5988 168.1670 "/>
<path d="M184.8163 172.3846 L184.8163 169.9428 "/>
<path d="M184.8163 169.9428 L184.5943 169.4989 "/>
<path d="M184.5943 169.4989 L184.1504 169.2769 "/>
<path d="M184.1504 169.2769 L183.2625 169.2769 "/>
<path d="M183.2625 169.2769 L182.8185 169.4989 "/>
<path d="M184.8163 172.1626 L184.3724 172.3846 "/>
<path d="M184.3724 172.3846 L183.2625 172.3846 "/>
<path d="M183.2625 172.3846 L182.8185 172.1626 "/>
<path d="M182.8185 172.1626 L182.5965 171.7186 "/>
<path d="M182.5965 171.7186 L182.5965 171.2747 "/>
<path d="M182.5965 171.2747 L182.8185 170.8307 "/>
<path d="M182.8185 170.8307 L183.2625 170.6087 "/>
<path d="M183.2625 170.6087 L184.3724 170.6087 "/>
<path d="M184.3724 170.6087 L184.8163 170.3868 "/>
<path d="M187.7020 172.3846 L187.2580 172.1626 "/>
<path d="M187.2580 172.1626 L187.0361 171.7186 "/>
<path d="M187.0361 171.7186 L187.0361 167.7231 "/>
</g></g>
<g style="fill:none;  stroke:#000084; stroke-width:0.1865; stroke-opacity:1;  stroke-linecap:round; stroke-linejoin:round;">
<text x="174.6054" y="163.7383" textLength="3.4362" font-size="1.2431" lengthAdjust="spacingAndGlyphs" text-anchor="middle" opacity="0">FID1</text>
<g class="stroked-text"><desc>FID1</desc>
<path d="M173.6065 163.2054 L173.2958 163.2054 "/>
<path d="M173.2958 163.6938 L173.2958 162.7615 "/>
<path d="M173.2958 162.7615 L173.7397 162.7615 "/>
<path d="M174.0949 163.6938 L174.0949 162.7615 "/>
<path d="M174.5388 163.6938 L174.5388 162.7615 "/>
<path d="M174.5388 162.7615 L174.7608 162.7615 "/>
<path d="M174.7608 162.7615 L174.8940 162.8059 "/>
<path d="M174.8940 162.8059 L174.9828 162.8947 "/>
<path d="M174.9828 162.8947 L175.0272 162.9835 "/>
<path d="M175.0272 162.9835 L175.0716 163.1610 "/>
<path d="M175.0716 163.1610 L175.0716 163.2942 "/>
<path d="M175.0716 163.2942 L175.0272 163.4718 "/>
<path d="M175.0272 163.4718 L174.9828 163.5606 "/>
<path d="M174.9828 163.5606 L174.8940 163.6494 "/>
<path d="M174.8940 163.6494 L174.7608 163.6938 "/>
<path d="M174.7608 163.6938 L174.5388 163.6938 "/>
<path d="M175.9595 163.6938 L175.4267 163.6938 "/>
<path d="M175.6931 163.6938 L175.6931 162.7615 "/>
<path d="M175.6931 162.7615 L175.6043 162.8947 "/>
<path d="M175.6043 162.8947 L175.5155 162.9835 "/>
<path d="M175.5155 162.9835 L175.4267 163.0279 "/>
</g></g>
<g style="fill:none;  stroke:#000084; stroke-width:0.4661; stroke-opacity:1;  stroke-linecap:round; stroke-linejoin:round;">
<circle cx="96.2924" cy="29.6040" r="2.3307"/> 
<circle cx="174.6054" cy="163.2722" r="2.3307"/> 
</g> 
<svg:g><svg:g><svg:title>SVG Image created as TFESC02-Edge_Cuts.svg date 2024/07/20 14:58:45 </svg:title>
  <svg:desc>Image generated by PCBNEW </svg:desc>
<svg:g style="fill:#C2C200; fill-opacity:1.0000;stroke:#C2C200; stroke-opacity:1.0000; stroke-linecap:round; stroke-linejoin:round;" transform="translate(0 0) scale(1 1)">
<svg:path style="fill:none;  stroke:#C2C200; stroke-width:0.2331; stroke-opacity:1;  stroke-linecap:round; stroke-linejoin:round;fill:none" d="M 253.3846,0.1201 43.6176,0.1201 43.6176,209.8871 253.3846,209.8871 Z"/> 
</svg:g> 
</svg:g></svg:g></svg>
