<?xml version='1.0' encoding='ASCII' standalone='yes'?>
<svg xmlns:svg="http://www.w3.org/2000/svg" xmlns="http://www.w3.org/2000/svg" xmlns:xlink="http://www.w3.org/1999/xlink" version="1.1" width="297.0022mm" height="210.0072mm" viewBox="0.0000 0.0000 297.0022 210.0072">
<title>SVG Image created as TFESC02-B_Fab.svg date 2024/07/16 18:54:12 </title>
  <desc>Image generated by PCBNEW </desc>
<g style="fill:#000084; fill-opacity:1.0000;stroke:#000084; stroke-opacity:1.0000; stroke-linecap:round; stroke-linejoin:round;" transform="translate(0 0) scale(1 1)">
</g>
<g style="fill:none;  stroke:#000084; stroke-width:0.4661; stroke-opacity:1;  stroke-linecap:round; stroke-linejoin:round;">
<text x="149.6665" y="162.9226" textLength="23.7381" font-size="4.9722" lengthAdjust="spacingAndGlyphs" text-anchor="middle" opacity="0">EXT CLK</text>
<g class="stroked-text"><desc>EXT CLK</desc>
<path d="M139.0116 160.8055 L140.2547 160.8055 "/>
<path d="M140.7874 162.7589 L139.0116 162.7589 "/>
<path d="M139.0116 162.7589 L139.0116 159.0297 "/>
<path d="M139.0116 159.0297 L140.7874 159.0297 "/>
<path d="M142.0305 159.0297 L144.5166 162.7589 "/>
<path d="M144.5166 159.0297 L142.0305 162.7589 "/>
<path d="M145.4045 159.0297 L147.5355 159.0297 "/>
<path d="M146.4700 162.7589 L146.4700 159.0297 "/>
<path d="M153.7508 162.4038 L153.5732 162.5814 "/>
<path d="M153.5732 162.5814 L153.0405 162.7589 "/>
<path d="M153.0405 162.7589 L152.6853 162.7589 "/>
<path d="M152.6853 162.7589 L152.1526 162.5814 "/>
<path d="M152.1526 162.5814 L151.7974 162.2262 "/>
<path d="M151.7974 162.2262 L151.6199 161.8710 "/>
<path d="M151.6199 161.8710 L151.4423 161.1607 "/>
<path d="M151.4423 161.1607 L151.4423 160.6280 "/>
<path d="M151.4423 160.6280 L151.6199 159.9176 "/>
<path d="M151.6199 159.9176 L151.7974 159.5625 "/>
<path d="M151.7974 159.5625 L152.1526 159.2073 "/>
<path d="M152.1526 159.2073 L152.6853 159.0297 "/>
<path d="M152.6853 159.0297 L153.0405 159.0297 "/>
<path d="M153.0405 159.0297 L153.5732 159.2073 "/>
<path d="M153.5732 159.2073 L153.7508 159.3849 "/>
<path d="M157.1249 162.7589 L155.3491 162.7589 "/>
<path d="M155.3491 162.7589 L155.3491 159.0297 "/>
<path d="M158.3679 162.7589 L158.3679 159.0297 "/>
<path d="M160.4989 162.7589 L158.9007 160.6280 "/>
<path d="M160.4989 159.0297 L158.3679 161.1607 "/>
</g></g>
<g style="fill:none;  stroke:#000084; stroke-width:0.6992; stroke-opacity:1;  stroke-linecap:round; stroke-linejoin:round;">
<text x="149.6665" y="147.5397" textLength="13.8180" font-size="6.2153" lengthAdjust="spacingAndGlyphs" text-anchor="middle" opacity="0">TP1</text>
<g class="stroked-text"><desc>TP1</desc>
<path d="M143.7841 142.6676 L146.4478 142.6676 "/>
<path d="M145.1160 147.3291 L145.1160 142.6676 "/>
<path d="M148.0017 147.3291 L148.0017 142.6676 "/>
<path d="M148.0017 142.6676 L149.7775 142.6676 "/>
<path d="M149.7775 142.6676 L150.2214 142.8895 "/>
<path d="M150.2214 142.8895 L150.4434 143.1115 "/>
<path d="M150.4434 143.1115 L150.6654 143.5555 "/>
<path d="M150.6654 143.5555 L150.6654 144.2214 "/>
<path d="M150.6654 144.2214 L150.4434 144.6654 "/>
<path d="M150.4434 144.6654 L150.2214 144.8873 "/>
<path d="M150.2214 144.8873 L149.7775 145.1093 "/>
<path d="M149.7775 145.1093 L148.0017 145.1093 "/>
<path d="M155.1049 147.3291 L152.4412 147.3291 "/>
<path d="M153.7730 147.3291 L153.7730 142.6676 "/>
<path d="M153.7730 142.6676 L153.3291 143.3335 "/>
<path d="M153.3291 143.3335 L152.8851 143.7774 "/>
<path d="M152.8851 143.7774 L152.4412 143.9994 "/>
</g></g> 
<svg:g><svg:g><svg:title>SVG Image created as TFESC02-Edge_Cuts.svg date 2024/07/16 18:54:12 </svg:title>
  <svg:desc>Image generated by PCBNEW </svg:desc>
<svg:g style="fill:#C2C200; fill-opacity:1.0000;stroke:#C2C200; stroke-opacity:1.0000; stroke-linecap:round; stroke-linejoin:round;" transform="translate(0 0) scale(1 1)">
<svg:path style="fill:none;  stroke:#C2C200; stroke-width:0.2331; stroke-opacity:1;  stroke-linecap:round; stroke-linejoin:round;fill:none" d="M 253.3846,0.1201 43.6176,0.1201 43.6176,209.8871 253.3846,209.8871 Z"/> 
</svg:g> 
</svg:g></svg:g></svg>
