<!DOCTYPE svg PUBLIC "-//W3C//DTD SVG 1.1//EN" "http://www.w3.org/Graphics/SVG/1.1/DTD/svg11.dtd">
<svg xmlns="http://www.w3.org/2000/svg" version="1.1" width="95.25mm" height="61.25mm" viewBox="-180.525 51.075 95.25 61.25">
            <title>Picture generated by PcbDraw </title>
            <desc>Picture generated by PcbDraw</desc>
        <defs><clipPath id="cut-off"><path d="M90.3000 107.3000 L90.3000 56.1000 M 175.5 56.1 L 175.5 107.3 L 90.3 107.3 L 90.3 56.1 L 175.5 56.1 " style="fill-rule: evenodd;"/></clipPath><mask id="pads-mask"><g style="fill:#ffffff; fill-opacity:1.0000; stroke:none;">
<circle cx="99.6000" cy="83.7000" r="0.7000"/> 
</g>
<g style="fill:#ffffff; fill-opacity:1.0000; stroke:none;">
<circle cx="99.6000" cy="72.7000" r="0.7000"/> 
<path style="fill:#ffffff; fill-opacity:1.0000; stroke:none;fill-rule:evenodd;" d="M 111.3500,77.4500 107.8500,77.4500 107.8500,73.9500 111.3500,73.9500 Z"/> 
</g>
<g style="fill:#ffffff; fill-opacity:1.0000; stroke:none;">
<circle cx="109.6000" cy="80.7000" r="1.7500"/> 
</g> 
</mask><mask id="pads-mask-silkscreen"><rect x="90.275" y="56.075" width="85.25" height="51.25" fill="white"/><g style="fill:#000000; fill-opacity:1.0000; stroke:none;">
<circle cx="99.6000" cy="83.7000" r="0.7000"/> 
</g>
<g style="fill:#000000; fill-opacity:1.0000; stroke:none;">
<circle cx="99.6000" cy="72.7000" r="0.7000"/> 
<path style="fill:#000000; fill-opacity:1.0000; stroke:none;fill-rule:evenodd;" d="M 111.3500,77.4500 107.8500,77.4500 107.8500,73.9500 111.3500,73.9500 Z"/> 
</g>
<g style="fill:#000000; fill-opacity:1.0000; stroke:none;">
<circle cx="109.6000" cy="80.7000" r="1.7500"/> 
</g> 
</mask><mask id="hole-mask"><g><rect x="90.275" y="56.075" fill="white" width="85.25" height="51.25"/><polyline stroke-linecap="round" stroke="black" stroke-width="1.0" points="-0.0 0 0.0 0" transform="translate(99.6 83.7) rotate(-90.0)"/><polyline stroke-linecap="round" stroke="black" stroke-width="1.0" points="-0.0 0 0.0 0" transform="translate(99.6 72.7) rotate(-90.0)"/><polyline stroke-linecap="round" stroke="black" stroke-width="1.9" points="-0.0 0 0.0 0" transform="translate(109.6 75.7) rotate(-90.0)"/><polyline stroke-linecap="round" stroke="black" stroke-width="1.9" points="-0.0 0 0.0 0" transform="translate(109.6 80.7) rotate(-90.0)"/></g></mask></defs><g transform="scale(-1,1)" id="boardContainer"><g id="substrate" clip-path="url(#cut-off)" mask="url(#hole-mask)"><g id="substrate-board" style="fill:#F6DE39; stroke:#F6DE39;"><path d="M90.3000 107.3000 L90.3000 56.1000 M 175.5 56.1 L 175.5 107.3 L 90.3 107.3 L 90.3 56.1 L 175.5 56.1 " style="fill-rule: evenodd;"/><g style="fill: #F6DE39;fill-opacity: 1.0000;stroke: #F6DE39;stroke-opacity: 1.0000;stroke-linecap: round;stroke-linejoin: round" transform="translate(0 0) scale(1 1)">
<path style="fill: none;stroke: #F6DE39;stroke-width: 0.0500;stroke-opacity: 1;stroke-linecap: round;stroke-linejoin: round" d="M 90.3000,56.1000 175.5000,56.1000 175.5000,107.3000 90.3000,107.3000 Z"/> 
</g> 
</g><g id="substrate-clad" style="fill:#72786c; stroke:#72786c;"><g style="fill: #72786c;fill-opacity: 1.0000;stroke: none">
<circle cx="99.6000" cy="83.7000" r="0.7000"/> 
</g>
<g style="fill: #72786c;fill-opacity: 1.0000;stroke: none">
<circle cx="99.6000" cy="72.7000" r="0.7000"/> 
<path style="fill: #72786c;fill-opacity: 1.0000;stroke: none;fill-rule: evenodd" d="M 111.3500,77.4500 107.8500,77.4500 107.8500,73.9500 111.3500,73.9500 Z"/> 
</g>
<g style="fill: #72786c;fill-opacity: 1.0000;stroke: none">
<circle cx="109.6000" cy="80.7000" r="1.7500"/> 
</g> 
</g><g id="substrate-copper" style="fill:#E0CA32; stroke:#E0CA32;"><g style="fill: #E0CA32;fill-opacity: 1.0000;stroke: none">
<circle cx="99.6000" cy="83.7000" r="0.7000"/> 
</g>
<g style="fill: #E0CA32;fill-opacity: 1.0000;stroke: none">
<circle cx="99.6000" cy="72.7000" r="0.7000"/> 
<path style="fill: #E0CA32;fill-opacity: 1.0000;stroke: none;fill-rule: evenodd" d="M 111.3500,77.4500 107.8500,77.4500 107.8500,73.9500 111.3500,73.9500 Z"/> 
</g>
<g style="fill: #E0CA32;fill-opacity: 1.0000;stroke: none">
<circle cx="109.6000" cy="80.7000" r="1.7500"/> 
</g> 
</g><g id="substrate-pads" style="fill:#E0DAD5; stroke:#E0DAD5;" mask="url(#pads-mask)"><g style="fill: #E0DAD5;fill-opacity: 1.0000;stroke: none">
<circle cx="99.6000" cy="83.7000" r="0.7000"/> 
</g>
<g style="fill: #E0DAD5;fill-opacity: 1.0000;stroke: none">
<circle cx="99.6000" cy="72.7000" r="0.7000"/> 
<path style="fill: #E0DAD5;fill-opacity: 1.0000;stroke: none;fill-rule: evenodd" d="M 111.3500,77.4500 107.8500,77.4500 107.8500,73.9500 111.3500,73.9500 Z"/> 
</g>
<g style="fill: #E0DAD5;fill-opacity: 1.0000;stroke: none">
<circle cx="109.6000" cy="80.7000" r="1.7500"/> 
</g> 
</g><g id="substrate-outline" style="fill:#000000; stroke:#000000; stroke-width: 0.15"><g style="fill: #000000;fill-opacity: 1.0000;stroke: #000000;stroke-opacity: 1.0000;stroke-linecap: round;stroke-linejoin: round" transform="translate(0 0) scale(1 1)">
<path style="fill: none;stroke: #000000;stroke-width: #000000;stroke-opacity: 1;stroke-linecap: round;stroke-linejoin: round" d="M 90.3000,56.1000 175.5000,56.1000 175.5000,107.3000 90.3000,107.3000 Z"/> 
</g> 
<path d="M -0.5 0.0 A 0.5 0.5 0 1 1 0.5 0.0 L 0.5 -0.0 A 0.5 0.5 0 1 1 -0.5 -0.0 Z" transform="translate(99.6 83.7) rotate(-90.0)"/><path d="M -0.5 0.0 A 0.5 0.5 0 1 1 0.5 0.0 L 0.5 -0.0 A 0.5 0.5 0 1 1 -0.5 -0.0 Z" transform="translate(99.6 72.7) rotate(-90.0)"/><path d="M -0.95 0.0 A 0.95 0.95 0 1 1 0.95 0.0 L 0.95 -0.0 A 0.95 0.95 0 1 1 -0.95 -0.0 Z" transform="translate(109.6 75.7) rotate(-90.0)"/><path d="M -0.95 0.0 A 0.95 0.95 0 1 1 0.95 0.0 L 0.95 -0.0 A 0.95 0.95 0 1 1 -0.95 -0.0 Z" transform="translate(109.6 80.7) rotate(-90.0)"/></g></g></g><g transform="scale(-1,1)" id="componentContainer"><!--Capacitor_SMD:C_0603_1608Metric.back:C10--><!--Capacitor_SMD:C_0603_1608Metric.back:C11--><g transform="translate(128.05 84.91) scale(0.9999995454526861, 0.9999995454675615) rotate(-0.0) translate(-0.099995501 -0.10003144)"><use xmlns:xlink="http://www.w3.org/1999/xlink" xlink:href="#pref_12_Capacitor_SMD__C_0603_1608Metricback_1u25V"/></g><!--Resistor_SMD:R_0603_1608Metric.back:R13--><!--Capacitor_SMD:C_0603_1608Metric.back:C12--><g transform="translate(128.05 87.42) scale(0.9999995454526861, 0.9999995454675615) rotate(-0.0) translate(-0.099995501 -0.10003144)"><use xmlns:xlink="http://www.w3.org/1999/xlink" xlink:href="#pref_12_Capacitor_SMD__C_0603_1608Metricback_1u25V"/></g><!--Resistor_SMD:R_0603_1608Metric.back:R5--><!--Resistor_SMD:R_0603_1608Metric.back:R6--><!--Capacitor_SMD:C_0603_1608Metric.back:C2--><!--Resistor_SMD:R_0603_1608Metric.back:R7--><g transform="translate(132.06 87.42) scale(0.9999995454526861, 0.9999995454675615) rotate(-0.0) translate(-0.099995501 -0.10003144)"><use xmlns:xlink="http://www.w3.org/1999/xlink" xlink:href="#pref_12_Resistor_SMD__R_0603_1608Metricback_R_Small"/></g><!--Resistor_SMD:R_0603_1608Metric.back:R12--><g transform="translate(136.07 82.4) scale(0.9999995454526861, 0.9999995454675615) rotate(-0.0) translate(-0.099995501 -0.10003144)"><use xmlns:xlink="http://www.w3.org/1999/xlink" xlink:href="#pref_12_Resistor_SMD__R_0603_1608Metricback_10R"/></g><!--LED_SMD:LED_0603_1608Metric.back:D2--><!--Resistor_SMD:R_0603_1608Metric.back:R8--><g transform="translate(132.06 89.93) scale(0.9999995454526861, 0.9999995454675615) rotate(-0.0) translate(-0.099995501 -0.10003144)"><use xmlns:xlink="http://www.w3.org/1999/xlink" xlink:href="#pref_12_Resistor_SMD__R_0603_1608Metricback_10k"/></g><!--Resistor_SMD:R_0603_1608Metric.back:R9--><g transform="translate(132.06 92.44) scale(0.9999995454526861, 0.9999995454675615) rotate(-0.0) translate(-0.099995501 -0.10003144)"><use xmlns:xlink="http://www.w3.org/1999/xlink" xlink:href="#pref_12_Resistor_SMD__R_0603_1608Metricback_R_Small"/></g><!--Resistor_SMD:R_0603_1608Metric.back:R3--><g transform="translate(132.06 77.38) scale(0.9999995454526861, 0.9999995454675615) rotate(-0.0) translate(-0.099995501 -0.10003144)"><use xmlns:xlink="http://www.w3.org/1999/xlink" xlink:href="#pref_12_Resistor_SMD__R_0603_1608Metricback_R_Small"/></g><!--Capacitor_SMD:C_0603_1608Metric.back:C6--><!--Capacitor_SMD:C_0603_1608Metric.back:C9--><!--Capacitor_SMD:C_0603_1608Metric.back:C8--><g transform="translate(128.05 77.38) scale(0.9999995454526861, 0.9999995454675615) rotate(-0.0) translate(-0.099995501 -0.10003144)"><use xmlns:xlink="http://www.w3.org/1999/xlink" xlink:href="#pref_12_Capacitor_SMD__C_0603_1608Metricback_10u"/></g><!--Resistor_SMD:R_0603_1608Metric.back:R14--><g transform="translate(136.07 87.42) scale(0.9999995454526861, 0.9999995454675615) rotate(-0.0) translate(-0.099995501 -0.10003144)"><use xmlns:xlink="http://www.w3.org/1999/xlink" xlink:href="#pref_12_Resistor_SMD__R_0603_1608Metricback_10R"/></g><!--Capacitor_SMD:C_0603_1608Metric.back:C7--><g transform="translate(124.04 92.44) scale(0.9999995454526861, 0.9999995454675615) rotate(-0.0) translate(-0.099995501 -0.10003144)"><use xmlns:xlink="http://www.w3.org/1999/xlink" xlink:href="#pref_12_Capacitor_SMD__C_0603_1608Metricback_1u"/></g><!--LED_SMD:LED_0603_1608Metric.back:D4--><!--Capacitor_SMD:C_0603_1608Metric.back:C1--><!--Resistor_SMD:R_0603_1608Metric.back:R10--><g transform="translate(136.07 77.38) scale(0.9999995454526861, 0.9999995454675615) rotate(-0.0) translate(-0.099995501 -0.10003144)"><use xmlns:xlink="http://www.w3.org/1999/xlink" xlink:href="#pref_12_Resistor_SMD__R_0603_1608Metricback_10R"/></g><!--Capacitor_SMD:C_0603_1608Metric.back:C3--><!--Resistor_SMD:R_0603_1608Metric.back:R1--><g transform="translate(128.05 89.93) scale(0.9999995454526861, 0.9999995454675615) rotate(-0.0) translate(-0.099995501 -0.10003144)"><use xmlns:xlink="http://www.w3.org/1999/xlink" xlink:href="#pref_12_Resistor_SMD__R_0603_1608Metricback_R_Small"/></g><!--Package_TO_SOT_SMD:SOT-23-5.back:U1--><!--LED_SMD:LED_0603_1608Metric.back:D5--><!--Capacitor_SMD:C_0603_1608Metric.back:C8--><g transform="translate(139.425 82.2) scale(0.9999995454526861, 0.9999995454675615) rotate(-180.0) translate(-0.099995501 -0.10003144)"><use xmlns:xlink="http://www.w3.org/1999/xlink" xlink:href="#pref_12_Capacitor_SMD__C_0603_1608Metricback_10u"/></g><!--Resistor_SMD:R_0603_1608Metric.back:R15--><g transform="translate(136.07 89.93) scale(0.9999995454526861, 0.9999995454675615) rotate(-0.0) translate(-0.099995501 -0.10003144)"><use xmlns:xlink="http://www.w3.org/1999/xlink" xlink:href="#pref_12_Resistor_SMD__R_0603_1608Metricback_10R"/></g><!--Resistor_SMD:R_0603_1608Metric.back:R2--><g transform="translate(128.05 92.44) scale(0.9999995454526861, 0.9999995454675615) rotate(-0.0) translate(-0.099995501 -0.10003144)"><use xmlns:xlink="http://www.w3.org/1999/xlink" xlink:href="#pref_12_Resistor_SMD__R_0603_1608Metricback_R_Small"/></g><!--Diode_SMD:D_SOD-523.back:D3--><!--LED_SMD:LED_0603_1608Metric.back:D1--><!--Resistor_SMD:R_0603_1608Metric.back:R11--><g transform="translate(136.07 79.89) scale(0.9999995454526861, 0.9999995454675615) rotate(-0.0) translate(-0.099995501 -0.10003144)"><use xmlns:xlink="http://www.w3.org/1999/xlink" xlink:href="#pref_12_Resistor_SMD__R_0603_1608Metricback_10R"/></g><!--Resistor_SMD:R_0603_1608Metric.back:R4--><g transform="translate(132.06 79.89) scale(0.9999995454526861, 0.9999995454675615) rotate(-0.0) translate(-0.099995501 -0.10003144)"><use xmlns:xlink="http://www.w3.org/1999/xlink" xlink:href="#pref_12_Resistor_SMD__R_0603_1608Metricback_10k"/></g><!--Capacitor_SMD:C_0603_1608Metric.back:C4--><!--Capacitor_SMD:C_0603_1608Metric.back:C5--></g></svg>