%TF.GenerationSoftware,KiCad,Pcbnew,8.0.3+1*%
%TF.CreationDate,2024-07-15T22:27:20+00:00*%
%TF.ProjectId,TFESC02,54464553-4330-4322-9e6b-696361645f70,rev?*%
%TF.SameCoordinates,Original*%
%TF.FileFunction,Paste,Top*%
%TF.FilePolarity,Positive*%
%FSLAX46Y46*%
G04 Gerber Fmt 4.6, Leading zero omitted, Abs format (unit mm)*
G04 Created by KiCad (PCBNEW 8.0.3+1) date 2024-07-15 22:27:20*
%MOMM*%
%LPD*%
G01*
G04 APERTURE LIST*
G04 Aperture macros list*
%AMRoundRect*
0 Rectangle with rounded corners*
0 $1 Rounding radius*
0 $2 $3 $4 $5 $6 $7 $8 $9 X,Y pos of 4 corners*
0 Add a 4 corners polygon primitive as box body*
4,1,4,$2,$3,$4,$5,$6,$7,$8,$9,$2,$3,0*
0 Add four circle primitives for the rounded corners*
1,1,$1+$1,$2,$3*
1,1,$1+$1,$4,$5*
1,1,$1+$1,$6,$7*
1,1,$1+$1,$8,$9*
0 Add four rect primitives between the rounded corners*
20,1,$1+$1,$2,$3,$4,$5,0*
20,1,$1+$1,$4,$5,$6,$7,0*
20,1,$1+$1,$6,$7,$8,$9,0*
20,1,$1+$1,$8,$9,$2,$3,0*%
G04 Aperture macros list end*
%ADD10RoundRect,0.225000X-0.225000X-0.250000X0.225000X-0.250000X0.225000X0.250000X-0.225000X0.250000X0*%
%ADD11RoundRect,0.200000X-0.200000X-0.275000X0.200000X-0.275000X0.200000X0.275000X-0.200000X0.275000X0*%
%ADD12RoundRect,0.100000X-0.205000X-0.535000X0.205000X-0.535000X0.205000X0.535000X-0.205000X0.535000X0*%
%ADD13RoundRect,0.200000X-2.600000X-2.050000X2.600000X-2.050000X2.600000X2.050000X-2.600000X2.050000X0*%
%ADD14RoundRect,0.150000X-0.150000X-0.700000X0.150000X-0.700000X0.150000X0.700000X-0.150000X0.700000X0*%
%ADD15RoundRect,0.250000X-0.250000X-1.100000X0.250000X-1.100000X0.250000X1.100000X-0.250000X1.100000X0*%
%ADD16R,0.800000X0.200000*%
%ADD17R,0.200000X0.800000*%
%ADD18R,2.800000X3.800000*%
%ADD19RoundRect,0.218750X-0.218750X-0.256250X0.218750X-0.256250X0.218750X0.256250X-0.218750X0.256250X0*%
%ADD20RoundRect,0.250000X-0.312500X-0.625000X0.312500X-0.625000X0.312500X0.625000X-0.312500X0.625000X0*%
%ADD21RoundRect,0.150000X-0.512500X-0.150000X0.512500X-0.150000X0.512500X0.150000X-0.512500X0.150000X0*%
%ADD22RoundRect,0.225000X0.225000X0.250000X-0.225000X0.250000X-0.225000X-0.250000X0.225000X-0.250000X0*%
%ADD23RoundRect,0.150000X0.150000X0.200000X-0.150000X0.200000X-0.150000X-0.200000X0.150000X-0.200000X0*%
G04 APERTURE END LIST*
D10*
%TO.C,C10*%
X139650000Y-84600000D03*
X141200000Y-84600000D03*
%TD*%
%TO.C,C11*%
X127275000Y-84910000D03*
X128825000Y-84910000D03*
%TD*%
D11*
%TO.C,R13*%
X135245000Y-84910000D03*
X136895000Y-84910000D03*
%TD*%
D12*
%TO.C,Q5*%
X130030000Y-74996800D03*
X131300000Y-74996800D03*
X132570000Y-74996800D03*
X133840000Y-74996800D03*
D13*
X131935000Y-71288400D03*
%TD*%
D14*
%TO.C,J1*%
X151805000Y-62820000D03*
X153055000Y-62820000D03*
X154305000Y-62820000D03*
X155555000Y-62820000D03*
D15*
X149955000Y-66020000D03*
X157405000Y-66020000D03*
%TD*%
D10*
%TO.C,C12*%
X127275000Y-87420000D03*
X128825000Y-87420000D03*
%TD*%
D11*
%TO.C,R5*%
X131235000Y-82400000D03*
X132885000Y-82400000D03*
%TD*%
%TO.C,R6*%
X131235000Y-84910000D03*
X132885000Y-84910000D03*
%TD*%
D10*
%TO.C,C2*%
X123265000Y-79890000D03*
X124815000Y-79890000D03*
%TD*%
D12*
%TO.C,Q1*%
X130030000Y-67403400D03*
X131300000Y-67403400D03*
X132570000Y-67403400D03*
X133840000Y-67403400D03*
D13*
X131935000Y-63695000D03*
%TD*%
D11*
%TO.C,R7*%
X131235000Y-87420000D03*
X132885000Y-87420000D03*
%TD*%
D16*
%TO.C,IC1*%
X143200000Y-79200000D03*
X143200000Y-79600000D03*
X143200000Y-80000000D03*
X143200000Y-80400000D03*
X143200000Y-80800000D03*
X143200000Y-81200000D03*
X143200000Y-81600000D03*
X143200000Y-82000000D03*
X143200000Y-82400000D03*
X143200000Y-82800000D03*
D17*
X143800000Y-83500000D03*
X144200000Y-83500000D03*
X144600000Y-83500000D03*
X145000000Y-83500000D03*
X145400000Y-83500000D03*
X145800000Y-83500000D03*
X146200000Y-83500000D03*
X146600000Y-83500000D03*
D16*
X147200000Y-82800000D03*
X147200000Y-82400000D03*
X147200000Y-82000000D03*
X147200000Y-81600000D03*
X147200000Y-81200000D03*
X147200000Y-80800000D03*
X147200000Y-80400000D03*
X147200000Y-80000000D03*
X147200000Y-79600000D03*
X147200000Y-79200000D03*
D17*
X146600000Y-78500000D03*
X146200000Y-78500000D03*
X145800000Y-78500000D03*
X145400000Y-78500000D03*
X145000000Y-78500000D03*
X144600000Y-78500000D03*
X144200000Y-78500000D03*
X143800000Y-78500000D03*
D18*
X145200000Y-81000000D03*
%TD*%
D11*
%TO.C,R12*%
X135245000Y-82400000D03*
X136895000Y-82400000D03*
%TD*%
D19*
%TO.C,D2*%
X157182500Y-80010000D03*
X158757500Y-80010000D03*
%TD*%
D14*
%TO.C,J2*%
X141450000Y-94900000D03*
X142700000Y-94900000D03*
X143950000Y-94900000D03*
X145200000Y-94900000D03*
X146450000Y-94900000D03*
X147700000Y-94900000D03*
X148950000Y-94900000D03*
D15*
X139600000Y-98100000D03*
X150800000Y-98100000D03*
%TD*%
D11*
%TO.C,R8*%
X131235000Y-89930000D03*
X132885000Y-89930000D03*
%TD*%
D12*
%TO.C,Q3*%
X143230000Y-67403400D03*
X144500000Y-67403400D03*
X145770000Y-67403400D03*
X147040000Y-67403400D03*
D13*
X145135000Y-63695000D03*
%TD*%
D11*
%TO.C,R9*%
X131235000Y-92440000D03*
X132885000Y-92440000D03*
%TD*%
%TO.C,R3*%
X131235000Y-77380000D03*
X132885000Y-77380000D03*
%TD*%
D10*
%TO.C,C6*%
X123265000Y-89930000D03*
X124815000Y-89930000D03*
%TD*%
%TO.C,C9*%
X127275000Y-79890000D03*
X128825000Y-79890000D03*
%TD*%
D20*
%TO.C,R_SENSE1*%
X149777500Y-70040000D03*
X152702500Y-70040000D03*
%TD*%
D10*
%TO.C,C8*%
X127275000Y-77380000D03*
X128825000Y-77380000D03*
%TD*%
D11*
%TO.C,R14*%
X135245000Y-87420000D03*
X136895000Y-87420000D03*
%TD*%
D10*
%TO.C,C7*%
X123265000Y-92440000D03*
X124815000Y-92440000D03*
%TD*%
D19*
%TO.C,D4*%
X157182500Y-82600000D03*
X158757500Y-82600000D03*
%TD*%
D10*
%TO.C,C1*%
X123265000Y-77380000D03*
X124815000Y-77380000D03*
%TD*%
D11*
%TO.C,R10*%
X135245000Y-77380000D03*
X136895000Y-77380000D03*
%TD*%
D10*
%TO.C,C3*%
X123265000Y-82400000D03*
X124815000Y-82400000D03*
%TD*%
D12*
%TO.C,Q2*%
X136630000Y-67403400D03*
X137900000Y-67403400D03*
X139170000Y-67403400D03*
X140440000Y-67403400D03*
D13*
X138535000Y-63695000D03*
%TD*%
D12*
%TO.C,Q4*%
X123430000Y-74996800D03*
X124700000Y-74996800D03*
X125970000Y-74996800D03*
X127240000Y-74996800D03*
D13*
X125335000Y-71288400D03*
%TD*%
D11*
%TO.C,R1*%
X127225000Y-89930000D03*
X128875000Y-89930000D03*
%TD*%
D21*
%TO.C,U1*%
X155482500Y-69845000D03*
X155482500Y-70795000D03*
X155482500Y-71745000D03*
X157757500Y-71745000D03*
X157757500Y-69845000D03*
%TD*%
D19*
%TO.C,D5*%
X157182500Y-85190000D03*
X158757500Y-85190000D03*
%TD*%
D22*
%TO.C,C8*%
X140200000Y-82200000D03*
X138650000Y-82200000D03*
%TD*%
D11*
%TO.C,R15*%
X135245000Y-89930000D03*
X136895000Y-89930000D03*
%TD*%
%TO.C,R2*%
X127225000Y-92440000D03*
X128875000Y-92440000D03*
%TD*%
D12*
%TO.C,Q6*%
X136630000Y-74996800D03*
X137900000Y-74996800D03*
X139170000Y-74996800D03*
X140440000Y-74996800D03*
D13*
X138535000Y-71288400D03*
%TD*%
D23*
%TO.C,D3*%
X155165000Y-74240000D03*
X156565000Y-74240000D03*
%TD*%
D19*
%TO.C,D1*%
X157182500Y-77420000D03*
X158757500Y-77420000D03*
%TD*%
D11*
%TO.C,R11*%
X135245000Y-79890000D03*
X136895000Y-79890000D03*
%TD*%
%TO.C,R4*%
X131235000Y-79890000D03*
X132885000Y-79890000D03*
%TD*%
D10*
%TO.C,C4*%
X123265000Y-84910000D03*
X124815000Y-84910000D03*
%TD*%
%TO.C,C5*%
X123265000Y-87420000D03*
X124815000Y-87420000D03*
%TD*%
M02*
