%TF.GenerationSoftware,KiCad,Pcbnew,8.0.3+1*%
%TF.CreationDate,2024-07-16T10:30:10+00:00*%
%TF.ProjectId,TFESC02,54464553-4330-4322-9e6b-696361645f70,rev?*%
%TF.SameCoordinates,Original*%
%TF.FileFunction,Legend,Top*%
%TF.FilePolarity,Positive*%
%FSLAX46Y46*%
G04 Gerber Fmt 4.6, Leading zero omitted, Abs format (unit mm)*
G04 Created by KiCad (PCBNEW 8.0.3+1) date 2024-07-16 10:30:10*
%MOMM*%
%LPD*%
G01*
G04 APERTURE LIST*
%ADD10C,0.150000*%
%ADD11C,0.100000*%
%ADD12C,0.254000*%
%ADD13C,0.120000*%
%ADD14C,0.200000*%
G04 APERTURE END LIST*
D10*
X152329580Y-130367857D02*
X152377200Y-130415476D01*
X152377200Y-130415476D02*
X152424819Y-130558333D01*
X152424819Y-130558333D02*
X152424819Y-130653571D01*
X152424819Y-130653571D02*
X152377200Y-130796428D01*
X152377200Y-130796428D02*
X152281961Y-130891666D01*
X152281961Y-130891666D02*
X152186723Y-130939285D01*
X152186723Y-130939285D02*
X151996247Y-130986904D01*
X151996247Y-130986904D02*
X151853390Y-130986904D01*
X151853390Y-130986904D02*
X151662914Y-130939285D01*
X151662914Y-130939285D02*
X151567676Y-130891666D01*
X151567676Y-130891666D02*
X151472438Y-130796428D01*
X151472438Y-130796428D02*
X151424819Y-130653571D01*
X151424819Y-130653571D02*
X151424819Y-130558333D01*
X151424819Y-130558333D02*
X151472438Y-130415476D01*
X151472438Y-130415476D02*
X151520057Y-130367857D01*
X152424819Y-129415476D02*
X152424819Y-129986904D01*
X152424819Y-129701190D02*
X151424819Y-129701190D01*
X151424819Y-129701190D02*
X151567676Y-129796428D01*
X151567676Y-129796428D02*
X151662914Y-129891666D01*
X151662914Y-129891666D02*
X151710533Y-129986904D01*
X151424819Y-128796428D02*
X151424819Y-128701190D01*
X151424819Y-128701190D02*
X151472438Y-128605952D01*
X151472438Y-128605952D02*
X151520057Y-128558333D01*
X151520057Y-128558333D02*
X151615295Y-128510714D01*
X151615295Y-128510714D02*
X151805771Y-128463095D01*
X151805771Y-128463095D02*
X152043866Y-128463095D01*
X152043866Y-128463095D02*
X152234342Y-128510714D01*
X152234342Y-128510714D02*
X152329580Y-128558333D01*
X152329580Y-128558333D02*
X152377200Y-128605952D01*
X152377200Y-128605952D02*
X152424819Y-128701190D01*
X152424819Y-128701190D02*
X152424819Y-128796428D01*
X152424819Y-128796428D02*
X152377200Y-128891666D01*
X152377200Y-128891666D02*
X152329580Y-128939285D01*
X152329580Y-128939285D02*
X152234342Y-128986904D01*
X152234342Y-128986904D02*
X152043866Y-129034523D01*
X152043866Y-129034523D02*
X151805771Y-129034523D01*
X151805771Y-129034523D02*
X151615295Y-128986904D01*
X151615295Y-128986904D02*
X151520057Y-128939285D01*
X151520057Y-128939285D02*
X151472438Y-128891666D01*
X151472438Y-128891666D02*
X151424819Y-128796428D01*
X150166666Y-95179819D02*
X150166666Y-95894104D01*
X150166666Y-95894104D02*
X150119047Y-96036961D01*
X150119047Y-96036961D02*
X150023809Y-96132200D01*
X150023809Y-96132200D02*
X149880952Y-96179819D01*
X149880952Y-96179819D02*
X149785714Y-96179819D01*
X151119047Y-95179819D02*
X150642857Y-95179819D01*
X150642857Y-95179819D02*
X150595238Y-95656009D01*
X150595238Y-95656009D02*
X150642857Y-95608390D01*
X150642857Y-95608390D02*
X150738095Y-95560771D01*
X150738095Y-95560771D02*
X150976190Y-95560771D01*
X150976190Y-95560771D02*
X151071428Y-95608390D01*
X151071428Y-95608390D02*
X151119047Y-95656009D01*
X151119047Y-95656009D02*
X151166666Y-95751247D01*
X151166666Y-95751247D02*
X151166666Y-95989342D01*
X151166666Y-95989342D02*
X151119047Y-96084580D01*
X151119047Y-96084580D02*
X151071428Y-96132200D01*
X151071428Y-96132200D02*
X150976190Y-96179819D01*
X150976190Y-96179819D02*
X150738095Y-96179819D01*
X150738095Y-96179819D02*
X150642857Y-96132200D01*
X150642857Y-96132200D02*
X150595238Y-96084580D01*
X149657142Y-128989580D02*
X149609523Y-129037200D01*
X149609523Y-129037200D02*
X149466666Y-129084819D01*
X149466666Y-129084819D02*
X149371428Y-129084819D01*
X149371428Y-129084819D02*
X149228571Y-129037200D01*
X149228571Y-129037200D02*
X149133333Y-128941961D01*
X149133333Y-128941961D02*
X149085714Y-128846723D01*
X149085714Y-128846723D02*
X149038095Y-128656247D01*
X149038095Y-128656247D02*
X149038095Y-128513390D01*
X149038095Y-128513390D02*
X149085714Y-128322914D01*
X149085714Y-128322914D02*
X149133333Y-128227676D01*
X149133333Y-128227676D02*
X149228571Y-128132438D01*
X149228571Y-128132438D02*
X149371428Y-128084819D01*
X149371428Y-128084819D02*
X149466666Y-128084819D01*
X149466666Y-128084819D02*
X149609523Y-128132438D01*
X149609523Y-128132438D02*
X149657142Y-128180057D01*
X150609523Y-129084819D02*
X150038095Y-129084819D01*
X150323809Y-129084819D02*
X150323809Y-128084819D01*
X150323809Y-128084819D02*
X150228571Y-128227676D01*
X150228571Y-128227676D02*
X150133333Y-128322914D01*
X150133333Y-128322914D02*
X150038095Y-128370533D01*
X151561904Y-129084819D02*
X150990476Y-129084819D01*
X151276190Y-129084819D02*
X151276190Y-128084819D01*
X151276190Y-128084819D02*
X151180952Y-128227676D01*
X151180952Y-128227676D02*
X151085714Y-128322914D01*
X151085714Y-128322914D02*
X150990476Y-128370533D01*
X152032142Y-125284819D02*
X151698809Y-124808628D01*
X151460714Y-125284819D02*
X151460714Y-124284819D01*
X151460714Y-124284819D02*
X151841666Y-124284819D01*
X151841666Y-124284819D02*
X151936904Y-124332438D01*
X151936904Y-124332438D02*
X151984523Y-124380057D01*
X151984523Y-124380057D02*
X152032142Y-124475295D01*
X152032142Y-124475295D02*
X152032142Y-124618152D01*
X152032142Y-124618152D02*
X151984523Y-124713390D01*
X151984523Y-124713390D02*
X151936904Y-124761009D01*
X151936904Y-124761009D02*
X151841666Y-124808628D01*
X151841666Y-124808628D02*
X151460714Y-124808628D01*
X152984523Y-125284819D02*
X152413095Y-125284819D01*
X152698809Y-125284819D02*
X152698809Y-124284819D01*
X152698809Y-124284819D02*
X152603571Y-124427676D01*
X152603571Y-124427676D02*
X152508333Y-124522914D01*
X152508333Y-124522914D02*
X152413095Y-124570533D01*
X153317857Y-124284819D02*
X153936904Y-124284819D01*
X153936904Y-124284819D02*
X153603571Y-124665771D01*
X153603571Y-124665771D02*
X153746428Y-124665771D01*
X153746428Y-124665771D02*
X153841666Y-124713390D01*
X153841666Y-124713390D02*
X153889285Y-124761009D01*
X153889285Y-124761009D02*
X153936904Y-124856247D01*
X153936904Y-124856247D02*
X153936904Y-125094342D01*
X153936904Y-125094342D02*
X153889285Y-125189580D01*
X153889285Y-125189580D02*
X153841666Y-125237200D01*
X153841666Y-125237200D02*
X153746428Y-125284819D01*
X153746428Y-125284819D02*
X153460714Y-125284819D01*
X153460714Y-125284819D02*
X153365476Y-125237200D01*
X153365476Y-125237200D02*
X153317857Y-125189580D01*
D11*
X128795238Y-115847342D02*
X128890476Y-115894961D01*
X128890476Y-115894961D02*
X128985714Y-115990200D01*
X128985714Y-115990200D02*
X129128571Y-116133057D01*
X129128571Y-116133057D02*
X129223809Y-116180676D01*
X129223809Y-116180676D02*
X129319047Y-116180676D01*
X129271428Y-115942580D02*
X129366666Y-115990200D01*
X129366666Y-115990200D02*
X129461904Y-116085438D01*
X129461904Y-116085438D02*
X129509523Y-116275914D01*
X129509523Y-116275914D02*
X129509523Y-116609247D01*
X129509523Y-116609247D02*
X129461904Y-116799723D01*
X129461904Y-116799723D02*
X129366666Y-116894961D01*
X129366666Y-116894961D02*
X129271428Y-116942580D01*
X129271428Y-116942580D02*
X129080952Y-116942580D01*
X129080952Y-116942580D02*
X128985714Y-116894961D01*
X128985714Y-116894961D02*
X128890476Y-116799723D01*
X128890476Y-116799723D02*
X128842857Y-116609247D01*
X128842857Y-116609247D02*
X128842857Y-116275914D01*
X128842857Y-116275914D02*
X128890476Y-116085438D01*
X128890476Y-116085438D02*
X128985714Y-115990200D01*
X128985714Y-115990200D02*
X129080952Y-115942580D01*
X129080952Y-115942580D02*
X129271428Y-115942580D01*
X127938095Y-116942580D02*
X128414285Y-116942580D01*
X128414285Y-116942580D02*
X128461904Y-116466390D01*
X128461904Y-116466390D02*
X128414285Y-116514009D01*
X128414285Y-116514009D02*
X128319047Y-116561628D01*
X128319047Y-116561628D02*
X128080952Y-116561628D01*
X128080952Y-116561628D02*
X127985714Y-116514009D01*
X127985714Y-116514009D02*
X127938095Y-116466390D01*
X127938095Y-116466390D02*
X127890476Y-116371152D01*
X127890476Y-116371152D02*
X127890476Y-116133057D01*
X127890476Y-116133057D02*
X127938095Y-116037819D01*
X127938095Y-116037819D02*
X127985714Y-115990200D01*
X127985714Y-115990200D02*
X128080952Y-115942580D01*
X128080952Y-115942580D02*
X128319047Y-115942580D01*
X128319047Y-115942580D02*
X128414285Y-115990200D01*
X128414285Y-115990200D02*
X128461904Y-116037819D01*
D10*
X158954819Y-133233333D02*
X159669104Y-133233333D01*
X159669104Y-133233333D02*
X159811961Y-133280952D01*
X159811961Y-133280952D02*
X159907200Y-133376190D01*
X159907200Y-133376190D02*
X159954819Y-133519047D01*
X159954819Y-133519047D02*
X159954819Y-133614285D01*
X159954819Y-132233333D02*
X159954819Y-132804761D01*
X159954819Y-132519047D02*
X158954819Y-132519047D01*
X158954819Y-132519047D02*
X159097676Y-132614285D01*
X159097676Y-132614285D02*
X159192914Y-132709523D01*
X159192914Y-132709523D02*
X159240533Y-132804761D01*
X146357142Y-129889580D02*
X146309523Y-129937200D01*
X146309523Y-129937200D02*
X146166666Y-129984819D01*
X146166666Y-129984819D02*
X146071428Y-129984819D01*
X146071428Y-129984819D02*
X145928571Y-129937200D01*
X145928571Y-129937200D02*
X145833333Y-129841961D01*
X145833333Y-129841961D02*
X145785714Y-129746723D01*
X145785714Y-129746723D02*
X145738095Y-129556247D01*
X145738095Y-129556247D02*
X145738095Y-129413390D01*
X145738095Y-129413390D02*
X145785714Y-129222914D01*
X145785714Y-129222914D02*
X145833333Y-129127676D01*
X145833333Y-129127676D02*
X145928571Y-129032438D01*
X145928571Y-129032438D02*
X146071428Y-128984819D01*
X146071428Y-128984819D02*
X146166666Y-128984819D01*
X146166666Y-128984819D02*
X146309523Y-129032438D01*
X146309523Y-129032438D02*
X146357142Y-129080057D01*
X147309523Y-129984819D02*
X146738095Y-129984819D01*
X147023809Y-129984819D02*
X147023809Y-128984819D01*
X147023809Y-128984819D02*
X146928571Y-129127676D01*
X146928571Y-129127676D02*
X146833333Y-129222914D01*
X146833333Y-129222914D02*
X146738095Y-129270533D01*
X147690476Y-129080057D02*
X147738095Y-129032438D01*
X147738095Y-129032438D02*
X147833333Y-128984819D01*
X147833333Y-128984819D02*
X148071428Y-128984819D01*
X148071428Y-128984819D02*
X148166666Y-129032438D01*
X148166666Y-129032438D02*
X148214285Y-129080057D01*
X148214285Y-129080057D02*
X148261904Y-129175295D01*
X148261904Y-129175295D02*
X148261904Y-129270533D01*
X148261904Y-129270533D02*
X148214285Y-129413390D01*
X148214285Y-129413390D02*
X147642857Y-129984819D01*
X147642857Y-129984819D02*
X148261904Y-129984819D01*
X161984819Y-144166666D02*
X161508628Y-144499999D01*
X161984819Y-144738094D02*
X160984819Y-144738094D01*
X160984819Y-144738094D02*
X160984819Y-144357142D01*
X160984819Y-144357142D02*
X161032438Y-144261904D01*
X161032438Y-144261904D02*
X161080057Y-144214285D01*
X161080057Y-144214285D02*
X161175295Y-144166666D01*
X161175295Y-144166666D02*
X161318152Y-144166666D01*
X161318152Y-144166666D02*
X161413390Y-144214285D01*
X161413390Y-144214285D02*
X161461009Y-144261904D01*
X161461009Y-144261904D02*
X161508628Y-144357142D01*
X161508628Y-144357142D02*
X161508628Y-144738094D01*
X160984819Y-143261904D02*
X160984819Y-143738094D01*
X160984819Y-143738094D02*
X161461009Y-143785713D01*
X161461009Y-143785713D02*
X161413390Y-143738094D01*
X161413390Y-143738094D02*
X161365771Y-143642856D01*
X161365771Y-143642856D02*
X161365771Y-143404761D01*
X161365771Y-143404761D02*
X161413390Y-143309523D01*
X161413390Y-143309523D02*
X161461009Y-143261904D01*
X161461009Y-143261904D02*
X161556247Y-143214285D01*
X161556247Y-143214285D02*
X161794342Y-143214285D01*
X161794342Y-143214285D02*
X161889580Y-143261904D01*
X161889580Y-143261904D02*
X161937200Y-143309523D01*
X161937200Y-143309523D02*
X161984819Y-143404761D01*
X161984819Y-143404761D02*
X161984819Y-143642856D01*
X161984819Y-143642856D02*
X161937200Y-143738094D01*
X161937200Y-143738094D02*
X161889580Y-143785713D01*
X136733333Y-146784819D02*
X136400000Y-146308628D01*
X136161905Y-146784819D02*
X136161905Y-145784819D01*
X136161905Y-145784819D02*
X136542857Y-145784819D01*
X136542857Y-145784819D02*
X136638095Y-145832438D01*
X136638095Y-145832438D02*
X136685714Y-145880057D01*
X136685714Y-145880057D02*
X136733333Y-145975295D01*
X136733333Y-145975295D02*
X136733333Y-146118152D01*
X136733333Y-146118152D02*
X136685714Y-146213390D01*
X136685714Y-146213390D02*
X136638095Y-146261009D01*
X136638095Y-146261009D02*
X136542857Y-146308628D01*
X136542857Y-146308628D02*
X136161905Y-146308628D01*
X137590476Y-145784819D02*
X137400000Y-145784819D01*
X137400000Y-145784819D02*
X137304762Y-145832438D01*
X137304762Y-145832438D02*
X137257143Y-145880057D01*
X137257143Y-145880057D02*
X137161905Y-146022914D01*
X137161905Y-146022914D02*
X137114286Y-146213390D01*
X137114286Y-146213390D02*
X137114286Y-146594342D01*
X137114286Y-146594342D02*
X137161905Y-146689580D01*
X137161905Y-146689580D02*
X137209524Y-146737200D01*
X137209524Y-146737200D02*
X137304762Y-146784819D01*
X137304762Y-146784819D02*
X137495238Y-146784819D01*
X137495238Y-146784819D02*
X137590476Y-146737200D01*
X137590476Y-146737200D02*
X137638095Y-146689580D01*
X137638095Y-146689580D02*
X137685714Y-146594342D01*
X137685714Y-146594342D02*
X137685714Y-146356247D01*
X137685714Y-146356247D02*
X137638095Y-146261009D01*
X137638095Y-146261009D02*
X137590476Y-146213390D01*
X137590476Y-146213390D02*
X137495238Y-146165771D01*
X137495238Y-146165771D02*
X137304762Y-146165771D01*
X137304762Y-146165771D02*
X137209524Y-146213390D01*
X137209524Y-146213390D02*
X137161905Y-146261009D01*
X137161905Y-146261009D02*
X137114286Y-146356247D01*
X164733333Y-139129580D02*
X164685714Y-139177200D01*
X164685714Y-139177200D02*
X164542857Y-139224819D01*
X164542857Y-139224819D02*
X164447619Y-139224819D01*
X164447619Y-139224819D02*
X164304762Y-139177200D01*
X164304762Y-139177200D02*
X164209524Y-139081961D01*
X164209524Y-139081961D02*
X164161905Y-138986723D01*
X164161905Y-138986723D02*
X164114286Y-138796247D01*
X164114286Y-138796247D02*
X164114286Y-138653390D01*
X164114286Y-138653390D02*
X164161905Y-138462914D01*
X164161905Y-138462914D02*
X164209524Y-138367676D01*
X164209524Y-138367676D02*
X164304762Y-138272438D01*
X164304762Y-138272438D02*
X164447619Y-138224819D01*
X164447619Y-138224819D02*
X164542857Y-138224819D01*
X164542857Y-138224819D02*
X164685714Y-138272438D01*
X164685714Y-138272438D02*
X164733333Y-138320057D01*
X165114286Y-138320057D02*
X165161905Y-138272438D01*
X165161905Y-138272438D02*
X165257143Y-138224819D01*
X165257143Y-138224819D02*
X165495238Y-138224819D01*
X165495238Y-138224819D02*
X165590476Y-138272438D01*
X165590476Y-138272438D02*
X165638095Y-138320057D01*
X165638095Y-138320057D02*
X165685714Y-138415295D01*
X165685714Y-138415295D02*
X165685714Y-138510533D01*
X165685714Y-138510533D02*
X165638095Y-138653390D01*
X165638095Y-138653390D02*
X165066667Y-139224819D01*
X165066667Y-139224819D02*
X165685714Y-139224819D01*
X143729580Y-135417857D02*
X143777200Y-135465476D01*
X143777200Y-135465476D02*
X143824819Y-135608333D01*
X143824819Y-135608333D02*
X143824819Y-135703571D01*
X143824819Y-135703571D02*
X143777200Y-135846428D01*
X143777200Y-135846428D02*
X143681961Y-135941666D01*
X143681961Y-135941666D02*
X143586723Y-135989285D01*
X143586723Y-135989285D02*
X143396247Y-136036904D01*
X143396247Y-136036904D02*
X143253390Y-136036904D01*
X143253390Y-136036904D02*
X143062914Y-135989285D01*
X143062914Y-135989285D02*
X142967676Y-135941666D01*
X142967676Y-135941666D02*
X142872438Y-135846428D01*
X142872438Y-135846428D02*
X142824819Y-135703571D01*
X142824819Y-135703571D02*
X142824819Y-135608333D01*
X142824819Y-135608333D02*
X142872438Y-135465476D01*
X142872438Y-135465476D02*
X142920057Y-135417857D01*
X143824819Y-134465476D02*
X143824819Y-135036904D01*
X143824819Y-134751190D02*
X142824819Y-134751190D01*
X142824819Y-134751190D02*
X142967676Y-134846428D01*
X142967676Y-134846428D02*
X143062914Y-134941666D01*
X143062914Y-134941666D02*
X143110533Y-135036904D01*
X142824819Y-134132142D02*
X142824819Y-133513095D01*
X142824819Y-133513095D02*
X143205771Y-133846428D01*
X143205771Y-133846428D02*
X143205771Y-133703571D01*
X143205771Y-133703571D02*
X143253390Y-133608333D01*
X143253390Y-133608333D02*
X143301009Y-133560714D01*
X143301009Y-133560714D02*
X143396247Y-133513095D01*
X143396247Y-133513095D02*
X143634342Y-133513095D01*
X143634342Y-133513095D02*
X143729580Y-133560714D01*
X143729580Y-133560714D02*
X143777200Y-133608333D01*
X143777200Y-133608333D02*
X143824819Y-133703571D01*
X143824819Y-133703571D02*
X143824819Y-133989285D01*
X143824819Y-133989285D02*
X143777200Y-134084523D01*
X143777200Y-134084523D02*
X143729580Y-134132142D01*
D11*
X156195238Y-115585642D02*
X156290476Y-115633261D01*
X156290476Y-115633261D02*
X156385714Y-115728500D01*
X156385714Y-115728500D02*
X156528571Y-115871357D01*
X156528571Y-115871357D02*
X156623809Y-115918976D01*
X156623809Y-115918976D02*
X156719047Y-115918976D01*
X156671428Y-115680880D02*
X156766666Y-115728500D01*
X156766666Y-115728500D02*
X156861904Y-115823738D01*
X156861904Y-115823738D02*
X156909523Y-116014214D01*
X156909523Y-116014214D02*
X156909523Y-116347547D01*
X156909523Y-116347547D02*
X156861904Y-116538023D01*
X156861904Y-116538023D02*
X156766666Y-116633261D01*
X156766666Y-116633261D02*
X156671428Y-116680880D01*
X156671428Y-116680880D02*
X156480952Y-116680880D01*
X156480952Y-116680880D02*
X156385714Y-116633261D01*
X156385714Y-116633261D02*
X156290476Y-116538023D01*
X156290476Y-116538023D02*
X156242857Y-116347547D01*
X156242857Y-116347547D02*
X156242857Y-116014214D01*
X156242857Y-116014214D02*
X156290476Y-115823738D01*
X156290476Y-115823738D02*
X156385714Y-115728500D01*
X156385714Y-115728500D02*
X156480952Y-115680880D01*
X156480952Y-115680880D02*
X156671428Y-115680880D01*
X155290476Y-115680880D02*
X155861904Y-115680880D01*
X155576190Y-115680880D02*
X155576190Y-116680880D01*
X155576190Y-116680880D02*
X155671428Y-116538023D01*
X155671428Y-116538023D02*
X155766666Y-116442785D01*
X155766666Y-116442785D02*
X155861904Y-116395166D01*
D10*
X157184819Y-144166666D02*
X156708628Y-144499999D01*
X157184819Y-144738094D02*
X156184819Y-144738094D01*
X156184819Y-144738094D02*
X156184819Y-144357142D01*
X156184819Y-144357142D02*
X156232438Y-144261904D01*
X156232438Y-144261904D02*
X156280057Y-144214285D01*
X156280057Y-144214285D02*
X156375295Y-144166666D01*
X156375295Y-144166666D02*
X156518152Y-144166666D01*
X156518152Y-144166666D02*
X156613390Y-144214285D01*
X156613390Y-144214285D02*
X156661009Y-144261904D01*
X156661009Y-144261904D02*
X156708628Y-144357142D01*
X156708628Y-144357142D02*
X156708628Y-144738094D01*
X156184819Y-143833332D02*
X156184819Y-143166666D01*
X156184819Y-143166666D02*
X157184819Y-143595237D01*
D12*
X148060237Y-133474318D02*
X148060237Y-132204318D01*
X149390714Y-133353365D02*
X149330238Y-133413842D01*
X149330238Y-133413842D02*
X149148809Y-133474318D01*
X149148809Y-133474318D02*
X149027857Y-133474318D01*
X149027857Y-133474318D02*
X148846428Y-133413842D01*
X148846428Y-133413842D02*
X148725476Y-133292889D01*
X148725476Y-133292889D02*
X148664999Y-133171937D01*
X148664999Y-133171937D02*
X148604523Y-132930032D01*
X148604523Y-132930032D02*
X148604523Y-132748603D01*
X148604523Y-132748603D02*
X148664999Y-132506699D01*
X148664999Y-132506699D02*
X148725476Y-132385746D01*
X148725476Y-132385746D02*
X148846428Y-132264794D01*
X148846428Y-132264794D02*
X149027857Y-132204318D01*
X149027857Y-132204318D02*
X149148809Y-132204318D01*
X149148809Y-132204318D02*
X149330238Y-132264794D01*
X149330238Y-132264794D02*
X149390714Y-132325270D01*
X150600238Y-133474318D02*
X149874523Y-133474318D01*
X150237380Y-133474318D02*
X150237380Y-132204318D01*
X150237380Y-132204318D02*
X150116428Y-132385746D01*
X150116428Y-132385746D02*
X149995476Y-132506699D01*
X149995476Y-132506699D02*
X149874523Y-132567175D01*
D10*
X143082142Y-124984819D02*
X142748809Y-124508628D01*
X142510714Y-124984819D02*
X142510714Y-123984819D01*
X142510714Y-123984819D02*
X142891666Y-123984819D01*
X142891666Y-123984819D02*
X142986904Y-124032438D01*
X142986904Y-124032438D02*
X143034523Y-124080057D01*
X143034523Y-124080057D02*
X143082142Y-124175295D01*
X143082142Y-124175295D02*
X143082142Y-124318152D01*
X143082142Y-124318152D02*
X143034523Y-124413390D01*
X143034523Y-124413390D02*
X142986904Y-124461009D01*
X142986904Y-124461009D02*
X142891666Y-124508628D01*
X142891666Y-124508628D02*
X142510714Y-124508628D01*
X144034523Y-124984819D02*
X143463095Y-124984819D01*
X143748809Y-124984819D02*
X143748809Y-123984819D01*
X143748809Y-123984819D02*
X143653571Y-124127676D01*
X143653571Y-124127676D02*
X143558333Y-124222914D01*
X143558333Y-124222914D02*
X143463095Y-124270533D01*
X144415476Y-124080057D02*
X144463095Y-124032438D01*
X144463095Y-124032438D02*
X144558333Y-123984819D01*
X144558333Y-123984819D02*
X144796428Y-123984819D01*
X144796428Y-123984819D02*
X144891666Y-124032438D01*
X144891666Y-124032438D02*
X144939285Y-124080057D01*
X144939285Y-124080057D02*
X144986904Y-124175295D01*
X144986904Y-124175295D02*
X144986904Y-124270533D01*
X144986904Y-124270533D02*
X144939285Y-124413390D01*
X144939285Y-124413390D02*
X144367857Y-124984819D01*
X144367857Y-124984819D02*
X144986904Y-124984819D01*
X162898151Y-148238094D02*
X161898151Y-148238094D01*
X161898151Y-148238094D02*
X161898151Y-147999999D01*
X161898151Y-147999999D02*
X161945770Y-147857142D01*
X161945770Y-147857142D02*
X162041008Y-147761904D01*
X162041008Y-147761904D02*
X162136246Y-147714285D01*
X162136246Y-147714285D02*
X162326722Y-147666666D01*
X162326722Y-147666666D02*
X162469579Y-147666666D01*
X162469579Y-147666666D02*
X162660055Y-147714285D01*
X162660055Y-147714285D02*
X162755293Y-147761904D01*
X162755293Y-147761904D02*
X162850532Y-147857142D01*
X162850532Y-147857142D02*
X162898151Y-147999999D01*
X162898151Y-147999999D02*
X162898151Y-148238094D01*
X161993389Y-147285713D02*
X161945770Y-147238094D01*
X161945770Y-147238094D02*
X161898151Y-147142856D01*
X161898151Y-147142856D02*
X161898151Y-146904761D01*
X161898151Y-146904761D02*
X161945770Y-146809523D01*
X161945770Y-146809523D02*
X161993389Y-146761904D01*
X161993389Y-146761904D02*
X162088627Y-146714285D01*
X162088627Y-146714285D02*
X162183865Y-146714285D01*
X162183865Y-146714285D02*
X162326722Y-146761904D01*
X162326722Y-146761904D02*
X162898151Y-147333332D01*
X162898151Y-147333332D02*
X162898151Y-146714285D01*
X159632142Y-122329580D02*
X159584523Y-122377200D01*
X159584523Y-122377200D02*
X159441666Y-122424819D01*
X159441666Y-122424819D02*
X159346428Y-122424819D01*
X159346428Y-122424819D02*
X159203571Y-122377200D01*
X159203571Y-122377200D02*
X159108333Y-122281961D01*
X159108333Y-122281961D02*
X159060714Y-122186723D01*
X159060714Y-122186723D02*
X159013095Y-121996247D01*
X159013095Y-121996247D02*
X159013095Y-121853390D01*
X159013095Y-121853390D02*
X159060714Y-121662914D01*
X159060714Y-121662914D02*
X159108333Y-121567676D01*
X159108333Y-121567676D02*
X159203571Y-121472438D01*
X159203571Y-121472438D02*
X159346428Y-121424819D01*
X159346428Y-121424819D02*
X159441666Y-121424819D01*
X159441666Y-121424819D02*
X159584523Y-121472438D01*
X159584523Y-121472438D02*
X159632142Y-121520057D01*
X160584523Y-122424819D02*
X160013095Y-122424819D01*
X160298809Y-122424819D02*
X160298809Y-121424819D01*
X160298809Y-121424819D02*
X160203571Y-121567676D01*
X160203571Y-121567676D02*
X160108333Y-121662914D01*
X160108333Y-121662914D02*
X160013095Y-121710533D01*
X161441666Y-121424819D02*
X161251190Y-121424819D01*
X161251190Y-121424819D02*
X161155952Y-121472438D01*
X161155952Y-121472438D02*
X161108333Y-121520057D01*
X161108333Y-121520057D02*
X161013095Y-121662914D01*
X161013095Y-121662914D02*
X160965476Y-121853390D01*
X160965476Y-121853390D02*
X160965476Y-122234342D01*
X160965476Y-122234342D02*
X161013095Y-122329580D01*
X161013095Y-122329580D02*
X161060714Y-122377200D01*
X161060714Y-122377200D02*
X161155952Y-122424819D01*
X161155952Y-122424819D02*
X161346428Y-122424819D01*
X161346428Y-122424819D02*
X161441666Y-122377200D01*
X161441666Y-122377200D02*
X161489285Y-122329580D01*
X161489285Y-122329580D02*
X161536904Y-122234342D01*
X161536904Y-122234342D02*
X161536904Y-121996247D01*
X161536904Y-121996247D02*
X161489285Y-121901009D01*
X161489285Y-121901009D02*
X161441666Y-121853390D01*
X161441666Y-121853390D02*
X161346428Y-121805771D01*
X161346428Y-121805771D02*
X161155952Y-121805771D01*
X161155952Y-121805771D02*
X161060714Y-121853390D01*
X161060714Y-121853390D02*
X161013095Y-121901009D01*
X161013095Y-121901009D02*
X160965476Y-121996247D01*
X156824819Y-134242857D02*
X156348628Y-134576190D01*
X156824819Y-134814285D02*
X155824819Y-134814285D01*
X155824819Y-134814285D02*
X155824819Y-134433333D01*
X155824819Y-134433333D02*
X155872438Y-134338095D01*
X155872438Y-134338095D02*
X155920057Y-134290476D01*
X155920057Y-134290476D02*
X156015295Y-134242857D01*
X156015295Y-134242857D02*
X156158152Y-134242857D01*
X156158152Y-134242857D02*
X156253390Y-134290476D01*
X156253390Y-134290476D02*
X156301009Y-134338095D01*
X156301009Y-134338095D02*
X156348628Y-134433333D01*
X156348628Y-134433333D02*
X156348628Y-134814285D01*
X156824819Y-133290476D02*
X156824819Y-133861904D01*
X156824819Y-133576190D02*
X155824819Y-133576190D01*
X155824819Y-133576190D02*
X155967676Y-133671428D01*
X155967676Y-133671428D02*
X156062914Y-133766666D01*
X156062914Y-133766666D02*
X156110533Y-133861904D01*
X155824819Y-132433333D02*
X155824819Y-132623809D01*
X155824819Y-132623809D02*
X155872438Y-132719047D01*
X155872438Y-132719047D02*
X155920057Y-132766666D01*
X155920057Y-132766666D02*
X156062914Y-132861904D01*
X156062914Y-132861904D02*
X156253390Y-132909523D01*
X156253390Y-132909523D02*
X156634342Y-132909523D01*
X156634342Y-132909523D02*
X156729580Y-132861904D01*
X156729580Y-132861904D02*
X156777200Y-132814285D01*
X156777200Y-132814285D02*
X156824819Y-132719047D01*
X156824819Y-132719047D02*
X156824819Y-132528571D01*
X156824819Y-132528571D02*
X156777200Y-132433333D01*
X156777200Y-132433333D02*
X156729580Y-132385714D01*
X156729580Y-132385714D02*
X156634342Y-132338095D01*
X156634342Y-132338095D02*
X156396247Y-132338095D01*
X156396247Y-132338095D02*
X156301009Y-132385714D01*
X156301009Y-132385714D02*
X156253390Y-132433333D01*
X156253390Y-132433333D02*
X156205771Y-132528571D01*
X156205771Y-132528571D02*
X156205771Y-132719047D01*
X156205771Y-132719047D02*
X156253390Y-132814285D01*
X156253390Y-132814285D02*
X156301009Y-132861904D01*
X156301009Y-132861904D02*
X156396247Y-132909523D01*
X136733333Y-148384819D02*
X136400000Y-147908628D01*
X136161905Y-148384819D02*
X136161905Y-147384819D01*
X136161905Y-147384819D02*
X136542857Y-147384819D01*
X136542857Y-147384819D02*
X136638095Y-147432438D01*
X136638095Y-147432438D02*
X136685714Y-147480057D01*
X136685714Y-147480057D02*
X136733333Y-147575295D01*
X136733333Y-147575295D02*
X136733333Y-147718152D01*
X136733333Y-147718152D02*
X136685714Y-147813390D01*
X136685714Y-147813390D02*
X136638095Y-147861009D01*
X136638095Y-147861009D02*
X136542857Y-147908628D01*
X136542857Y-147908628D02*
X136161905Y-147908628D01*
X137304762Y-147813390D02*
X137209524Y-147765771D01*
X137209524Y-147765771D02*
X137161905Y-147718152D01*
X137161905Y-147718152D02*
X137114286Y-147622914D01*
X137114286Y-147622914D02*
X137114286Y-147575295D01*
X137114286Y-147575295D02*
X137161905Y-147480057D01*
X137161905Y-147480057D02*
X137209524Y-147432438D01*
X137209524Y-147432438D02*
X137304762Y-147384819D01*
X137304762Y-147384819D02*
X137495238Y-147384819D01*
X137495238Y-147384819D02*
X137590476Y-147432438D01*
X137590476Y-147432438D02*
X137638095Y-147480057D01*
X137638095Y-147480057D02*
X137685714Y-147575295D01*
X137685714Y-147575295D02*
X137685714Y-147622914D01*
X137685714Y-147622914D02*
X137638095Y-147718152D01*
X137638095Y-147718152D02*
X137590476Y-147765771D01*
X137590476Y-147765771D02*
X137495238Y-147813390D01*
X137495238Y-147813390D02*
X137304762Y-147813390D01*
X137304762Y-147813390D02*
X137209524Y-147861009D01*
X137209524Y-147861009D02*
X137161905Y-147908628D01*
X137161905Y-147908628D02*
X137114286Y-148003866D01*
X137114286Y-148003866D02*
X137114286Y-148194342D01*
X137114286Y-148194342D02*
X137161905Y-148289580D01*
X137161905Y-148289580D02*
X137209524Y-148337200D01*
X137209524Y-148337200D02*
X137304762Y-148384819D01*
X137304762Y-148384819D02*
X137495238Y-148384819D01*
X137495238Y-148384819D02*
X137590476Y-148337200D01*
X137590476Y-148337200D02*
X137638095Y-148289580D01*
X137638095Y-148289580D02*
X137685714Y-148194342D01*
X137685714Y-148194342D02*
X137685714Y-148003866D01*
X137685714Y-148003866D02*
X137638095Y-147908628D01*
X137638095Y-147908628D02*
X137590476Y-147861009D01*
X137590476Y-147861009D02*
X137495238Y-147813390D01*
D11*
X142695238Y-115647342D02*
X142790476Y-115694961D01*
X142790476Y-115694961D02*
X142885714Y-115790200D01*
X142885714Y-115790200D02*
X143028571Y-115933057D01*
X143028571Y-115933057D02*
X143123809Y-115980676D01*
X143123809Y-115980676D02*
X143219047Y-115980676D01*
X143171428Y-115742580D02*
X143266666Y-115790200D01*
X143266666Y-115790200D02*
X143361904Y-115885438D01*
X143361904Y-115885438D02*
X143409523Y-116075914D01*
X143409523Y-116075914D02*
X143409523Y-116409247D01*
X143409523Y-116409247D02*
X143361904Y-116599723D01*
X143361904Y-116599723D02*
X143266666Y-116694961D01*
X143266666Y-116694961D02*
X143171428Y-116742580D01*
X143171428Y-116742580D02*
X142980952Y-116742580D01*
X142980952Y-116742580D02*
X142885714Y-116694961D01*
X142885714Y-116694961D02*
X142790476Y-116599723D01*
X142790476Y-116599723D02*
X142742857Y-116409247D01*
X142742857Y-116409247D02*
X142742857Y-116075914D01*
X142742857Y-116075914D02*
X142790476Y-115885438D01*
X142790476Y-115885438D02*
X142885714Y-115790200D01*
X142885714Y-115790200D02*
X142980952Y-115742580D01*
X142980952Y-115742580D02*
X143171428Y-115742580D01*
X142409523Y-116742580D02*
X141790476Y-116742580D01*
X141790476Y-116742580D02*
X142123809Y-116361628D01*
X142123809Y-116361628D02*
X141980952Y-116361628D01*
X141980952Y-116361628D02*
X141885714Y-116314009D01*
X141885714Y-116314009D02*
X141838095Y-116266390D01*
X141838095Y-116266390D02*
X141790476Y-116171152D01*
X141790476Y-116171152D02*
X141790476Y-115933057D01*
X141790476Y-115933057D02*
X141838095Y-115837819D01*
X141838095Y-115837819D02*
X141885714Y-115790200D01*
X141885714Y-115790200D02*
X141980952Y-115742580D01*
X141980952Y-115742580D02*
X142266666Y-115742580D01*
X142266666Y-115742580D02*
X142361904Y-115790200D01*
X142361904Y-115790200D02*
X142409523Y-115837819D01*
D10*
X160284819Y-144166666D02*
X159808628Y-144499999D01*
X160284819Y-144738094D02*
X159284819Y-144738094D01*
X159284819Y-144738094D02*
X159284819Y-144357142D01*
X159284819Y-144357142D02*
X159332438Y-144261904D01*
X159332438Y-144261904D02*
X159380057Y-144214285D01*
X159380057Y-144214285D02*
X159475295Y-144166666D01*
X159475295Y-144166666D02*
X159618152Y-144166666D01*
X159618152Y-144166666D02*
X159713390Y-144214285D01*
X159713390Y-144214285D02*
X159761009Y-144261904D01*
X159761009Y-144261904D02*
X159808628Y-144357142D01*
X159808628Y-144357142D02*
X159808628Y-144738094D01*
X160284819Y-143690475D02*
X160284819Y-143499999D01*
X160284819Y-143499999D02*
X160237200Y-143404761D01*
X160237200Y-143404761D02*
X160189580Y-143357142D01*
X160189580Y-143357142D02*
X160046723Y-143261904D01*
X160046723Y-143261904D02*
X159856247Y-143214285D01*
X159856247Y-143214285D02*
X159475295Y-143214285D01*
X159475295Y-143214285D02*
X159380057Y-143261904D01*
X159380057Y-143261904D02*
X159332438Y-143309523D01*
X159332438Y-143309523D02*
X159284819Y-143404761D01*
X159284819Y-143404761D02*
X159284819Y-143595237D01*
X159284819Y-143595237D02*
X159332438Y-143690475D01*
X159332438Y-143690475D02*
X159380057Y-143738094D01*
X159380057Y-143738094D02*
X159475295Y-143785713D01*
X159475295Y-143785713D02*
X159713390Y-143785713D01*
X159713390Y-143785713D02*
X159808628Y-143738094D01*
X159808628Y-143738094D02*
X159856247Y-143690475D01*
X159856247Y-143690475D02*
X159903866Y-143595237D01*
X159903866Y-143595237D02*
X159903866Y-143404761D01*
X159903866Y-143404761D02*
X159856247Y-143309523D01*
X159856247Y-143309523D02*
X159808628Y-143261904D01*
X159808628Y-143261904D02*
X159713390Y-143214285D01*
X158784819Y-144166666D02*
X158308628Y-144499999D01*
X158784819Y-144738094D02*
X157784819Y-144738094D01*
X157784819Y-144738094D02*
X157784819Y-144357142D01*
X157784819Y-144357142D02*
X157832438Y-144261904D01*
X157832438Y-144261904D02*
X157880057Y-144214285D01*
X157880057Y-144214285D02*
X157975295Y-144166666D01*
X157975295Y-144166666D02*
X158118152Y-144166666D01*
X158118152Y-144166666D02*
X158213390Y-144214285D01*
X158213390Y-144214285D02*
X158261009Y-144261904D01*
X158261009Y-144261904D02*
X158308628Y-144357142D01*
X158308628Y-144357142D02*
X158308628Y-144738094D01*
X157784819Y-143833332D02*
X157784819Y-143214285D01*
X157784819Y-143214285D02*
X158165771Y-143547618D01*
X158165771Y-143547618D02*
X158165771Y-143404761D01*
X158165771Y-143404761D02*
X158213390Y-143309523D01*
X158213390Y-143309523D02*
X158261009Y-143261904D01*
X158261009Y-143261904D02*
X158356247Y-143214285D01*
X158356247Y-143214285D02*
X158594342Y-143214285D01*
X158594342Y-143214285D02*
X158689580Y-143261904D01*
X158689580Y-143261904D02*
X158737200Y-143309523D01*
X158737200Y-143309523D02*
X158784819Y-143404761D01*
X158784819Y-143404761D02*
X158784819Y-143690475D01*
X158784819Y-143690475D02*
X158737200Y-143785713D01*
X158737200Y-143785713D02*
X158689580Y-143833332D01*
X122154819Y-135533333D02*
X122869104Y-135533333D01*
X122869104Y-135533333D02*
X123011961Y-135580952D01*
X123011961Y-135580952D02*
X123107200Y-135676190D01*
X123107200Y-135676190D02*
X123154819Y-135819047D01*
X123154819Y-135819047D02*
X123154819Y-135914285D01*
X122154819Y-135152380D02*
X122154819Y-134533333D01*
X122154819Y-134533333D02*
X122535771Y-134866666D01*
X122535771Y-134866666D02*
X122535771Y-134723809D01*
X122535771Y-134723809D02*
X122583390Y-134628571D01*
X122583390Y-134628571D02*
X122631009Y-134580952D01*
X122631009Y-134580952D02*
X122726247Y-134533333D01*
X122726247Y-134533333D02*
X122964342Y-134533333D01*
X122964342Y-134533333D02*
X123059580Y-134580952D01*
X123059580Y-134580952D02*
X123107200Y-134628571D01*
X123107200Y-134628571D02*
X123154819Y-134723809D01*
X123154819Y-134723809D02*
X123154819Y-135009523D01*
X123154819Y-135009523D02*
X123107200Y-135104761D01*
X123107200Y-135104761D02*
X123059580Y-135152380D01*
X137314700Y-141271428D02*
X137314700Y-140128571D01*
X137886128Y-140699999D02*
X136743271Y-140699999D01*
X137314700Y-130271428D02*
X137314700Y-129128571D01*
X141429580Y-134891666D02*
X141477200Y-134939285D01*
X141477200Y-134939285D02*
X141524819Y-135082142D01*
X141524819Y-135082142D02*
X141524819Y-135177380D01*
X141524819Y-135177380D02*
X141477200Y-135320237D01*
X141477200Y-135320237D02*
X141381961Y-135415475D01*
X141381961Y-135415475D02*
X141286723Y-135463094D01*
X141286723Y-135463094D02*
X141096247Y-135510713D01*
X141096247Y-135510713D02*
X140953390Y-135510713D01*
X140953390Y-135510713D02*
X140762914Y-135463094D01*
X140762914Y-135463094D02*
X140667676Y-135415475D01*
X140667676Y-135415475D02*
X140572438Y-135320237D01*
X140572438Y-135320237D02*
X140524819Y-135177380D01*
X140524819Y-135177380D02*
X140524819Y-135082142D01*
X140524819Y-135082142D02*
X140572438Y-134939285D01*
X140572438Y-134939285D02*
X140620057Y-134891666D01*
X140524819Y-134034523D02*
X140524819Y-134224999D01*
X140524819Y-134224999D02*
X140572438Y-134320237D01*
X140572438Y-134320237D02*
X140620057Y-134367856D01*
X140620057Y-134367856D02*
X140762914Y-134463094D01*
X140762914Y-134463094D02*
X140953390Y-134510713D01*
X140953390Y-134510713D02*
X141334342Y-134510713D01*
X141334342Y-134510713D02*
X141429580Y-134463094D01*
X141429580Y-134463094D02*
X141477200Y-134415475D01*
X141477200Y-134415475D02*
X141524819Y-134320237D01*
X141524819Y-134320237D02*
X141524819Y-134129761D01*
X141524819Y-134129761D02*
X141477200Y-134034523D01*
X141477200Y-134034523D02*
X141429580Y-133986904D01*
X141429580Y-133986904D02*
X141334342Y-133939285D01*
X141334342Y-133939285D02*
X141096247Y-133939285D01*
X141096247Y-133939285D02*
X141001009Y-133986904D01*
X141001009Y-133986904D02*
X140953390Y-134034523D01*
X140953390Y-134034523D02*
X140905771Y-134129761D01*
X140905771Y-134129761D02*
X140905771Y-134320237D01*
X140905771Y-134320237D02*
X140953390Y-134415475D01*
X140953390Y-134415475D02*
X141001009Y-134463094D01*
X141001009Y-134463094D02*
X141096247Y-134510713D01*
X130684819Y-124942857D02*
X130208628Y-125276190D01*
X130684819Y-125514285D02*
X129684819Y-125514285D01*
X129684819Y-125514285D02*
X129684819Y-125133333D01*
X129684819Y-125133333D02*
X129732438Y-125038095D01*
X129732438Y-125038095D02*
X129780057Y-124990476D01*
X129780057Y-124990476D02*
X129875295Y-124942857D01*
X129875295Y-124942857D02*
X130018152Y-124942857D01*
X130018152Y-124942857D02*
X130113390Y-124990476D01*
X130113390Y-124990476D02*
X130161009Y-125038095D01*
X130161009Y-125038095D02*
X130208628Y-125133333D01*
X130208628Y-125133333D02*
X130208628Y-125514285D01*
X129780057Y-124561904D02*
X129732438Y-124514285D01*
X129732438Y-124514285D02*
X129684819Y-124419047D01*
X129684819Y-124419047D02*
X129684819Y-124180952D01*
X129684819Y-124180952D02*
X129732438Y-124085714D01*
X129732438Y-124085714D02*
X129780057Y-124038095D01*
X129780057Y-124038095D02*
X129875295Y-123990476D01*
X129875295Y-123990476D02*
X129970533Y-123990476D01*
X129970533Y-123990476D02*
X130113390Y-124038095D01*
X130113390Y-124038095D02*
X130684819Y-124609523D01*
X130684819Y-124609523D02*
X130684819Y-123990476D01*
X129780057Y-123609523D02*
X129732438Y-123561904D01*
X129732438Y-123561904D02*
X129684819Y-123466666D01*
X129684819Y-123466666D02*
X129684819Y-123228571D01*
X129684819Y-123228571D02*
X129732438Y-123133333D01*
X129732438Y-123133333D02*
X129780057Y-123085714D01*
X129780057Y-123085714D02*
X129875295Y-123038095D01*
X129875295Y-123038095D02*
X129970533Y-123038095D01*
X129970533Y-123038095D02*
X130113390Y-123085714D01*
X130113390Y-123085714D02*
X130684819Y-123657142D01*
X130684819Y-123657142D02*
X130684819Y-123038095D01*
X151708333Y-136929580D02*
X151660714Y-136977200D01*
X151660714Y-136977200D02*
X151517857Y-137024819D01*
X151517857Y-137024819D02*
X151422619Y-137024819D01*
X151422619Y-137024819D02*
X151279762Y-136977200D01*
X151279762Y-136977200D02*
X151184524Y-136881961D01*
X151184524Y-136881961D02*
X151136905Y-136786723D01*
X151136905Y-136786723D02*
X151089286Y-136596247D01*
X151089286Y-136596247D02*
X151089286Y-136453390D01*
X151089286Y-136453390D02*
X151136905Y-136262914D01*
X151136905Y-136262914D02*
X151184524Y-136167676D01*
X151184524Y-136167676D02*
X151279762Y-136072438D01*
X151279762Y-136072438D02*
X151422619Y-136024819D01*
X151422619Y-136024819D02*
X151517857Y-136024819D01*
X151517857Y-136024819D02*
X151660714Y-136072438D01*
X151660714Y-136072438D02*
X151708333Y-136120057D01*
X152184524Y-137024819D02*
X152375000Y-137024819D01*
X152375000Y-137024819D02*
X152470238Y-136977200D01*
X152470238Y-136977200D02*
X152517857Y-136929580D01*
X152517857Y-136929580D02*
X152613095Y-136786723D01*
X152613095Y-136786723D02*
X152660714Y-136596247D01*
X152660714Y-136596247D02*
X152660714Y-136215295D01*
X152660714Y-136215295D02*
X152613095Y-136120057D01*
X152613095Y-136120057D02*
X152565476Y-136072438D01*
X152565476Y-136072438D02*
X152470238Y-136024819D01*
X152470238Y-136024819D02*
X152279762Y-136024819D01*
X152279762Y-136024819D02*
X152184524Y-136072438D01*
X152184524Y-136072438D02*
X152136905Y-136120057D01*
X152136905Y-136120057D02*
X152089286Y-136215295D01*
X152089286Y-136215295D02*
X152089286Y-136453390D01*
X152089286Y-136453390D02*
X152136905Y-136548628D01*
X152136905Y-136548628D02*
X152184524Y-136596247D01*
X152184524Y-136596247D02*
X152279762Y-136643866D01*
X152279762Y-136643866D02*
X152470238Y-136643866D01*
X152470238Y-136643866D02*
X152565476Y-136596247D01*
X152565476Y-136596247D02*
X152613095Y-136548628D01*
X152613095Y-136548628D02*
X152660714Y-136453390D01*
X136074819Y-130128571D02*
X135598628Y-130461904D01*
X136074819Y-130699999D02*
X135074819Y-130699999D01*
X135074819Y-130699999D02*
X135074819Y-130319047D01*
X135074819Y-130319047D02*
X135122438Y-130223809D01*
X135122438Y-130223809D02*
X135170057Y-130176190D01*
X135170057Y-130176190D02*
X135265295Y-130128571D01*
X135265295Y-130128571D02*
X135408152Y-130128571D01*
X135408152Y-130128571D02*
X135503390Y-130176190D01*
X135503390Y-130176190D02*
X135551009Y-130223809D01*
X135551009Y-130223809D02*
X135598628Y-130319047D01*
X135598628Y-130319047D02*
X135598628Y-130699999D01*
X136170057Y-129938095D02*
X136170057Y-129176190D01*
X136027200Y-128985713D02*
X136074819Y-128842856D01*
X136074819Y-128842856D02*
X136074819Y-128604761D01*
X136074819Y-128604761D02*
X136027200Y-128509523D01*
X136027200Y-128509523D02*
X135979580Y-128461904D01*
X135979580Y-128461904D02*
X135884342Y-128414285D01*
X135884342Y-128414285D02*
X135789104Y-128414285D01*
X135789104Y-128414285D02*
X135693866Y-128461904D01*
X135693866Y-128461904D02*
X135646247Y-128509523D01*
X135646247Y-128509523D02*
X135598628Y-128604761D01*
X135598628Y-128604761D02*
X135551009Y-128795237D01*
X135551009Y-128795237D02*
X135503390Y-128890475D01*
X135503390Y-128890475D02*
X135455771Y-128938094D01*
X135455771Y-128938094D02*
X135360533Y-128985713D01*
X135360533Y-128985713D02*
X135265295Y-128985713D01*
X135265295Y-128985713D02*
X135170057Y-128938094D01*
X135170057Y-128938094D02*
X135122438Y-128890475D01*
X135122438Y-128890475D02*
X135074819Y-128795237D01*
X135074819Y-128795237D02*
X135074819Y-128557142D01*
X135074819Y-128557142D02*
X135122438Y-128414285D01*
X135551009Y-127985713D02*
X135551009Y-127652380D01*
X136074819Y-127509523D02*
X136074819Y-127985713D01*
X136074819Y-127985713D02*
X135074819Y-127985713D01*
X135074819Y-127985713D02*
X135074819Y-127509523D01*
X136074819Y-127080951D02*
X135074819Y-127080951D01*
X135074819Y-127080951D02*
X136074819Y-126509523D01*
X136074819Y-126509523D02*
X135074819Y-126509523D01*
X136027200Y-126080951D02*
X136074819Y-125938094D01*
X136074819Y-125938094D02*
X136074819Y-125699999D01*
X136074819Y-125699999D02*
X136027200Y-125604761D01*
X136027200Y-125604761D02*
X135979580Y-125557142D01*
X135979580Y-125557142D02*
X135884342Y-125509523D01*
X135884342Y-125509523D02*
X135789104Y-125509523D01*
X135789104Y-125509523D02*
X135693866Y-125557142D01*
X135693866Y-125557142D02*
X135646247Y-125604761D01*
X135646247Y-125604761D02*
X135598628Y-125699999D01*
X135598628Y-125699999D02*
X135551009Y-125890475D01*
X135551009Y-125890475D02*
X135503390Y-125985713D01*
X135503390Y-125985713D02*
X135455771Y-126033332D01*
X135455771Y-126033332D02*
X135360533Y-126080951D01*
X135360533Y-126080951D02*
X135265295Y-126080951D01*
X135265295Y-126080951D02*
X135170057Y-126033332D01*
X135170057Y-126033332D02*
X135122438Y-125985713D01*
X135122438Y-125985713D02*
X135074819Y-125890475D01*
X135074819Y-125890475D02*
X135074819Y-125652380D01*
X135074819Y-125652380D02*
X135122438Y-125509523D01*
X135551009Y-125080951D02*
X135551009Y-124747618D01*
X136074819Y-124604761D02*
X136074819Y-125080951D01*
X136074819Y-125080951D02*
X135074819Y-125080951D01*
X135074819Y-125080951D02*
X135074819Y-124604761D01*
X136074819Y-123652380D02*
X136074819Y-124223808D01*
X136074819Y-123938094D02*
X135074819Y-123938094D01*
X135074819Y-123938094D02*
X135217676Y-124033332D01*
X135217676Y-124033332D02*
X135312914Y-124128570D01*
X135312914Y-124128570D02*
X135360533Y-124223808D01*
X143384819Y-124467857D02*
X142908628Y-124801190D01*
X143384819Y-125039285D02*
X142384819Y-125039285D01*
X142384819Y-125039285D02*
X142384819Y-124658333D01*
X142384819Y-124658333D02*
X142432438Y-124563095D01*
X142432438Y-124563095D02*
X142480057Y-124515476D01*
X142480057Y-124515476D02*
X142575295Y-124467857D01*
X142575295Y-124467857D02*
X142718152Y-124467857D01*
X142718152Y-124467857D02*
X142813390Y-124515476D01*
X142813390Y-124515476D02*
X142861009Y-124563095D01*
X142861009Y-124563095D02*
X142908628Y-124658333D01*
X142908628Y-124658333D02*
X142908628Y-125039285D01*
X143384819Y-123515476D02*
X143384819Y-124086904D01*
X143384819Y-123801190D02*
X142384819Y-123801190D01*
X142384819Y-123801190D02*
X142527676Y-123896428D01*
X142527676Y-123896428D02*
X142622914Y-123991666D01*
X142622914Y-123991666D02*
X142670533Y-124086904D01*
X143384819Y-123039285D02*
X143384819Y-122848809D01*
X143384819Y-122848809D02*
X143337200Y-122753571D01*
X143337200Y-122753571D02*
X143289580Y-122705952D01*
X143289580Y-122705952D02*
X143146723Y-122610714D01*
X143146723Y-122610714D02*
X142956247Y-122563095D01*
X142956247Y-122563095D02*
X142575295Y-122563095D01*
X142575295Y-122563095D02*
X142480057Y-122610714D01*
X142480057Y-122610714D02*
X142432438Y-122658333D01*
X142432438Y-122658333D02*
X142384819Y-122753571D01*
X142384819Y-122753571D02*
X142384819Y-122944047D01*
X142384819Y-122944047D02*
X142432438Y-123039285D01*
X142432438Y-123039285D02*
X142480057Y-123086904D01*
X142480057Y-123086904D02*
X142575295Y-123134523D01*
X142575295Y-123134523D02*
X142813390Y-123134523D01*
X142813390Y-123134523D02*
X142908628Y-123086904D01*
X142908628Y-123086904D02*
X142956247Y-123039285D01*
X142956247Y-123039285D02*
X143003866Y-122944047D01*
X143003866Y-122944047D02*
X143003866Y-122753571D01*
X143003866Y-122753571D02*
X142956247Y-122658333D01*
X142956247Y-122658333D02*
X142908628Y-122610714D01*
X142908628Y-122610714D02*
X142813390Y-122563095D01*
X158424819Y-134242857D02*
X157948628Y-134576190D01*
X158424819Y-134814285D02*
X157424819Y-134814285D01*
X157424819Y-134814285D02*
X157424819Y-134433333D01*
X157424819Y-134433333D02*
X157472438Y-134338095D01*
X157472438Y-134338095D02*
X157520057Y-134290476D01*
X157520057Y-134290476D02*
X157615295Y-134242857D01*
X157615295Y-134242857D02*
X157758152Y-134242857D01*
X157758152Y-134242857D02*
X157853390Y-134290476D01*
X157853390Y-134290476D02*
X157901009Y-134338095D01*
X157901009Y-134338095D02*
X157948628Y-134433333D01*
X157948628Y-134433333D02*
X157948628Y-134814285D01*
X158424819Y-133290476D02*
X158424819Y-133861904D01*
X158424819Y-133576190D02*
X157424819Y-133576190D01*
X157424819Y-133576190D02*
X157567676Y-133671428D01*
X157567676Y-133671428D02*
X157662914Y-133766666D01*
X157662914Y-133766666D02*
X157710533Y-133861904D01*
X157424819Y-132957142D02*
X157424819Y-132290476D01*
X157424819Y-132290476D02*
X158424819Y-132719047D01*
X126024819Y-124917857D02*
X125548628Y-125251190D01*
X126024819Y-125489285D02*
X125024819Y-125489285D01*
X125024819Y-125489285D02*
X125024819Y-125108333D01*
X125024819Y-125108333D02*
X125072438Y-125013095D01*
X125072438Y-125013095D02*
X125120057Y-124965476D01*
X125120057Y-124965476D02*
X125215295Y-124917857D01*
X125215295Y-124917857D02*
X125358152Y-124917857D01*
X125358152Y-124917857D02*
X125453390Y-124965476D01*
X125453390Y-124965476D02*
X125501009Y-125013095D01*
X125501009Y-125013095D02*
X125548628Y-125108333D01*
X125548628Y-125108333D02*
X125548628Y-125489285D01*
X126024819Y-123965476D02*
X126024819Y-124536904D01*
X126024819Y-124251190D02*
X125024819Y-124251190D01*
X125024819Y-124251190D02*
X125167676Y-124346428D01*
X125167676Y-124346428D02*
X125262914Y-124441666D01*
X125262914Y-124441666D02*
X125310533Y-124536904D01*
X125358152Y-123108333D02*
X126024819Y-123108333D01*
X124977200Y-123346428D02*
X125691485Y-123584523D01*
X125691485Y-123584523D02*
X125691485Y-122965476D01*
X156689580Y-136466666D02*
X156737200Y-136514285D01*
X156737200Y-136514285D02*
X156784819Y-136657142D01*
X156784819Y-136657142D02*
X156784819Y-136752380D01*
X156784819Y-136752380D02*
X156737200Y-136895237D01*
X156737200Y-136895237D02*
X156641961Y-136990475D01*
X156641961Y-136990475D02*
X156546723Y-137038094D01*
X156546723Y-137038094D02*
X156356247Y-137085713D01*
X156356247Y-137085713D02*
X156213390Y-137085713D01*
X156213390Y-137085713D02*
X156022914Y-137038094D01*
X156022914Y-137038094D02*
X155927676Y-136990475D01*
X155927676Y-136990475D02*
X155832438Y-136895237D01*
X155832438Y-136895237D02*
X155784819Y-136752380D01*
X155784819Y-136752380D02*
X155784819Y-136657142D01*
X155784819Y-136657142D02*
X155832438Y-136514285D01*
X155832438Y-136514285D02*
X155880057Y-136466666D01*
X155784819Y-136133332D02*
X155784819Y-135466666D01*
X155784819Y-135466666D02*
X156784819Y-135895237D01*
X146057142Y-122029580D02*
X146009523Y-122077200D01*
X146009523Y-122077200D02*
X145866666Y-122124819D01*
X145866666Y-122124819D02*
X145771428Y-122124819D01*
X145771428Y-122124819D02*
X145628571Y-122077200D01*
X145628571Y-122077200D02*
X145533333Y-121981961D01*
X145533333Y-121981961D02*
X145485714Y-121886723D01*
X145485714Y-121886723D02*
X145438095Y-121696247D01*
X145438095Y-121696247D02*
X145438095Y-121553390D01*
X145438095Y-121553390D02*
X145485714Y-121362914D01*
X145485714Y-121362914D02*
X145533333Y-121267676D01*
X145533333Y-121267676D02*
X145628571Y-121172438D01*
X145628571Y-121172438D02*
X145771428Y-121124819D01*
X145771428Y-121124819D02*
X145866666Y-121124819D01*
X145866666Y-121124819D02*
X146009523Y-121172438D01*
X146009523Y-121172438D02*
X146057142Y-121220057D01*
X147009523Y-122124819D02*
X146438095Y-122124819D01*
X146723809Y-122124819D02*
X146723809Y-121124819D01*
X146723809Y-121124819D02*
X146628571Y-121267676D01*
X146628571Y-121267676D02*
X146533333Y-121362914D01*
X146533333Y-121362914D02*
X146438095Y-121410533D01*
X147866666Y-121458152D02*
X147866666Y-122124819D01*
X147628571Y-121077200D02*
X147390476Y-121791485D01*
X147390476Y-121791485D02*
X148009523Y-121791485D01*
X160371485Y-148238094D02*
X159371485Y-148238094D01*
X159371485Y-148238094D02*
X159371485Y-147999999D01*
X159371485Y-147999999D02*
X159419104Y-147857142D01*
X159419104Y-147857142D02*
X159514342Y-147761904D01*
X159514342Y-147761904D02*
X159609580Y-147714285D01*
X159609580Y-147714285D02*
X159800056Y-147666666D01*
X159800056Y-147666666D02*
X159942913Y-147666666D01*
X159942913Y-147666666D02*
X160133389Y-147714285D01*
X160133389Y-147714285D02*
X160228627Y-147761904D01*
X160228627Y-147761904D02*
X160323866Y-147857142D01*
X160323866Y-147857142D02*
X160371485Y-147999999D01*
X160371485Y-147999999D02*
X160371485Y-148238094D01*
X159704818Y-146809523D02*
X160371485Y-146809523D01*
X159323866Y-147047618D02*
X160038151Y-147285713D01*
X160038151Y-147285713D02*
X160038151Y-146666666D01*
X164733333Y-137629580D02*
X164685714Y-137677200D01*
X164685714Y-137677200D02*
X164542857Y-137724819D01*
X164542857Y-137724819D02*
X164447619Y-137724819D01*
X164447619Y-137724819D02*
X164304762Y-137677200D01*
X164304762Y-137677200D02*
X164209524Y-137581961D01*
X164209524Y-137581961D02*
X164161905Y-137486723D01*
X164161905Y-137486723D02*
X164114286Y-137296247D01*
X164114286Y-137296247D02*
X164114286Y-137153390D01*
X164114286Y-137153390D02*
X164161905Y-136962914D01*
X164161905Y-136962914D02*
X164209524Y-136867676D01*
X164209524Y-136867676D02*
X164304762Y-136772438D01*
X164304762Y-136772438D02*
X164447619Y-136724819D01*
X164447619Y-136724819D02*
X164542857Y-136724819D01*
X164542857Y-136724819D02*
X164685714Y-136772438D01*
X164685714Y-136772438D02*
X164733333Y-136820057D01*
X165685714Y-137724819D02*
X165114286Y-137724819D01*
X165400000Y-137724819D02*
X165400000Y-136724819D01*
X165400000Y-136724819D02*
X165304762Y-136867676D01*
X165304762Y-136867676D02*
X165209524Y-136962914D01*
X165209524Y-136962914D02*
X165114286Y-137010533D01*
X163232142Y-124684819D02*
X162898809Y-124208628D01*
X162660714Y-124684819D02*
X162660714Y-123684819D01*
X162660714Y-123684819D02*
X163041666Y-123684819D01*
X163041666Y-123684819D02*
X163136904Y-123732438D01*
X163136904Y-123732438D02*
X163184523Y-123780057D01*
X163184523Y-123780057D02*
X163232142Y-123875295D01*
X163232142Y-123875295D02*
X163232142Y-124018152D01*
X163232142Y-124018152D02*
X163184523Y-124113390D01*
X163184523Y-124113390D02*
X163136904Y-124161009D01*
X163136904Y-124161009D02*
X163041666Y-124208628D01*
X163041666Y-124208628D02*
X162660714Y-124208628D01*
X163613095Y-123780057D02*
X163660714Y-123732438D01*
X163660714Y-123732438D02*
X163755952Y-123684819D01*
X163755952Y-123684819D02*
X163994047Y-123684819D01*
X163994047Y-123684819D02*
X164089285Y-123732438D01*
X164089285Y-123732438D02*
X164136904Y-123780057D01*
X164136904Y-123780057D02*
X164184523Y-123875295D01*
X164184523Y-123875295D02*
X164184523Y-123970533D01*
X164184523Y-123970533D02*
X164136904Y-124113390D01*
X164136904Y-124113390D02*
X163565476Y-124684819D01*
X163565476Y-124684819D02*
X164184523Y-124684819D01*
X165136904Y-124684819D02*
X164565476Y-124684819D01*
X164851190Y-124684819D02*
X164851190Y-123684819D01*
X164851190Y-123684819D02*
X164755952Y-123827676D01*
X164755952Y-123827676D02*
X164660714Y-123922914D01*
X164660714Y-123922914D02*
X164565476Y-123970533D01*
X149032142Y-125284819D02*
X148698809Y-124808628D01*
X148460714Y-125284819D02*
X148460714Y-124284819D01*
X148460714Y-124284819D02*
X148841666Y-124284819D01*
X148841666Y-124284819D02*
X148936904Y-124332438D01*
X148936904Y-124332438D02*
X148984523Y-124380057D01*
X148984523Y-124380057D02*
X149032142Y-124475295D01*
X149032142Y-124475295D02*
X149032142Y-124618152D01*
X149032142Y-124618152D02*
X148984523Y-124713390D01*
X148984523Y-124713390D02*
X148936904Y-124761009D01*
X148936904Y-124761009D02*
X148841666Y-124808628D01*
X148841666Y-124808628D02*
X148460714Y-124808628D01*
X149984523Y-125284819D02*
X149413095Y-125284819D01*
X149698809Y-125284819D02*
X149698809Y-124284819D01*
X149698809Y-124284819D02*
X149603571Y-124427676D01*
X149603571Y-124427676D02*
X149508333Y-124522914D01*
X149508333Y-124522914D02*
X149413095Y-124570533D01*
X150555952Y-124713390D02*
X150460714Y-124665771D01*
X150460714Y-124665771D02*
X150413095Y-124618152D01*
X150413095Y-124618152D02*
X150365476Y-124522914D01*
X150365476Y-124522914D02*
X150365476Y-124475295D01*
X150365476Y-124475295D02*
X150413095Y-124380057D01*
X150413095Y-124380057D02*
X150460714Y-124332438D01*
X150460714Y-124332438D02*
X150555952Y-124284819D01*
X150555952Y-124284819D02*
X150746428Y-124284819D01*
X150746428Y-124284819D02*
X150841666Y-124332438D01*
X150841666Y-124332438D02*
X150889285Y-124380057D01*
X150889285Y-124380057D02*
X150936904Y-124475295D01*
X150936904Y-124475295D02*
X150936904Y-124522914D01*
X150936904Y-124522914D02*
X150889285Y-124618152D01*
X150889285Y-124618152D02*
X150841666Y-124665771D01*
X150841666Y-124665771D02*
X150746428Y-124713390D01*
X150746428Y-124713390D02*
X150555952Y-124713390D01*
X150555952Y-124713390D02*
X150460714Y-124761009D01*
X150460714Y-124761009D02*
X150413095Y-124808628D01*
X150413095Y-124808628D02*
X150365476Y-124903866D01*
X150365476Y-124903866D02*
X150365476Y-125094342D01*
X150365476Y-125094342D02*
X150413095Y-125189580D01*
X150413095Y-125189580D02*
X150460714Y-125237200D01*
X150460714Y-125237200D02*
X150555952Y-125284819D01*
X150555952Y-125284819D02*
X150746428Y-125284819D01*
X150746428Y-125284819D02*
X150841666Y-125237200D01*
X150841666Y-125237200D02*
X150889285Y-125189580D01*
X150889285Y-125189580D02*
X150936904Y-125094342D01*
X150936904Y-125094342D02*
X150936904Y-124903866D01*
X150936904Y-124903866D02*
X150889285Y-124808628D01*
X150889285Y-124808628D02*
X150841666Y-124761009D01*
X150841666Y-124761009D02*
X150746428Y-124713390D01*
X156557142Y-125284819D02*
X156223809Y-124808628D01*
X155985714Y-125284819D02*
X155985714Y-124284819D01*
X155985714Y-124284819D02*
X156366666Y-124284819D01*
X156366666Y-124284819D02*
X156461904Y-124332438D01*
X156461904Y-124332438D02*
X156509523Y-124380057D01*
X156509523Y-124380057D02*
X156557142Y-124475295D01*
X156557142Y-124475295D02*
X156557142Y-124618152D01*
X156557142Y-124618152D02*
X156509523Y-124713390D01*
X156509523Y-124713390D02*
X156461904Y-124761009D01*
X156461904Y-124761009D02*
X156366666Y-124808628D01*
X156366666Y-124808628D02*
X155985714Y-124808628D01*
X157509523Y-125284819D02*
X156938095Y-125284819D01*
X157223809Y-125284819D02*
X157223809Y-124284819D01*
X157223809Y-124284819D02*
X157128571Y-124427676D01*
X157128571Y-124427676D02*
X157033333Y-124522914D01*
X157033333Y-124522914D02*
X156938095Y-124570533D01*
X158128571Y-124284819D02*
X158223809Y-124284819D01*
X158223809Y-124284819D02*
X158319047Y-124332438D01*
X158319047Y-124332438D02*
X158366666Y-124380057D01*
X158366666Y-124380057D02*
X158414285Y-124475295D01*
X158414285Y-124475295D02*
X158461904Y-124665771D01*
X158461904Y-124665771D02*
X158461904Y-124903866D01*
X158461904Y-124903866D02*
X158414285Y-125094342D01*
X158414285Y-125094342D02*
X158366666Y-125189580D01*
X158366666Y-125189580D02*
X158319047Y-125237200D01*
X158319047Y-125237200D02*
X158223809Y-125284819D01*
X158223809Y-125284819D02*
X158128571Y-125284819D01*
X158128571Y-125284819D02*
X158033333Y-125237200D01*
X158033333Y-125237200D02*
X157985714Y-125189580D01*
X157985714Y-125189580D02*
X157938095Y-125094342D01*
X157938095Y-125094342D02*
X157890476Y-124903866D01*
X157890476Y-124903866D02*
X157890476Y-124665771D01*
X157890476Y-124665771D02*
X157938095Y-124475295D01*
X157938095Y-124475295D02*
X157985714Y-124380057D01*
X157985714Y-124380057D02*
X158033333Y-124332438D01*
X158033333Y-124332438D02*
X158128571Y-124284819D01*
X139829580Y-134891666D02*
X139877200Y-134939285D01*
X139877200Y-134939285D02*
X139924819Y-135082142D01*
X139924819Y-135082142D02*
X139924819Y-135177380D01*
X139924819Y-135177380D02*
X139877200Y-135320237D01*
X139877200Y-135320237D02*
X139781961Y-135415475D01*
X139781961Y-135415475D02*
X139686723Y-135463094D01*
X139686723Y-135463094D02*
X139496247Y-135510713D01*
X139496247Y-135510713D02*
X139353390Y-135510713D01*
X139353390Y-135510713D02*
X139162914Y-135463094D01*
X139162914Y-135463094D02*
X139067676Y-135415475D01*
X139067676Y-135415475D02*
X138972438Y-135320237D01*
X138972438Y-135320237D02*
X138924819Y-135177380D01*
X138924819Y-135177380D02*
X138924819Y-135082142D01*
X138924819Y-135082142D02*
X138972438Y-134939285D01*
X138972438Y-134939285D02*
X139020057Y-134891666D01*
X138924819Y-134558332D02*
X138924819Y-133939285D01*
X138924819Y-133939285D02*
X139305771Y-134272618D01*
X139305771Y-134272618D02*
X139305771Y-134129761D01*
X139305771Y-134129761D02*
X139353390Y-134034523D01*
X139353390Y-134034523D02*
X139401009Y-133986904D01*
X139401009Y-133986904D02*
X139496247Y-133939285D01*
X139496247Y-133939285D02*
X139734342Y-133939285D01*
X139734342Y-133939285D02*
X139829580Y-133986904D01*
X139829580Y-133986904D02*
X139877200Y-134034523D01*
X139877200Y-134034523D02*
X139924819Y-134129761D01*
X139924819Y-134129761D02*
X139924819Y-134415475D01*
X139924819Y-134415475D02*
X139877200Y-134510713D01*
X139877200Y-134510713D02*
X139829580Y-134558332D01*
D11*
X162304761Y-121067657D02*
X162209523Y-121020038D01*
X162209523Y-121020038D02*
X162114285Y-120924800D01*
X162114285Y-120924800D02*
X161971428Y-120781942D01*
X161971428Y-120781942D02*
X161876190Y-120734323D01*
X161876190Y-120734323D02*
X161780952Y-120734323D01*
X161828571Y-120972419D02*
X161733333Y-120924800D01*
X161733333Y-120924800D02*
X161638095Y-120829561D01*
X161638095Y-120829561D02*
X161590476Y-120639085D01*
X161590476Y-120639085D02*
X161590476Y-120305752D01*
X161590476Y-120305752D02*
X161638095Y-120115276D01*
X161638095Y-120115276D02*
X161733333Y-120020038D01*
X161733333Y-120020038D02*
X161828571Y-119972419D01*
X161828571Y-119972419D02*
X162019047Y-119972419D01*
X162019047Y-119972419D02*
X162114285Y-120020038D01*
X162114285Y-120020038D02*
X162209523Y-120115276D01*
X162209523Y-120115276D02*
X162257142Y-120305752D01*
X162257142Y-120305752D02*
X162257142Y-120639085D01*
X162257142Y-120639085D02*
X162209523Y-120829561D01*
X162209523Y-120829561D02*
X162114285Y-120924800D01*
X162114285Y-120924800D02*
X162019047Y-120972419D01*
X162019047Y-120972419D02*
X161828571Y-120972419D01*
X162638095Y-120067657D02*
X162685714Y-120020038D01*
X162685714Y-120020038D02*
X162780952Y-119972419D01*
X162780952Y-119972419D02*
X163019047Y-119972419D01*
X163019047Y-119972419D02*
X163114285Y-120020038D01*
X163114285Y-120020038D02*
X163161904Y-120067657D01*
X163161904Y-120067657D02*
X163209523Y-120162895D01*
X163209523Y-120162895D02*
X163209523Y-120258133D01*
X163209523Y-120258133D02*
X163161904Y-120400990D01*
X163161904Y-120400990D02*
X162590476Y-120972419D01*
X162590476Y-120972419D02*
X163209523Y-120972419D01*
X148804761Y-121114357D02*
X148709523Y-121066738D01*
X148709523Y-121066738D02*
X148614285Y-120971500D01*
X148614285Y-120971500D02*
X148471428Y-120828642D01*
X148471428Y-120828642D02*
X148376190Y-120781023D01*
X148376190Y-120781023D02*
X148280952Y-120781023D01*
X148328571Y-121019119D02*
X148233333Y-120971500D01*
X148233333Y-120971500D02*
X148138095Y-120876261D01*
X148138095Y-120876261D02*
X148090476Y-120685785D01*
X148090476Y-120685785D02*
X148090476Y-120352452D01*
X148090476Y-120352452D02*
X148138095Y-120161976D01*
X148138095Y-120161976D02*
X148233333Y-120066738D01*
X148233333Y-120066738D02*
X148328571Y-120019119D01*
X148328571Y-120019119D02*
X148519047Y-120019119D01*
X148519047Y-120019119D02*
X148614285Y-120066738D01*
X148614285Y-120066738D02*
X148709523Y-120161976D01*
X148709523Y-120161976D02*
X148757142Y-120352452D01*
X148757142Y-120352452D02*
X148757142Y-120685785D01*
X148757142Y-120685785D02*
X148709523Y-120876261D01*
X148709523Y-120876261D02*
X148614285Y-120971500D01*
X148614285Y-120971500D02*
X148519047Y-121019119D01*
X148519047Y-121019119D02*
X148328571Y-121019119D01*
X149614285Y-120352452D02*
X149614285Y-121019119D01*
X149376190Y-119971500D02*
X149138095Y-120685785D01*
X149138095Y-120685785D02*
X149757142Y-120685785D01*
D10*
X168284819Y-144641666D02*
X167808628Y-144974999D01*
X168284819Y-145213094D02*
X167284819Y-145213094D01*
X167284819Y-145213094D02*
X167284819Y-144832142D01*
X167284819Y-144832142D02*
X167332438Y-144736904D01*
X167332438Y-144736904D02*
X167380057Y-144689285D01*
X167380057Y-144689285D02*
X167475295Y-144641666D01*
X167475295Y-144641666D02*
X167618152Y-144641666D01*
X167618152Y-144641666D02*
X167713390Y-144689285D01*
X167713390Y-144689285D02*
X167761009Y-144736904D01*
X167761009Y-144736904D02*
X167808628Y-144832142D01*
X167808628Y-144832142D02*
X167808628Y-145213094D01*
X168284819Y-143689285D02*
X168284819Y-144260713D01*
X168284819Y-143974999D02*
X167284819Y-143974999D01*
X167284819Y-143974999D02*
X167427676Y-144070237D01*
X167427676Y-144070237D02*
X167522914Y-144165475D01*
X167522914Y-144165475D02*
X167570533Y-144260713D01*
X158454819Y-140861904D02*
X159264342Y-140861904D01*
X159264342Y-140861904D02*
X159359580Y-140814285D01*
X159359580Y-140814285D02*
X159407200Y-140766666D01*
X159407200Y-140766666D02*
X159454819Y-140671428D01*
X159454819Y-140671428D02*
X159454819Y-140480952D01*
X159454819Y-140480952D02*
X159407200Y-140385714D01*
X159407200Y-140385714D02*
X159359580Y-140338095D01*
X159359580Y-140338095D02*
X159264342Y-140290476D01*
X159264342Y-140290476D02*
X158454819Y-140290476D01*
X159454819Y-139290476D02*
X159454819Y-139861904D01*
X159454819Y-139576190D02*
X158454819Y-139576190D01*
X158454819Y-139576190D02*
X158597676Y-139671428D01*
X158597676Y-139671428D02*
X158692914Y-139766666D01*
X158692914Y-139766666D02*
X158740533Y-139861904D01*
X157524819Y-148238094D02*
X156524819Y-148238094D01*
X156524819Y-148238094D02*
X156524819Y-147999999D01*
X156524819Y-147999999D02*
X156572438Y-147857142D01*
X156572438Y-147857142D02*
X156667676Y-147761904D01*
X156667676Y-147761904D02*
X156762914Y-147714285D01*
X156762914Y-147714285D02*
X156953390Y-147666666D01*
X156953390Y-147666666D02*
X157096247Y-147666666D01*
X157096247Y-147666666D02*
X157286723Y-147714285D01*
X157286723Y-147714285D02*
X157381961Y-147761904D01*
X157381961Y-147761904D02*
X157477200Y-147857142D01*
X157477200Y-147857142D02*
X157524819Y-147999999D01*
X157524819Y-147999999D02*
X157524819Y-148238094D01*
X156524819Y-146761904D02*
X156524819Y-147238094D01*
X156524819Y-147238094D02*
X157001009Y-147285713D01*
X157001009Y-147285713D02*
X156953390Y-147238094D01*
X156953390Y-147238094D02*
X156905771Y-147142856D01*
X156905771Y-147142856D02*
X156905771Y-146904761D01*
X156905771Y-146904761D02*
X156953390Y-146809523D01*
X156953390Y-146809523D02*
X157001009Y-146761904D01*
X157001009Y-146761904D02*
X157096247Y-146714285D01*
X157096247Y-146714285D02*
X157334342Y-146714285D01*
X157334342Y-146714285D02*
X157429580Y-146761904D01*
X157429580Y-146761904D02*
X157477200Y-146809523D01*
X157477200Y-146809523D02*
X157524819Y-146904761D01*
X157524819Y-146904761D02*
X157524819Y-147142856D01*
X157524819Y-147142856D02*
X157477200Y-147238094D01*
X157477200Y-147238094D02*
X157429580Y-147285713D01*
X131457142Y-121729580D02*
X131409523Y-121777200D01*
X131409523Y-121777200D02*
X131266666Y-121824819D01*
X131266666Y-121824819D02*
X131171428Y-121824819D01*
X131171428Y-121824819D02*
X131028571Y-121777200D01*
X131028571Y-121777200D02*
X130933333Y-121681961D01*
X130933333Y-121681961D02*
X130885714Y-121586723D01*
X130885714Y-121586723D02*
X130838095Y-121396247D01*
X130838095Y-121396247D02*
X130838095Y-121253390D01*
X130838095Y-121253390D02*
X130885714Y-121062914D01*
X130885714Y-121062914D02*
X130933333Y-120967676D01*
X130933333Y-120967676D02*
X131028571Y-120872438D01*
X131028571Y-120872438D02*
X131171428Y-120824819D01*
X131171428Y-120824819D02*
X131266666Y-120824819D01*
X131266666Y-120824819D02*
X131409523Y-120872438D01*
X131409523Y-120872438D02*
X131457142Y-120920057D01*
X132409523Y-121824819D02*
X131838095Y-121824819D01*
X132123809Y-121824819D02*
X132123809Y-120824819D01*
X132123809Y-120824819D02*
X132028571Y-120967676D01*
X132028571Y-120967676D02*
X131933333Y-121062914D01*
X131933333Y-121062914D02*
X131838095Y-121110533D01*
X133314285Y-120824819D02*
X132838095Y-120824819D01*
X132838095Y-120824819D02*
X132790476Y-121301009D01*
X132790476Y-121301009D02*
X132838095Y-121253390D01*
X132838095Y-121253390D02*
X132933333Y-121205771D01*
X132933333Y-121205771D02*
X133171428Y-121205771D01*
X133171428Y-121205771D02*
X133266666Y-121253390D01*
X133266666Y-121253390D02*
X133314285Y-121301009D01*
X133314285Y-121301009D02*
X133361904Y-121396247D01*
X133361904Y-121396247D02*
X133361904Y-121634342D01*
X133361904Y-121634342D02*
X133314285Y-121729580D01*
X133314285Y-121729580D02*
X133266666Y-121777200D01*
X133266666Y-121777200D02*
X133171428Y-121824819D01*
X133171428Y-121824819D02*
X132933333Y-121824819D01*
X132933333Y-121824819D02*
X132838095Y-121777200D01*
X132838095Y-121777200D02*
X132790476Y-121729580D01*
X155508333Y-129329580D02*
X155460714Y-129377200D01*
X155460714Y-129377200D02*
X155317857Y-129424819D01*
X155317857Y-129424819D02*
X155222619Y-129424819D01*
X155222619Y-129424819D02*
X155079762Y-129377200D01*
X155079762Y-129377200D02*
X154984524Y-129281961D01*
X154984524Y-129281961D02*
X154936905Y-129186723D01*
X154936905Y-129186723D02*
X154889286Y-128996247D01*
X154889286Y-128996247D02*
X154889286Y-128853390D01*
X154889286Y-128853390D02*
X154936905Y-128662914D01*
X154936905Y-128662914D02*
X154984524Y-128567676D01*
X154984524Y-128567676D02*
X155079762Y-128472438D01*
X155079762Y-128472438D02*
X155222619Y-128424819D01*
X155222619Y-128424819D02*
X155317857Y-128424819D01*
X155317857Y-128424819D02*
X155460714Y-128472438D01*
X155460714Y-128472438D02*
X155508333Y-128520057D01*
X156079762Y-128853390D02*
X155984524Y-128805771D01*
X155984524Y-128805771D02*
X155936905Y-128758152D01*
X155936905Y-128758152D02*
X155889286Y-128662914D01*
X155889286Y-128662914D02*
X155889286Y-128615295D01*
X155889286Y-128615295D02*
X155936905Y-128520057D01*
X155936905Y-128520057D02*
X155984524Y-128472438D01*
X155984524Y-128472438D02*
X156079762Y-128424819D01*
X156079762Y-128424819D02*
X156270238Y-128424819D01*
X156270238Y-128424819D02*
X156365476Y-128472438D01*
X156365476Y-128472438D02*
X156413095Y-128520057D01*
X156413095Y-128520057D02*
X156460714Y-128615295D01*
X156460714Y-128615295D02*
X156460714Y-128662914D01*
X156460714Y-128662914D02*
X156413095Y-128758152D01*
X156413095Y-128758152D02*
X156365476Y-128805771D01*
X156365476Y-128805771D02*
X156270238Y-128853390D01*
X156270238Y-128853390D02*
X156079762Y-128853390D01*
X156079762Y-128853390D02*
X155984524Y-128901009D01*
X155984524Y-128901009D02*
X155936905Y-128948628D01*
X155936905Y-128948628D02*
X155889286Y-129043866D01*
X155889286Y-129043866D02*
X155889286Y-129234342D01*
X155889286Y-129234342D02*
X155936905Y-129329580D01*
X155936905Y-129329580D02*
X155984524Y-129377200D01*
X155984524Y-129377200D02*
X156079762Y-129424819D01*
X156079762Y-129424819D02*
X156270238Y-129424819D01*
X156270238Y-129424819D02*
X156365476Y-129377200D01*
X156365476Y-129377200D02*
X156413095Y-129329580D01*
X156413095Y-129329580D02*
X156460714Y-129234342D01*
X156460714Y-129234342D02*
X156460714Y-129043866D01*
X156460714Y-129043866D02*
X156413095Y-128948628D01*
X156413095Y-128948628D02*
X156365476Y-128901009D01*
X156365476Y-128901009D02*
X156270238Y-128853390D01*
X138432142Y-125084819D02*
X138098809Y-124608628D01*
X137860714Y-125084819D02*
X137860714Y-124084819D01*
X137860714Y-124084819D02*
X138241666Y-124084819D01*
X138241666Y-124084819D02*
X138336904Y-124132438D01*
X138336904Y-124132438D02*
X138384523Y-124180057D01*
X138384523Y-124180057D02*
X138432142Y-124275295D01*
X138432142Y-124275295D02*
X138432142Y-124418152D01*
X138432142Y-124418152D02*
X138384523Y-124513390D01*
X138384523Y-124513390D02*
X138336904Y-124561009D01*
X138336904Y-124561009D02*
X138241666Y-124608628D01*
X138241666Y-124608628D02*
X137860714Y-124608628D01*
X139384523Y-125084819D02*
X138813095Y-125084819D01*
X139098809Y-125084819D02*
X139098809Y-124084819D01*
X139098809Y-124084819D02*
X139003571Y-124227676D01*
X139003571Y-124227676D02*
X138908333Y-124322914D01*
X138908333Y-124322914D02*
X138813095Y-124370533D01*
X140289285Y-124084819D02*
X139813095Y-124084819D01*
X139813095Y-124084819D02*
X139765476Y-124561009D01*
X139765476Y-124561009D02*
X139813095Y-124513390D01*
X139813095Y-124513390D02*
X139908333Y-124465771D01*
X139908333Y-124465771D02*
X140146428Y-124465771D01*
X140146428Y-124465771D02*
X140241666Y-124513390D01*
X140241666Y-124513390D02*
X140289285Y-124561009D01*
X140289285Y-124561009D02*
X140336904Y-124656247D01*
X140336904Y-124656247D02*
X140336904Y-124894342D01*
X140336904Y-124894342D02*
X140289285Y-124989580D01*
X140289285Y-124989580D02*
X140241666Y-125037200D01*
X140241666Y-125037200D02*
X140146428Y-125084819D01*
X140146428Y-125084819D02*
X139908333Y-125084819D01*
X139908333Y-125084819D02*
X139813095Y-125037200D01*
X139813095Y-125037200D02*
X139765476Y-124989580D01*
X163584819Y-144166666D02*
X163108628Y-144499999D01*
X163584819Y-144738094D02*
X162584819Y-144738094D01*
X162584819Y-144738094D02*
X162584819Y-144357142D01*
X162584819Y-144357142D02*
X162632438Y-144261904D01*
X162632438Y-144261904D02*
X162680057Y-144214285D01*
X162680057Y-144214285D02*
X162775295Y-144166666D01*
X162775295Y-144166666D02*
X162918152Y-144166666D01*
X162918152Y-144166666D02*
X163013390Y-144214285D01*
X163013390Y-144214285D02*
X163061009Y-144261904D01*
X163061009Y-144261904D02*
X163108628Y-144357142D01*
X163108628Y-144357142D02*
X163108628Y-144738094D01*
X162680057Y-143785713D02*
X162632438Y-143738094D01*
X162632438Y-143738094D02*
X162584819Y-143642856D01*
X162584819Y-143642856D02*
X162584819Y-143404761D01*
X162584819Y-143404761D02*
X162632438Y-143309523D01*
X162632438Y-143309523D02*
X162680057Y-143261904D01*
X162680057Y-143261904D02*
X162775295Y-143214285D01*
X162775295Y-143214285D02*
X162870533Y-143214285D01*
X162870533Y-143214285D02*
X163013390Y-143261904D01*
X163013390Y-143261904D02*
X163584819Y-143833332D01*
X163584819Y-143833332D02*
X163584819Y-143214285D01*
D11*
X135004761Y-121161057D02*
X134909523Y-121113438D01*
X134909523Y-121113438D02*
X134814285Y-121018200D01*
X134814285Y-121018200D02*
X134671428Y-120875342D01*
X134671428Y-120875342D02*
X134576190Y-120827723D01*
X134576190Y-120827723D02*
X134480952Y-120827723D01*
X134528571Y-121065819D02*
X134433333Y-121018200D01*
X134433333Y-121018200D02*
X134338095Y-120922961D01*
X134338095Y-120922961D02*
X134290476Y-120732485D01*
X134290476Y-120732485D02*
X134290476Y-120399152D01*
X134290476Y-120399152D02*
X134338095Y-120208676D01*
X134338095Y-120208676D02*
X134433333Y-120113438D01*
X134433333Y-120113438D02*
X134528571Y-120065819D01*
X134528571Y-120065819D02*
X134719047Y-120065819D01*
X134719047Y-120065819D02*
X134814285Y-120113438D01*
X134814285Y-120113438D02*
X134909523Y-120208676D01*
X134909523Y-120208676D02*
X134957142Y-120399152D01*
X134957142Y-120399152D02*
X134957142Y-120732485D01*
X134957142Y-120732485D02*
X134909523Y-120922961D01*
X134909523Y-120922961D02*
X134814285Y-121018200D01*
X134814285Y-121018200D02*
X134719047Y-121065819D01*
X134719047Y-121065819D02*
X134528571Y-121065819D01*
X135814285Y-120065819D02*
X135623809Y-120065819D01*
X135623809Y-120065819D02*
X135528571Y-120113438D01*
X135528571Y-120113438D02*
X135480952Y-120161057D01*
X135480952Y-120161057D02*
X135385714Y-120303914D01*
X135385714Y-120303914D02*
X135338095Y-120494390D01*
X135338095Y-120494390D02*
X135338095Y-120875342D01*
X135338095Y-120875342D02*
X135385714Y-120970580D01*
X135385714Y-120970580D02*
X135433333Y-121018200D01*
X135433333Y-121018200D02*
X135528571Y-121065819D01*
X135528571Y-121065819D02*
X135719047Y-121065819D01*
X135719047Y-121065819D02*
X135814285Y-121018200D01*
X135814285Y-121018200D02*
X135861904Y-120970580D01*
X135861904Y-120970580D02*
X135909523Y-120875342D01*
X135909523Y-120875342D02*
X135909523Y-120637247D01*
X135909523Y-120637247D02*
X135861904Y-120542009D01*
X135861904Y-120542009D02*
X135814285Y-120494390D01*
X135814285Y-120494390D02*
X135719047Y-120446771D01*
X135719047Y-120446771D02*
X135528571Y-120446771D01*
X135528571Y-120446771D02*
X135433333Y-120494390D01*
X135433333Y-120494390D02*
X135385714Y-120542009D01*
X135385714Y-120542009D02*
X135338095Y-120637247D01*
D10*
X146466666Y-140454819D02*
X146466666Y-141169104D01*
X146466666Y-141169104D02*
X146419047Y-141311961D01*
X146419047Y-141311961D02*
X146323809Y-141407200D01*
X146323809Y-141407200D02*
X146180952Y-141454819D01*
X146180952Y-141454819D02*
X146085714Y-141454819D01*
X147371428Y-140788152D02*
X147371428Y-141454819D01*
X147133333Y-140407200D02*
X146895238Y-141121485D01*
X146895238Y-141121485D02*
X147514285Y-141121485D01*
X164061905Y-140854819D02*
X164061905Y-139854819D01*
X164061905Y-139854819D02*
X164300000Y-139854819D01*
X164300000Y-139854819D02*
X164442857Y-139902438D01*
X164442857Y-139902438D02*
X164538095Y-139997676D01*
X164538095Y-139997676D02*
X164585714Y-140092914D01*
X164585714Y-140092914D02*
X164633333Y-140283390D01*
X164633333Y-140283390D02*
X164633333Y-140426247D01*
X164633333Y-140426247D02*
X164585714Y-140616723D01*
X164585714Y-140616723D02*
X164538095Y-140711961D01*
X164538095Y-140711961D02*
X164442857Y-140807200D01*
X164442857Y-140807200D02*
X164300000Y-140854819D01*
X164300000Y-140854819D02*
X164061905Y-140854819D01*
X164966667Y-139854819D02*
X165585714Y-139854819D01*
X165585714Y-139854819D02*
X165252381Y-140235771D01*
X165252381Y-140235771D02*
X165395238Y-140235771D01*
X165395238Y-140235771D02*
X165490476Y-140283390D01*
X165490476Y-140283390D02*
X165538095Y-140331009D01*
X165538095Y-140331009D02*
X165585714Y-140426247D01*
X165585714Y-140426247D02*
X165585714Y-140664342D01*
X165585714Y-140664342D02*
X165538095Y-140759580D01*
X165538095Y-140759580D02*
X165490476Y-140807200D01*
X165490476Y-140807200D02*
X165395238Y-140854819D01*
X165395238Y-140854819D02*
X165109524Y-140854819D01*
X165109524Y-140854819D02*
X165014286Y-140807200D01*
X165014286Y-140807200D02*
X164966667Y-140759580D01*
X135432142Y-125084819D02*
X135098809Y-124608628D01*
X134860714Y-125084819D02*
X134860714Y-124084819D01*
X134860714Y-124084819D02*
X135241666Y-124084819D01*
X135241666Y-124084819D02*
X135336904Y-124132438D01*
X135336904Y-124132438D02*
X135384523Y-124180057D01*
X135384523Y-124180057D02*
X135432142Y-124275295D01*
X135432142Y-124275295D02*
X135432142Y-124418152D01*
X135432142Y-124418152D02*
X135384523Y-124513390D01*
X135384523Y-124513390D02*
X135336904Y-124561009D01*
X135336904Y-124561009D02*
X135241666Y-124608628D01*
X135241666Y-124608628D02*
X134860714Y-124608628D01*
X135813095Y-124180057D02*
X135860714Y-124132438D01*
X135860714Y-124132438D02*
X135955952Y-124084819D01*
X135955952Y-124084819D02*
X136194047Y-124084819D01*
X136194047Y-124084819D02*
X136289285Y-124132438D01*
X136289285Y-124132438D02*
X136336904Y-124180057D01*
X136336904Y-124180057D02*
X136384523Y-124275295D01*
X136384523Y-124275295D02*
X136384523Y-124370533D01*
X136384523Y-124370533D02*
X136336904Y-124513390D01*
X136336904Y-124513390D02*
X135765476Y-125084819D01*
X135765476Y-125084819D02*
X136384523Y-125084819D01*
X136717857Y-124084819D02*
X137336904Y-124084819D01*
X137336904Y-124084819D02*
X137003571Y-124465771D01*
X137003571Y-124465771D02*
X137146428Y-124465771D01*
X137146428Y-124465771D02*
X137241666Y-124513390D01*
X137241666Y-124513390D02*
X137289285Y-124561009D01*
X137289285Y-124561009D02*
X137336904Y-124656247D01*
X137336904Y-124656247D02*
X137336904Y-124894342D01*
X137336904Y-124894342D02*
X137289285Y-124989580D01*
X137289285Y-124989580D02*
X137241666Y-125037200D01*
X137241666Y-125037200D02*
X137146428Y-125084819D01*
X137146428Y-125084819D02*
X136860714Y-125084819D01*
X136860714Y-125084819D02*
X136765476Y-125037200D01*
X136765476Y-125037200D02*
X136717857Y-124989580D01*
X165424819Y-148238094D02*
X164424819Y-148238094D01*
X164424819Y-148238094D02*
X164424819Y-147999999D01*
X164424819Y-147999999D02*
X164472438Y-147857142D01*
X164472438Y-147857142D02*
X164567676Y-147761904D01*
X164567676Y-147761904D02*
X164662914Y-147714285D01*
X164662914Y-147714285D02*
X164853390Y-147666666D01*
X164853390Y-147666666D02*
X164996247Y-147666666D01*
X164996247Y-147666666D02*
X165186723Y-147714285D01*
X165186723Y-147714285D02*
X165281961Y-147761904D01*
X165281961Y-147761904D02*
X165377200Y-147857142D01*
X165377200Y-147857142D02*
X165424819Y-147999999D01*
X165424819Y-147999999D02*
X165424819Y-148238094D01*
X165424819Y-146714285D02*
X165424819Y-147285713D01*
X165424819Y-146999999D02*
X164424819Y-146999999D01*
X164424819Y-146999999D02*
X164567676Y-147095237D01*
X164567676Y-147095237D02*
X164662914Y-147190475D01*
X164662914Y-147190475D02*
X164710533Y-147285713D01*
X163624819Y-125767857D02*
X163148628Y-126101190D01*
X163624819Y-126339285D02*
X162624819Y-126339285D01*
X162624819Y-126339285D02*
X162624819Y-125958333D01*
X162624819Y-125958333D02*
X162672438Y-125863095D01*
X162672438Y-125863095D02*
X162720057Y-125815476D01*
X162720057Y-125815476D02*
X162815295Y-125767857D01*
X162815295Y-125767857D02*
X162958152Y-125767857D01*
X162958152Y-125767857D02*
X163053390Y-125815476D01*
X163053390Y-125815476D02*
X163101009Y-125863095D01*
X163101009Y-125863095D02*
X163148628Y-125958333D01*
X163148628Y-125958333D02*
X163148628Y-126339285D01*
X163624819Y-124815476D02*
X163624819Y-125386904D01*
X163624819Y-125101190D02*
X162624819Y-125101190D01*
X162624819Y-125101190D02*
X162767676Y-125196428D01*
X162767676Y-125196428D02*
X162862914Y-125291666D01*
X162862914Y-125291666D02*
X162910533Y-125386904D01*
X163624819Y-123863095D02*
X163624819Y-124434523D01*
X163624819Y-124148809D02*
X162624819Y-124148809D01*
X162624819Y-124148809D02*
X162767676Y-124244047D01*
X162767676Y-124244047D02*
X162862914Y-124339285D01*
X162862914Y-124339285D02*
X162910533Y-124434523D01*
X156784819Y-124742857D02*
X156308628Y-125076190D01*
X156784819Y-125314285D02*
X155784819Y-125314285D01*
X155784819Y-125314285D02*
X155784819Y-124933333D01*
X155784819Y-124933333D02*
X155832438Y-124838095D01*
X155832438Y-124838095D02*
X155880057Y-124790476D01*
X155880057Y-124790476D02*
X155975295Y-124742857D01*
X155975295Y-124742857D02*
X156118152Y-124742857D01*
X156118152Y-124742857D02*
X156213390Y-124790476D01*
X156213390Y-124790476D02*
X156261009Y-124838095D01*
X156261009Y-124838095D02*
X156308628Y-124933333D01*
X156308628Y-124933333D02*
X156308628Y-125314285D01*
X155880057Y-124361904D02*
X155832438Y-124314285D01*
X155832438Y-124314285D02*
X155784819Y-124219047D01*
X155784819Y-124219047D02*
X155784819Y-123980952D01*
X155784819Y-123980952D02*
X155832438Y-123885714D01*
X155832438Y-123885714D02*
X155880057Y-123838095D01*
X155880057Y-123838095D02*
X155975295Y-123790476D01*
X155975295Y-123790476D02*
X156070533Y-123790476D01*
X156070533Y-123790476D02*
X156213390Y-123838095D01*
X156213390Y-123838095D02*
X156784819Y-124409523D01*
X156784819Y-124409523D02*
X156784819Y-123790476D01*
X155784819Y-123171428D02*
X155784819Y-123076190D01*
X155784819Y-123076190D02*
X155832438Y-122980952D01*
X155832438Y-122980952D02*
X155880057Y-122933333D01*
X155880057Y-122933333D02*
X155975295Y-122885714D01*
X155975295Y-122885714D02*
X156165771Y-122838095D01*
X156165771Y-122838095D02*
X156403866Y-122838095D01*
X156403866Y-122838095D02*
X156594342Y-122885714D01*
X156594342Y-122885714D02*
X156689580Y-122933333D01*
X156689580Y-122933333D02*
X156737200Y-122980952D01*
X156737200Y-122980952D02*
X156784819Y-123076190D01*
X156784819Y-123076190D02*
X156784819Y-123171428D01*
X156784819Y-123171428D02*
X156737200Y-123266666D01*
X156737200Y-123266666D02*
X156689580Y-123314285D01*
X156689580Y-123314285D02*
X156594342Y-123361904D01*
X156594342Y-123361904D02*
X156403866Y-123409523D01*
X156403866Y-123409523D02*
X156165771Y-123409523D01*
X156165771Y-123409523D02*
X155975295Y-123361904D01*
X155975295Y-123361904D02*
X155880057Y-123314285D01*
X155880057Y-123314285D02*
X155832438Y-123266666D01*
X155832438Y-123266666D02*
X155784819Y-123171428D01*
X136733333Y-145084819D02*
X136400000Y-144608628D01*
X136161905Y-145084819D02*
X136161905Y-144084819D01*
X136161905Y-144084819D02*
X136542857Y-144084819D01*
X136542857Y-144084819D02*
X136638095Y-144132438D01*
X136638095Y-144132438D02*
X136685714Y-144180057D01*
X136685714Y-144180057D02*
X136733333Y-144275295D01*
X136733333Y-144275295D02*
X136733333Y-144418152D01*
X136733333Y-144418152D02*
X136685714Y-144513390D01*
X136685714Y-144513390D02*
X136638095Y-144561009D01*
X136638095Y-144561009D02*
X136542857Y-144608628D01*
X136542857Y-144608628D02*
X136161905Y-144608628D01*
X137590476Y-144418152D02*
X137590476Y-145084819D01*
X137352381Y-144037200D02*
X137114286Y-144751485D01*
X137114286Y-144751485D02*
X137733333Y-144751485D01*
X156689580Y-132841666D02*
X156737200Y-132889285D01*
X156737200Y-132889285D02*
X156784819Y-133032142D01*
X156784819Y-133032142D02*
X156784819Y-133127380D01*
X156784819Y-133127380D02*
X156737200Y-133270237D01*
X156737200Y-133270237D02*
X156641961Y-133365475D01*
X156641961Y-133365475D02*
X156546723Y-133413094D01*
X156546723Y-133413094D02*
X156356247Y-133460713D01*
X156356247Y-133460713D02*
X156213390Y-133460713D01*
X156213390Y-133460713D02*
X156022914Y-133413094D01*
X156022914Y-133413094D02*
X155927676Y-133365475D01*
X155927676Y-133365475D02*
X155832438Y-133270237D01*
X155832438Y-133270237D02*
X155784819Y-133127380D01*
X155784819Y-133127380D02*
X155784819Y-133032142D01*
X155784819Y-133032142D02*
X155832438Y-132889285D01*
X155832438Y-132889285D02*
X155880057Y-132841666D01*
X156118152Y-131984523D02*
X156784819Y-131984523D01*
X155737200Y-132222618D02*
X156451485Y-132460713D01*
X156451485Y-132460713D02*
X156451485Y-131841666D01*
X157933333Y-140689580D02*
X157885714Y-140737200D01*
X157885714Y-140737200D02*
X157742857Y-140784819D01*
X157742857Y-140784819D02*
X157647619Y-140784819D01*
X157647619Y-140784819D02*
X157504762Y-140737200D01*
X157504762Y-140737200D02*
X157409524Y-140641961D01*
X157409524Y-140641961D02*
X157361905Y-140546723D01*
X157361905Y-140546723D02*
X157314286Y-140356247D01*
X157314286Y-140356247D02*
X157314286Y-140213390D01*
X157314286Y-140213390D02*
X157361905Y-140022914D01*
X157361905Y-140022914D02*
X157409524Y-139927676D01*
X157409524Y-139927676D02*
X157504762Y-139832438D01*
X157504762Y-139832438D02*
X157647619Y-139784819D01*
X157647619Y-139784819D02*
X157742857Y-139784819D01*
X157742857Y-139784819D02*
X157885714Y-139832438D01*
X157885714Y-139832438D02*
X157933333Y-139880057D01*
X158838095Y-139784819D02*
X158361905Y-139784819D01*
X158361905Y-139784819D02*
X158314286Y-140261009D01*
X158314286Y-140261009D02*
X158361905Y-140213390D01*
X158361905Y-140213390D02*
X158457143Y-140165771D01*
X158457143Y-140165771D02*
X158695238Y-140165771D01*
X158695238Y-140165771D02*
X158790476Y-140213390D01*
X158790476Y-140213390D02*
X158838095Y-140261009D01*
X158838095Y-140261009D02*
X158885714Y-140356247D01*
X158885714Y-140356247D02*
X158885714Y-140594342D01*
X158885714Y-140594342D02*
X158838095Y-140689580D01*
X158838095Y-140689580D02*
X158790476Y-140737200D01*
X158790476Y-140737200D02*
X158695238Y-140784819D01*
X158695238Y-140784819D02*
X158457143Y-140784819D01*
X158457143Y-140784819D02*
X158361905Y-140737200D01*
X158361905Y-140737200D02*
X158314286Y-140689580D01*
D13*
%TO.C,C10*%
X152890000Y-129865580D02*
X152890000Y-129584420D01*
X153910000Y-129865580D02*
X153910000Y-129584420D01*
%TO.C,J5*%
X143800000Y-104915000D02*
X144640000Y-104915000D01*
X143800000Y-107135000D02*
X157200000Y-107135000D01*
X144640000Y-102865000D02*
X144640000Y-104915000D01*
X144640000Y-102865000D02*
X145240000Y-102865000D01*
X145240000Y-96765000D02*
X145240000Y-102865000D01*
X145240000Y-96765000D02*
X155760000Y-96765000D01*
X155760000Y-96765000D02*
X155760000Y-102865000D01*
X155760000Y-102865000D02*
X156360000Y-102865000D01*
X156360000Y-102865000D02*
X156360000Y-104915000D01*
X156360000Y-104915000D02*
X157200000Y-104915000D01*
X143800000Y-107135000D02*
G75*
G02*
X143800000Y-104915000I0J1110000D01*
G01*
X157200000Y-104915000D02*
G75*
G02*
X157200000Y-107135000I0J-1110000D01*
G01*
%TO.C,C11*%
X150440580Y-126690000D02*
X150159420Y-126690000D01*
X150440580Y-127710000D02*
X150159420Y-127710000D01*
%TO.C,R13*%
X152912258Y-122877500D02*
X152437742Y-122877500D01*
X152912258Y-123922500D02*
X152437742Y-123922500D01*
%TO.C,J1*%
X161690000Y-128665000D02*
X161690000Y-130465000D01*
X161690000Y-135335000D02*
X160700000Y-135335000D01*
X161690000Y-137135000D02*
X161690000Y-135335000D01*
X163140000Y-128665000D02*
X161690000Y-128665000D01*
X163140000Y-137135000D02*
X161690000Y-137135000D01*
X165960000Y-135865000D02*
X165960000Y-129935000D01*
%TO.C,C12*%
X147140580Y-127590000D02*
X146859420Y-127590000D01*
X147140580Y-128610000D02*
X146859420Y-128610000D01*
%TO.C,R5*%
X159577500Y-143762742D02*
X159577500Y-144237258D01*
X160622500Y-143762742D02*
X160622500Y-144237258D01*
%TO.C,R6*%
X137137258Y-144377500D02*
X136662742Y-144377500D01*
X137137258Y-145422500D02*
X136662742Y-145422500D01*
%TO.C,C2*%
X164759420Y-139690000D02*
X165040580Y-139690000D01*
X164759420Y-140710000D02*
X165040580Y-140710000D01*
%TO.C,C13*%
X144290000Y-134915580D02*
X144290000Y-134634420D01*
X145310000Y-134915580D02*
X145310000Y-134634420D01*
%TO.C,R7*%
X154777500Y-143762742D02*
X154777500Y-144237258D01*
X155822500Y-143762742D02*
X155822500Y-144237258D01*
D14*
%TO.C,IC1*%
X151800000Y-135300000D02*
G75*
G02*
X151600000Y-135300000I-100000J0D01*
G01*
X151600000Y-135300000D02*
G75*
G02*
X151800000Y-135300000I100000J0D01*
G01*
D13*
%TO.C,R12*%
X143962258Y-122577500D02*
X143487742Y-122577500D01*
X143962258Y-123622500D02*
X143487742Y-123622500D01*
%TO.C,D2*%
X163138332Y-146700000D02*
X163138332Y-148985000D01*
X163138332Y-148985000D02*
X164608332Y-148985000D01*
X164608332Y-148985000D02*
X164608332Y-146700000D01*
%TO.C,C16*%
X160134420Y-122890000D02*
X160415580Y-122890000D01*
X160134420Y-123910000D02*
X160415580Y-123910000D01*
%TO.C,R16*%
X157277500Y-133837258D02*
X157277500Y-133362742D01*
X158322500Y-133837258D02*
X158322500Y-133362742D01*
%TO.C,R8*%
X137137258Y-145977500D02*
X136662742Y-145977500D01*
X137137258Y-147022500D02*
X136662742Y-147022500D01*
%TO.C,R9*%
X157877500Y-143762742D02*
X157877500Y-144237258D01*
X158922500Y-143762742D02*
X158922500Y-144237258D01*
%TO.C,R3*%
X156377500Y-143762742D02*
X156377500Y-144237258D01*
X157422500Y-143762742D02*
X157422500Y-144237258D01*
%TO.C,J3*%
X123990000Y-130140000D02*
X126090000Y-130140000D01*
X123990000Y-140260000D02*
X123990000Y-130140000D01*
X123990000Y-140260000D02*
X126090000Y-140260000D01*
X126090000Y-130140000D02*
X126090000Y-129550000D01*
X126090000Y-140850000D02*
X126090000Y-140260000D01*
X128310000Y-130140000D02*
X128310000Y-129550000D01*
X128310000Y-130140000D02*
X133210000Y-130140000D01*
X128310000Y-140260000D02*
X133210000Y-140260000D01*
X128310000Y-140850000D02*
X128310000Y-140260000D01*
X133210000Y-140260000D02*
X133210000Y-130140000D01*
X126090000Y-129550000D02*
G75*
G02*
X128310000Y-129550000I1110000J0D01*
G01*
X128310000Y-140850000D02*
G75*
G02*
X126090000Y-140850000I-1110000J0D01*
G01*
%TO.C,C6*%
X141990000Y-134865580D02*
X141990000Y-134584420D01*
X143010000Y-134865580D02*
X143010000Y-134584420D01*
%TO.C,R22*%
X128277500Y-124062742D02*
X128277500Y-124537258D01*
X129322500Y-124062742D02*
X129322500Y-124537258D01*
%TO.C,C9*%
X151734420Y-137490000D02*
X152015580Y-137490000D01*
X151734420Y-138510000D02*
X152015580Y-138510000D01*
%TO.C,R_SENSE1*%
X132890000Y-126472936D02*
X132890000Y-127927064D01*
X134710000Y-126472936D02*
X134710000Y-127927064D01*
%TO.C,R19*%
X140977500Y-123587742D02*
X140977500Y-124062258D01*
X142022500Y-123587742D02*
X142022500Y-124062258D01*
%TO.C,R17*%
X158877500Y-133837258D02*
X158877500Y-133362742D01*
X159922500Y-133837258D02*
X159922500Y-133362742D01*
%TO.C,R14*%
X126477500Y-124512258D02*
X126477500Y-124037742D01*
X127522500Y-124512258D02*
X127522500Y-124037742D01*
%TO.C,C7*%
X154390000Y-136159420D02*
X154390000Y-136440580D01*
X155410000Y-136159420D02*
X155410000Y-136440580D01*
%TO.C,C14*%
X146559420Y-122590000D02*
X146840580Y-122590000D01*
X146559420Y-123610000D02*
X146840580Y-123610000D01*
%TO.C,D4*%
X160611666Y-146700000D02*
X160611666Y-148985000D01*
X160611666Y-148985000D02*
X162081666Y-148985000D01*
X162081666Y-148985000D02*
X162081666Y-146700000D01*
%TO.C,C1*%
X164759420Y-138190000D02*
X165040580Y-138190000D01*
X164759420Y-139210000D02*
X165040580Y-139210000D01*
%TO.C,R21*%
X164112258Y-122277500D02*
X163637742Y-122277500D01*
X164112258Y-123322500D02*
X163637742Y-123322500D01*
%TO.C,R18*%
X149912258Y-122877500D02*
X149437742Y-122877500D01*
X149912258Y-123922500D02*
X149437742Y-123922500D01*
%TO.C,R10*%
X157437258Y-122877500D02*
X156962742Y-122877500D01*
X157437258Y-123922500D02*
X156962742Y-123922500D01*
%TO.C,C3*%
X140390000Y-134865580D02*
X140390000Y-134584420D01*
X141410000Y-134865580D02*
X141410000Y-134584420D01*
%TO.C,R1*%
X165877500Y-144237742D02*
X165877500Y-144712258D01*
X166922500Y-144237742D02*
X166922500Y-144712258D01*
%TO.C,U1*%
X159840000Y-140100000D02*
X159840000Y-139300000D01*
X159840000Y-140100000D02*
X159840000Y-140900000D01*
X162960000Y-140100000D02*
X162960000Y-139300000D01*
X162960000Y-140100000D02*
X162960000Y-140900000D01*
X159890000Y-141400000D02*
X159560000Y-141640000D01*
X159560000Y-141160000D01*
X159890000Y-141400000D01*
G36*
X159890000Y-141400000D02*
G01*
X159560000Y-141640000D01*
X159560000Y-141160000D01*
X159890000Y-141400000D01*
G37*
%TO.C,D5*%
X157765000Y-146700000D02*
X157765000Y-148985000D01*
X157765000Y-148985000D02*
X159235000Y-148985000D01*
X159235000Y-148985000D02*
X159235000Y-146700000D01*
%TO.C,C15*%
X131959420Y-122290000D02*
X132240580Y-122290000D01*
X131959420Y-123310000D02*
X132240580Y-123310000D01*
%TO.C,C8*%
X155534420Y-129890000D02*
X155815580Y-129890000D01*
X155534420Y-130910000D02*
X155815580Y-130910000D01*
%TO.C,R15*%
X139312258Y-122677500D02*
X138837742Y-122677500D01*
X139312258Y-123722500D02*
X138837742Y-123722500D01*
%TO.C,R2*%
X161177500Y-143762742D02*
X161177500Y-144237258D01*
X162222500Y-143762742D02*
X162222500Y-144237258D01*
%TO.C,J4*%
X140065000Y-143190000D02*
X141865000Y-143190000D01*
X140065000Y-144640000D02*
X140065000Y-143190000D01*
X141335000Y-147460000D02*
X152265000Y-147460000D01*
X141865000Y-143190000D02*
X141865000Y-142200000D01*
X153535000Y-143190000D02*
X151735000Y-143190000D01*
X153535000Y-144640000D02*
X153535000Y-143190000D01*
%TO.C,D3*%
X163540000Y-141100000D02*
X163540000Y-142300000D01*
X165500000Y-141100000D02*
X163540000Y-141100000D01*
X165500000Y-142300000D02*
X163540000Y-142300000D01*
%TO.C,R23*%
X136312258Y-122677500D02*
X135837742Y-122677500D01*
X136312258Y-123722500D02*
X135837742Y-123722500D01*
%TO.C,D1*%
X165665000Y-146700000D02*
X165665000Y-148985000D01*
X165665000Y-148985000D02*
X167135000Y-148985000D01*
X167135000Y-148985000D02*
X167135000Y-146700000D01*
%TO.C,R11*%
X164077500Y-125362258D02*
X164077500Y-124887742D01*
X165122500Y-125362258D02*
X165122500Y-124887742D01*
%TO.C,R20*%
X154377500Y-123862742D02*
X154377500Y-124337258D01*
X155422500Y-123862742D02*
X155422500Y-124337258D01*
%TO.C,R4*%
X137137258Y-142677500D02*
X136662742Y-142677500D01*
X137137258Y-143722500D02*
X136662742Y-143722500D01*
%TO.C,C4*%
X154390000Y-132534420D02*
X154390000Y-132815580D01*
X155410000Y-132534420D02*
X155410000Y-132815580D01*
%TO.C,C5*%
X158240580Y-138390000D02*
X157959420Y-138390000D01*
X158240580Y-139410000D02*
X157959420Y-139410000D01*
%TD*%
M02*
