%TF.GenerationSoftware,KiCad,Pcbnew,8.0.3+1*%
%TF.CreationDate,2024-07-16T10:30:10+00:00*%
%TF.ProjectId,TFESC02,54464553-4330-4322-9e6b-696361645f70,rev?*%
%TF.SameCoordinates,Original*%
%TF.FileFunction,Copper,L1,Top*%
%TF.FilePolarity,Positive*%
%FSLAX46Y46*%
G04 Gerber Fmt 4.6, Leading zero omitted, Abs format (unit mm)*
G04 Created by KiCad (PCBNEW 8.0.3+1) date 2024-07-16 10:30:10*
%MOMM*%
%LPD*%
G01*
G04 APERTURE LIST*
G04 Aperture macros list*
%AMRoundRect*
0 Rectangle with rounded corners*
0 $1 Rounding radius*
0 $2 $3 $4 $5 $6 $7 $8 $9 X,Y pos of 4 corners*
0 Add a 4 corners polygon primitive as box body*
4,1,4,$2,$3,$4,$5,$6,$7,$8,$9,$2,$3,0*
0 Add four circle primitives for the rounded corners*
1,1,$1+$1,$2,$3*
1,1,$1+$1,$4,$5*
1,1,$1+$1,$6,$7*
1,1,$1+$1,$8,$9*
0 Add four rect primitives between the rounded corners*
20,1,$1+$1,$2,$3,$4,$5,0*
20,1,$1+$1,$4,$5,$6,$7,0*
20,1,$1+$1,$6,$7,$8,$9,0*
20,1,$1+$1,$8,$9,$2,$3,0*%
G04 Aperture macros list end*
%TA.AperFunction,EtchedComponent*%
%ADD10C,0.000000*%
%TD*%
%TA.AperFunction,SMDPad,CuDef*%
%ADD11RoundRect,0.225000X0.250000X-0.225000X0.250000X0.225000X-0.250000X0.225000X-0.250000X-0.225000X0*%
%TD*%
%TA.AperFunction,SMDPad,CuDef*%
%ADD12C,0.500000*%
%TD*%
%TA.AperFunction,ComponentPad*%
%ADD13C,1.400000*%
%TD*%
%TA.AperFunction,ComponentPad*%
%ADD14R,3.000000X3.000000*%
%TD*%
%TA.AperFunction,ComponentPad*%
%ADD15C,3.000000*%
%TD*%
%TA.AperFunction,SMDPad,CuDef*%
%ADD16RoundRect,0.225000X0.225000X0.250000X-0.225000X0.250000X-0.225000X-0.250000X0.225000X-0.250000X0*%
%TD*%
%TA.AperFunction,SMDPad,CuDef*%
%ADD17RoundRect,0.200000X0.200000X0.275000X-0.200000X0.275000X-0.200000X-0.275000X0.200000X-0.275000X0*%
%TD*%
%TA.AperFunction,SMDPad,CuDef*%
%ADD18RoundRect,0.100000X0.205000X0.535000X-0.205000X0.535000X-0.205000X-0.535000X0.205000X-0.535000X0*%
%TD*%
%TA.AperFunction,HeatsinkPad*%
%ADD19RoundRect,0.200000X2.600000X2.050000X-2.600000X2.050000X-2.600000X-2.050000X2.600000X-2.050000X0*%
%TD*%
%TA.AperFunction,SMDPad,CuDef*%
%ADD20RoundRect,0.150000X0.700000X-0.150000X0.700000X0.150000X-0.700000X0.150000X-0.700000X-0.150000X0*%
%TD*%
%TA.AperFunction,SMDPad,CuDef*%
%ADD21RoundRect,0.250000X1.100000X-0.250000X1.100000X0.250000X-1.100000X0.250000X-1.100000X-0.250000X0*%
%TD*%
%TA.AperFunction,SMDPad,CuDef*%
%ADD22RoundRect,0.200000X-0.275000X0.200000X-0.275000X-0.200000X0.275000X-0.200000X0.275000X0.200000X0*%
%TD*%
%TA.AperFunction,SMDPad,CuDef*%
%ADD23RoundRect,0.225000X-0.225000X-0.250000X0.225000X-0.250000X0.225000X0.250000X-0.225000X0.250000X0*%
%TD*%
%TA.AperFunction,SMDPad,CuDef*%
%ADD24R,0.800000X0.200000*%
%TD*%
%TA.AperFunction,SMDPad,CuDef*%
%ADD25R,0.200000X0.800000*%
%TD*%
%TA.AperFunction,SMDPad,CuDef*%
%ADD26R,2.800000X3.800000*%
%TD*%
%TA.AperFunction,SMDPad,CuDef*%
%ADD27RoundRect,0.218750X0.256250X-0.218750X0.256250X0.218750X-0.256250X0.218750X-0.256250X-0.218750X0*%
%TD*%
%TA.AperFunction,SMDPad,CuDef*%
%ADD28RoundRect,0.200000X0.275000X-0.200000X0.275000X0.200000X-0.275000X0.200000X-0.275000X-0.200000X0*%
%TD*%
%TA.AperFunction,ComponentPad*%
%ADD29R,3.500000X3.500000*%
%TD*%
%TA.AperFunction,ComponentPad*%
%ADD30C,3.500000*%
%TD*%
%TA.AperFunction,SMDPad,CuDef*%
%ADD31RoundRect,0.250000X-0.625000X0.312500X-0.625000X-0.312500X0.625000X-0.312500X0.625000X0.312500X0*%
%TD*%
%TA.AperFunction,SMDPad,CuDef*%
%ADD32RoundRect,0.225000X-0.250000X0.225000X-0.250000X-0.225000X0.250000X-0.225000X0.250000X0.225000X0*%
%TD*%
%TA.AperFunction,SMDPad,CuDef*%
%ADD33RoundRect,0.100000X-0.205000X-0.535000X0.205000X-0.535000X0.205000X0.535000X-0.205000X0.535000X0*%
%TD*%
%TA.AperFunction,HeatsinkPad*%
%ADD34RoundRect,0.200000X-2.600000X-2.050000X2.600000X-2.050000X2.600000X2.050000X-2.600000X2.050000X0*%
%TD*%
%TA.AperFunction,SMDPad,CuDef*%
%ADD35RoundRect,0.150000X0.150000X-0.512500X0.150000X0.512500X-0.150000X0.512500X-0.150000X-0.512500X0*%
%TD*%
%TA.AperFunction,SMDPad,CuDef*%
%ADD36RoundRect,0.150000X-0.150000X-0.700000X0.150000X-0.700000X0.150000X0.700000X-0.150000X0.700000X0*%
%TD*%
%TA.AperFunction,SMDPad,CuDef*%
%ADD37RoundRect,0.250000X-0.250000X-1.100000X0.250000X-1.100000X0.250000X1.100000X-0.250000X1.100000X0*%
%TD*%
%TA.AperFunction,SMDPad,CuDef*%
%ADD38RoundRect,0.150000X0.150000X0.200000X-0.150000X0.200000X-0.150000X-0.200000X0.150000X-0.200000X0*%
%TD*%
%TA.AperFunction,ViaPad*%
%ADD39C,0.600000*%
%TD*%
%TA.AperFunction,Conductor*%
%ADD40C,0.400000*%
%TD*%
%TA.AperFunction,Conductor*%
%ADD41C,0.200000*%
%TD*%
%TA.AperFunction,Conductor*%
%ADD42C,2.000000*%
%TD*%
G04 APERTURE END LIST*
D10*
%TA.AperFunction,EtchedComponent*%
%TO.C,NT1*%
G36*
X137450000Y-131200000D02*
G01*
X136950000Y-131200000D01*
X136950000Y-130200000D01*
X137450000Y-130200000D01*
X137450000Y-131200000D01*
G37*
%TD.AperFunction*%
%TA.AperFunction,EtchedComponent*%
%TO.C,NT7*%
G36*
X132350000Y-121600000D02*
G01*
X131850000Y-121600000D01*
X131850000Y-120600000D01*
X132350000Y-120600000D01*
X132350000Y-121600000D01*
G37*
%TD.AperFunction*%
%TA.AperFunction,EtchedComponent*%
%TO.C,NT5*%
G36*
X159850000Y-121000000D02*
G01*
X159350000Y-121000000D01*
X159350000Y-120000000D01*
X159850000Y-120000000D01*
X159850000Y-121000000D01*
G37*
%TD.AperFunction*%
%TA.AperFunction,EtchedComponent*%
%TO.C,NT3*%
G36*
X134450000Y-126800000D02*
G01*
X133950000Y-126800000D01*
X133950000Y-125800000D01*
X134450000Y-125800000D01*
X134450000Y-126800000D01*
G37*
%TD.AperFunction*%
%TA.AperFunction,EtchedComponent*%
%TO.C,NT2*%
G36*
X140250000Y-126400000D02*
G01*
X139750000Y-126400000D01*
X139750000Y-125400000D01*
X140250000Y-125400000D01*
X140250000Y-126400000D01*
G37*
%TD.AperFunction*%
%TA.AperFunction,EtchedComponent*%
%TO.C,NT4*%
G36*
X134450000Y-128600000D02*
G01*
X133950000Y-128600000D01*
X133950000Y-127600000D01*
X134450000Y-127600000D01*
X134450000Y-128600000D01*
G37*
%TD.AperFunction*%
%TA.AperFunction,EtchedComponent*%
%TO.C,NT6*%
G36*
X146250000Y-121500000D02*
G01*
X145750000Y-121500000D01*
X145750000Y-120500000D01*
X146250000Y-120500000D01*
X146250000Y-121500000D01*
G37*
%TD.AperFunction*%
%TD*%
D11*
%TO.P,C10,1*%
%TO.N,Net-(IC1-BSTA)*%
X153400000Y-130500000D03*
%TO.P,C10,2*%
%TO.N,/SHA*%
X153400000Y-128950000D03*
%TD*%
D12*
%TO.P,NT1,1,1*%
%TO.N,GNDPWR*%
X137200000Y-131200000D03*
%TO.P,NT1,2,2*%
%TO.N,GNDD*%
X137200000Y-130200000D03*
%TD*%
D13*
%TO.P,J5,*%
%TO.N,*%
X144000000Y-106025000D03*
X157000000Y-106025000D03*
D14*
%TO.P,J5,1,A*%
%TO.N,/OUT_A*%
X154000000Y-111025000D03*
D15*
%TO.P,J5,2,B*%
%TO.N,/OUT_B*%
X150500000Y-111025000D03*
%TO.P,J5,3,C*%
%TO.N,/OUT_C*%
X147000000Y-111025000D03*
%TD*%
D16*
%TO.P,C11,1*%
%TO.N,Net-(IC1-BSTB)*%
X151075000Y-127200000D03*
%TO.P,C11,2*%
%TO.N,/SHB*%
X149525000Y-127200000D03*
%TD*%
D17*
%TO.P,R13,1*%
%TO.N,/GLB*%
X153500000Y-123400000D03*
%TO.P,R13,2*%
%TO.N,Net-(Q4-G)*%
X151850000Y-123400000D03*
%TD*%
D18*
%TO.P,Q5,1,S*%
%TO.N,/OUT_C*%
X130605000Y-115900000D03*
X129335000Y-115900000D03*
X128065000Y-115900000D03*
%TO.P,Q5,2,G*%
%TO.N,Net-(Q5-G)*%
X126795000Y-115900000D03*
D19*
%TO.P,Q5,3,D*%
%TO.N,VDDPWR*%
X128700000Y-119608400D03*
%TD*%
D20*
%TO.P,J1,1*%
%TO.N,+5V_FMU*%
X161550000Y-134775000D03*
%TO.P,J1,2*%
%TO.N,/SCL*%
X161550000Y-133525000D03*
%TO.P,J1,3*%
%TO.N,/SDA*%
X161550000Y-132275000D03*
%TO.P,J1,4*%
%TO.N,GNDD*%
X161550000Y-131025000D03*
D21*
%TO.P,J1,MP*%
X164750000Y-136625000D03*
X164750000Y-129175000D03*
%TD*%
D16*
%TO.P,C12,1*%
%TO.N,Net-(IC1-BSTC)*%
X147775000Y-128100000D03*
%TO.P,C12,2*%
%TO.N,/SHC*%
X146225000Y-128100000D03*
%TD*%
D12*
%TO.P,NT7,1,1*%
%TO.N,/SHC*%
X132100000Y-121600000D03*
%TO.P,NT7,2,2*%
%TO.N,/OUT_C*%
X132100000Y-120600000D03*
%TD*%
D22*
%TO.P,R5,1*%
%TO.N,+3V3*%
X160100000Y-143175000D03*
%TO.P,R5,2*%
%TO.N,Net-(D4-A)*%
X160100000Y-144825000D03*
%TD*%
D17*
%TO.P,R6,1*%
%TO.N,/DIR*%
X137725000Y-144900000D03*
%TO.P,R6,2*%
%TO.N,GNDD*%
X136075000Y-144900000D03*
%TD*%
D23*
%TO.P,C2,1*%
%TO.N,+5V_FMU*%
X164125000Y-140200000D03*
%TO.P,C2,2*%
%TO.N,GNDD*%
X165675000Y-140200000D03*
%TD*%
D11*
%TO.P,C13,1*%
%TO.N,Net-(IC1-AVDD)*%
X144800000Y-135550000D03*
%TO.P,C13,2*%
%TO.N,GNDA*%
X144800000Y-134000000D03*
%TD*%
D18*
%TO.P,Q1,1,S*%
%TO.N,/OUT_A*%
X158005000Y-115638300D03*
X156735000Y-115638300D03*
X155465000Y-115638300D03*
%TO.P,Q1,2,G*%
%TO.N,Net-(Q1-G)*%
X154195000Y-115638300D03*
D19*
%TO.P,Q1,3,D*%
%TO.N,VDDPWR*%
X156100000Y-119346700D03*
%TD*%
D22*
%TO.P,R7,1*%
%TO.N,+3V3*%
X155300000Y-143175000D03*
%TO.P,R7,2*%
%TO.N,/#FAULT*%
X155300000Y-144825000D03*
%TD*%
D24*
%TO.P,IC1,1,DGND*%
%TO.N,GNDD*%
X151300000Y-134700000D03*
%TO.P,IC1,2,VREG*%
%TO.N,+3V3*%
X151300000Y-134300000D03*
%TO.P,IC1,3,GCTRL*%
%TO.N,unconnected-(IC1-GCTRL-Pad3)*%
X151300000Y-133900000D03*
%TO.P,IC1,4,GND_1*%
%TO.N,GNDD*%
X151300000Y-133500000D03*
%TO.P,IC1,5,PVDD*%
%TO.N,VDDPWR*%
X151300000Y-133100000D03*
%TO.P,IC1,6,CPL*%
%TO.N,/CPL*%
X151300000Y-132700000D03*
%TO.P,IC1,7,CPH*%
%TO.N,/CPH*%
X151300000Y-132300000D03*
%TO.P,IC1,8,GVDD*%
%TO.N,/GVDD*%
X151300000Y-131900000D03*
%TO.P,IC1,9,BSTA*%
%TO.N,Net-(IC1-BSTA)*%
X151300000Y-131500000D03*
%TO.P,IC1,10,SHA*%
%TO.N,/SHA*%
X151300000Y-131100000D03*
D25*
%TO.P,IC1,11,GHA*%
%TO.N,/GHA*%
X150700000Y-130400000D03*
%TO.P,IC1,12,GLA*%
%TO.N,/GLA*%
X150300000Y-130400000D03*
%TO.P,IC1,13,BSTB*%
%TO.N,Net-(IC1-BSTB)*%
X149900000Y-130400000D03*
%TO.P,IC1,14,SHB*%
%TO.N,/SHB*%
X149500000Y-130400000D03*
%TO.P,IC1,15,GHB*%
%TO.N,/GHB*%
X149100000Y-130400000D03*
%TO.P,IC1,16,GLB*%
%TO.N,/GLB*%
X148700000Y-130400000D03*
%TO.P,IC1,17,BSTC*%
%TO.N,Net-(IC1-BSTC)*%
X148300000Y-130400000D03*
%TO.P,IC1,18,SHC*%
%TO.N,/SHC*%
X147900000Y-130400000D03*
D24*
%TO.P,IC1,19,GHC*%
%TO.N,/GHC*%
X147300000Y-131100000D03*
%TO.P,IC1,20,GLC*%
%TO.N,/GLC*%
X147300000Y-131500000D03*
%TO.P,IC1,21,LSS*%
%TO.N,/LSS*%
X147300000Y-131900000D03*
%TO.P,IC1,22,SP*%
%TO.N,/SP*%
X147300000Y-132300000D03*
%TO.P,IC1,23,SN*%
%TO.N,/SN*%
X147300000Y-132700000D03*
%TO.P,IC1,24,DRVOFF*%
%TO.N,/DRVOFF*%
X147300000Y-133100000D03*
%TO.P,IC1,25,AGND*%
%TO.N,GNDA*%
X147300000Y-133500000D03*
%TO.P,IC1,26,AVDD*%
%TO.N,Net-(IC1-AVDD)*%
X147300000Y-133900000D03*
%TO.P,IC1,27,SPEED/WAKE*%
%TO.N,/SPEED*%
X147300000Y-134300000D03*
%TO.P,IC1,28,FG*%
%TO.N,/FG*%
X147300000Y-134700000D03*
D25*
%TO.P,IC1,29,SDA*%
%TO.N,/SDA*%
X147900000Y-135400000D03*
%TO.P,IC1,30,SCL*%
%TO.N,/SCL*%
X148300000Y-135400000D03*
%TO.P,IC1,31,DIR*%
%TO.N,/DIR*%
X148700000Y-135400000D03*
%TO.P,IC1,32,EXT_CLK*%
%TO.N,unconnected-(IC1-EXT_CLK-Pad32)*%
X149100000Y-135400000D03*
%TO.P,IC1,33,DACOUT/SOX/SPEED_ANA*%
%TO.N,/MPIO*%
X149500000Y-135400000D03*
%TO.P,IC1,34,BRAKE*%
%TO.N,/BRAKE*%
X149900000Y-135400000D03*
%TO.P,IC1,35,NFAULT*%
%TO.N,/#FAULT*%
X150300000Y-135400000D03*
%TO.P,IC1,36,DVDD*%
%TO.N,/DVDD*%
X150700000Y-135400000D03*
D26*
%TO.P,IC1,37,GND_2*%
%TO.N,GNDD*%
X149300000Y-132900000D03*
%TD*%
D17*
%TO.P,R12,1*%
%TO.N,/GHB*%
X144550000Y-123100000D03*
%TO.P,R12,2*%
%TO.N,Net-(Q3-G)*%
X142900000Y-123100000D03*
%TD*%
D27*
%TO.P,D2,1,K*%
%TO.N,GNDD*%
X163873332Y-148287500D03*
%TO.P,D2,2,A*%
%TO.N,Net-(D2-A)*%
X163873332Y-146712500D03*
%TD*%
D12*
%TO.P,NT5,1,1*%
%TO.N,/SHA*%
X159600000Y-121000000D03*
%TO.P,NT5,2,2*%
%TO.N,/OUT_A*%
X159600000Y-120000000D03*
%TD*%
D23*
%TO.P,C16,1*%
%TO.N,VDDPWR*%
X159500000Y-123400000D03*
%TO.P,C16,2*%
%TO.N,GND_FET*%
X161050000Y-123400000D03*
%TD*%
D28*
%TO.P,R16,1*%
%TO.N,+3V3*%
X157800000Y-134425000D03*
%TO.P,R16,2*%
%TO.N,/SCL*%
X157800000Y-132775000D03*
%TD*%
D17*
%TO.P,R8,1*%
%TO.N,/BRAKE*%
X137725000Y-146500000D03*
%TO.P,R8,2*%
%TO.N,GNDD*%
X136075000Y-146500000D03*
%TD*%
D12*
%TO.P,NT3,1,1*%
%TO.N,/SP*%
X134200000Y-126800000D03*
%TO.P,NT3,2,2*%
%TO.N,GND_FET*%
X134200000Y-125800000D03*
%TD*%
D18*
%TO.P,Q3,1,S*%
%TO.N,/OUT_B*%
X144505000Y-115700000D03*
X143235000Y-115700000D03*
X141965000Y-115700000D03*
%TO.P,Q3,2,G*%
%TO.N,Net-(Q3-G)*%
X140695000Y-115700000D03*
D19*
%TO.P,Q3,3,D*%
%TO.N,VDDPWR*%
X142600000Y-119408400D03*
%TD*%
D22*
%TO.P,R9,1*%
%TO.N,+3V3*%
X158400000Y-143175000D03*
%TO.P,R9,2*%
%TO.N,Net-(D5-A)*%
X158400000Y-144825000D03*
%TD*%
%TO.P,R3,1*%
%TO.N,+3V3*%
X156900000Y-143175000D03*
%TO.P,R3,2*%
%TO.N,/FG*%
X156900000Y-144825000D03*
%TD*%
D13*
%TO.P,J3,*%
%TO.N,*%
X127200000Y-140700000D03*
X127200000Y-129700000D03*
D29*
%TO.P,J3,1,-*%
%TO.N,GNDPWR*%
X137200000Y-132700000D03*
D30*
%TO.P,J3,2,+*%
%TO.N,VDDPWR*%
X137200000Y-137700000D03*
%TD*%
D11*
%TO.P,C6,1*%
%TO.N,VDDPWR*%
X142500000Y-135500000D03*
%TO.P,C6,2*%
%TO.N,GNDPWR*%
X142500000Y-133950000D03*
%TD*%
D22*
%TO.P,R22,1*%
%TO.N,Net-(Q5-G)*%
X128800000Y-123475000D03*
%TO.P,R22,2*%
%TO.N,GND_FET*%
X128800000Y-125125000D03*
%TD*%
D23*
%TO.P,C9,1*%
%TO.N,/DVDD*%
X151100000Y-138000000D03*
%TO.P,C9,2*%
%TO.N,GNDD*%
X152650000Y-138000000D03*
%TD*%
D31*
%TO.P,R_SENSE1,1*%
%TO.N,GND_FET*%
X133800000Y-125737500D03*
%TO.P,R_SENSE1,2*%
%TO.N,GNDPWR*%
X133800000Y-128662500D03*
%TD*%
D22*
%TO.P,R19,1*%
%TO.N,Net-(Q3-G)*%
X141500000Y-123000000D03*
%TO.P,R19,2*%
%TO.N,GND_FET*%
X141500000Y-124650000D03*
%TD*%
D28*
%TO.P,R17,1*%
%TO.N,+3V3*%
X159400000Y-134425000D03*
%TO.P,R17,2*%
%TO.N,/SDA*%
X159400000Y-132775000D03*
%TD*%
%TO.P,R14,1*%
%TO.N,/GHC*%
X127000000Y-125100000D03*
%TO.P,R14,2*%
%TO.N,Net-(Q5-G)*%
X127000000Y-123450000D03*
%TD*%
D32*
%TO.P,C7,1*%
%TO.N,+3V3*%
X154900000Y-135525000D03*
%TO.P,C7,2*%
%TO.N,GNDD*%
X154900000Y-137075000D03*
%TD*%
D23*
%TO.P,C14,1*%
%TO.N,VDDPWR*%
X145925000Y-123100000D03*
%TO.P,C14,2*%
%TO.N,GND_FET*%
X147475000Y-123100000D03*
%TD*%
D27*
%TO.P,D4,1,K*%
%TO.N,/FG*%
X161346666Y-148287500D03*
%TO.P,D4,2,A*%
%TO.N,Net-(D4-A)*%
X161346666Y-146712500D03*
%TD*%
D23*
%TO.P,C1,1*%
%TO.N,+5V_FMU*%
X164125000Y-138700000D03*
%TO.P,C1,2*%
%TO.N,GNDD*%
X165675000Y-138700000D03*
%TD*%
D17*
%TO.P,R21,1*%
%TO.N,Net-(Q2-G)*%
X164700000Y-122800000D03*
%TO.P,R21,2*%
%TO.N,GND_FET*%
X163050000Y-122800000D03*
%TD*%
%TO.P,R18,1*%
%TO.N,Net-(Q4-G)*%
X150500000Y-123400000D03*
%TO.P,R18,2*%
%TO.N,GND_FET*%
X148850000Y-123400000D03*
%TD*%
%TO.P,R10,1*%
%TO.N,/GHA*%
X158025000Y-123400000D03*
%TO.P,R10,2*%
%TO.N,Net-(Q1-G)*%
X156375000Y-123400000D03*
%TD*%
D11*
%TO.P,C3,1*%
%TO.N,VDDPWR*%
X140900000Y-135500000D03*
%TO.P,C3,2*%
%TO.N,GNDPWR*%
X140900000Y-133950000D03*
%TD*%
D33*
%TO.P,Q2,1,S*%
%TO.N,GND_FET*%
X160495000Y-121015000D03*
X161765000Y-121015000D03*
X163035000Y-121015000D03*
%TO.P,Q2,2,G*%
%TO.N,Net-(Q2-G)*%
X164305000Y-121015000D03*
D34*
%TO.P,Q2,3,D*%
%TO.N,/OUT_A*%
X162400000Y-117306600D03*
%TD*%
D33*
%TO.P,Q4,1,S*%
%TO.N,GND_FET*%
X146995000Y-121061700D03*
X148265000Y-121061700D03*
X149535000Y-121061700D03*
%TO.P,Q4,2,G*%
%TO.N,Net-(Q4-G)*%
X150805000Y-121061700D03*
D34*
%TO.P,Q4,3,D*%
%TO.N,/OUT_B*%
X148900000Y-117353300D03*
%TD*%
D22*
%TO.P,R1,1*%
%TO.N,VDDPWR*%
X166400000Y-143650000D03*
%TO.P,R1,2*%
%TO.N,Net-(D1-A)*%
X166400000Y-145300000D03*
%TD*%
D35*
%TO.P,U1,1,VIN*%
%TO.N,+5V_FMU*%
X160450000Y-141237500D03*
%TO.P,U1,2,GND*%
%TO.N,GNDD*%
X161400000Y-141237500D03*
%TO.P,U1,3,EN*%
%TO.N,+5V_FMU*%
X162350000Y-141237500D03*
%TO.P,U1,4,NC*%
%TO.N,unconnected-(U1-NC-Pad4)*%
X162350000Y-138962500D03*
%TO.P,U1,5,VOUT*%
%TO.N,+3V3*%
X160450000Y-138962500D03*
%TD*%
D27*
%TO.P,D5,1,K*%
%TO.N,/#FAULT*%
X158500000Y-148287500D03*
%TO.P,D5,2,A*%
%TO.N,Net-(D5-A)*%
X158500000Y-146712500D03*
%TD*%
D23*
%TO.P,C15,1*%
%TO.N,VDDPWR*%
X131325000Y-122800000D03*
%TO.P,C15,2*%
%TO.N,GND_FET*%
X132875000Y-122800000D03*
%TD*%
%TO.P,C8,1*%
%TO.N,/GVDD*%
X154900000Y-130400000D03*
%TO.P,C8,2*%
%TO.N,GNDD*%
X156450000Y-130400000D03*
%TD*%
D17*
%TO.P,R15,1*%
%TO.N,/GLC*%
X139900000Y-123200000D03*
%TO.P,R15,2*%
%TO.N,Net-(Q6-G)*%
X138250000Y-123200000D03*
%TD*%
D12*
%TO.P,NT2,1,1*%
%TO.N,/LSS*%
X140000000Y-126400000D03*
%TO.P,NT2,2,2*%
%TO.N,GND_FET*%
X140000000Y-125400000D03*
%TD*%
D22*
%TO.P,R2,1*%
%TO.N,+3V3*%
X161700000Y-143175000D03*
%TO.P,R2,2*%
%TO.N,Net-(D2-A)*%
X161700000Y-144825000D03*
%TD*%
D33*
%TO.P,Q6,1,S*%
%TO.N,GND_FET*%
X133195000Y-121108400D03*
X134465000Y-121108400D03*
X135735000Y-121108400D03*
%TO.P,Q6,2,G*%
%TO.N,Net-(Q6-G)*%
X137005000Y-121108400D03*
D34*
%TO.P,Q6,3,D*%
%TO.N,/OUT_C*%
X135100000Y-117400000D03*
%TD*%
D36*
%TO.P,J4,1*%
%TO.N,/DRVOFF*%
X142425000Y-143050000D03*
%TO.P,J4,2*%
%TO.N,/SPEED*%
X143675000Y-143050000D03*
%TO.P,J4,3*%
%TO.N,/FG*%
X144925000Y-143050000D03*
%TO.P,J4,4*%
%TO.N,/DIR*%
X146175000Y-143050000D03*
%TO.P,J4,5*%
%TO.N,/MPIO*%
X147425000Y-143050000D03*
%TO.P,J4,6*%
%TO.N,/BRAKE*%
X148675000Y-143050000D03*
%TO.P,J4,7*%
%TO.N,/#FAULT*%
X149925000Y-143050000D03*
%TO.P,J4,8*%
%TO.N,GNDD*%
X151175000Y-143050000D03*
D37*
%TO.P,J4,MP*%
X140575000Y-146250000D03*
X153025000Y-146250000D03*
%TD*%
D38*
%TO.P,D3,1,K*%
%TO.N,+5V_FMU*%
X164100000Y-141700000D03*
%TO.P,D3,2,A*%
%TO.N,GNDD*%
X165500000Y-141700000D03*
%TD*%
D17*
%TO.P,R23,1*%
%TO.N,Net-(Q6-G)*%
X136900000Y-123200000D03*
%TO.P,R23,2*%
%TO.N,GND_FET*%
X135250000Y-123200000D03*
%TD*%
D12*
%TO.P,NT4,1,1*%
%TO.N,/SN*%
X134200000Y-127600000D03*
%TO.P,NT4,2,2*%
%TO.N,GNDPWR*%
X134200000Y-128600000D03*
%TD*%
D27*
%TO.P,D1,1,K*%
%TO.N,GNDD*%
X166400000Y-148287500D03*
%TO.P,D1,2,A*%
%TO.N,Net-(D1-A)*%
X166400000Y-146712500D03*
%TD*%
D28*
%TO.P,R11,1*%
%TO.N,/GLA*%
X164600000Y-125950000D03*
%TO.P,R11,2*%
%TO.N,Net-(Q2-G)*%
X164600000Y-124300000D03*
%TD*%
D22*
%TO.P,R20,1*%
%TO.N,Net-(Q1-G)*%
X154900000Y-123275000D03*
%TO.P,R20,2*%
%TO.N,GND_FET*%
X154900000Y-124925000D03*
%TD*%
D17*
%TO.P,R4,1*%
%TO.N,/DRVOFF*%
X137725000Y-143200000D03*
%TO.P,R4,2*%
%TO.N,GNDD*%
X136075000Y-143200000D03*
%TD*%
D32*
%TO.P,C4,1*%
%TO.N,/CPH*%
X154900000Y-131900000D03*
%TO.P,C4,2*%
%TO.N,/CPL*%
X154900000Y-133450000D03*
%TD*%
D16*
%TO.P,C5,1*%
%TO.N,+3V3*%
X158875000Y-138900000D03*
%TO.P,C5,2*%
%TO.N,GNDD*%
X157325000Y-138900000D03*
%TD*%
D12*
%TO.P,NT6,1,1*%
%TO.N,/SHB*%
X146000000Y-121500000D03*
%TO.P,NT6,2,2*%
%TO.N,/OUT_B*%
X146000000Y-120500000D03*
%TD*%
D39*
%TO.N,VDDPWR*%
X143400000Y-119375000D03*
X127166668Y-120375000D03*
X130233332Y-119550000D03*
X141700000Y-135300000D03*
X141100000Y-117725000D03*
X131000002Y-120375000D03*
X130233332Y-118725000D03*
X127166668Y-119550000D03*
X156833330Y-117725000D03*
X157599996Y-117725000D03*
X127933334Y-121200000D03*
X129466666Y-118725000D03*
X127166666Y-117900000D03*
X128700000Y-119550000D03*
X144166666Y-120200000D03*
X162948529Y-129900000D03*
X144166666Y-118550000D03*
X144933334Y-117725000D03*
X143400000Y-120200000D03*
X142633334Y-120200000D03*
X154533334Y-118550000D03*
X130233332Y-121200000D03*
X158366668Y-121025000D03*
X153766668Y-119375000D03*
X166000000Y-143600000D03*
X140333336Y-119375000D03*
X142633334Y-121025000D03*
X130233330Y-117900000D03*
X127933334Y-120375000D03*
X141100002Y-118550000D03*
X126400002Y-121200000D03*
X129466666Y-119550000D03*
X153766666Y-117725000D03*
X158366666Y-117725000D03*
X126400002Y-120375000D03*
X158366668Y-120200000D03*
X154533332Y-117725000D03*
X156066666Y-121025000D03*
X157599998Y-120200000D03*
X128700000Y-120375000D03*
X141100002Y-120200000D03*
X155300000Y-119375000D03*
X157599998Y-119375000D03*
X156066664Y-117725000D03*
X142633334Y-119375000D03*
X156833332Y-119375000D03*
X127933334Y-119550000D03*
X153700000Y-134000000D03*
X141866668Y-119375000D03*
X153766668Y-121025000D03*
X126400002Y-119550000D03*
X141866668Y-121025000D03*
X140333336Y-121025000D03*
X154533334Y-121025000D03*
X155300000Y-118550000D03*
X158366668Y-118550000D03*
X126400002Y-118725000D03*
X153766668Y-120200000D03*
X156833332Y-120200000D03*
X142633332Y-117725000D03*
X154533334Y-119375000D03*
X129466666Y-121200000D03*
X156833332Y-118550000D03*
X155300000Y-121025000D03*
X128699998Y-117900000D03*
X127933332Y-117900000D03*
X141866668Y-120200000D03*
X143399998Y-117725000D03*
X141100002Y-119375000D03*
X129466666Y-120375000D03*
X158366668Y-119375000D03*
X127166668Y-118725000D03*
X131000000Y-117900000D03*
X157599998Y-121025000D03*
X140333334Y-117725000D03*
X128700000Y-118725000D03*
X131000002Y-121200000D03*
X156066666Y-118550000D03*
X144166666Y-119375000D03*
X140333336Y-120200000D03*
X144933336Y-119375000D03*
X144933336Y-121025000D03*
X127933334Y-118725000D03*
X140333336Y-118550000D03*
X155300000Y-120200000D03*
X157599998Y-118550000D03*
X144166666Y-121025000D03*
X156066666Y-119375000D03*
X131000002Y-118725000D03*
X129466664Y-117900000D03*
X141866666Y-117725000D03*
X131000002Y-119550000D03*
X154533334Y-120200000D03*
X153766668Y-118550000D03*
X128700000Y-121200000D03*
X143400000Y-121025000D03*
X142633334Y-118550000D03*
X127166668Y-121200000D03*
X130233332Y-120375000D03*
X155299998Y-117725000D03*
X144166664Y-117725000D03*
X143400000Y-118550000D03*
X141100002Y-121025000D03*
X156833332Y-121025000D03*
X144933336Y-118550000D03*
X156066666Y-120200000D03*
X153200000Y-133500000D03*
X141866668Y-118550000D03*
X126400000Y-117900000D03*
X144933336Y-120200000D03*
X159300000Y-129900000D03*
%TO.N,GNDD*%
X149633332Y-132900000D03*
X138900000Y-126300000D03*
X165600000Y-136600000D03*
X142600000Y-145800000D03*
X137900000Y-130000000D03*
X153500000Y-136300000D03*
X141600000Y-132500000D03*
X136400000Y-130000000D03*
X159800000Y-131000000D03*
X154000000Y-138300000D03*
X142800000Y-131100000D03*
X158500000Y-135300000D03*
X139800000Y-130700000D03*
X163200000Y-131000000D03*
X138600000Y-130000000D03*
X155200000Y-134500000D03*
X151300000Y-146200000D03*
X150300000Y-132150000D03*
X155700000Y-138200000D03*
X148966666Y-134400000D03*
X148966666Y-133650000D03*
X149633332Y-134400000D03*
X126600000Y-136200000D03*
X150300000Y-131400000D03*
X150300000Y-133650000D03*
X163900000Y-129200000D03*
X135700000Y-130000000D03*
X136700000Y-128600000D03*
X140400000Y-128700000D03*
X148966666Y-131400000D03*
X165600000Y-129200000D03*
X149633332Y-131400000D03*
X153800000Y-139800000D03*
X148300000Y-133650000D03*
X163100000Y-143500000D03*
X149633332Y-133650000D03*
X131900000Y-125700000D03*
X156400000Y-134100000D03*
X148966666Y-132150000D03*
X156100000Y-139900000D03*
X126600000Y-127400000D03*
X152800000Y-136300000D03*
X137200000Y-129400000D03*
X163000000Y-142700000D03*
X148300000Y-132150000D03*
X150300000Y-134400000D03*
X148300000Y-131400000D03*
X163800000Y-136600000D03*
X148300000Y-134400000D03*
X161400000Y-140800000D03*
X139200000Y-147900000D03*
X148000000Y-138200000D03*
X160100000Y-137200000D03*
X161400000Y-142000000D03*
X149633332Y-132150000D03*
X148966666Y-132900000D03*
X150300000Y-132900000D03*
X148300000Y-132900000D03*
X142900000Y-128900000D03*
%TO.N,/SHA*%
X154700000Y-128500000D03*
X159600000Y-122000000D03*
%TO.N,/SHB*%
X146700001Y-122372152D03*
X148900000Y-126300000D03*
%TO.N,/SHC*%
X144500000Y-126900000D03*
X132099999Y-123527849D03*
%TO.N,/FG*%
X156900000Y-144200000D03*
X144925000Y-142000000D03*
%TO.N,/SDA*%
X146900000Y-138600000D03*
X159400000Y-132775000D03*
%TO.N,/SCL*%
X157800000Y-132775000D03*
X148100000Y-137200000D03*
%TO.N,/BRAKE*%
X137800000Y-146600000D03*
X148700000Y-144300000D03*
%TO.N,/DIR*%
X146200000Y-144800000D03*
X138000000Y-144900000D03*
%TO.N,/OUT_A*%
X160933334Y-118825000D03*
X163999998Y-118000000D03*
X163233332Y-117175000D03*
X163233332Y-118000000D03*
X160933334Y-116350000D03*
X161699998Y-115525000D03*
X163999998Y-117175000D03*
X160166668Y-118000000D03*
X160933334Y-117175000D03*
X164766668Y-116350000D03*
X160166668Y-116350000D03*
X164766668Y-118825000D03*
X162466666Y-116350000D03*
X163999998Y-116350000D03*
X162466666Y-118825000D03*
X162466666Y-118000000D03*
X163233332Y-116350000D03*
X164766666Y-115525000D03*
X160166668Y-117175000D03*
X164766668Y-118000000D03*
X160166666Y-115525000D03*
X163233332Y-118825000D03*
X160933334Y-118000000D03*
X161700000Y-117175000D03*
X163233330Y-115525000D03*
X164766668Y-117175000D03*
X161700000Y-118825000D03*
X160166668Y-118825000D03*
X161700000Y-118000000D03*
X162466664Y-115525000D03*
X160933332Y-115525000D03*
X161700000Y-116350000D03*
X163999996Y-115525000D03*
X162466666Y-117175000D03*
X163999998Y-118825000D03*
%TO.N,/OUT_B*%
X151166668Y-116550000D03*
X147333334Y-116550000D03*
X148099998Y-115725000D03*
X148100000Y-119025000D03*
X147333334Y-117375000D03*
X148100000Y-116550000D03*
X147333332Y-115725000D03*
X149633332Y-117375000D03*
X150399998Y-116550000D03*
X148866666Y-117375000D03*
X146566668Y-117375000D03*
X150399996Y-115725000D03*
X146566668Y-118200000D03*
X151166668Y-118200000D03*
X148866666Y-116550000D03*
X150399998Y-118200000D03*
X151166666Y-115725000D03*
X146566668Y-116550000D03*
X147333334Y-119025000D03*
X148866664Y-115725000D03*
X146566668Y-119025000D03*
X149633332Y-118200000D03*
X148100000Y-117375000D03*
X146566666Y-115725000D03*
X149633332Y-116550000D03*
X148866666Y-118200000D03*
X149633332Y-119025000D03*
X150399998Y-119025000D03*
X150399998Y-117375000D03*
X151166668Y-117375000D03*
X147333334Y-118200000D03*
X148100000Y-118200000D03*
X149633330Y-115725000D03*
X148866666Y-119025000D03*
X151166668Y-119025000D03*
%TO.N,/OUT_C*%
X137366668Y-117375000D03*
X135066666Y-119025000D03*
X134300000Y-117375000D03*
X135066666Y-116550000D03*
X137366666Y-115725000D03*
X135833332Y-118200000D03*
X135833332Y-117375000D03*
X133533334Y-117375000D03*
X135833332Y-119025000D03*
X132766668Y-116550000D03*
X133533334Y-118200000D03*
X137366668Y-116550000D03*
X134300000Y-119025000D03*
X136599998Y-119025000D03*
X136599996Y-115725000D03*
X134300000Y-118200000D03*
X137366668Y-119025000D03*
X133533332Y-115725000D03*
X137366668Y-118200000D03*
X135066666Y-117375000D03*
X135833332Y-116550000D03*
X133533334Y-119025000D03*
X132766668Y-118200000D03*
X132766668Y-119025000D03*
X135066664Y-115725000D03*
X133533334Y-116550000D03*
X136599998Y-116550000D03*
X134300000Y-116550000D03*
X135066666Y-118200000D03*
X132766666Y-115725000D03*
X136599998Y-118200000D03*
X132766668Y-117375000D03*
X135833330Y-115725000D03*
X136599998Y-117375000D03*
X134299998Y-115725000D03*
%TO.N,/GHA*%
X158000000Y-123500000D03*
X152874265Y-127474265D03*
%TO.N,/GHB*%
X147000000Y-126200000D03*
X144650000Y-123550000D03*
%TO.N,/GLB*%
X148500000Y-128900000D03*
X153500000Y-123400000D03*
%TO.N,/GHC*%
X145000000Y-128300000D03*
X131800000Y-126700000D03*
%TO.N,/GLC*%
X139900000Y-123200000D03*
X141500000Y-126300000D03*
%TD*%
D40*
%TO.N,+5V_FMU*%
X161500000Y-140100000D02*
X161500000Y-134825000D01*
X160800000Y-140100000D02*
X161500000Y-140100000D01*
X161500000Y-140100000D02*
X162400000Y-140100000D01*
X163900000Y-138825000D02*
X163900000Y-141600000D01*
X162400000Y-140100000D02*
X162350000Y-140150000D01*
X163900000Y-141600000D02*
X164100000Y-141800000D01*
X160450000Y-140450000D02*
X160800000Y-140100000D01*
X161500000Y-134825000D02*
X161550000Y-134775000D01*
X162350000Y-140150000D02*
X162350000Y-141237500D01*
X162400000Y-140100000D02*
X164025000Y-140100000D01*
X164025000Y-140100000D02*
X164125000Y-140200000D01*
X160450000Y-141237500D02*
X160450000Y-140450000D01*
%TO.N,VDDPWR*%
X130233332Y-121200000D02*
X130233332Y-122433332D01*
D41*
X151300000Y-133100000D02*
X152800000Y-133100000D01*
D40*
X142492894Y-135300000D02*
X142496447Y-135296447D01*
D41*
X162948529Y-129900000D02*
X159300000Y-129900000D01*
D40*
X140900000Y-136300000D02*
X139500000Y-137700000D01*
X130233332Y-122433332D02*
X130600000Y-122800000D01*
X159500000Y-123400000D02*
X158000000Y-121900000D01*
X158000000Y-121900000D02*
X158000000Y-121391668D01*
X140900000Y-135300000D02*
X142492894Y-135300000D01*
X144933336Y-121025000D02*
X144933336Y-122108336D01*
D41*
X152800000Y-133100000D02*
X153200000Y-133500000D01*
D40*
X144933336Y-122108336D02*
X145925000Y-123100000D01*
X141700000Y-135300000D02*
X140900000Y-135300000D01*
X140900000Y-135300000D02*
X140900000Y-136300000D01*
X139500000Y-137700000D02*
X137200000Y-137700000D01*
X130600000Y-122800000D02*
X131325000Y-122800000D01*
D42*
%TO.N,GNDPWR*%
X137200000Y-132700000D02*
X134750610Y-132700000D01*
X133600000Y-131549390D02*
X133600000Y-129100000D01*
D40*
X142500000Y-133750000D02*
X138250000Y-133750000D01*
D42*
X134750610Y-132700000D02*
X133600000Y-131549390D01*
D40*
X138250000Y-133750000D02*
X137200000Y-132700000D01*
D41*
%TO.N,/CPH*%
X151300000Y-132300000D02*
X154500000Y-132300000D01*
X154500000Y-132300000D02*
X154900000Y-131900000D01*
%TO.N,/CPL*%
X151300000Y-132700000D02*
X154150000Y-132700000D01*
X154150000Y-132700000D02*
X155150000Y-133700000D01*
D40*
%TO.N,+3V3*%
X158875000Y-138900000D02*
X158875000Y-142900000D01*
X156925000Y-135300000D02*
X157800000Y-134425000D01*
X157800000Y-134425000D02*
X159400000Y-134425000D01*
X155300000Y-143175000D02*
X161700000Y-143175000D01*
X158875000Y-136675000D02*
X157212500Y-135012500D01*
X153000000Y-135300000D02*
X156925000Y-135300000D01*
X158875000Y-138900000D02*
X158875000Y-136675000D01*
X152000000Y-134300000D02*
X153000000Y-135300000D01*
X158937500Y-138962500D02*
X158800000Y-138825000D01*
D41*
X151300000Y-134300000D02*
X152000000Y-134300000D01*
D40*
X160450000Y-138962500D02*
X158937500Y-138962500D01*
%TO.N,GNDD*%
X163000000Y-142800000D02*
X163000000Y-142800000D01*
X162900000Y-142700000D02*
X163000000Y-142700000D01*
X161400000Y-141237500D02*
X161400000Y-140800000D01*
D41*
X155900000Y-134600000D02*
X156400000Y-134100000D01*
X151300000Y-133500000D02*
X152125736Y-133500000D01*
D40*
X161400000Y-141899999D02*
X161400000Y-142000000D01*
X163000000Y-142700000D02*
X163000000Y-142800000D01*
D41*
X153225736Y-134600000D02*
X155100000Y-134600000D01*
X152125736Y-133500000D02*
X153225736Y-134600000D01*
D40*
X161400000Y-141899999D02*
X161400000Y-141899999D01*
X162500000Y-142300000D02*
X162900000Y-142700000D01*
D41*
X155200000Y-134500000D02*
X155300000Y-134600000D01*
D40*
X161400000Y-142000000D02*
X161500001Y-142000000D01*
X161800001Y-142300000D02*
X162500000Y-142300000D01*
D41*
X150600000Y-134700000D02*
X149300000Y-133400000D01*
D40*
X161500001Y-142000000D02*
X161800001Y-142300000D01*
D41*
X149300000Y-133400000D02*
X149300000Y-132900000D01*
X149900000Y-133500000D02*
X149300000Y-132900000D01*
D40*
X161400000Y-140800000D02*
X161400000Y-141899999D01*
D41*
X151300000Y-134700000D02*
X150600000Y-134700000D01*
X155300000Y-134600000D02*
X155900000Y-134600000D01*
X155100000Y-134600000D02*
X155200000Y-134500000D01*
X151600000Y-134700000D02*
X151600000Y-136100000D01*
X151300000Y-133500000D02*
X149900000Y-133500000D01*
%TO.N,/DVDD*%
X150700000Y-135400000D02*
X150700000Y-137900000D01*
%TO.N,Net-(IC1-BSTA)*%
X152300000Y-131100000D02*
X152300000Y-130700000D01*
X152300000Y-130700000D02*
X152600000Y-130400000D01*
X151300000Y-131500000D02*
X151900000Y-131500000D01*
X151900000Y-131500000D02*
X152300000Y-131100000D01*
X152600000Y-130400000D02*
X153400000Y-130400000D01*
%TO.N,/SHA*%
X159600000Y-122000000D02*
X159600000Y-121000000D01*
X154700000Y-128500000D02*
X154100000Y-129100000D01*
X151300000Y-130400000D02*
X151300000Y-131100000D01*
X154100000Y-129100000D02*
X152600000Y-129100000D01*
X152600000Y-129100000D02*
X151300000Y-130400000D01*
%TO.N,Net-(IC1-BSTB)*%
X150748696Y-127200000D02*
X151075000Y-127200000D01*
X149900000Y-128048696D02*
X150748696Y-127200000D01*
X149900000Y-130400000D02*
X149900000Y-128048696D01*
%TO.N,/SHB*%
X146472152Y-122372152D02*
X146000000Y-121900000D01*
X148900000Y-126300000D02*
X149500000Y-126900000D01*
X146000000Y-121900000D02*
X146000000Y-121500000D01*
X149500000Y-126900000D02*
X149500000Y-130400000D01*
X146700001Y-122372152D02*
X146472152Y-122372152D01*
%TO.N,Net-(IC1-BSTC)*%
X148300000Y-129548529D02*
X147775000Y-129023529D01*
X148300000Y-130400000D02*
X148300000Y-129548529D01*
X147775000Y-129023529D02*
X147775000Y-128100000D01*
%TO.N,/SHC*%
X144500000Y-126900000D02*
X144900000Y-126900000D01*
X132100000Y-123527848D02*
X132100000Y-121600000D01*
X132099999Y-123527849D02*
X132100000Y-123527848D01*
X147900000Y-129900000D02*
X147900000Y-130400000D01*
X144900000Y-126900000D02*
X147900000Y-129900000D01*
D40*
%TO.N,Net-(D1-A)*%
X166400000Y-145300000D02*
X166400000Y-146712500D01*
%TO.N,Net-(D2-A)*%
X163873332Y-146712500D02*
X162812500Y-146712500D01*
X161700000Y-145600000D02*
X161700000Y-144825000D01*
X162812500Y-146712500D02*
X161700000Y-145600000D01*
D41*
%TO.N,/FG*%
X156900000Y-146600000D02*
X156900000Y-144825000D01*
X144925000Y-139575000D02*
X144925000Y-142000000D01*
X156900000Y-144825000D02*
X156900000Y-144200000D01*
X160559166Y-147500000D02*
X157800000Y-147500000D01*
X146300000Y-138200000D02*
X144925000Y-139575000D01*
X144925000Y-143050000D02*
X144925000Y-142000000D01*
X147300000Y-135234314D02*
X146300000Y-136234314D01*
X146300000Y-136234314D02*
X146300000Y-138200000D01*
X157800000Y-147500000D02*
X156900000Y-146600000D01*
X147300000Y-134700000D02*
X147300000Y-135234314D01*
X161346666Y-148287500D02*
X160559166Y-147500000D01*
D40*
%TO.N,Net-(D4-A)*%
X160100000Y-144825000D02*
X160100000Y-146200000D01*
X160100000Y-146200000D02*
X160612500Y-146712500D01*
X160612500Y-146712500D02*
X161346666Y-146712500D01*
%TO.N,/#FAULT*%
X155300000Y-144825000D02*
X154975000Y-144500000D01*
D41*
X150300000Y-140100000D02*
X149925000Y-140475000D01*
X150300000Y-135400000D02*
X150300000Y-140100000D01*
D40*
X150500000Y-144500000D02*
X149925000Y-143925000D01*
X158500000Y-148287500D02*
X157287500Y-148287500D01*
X149925000Y-143925000D02*
X149925000Y-143050000D01*
X155300000Y-146300000D02*
X155300000Y-144825000D01*
D41*
X149925000Y-140475000D02*
X149925000Y-143050000D01*
D40*
X154975000Y-144500000D02*
X150500000Y-144500000D01*
X157287500Y-148287500D02*
X155300000Y-146300000D01*
%TO.N,Net-(D5-A)*%
X158400000Y-146612500D02*
X158500000Y-146712500D01*
X158400000Y-144825000D02*
X158400000Y-146612500D01*
D41*
%TO.N,/SDA*%
X146900000Y-138600000D02*
X146900000Y-136800000D01*
X146900000Y-136800000D02*
X147900000Y-135800000D01*
D40*
X159900000Y-132275000D02*
X159400000Y-132775000D01*
X161550000Y-132275000D02*
X159900000Y-132275000D01*
D41*
X147900000Y-135800000D02*
X147900000Y-135400000D01*
D40*
%TO.N,/SCL*%
X157800000Y-132775000D02*
X158625000Y-133600000D01*
D41*
X148100000Y-136300000D02*
X148300000Y-136100000D01*
D40*
X161475000Y-133600000D02*
X161550000Y-133525000D01*
D41*
X148300000Y-136100000D02*
X148300000Y-135400000D01*
X148100000Y-137200000D02*
X148100000Y-136300000D01*
D40*
X158625000Y-133600000D02*
X161475000Y-133600000D01*
D41*
%TO.N,/BRAKE*%
X148675000Y-140525000D02*
X148675000Y-143050000D01*
D40*
X148700000Y-144300000D02*
X148700000Y-143075000D01*
D41*
X149900000Y-139300000D02*
X148675000Y-140525000D01*
D40*
X137725000Y-146525000D02*
X137800000Y-146600000D01*
D41*
X149900000Y-135400000D02*
X149900000Y-139300000D01*
D40*
X137725000Y-146500000D02*
X137725000Y-146525000D01*
X148700000Y-143075000D02*
X148675000Y-143050000D01*
%TO.N,/DIR*%
X146200000Y-143075000D02*
X146175000Y-143050000D01*
D41*
X148700000Y-135400000D02*
X148700000Y-138700000D01*
X146175000Y-141225000D02*
X146175000Y-143050000D01*
D40*
X146200000Y-144800000D02*
X146200000Y-143075000D01*
X137725000Y-144900000D02*
X138000000Y-144900000D01*
D41*
X148700000Y-138700000D02*
X146175000Y-141225000D01*
%TO.N,/MPIO*%
X147425000Y-140975000D02*
X147425000Y-143050000D01*
X149500000Y-138900000D02*
X147425000Y-140975000D01*
X149500000Y-135400000D02*
X149500000Y-138900000D01*
D40*
%TO.N,/DRVOFF*%
X137725000Y-143200000D02*
X142275000Y-143200000D01*
D41*
X146224791Y-133100000D02*
X146200000Y-133124791D01*
X147300000Y-133100000D02*
X146224791Y-133100000D01*
X142425000Y-139175000D02*
X142425000Y-143050000D01*
D40*
X142275000Y-143200000D02*
X142425000Y-143050000D01*
D41*
X146200000Y-133124791D02*
X144275209Y-133124791D01*
X144275209Y-133124791D02*
X143500000Y-133900000D01*
X143500000Y-133900000D02*
X143500000Y-138100000D01*
X143500000Y-138100000D02*
X142425000Y-139175000D01*
D40*
%TO.N,GND_FET*%
X132987500Y-125125000D02*
X128800000Y-125125000D01*
D41*
%TO.N,/LSS*%
X146265686Y-131900000D02*
X143500000Y-129134314D01*
X142651471Y-129500000D02*
X140000000Y-126848529D01*
X143148529Y-129500000D02*
X142651471Y-129500000D01*
X143500000Y-129134314D02*
X143500000Y-129148529D01*
X140000000Y-126848529D02*
X140000000Y-126400000D01*
X147300000Y-131900000D02*
X146265686Y-131900000D01*
X143500000Y-129148529D02*
X143148529Y-129500000D01*
%TO.N,/SP*%
X134200000Y-126800000D02*
X134374999Y-126974999D01*
X137793199Y-126974999D02*
X143092991Y-132274791D01*
X146100000Y-132300000D02*
X147300000Y-132300000D01*
X146074791Y-132274791D02*
X146100000Y-132300000D01*
X143092991Y-132274791D02*
X146074791Y-132274791D01*
X134374999Y-126974999D02*
X137793199Y-126974999D01*
%TO.N,/SN*%
X146100000Y-132700000D02*
X147300000Y-132700000D01*
X134374999Y-127425001D02*
X137606801Y-127425001D01*
X137606801Y-127425001D02*
X142906591Y-132724791D01*
X134200000Y-127600000D02*
X134374999Y-127425001D01*
X142906591Y-132724791D02*
X146075209Y-132724791D01*
X146075209Y-132724791D02*
X146100000Y-132700000D01*
D40*
%TO.N,/OUT_A*%
X159600000Y-119391668D02*
X160166668Y-118825000D01*
D42*
X154000000Y-111800000D02*
X154000000Y-111025000D01*
D40*
X159600000Y-120000000D02*
X159600000Y-119391668D01*
D42*
X157600000Y-115400000D02*
X154000000Y-111800000D01*
D40*
%TO.N,/OUT_B*%
X146000000Y-119591668D02*
X146566668Y-119025000D01*
X146000000Y-120500000D02*
X146000000Y-119591668D01*
D41*
X142100000Y-115565000D02*
X141965000Y-115700000D01*
D42*
X150500000Y-115029167D02*
X150500000Y-110970833D01*
D40*
%TO.N,/OUT_C*%
X132766668Y-119025000D02*
X132100000Y-119691668D01*
D42*
X137075000Y-114825000D02*
X140875000Y-111025000D01*
X140875000Y-111025000D02*
X147000000Y-111025000D01*
D40*
X132100000Y-119691668D02*
X132100000Y-120600000D01*
D42*
X137075000Y-115725000D02*
X137075000Y-114825000D01*
D40*
%TO.N,Net-(Q1-G)*%
X154925000Y-123300000D02*
X153925000Y-122300000D01*
X153400000Y-122300000D02*
X152600000Y-121500000D01*
X152600000Y-116500000D02*
X153461700Y-115638300D01*
X152600000Y-121500000D02*
X152600000Y-116500000D01*
X153925000Y-122300000D02*
X153400000Y-122300000D01*
X156200000Y-123400000D02*
X156300000Y-123300000D01*
X156300000Y-123300000D02*
X154925000Y-123300000D01*
X154875000Y-123400000D02*
X156200000Y-123400000D01*
X153461700Y-115638300D02*
X154195000Y-115638300D01*
%TO.N,Net-(Q2-G)*%
X164305000Y-124005000D02*
X164600000Y-124300000D01*
X164305000Y-121015000D02*
X164305000Y-124005000D01*
%TO.N,Net-(Q3-G)*%
X141600000Y-123100000D02*
X142675000Y-123100000D01*
X138900000Y-121212470D02*
X139887530Y-122200000D01*
D41*
X140700000Y-115695000D02*
X140695000Y-115700000D01*
D40*
X139887530Y-122200000D02*
X140700000Y-122200000D01*
X140700000Y-122200000D02*
X141600000Y-123100000D01*
X139800000Y-115700000D02*
X138900000Y-116600000D01*
X140695000Y-115700000D02*
X139800000Y-115700000D01*
X138900000Y-116600000D02*
X138900000Y-121212470D01*
%TO.N,Net-(Q4-G)*%
X150805000Y-121061700D02*
X150805000Y-123400000D01*
X150805000Y-123400000D02*
X151850000Y-123400000D01*
X151850000Y-123400000D02*
X150800000Y-123400000D01*
%TO.N,Net-(Q5-G)*%
X125300000Y-116600000D02*
X125300000Y-122700000D01*
X125300000Y-122700000D02*
X126075000Y-123475000D01*
X126000000Y-115900000D02*
X125300000Y-116600000D01*
X126795000Y-115900000D02*
X126000000Y-115900000D01*
X126075000Y-123475000D02*
X128800000Y-123475000D01*
%TO.N,Net-(Q6-G)*%
X137005000Y-121108400D02*
X137005000Y-123200000D01*
X137005000Y-123200000D02*
X137775000Y-123200000D01*
D41*
%TO.N,/GHA*%
X150700000Y-129648530D02*
X150700000Y-130400000D01*
X152874265Y-127474265D02*
X150700000Y-129648530D01*
%TO.N,/GLA*%
X153800000Y-125700000D02*
X164600000Y-125700000D01*
X150300000Y-129200000D02*
X153800000Y-125700000D01*
X150300000Y-130400000D02*
X150300000Y-129200000D01*
%TO.N,/GHB*%
X147098696Y-126200000D02*
X149100000Y-128201304D01*
X147000000Y-126200000D02*
X147098696Y-126200000D01*
X149100000Y-128201304D02*
X149100000Y-130400000D01*
%TO.N,/GLB*%
X148700000Y-129100000D02*
X148700000Y-130400000D01*
X148500000Y-128900000D02*
X148700000Y-129100000D01*
D40*
%TO.N,/GHC*%
X131800000Y-126700000D02*
X127800000Y-126700000D01*
D41*
X147300000Y-130600000D02*
X147300000Y-131100000D01*
D40*
X127000000Y-125900000D02*
X127000000Y-125100000D01*
D41*
X145000000Y-128300000D02*
X147300000Y-130600000D01*
D40*
X127800000Y-126700000D02*
X127000000Y-125900000D01*
D41*
%TO.N,/GLC*%
X146700000Y-131500000D02*
X147300000Y-131500000D01*
X141500000Y-126300000D02*
X146700000Y-131500000D01*
%TO.N,GNDA*%
X146365686Y-133524791D02*
X146059523Y-133524791D01*
X145584314Y-134000000D02*
X144800000Y-134000000D01*
X146390477Y-133500000D02*
X146365686Y-133524791D01*
X146059523Y-133524791D02*
X145584314Y-134000000D01*
X147300000Y-133500000D02*
X146390477Y-133500000D01*
%TO.N,/SPEED*%
X145700000Y-135300000D02*
X145700000Y-137300000D01*
X147300000Y-134300000D02*
X146700000Y-134300000D01*
X146700000Y-134300000D02*
X145700000Y-135300000D01*
X143675000Y-139325000D02*
X143675000Y-143050000D01*
X145700000Y-137300000D02*
X143675000Y-139325000D01*
%TO.N,/GVDD*%
X151300000Y-131900000D02*
X153400000Y-131900000D01*
X153400000Y-131900000D02*
X154600000Y-130700000D01*
X154600000Y-130700000D02*
X154600000Y-129900000D01*
%TO.N,Net-(IC1-AVDD)*%
X146268628Y-134165685D02*
X146534314Y-133900000D01*
X144400000Y-135550000D02*
X144884314Y-135550000D01*
X144884314Y-135550000D02*
X146034314Y-134400000D01*
X146034314Y-134400000D02*
X146268628Y-134165685D01*
X146534314Y-133900000D02*
X147300000Y-133900000D01*
%TD*%
%TA.AperFunction,Conductor*%
%TO.N,/OUT_A*%
G36*
X165143039Y-115019685D02*
G01*
X165188794Y-115072489D01*
X165200000Y-115124000D01*
X165200000Y-119276000D01*
X165180315Y-119343039D01*
X165127511Y-119388794D01*
X165076000Y-119400000D01*
X159724000Y-119400000D01*
X159656961Y-119380315D01*
X159611206Y-119327511D01*
X159600000Y-119276000D01*
X159600000Y-117000000D01*
X159599999Y-116999999D01*
X159000000Y-116500000D01*
X155224000Y-116500000D01*
X155156961Y-116480315D01*
X155111206Y-116427511D01*
X155100000Y-116376000D01*
X155100000Y-115124000D01*
X155119685Y-115056961D01*
X155172489Y-115011206D01*
X155224000Y-115000000D01*
X165076000Y-115000000D01*
X165143039Y-115019685D01*
G37*
%TD.AperFunction*%
%TD*%
%TA.AperFunction,Conductor*%
%TO.N,/OUT_C*%
G36*
X137843039Y-115119685D02*
G01*
X137888794Y-115172489D01*
X137900000Y-115224000D01*
X137900000Y-119276000D01*
X137880315Y-119343039D01*
X137827511Y-119388794D01*
X137776000Y-119400000D01*
X132424000Y-119400000D01*
X132356961Y-119380315D01*
X132311206Y-119327511D01*
X132300000Y-119276000D01*
X132300000Y-117000000D01*
X132299999Y-116999999D01*
X131700000Y-116500000D01*
X127924000Y-116500000D01*
X127856961Y-116480315D01*
X127811206Y-116427511D01*
X127800000Y-116376000D01*
X127800000Y-115224000D01*
X127819685Y-115156961D01*
X127872489Y-115111206D01*
X127924000Y-115100000D01*
X137776000Y-115100000D01*
X137843039Y-115119685D01*
G37*
%TD.AperFunction*%
%TD*%
%TA.AperFunction,Conductor*%
%TO.N,/OUT_B*%
G36*
X151643039Y-115019685D02*
G01*
X151688794Y-115072489D01*
X151700000Y-115124000D01*
X151700000Y-119237700D01*
X151680315Y-119304739D01*
X151627511Y-119350494D01*
X151576000Y-119361700D01*
X146224000Y-119361700D01*
X146156961Y-119342015D01*
X146111206Y-119289211D01*
X146100000Y-119237700D01*
X146100000Y-116961700D01*
X146099999Y-116961699D01*
X145500000Y-116461700D01*
X141724000Y-116461700D01*
X141656961Y-116442015D01*
X141611206Y-116389211D01*
X141600000Y-116337700D01*
X141600000Y-115181738D01*
X141619685Y-115114699D01*
X141672489Y-115068944D01*
X141719970Y-115057804D01*
X143497998Y-115000064D01*
X143502023Y-115000000D01*
X151576000Y-115000000D01*
X151643039Y-115019685D01*
G37*
%TD.AperFunction*%
%TD*%
%TA.AperFunction,Conductor*%
%TO.N,GND_FET*%
G36*
X149843039Y-120219685D02*
G01*
X149888794Y-120272489D01*
X149900000Y-120324000D01*
X149900000Y-122782893D01*
X149880315Y-122849932D01*
X149875267Y-122857204D01*
X149856204Y-122882668D01*
X149856202Y-122882671D01*
X149805910Y-123017513D01*
X149805909Y-123017517D01*
X149799500Y-123077127D01*
X149799500Y-123077134D01*
X149799500Y-123077135D01*
X149799500Y-123722870D01*
X149799501Y-123722876D01*
X149805908Y-123782483D01*
X149840602Y-123875500D01*
X149856204Y-123917331D01*
X149875266Y-123942794D01*
X149899684Y-124008258D01*
X149900000Y-124017106D01*
X149900000Y-124200000D01*
X160200000Y-124200000D01*
X160200000Y-123901497D01*
X160208645Y-123856009D01*
X160240359Y-123775590D01*
X160250500Y-123691144D01*
X160250500Y-123108856D01*
X160240359Y-123024410D01*
X160221992Y-122977834D01*
X160208646Y-122943991D01*
X160200000Y-122898501D01*
X160200000Y-122051285D01*
X160201061Y-122035099D01*
X160202457Y-122024500D01*
X160205682Y-122000000D01*
X160201061Y-121964899D01*
X160200000Y-121948714D01*
X160200000Y-120324000D01*
X160219685Y-120256961D01*
X160272489Y-120211206D01*
X160324000Y-120200000D01*
X163593946Y-120200000D01*
X163660985Y-120219685D01*
X163706740Y-120272489D01*
X163716684Y-120341647D01*
X163715856Y-120345206D01*
X163699500Y-120448475D01*
X163699500Y-121581517D01*
X163703144Y-121604522D01*
X163714354Y-121675304D01*
X163771950Y-121788342D01*
X163771952Y-121788344D01*
X163776318Y-121794354D01*
X163799798Y-121860160D01*
X163800000Y-121867239D01*
X163800000Y-125175500D01*
X163780315Y-125242539D01*
X163727511Y-125288294D01*
X163676000Y-125299500D01*
X153747273Y-125299500D01*
X153645412Y-125326793D01*
X153620090Y-125341413D01*
X153594768Y-125356033D01*
X153574427Y-125367776D01*
X153554088Y-125379519D01*
X153436320Y-125497286D01*
X153374996Y-125530770D01*
X153349038Y-125533603D01*
X132824399Y-125599599D01*
X132757296Y-125580130D01*
X132711372Y-125527474D01*
X132700000Y-125475600D01*
X132700000Y-123579126D01*
X132701061Y-123562940D01*
X132705681Y-123527849D01*
X132705681Y-123527847D01*
X132701061Y-123492756D01*
X132700000Y-123476571D01*
X132700000Y-120424000D01*
X132719685Y-120356961D01*
X132772489Y-120311206D01*
X132824000Y-120300000D01*
X135976000Y-120300000D01*
X136043039Y-120319685D01*
X136088794Y-120372489D01*
X136100000Y-120424000D01*
X136100000Y-124200000D01*
X146700000Y-124200000D01*
X146700000Y-123086579D01*
X146719685Y-123019540D01*
X146772489Y-122973785D01*
X146807814Y-122963640D01*
X146856763Y-122957196D01*
X147002842Y-122896688D01*
X147128283Y-122800434D01*
X147224537Y-122674993D01*
X147285045Y-122528914D01*
X147305683Y-122372152D01*
X147303583Y-122356204D01*
X147285045Y-122215391D01*
X147285045Y-122215390D01*
X147224537Y-122069311D01*
X147128283Y-121943870D01*
X147002842Y-121847616D01*
X146856763Y-121787108D01*
X146848456Y-121786014D01*
X146807813Y-121780663D01*
X146743917Y-121752395D01*
X146705446Y-121694070D01*
X146700000Y-121657724D01*
X146700000Y-120324000D01*
X146719685Y-120256961D01*
X146772489Y-120211206D01*
X146824000Y-120200000D01*
X149776000Y-120200000D01*
X149843039Y-120219685D01*
G37*
%TD.AperFunction*%
%TD*%
%TA.AperFunction,Conductor*%
%TO.N,GNDD*%
G36*
X151359191Y-134719407D02*
G01*
X151395155Y-134768907D01*
X151400000Y-134799500D01*
X151400000Y-135099998D01*
X151400001Y-135099999D01*
X151744790Y-135099999D01*
X151744791Y-135099998D01*
X151769874Y-135097090D01*
X151872478Y-135051786D01*
X151888220Y-135036044D01*
X151942736Y-135008265D01*
X152003168Y-135017835D01*
X152028225Y-135036039D01*
X152692686Y-135700500D01*
X152692688Y-135700501D01*
X152692690Y-135700503D01*
X152806810Y-135766390D01*
X152806808Y-135766390D01*
X152806812Y-135766391D01*
X152806814Y-135766392D01*
X152934108Y-135800500D01*
X153065893Y-135800500D01*
X154038571Y-135800500D01*
X154096762Y-135819407D01*
X154132726Y-135868907D01*
X154134552Y-135875239D01*
X154134640Y-135875590D01*
X154187634Y-136009972D01*
X154187635Y-136009974D01*
X154187636Y-136009975D01*
X154274922Y-136125078D01*
X154390025Y-136212364D01*
X154390033Y-136212367D01*
X154392921Y-136213991D01*
X154394658Y-136215876D01*
X154395421Y-136216455D01*
X154395317Y-136216591D01*
X154434380Y-136258989D01*
X154441472Y-136319762D01*
X154411488Y-136373097D01*
X154392932Y-136386581D01*
X154390272Y-136388076D01*
X154275282Y-136475276D01*
X154275276Y-136475282D01*
X154188077Y-136590270D01*
X154135132Y-136724531D01*
X154125000Y-136808895D01*
X154125000Y-136824999D01*
X154125001Y-136825000D01*
X155674999Y-136825000D01*
X155675000Y-136824999D01*
X155675000Y-136808899D01*
X155674999Y-136808895D01*
X155664867Y-136724531D01*
X155611922Y-136590270D01*
X155524723Y-136475282D01*
X155524717Y-136475276D01*
X155409725Y-136388074D01*
X155407072Y-136386583D01*
X155405482Y-136384857D01*
X155404332Y-136383985D01*
X155404488Y-136383778D01*
X155365616Y-136341582D01*
X155358529Y-136280809D01*
X155388516Y-136227476D01*
X155407082Y-136213989D01*
X155409966Y-136212367D01*
X155409975Y-136212364D01*
X155525078Y-136125078D01*
X155612364Y-136009975D01*
X155665359Y-135875590D01*
X155665448Y-135875239D01*
X155665581Y-135875027D01*
X155667688Y-135869685D01*
X155668693Y-135870081D01*
X155698039Y-135823456D01*
X155754843Y-135800719D01*
X155761429Y-135800500D01*
X156990890Y-135800500D01*
X156990892Y-135800500D01*
X157118186Y-135766392D01*
X157141400Y-135752989D01*
X157201247Y-135740266D01*
X157257144Y-135765151D01*
X157260906Y-135768720D01*
X158345504Y-136853318D01*
X158373281Y-136907835D01*
X158374500Y-136923322D01*
X158374500Y-138150237D01*
X158355593Y-138208428D01*
X158335320Y-138229120D01*
X158274926Y-138274918D01*
X158274922Y-138274922D01*
X158198583Y-138375590D01*
X158187634Y-138390028D01*
X158186004Y-138392928D01*
X158184118Y-138394665D01*
X158183545Y-138395421D01*
X158183409Y-138395318D01*
X158141002Y-138434384D01*
X158080229Y-138441470D01*
X158026896Y-138411482D01*
X158013414Y-138392924D01*
X158011922Y-138390271D01*
X157924723Y-138275282D01*
X157924717Y-138275276D01*
X157809729Y-138188077D01*
X157675468Y-138135132D01*
X157591104Y-138125000D01*
X157575001Y-138125000D01*
X157575000Y-138125001D01*
X157575000Y-139674999D01*
X157575001Y-139675000D01*
X157591100Y-139675000D01*
X157591104Y-139674999D01*
X157675468Y-139664867D01*
X157809729Y-139611922D01*
X157924717Y-139524723D01*
X157924723Y-139524717D01*
X158011922Y-139409729D01*
X158013412Y-139407079D01*
X158015137Y-139405489D01*
X158016015Y-139404332D01*
X158016222Y-139404489D01*
X158058409Y-139365620D01*
X158119182Y-139358527D01*
X158172517Y-139388510D01*
X158186006Y-139407075D01*
X158187634Y-139409970D01*
X158187636Y-139409975D01*
X158274922Y-139525078D01*
X158320577Y-139559699D01*
X158335319Y-139570878D01*
X158370261Y-139621104D01*
X158374500Y-139649762D01*
X158374500Y-142375500D01*
X158355593Y-142433691D01*
X158306093Y-142469655D01*
X158275500Y-142474500D01*
X158077133Y-142474500D01*
X158077129Y-142474500D01*
X158077128Y-142474501D01*
X158069949Y-142475272D01*
X158017519Y-142480908D01*
X158017514Y-142480909D01*
X157882670Y-142531202D01*
X157767458Y-142617450D01*
X157767450Y-142617458D01*
X157754447Y-142634829D01*
X157704438Y-142670082D01*
X157675194Y-142674500D01*
X157624806Y-142674500D01*
X157566615Y-142655593D01*
X157545553Y-142634829D01*
X157532549Y-142617458D01*
X157532548Y-142617457D01*
X157532546Y-142617454D01*
X157532541Y-142617450D01*
X157417329Y-142531202D01*
X157282488Y-142480910D01*
X157282483Y-142480909D01*
X157282481Y-142480908D01*
X157282477Y-142480908D01*
X157251249Y-142477550D01*
X157222873Y-142474500D01*
X157222870Y-142474500D01*
X156577133Y-142474500D01*
X156577129Y-142474500D01*
X156577128Y-142474501D01*
X156569949Y-142475272D01*
X156517519Y-142480908D01*
X156517514Y-142480909D01*
X156382670Y-142531202D01*
X156267458Y-142617450D01*
X156267450Y-142617458D01*
X156254447Y-142634829D01*
X156204438Y-142670082D01*
X156175194Y-142674500D01*
X156024806Y-142674500D01*
X155966615Y-142655593D01*
X155945553Y-142634829D01*
X155932549Y-142617458D01*
X155932548Y-142617457D01*
X155932546Y-142617454D01*
X155932541Y-142617450D01*
X155817329Y-142531202D01*
X155682488Y-142480910D01*
X155682483Y-142480909D01*
X155682481Y-142480908D01*
X155682477Y-142480908D01*
X155651249Y-142477550D01*
X155622873Y-142474500D01*
X155622870Y-142474500D01*
X154977133Y-142474500D01*
X154977129Y-142474500D01*
X154977128Y-142474501D01*
X154969949Y-142475272D01*
X154917519Y-142480908D01*
X154917514Y-142480909D01*
X154782670Y-142531202D01*
X154667458Y-142617450D01*
X154667450Y-142617458D01*
X154581202Y-142732670D01*
X154530910Y-142867511D01*
X154530908Y-142867522D01*
X154524500Y-142927129D01*
X154524500Y-143422866D01*
X154524501Y-143422870D01*
X154530908Y-143482480D01*
X154530909Y-143482485D01*
X154581202Y-143617329D01*
X154656064Y-143717331D01*
X154667454Y-143732546D01*
X154667457Y-143732548D01*
X154667458Y-143732549D01*
X154785943Y-143821247D01*
X154821196Y-143871256D01*
X154820322Y-143932435D01*
X154783655Y-143981416D01*
X154726614Y-143999500D01*
X151853977Y-143999500D01*
X151795786Y-143980593D01*
X151759822Y-143931093D01*
X151759822Y-143869907D01*
X151760532Y-143867803D01*
X151772149Y-143834601D01*
X151774999Y-143804211D01*
X151775000Y-143804210D01*
X151775000Y-143300001D01*
X151774999Y-143300000D01*
X151024000Y-143300000D01*
X150965809Y-143281093D01*
X150929845Y-143231593D01*
X150925000Y-143201000D01*
X150925000Y-142799999D01*
X151425000Y-142799999D01*
X151425001Y-142800000D01*
X151774998Y-142800000D01*
X151774999Y-142799999D01*
X151774999Y-142295796D01*
X151772149Y-142265399D01*
X151772149Y-142265397D01*
X151727345Y-142137352D01*
X151646792Y-142028209D01*
X151646790Y-142028207D01*
X151537645Y-141947653D01*
X151537643Y-141947652D01*
X151425000Y-141908236D01*
X151425000Y-142799999D01*
X150925000Y-142799999D01*
X150925000Y-141908236D01*
X150812356Y-141947652D01*
X150812354Y-141947653D01*
X150703209Y-142028207D01*
X150703203Y-142028213D01*
X150629964Y-142127447D01*
X150580196Y-142163039D01*
X150519013Y-142162581D01*
X150470655Y-142127446D01*
X150397150Y-142027850D01*
X150365712Y-142004648D01*
X150330119Y-141954880D01*
X150325500Y-141924992D01*
X150325500Y-140681900D01*
X150344407Y-140623709D01*
X150354490Y-140611902D01*
X150620480Y-140345913D01*
X150638170Y-140315273D01*
X150673205Y-140254592D01*
X150673205Y-140254590D01*
X150673207Y-140254588D01*
X150700500Y-140152727D01*
X150700500Y-140047273D01*
X150700500Y-139150001D01*
X156575000Y-139150001D01*
X156575000Y-139191104D01*
X156585132Y-139275468D01*
X156638077Y-139409729D01*
X156725276Y-139524717D01*
X156725282Y-139524723D01*
X156840270Y-139611922D01*
X156974531Y-139664867D01*
X157058895Y-139674999D01*
X157058900Y-139675000D01*
X157074999Y-139675000D01*
X157075000Y-139674999D01*
X157075000Y-139150001D01*
X157074999Y-139150000D01*
X156575001Y-139150000D01*
X156575000Y-139150001D01*
X150700500Y-139150001D01*
X150700500Y-138871085D01*
X150719407Y-138812894D01*
X150768907Y-138776930D01*
X150811306Y-138772792D01*
X150819308Y-138773752D01*
X150833844Y-138775499D01*
X150833853Y-138775499D01*
X150833856Y-138775500D01*
X150833858Y-138775500D01*
X151366142Y-138775500D01*
X151366144Y-138775500D01*
X151450590Y-138765359D01*
X151584975Y-138712364D01*
X151700078Y-138625078D01*
X151787364Y-138509975D01*
X151787367Y-138509966D01*
X151788989Y-138507082D01*
X151790874Y-138505344D01*
X151791455Y-138504579D01*
X151791592Y-138504683D01*
X151833985Y-138465621D01*
X151894757Y-138458526D01*
X151948094Y-138488507D01*
X151961583Y-138507072D01*
X151963074Y-138509725D01*
X152050276Y-138624717D01*
X152050282Y-138624723D01*
X152165270Y-138711922D01*
X152299531Y-138764867D01*
X152383895Y-138774999D01*
X152383900Y-138775000D01*
X152399999Y-138775000D01*
X152400000Y-138774999D01*
X152400000Y-138250001D01*
X152900000Y-138250001D01*
X152900000Y-138774999D01*
X152900001Y-138775000D01*
X152916100Y-138775000D01*
X152916104Y-138774999D01*
X153000468Y-138764867D01*
X153134729Y-138711922D01*
X153249717Y-138624723D01*
X153249723Y-138624717D01*
X153261721Y-138608895D01*
X156575000Y-138608895D01*
X156575000Y-138649999D01*
X156575001Y-138650000D01*
X157074999Y-138650000D01*
X157075000Y-138649999D01*
X157075000Y-138125001D01*
X157074999Y-138125000D01*
X157058895Y-138125000D01*
X156974531Y-138135132D01*
X156840270Y-138188077D01*
X156725282Y-138275276D01*
X156725276Y-138275282D01*
X156638077Y-138390270D01*
X156585132Y-138524531D01*
X156575000Y-138608895D01*
X153261721Y-138608895D01*
X153336922Y-138509729D01*
X153389867Y-138375468D01*
X153399999Y-138291104D01*
X153400000Y-138291100D01*
X153400000Y-138250001D01*
X153399999Y-138250000D01*
X152900001Y-138250000D01*
X152900000Y-138250001D01*
X152400000Y-138250001D01*
X152400000Y-137225001D01*
X152900000Y-137225001D01*
X152900000Y-137749999D01*
X152900001Y-137750000D01*
X153399999Y-137750000D01*
X153400000Y-137749999D01*
X153400000Y-137708899D01*
X153399999Y-137708895D01*
X153389867Y-137624531D01*
X153336922Y-137490270D01*
X153249723Y-137375282D01*
X153249717Y-137375276D01*
X153183420Y-137325001D01*
X154125000Y-137325001D01*
X154125000Y-137341104D01*
X154135132Y-137425468D01*
X154188077Y-137559729D01*
X154275276Y-137674717D01*
X154275282Y-137674723D01*
X154390270Y-137761922D01*
X154524531Y-137814867D01*
X154608895Y-137824999D01*
X154608900Y-137825000D01*
X154649999Y-137825000D01*
X154650000Y-137824999D01*
X154650000Y-137325001D01*
X155150000Y-137325001D01*
X155150000Y-137824999D01*
X155150001Y-137825000D01*
X155191100Y-137825000D01*
X155191104Y-137824999D01*
X155275468Y-137814867D01*
X155409729Y-137761922D01*
X155524717Y-137674723D01*
X155524723Y-137674717D01*
X155611922Y-137559729D01*
X155664867Y-137425468D01*
X155674999Y-137341104D01*
X155675000Y-137341100D01*
X155675000Y-137325001D01*
X155674999Y-137325000D01*
X155150001Y-137325000D01*
X155150000Y-137325001D01*
X154650000Y-137325001D01*
X154649999Y-137325000D01*
X154125001Y-137325000D01*
X154125000Y-137325001D01*
X153183420Y-137325001D01*
X153134729Y-137288077D01*
X153000468Y-137235132D01*
X152916104Y-137225000D01*
X152900001Y-137225000D01*
X152900000Y-137225001D01*
X152400000Y-137225001D01*
X152399999Y-137225000D01*
X152383895Y-137225000D01*
X152299531Y-137235132D01*
X152165270Y-137288077D01*
X152050282Y-137375276D01*
X152050276Y-137375282D01*
X151963076Y-137490272D01*
X151961581Y-137492932D01*
X151959852Y-137494524D01*
X151958985Y-137495668D01*
X151958779Y-137495512D01*
X151916578Y-137534385D01*
X151855804Y-137541470D01*
X151802473Y-137511479D01*
X151788991Y-137492921D01*
X151787367Y-137490033D01*
X151787364Y-137490025D01*
X151700078Y-137374922D01*
X151584975Y-137287636D01*
X151584974Y-137287635D01*
X151584972Y-137287634D01*
X151450591Y-137234641D01*
X151366148Y-137224500D01*
X151366144Y-137224500D01*
X151199500Y-137224500D01*
X151141309Y-137205593D01*
X151105345Y-137156093D01*
X151100500Y-137125500D01*
X151100500Y-135339299D01*
X151100499Y-135339285D01*
X151100499Y-135198999D01*
X151119406Y-135140808D01*
X151168906Y-135104844D01*
X151199499Y-135099999D01*
X151199999Y-135099999D01*
X151200000Y-135099998D01*
X151200000Y-134799500D01*
X151218907Y-134741309D01*
X151268407Y-134705345D01*
X151299000Y-134700500D01*
X151301000Y-134700500D01*
X151359191Y-134719407D01*
G37*
%TD.AperFunction*%
%TA.AperFunction,Conductor*%
G36*
X147479593Y-137180063D02*
G01*
X147497653Y-137225332D01*
X147514955Y-137356758D01*
X147514957Y-137356766D01*
X147575462Y-137502838D01*
X147575462Y-137502839D01*
X147671713Y-137628276D01*
X147671718Y-137628282D01*
X147797159Y-137724536D01*
X147797160Y-137724536D01*
X147797161Y-137724537D01*
X147900499Y-137767341D01*
X147943238Y-137785044D01*
X148060809Y-137800522D01*
X148099999Y-137805682D01*
X148100000Y-137805682D01*
X148187578Y-137794152D01*
X148247739Y-137805302D01*
X148289856Y-137849684D01*
X148299500Y-137892305D01*
X148299500Y-138493099D01*
X148280593Y-138551290D01*
X148270504Y-138563103D01*
X145854516Y-140979091D01*
X145801794Y-141070408D01*
X145801792Y-141070412D01*
X145793998Y-141099498D01*
X145793999Y-141099499D01*
X145774500Y-141172273D01*
X145774500Y-141924992D01*
X145755593Y-141983183D01*
X145734288Y-142004648D01*
X145702848Y-142027851D01*
X145697607Y-142033093D01*
X145695704Y-142031190D01*
X145655829Y-142059692D01*
X145594646Y-142059217D01*
X145545426Y-142022871D01*
X145527815Y-141978225D01*
X145527386Y-141974970D01*
X145510044Y-141843238D01*
X145449537Y-141697161D01*
X145449537Y-141697160D01*
X145349332Y-141566570D01*
X145350713Y-141565509D01*
X145326719Y-141518416D01*
X145325500Y-141502929D01*
X145325500Y-139781899D01*
X145344407Y-139723708D01*
X145354490Y-139711901D01*
X146208629Y-138857761D01*
X146263144Y-138829986D01*
X146323576Y-138839557D01*
X146366841Y-138882822D01*
X146370094Y-138889879D01*
X146375462Y-138902838D01*
X146375462Y-138902839D01*
X146465679Y-139020412D01*
X146471718Y-139028282D01*
X146597159Y-139124536D01*
X146597160Y-139124536D01*
X146597161Y-139124537D01*
X146743233Y-139185042D01*
X146743238Y-139185044D01*
X146860809Y-139200522D01*
X146899999Y-139205682D01*
X146900000Y-139205682D01*
X146900001Y-139205682D01*
X146931352Y-139201554D01*
X147056762Y-139185044D01*
X147202841Y-139124536D01*
X147328282Y-139028282D01*
X147424536Y-138902841D01*
X147485044Y-138756762D01*
X147505682Y-138600000D01*
X147485044Y-138443238D01*
X147470819Y-138408895D01*
X147424537Y-138297161D01*
X147424537Y-138297160D01*
X147324332Y-138166570D01*
X147325713Y-138165509D01*
X147301719Y-138118416D01*
X147300500Y-138102929D01*
X147300500Y-137238254D01*
X147319407Y-137180063D01*
X147368907Y-137144099D01*
X147430093Y-137144099D01*
X147479593Y-137180063D01*
G37*
%TD.AperFunction*%
%TA.AperFunction,Conductor*%
G36*
X160559358Y-134119407D02*
G01*
X160595322Y-134168907D01*
X160595322Y-134230093D01*
X160559955Y-134279155D01*
X160527855Y-134302845D01*
X160527845Y-134302855D01*
X160447207Y-134412116D01*
X160402355Y-134540296D01*
X160402353Y-134540305D01*
X160399500Y-134570725D01*
X160399500Y-134979274D01*
X160402353Y-135009694D01*
X160402355Y-135009703D01*
X160447207Y-135137883D01*
X160527845Y-135247144D01*
X160527847Y-135247146D01*
X160527850Y-135247150D01*
X160527853Y-135247152D01*
X160527855Y-135247154D01*
X160637116Y-135327792D01*
X160637117Y-135327792D01*
X160637118Y-135327793D01*
X160765301Y-135372646D01*
X160795725Y-135375499D01*
X160795727Y-135375500D01*
X160795734Y-135375500D01*
X160900500Y-135375500D01*
X160958691Y-135394407D01*
X160994655Y-135443907D01*
X160999500Y-135474500D01*
X160999500Y-137988828D01*
X160980593Y-138047019D01*
X160931093Y-138082983D01*
X160869907Y-138082983D01*
X160841713Y-138068484D01*
X160812882Y-138047207D01*
X160812883Y-138047207D01*
X160684703Y-138002355D01*
X160684694Y-138002353D01*
X160654274Y-137999500D01*
X160654266Y-137999500D01*
X160245734Y-137999500D01*
X160245725Y-137999500D01*
X160215305Y-138002353D01*
X160215296Y-138002355D01*
X160087116Y-138047207D01*
X159977855Y-138127845D01*
X159977845Y-138127855D01*
X159897207Y-138237116D01*
X159852355Y-138365296D01*
X159852353Y-138365305D01*
X159851702Y-138372247D01*
X159827442Y-138428418D01*
X159774799Y-138459601D01*
X159753135Y-138462000D01*
X159658126Y-138462000D01*
X159599935Y-138443093D01*
X159566029Y-138399319D01*
X159562364Y-138390025D01*
X159475078Y-138274922D01*
X159475073Y-138274918D01*
X159414680Y-138229120D01*
X159379738Y-138178894D01*
X159375500Y-138150237D01*
X159375500Y-136609109D01*
X159344440Y-136493190D01*
X159341392Y-136481814D01*
X159341390Y-136481811D01*
X159341390Y-136481809D01*
X159275503Y-136367690D01*
X159275499Y-136367685D01*
X159182314Y-136274499D01*
X159182314Y-136274500D01*
X158178096Y-135270282D01*
X158150319Y-135215765D01*
X158159890Y-135155333D01*
X158203155Y-135112068D01*
X158213481Y-135107529D01*
X158317331Y-135068796D01*
X158432546Y-134982546D01*
X158445553Y-134965170D01*
X158495562Y-134929918D01*
X158524806Y-134925500D01*
X158675194Y-134925500D01*
X158733385Y-134944407D01*
X158754447Y-134965171D01*
X158765004Y-134979274D01*
X158767454Y-134982546D01*
X158767457Y-134982548D01*
X158767458Y-134982549D01*
X158882670Y-135068797D01*
X159017511Y-135119089D01*
X159017512Y-135119089D01*
X159017517Y-135119091D01*
X159077127Y-135125500D01*
X159722872Y-135125499D01*
X159782483Y-135119091D01*
X159868904Y-135086858D01*
X159917329Y-135068797D01*
X159917329Y-135068796D01*
X159917331Y-135068796D01*
X160032546Y-134982546D01*
X160118796Y-134867331D01*
X160169091Y-134732483D01*
X160175500Y-134672873D01*
X160175499Y-134199499D01*
X160194406Y-134141309D01*
X160243906Y-134105345D01*
X160274499Y-134100500D01*
X160501167Y-134100500D01*
X160559358Y-134119407D01*
G37*
%TD.AperFunction*%
%TA.AperFunction,Conductor*%
G36*
X137458091Y-127844408D02*
G01*
X137469904Y-127854497D01*
X142645905Y-133030498D01*
X142673681Y-133085013D01*
X142664110Y-133145445D01*
X142620845Y-133188710D01*
X142575900Y-133199500D01*
X142208851Y-133199500D01*
X142124410Y-133209641D01*
X142040836Y-133242598D01*
X142004518Y-133249500D01*
X141395482Y-133249500D01*
X141359164Y-133242598D01*
X141295085Y-133217329D01*
X141275590Y-133209641D01*
X141258700Y-133207612D01*
X141191148Y-133199500D01*
X141191144Y-133199500D01*
X140608856Y-133199500D01*
X140608851Y-133199500D01*
X140524410Y-133209641D01*
X140440836Y-133242598D01*
X140404518Y-133249500D01*
X139349500Y-133249500D01*
X139291309Y-133230593D01*
X139255345Y-133181093D01*
X139250500Y-133150500D01*
X139250499Y-130905139D01*
X139250499Y-130905136D01*
X139247585Y-130880009D01*
X139202206Y-130777235D01*
X139122765Y-130697794D01*
X139019991Y-130652415D01*
X139019990Y-130652414D01*
X139019988Y-130652414D01*
X138994869Y-130649500D01*
X138994865Y-130649500D01*
X137749098Y-130649500D01*
X137690907Y-130630593D01*
X137654943Y-130581093D01*
X137654943Y-130519907D01*
X137670556Y-130490233D01*
X137680423Y-130477373D01*
X137680424Y-130477372D01*
X137735843Y-130343578D01*
X137754746Y-130200000D01*
X137754746Y-130199999D01*
X137735843Y-130056423D01*
X137735841Y-130056418D01*
X137724504Y-130029048D01*
X137270003Y-130483549D01*
X137215486Y-130511326D01*
X137155054Y-130501755D01*
X137129995Y-130483549D01*
X136675494Y-130029048D01*
X136664157Y-130056420D01*
X136664156Y-130056421D01*
X136645254Y-130199999D01*
X136645254Y-130200000D01*
X136664156Y-130343578D01*
X136719576Y-130477372D01*
X136729445Y-130490235D01*
X136749867Y-130547912D01*
X136732487Y-130606577D01*
X136683945Y-130643823D01*
X136650901Y-130649500D01*
X135405139Y-130649500D01*
X135405136Y-130649501D01*
X135380009Y-130652414D01*
X135277235Y-130697794D01*
X135197794Y-130777235D01*
X135152414Y-130880011D01*
X135149500Y-130905130D01*
X135149500Y-131020697D01*
X135130593Y-131078888D01*
X135081093Y-131114852D01*
X135019907Y-131114852D01*
X134980496Y-131090701D01*
X134929496Y-131039701D01*
X134901719Y-130985184D01*
X134900500Y-130969697D01*
X134900500Y-129675494D01*
X137029048Y-129675494D01*
X137200000Y-129846446D01*
X137370950Y-129675495D01*
X137343576Y-129664156D01*
X137343579Y-129664156D01*
X137200000Y-129645254D01*
X137056421Y-129664156D01*
X137056420Y-129664157D01*
X137029048Y-129675494D01*
X134900500Y-129675494D01*
X134900500Y-129288627D01*
X134907403Y-129252308D01*
X134964876Y-129106566D01*
X134964875Y-129106566D01*
X134964877Y-129106564D01*
X134975500Y-129018102D01*
X134975500Y-128306898D01*
X134964877Y-128218436D01*
X134909361Y-128077658D01*
X134838579Y-127984318D01*
X134818485Y-127926529D01*
X134836196Y-127867964D01*
X134884949Y-127830993D01*
X134917464Y-127825501D01*
X137399900Y-127825501D01*
X137458091Y-127844408D01*
G37*
%TD.AperFunction*%
%TA.AperFunction,Conductor*%
G36*
X139403433Y-125902852D02*
G01*
X139439556Y-125952236D01*
X139444500Y-125983131D01*
X139444500Y-126400004D01*
X139445802Y-126428179D01*
X139445804Y-126428193D01*
X139448765Y-126438599D01*
X139451697Y-126452768D01*
X139463670Y-126543709D01*
X139519137Y-126677621D01*
X139519142Y-126677630D01*
X139579041Y-126755690D01*
X139599466Y-126813365D01*
X139599500Y-126815958D01*
X139599500Y-126901256D01*
X139610613Y-126942730D01*
X139626794Y-127003121D01*
X139679516Y-127094437D01*
X139679518Y-127094439D01*
X139679520Y-127094442D01*
X142405558Y-129820480D01*
X142405560Y-129820481D01*
X142405562Y-129820483D01*
X142496879Y-129873205D01*
X142496877Y-129873205D01*
X142496881Y-129873206D01*
X142496883Y-129873207D01*
X142598744Y-129900500D01*
X142598746Y-129900500D01*
X143201254Y-129900500D01*
X143201256Y-129900500D01*
X143303117Y-129873207D01*
X143303119Y-129873205D01*
X143303121Y-129873205D01*
X143394442Y-129820480D01*
X143437103Y-129777819D01*
X143491619Y-129750041D01*
X143552051Y-129759612D01*
X143577111Y-129777818D01*
X144583607Y-130784314D01*
X145504581Y-131705287D01*
X145532358Y-131759804D01*
X145522787Y-131820236D01*
X145479522Y-131863501D01*
X145434577Y-131874291D01*
X143299891Y-131874291D01*
X143241700Y-131855384D01*
X143229887Y-131845295D01*
X140673219Y-129288627D01*
X138039112Y-126654519D01*
X138039109Y-126654517D01*
X138039107Y-126654515D01*
X137947790Y-126601793D01*
X137947792Y-126601793D01*
X137903315Y-126589876D01*
X137845926Y-126574499D01*
X137845924Y-126574499D01*
X134917464Y-126574499D01*
X134859273Y-126555592D01*
X134823309Y-126506092D01*
X134823309Y-126444906D01*
X134838577Y-126415683D01*
X134909361Y-126322342D01*
X134964877Y-126181564D01*
X134975500Y-126093102D01*
X134975500Y-125996864D01*
X134994407Y-125938673D01*
X135043907Y-125902709D01*
X135074177Y-125897865D01*
X139345183Y-125884132D01*
X139403433Y-125902852D01*
G37*
%TD.AperFunction*%
%TA.AperFunction,Conductor*%
G36*
X140934089Y-125897930D02*
G01*
X140970212Y-125947314D01*
X140970409Y-126008499D01*
X140967620Y-126016094D01*
X140914957Y-126143233D01*
X140914955Y-126143241D01*
X140894318Y-126299999D01*
X140894318Y-126300000D01*
X140914955Y-126456758D01*
X140914957Y-126456766D01*
X140975462Y-126602838D01*
X140975462Y-126602839D01*
X141068844Y-126724537D01*
X141071718Y-126728282D01*
X141071722Y-126728285D01*
X141071723Y-126728286D01*
X141091203Y-126743233D01*
X141197159Y-126824536D01*
X141197160Y-126824536D01*
X141197161Y-126824537D01*
X141274959Y-126856762D01*
X141343238Y-126885044D01*
X141500000Y-126905682D01*
X141506433Y-126906529D01*
X141506205Y-126908256D01*
X141556472Y-126924589D01*
X141568285Y-126934678D01*
X143285437Y-128651830D01*
X143313214Y-128706347D01*
X143303643Y-128766779D01*
X143264938Y-128807567D01*
X143254094Y-128813828D01*
X143254090Y-128813831D01*
X143179519Y-128888402D01*
X143166617Y-128910748D01*
X143150886Y-128931248D01*
X143011633Y-129070503D01*
X142957117Y-129098281D01*
X142941629Y-129099500D01*
X142858372Y-129099500D01*
X142800181Y-129080593D01*
X142788368Y-129070504D01*
X140502630Y-126784766D01*
X140474853Y-126730249D01*
X140481169Y-126676880D01*
X140536330Y-126543709D01*
X140554307Y-126407152D01*
X140555141Y-126401916D01*
X140555500Y-126400000D01*
X140555500Y-125978922D01*
X140574407Y-125920731D01*
X140623907Y-125884767D01*
X140654177Y-125879923D01*
X140875840Y-125879210D01*
X140934089Y-125897930D01*
G37*
%TD.AperFunction*%
%TA.AperFunction,Conductor*%
G36*
X167058691Y-103319407D02*
G01*
X167094655Y-103368907D01*
X167099500Y-103399500D01*
X167099500Y-142944797D01*
X167080593Y-143002988D01*
X167031093Y-143038952D01*
X166969907Y-143038952D01*
X166941172Y-143024051D01*
X166917329Y-143006202D01*
X166782488Y-142955910D01*
X166782483Y-142955909D01*
X166782481Y-142955908D01*
X166782477Y-142955908D01*
X166751249Y-142952550D01*
X166722873Y-142949500D01*
X166722870Y-142949500D01*
X166077133Y-142949500D01*
X166077129Y-142949500D01*
X166077128Y-142949501D01*
X166072486Y-142950000D01*
X166017519Y-142955908D01*
X166017518Y-142955908D01*
X165878442Y-143007779D01*
X165856776Y-143013172D01*
X165843245Y-143014954D01*
X165843234Y-143014957D01*
X165697161Y-143075462D01*
X165697160Y-143075462D01*
X165571723Y-143171713D01*
X165571713Y-143171723D01*
X165475462Y-143297160D01*
X165475462Y-143297161D01*
X165414957Y-143443233D01*
X165414955Y-143443241D01*
X165394318Y-143599999D01*
X165394318Y-143600000D01*
X165414955Y-143756758D01*
X165414957Y-143756766D01*
X165475462Y-143902838D01*
X165475462Y-143902839D01*
X165571713Y-144028276D01*
X165571718Y-144028282D01*
X165571722Y-144028285D01*
X165571723Y-144028286D01*
X165578659Y-144033608D01*
X165697113Y-144124501D01*
X165702307Y-144128486D01*
X165701567Y-144129449D01*
X165723687Y-144149081D01*
X165762267Y-144200618D01*
X165767454Y-144207546D01*
X165767457Y-144207548D01*
X165767458Y-144207549D01*
X165882670Y-144293797D01*
X166017511Y-144344089D01*
X166017512Y-144344089D01*
X166017517Y-144344091D01*
X166077127Y-144350500D01*
X166722872Y-144350499D01*
X166782483Y-144344091D01*
X166917331Y-144293796D01*
X166941172Y-144275948D01*
X166999085Y-144256212D01*
X167057540Y-144274286D01*
X167094208Y-144323266D01*
X167099500Y-144355202D01*
X167099500Y-144594797D01*
X167080593Y-144652988D01*
X167031093Y-144688952D01*
X166969907Y-144688952D01*
X166941172Y-144674051D01*
X166917329Y-144656202D01*
X166782488Y-144605910D01*
X166782483Y-144605909D01*
X166782481Y-144605908D01*
X166782477Y-144605908D01*
X166751249Y-144602550D01*
X166722873Y-144599500D01*
X166722870Y-144599500D01*
X166077133Y-144599500D01*
X166077129Y-144599500D01*
X166077128Y-144599501D01*
X166072486Y-144600000D01*
X166017519Y-144605908D01*
X166017514Y-144605909D01*
X165882670Y-144656202D01*
X165767458Y-144742450D01*
X165767450Y-144742458D01*
X165681202Y-144857670D01*
X165630910Y-144992511D01*
X165630908Y-144992522D01*
X165624500Y-145052129D01*
X165624500Y-145547866D01*
X165624501Y-145547870D01*
X165630908Y-145607480D01*
X165630909Y-145607485D01*
X165681202Y-145742329D01*
X165710304Y-145781204D01*
X165767454Y-145857546D01*
X165767457Y-145857548D01*
X165767458Y-145857549D01*
X165841369Y-145912879D01*
X165876622Y-145962888D01*
X165875748Y-146024067D01*
X165841860Y-146071015D01*
X165773137Y-146123129D01*
X165773130Y-146123136D01*
X165686886Y-146236866D01*
X165686883Y-146236870D01*
X165634521Y-146369651D01*
X165624500Y-146453095D01*
X165624500Y-146971904D01*
X165634521Y-147055348D01*
X165686883Y-147188129D01*
X165686884Y-147188131D01*
X165686885Y-147188132D01*
X165773133Y-147301867D01*
X165886868Y-147388115D01*
X165937727Y-147408171D01*
X165984924Y-147447107D01*
X166000221Y-147506349D01*
X165977775Y-147563269D01*
X165937728Y-147592365D01*
X165887116Y-147612324D01*
X165773490Y-147698490D01*
X165687324Y-147812117D01*
X165687323Y-147812117D01*
X165635011Y-147944772D01*
X165625000Y-148028133D01*
X165625000Y-148037499D01*
X165625001Y-148037500D01*
X166551000Y-148037500D01*
X166609191Y-148056407D01*
X166645155Y-148105907D01*
X166650000Y-148136500D01*
X166650000Y-149024999D01*
X166650001Y-149025000D01*
X166696860Y-149025000D01*
X166696866Y-149024999D01*
X166780227Y-149014988D01*
X166912882Y-148962676D01*
X166912887Y-148962673D01*
X166940680Y-148941597D01*
X166998471Y-148921501D01*
X167057037Y-148939211D01*
X167094008Y-148987964D01*
X167099500Y-149020480D01*
X167099500Y-150000500D01*
X167080593Y-150058691D01*
X167031093Y-150094655D01*
X167000500Y-150099500D01*
X124199500Y-150099500D01*
X124141309Y-150080593D01*
X124105345Y-150031093D01*
X124100500Y-150000500D01*
X124100500Y-146822824D01*
X135374999Y-146822824D01*
X135381401Y-146882370D01*
X135381403Y-146882381D01*
X135431646Y-147017088D01*
X135431647Y-147017090D01*
X135517807Y-147132184D01*
X135517815Y-147132192D01*
X135632909Y-147218352D01*
X135632911Y-147218353D01*
X135767621Y-147268597D01*
X135767625Y-147268598D01*
X135824999Y-147274766D01*
X135825000Y-147274765D01*
X135825000Y-146750001D01*
X136325000Y-146750001D01*
X136325000Y-147274766D01*
X136382374Y-147268598D01*
X136382378Y-147268597D01*
X136517088Y-147218353D01*
X136517090Y-147218352D01*
X136632184Y-147132192D01*
X136632192Y-147132184D01*
X136718352Y-147017090D01*
X136718353Y-147017088D01*
X136768596Y-146882381D01*
X136768598Y-146882370D01*
X136775000Y-146822824D01*
X136775000Y-146750001D01*
X136774999Y-146750000D01*
X136325001Y-146750000D01*
X136325000Y-146750001D01*
X135825000Y-146750001D01*
X135824999Y-146750000D01*
X135375001Y-146750000D01*
X135375000Y-146750001D01*
X135375000Y-146822824D01*
X135374999Y-146822824D01*
X124100500Y-146822824D01*
X124100500Y-145222824D01*
X135374999Y-145222824D01*
X135381401Y-145282370D01*
X135381403Y-145282381D01*
X135431646Y-145417088D01*
X135431647Y-145417090D01*
X135517807Y-145532184D01*
X135517812Y-145532189D01*
X135636108Y-145620747D01*
X135671360Y-145670756D01*
X135670486Y-145731935D01*
X135636108Y-145779253D01*
X135517812Y-145867810D01*
X135517807Y-145867815D01*
X135431647Y-145982909D01*
X135431646Y-145982911D01*
X135381403Y-146117618D01*
X135381401Y-146117629D01*
X135375000Y-146177175D01*
X135375000Y-146249999D01*
X135375001Y-146250000D01*
X135824999Y-146250000D01*
X135825000Y-146249999D01*
X135825000Y-145150001D01*
X136325000Y-145150001D01*
X136325000Y-146249999D01*
X136325001Y-146250000D01*
X136774999Y-146250000D01*
X136775000Y-146249999D01*
X136775000Y-146177175D01*
X136768598Y-146117629D01*
X136768596Y-146117618D01*
X136718353Y-145982911D01*
X136718352Y-145982909D01*
X136632192Y-145867815D01*
X136632184Y-145867807D01*
X136513892Y-145779253D01*
X136478639Y-145729244D01*
X136479513Y-145668065D01*
X136513892Y-145620747D01*
X136632184Y-145532192D01*
X136632192Y-145532184D01*
X136718352Y-145417090D01*
X136718353Y-145417088D01*
X136768596Y-145282381D01*
X136768598Y-145282370D01*
X136775000Y-145222824D01*
X136775000Y-145150001D01*
X136774999Y-145150000D01*
X136325001Y-145150000D01*
X136325000Y-145150001D01*
X135825000Y-145150001D01*
X135824999Y-145150000D01*
X135375001Y-145150000D01*
X135375000Y-145150001D01*
X135375000Y-145222824D01*
X135374999Y-145222824D01*
X124100500Y-145222824D01*
X124100500Y-143522824D01*
X135374999Y-143522824D01*
X135381401Y-143582370D01*
X135381403Y-143582381D01*
X135431646Y-143717088D01*
X135431647Y-143717090D01*
X135517807Y-143832184D01*
X135517815Y-143832192D01*
X135632909Y-143918352D01*
X135737177Y-143957242D01*
X135785091Y-143995292D01*
X135801489Y-144054239D01*
X135780107Y-144111567D01*
X135737177Y-144142758D01*
X135632909Y-144181647D01*
X135517815Y-144267807D01*
X135517807Y-144267815D01*
X135431647Y-144382909D01*
X135431646Y-144382911D01*
X135381403Y-144517618D01*
X135381401Y-144517629D01*
X135375000Y-144577175D01*
X135375000Y-144649999D01*
X135375001Y-144650000D01*
X136774999Y-144650000D01*
X136775000Y-144649999D01*
X136775000Y-144577175D01*
X136768598Y-144517629D01*
X136768596Y-144517618D01*
X136718353Y-144382911D01*
X136718352Y-144382909D01*
X136632192Y-144267815D01*
X136632184Y-144267807D01*
X136517090Y-144181647D01*
X136517088Y-144181646D01*
X136412823Y-144142758D01*
X136364908Y-144104708D01*
X136348510Y-144045761D01*
X136369891Y-143988433D01*
X136412823Y-143957242D01*
X136517088Y-143918353D01*
X136517090Y-143918352D01*
X136632184Y-143832192D01*
X136632192Y-143832184D01*
X136718352Y-143717090D01*
X136718353Y-143717088D01*
X136768596Y-143582381D01*
X136768598Y-143582370D01*
X136775000Y-143522824D01*
X136775000Y-143450001D01*
X136774999Y-143450000D01*
X135375001Y-143450000D01*
X135375000Y-143450001D01*
X135375000Y-143522824D01*
X135374999Y-143522824D01*
X124100500Y-143522824D01*
X124100500Y-142877175D01*
X135375000Y-142877175D01*
X135375000Y-142949999D01*
X135375001Y-142950000D01*
X135824999Y-142950000D01*
X135825000Y-142949999D01*
X136325000Y-142949999D01*
X136325001Y-142950000D01*
X136774999Y-142950000D01*
X136775000Y-142949999D01*
X136775000Y-142877175D01*
X136768598Y-142817629D01*
X136768596Y-142817618D01*
X136718353Y-142682911D01*
X136718352Y-142682909D01*
X136632192Y-142567815D01*
X136632184Y-142567807D01*
X136517090Y-142481647D01*
X136517088Y-142481646D01*
X136382375Y-142431401D01*
X136325000Y-142425233D01*
X136325000Y-142949999D01*
X135825000Y-142949999D01*
X135825000Y-142425233D01*
X135767624Y-142431401D01*
X135632911Y-142481646D01*
X135632909Y-142481647D01*
X135517815Y-142567807D01*
X135517807Y-142567815D01*
X135431647Y-142682909D01*
X135431646Y-142682911D01*
X135381403Y-142817618D01*
X135381401Y-142817629D01*
X135375000Y-142877175D01*
X124100500Y-142877175D01*
X124100500Y-140699996D01*
X126194659Y-140699996D01*
X126194659Y-140700003D01*
X126213974Y-140896126D01*
X126213975Y-140896129D01*
X126229999Y-140948952D01*
X126262443Y-141055907D01*
X126271187Y-141084730D01*
X126271188Y-141084732D01*
X126342218Y-141217618D01*
X126364090Y-141258538D01*
X126364092Y-141258540D01*
X126364093Y-141258542D01*
X126489112Y-141410878D01*
X126489121Y-141410887D01*
X126639266Y-141534108D01*
X126641462Y-141535910D01*
X126815273Y-141628814D01*
X127003868Y-141686024D01*
X127003870Y-141686024D01*
X127003873Y-141686025D01*
X127199997Y-141705341D01*
X127200000Y-141705341D01*
X127200003Y-141705341D01*
X127396126Y-141686025D01*
X127396127Y-141686024D01*
X127396132Y-141686024D01*
X127584727Y-141628814D01*
X127758538Y-141535910D01*
X127910883Y-141410883D01*
X128035910Y-141258538D01*
X128128814Y-141084727D01*
X128186024Y-140896132D01*
X128187027Y-140885956D01*
X128205341Y-140700003D01*
X128205341Y-140699996D01*
X128186025Y-140503873D01*
X128186024Y-140503870D01*
X128186024Y-140503868D01*
X128128814Y-140315273D01*
X128035910Y-140141462D01*
X128035906Y-140141457D01*
X127910887Y-139989121D01*
X127910878Y-139989112D01*
X127758542Y-139864093D01*
X127758540Y-139864092D01*
X127758538Y-139864090D01*
X127717618Y-139842218D01*
X127584732Y-139771188D01*
X127584730Y-139771187D01*
X127396129Y-139713975D01*
X127396126Y-139713974D01*
X127200003Y-139694659D01*
X127199997Y-139694659D01*
X127003873Y-139713974D01*
X127003870Y-139713975D01*
X126815269Y-139771187D01*
X126815267Y-139771188D01*
X126641467Y-139864087D01*
X126641457Y-139864093D01*
X126489121Y-139989112D01*
X126489112Y-139989121D01*
X126364093Y-140141457D01*
X126364087Y-140141467D01*
X126271188Y-140315267D01*
X126271187Y-140315269D01*
X126213975Y-140503870D01*
X126213974Y-140503873D01*
X126194659Y-140699996D01*
X124100500Y-140699996D01*
X124100500Y-129699996D01*
X126194659Y-129699996D01*
X126194659Y-129700003D01*
X126213974Y-129896126D01*
X126213975Y-129896129D01*
X126213976Y-129896132D01*
X126269606Y-130079520D01*
X126271187Y-130084730D01*
X126271188Y-130084732D01*
X126306075Y-130150000D01*
X126364090Y-130258538D01*
X126364092Y-130258540D01*
X126364093Y-130258542D01*
X126489112Y-130410878D01*
X126489121Y-130410887D01*
X126585807Y-130490235D01*
X126641462Y-130535910D01*
X126815273Y-130628814D01*
X127003868Y-130686024D01*
X127003870Y-130686024D01*
X127003873Y-130686025D01*
X127199997Y-130705341D01*
X127200000Y-130705341D01*
X127200003Y-130705341D01*
X127396126Y-130686025D01*
X127396127Y-130686024D01*
X127396132Y-130686024D01*
X127584727Y-130628814D01*
X127758538Y-130535910D01*
X127910883Y-130410883D01*
X128035910Y-130258538D01*
X128128814Y-130084727D01*
X128186024Y-129896132D01*
X128186183Y-129894524D01*
X128205341Y-129700003D01*
X128205341Y-129699996D01*
X128186025Y-129503873D01*
X128186024Y-129503870D01*
X128186024Y-129503868D01*
X128128814Y-129315273D01*
X128035910Y-129141462D01*
X128035906Y-129141457D01*
X127910887Y-128989121D01*
X127910878Y-128989112D01*
X127758542Y-128864093D01*
X127758540Y-128864092D01*
X127758538Y-128864090D01*
X127664516Y-128813834D01*
X127584732Y-128771188D01*
X127584730Y-128771187D01*
X127517154Y-128750688D01*
X127396132Y-128713976D01*
X127396129Y-128713975D01*
X127396126Y-128713974D01*
X127200003Y-128694659D01*
X127199997Y-128694659D01*
X127003873Y-128713974D01*
X127003870Y-128713975D01*
X126815269Y-128771187D01*
X126815267Y-128771188D01*
X126641467Y-128864087D01*
X126641457Y-128864093D01*
X126489121Y-128989112D01*
X126489112Y-128989121D01*
X126364093Y-129141457D01*
X126364087Y-129141467D01*
X126271188Y-129315267D01*
X126271187Y-129315269D01*
X126213975Y-129503870D01*
X126213974Y-129503873D01*
X126194659Y-129699996D01*
X124100500Y-129699996D01*
X124100500Y-124852129D01*
X126224500Y-124852129D01*
X126224500Y-125347866D01*
X126224501Y-125347870D01*
X126230908Y-125407480D01*
X126230909Y-125407485D01*
X126281202Y-125542329D01*
X126357618Y-125644407D01*
X126367454Y-125657546D01*
X126367457Y-125657548D01*
X126367458Y-125657549D01*
X126459829Y-125726698D01*
X126495082Y-125776706D01*
X126499500Y-125805951D01*
X126499500Y-125834108D01*
X126499500Y-125965892D01*
X126529579Y-126078151D01*
X126533609Y-126093190D01*
X126599496Y-126207309D01*
X126599498Y-126207311D01*
X126599500Y-126207314D01*
X127492686Y-127100500D01*
X127492688Y-127100501D01*
X127492690Y-127100503D01*
X127606810Y-127166390D01*
X127606808Y-127166390D01*
X127606812Y-127166391D01*
X127606814Y-127166392D01*
X127734108Y-127200500D01*
X127865893Y-127200500D01*
X131432228Y-127200500D01*
X131490419Y-127219407D01*
X131492494Y-127220957D01*
X131497157Y-127224535D01*
X131497161Y-127224537D01*
X131630027Y-127279572D01*
X131643238Y-127285044D01*
X131739811Y-127297758D01*
X131799999Y-127305682D01*
X131800000Y-127305682D01*
X131800001Y-127305682D01*
X131831352Y-127301554D01*
X131956762Y-127285044D01*
X132102841Y-127224536D01*
X132228282Y-127128282D01*
X132324536Y-127002841D01*
X132385044Y-126856762D01*
X132405682Y-126700000D01*
X132404871Y-126693843D01*
X132392891Y-126602841D01*
X132385044Y-126543238D01*
X132385042Y-126543233D01*
X132324537Y-126397161D01*
X132324537Y-126397160D01*
X132228286Y-126271723D01*
X132228285Y-126271722D01*
X132228282Y-126271718D01*
X132228277Y-126271714D01*
X132228276Y-126271713D01*
X132128624Y-126195248D01*
X132102841Y-126175464D01*
X132102840Y-126175463D01*
X132102838Y-126175462D01*
X131956766Y-126114957D01*
X131956758Y-126114955D01*
X131800001Y-126094318D01*
X131799999Y-126094318D01*
X131643241Y-126114955D01*
X131643233Y-126114957D01*
X131497161Y-126175462D01*
X131497157Y-126175464D01*
X131492494Y-126179043D01*
X131434818Y-126199466D01*
X131432228Y-126199500D01*
X128048322Y-126199500D01*
X127990131Y-126180593D01*
X127978318Y-126170504D01*
X127617723Y-125809909D01*
X127589946Y-125755392D01*
X127599517Y-125694960D01*
X127628399Y-125660651D01*
X127632545Y-125657547D01*
X127632546Y-125657546D01*
X127718796Y-125542331D01*
X127769091Y-125407483D01*
X127775500Y-125347873D01*
X127775499Y-124852128D01*
X127769091Y-124792517D01*
X127728121Y-124682670D01*
X127718797Y-124657670D01*
X127632549Y-124542458D01*
X127632548Y-124542457D01*
X127632546Y-124542454D01*
X127632541Y-124542450D01*
X127517329Y-124456202D01*
X127382488Y-124405910D01*
X127382483Y-124405909D01*
X127382481Y-124405908D01*
X127382477Y-124405908D01*
X127351249Y-124402550D01*
X127322873Y-124399500D01*
X127322870Y-124399500D01*
X126677133Y-124399500D01*
X126677129Y-124399500D01*
X126677128Y-124399501D01*
X126669949Y-124400272D01*
X126617519Y-124405908D01*
X126617514Y-124405909D01*
X126482670Y-124456202D01*
X126367458Y-124542450D01*
X126367450Y-124542458D01*
X126281202Y-124657670D01*
X126230910Y-124792511D01*
X126230908Y-124792522D01*
X126224500Y-124852129D01*
X124100500Y-124852129D01*
X124100500Y-116534108D01*
X124799500Y-116534108D01*
X124799500Y-122634108D01*
X124799500Y-122765892D01*
X124813334Y-122817522D01*
X124833609Y-122893190D01*
X124899496Y-123007309D01*
X124899497Y-123007310D01*
X124899498Y-123007311D01*
X124899500Y-123007314D01*
X125674500Y-123782314D01*
X125674499Y-123782314D01*
X125767685Y-123875499D01*
X125767690Y-123875503D01*
X125881810Y-123941390D01*
X125881808Y-123941390D01*
X125881812Y-123941391D01*
X125881814Y-123941392D01*
X126009108Y-123975500D01*
X126294401Y-123975500D01*
X126352592Y-123994407D01*
X126364405Y-124004496D01*
X126367451Y-124007542D01*
X126367454Y-124007546D01*
X126367457Y-124007548D01*
X126367458Y-124007549D01*
X126482670Y-124093797D01*
X126617511Y-124144089D01*
X126617512Y-124144089D01*
X126617517Y-124144091D01*
X126677127Y-124150500D01*
X127322872Y-124150499D01*
X127382483Y-124144091D01*
X127467073Y-124112541D01*
X127517329Y-124093797D01*
X127517329Y-124093796D01*
X127517331Y-124093796D01*
X127632546Y-124007546D01*
X127632551Y-124007538D01*
X127635595Y-124004496D01*
X127690112Y-123976719D01*
X127705599Y-123975500D01*
X128075194Y-123975500D01*
X128133385Y-123994407D01*
X128154446Y-124015170D01*
X128167454Y-124032546D01*
X128167457Y-124032548D01*
X128167458Y-124032549D01*
X128282670Y-124118797D01*
X128417511Y-124169089D01*
X128417512Y-124169089D01*
X128417517Y-124169091D01*
X128477127Y-124175500D01*
X129122872Y-124175499D01*
X129182483Y-124169091D01*
X129261276Y-124139703D01*
X129317329Y-124118797D01*
X129317329Y-124118796D01*
X129317331Y-124118796D01*
X129432546Y-124032546D01*
X129518796Y-123917331D01*
X129527312Y-123894500D01*
X129569089Y-123782488D01*
X129569088Y-123782488D01*
X129569091Y-123782483D01*
X129575500Y-123722873D01*
X129575499Y-123227128D01*
X129569091Y-123167517D01*
X129535380Y-123077133D01*
X129518797Y-123032670D01*
X129432549Y-122917458D01*
X129432548Y-122917457D01*
X129432546Y-122917454D01*
X129432541Y-122917450D01*
X129317329Y-122831202D01*
X129182488Y-122780910D01*
X129182483Y-122780909D01*
X129182481Y-122780908D01*
X129182477Y-122780908D01*
X129147316Y-122777128D01*
X129122873Y-122774500D01*
X129122870Y-122774500D01*
X128477133Y-122774500D01*
X128477129Y-122774500D01*
X128477128Y-122774501D01*
X128469949Y-122775272D01*
X128417519Y-122780908D01*
X128417514Y-122780909D01*
X128282670Y-122831202D01*
X128167458Y-122917450D01*
X128167450Y-122917458D01*
X128154447Y-122934829D01*
X128104438Y-122970082D01*
X128075194Y-122974500D01*
X127743521Y-122974500D01*
X127685330Y-122955593D01*
X127664268Y-122934829D01*
X127662042Y-122931856D01*
X127632546Y-122892454D01*
X127632541Y-122892450D01*
X127517329Y-122806202D01*
X127382488Y-122755910D01*
X127382483Y-122755909D01*
X127382481Y-122755908D01*
X127382477Y-122755908D01*
X127351249Y-122752550D01*
X127322873Y-122749500D01*
X127322870Y-122749500D01*
X126677133Y-122749500D01*
X126677129Y-122749500D01*
X126677128Y-122749501D01*
X126669949Y-122750272D01*
X126617519Y-122755908D01*
X126617514Y-122755909D01*
X126482670Y-122806202D01*
X126367458Y-122892450D01*
X126367449Y-122892459D01*
X126364345Y-122896606D01*
X126314335Y-122931856D01*
X126253156Y-122930979D01*
X126215091Y-122907277D01*
X125829496Y-122521682D01*
X125801719Y-122467165D01*
X125800500Y-122451678D01*
X125800500Y-122223459D01*
X125819407Y-122165268D01*
X125868907Y-122129304D01*
X125930093Y-122129304D01*
X125934064Y-122130689D01*
X125992517Y-122152491D01*
X126052127Y-122158900D01*
X129633832Y-122158899D01*
X129692023Y-122177806D01*
X129727987Y-122227306D01*
X129732832Y-122257899D01*
X129732832Y-122367440D01*
X129732832Y-122499224D01*
X129754733Y-122580961D01*
X129766941Y-122626522D01*
X129832828Y-122740641D01*
X129832832Y-122740646D01*
X130199499Y-123107314D01*
X130292685Y-123200499D01*
X130292690Y-123200503D01*
X130406810Y-123266390D01*
X130406808Y-123266390D01*
X130406812Y-123266391D01*
X130406814Y-123266392D01*
X130534108Y-123300500D01*
X130581279Y-123300500D01*
X130639470Y-123319407D01*
X130660162Y-123339680D01*
X130723247Y-123422870D01*
X130724922Y-123425078D01*
X130840025Y-123512364D01*
X130840026Y-123512364D01*
X130840027Y-123512365D01*
X130907217Y-123538861D01*
X130974410Y-123565359D01*
X131058856Y-123575500D01*
X131413770Y-123575500D01*
X131471961Y-123594407D01*
X131507925Y-123643907D01*
X131511923Y-123661579D01*
X131514954Y-123684611D01*
X131575461Y-123830687D01*
X131575461Y-123830688D01*
X131660407Y-123941392D01*
X131671717Y-123956131D01*
X131797158Y-124052385D01*
X131797159Y-124052385D01*
X131797160Y-124052386D01*
X131942387Y-124112541D01*
X131943237Y-124112893D01*
X132060808Y-124128371D01*
X132099998Y-124133531D01*
X132099999Y-124133531D01*
X132100000Y-124133531D01*
X132131351Y-124129403D01*
X132256761Y-124112893D01*
X132257611Y-124112540D01*
X132258265Y-124112489D01*
X132263029Y-124111213D01*
X132263265Y-124112095D01*
X132318606Y-124107737D01*
X132370776Y-124139703D01*
X132394194Y-124196230D01*
X132394500Y-124204003D01*
X132394500Y-124525500D01*
X132375593Y-124583691D01*
X132326093Y-124619655D01*
X132295500Y-124624500D01*
X129524806Y-124624500D01*
X129466615Y-124605593D01*
X129445553Y-124584829D01*
X129432549Y-124567458D01*
X129432548Y-124567457D01*
X129432546Y-124567454D01*
X129432541Y-124567450D01*
X129317329Y-124481202D01*
X129182488Y-124430910D01*
X129182483Y-124430909D01*
X129182481Y-124430908D01*
X129182477Y-124430908D01*
X129151249Y-124427550D01*
X129122873Y-124424500D01*
X129122870Y-124424500D01*
X128477133Y-124424500D01*
X128477129Y-124424500D01*
X128477128Y-124424501D01*
X128469949Y-124425272D01*
X128417519Y-124430908D01*
X128417514Y-124430909D01*
X128282670Y-124481202D01*
X128167458Y-124567450D01*
X128167450Y-124567458D01*
X128081202Y-124682670D01*
X128030910Y-124817511D01*
X128030908Y-124817522D01*
X128024500Y-124877129D01*
X128024500Y-125372866D01*
X128024501Y-125372870D01*
X128030908Y-125432480D01*
X128030909Y-125432485D01*
X128081202Y-125567329D01*
X128148741Y-125657549D01*
X128167454Y-125682546D01*
X128167457Y-125682548D01*
X128167458Y-125682549D01*
X128282670Y-125768797D01*
X128417511Y-125819089D01*
X128417512Y-125819089D01*
X128417517Y-125819091D01*
X128477127Y-125825500D01*
X129122872Y-125825499D01*
X129182483Y-125819091D01*
X129284793Y-125780932D01*
X129317329Y-125768797D01*
X129317329Y-125768796D01*
X129317331Y-125768796D01*
X129432546Y-125682546D01*
X129445553Y-125665170D01*
X129495562Y-125629918D01*
X129524806Y-125625500D01*
X132364006Y-125625500D01*
X132422197Y-125644407D01*
X132449302Y-125674245D01*
X132481135Y-125728275D01*
X132527059Y-125780931D01*
X132571930Y-125822967D01*
X132571932Y-125822968D01*
X132577736Y-125827025D01*
X132576661Y-125828562D01*
X132613520Y-125865113D01*
X132624500Y-125910428D01*
X132624500Y-126093106D01*
X132635123Y-126181565D01*
X132690637Y-126322339D01*
X132690638Y-126322341D01*
X132690639Y-126322342D01*
X132782078Y-126442922D01*
X132902658Y-126534361D01*
X132902659Y-126534361D01*
X132902660Y-126534362D01*
X132956496Y-126555592D01*
X133043436Y-126589877D01*
X133131898Y-126600500D01*
X133545500Y-126600500D01*
X133603691Y-126619407D01*
X133639655Y-126668907D01*
X133644500Y-126699500D01*
X133644500Y-126800004D01*
X133645802Y-126828179D01*
X133645804Y-126828193D01*
X133648765Y-126838599D01*
X133651697Y-126852768D01*
X133663670Y-126943709D01*
X133719137Y-127077621D01*
X133719139Y-127077625D01*
X133766796Y-127139732D01*
X133787220Y-127197408D01*
X133769843Y-127256074D01*
X133766796Y-127260268D01*
X133719139Y-127322374D01*
X133719137Y-127322378D01*
X133663670Y-127456290D01*
X133645691Y-127592843D01*
X133644857Y-127598087D01*
X133644500Y-127599994D01*
X133644500Y-127700500D01*
X133625593Y-127758691D01*
X133576093Y-127794655D01*
X133545500Y-127799500D01*
X133131893Y-127799500D01*
X133043434Y-127810123D01*
X132902660Y-127865637D01*
X132902656Y-127865640D01*
X132782081Y-127957075D01*
X132782075Y-127957081D01*
X132690640Y-128077656D01*
X132690637Y-128077661D01*
X132637945Y-128211277D01*
X132615858Y-128244955D01*
X132608033Y-128252780D01*
X132487714Y-128418386D01*
X132487712Y-128418390D01*
X132394780Y-128600780D01*
X132331521Y-128795470D01*
X132299500Y-128997644D01*
X132299500Y-131651745D01*
X132331521Y-131853920D01*
X132362023Y-131947794D01*
X132362022Y-131947794D01*
X132394778Y-132048604D01*
X132394784Y-132048617D01*
X132407972Y-132074499D01*
X132407972Y-132074501D01*
X132407973Y-132074501D01*
X132487713Y-132231001D01*
X132608034Y-132396609D01*
X133903391Y-133691966D01*
X133996611Y-133759694D01*
X134069000Y-133812288D01*
X134110844Y-133833608D01*
X134134011Y-133845412D01*
X134251391Y-133905220D01*
X134348733Y-133936848D01*
X134446075Y-133968477D01*
X134446078Y-133968477D01*
X134446080Y-133968478D01*
X134446078Y-133968478D01*
X134648255Y-134000500D01*
X134648258Y-134000500D01*
X134852961Y-134000500D01*
X135050501Y-134000500D01*
X135108692Y-134019407D01*
X135144656Y-134068907D01*
X135149501Y-134099500D01*
X135149501Y-134494863D01*
X135152414Y-134519990D01*
X135167933Y-134555136D01*
X135197794Y-134622765D01*
X135277235Y-134702206D01*
X135380009Y-134747585D01*
X135405135Y-134750500D01*
X138994864Y-134750499D01*
X139019991Y-134747585D01*
X139122765Y-134702206D01*
X139202206Y-134622765D01*
X139247585Y-134519991D01*
X139250500Y-134494865D01*
X139250500Y-134349500D01*
X139269407Y-134291309D01*
X139318907Y-134255345D01*
X139349500Y-134250500D01*
X140047509Y-134250500D01*
X140105700Y-134269407D01*
X140139606Y-134313181D01*
X140187634Y-134434972D01*
X140187635Y-134434974D01*
X140187636Y-134434975D01*
X140274922Y-134550078D01*
X140390025Y-134637364D01*
X140390026Y-134637364D01*
X140390027Y-134637365D01*
X140392414Y-134638707D01*
X140393843Y-134640258D01*
X140395421Y-134641455D01*
X140395206Y-134641738D01*
X140433868Y-134683709D01*
X140440954Y-134744483D01*
X140410965Y-134797815D01*
X140392414Y-134811293D01*
X140390027Y-134812634D01*
X140274922Y-134899922D01*
X140187634Y-135015027D01*
X140134641Y-135149408D01*
X140124500Y-135233851D01*
X140124500Y-135766148D01*
X140134641Y-135850591D01*
X140187634Y-135984972D01*
X140187637Y-135984977D01*
X140273300Y-136097939D01*
X140293396Y-136155730D01*
X140275685Y-136214296D01*
X140264421Y-136227763D01*
X139333836Y-137158349D01*
X139279319Y-137186126D01*
X139218887Y-137176555D01*
X139175622Y-137133290D01*
X139170551Y-137121505D01*
X139085136Y-136881170D01*
X139081939Y-136875001D01*
X138956082Y-136632106D01*
X138939849Y-136609109D01*
X138794312Y-136402931D01*
X138602845Y-136197919D01*
X138602844Y-136197918D01*
X138385255Y-136020896D01*
X138385252Y-136020894D01*
X138385246Y-136020889D01*
X138195796Y-135905682D01*
X138145572Y-135875140D01*
X138145560Y-135875133D01*
X137888284Y-135763383D01*
X137888276Y-135763380D01*
X137888275Y-135763380D01*
X137721395Y-135716622D01*
X137618162Y-135687697D01*
X137513830Y-135673357D01*
X137340258Y-135649500D01*
X137059742Y-135649500D01*
X136920790Y-135668598D01*
X136781837Y-135687697D01*
X136511728Y-135763379D01*
X136511715Y-135763383D01*
X136254439Y-135875133D01*
X136254427Y-135875140D01*
X136014760Y-136020885D01*
X136014744Y-136020896D01*
X135797155Y-136197918D01*
X135605687Y-136402932D01*
X135443917Y-136632106D01*
X135314866Y-136881164D01*
X135220923Y-137145493D01*
X135163853Y-137420132D01*
X135163851Y-137420141D01*
X135144709Y-137699996D01*
X135144709Y-137700003D01*
X135163851Y-137979858D01*
X135163853Y-137979867D01*
X135220923Y-138254506D01*
X135228179Y-138274922D01*
X135290401Y-138449999D01*
X135314866Y-138518835D01*
X135442604Y-138765359D01*
X135443919Y-138767896D01*
X135605688Y-138997069D01*
X135731782Y-139132083D01*
X135797155Y-139202081D01*
X135967776Y-139340892D01*
X136014754Y-139379111D01*
X136184797Y-139482516D01*
X136254427Y-139524859D01*
X136254439Y-139524866D01*
X136511715Y-139636616D01*
X136511717Y-139636616D01*
X136511725Y-139636620D01*
X136781839Y-139712303D01*
X137059742Y-139750500D01*
X137059748Y-139750500D01*
X137340252Y-139750500D01*
X137340258Y-139750500D01*
X137618161Y-139712303D01*
X137888275Y-139636620D01*
X137945136Y-139611922D01*
X138145560Y-139524866D01*
X138145563Y-139524863D01*
X138145568Y-139524862D01*
X138385246Y-139379111D01*
X138602845Y-139202081D01*
X138794312Y-138997069D01*
X138956081Y-138767896D01*
X139085136Y-138518830D01*
X139174868Y-138266345D01*
X139212171Y-138217848D01*
X139268152Y-138200500D01*
X139565890Y-138200500D01*
X139565892Y-138200500D01*
X139693186Y-138166392D01*
X139693188Y-138166390D01*
X139693190Y-138166390D01*
X139807309Y-138100503D01*
X139807309Y-138100502D01*
X139807314Y-138100500D01*
X141300500Y-136607314D01*
X141300503Y-136607309D01*
X141366390Y-136493190D01*
X141366390Y-136493188D01*
X141366392Y-136493186D01*
X141400500Y-136365892D01*
X141400500Y-136243721D01*
X141419407Y-136185530D01*
X141439680Y-136164838D01*
X141459145Y-136150077D01*
X141525078Y-136100078D01*
X141612364Y-135984975D01*
X141612367Y-135984966D01*
X141613699Y-135982598D01*
X141615247Y-135981170D01*
X141616455Y-135979579D01*
X141616740Y-135979795D01*
X141658695Y-135941137D01*
X141719468Y-135934042D01*
X141772804Y-135964024D01*
X141786290Y-135982582D01*
X141787632Y-135984968D01*
X141787634Y-135984971D01*
X141787636Y-135984975D01*
X141874922Y-136100078D01*
X141990025Y-136187364D01*
X141990026Y-136187364D01*
X141990027Y-136187365D01*
X142016788Y-136197918D01*
X142124410Y-136240359D01*
X142208856Y-136250500D01*
X142208858Y-136250500D01*
X142791142Y-136250500D01*
X142791144Y-136250500D01*
X142875590Y-136240359D01*
X142964181Y-136205423D01*
X143025251Y-136201664D01*
X143076867Y-136234519D01*
X143099313Y-136291438D01*
X143099500Y-136297520D01*
X143099500Y-137893099D01*
X143080593Y-137951290D01*
X143070504Y-137963103D01*
X142104516Y-138929091D01*
X142051795Y-139020406D01*
X142051793Y-139020410D01*
X142051793Y-139020412D01*
X142040207Y-139063652D01*
X142032294Y-139093185D01*
X142024500Y-139122272D01*
X142024500Y-141924992D01*
X142005593Y-141983183D01*
X141984288Y-142004648D01*
X141952849Y-142027850D01*
X141872207Y-142137116D01*
X141827355Y-142265296D01*
X141827353Y-142265305D01*
X141824500Y-142295725D01*
X141824500Y-142600500D01*
X141805593Y-142658691D01*
X141756093Y-142694655D01*
X141725500Y-142699500D01*
X138430951Y-142699500D01*
X138372760Y-142680593D01*
X138351698Y-142659829D01*
X138282549Y-142567458D01*
X138282548Y-142567457D01*
X138282546Y-142567454D01*
X138282541Y-142567450D01*
X138167329Y-142481202D01*
X138032488Y-142430910D01*
X138032483Y-142430909D01*
X138032481Y-142430908D01*
X138032477Y-142430908D01*
X138001249Y-142427550D01*
X137972873Y-142424500D01*
X137972870Y-142424500D01*
X137477133Y-142424500D01*
X137477129Y-142424500D01*
X137477128Y-142424501D01*
X137470319Y-142425233D01*
X137417519Y-142430908D01*
X137417514Y-142430909D01*
X137282670Y-142481202D01*
X137167458Y-142567450D01*
X137167450Y-142567458D01*
X137081202Y-142682670D01*
X137030910Y-142817511D01*
X137030908Y-142817522D01*
X137024500Y-142877129D01*
X137024500Y-143522866D01*
X137024501Y-143522870D01*
X137030908Y-143582480D01*
X137030909Y-143582485D01*
X137081202Y-143717329D01*
X137167183Y-143832184D01*
X137167454Y-143832546D01*
X137167457Y-143832548D01*
X137167458Y-143832549D01*
X137282670Y-143918797D01*
X137385747Y-143957242D01*
X137433662Y-143995292D01*
X137450060Y-144054239D01*
X137428678Y-144111567D01*
X137385747Y-144142758D01*
X137282670Y-144181202D01*
X137167458Y-144267450D01*
X137167450Y-144267458D01*
X137081202Y-144382670D01*
X137030910Y-144517511D01*
X137030908Y-144517522D01*
X137024500Y-144577129D01*
X137024500Y-145222866D01*
X137024500Y-145222869D01*
X137024501Y-145222872D01*
X137026044Y-145237229D01*
X137030908Y-145282480D01*
X137030909Y-145282485D01*
X137081202Y-145417329D01*
X137167189Y-145532192D01*
X137167454Y-145532546D01*
X137167457Y-145532548D01*
X137167458Y-145532549D01*
X137285274Y-145620747D01*
X137320527Y-145670756D01*
X137319653Y-145731935D01*
X137285274Y-145779253D01*
X137167458Y-145867450D01*
X137167450Y-145867458D01*
X137081202Y-145982670D01*
X137030910Y-146117511D01*
X137030908Y-146117522D01*
X137024500Y-146177129D01*
X137024500Y-146822866D01*
X137024501Y-146822870D01*
X137030908Y-146882480D01*
X137030909Y-146882485D01*
X137081202Y-147017329D01*
X137152822Y-147113000D01*
X137167454Y-147132546D01*
X137167457Y-147132548D01*
X137167458Y-147132549D01*
X137282670Y-147218797D01*
X137417511Y-147269089D01*
X137417512Y-147269089D01*
X137417517Y-147269091D01*
X137477127Y-147275500D01*
X137972872Y-147275499D01*
X138032483Y-147269091D01*
X138132179Y-147231907D01*
X138167329Y-147218797D01*
X138167329Y-147218796D01*
X138167331Y-147218796D01*
X138282546Y-147132546D01*
X138368796Y-147017331D01*
X138419091Y-146882483D01*
X138425500Y-146822873D01*
X138425500Y-146500001D01*
X139775000Y-146500001D01*
X139775000Y-147393064D01*
X139785613Y-147481443D01*
X139841080Y-147622095D01*
X139932435Y-147742564D01*
X140052904Y-147833919D01*
X140193556Y-147889386D01*
X140281935Y-147899999D01*
X140281942Y-147900000D01*
X140324999Y-147900000D01*
X140325000Y-147899999D01*
X140325000Y-146500001D01*
X140825000Y-146500001D01*
X140825000Y-147899999D01*
X140825001Y-147900000D01*
X140868058Y-147900000D01*
X140868064Y-147899999D01*
X140956443Y-147889386D01*
X141097095Y-147833919D01*
X141217564Y-147742564D01*
X141308919Y-147622095D01*
X141364386Y-147481443D01*
X141374999Y-147393064D01*
X141375000Y-147393058D01*
X141375000Y-146500001D01*
X152225000Y-146500001D01*
X152225000Y-147393064D01*
X152235613Y-147481443D01*
X152291080Y-147622095D01*
X152382435Y-147742564D01*
X152502904Y-147833919D01*
X152643556Y-147889386D01*
X152731935Y-147899999D01*
X152731942Y-147900000D01*
X152774999Y-147900000D01*
X152775000Y-147899999D01*
X152775000Y-146500001D01*
X153275000Y-146500001D01*
X153275000Y-147899999D01*
X153275001Y-147900000D01*
X153318058Y-147900000D01*
X153318064Y-147899999D01*
X153406443Y-147889386D01*
X153547095Y-147833919D01*
X153667564Y-147742564D01*
X153758919Y-147622095D01*
X153814386Y-147481443D01*
X153824999Y-147393064D01*
X153825000Y-147393058D01*
X153825000Y-146500001D01*
X153824999Y-146500000D01*
X153275001Y-146500000D01*
X153275000Y-146500001D01*
X152775000Y-146500001D01*
X152774999Y-146500000D01*
X152225001Y-146500000D01*
X152225000Y-146500001D01*
X141375000Y-146500001D01*
X141374999Y-146500000D01*
X140825001Y-146500000D01*
X140825000Y-146500001D01*
X140325000Y-146500001D01*
X140324999Y-146500000D01*
X139775001Y-146500000D01*
X139775000Y-146500001D01*
X138425500Y-146500001D01*
X138425499Y-146177128D01*
X138419091Y-146117517D01*
X138401747Y-146071015D01*
X138368797Y-145982670D01*
X138282549Y-145867458D01*
X138282548Y-145867457D01*
X138282546Y-145867454D01*
X138167331Y-145781204D01*
X138164725Y-145779253D01*
X138129472Y-145729244D01*
X138130346Y-145668065D01*
X138164725Y-145620747D01*
X138184211Y-145606159D01*
X138282546Y-145532546D01*
X138368796Y-145417331D01*
X138381539Y-145383162D01*
X138414030Y-145339216D01*
X138428282Y-145328282D01*
X138524536Y-145202841D01*
X138564262Y-145106935D01*
X139775000Y-145106935D01*
X139775000Y-145999999D01*
X139775001Y-146000000D01*
X140324999Y-146000000D01*
X140325000Y-145999999D01*
X140325000Y-144600001D01*
X140825000Y-144600001D01*
X140825000Y-145999999D01*
X140825001Y-146000000D01*
X141374999Y-146000000D01*
X141375000Y-145999999D01*
X141375000Y-145106941D01*
X141374999Y-145106935D01*
X141364386Y-145018556D01*
X141308919Y-144877904D01*
X141217564Y-144757435D01*
X141097095Y-144666080D01*
X140956443Y-144610613D01*
X140868064Y-144600000D01*
X140825001Y-144600000D01*
X140825000Y-144600001D01*
X140325000Y-144600001D01*
X140324999Y-144600000D01*
X140281935Y-144600000D01*
X140193556Y-144610613D01*
X140052904Y-144666080D01*
X139932435Y-144757435D01*
X139841080Y-144877904D01*
X139785613Y-145018556D01*
X139775000Y-145106935D01*
X138564262Y-145106935D01*
X138585044Y-145056762D01*
X138605682Y-144900000D01*
X138585044Y-144743238D01*
X138548993Y-144656204D01*
X138524537Y-144597161D01*
X138524537Y-144597160D01*
X138428286Y-144471723D01*
X138428285Y-144471722D01*
X138428282Y-144471718D01*
X138414030Y-144460782D01*
X138381539Y-144416835D01*
X138368796Y-144382669D01*
X138282546Y-144267454D01*
X138273237Y-144260485D01*
X138167329Y-144181202D01*
X138064252Y-144142758D01*
X138016337Y-144104708D01*
X137999939Y-144045761D01*
X138021320Y-143988433D01*
X138064252Y-143957242D01*
X138167329Y-143918797D01*
X138167329Y-143918796D01*
X138167331Y-143918796D01*
X138282546Y-143832546D01*
X138351698Y-143740171D01*
X138401706Y-143704918D01*
X138430951Y-143700500D01*
X141725500Y-143700500D01*
X141783691Y-143719407D01*
X141819655Y-143768907D01*
X141824500Y-143799500D01*
X141824500Y-143804274D01*
X141827353Y-143834694D01*
X141827355Y-143834703D01*
X141872207Y-143962883D01*
X141952845Y-144072144D01*
X141952846Y-144072145D01*
X141952850Y-144072150D01*
X141952853Y-144072152D01*
X141952855Y-144072154D01*
X142062116Y-144152792D01*
X142062117Y-144152792D01*
X142062118Y-144152793D01*
X142190301Y-144197646D01*
X142220725Y-144200499D01*
X142220727Y-144200500D01*
X142220734Y-144200500D01*
X142629273Y-144200500D01*
X142629273Y-144200499D01*
X142659699Y-144197646D01*
X142787882Y-144152793D01*
X142897150Y-144072150D01*
X142970346Y-143972973D01*
X143020112Y-143937381D01*
X143081296Y-143937839D01*
X143129655Y-143972974D01*
X143202845Y-144072144D01*
X143202850Y-144072150D01*
X143202853Y-144072152D01*
X143202855Y-144072154D01*
X143312116Y-144152792D01*
X143312117Y-144152792D01*
X143312118Y-144152793D01*
X143440301Y-144197646D01*
X143470725Y-144200499D01*
X143470727Y-144200500D01*
X143470734Y-144200500D01*
X143879273Y-144200500D01*
X143879273Y-144200499D01*
X143909699Y-144197646D01*
X144037882Y-144152793D01*
X144147150Y-144072150D01*
X144220346Y-143972973D01*
X144270112Y-143937381D01*
X144331296Y-143937839D01*
X144379655Y-143972974D01*
X144452845Y-144072144D01*
X144452850Y-144072150D01*
X144452853Y-144072152D01*
X144452855Y-144072154D01*
X144562116Y-144152792D01*
X144562117Y-144152792D01*
X144562118Y-144152793D01*
X144690301Y-144197646D01*
X144720725Y-144200499D01*
X144720727Y-144200500D01*
X144720734Y-144200500D01*
X145129273Y-144200500D01*
X145129273Y-144200499D01*
X145159699Y-144197646D01*
X145287882Y-144152793D01*
X145397150Y-144072150D01*
X145470346Y-143972973D01*
X145520112Y-143937381D01*
X145581296Y-143937839D01*
X145629653Y-143972972D01*
X145680155Y-144041399D01*
X145699497Y-144099445D01*
X145699500Y-144100186D01*
X145699500Y-144432227D01*
X145680593Y-144490418D01*
X145679045Y-144492490D01*
X145675465Y-144497154D01*
X145614957Y-144643236D01*
X145614955Y-144643241D01*
X145594318Y-144799999D01*
X145594318Y-144800000D01*
X145614955Y-144956758D01*
X145614957Y-144956766D01*
X145675462Y-145102838D01*
X145675462Y-145102839D01*
X145771713Y-145228276D01*
X145771718Y-145228282D01*
X145897159Y-145324536D01*
X145897160Y-145324536D01*
X145897161Y-145324537D01*
X146038702Y-145383165D01*
X146043238Y-145385044D01*
X146160809Y-145400522D01*
X146199999Y-145405682D01*
X146200000Y-145405682D01*
X146200001Y-145405682D01*
X146231352Y-145401554D01*
X146356762Y-145385044D01*
X146502841Y-145324536D01*
X146628282Y-145228282D01*
X146724536Y-145102841D01*
X146785044Y-144956762D01*
X146805682Y-144800000D01*
X146785044Y-144643238D01*
X146724536Y-144497159D01*
X146724534Y-144497154D01*
X146720955Y-144492490D01*
X146700534Y-144434814D01*
X146700500Y-144432227D01*
X146700500Y-144032439D01*
X146719407Y-143974248D01*
X146719714Y-143973827D01*
X146720310Y-143973020D01*
X146770053Y-143937400D01*
X146831237Y-143937819D01*
X146879654Y-143972974D01*
X146952845Y-144072144D01*
X146952846Y-144072145D01*
X146952850Y-144072150D01*
X146952853Y-144072152D01*
X146952855Y-144072154D01*
X147062116Y-144152792D01*
X147062117Y-144152792D01*
X147062118Y-144152793D01*
X147190301Y-144197646D01*
X147220725Y-144200499D01*
X147220727Y-144200500D01*
X147220734Y-144200500D01*
X147629273Y-144200500D01*
X147629273Y-144200499D01*
X147659699Y-144197646D01*
X147787882Y-144152793D01*
X147897150Y-144072150D01*
X147970346Y-143972973D01*
X148020112Y-143937381D01*
X148081296Y-143937839D01*
X148129652Y-143972970D01*
X148132197Y-143976418D01*
X148151542Y-144034465D01*
X148144010Y-144073094D01*
X148114955Y-144143240D01*
X148094318Y-144299999D01*
X148094318Y-144300000D01*
X148114955Y-144456758D01*
X148114957Y-144456766D01*
X148175462Y-144602838D01*
X148175462Y-144602839D01*
X148230105Y-144674051D01*
X148271718Y-144728282D01*
X148271722Y-144728285D01*
X148271723Y-144728286D01*
X148291203Y-144743233D01*
X148397159Y-144824536D01*
X148397160Y-144824536D01*
X148397161Y-144824537D01*
X148543233Y-144885042D01*
X148543238Y-144885044D01*
X148656833Y-144899999D01*
X148699999Y-144905682D01*
X148700000Y-144905682D01*
X148700001Y-144905682D01*
X148731352Y-144901554D01*
X148856762Y-144885044D01*
X149002841Y-144824536D01*
X149128282Y-144728282D01*
X149224536Y-144602841D01*
X149285044Y-144456762D01*
X149305682Y-144300000D01*
X149294467Y-144214813D01*
X149305617Y-144154653D01*
X149349999Y-144112536D01*
X149410661Y-144104550D01*
X149464432Y-144133745D01*
X149478356Y-144152392D01*
X149524496Y-144232309D01*
X149524497Y-144232310D01*
X149524498Y-144232311D01*
X149524500Y-144232314D01*
X150099500Y-144807314D01*
X150099499Y-144807314D01*
X150192685Y-144900499D01*
X150192690Y-144900503D01*
X150306810Y-144966390D01*
X150306808Y-144966390D01*
X150306812Y-144966391D01*
X150306814Y-144966392D01*
X150434108Y-145000500D01*
X152126268Y-145000500D01*
X152184459Y-145019407D01*
X152220423Y-145068907D01*
X152224908Y-145103981D01*
X152225000Y-145103981D01*
X152225000Y-145104698D01*
X152225091Y-145105410D01*
X152225000Y-145106931D01*
X152225000Y-145999999D01*
X152225001Y-146000000D01*
X153824999Y-146000000D01*
X153825000Y-145999999D01*
X153825000Y-145106931D01*
X153824909Y-145105410D01*
X153825000Y-145105060D01*
X153825000Y-145103981D01*
X153825281Y-145103981D01*
X153840308Y-145046195D01*
X153887573Y-145007340D01*
X153923732Y-145000500D01*
X154427793Y-145000500D01*
X154485984Y-145019407D01*
X154521948Y-145068907D01*
X154526226Y-145088919D01*
X154530908Y-145132480D01*
X154530909Y-145132485D01*
X154581202Y-145267329D01*
X154647974Y-145356524D01*
X154667454Y-145382546D01*
X154667457Y-145382548D01*
X154667458Y-145382549D01*
X154759829Y-145451698D01*
X154795082Y-145501706D01*
X154799500Y-145530951D01*
X154799500Y-146234108D01*
X154799500Y-146365892D01*
X154810940Y-146408586D01*
X154833609Y-146493190D01*
X154899496Y-146607309D01*
X154899497Y-146607310D01*
X154899498Y-146607311D01*
X154899500Y-146607314D01*
X156887000Y-148594814D01*
X156886999Y-148594814D01*
X156980185Y-148687999D01*
X156980190Y-148688003D01*
X157094310Y-148753890D01*
X157094308Y-148753890D01*
X157094312Y-148753891D01*
X157094314Y-148753892D01*
X157221607Y-148788000D01*
X157221608Y-148788000D01*
X157756571Y-148788000D01*
X157814762Y-148806907D01*
X157835454Y-148827180D01*
X157873133Y-148876867D01*
X157986868Y-148963115D01*
X157986869Y-148963115D01*
X157986870Y-148963116D01*
X158119651Y-149015478D01*
X158119654Y-149015479D01*
X158203098Y-149025500D01*
X158203100Y-149025500D01*
X158796900Y-149025500D01*
X158796902Y-149025500D01*
X158880346Y-149015479D01*
X159013132Y-148963115D01*
X159126867Y-148876867D01*
X159213115Y-148763132D01*
X159265479Y-148630346D01*
X159275500Y-148546902D01*
X159275500Y-148028098D01*
X159273483Y-148011304D01*
X159285316Y-147951276D01*
X159330174Y-147909666D01*
X159371777Y-147900500D01*
X160352265Y-147900500D01*
X160410456Y-147919407D01*
X160422269Y-147929496D01*
X160542170Y-148049397D01*
X160569947Y-148103914D01*
X160571166Y-148119401D01*
X160571166Y-148546904D01*
X160581187Y-148630348D01*
X160633549Y-148763129D01*
X160633550Y-148763131D01*
X160633551Y-148763132D01*
X160719799Y-148876867D01*
X160833534Y-148963115D01*
X160833535Y-148963115D01*
X160833536Y-148963116D01*
X160966317Y-149015478D01*
X160966320Y-149015479D01*
X161049764Y-149025500D01*
X161049766Y-149025500D01*
X161643566Y-149025500D01*
X161643568Y-149025500D01*
X161727012Y-149015479D01*
X161859798Y-148963115D01*
X161973533Y-148876867D01*
X162059781Y-148763132D01*
X162112145Y-148630346D01*
X162122166Y-148546902D01*
X162122166Y-148537501D01*
X163098332Y-148537501D01*
X163098332Y-148546866D01*
X163108343Y-148630227D01*
X163160655Y-148762882D01*
X163246822Y-148876509D01*
X163360449Y-148962675D01*
X163360449Y-148962676D01*
X163493104Y-149014988D01*
X163576465Y-149024999D01*
X163576472Y-149025000D01*
X163623331Y-149025000D01*
X163623332Y-149024999D01*
X163623332Y-148537501D01*
X164123332Y-148537501D01*
X164123332Y-149024999D01*
X164123333Y-149025000D01*
X164170192Y-149025000D01*
X164170198Y-149024999D01*
X164253559Y-149014988D01*
X164386214Y-148962676D01*
X164386214Y-148962675D01*
X164499841Y-148876509D01*
X164586007Y-148762882D01*
X164586008Y-148762882D01*
X164638320Y-148630227D01*
X164648331Y-148546866D01*
X164648332Y-148546860D01*
X164648332Y-148537501D01*
X165625000Y-148537501D01*
X165625000Y-148546866D01*
X165635011Y-148630227D01*
X165687323Y-148762882D01*
X165773490Y-148876509D01*
X165887117Y-148962675D01*
X165887117Y-148962676D01*
X166019772Y-149014988D01*
X166103133Y-149024999D01*
X166103140Y-149025000D01*
X166149999Y-149025000D01*
X166150000Y-149024999D01*
X166150000Y-148537501D01*
X166149999Y-148537500D01*
X165625001Y-148537500D01*
X165625000Y-148537501D01*
X164648332Y-148537501D01*
X164648331Y-148537500D01*
X164123333Y-148537500D01*
X164123332Y-148537501D01*
X163623332Y-148537501D01*
X163623331Y-148537500D01*
X163098333Y-148537500D01*
X163098332Y-148537501D01*
X162122166Y-148537501D01*
X162122166Y-148028098D01*
X162112145Y-147944654D01*
X162112144Y-147944651D01*
X162059782Y-147811870D01*
X162059781Y-147811869D01*
X162059781Y-147811868D01*
X161973533Y-147698133D01*
X161873262Y-147622095D01*
X161859800Y-147611886D01*
X161859798Y-147611885D01*
X161809616Y-147592096D01*
X161762422Y-147553161D01*
X161747125Y-147493919D01*
X161769571Y-147436999D01*
X161809615Y-147407904D01*
X161859798Y-147388115D01*
X161973533Y-147301867D01*
X162059781Y-147188132D01*
X162112145Y-147055346D01*
X162122166Y-146971902D01*
X162122166Y-146968987D01*
X162141073Y-146910796D01*
X162190573Y-146874832D01*
X162251759Y-146874832D01*
X162291167Y-146898981D01*
X162505186Y-147113000D01*
X162505188Y-147113001D01*
X162505190Y-147113003D01*
X162619310Y-147178890D01*
X162619308Y-147178890D01*
X162619312Y-147178891D01*
X162619314Y-147178892D01*
X162746608Y-147213000D01*
X162878393Y-147213000D01*
X163129903Y-147213000D01*
X163188094Y-147231907D01*
X163208786Y-147252180D01*
X163246465Y-147301867D01*
X163360200Y-147388115D01*
X163411059Y-147408171D01*
X163458256Y-147447107D01*
X163473553Y-147506349D01*
X163451107Y-147563269D01*
X163411060Y-147592365D01*
X163360448Y-147612324D01*
X163246822Y-147698490D01*
X163160656Y-147812117D01*
X163160655Y-147812117D01*
X163108343Y-147944772D01*
X163098332Y-148028133D01*
X163098332Y-148037499D01*
X163098333Y-148037500D01*
X164648331Y-148037500D01*
X164648332Y-148037499D01*
X164648332Y-148028139D01*
X164648331Y-148028133D01*
X164638320Y-147944772D01*
X164586008Y-147812117D01*
X164499841Y-147698490D01*
X164386214Y-147612324D01*
X164386216Y-147612324D01*
X164335603Y-147592365D01*
X164288406Y-147553428D01*
X164273110Y-147494185D01*
X164295557Y-147437266D01*
X164335601Y-147408172D01*
X164386464Y-147388115D01*
X164500199Y-147301867D01*
X164586447Y-147188132D01*
X164638811Y-147055346D01*
X164648832Y-146971902D01*
X164648832Y-146453098D01*
X164638811Y-146369654D01*
X164638810Y-146369651D01*
X164586448Y-146236870D01*
X164586447Y-146236869D01*
X164586447Y-146236868D01*
X164500199Y-146123133D01*
X164386464Y-146036885D01*
X164386463Y-146036884D01*
X164386461Y-146036883D01*
X164253680Y-145984521D01*
X164170236Y-145974500D01*
X164170234Y-145974500D01*
X163576430Y-145974500D01*
X163576427Y-145974500D01*
X163492983Y-145984521D01*
X163360202Y-146036883D01*
X163360198Y-146036886D01*
X163246468Y-146123130D01*
X163246462Y-146123136D01*
X163208787Y-146172819D01*
X163158560Y-146207762D01*
X163129903Y-146212000D01*
X163060822Y-146212000D01*
X163002631Y-146193093D01*
X162990818Y-146183004D01*
X162331456Y-145523642D01*
X162303679Y-145469125D01*
X162313250Y-145408693D01*
X162331462Y-145383629D01*
X162332538Y-145382551D01*
X162332546Y-145382546D01*
X162418796Y-145267331D01*
X162432591Y-145230346D01*
X162469089Y-145132488D01*
X162469090Y-145132485D01*
X162469091Y-145132483D01*
X162475500Y-145072873D01*
X162475499Y-144577128D01*
X162469091Y-144517517D01*
X162449815Y-144465834D01*
X162418797Y-144382670D01*
X162332549Y-144267458D01*
X162332548Y-144267457D01*
X162332546Y-144267454D01*
X162323237Y-144260485D01*
X162217329Y-144181202D01*
X162082488Y-144130910D01*
X162082483Y-144130909D01*
X162082481Y-144130908D01*
X162082477Y-144130908D01*
X162051249Y-144127550D01*
X162022873Y-144124500D01*
X162022870Y-144124500D01*
X161377133Y-144124500D01*
X161377129Y-144124500D01*
X161377128Y-144124501D01*
X161369949Y-144125272D01*
X161317519Y-144130908D01*
X161317514Y-144130909D01*
X161182670Y-144181202D01*
X161067458Y-144267450D01*
X161067450Y-144267458D01*
X160979253Y-144385274D01*
X160929244Y-144420527D01*
X160868065Y-144419653D01*
X160820747Y-144385274D01*
X160732549Y-144267458D01*
X160732548Y-144267457D01*
X160732546Y-144267454D01*
X160723237Y-144260485D01*
X160617329Y-144181202D01*
X160482488Y-144130910D01*
X160482483Y-144130909D01*
X160482481Y-144130908D01*
X160482477Y-144130908D01*
X160451249Y-144127550D01*
X160422873Y-144124500D01*
X160422870Y-144124500D01*
X159777133Y-144124500D01*
X159777129Y-144124500D01*
X159777128Y-144124501D01*
X159769949Y-144125272D01*
X159717519Y-144130908D01*
X159717514Y-144130909D01*
X159582670Y-144181202D01*
X159467458Y-144267450D01*
X159467450Y-144267458D01*
X159381202Y-144382670D01*
X159342758Y-144485747D01*
X159304708Y-144533662D01*
X159245761Y-144550060D01*
X159188433Y-144528678D01*
X159157242Y-144485747D01*
X159118797Y-144382670D01*
X159032549Y-144267458D01*
X159032548Y-144267457D01*
X159032546Y-144267454D01*
X159023237Y-144260485D01*
X158917329Y-144181202D01*
X158782488Y-144130910D01*
X158782483Y-144130909D01*
X158782481Y-144130908D01*
X158782477Y-144130908D01*
X158751249Y-144127550D01*
X158722873Y-144124500D01*
X158722870Y-144124500D01*
X158077133Y-144124500D01*
X158077129Y-144124500D01*
X158077128Y-144124501D01*
X158069949Y-144125272D01*
X158017519Y-144130908D01*
X158017514Y-144130909D01*
X157882670Y-144181202D01*
X157767458Y-144267450D01*
X157767453Y-144267455D01*
X157729253Y-144318484D01*
X157679244Y-144353736D01*
X157618065Y-144352862D01*
X157570747Y-144318484D01*
X157552266Y-144293797D01*
X157532546Y-144267454D01*
X157532544Y-144267452D01*
X157528303Y-144261787D01*
X157530040Y-144260485D01*
X157506901Y-144215070D01*
X157505763Y-144200618D01*
X157505372Y-144197646D01*
X157485044Y-144043238D01*
X157427483Y-143904275D01*
X157422683Y-143843280D01*
X157454653Y-143791111D01*
X157459592Y-143787159D01*
X157532546Y-143732546D01*
X157545553Y-143715170D01*
X157595562Y-143679918D01*
X157624806Y-143675500D01*
X157675194Y-143675500D01*
X157733385Y-143694407D01*
X157754446Y-143715170D01*
X157767454Y-143732546D01*
X157767457Y-143732548D01*
X157767458Y-143732549D01*
X157882670Y-143818797D01*
X158017511Y-143869089D01*
X158017512Y-143869089D01*
X158017517Y-143869091D01*
X158077127Y-143875500D01*
X158722872Y-143875499D01*
X158782483Y-143869091D01*
X158876184Y-143834143D01*
X158917329Y-143818797D01*
X158917329Y-143818796D01*
X158917331Y-143818796D01*
X159032546Y-143732546D01*
X159045553Y-143715170D01*
X159095562Y-143679918D01*
X159124806Y-143675500D01*
X159375194Y-143675500D01*
X159433385Y-143694407D01*
X159454446Y-143715170D01*
X159467454Y-143732546D01*
X159467457Y-143732548D01*
X159467458Y-143732549D01*
X159582670Y-143818797D01*
X159717511Y-143869089D01*
X159717512Y-143869089D01*
X159717517Y-143869091D01*
X159777127Y-143875500D01*
X160422872Y-143875499D01*
X160482483Y-143869091D01*
X160576184Y-143834143D01*
X160617329Y-143818797D01*
X160617329Y-143818796D01*
X160617331Y-143818796D01*
X160732546Y-143732546D01*
X160745553Y-143715170D01*
X160795562Y-143679918D01*
X160824806Y-143675500D01*
X160975194Y-143675500D01*
X161033385Y-143694407D01*
X161054446Y-143715170D01*
X161067454Y-143732546D01*
X161067457Y-143732548D01*
X161067458Y-143732549D01*
X161182670Y-143818797D01*
X161317511Y-143869089D01*
X161317512Y-143869089D01*
X161317517Y-143869091D01*
X161377127Y-143875500D01*
X162022872Y-143875499D01*
X162082483Y-143869091D01*
X162176184Y-143834143D01*
X162217329Y-143818797D01*
X162217329Y-143818796D01*
X162217331Y-143818796D01*
X162332546Y-143732546D01*
X162418796Y-143617331D01*
X162425261Y-143599999D01*
X162469089Y-143482488D01*
X162469090Y-143482485D01*
X162469091Y-143482483D01*
X162475500Y-143422873D01*
X162475499Y-142927128D01*
X162469091Y-142867517D01*
X162450444Y-142817522D01*
X162418797Y-142732670D01*
X162332549Y-142617458D01*
X162332548Y-142617457D01*
X162332546Y-142617454D01*
X162332541Y-142617450D01*
X162217329Y-142531202D01*
X162082488Y-142480910D01*
X162082483Y-142480909D01*
X162082481Y-142480908D01*
X162082477Y-142480908D01*
X162051249Y-142477550D01*
X162022873Y-142474500D01*
X162022870Y-142474500D01*
X161377133Y-142474500D01*
X161377129Y-142474500D01*
X161377128Y-142474501D01*
X161369949Y-142475272D01*
X161317519Y-142480908D01*
X161317514Y-142480909D01*
X161182670Y-142531202D01*
X161067458Y-142617450D01*
X161067450Y-142617458D01*
X161054447Y-142634829D01*
X161004438Y-142670082D01*
X160975194Y-142674500D01*
X160824806Y-142674500D01*
X160766615Y-142655593D01*
X160745553Y-142634829D01*
X160732549Y-142617458D01*
X160732548Y-142617457D01*
X160732546Y-142617454D01*
X160732541Y-142617450D01*
X160617329Y-142531202D01*
X160482488Y-142480910D01*
X160482483Y-142480909D01*
X160482481Y-142480908D01*
X160482477Y-142480908D01*
X160451249Y-142477550D01*
X160422873Y-142474500D01*
X160422870Y-142474500D01*
X159777133Y-142474500D01*
X159777129Y-142474500D01*
X159777128Y-142474501D01*
X159769949Y-142475272D01*
X159717519Y-142480908D01*
X159717514Y-142480909D01*
X159582672Y-142531201D01*
X159549442Y-142556077D01*
X159534246Y-142567454D01*
X159533829Y-142567766D01*
X159475914Y-142587502D01*
X159417459Y-142569427D01*
X159380792Y-142520446D01*
X159375500Y-142488512D01*
X159375500Y-139649762D01*
X159394407Y-139591571D01*
X159414681Y-139570878D01*
X159475078Y-139525078D01*
X159492442Y-139502181D01*
X159542669Y-139467238D01*
X159571326Y-139463000D01*
X159753135Y-139463000D01*
X159811326Y-139481907D01*
X159847290Y-139531407D01*
X159851702Y-139552753D01*
X159852353Y-139559694D01*
X159852355Y-139559703D01*
X159897207Y-139687883D01*
X159977845Y-139797144D01*
X159977847Y-139797146D01*
X159977850Y-139797150D01*
X159977853Y-139797152D01*
X159977855Y-139797154D01*
X160087115Y-139877791D01*
X160087118Y-139877793D01*
X160106763Y-139884667D01*
X160155443Y-139921731D01*
X160173041Y-139980331D01*
X160152834Y-140038083D01*
X160144095Y-140048089D01*
X160142711Y-140049474D01*
X160049500Y-140142685D01*
X160049496Y-140142690D01*
X159983609Y-140256809D01*
X159949500Y-140384109D01*
X159949500Y-140408686D01*
X159930593Y-140466877D01*
X159930155Y-140467474D01*
X159897207Y-140512116D01*
X159852355Y-140640296D01*
X159852353Y-140640305D01*
X159849500Y-140670725D01*
X159849500Y-141804274D01*
X159852353Y-141834694D01*
X159852355Y-141834703D01*
X159897207Y-141962883D01*
X159977845Y-142072144D01*
X159977847Y-142072146D01*
X159977850Y-142072150D01*
X159977853Y-142072152D01*
X159977855Y-142072154D01*
X160087116Y-142152792D01*
X160087117Y-142152792D01*
X160087118Y-142152793D01*
X160215301Y-142197646D01*
X160245725Y-142200499D01*
X160245727Y-142200500D01*
X160245734Y-142200500D01*
X160654273Y-142200500D01*
X160654273Y-142200499D01*
X160684699Y-142197646D01*
X160812882Y-142152793D01*
X160866634Y-142113122D01*
X160924680Y-142093781D01*
X160983010Y-142112252D01*
X160984210Y-142113123D01*
X161037352Y-142152345D01*
X161150000Y-142191761D01*
X161150000Y-141086500D01*
X161168907Y-141028309D01*
X161218407Y-140992345D01*
X161249000Y-140987500D01*
X161551000Y-140987500D01*
X161609191Y-141006407D01*
X161645155Y-141055907D01*
X161650000Y-141086500D01*
X161650000Y-142191760D01*
X161762647Y-142152344D01*
X161815788Y-142113124D01*
X161873836Y-142093781D01*
X161932167Y-142112251D01*
X161933366Y-142113123D01*
X161987116Y-142152792D01*
X161987117Y-142152792D01*
X161987118Y-142152793D01*
X162115301Y-142197646D01*
X162145725Y-142200499D01*
X162145727Y-142200500D01*
X162145734Y-142200500D01*
X162554273Y-142200500D01*
X162554273Y-142200499D01*
X162584699Y-142197646D01*
X162712882Y-142152793D01*
X162822150Y-142072150D01*
X162902793Y-141962882D01*
X162947646Y-141834699D01*
X162950499Y-141804273D01*
X162950500Y-141804273D01*
X162950500Y-140699500D01*
X162969407Y-140641309D01*
X163018907Y-140605345D01*
X163049500Y-140600500D01*
X163300500Y-140600500D01*
X163358691Y-140619407D01*
X163394655Y-140668907D01*
X163399500Y-140699500D01*
X163399500Y-141534108D01*
X163399500Y-141665892D01*
X163433608Y-141793186D01*
X163486236Y-141884341D01*
X163499500Y-141933840D01*
X163499500Y-141954274D01*
X163502353Y-141984694D01*
X163502355Y-141984703D01*
X163547207Y-142112883D01*
X163627845Y-142222144D01*
X163627847Y-142222146D01*
X163627850Y-142222150D01*
X163627853Y-142222152D01*
X163627855Y-142222154D01*
X163737116Y-142302792D01*
X163737117Y-142302792D01*
X163737118Y-142302793D01*
X163865301Y-142347646D01*
X163895725Y-142350499D01*
X163895727Y-142350500D01*
X163895734Y-142350500D01*
X164304273Y-142350500D01*
X164304273Y-142350499D01*
X164334699Y-142347646D01*
X164462882Y-142302793D01*
X164572150Y-142222150D01*
X164652793Y-142112882D01*
X164697646Y-141984699D01*
X164700499Y-141954273D01*
X164700500Y-141954273D01*
X164700500Y-141950001D01*
X164900001Y-141950001D01*
X164900001Y-141954203D01*
X164902850Y-141984600D01*
X164902850Y-141984602D01*
X164947654Y-142112647D01*
X165028207Y-142221790D01*
X165028209Y-142221792D01*
X165137352Y-142302345D01*
X165250000Y-142341761D01*
X165250000Y-141950001D01*
X165750000Y-141950001D01*
X165750000Y-142341760D01*
X165862647Y-142302345D01*
X165971790Y-142221792D01*
X165971792Y-142221790D01*
X166052345Y-142112647D01*
X166097149Y-141984601D01*
X166099999Y-141954211D01*
X166100000Y-141954210D01*
X166100000Y-141950001D01*
X166099999Y-141950000D01*
X165750001Y-141950000D01*
X165750000Y-141950001D01*
X165250000Y-141950001D01*
X165249999Y-141950000D01*
X164900002Y-141950000D01*
X164900001Y-141950001D01*
X164700500Y-141950001D01*
X164700500Y-141445727D01*
X164700499Y-141445725D01*
X164697646Y-141415301D01*
X164652793Y-141287118D01*
X164631703Y-141258542D01*
X164572154Y-141177855D01*
X164572152Y-141177853D01*
X164572150Y-141177850D01*
X164572146Y-141177847D01*
X164572144Y-141177845D01*
X164494722Y-141120705D01*
X164459129Y-141070937D01*
X164459587Y-141009754D01*
X164495920Y-140960524D01*
X164517184Y-140948956D01*
X164609975Y-140912364D01*
X164725078Y-140825078D01*
X164812364Y-140709975D01*
X164812367Y-140709966D01*
X164813989Y-140707082D01*
X164815874Y-140705344D01*
X164816455Y-140704579D01*
X164816592Y-140704683D01*
X164858985Y-140665621D01*
X164919757Y-140658526D01*
X164973094Y-140688507D01*
X164986583Y-140707072D01*
X164988074Y-140709725D01*
X165075276Y-140824717D01*
X165075279Y-140824720D01*
X165194221Y-140914917D01*
X165229163Y-140965144D01*
X165227909Y-141026316D01*
X165190939Y-141075069D01*
X165167099Y-141087245D01*
X165137356Y-141097652D01*
X165137354Y-141097653D01*
X165028209Y-141178207D01*
X165028207Y-141178209D01*
X164947654Y-141287352D01*
X164902850Y-141415398D01*
X164900000Y-141445788D01*
X164900000Y-141449999D01*
X164900001Y-141450000D01*
X165249999Y-141450000D01*
X165250000Y-141449999D01*
X165250000Y-141067518D01*
X165253016Y-141058236D01*
X165750000Y-141058236D01*
X165750000Y-141449999D01*
X165750001Y-141450000D01*
X166099998Y-141450000D01*
X166099999Y-141449999D01*
X166099999Y-141445796D01*
X166097149Y-141415399D01*
X166097149Y-141415397D01*
X166052345Y-141287352D01*
X165971792Y-141178209D01*
X165971790Y-141178207D01*
X165931486Y-141148461D01*
X165895894Y-141098693D01*
X165896294Y-141045254D01*
X165856593Y-141074099D01*
X165795407Y-141074099D01*
X165793303Y-141073389D01*
X165750000Y-141058236D01*
X165253016Y-141058236D01*
X165267571Y-141013439D01*
X165914116Y-141013439D01*
X165932686Y-140988280D01*
X165978471Y-140970512D01*
X166025468Y-140964868D01*
X166159729Y-140911922D01*
X166274717Y-140824723D01*
X166274723Y-140824717D01*
X166361922Y-140709729D01*
X166414867Y-140575468D01*
X166424999Y-140491104D01*
X166425000Y-140491100D01*
X166425000Y-140450001D01*
X166424999Y-140450000D01*
X165925001Y-140450000D01*
X165925000Y-140450001D01*
X165925000Y-140979944D01*
X165914116Y-141013439D01*
X165267571Y-141013439D01*
X165268907Y-141009327D01*
X165318407Y-140973363D01*
X165360805Y-140969224D01*
X165408895Y-140974999D01*
X165408900Y-140975000D01*
X165424999Y-140975000D01*
X165425000Y-140974999D01*
X165425000Y-138950001D01*
X165925000Y-138950001D01*
X165925000Y-139949999D01*
X165925001Y-139950000D01*
X166424999Y-139950000D01*
X166425000Y-139949999D01*
X166425000Y-139908899D01*
X166424999Y-139908895D01*
X166414867Y-139824531D01*
X166361922Y-139690270D01*
X166274723Y-139575282D01*
X166274717Y-139575276D01*
X166213540Y-139528884D01*
X166178597Y-139478657D01*
X166179851Y-139417485D01*
X166213540Y-139371116D01*
X166274717Y-139324723D01*
X166274723Y-139324717D01*
X166361922Y-139209729D01*
X166414867Y-139075468D01*
X166424999Y-138991104D01*
X166425000Y-138991100D01*
X166425000Y-138950001D01*
X166424999Y-138950000D01*
X165925001Y-138950000D01*
X165925000Y-138950001D01*
X165425000Y-138950001D01*
X165425000Y-137925001D01*
X165925000Y-137925001D01*
X165925000Y-138449999D01*
X165925001Y-138450000D01*
X166424999Y-138450000D01*
X166425000Y-138449999D01*
X166425000Y-138408899D01*
X166424999Y-138408895D01*
X166414867Y-138324531D01*
X166361922Y-138190270D01*
X166274723Y-138075282D01*
X166274717Y-138075276D01*
X166159729Y-137988077D01*
X166025468Y-137935132D01*
X165941104Y-137925000D01*
X165925001Y-137925000D01*
X165925000Y-137925001D01*
X165425000Y-137925001D01*
X165424999Y-137925000D01*
X165408895Y-137925000D01*
X165324531Y-137935132D01*
X165190270Y-137988077D01*
X165075282Y-138075276D01*
X165075276Y-138075282D01*
X164988076Y-138190272D01*
X164986581Y-138192932D01*
X164984852Y-138194524D01*
X164983985Y-138195668D01*
X164983779Y-138195512D01*
X164941578Y-138234385D01*
X164880804Y-138241470D01*
X164827473Y-138211479D01*
X164813991Y-138192921D01*
X164812367Y-138190033D01*
X164812364Y-138190025D01*
X164725078Y-138074922D01*
X164609975Y-137987636D01*
X164609974Y-137987635D01*
X164609972Y-137987634D01*
X164475591Y-137934641D01*
X164391148Y-137924500D01*
X164391144Y-137924500D01*
X163858856Y-137924500D01*
X163858851Y-137924500D01*
X163774408Y-137934641D01*
X163640027Y-137987634D01*
X163524922Y-138074922D01*
X163437634Y-138190027D01*
X163384641Y-138324408D01*
X163374500Y-138408851D01*
X163374500Y-138991148D01*
X163384640Y-139075588D01*
X163384641Y-139075590D01*
X163392597Y-139095766D01*
X163399500Y-139132083D01*
X163399500Y-139500500D01*
X163380593Y-139558691D01*
X163331093Y-139594655D01*
X163300500Y-139599500D01*
X163049500Y-139599500D01*
X162991309Y-139580593D01*
X162955345Y-139531093D01*
X162950500Y-139500500D01*
X162950500Y-138395727D01*
X162950499Y-138395725D01*
X162947646Y-138365301D01*
X162902793Y-138237118D01*
X162896890Y-138229120D01*
X162822154Y-138127855D01*
X162822152Y-138127853D01*
X162822150Y-138127850D01*
X162822146Y-138127847D01*
X162822144Y-138127845D01*
X162712883Y-138047207D01*
X162584703Y-138002355D01*
X162584694Y-138002353D01*
X162554274Y-137999500D01*
X162554266Y-137999500D01*
X162145734Y-137999500D01*
X162145725Y-137999500D01*
X162109305Y-138002916D01*
X162109036Y-138000048D01*
X162059692Y-137995115D01*
X162014015Y-137954405D01*
X162000500Y-137904471D01*
X162000500Y-136875001D01*
X163100000Y-136875001D01*
X163100000Y-136918064D01*
X163110613Y-137006443D01*
X163166080Y-137147095D01*
X163257435Y-137267564D01*
X163377904Y-137358919D01*
X163518556Y-137414386D01*
X163606935Y-137424999D01*
X163606942Y-137425000D01*
X164499999Y-137425000D01*
X164500000Y-137424999D01*
X164500000Y-136875001D01*
X165000000Y-136875001D01*
X165000000Y-137424999D01*
X165000001Y-137425000D01*
X165893058Y-137425000D01*
X165893064Y-137424999D01*
X165981443Y-137414386D01*
X166122095Y-137358919D01*
X166242564Y-137267564D01*
X166333919Y-137147095D01*
X166389386Y-137006443D01*
X166399999Y-136918064D01*
X166400000Y-136918058D01*
X166400000Y-136875001D01*
X166399999Y-136875000D01*
X165000001Y-136875000D01*
X165000000Y-136875001D01*
X164500000Y-136875001D01*
X164499999Y-136875000D01*
X163100001Y-136875000D01*
X163100000Y-136875001D01*
X162000500Y-136875001D01*
X162000500Y-136331935D01*
X163100000Y-136331935D01*
X163100000Y-136374999D01*
X163100001Y-136375000D01*
X164499999Y-136375000D01*
X164500000Y-136374999D01*
X164500000Y-135825001D01*
X165000000Y-135825001D01*
X165000000Y-136374999D01*
X165000001Y-136375000D01*
X166399999Y-136375000D01*
X166400000Y-136374999D01*
X166400000Y-136331941D01*
X166399999Y-136331935D01*
X166389386Y-136243556D01*
X166333919Y-136102904D01*
X166242564Y-135982435D01*
X166122095Y-135891080D01*
X165981443Y-135835613D01*
X165893064Y-135825000D01*
X165000001Y-135825000D01*
X165000000Y-135825001D01*
X164500000Y-135825001D01*
X164499999Y-135825000D01*
X163606935Y-135825000D01*
X163518556Y-135835613D01*
X163377904Y-135891080D01*
X163257435Y-135982435D01*
X163166080Y-136102904D01*
X163110613Y-136243556D01*
X163100000Y-136331935D01*
X162000500Y-136331935D01*
X162000500Y-135474500D01*
X162019407Y-135416309D01*
X162068907Y-135380345D01*
X162099500Y-135375500D01*
X162304273Y-135375500D01*
X162304273Y-135375499D01*
X162334699Y-135372646D01*
X162462882Y-135327793D01*
X162572150Y-135247150D01*
X162652793Y-135137882D01*
X162697646Y-135009699D01*
X162700499Y-134979273D01*
X162700500Y-134979273D01*
X162700500Y-134570727D01*
X162700499Y-134570725D01*
X162698563Y-134550078D01*
X162697646Y-134540301D01*
X162652793Y-134412118D01*
X162572150Y-134302850D01*
X162572143Y-134302845D01*
X162472974Y-134229655D01*
X162437381Y-134179888D01*
X162437839Y-134118704D01*
X162472974Y-134070345D01*
X162507499Y-134044864D01*
X162572150Y-133997150D01*
X162652793Y-133887882D01*
X162697646Y-133759699D01*
X162700499Y-133729273D01*
X162700500Y-133729273D01*
X162700500Y-133320727D01*
X162700499Y-133320725D01*
X162698853Y-133303175D01*
X162697646Y-133290301D01*
X162652793Y-133162118D01*
X162638700Y-133143023D01*
X162572154Y-133052855D01*
X162572151Y-133052852D01*
X162572150Y-133052850D01*
X162542670Y-133031093D01*
X162472974Y-132979655D01*
X162437381Y-132929888D01*
X162437839Y-132868704D01*
X162472974Y-132820345D01*
X162494649Y-132804347D01*
X162572150Y-132747150D01*
X162652793Y-132637882D01*
X162697646Y-132509699D01*
X162700499Y-132479273D01*
X162700500Y-132479273D01*
X162700500Y-132070727D01*
X162700499Y-132070725D01*
X162698425Y-132048609D01*
X162697646Y-132040301D01*
X162652793Y-131912118D01*
X162616912Y-131863501D01*
X162572154Y-131802855D01*
X162572152Y-131802853D01*
X162572150Y-131802850D01*
X162533733Y-131774497D01*
X162472553Y-131729344D01*
X162436960Y-131679577D01*
X162437418Y-131618393D01*
X162472553Y-131570034D01*
X162571787Y-131496795D01*
X162571792Y-131496790D01*
X162652345Y-131387647D01*
X162691761Y-131275000D01*
X160408239Y-131275000D01*
X160447654Y-131387647D01*
X160528207Y-131496790D01*
X160528209Y-131496792D01*
X160627447Y-131570034D01*
X160663039Y-131619802D01*
X160662581Y-131680986D01*
X160627447Y-131729344D01*
X160610444Y-131741893D01*
X160592501Y-131755136D01*
X160592475Y-131755155D01*
X160534427Y-131774497D01*
X160533686Y-131774500D01*
X159965893Y-131774500D01*
X159834108Y-131774500D01*
X159756200Y-131795375D01*
X159706809Y-131808609D01*
X159592686Y-131874499D01*
X159421681Y-132045504D01*
X159367165Y-132073281D01*
X159351678Y-132074500D01*
X159077133Y-132074500D01*
X159077129Y-132074500D01*
X159077128Y-132074501D01*
X159069949Y-132075272D01*
X159017519Y-132080908D01*
X159017514Y-132080909D01*
X158882670Y-132131202D01*
X158767458Y-132217450D01*
X158767450Y-132217458D01*
X158679253Y-132335274D01*
X158629244Y-132370527D01*
X158568065Y-132369653D01*
X158520747Y-132335274D01*
X158432549Y-132217458D01*
X158432548Y-132217457D01*
X158432546Y-132217454D01*
X158432541Y-132217450D01*
X158317329Y-132131202D01*
X158182488Y-132080910D01*
X158182483Y-132080909D01*
X158182481Y-132080908D01*
X158182477Y-132080908D01*
X158151249Y-132077550D01*
X158122873Y-132074500D01*
X158122870Y-132074500D01*
X157477133Y-132074500D01*
X157477129Y-132074500D01*
X157477128Y-132074501D01*
X157469949Y-132075272D01*
X157417519Y-132080908D01*
X157417514Y-132080909D01*
X157282670Y-132131202D01*
X157167458Y-132217450D01*
X157167450Y-132217458D01*
X157081202Y-132332670D01*
X157030910Y-132467511D01*
X157030908Y-132467522D01*
X157024500Y-132527129D01*
X157024500Y-133022866D01*
X157024501Y-133022870D01*
X157030908Y-133082480D01*
X157030909Y-133082485D01*
X157081202Y-133217329D01*
X157165555Y-133330009D01*
X157167454Y-133332546D01*
X157167457Y-133332548D01*
X157167458Y-133332549D01*
X157282670Y-133418797D01*
X157417511Y-133469089D01*
X157417512Y-133469089D01*
X157417517Y-133469091D01*
X157477127Y-133475500D01*
X157751677Y-133475499D01*
X157809867Y-133494406D01*
X157821681Y-133504495D01*
X157872682Y-133555496D01*
X157900459Y-133610013D01*
X157890888Y-133670445D01*
X157847623Y-133713710D01*
X157802678Y-133724500D01*
X157477133Y-133724500D01*
X157477129Y-133724500D01*
X157477128Y-133724501D01*
X157472412Y-133725008D01*
X157417519Y-133730908D01*
X157417514Y-133730909D01*
X157282670Y-133781202D01*
X157167458Y-133867450D01*
X157167450Y-133867458D01*
X157081202Y-133982670D01*
X157030910Y-134117511D01*
X157030908Y-134117522D01*
X157028351Y-134141309D01*
X157024783Y-134174500D01*
X157024500Y-134177129D01*
X157024500Y-134451678D01*
X157005593Y-134509869D01*
X156995504Y-134521681D01*
X156746683Y-134770503D01*
X156692166Y-134798281D01*
X156676679Y-134799500D01*
X155332085Y-134799500D01*
X155295769Y-134792598D01*
X155280525Y-134786587D01*
X155275588Y-134784640D01*
X155191148Y-134774500D01*
X155191144Y-134774500D01*
X154608856Y-134774500D01*
X154608851Y-134774500D01*
X154524411Y-134784640D01*
X154514696Y-134788471D01*
X154504230Y-134792598D01*
X154467915Y-134799500D01*
X153738254Y-134799500D01*
X153704688Y-134788594D01*
X153661746Y-134799500D01*
X153248322Y-134799500D01*
X153190131Y-134780593D01*
X153178318Y-134770504D01*
X152757314Y-134349500D01*
X152307314Y-133899500D01*
X152307311Y-133899498D01*
X152307310Y-133899497D01*
X152307309Y-133899496D01*
X152193189Y-133833609D01*
X152193190Y-133833609D01*
X152067572Y-133799950D01*
X152016257Y-133766626D01*
X151997664Y-133730300D01*
X151996225Y-133725008D01*
X151996229Y-133673038D01*
X151997090Y-133669871D01*
X151999999Y-133644797D01*
X152000000Y-133644795D01*
X152000000Y-133599500D01*
X152018907Y-133541309D01*
X152068407Y-133505345D01*
X152099000Y-133500500D01*
X152507563Y-133500500D01*
X152565754Y-133519407D01*
X152601718Y-133568907D01*
X152605716Y-133586578D01*
X152614955Y-133656758D01*
X152614957Y-133656766D01*
X152675462Y-133802838D01*
X152675462Y-133802839D01*
X152754022Y-133905220D01*
X152771718Y-133928282D01*
X152771722Y-133928285D01*
X152771723Y-133928286D01*
X152782880Y-133936847D01*
X152897159Y-134024536D01*
X153043238Y-134085044D01*
X153043246Y-134085045D01*
X153044581Y-134085403D01*
X153045421Y-134085948D01*
X153049232Y-134087527D01*
X153048939Y-134088232D01*
X153095899Y-134118722D01*
X153112271Y-134150851D01*
X153112473Y-134150768D01*
X153113532Y-134153326D01*
X153114594Y-134155409D01*
X153114957Y-134156767D01*
X153175462Y-134302838D01*
X153175462Y-134302839D01*
X153212103Y-134350590D01*
X153271718Y-134428282D01*
X153271722Y-134428285D01*
X153271723Y-134428286D01*
X153281860Y-134436064D01*
X153397159Y-134524536D01*
X153397160Y-134524536D01*
X153397161Y-134524537D01*
X153513594Y-134572765D01*
X153543238Y-134585044D01*
X153673519Y-134602195D01*
X153674668Y-134602347D01*
X153697743Y-134613353D01*
X153725332Y-134602347D01*
X153726195Y-134602233D01*
X153856762Y-134585044D01*
X154002841Y-134524536D01*
X154128282Y-134428282D01*
X154224536Y-134302841D01*
X154269447Y-134194415D01*
X154309182Y-134147891D01*
X154368676Y-134133607D01*
X154397229Y-134140205D01*
X154434575Y-134154932D01*
X154524410Y-134190359D01*
X154608856Y-134200500D01*
X154608858Y-134200500D01*
X155191142Y-134200500D01*
X155191144Y-134200500D01*
X155275590Y-134190359D01*
X155409975Y-134137364D01*
X155525078Y-134050078D01*
X155612364Y-133934975D01*
X155665359Y-133800590D01*
X155675500Y-133716144D01*
X155675500Y-133183856D01*
X155665359Y-133099410D01*
X155638183Y-133030496D01*
X155612365Y-132965027D01*
X155612364Y-132965026D01*
X155612364Y-132965025D01*
X155525078Y-132849922D01*
X155409975Y-132762636D01*
X155409970Y-132762634D01*
X155409969Y-132762633D01*
X155407590Y-132761295D01*
X155406163Y-132759746D01*
X155404579Y-132758545D01*
X155404794Y-132758260D01*
X155366133Y-132716296D01*
X155359044Y-132655522D01*
X155389030Y-132602189D01*
X155407590Y-132588705D01*
X155409966Y-132587367D01*
X155409975Y-132587364D01*
X155525078Y-132500078D01*
X155612364Y-132384975D01*
X155665359Y-132250590D01*
X155675500Y-132166144D01*
X155675500Y-131633856D01*
X155665359Y-131549410D01*
X155634242Y-131470504D01*
X155612365Y-131415027D01*
X155612364Y-131415026D01*
X155612364Y-131415025D01*
X155525078Y-131299922D01*
X155525073Y-131299918D01*
X155525072Y-131299917D01*
X155435383Y-131231903D01*
X155400441Y-131181677D01*
X155401695Y-131120504D01*
X155435381Y-131074139D01*
X155500078Y-131025078D01*
X155587364Y-130909975D01*
X155587367Y-130909966D01*
X155588989Y-130907082D01*
X155590874Y-130905344D01*
X155591455Y-130904579D01*
X155591592Y-130904683D01*
X155633985Y-130865621D01*
X155694757Y-130858526D01*
X155748094Y-130888507D01*
X155761583Y-130907072D01*
X155763074Y-130909725D01*
X155850276Y-131024717D01*
X155850282Y-131024723D01*
X155965270Y-131111922D01*
X156099531Y-131164867D01*
X156183895Y-131174999D01*
X156183900Y-131175000D01*
X156199999Y-131175000D01*
X156200000Y-131174999D01*
X156200000Y-130650001D01*
X156700000Y-130650001D01*
X156700000Y-131174999D01*
X156700001Y-131175000D01*
X156716100Y-131175000D01*
X156716104Y-131174999D01*
X156800468Y-131164867D01*
X156934729Y-131111922D01*
X157049717Y-131024723D01*
X157049723Y-131024717D01*
X157136922Y-130909729D01*
X157189867Y-130775468D01*
X157199999Y-130691104D01*
X157200000Y-130691100D01*
X157200000Y-130650001D01*
X157199999Y-130650000D01*
X156700001Y-130650000D01*
X156700000Y-130650001D01*
X156200000Y-130650001D01*
X156200000Y-129625001D01*
X156700000Y-129625001D01*
X156700000Y-130149999D01*
X156700001Y-130150000D01*
X157199999Y-130150000D01*
X157200000Y-130149999D01*
X157200000Y-130108899D01*
X157199999Y-130108895D01*
X157189867Y-130024531D01*
X157140759Y-129899999D01*
X158694318Y-129899999D01*
X158694318Y-129900000D01*
X158714955Y-130056758D01*
X158714957Y-130056766D01*
X158775462Y-130202838D01*
X158775462Y-130202839D01*
X158871713Y-130328276D01*
X158871718Y-130328282D01*
X158997159Y-130424536D01*
X158997160Y-130424536D01*
X158997161Y-130424537D01*
X159129021Y-130479155D01*
X159143238Y-130485044D01*
X159260809Y-130500522D01*
X159299999Y-130505682D01*
X159300000Y-130505682D01*
X159300001Y-130505682D01*
X159331352Y-130501554D01*
X159456762Y-130485044D01*
X159602841Y-130424536D01*
X159728282Y-130328282D01*
X159728281Y-130328282D01*
X159733430Y-130324332D01*
X159734490Y-130325713D01*
X159781584Y-130301719D01*
X159797071Y-130300500D01*
X160569757Y-130300500D01*
X160627948Y-130319407D01*
X160663912Y-130368907D01*
X160663912Y-130430093D01*
X160628546Y-130479155D01*
X160528209Y-130553207D01*
X160528207Y-130553209D01*
X160447654Y-130662352D01*
X160408239Y-130775000D01*
X162691761Y-130775000D01*
X162652345Y-130662352D01*
X162613949Y-130610329D01*
X162594607Y-130552281D01*
X162613078Y-130493951D01*
X162662307Y-130457617D01*
X162723491Y-130457159D01*
X162731481Y-130460072D01*
X162791767Y-130485044D01*
X162909338Y-130500522D01*
X162948528Y-130505682D01*
X162948529Y-130505682D01*
X162948530Y-130505682D01*
X162979881Y-130501554D01*
X163105291Y-130485044D01*
X163251370Y-130424536D01*
X163376811Y-130328282D01*
X163473065Y-130202841D01*
X163533573Y-130056762D01*
X163533573Y-130056755D01*
X163535252Y-130050494D01*
X163537733Y-130051158D01*
X163559355Y-130005843D01*
X163613130Y-129976655D01*
X163631158Y-129975000D01*
X164499999Y-129975000D01*
X164500000Y-129974999D01*
X164500000Y-129425001D01*
X165000000Y-129425001D01*
X165000000Y-129974999D01*
X165000001Y-129975000D01*
X165893058Y-129975000D01*
X165893064Y-129974999D01*
X165981443Y-129964386D01*
X166122095Y-129908919D01*
X166242564Y-129817564D01*
X166333919Y-129697095D01*
X166389386Y-129556443D01*
X166399999Y-129468064D01*
X166400000Y-129468058D01*
X166400000Y-129425001D01*
X166399999Y-129425000D01*
X165000001Y-129425000D01*
X165000000Y-129425001D01*
X164500000Y-129425001D01*
X164499999Y-129425000D01*
X163349532Y-129425000D01*
X163291341Y-129406093D01*
X163289265Y-129404542D01*
X163251370Y-129375464D01*
X163251368Y-129375463D01*
X163218275Y-129361755D01*
X163105291Y-129314956D01*
X163105288Y-129314955D01*
X163105287Y-129314955D01*
X162948530Y-129294318D01*
X162948528Y-129294318D01*
X162791770Y-129314955D01*
X162791762Y-129314957D01*
X162645690Y-129375462D01*
X162645689Y-129375462D01*
X162515099Y-129475668D01*
X162514038Y-129474286D01*
X162466945Y-129498281D01*
X162451458Y-129499500D01*
X159797071Y-129499500D01*
X159738880Y-129480593D01*
X159730312Y-129473276D01*
X159719254Y-129464791D01*
X159602841Y-129375464D01*
X159602840Y-129375463D01*
X159602838Y-129375462D01*
X159456766Y-129314957D01*
X159456758Y-129314955D01*
X159300001Y-129294318D01*
X159299999Y-129294318D01*
X159143241Y-129314955D01*
X159143233Y-129314957D01*
X158997161Y-129375462D01*
X158997160Y-129375462D01*
X158871723Y-129471713D01*
X158871713Y-129471723D01*
X158775462Y-129597160D01*
X158775462Y-129597161D01*
X158714957Y-129743233D01*
X158714955Y-129743241D01*
X158694318Y-129899999D01*
X157140759Y-129899999D01*
X157136922Y-129890270D01*
X157049723Y-129775282D01*
X157049717Y-129775276D01*
X156934729Y-129688077D01*
X156800468Y-129635132D01*
X156716104Y-129625000D01*
X156700001Y-129625000D01*
X156700000Y-129625001D01*
X156200000Y-129625001D01*
X156199999Y-129625000D01*
X156183895Y-129625000D01*
X156099531Y-129635132D01*
X155965270Y-129688077D01*
X155850282Y-129775276D01*
X155850276Y-129775282D01*
X155763076Y-129890272D01*
X155761581Y-129892932D01*
X155759852Y-129894524D01*
X155758985Y-129895668D01*
X155758779Y-129895512D01*
X155716578Y-129934385D01*
X155655804Y-129941470D01*
X155602473Y-129911479D01*
X155588991Y-129892921D01*
X155587367Y-129890033D01*
X155587364Y-129890025D01*
X155500078Y-129774922D01*
X155384975Y-129687636D01*
X155384974Y-129687635D01*
X155384972Y-129687634D01*
X155250591Y-129634641D01*
X155166148Y-129624500D01*
X155166144Y-129624500D01*
X154931900Y-129624500D01*
X154873709Y-129605593D01*
X154861902Y-129595509D01*
X154845913Y-129579520D01*
X154805942Y-129556443D01*
X154754589Y-129526794D01*
X154754588Y-129526793D01*
X154754587Y-129526793D01*
X154652727Y-129499500D01*
X154547273Y-129499500D01*
X154521148Y-129506500D01*
X154460046Y-129503297D01*
X154412497Y-129464791D01*
X154396662Y-129405691D01*
X154418589Y-129348569D01*
X154425506Y-129340886D01*
X154631715Y-129134676D01*
X154686230Y-129106901D01*
X154697448Y-129106017D01*
X154699996Y-129105681D01*
X154700000Y-129105682D01*
X154856762Y-129085044D01*
X155002841Y-129024536D01*
X155128282Y-128928282D01*
X155163845Y-128881935D01*
X163100000Y-128881935D01*
X163100000Y-128924999D01*
X163100001Y-128925000D01*
X164499999Y-128925000D01*
X164500000Y-128924999D01*
X164500000Y-128375001D01*
X165000000Y-128375001D01*
X165000000Y-128924999D01*
X165000001Y-128925000D01*
X166399999Y-128925000D01*
X166400000Y-128924999D01*
X166400000Y-128881941D01*
X166399999Y-128881935D01*
X166389386Y-128793556D01*
X166333919Y-128652904D01*
X166242564Y-128532435D01*
X166122095Y-128441080D01*
X165981443Y-128385613D01*
X165893064Y-128375000D01*
X165000001Y-128375000D01*
X165000000Y-128375001D01*
X164500000Y-128375001D01*
X164499999Y-128375000D01*
X163606935Y-128375000D01*
X163518556Y-128385613D01*
X163377904Y-128441080D01*
X163257435Y-128532435D01*
X163166080Y-128652904D01*
X163110613Y-128793556D01*
X163100000Y-128881935D01*
X155163845Y-128881935D01*
X155224536Y-128802841D01*
X155285044Y-128656762D01*
X155305682Y-128500000D01*
X155285044Y-128343238D01*
X155269992Y-128306899D01*
X155224537Y-128197161D01*
X155224537Y-128197160D01*
X155128286Y-128071723D01*
X155128285Y-128071722D01*
X155128282Y-128071718D01*
X155128277Y-128071714D01*
X155128276Y-128071713D01*
X155031116Y-127997160D01*
X155002841Y-127975464D01*
X155002840Y-127975463D01*
X155002838Y-127975462D01*
X154856766Y-127914957D01*
X154856758Y-127914955D01*
X154700001Y-127894318D01*
X154699999Y-127894318D01*
X154543241Y-127914955D01*
X154543233Y-127914957D01*
X154397161Y-127975462D01*
X154397160Y-127975462D01*
X154271723Y-128071713D01*
X154271713Y-128071723D01*
X154175463Y-128197160D01*
X154140449Y-128281691D01*
X154100712Y-128328217D01*
X154041217Y-128342500D01*
X153989167Y-128322689D01*
X153909975Y-128262636D01*
X153909974Y-128262635D01*
X153909972Y-128262634D01*
X153775591Y-128209641D01*
X153691148Y-128199500D01*
X153691144Y-128199500D01*
X153190283Y-128199500D01*
X153132092Y-128180593D01*
X153096128Y-128131093D01*
X153096128Y-128069907D01*
X153132092Y-128020407D01*
X153152397Y-128009036D01*
X153156820Y-128007203D01*
X153177106Y-127998801D01*
X153302547Y-127902547D01*
X153398801Y-127777106D01*
X153459309Y-127631027D01*
X153479947Y-127474265D01*
X153477425Y-127455112D01*
X153461565Y-127334640D01*
X153459309Y-127317503D01*
X153445863Y-127285042D01*
X153398802Y-127171426D01*
X153398802Y-127171425D01*
X153302551Y-127045988D01*
X153302550Y-127045987D01*
X153302547Y-127045983D01*
X153302542Y-127045979D01*
X153302541Y-127045978D01*
X153232466Y-126992208D01*
X153197810Y-126941784D01*
X153199411Y-126880619D01*
X153222730Y-126843662D01*
X153936898Y-126129496D01*
X153991414Y-126101719D01*
X154006901Y-126100500D01*
X163725501Y-126100500D01*
X163783692Y-126119407D01*
X163819656Y-126168907D01*
X163823827Y-126195248D01*
X163824359Y-126195220D01*
X163824501Y-126197870D01*
X163824501Y-126197872D01*
X163825516Y-126207314D01*
X163830908Y-126257480D01*
X163830909Y-126257485D01*
X163881202Y-126392329D01*
X163967152Y-126507143D01*
X163967454Y-126507546D01*
X163967457Y-126507548D01*
X163967458Y-126507549D01*
X164082670Y-126593797D01*
X164217511Y-126644089D01*
X164217512Y-126644089D01*
X164217517Y-126644091D01*
X164277127Y-126650500D01*
X164922872Y-126650499D01*
X164982483Y-126644091D01*
X165049907Y-126618943D01*
X165117329Y-126593797D01*
X165117329Y-126593796D01*
X165117331Y-126593796D01*
X165232546Y-126507546D01*
X165318796Y-126392331D01*
X165332063Y-126356762D01*
X165363782Y-126271718D01*
X165369091Y-126257483D01*
X165375500Y-126197873D01*
X165375499Y-125702128D01*
X165369091Y-125642517D01*
X165362744Y-125625500D01*
X165318797Y-125507670D01*
X165232549Y-125392458D01*
X165232548Y-125392457D01*
X165232546Y-125392454D01*
X165206388Y-125372872D01*
X165117329Y-125306202D01*
X164982488Y-125255910D01*
X164982483Y-125255909D01*
X164982481Y-125255908D01*
X164982477Y-125255908D01*
X164951249Y-125252550D01*
X164922873Y-125249500D01*
X164922870Y-125249500D01*
X164277133Y-125249500D01*
X164277124Y-125249501D01*
X164215079Y-125256170D01*
X164155201Y-125243589D01*
X164114154Y-125198216D01*
X164105500Y-125157737D01*
X164105500Y-125092262D01*
X164124407Y-125034071D01*
X164173907Y-124998107D01*
X164215083Y-124993829D01*
X164217515Y-124994090D01*
X164217517Y-124994091D01*
X164277127Y-125000500D01*
X164922872Y-125000499D01*
X164982483Y-124994091D01*
X165049907Y-124968943D01*
X165117329Y-124943797D01*
X165117329Y-124943796D01*
X165117331Y-124943796D01*
X165232546Y-124857546D01*
X165318796Y-124742331D01*
X165341049Y-124682669D01*
X165369089Y-124607488D01*
X165369088Y-124607488D01*
X165369091Y-124607483D01*
X165375500Y-124547873D01*
X165375499Y-124052128D01*
X165369091Y-123992517D01*
X165362744Y-123975500D01*
X165318797Y-123857670D01*
X165232549Y-123742458D01*
X165232548Y-123742457D01*
X165232546Y-123742454D01*
X165224154Y-123736172D01*
X165143922Y-123676110D01*
X165108669Y-123626102D01*
X165109543Y-123564922D01*
X165143918Y-123517607D01*
X165257546Y-123432546D01*
X165343796Y-123317331D01*
X165394091Y-123182483D01*
X165400500Y-123122873D01*
X165400499Y-122477128D01*
X165394091Y-122417517D01*
X165380547Y-122381204D01*
X165343797Y-122282670D01*
X165257549Y-122167458D01*
X165257548Y-122167457D01*
X165257546Y-122167454D01*
X165254626Y-122165268D01*
X165142329Y-122081202D01*
X165007488Y-122030910D01*
X165007483Y-122030909D01*
X165007481Y-122030908D01*
X165007477Y-122030908D01*
X164976249Y-122027550D01*
X164947873Y-122024500D01*
X164947870Y-122024500D01*
X164904500Y-122024500D01*
X164846309Y-122005593D01*
X164810345Y-121956093D01*
X164805500Y-121925500D01*
X164805500Y-121861899D01*
X164824407Y-121803708D01*
X164834490Y-121791901D01*
X164838050Y-121788342D01*
X164895646Y-121675304D01*
X164910500Y-121581519D01*
X164910499Y-120448482D01*
X164910499Y-120448478D01*
X164910498Y-120448476D01*
X164910438Y-120448100D01*
X164895646Y-120354696D01*
X164838050Y-120241658D01*
X164748342Y-120151950D01*
X164635304Y-120094354D01*
X164635305Y-120094354D01*
X164541522Y-120079500D01*
X164068482Y-120079500D01*
X164013100Y-120088271D01*
X163952668Y-120078697D01*
X163922798Y-120055321D01*
X163892998Y-120020931D01*
X163869179Y-119964572D01*
X163883037Y-119904977D01*
X163929277Y-119864908D01*
X163967816Y-119857099D01*
X165047867Y-119857099D01*
X165047872Y-119857099D01*
X165107483Y-119850691D01*
X165223161Y-119807546D01*
X165242329Y-119800397D01*
X165242329Y-119800396D01*
X165242331Y-119800396D01*
X165357546Y-119714146D01*
X165443796Y-119598931D01*
X165494091Y-119464083D01*
X165500500Y-119404473D01*
X165500499Y-119317855D01*
X165501507Y-119303764D01*
X165505500Y-119275997D01*
X165505500Y-115124003D01*
X165505500Y-115124000D01*
X165498518Y-115059059D01*
X165494305Y-115039694D01*
X165487318Y-115007574D01*
X165487316Y-115007569D01*
X165487312Y-115007548D01*
X165476354Y-114969342D01*
X165419675Y-114872429D01*
X165373920Y-114819625D01*
X165329187Y-114777447D01*
X165324864Y-114775249D01*
X165229114Y-114726562D01*
X165229107Y-114726559D01*
X165162078Y-114706877D01*
X165162068Y-114706875D01*
X165097762Y-114697629D01*
X165076000Y-114694500D01*
X165075999Y-114694500D01*
X158745373Y-114694500D01*
X158687182Y-114675593D01*
X158665284Y-114653695D01*
X158591966Y-114552782D01*
X155829495Y-111790310D01*
X155801718Y-111735793D01*
X155800499Y-111720306D01*
X155800499Y-109480139D01*
X155800499Y-109480136D01*
X155797585Y-109455009D01*
X155752206Y-109352235D01*
X155672765Y-109272794D01*
X155569991Y-109227415D01*
X155569990Y-109227414D01*
X155569988Y-109227414D01*
X155544868Y-109224500D01*
X152455139Y-109224500D01*
X152455136Y-109224501D01*
X152430009Y-109227414D01*
X152327235Y-109272794D01*
X152247794Y-109352235D01*
X152202414Y-109455011D01*
X152199500Y-109480130D01*
X152199500Y-109998146D01*
X152180593Y-110056337D01*
X152131093Y-110092301D01*
X152069907Y-110092301D01*
X152020407Y-110056337D01*
X152014764Y-110047647D01*
X152012952Y-110044510D01*
X151991815Y-110007898D01*
X151984038Y-109998146D01*
X151823565Y-109796918D01*
X151823559Y-109796912D01*
X151625747Y-109613370D01*
X151625744Y-109613368D01*
X151625741Y-109613365D01*
X151402775Y-109461349D01*
X151389610Y-109455009D01*
X151159643Y-109344262D01*
X150901776Y-109264721D01*
X150901773Y-109264720D01*
X150901772Y-109264720D01*
X150901767Y-109264719D01*
X150901766Y-109264719D01*
X150634932Y-109224500D01*
X150634929Y-109224500D01*
X150365071Y-109224500D01*
X150365067Y-109224500D01*
X150098233Y-109264719D01*
X150098223Y-109264721D01*
X149840358Y-109344262D01*
X149597233Y-109461345D01*
X149597229Y-109461347D01*
X149597226Y-109461349D01*
X149374259Y-109613365D01*
X149374252Y-109613370D01*
X149176440Y-109796912D01*
X149176434Y-109796918D01*
X149008191Y-110007889D01*
X149008187Y-110007894D01*
X149008185Y-110007898D01*
X148980219Y-110056337D01*
X148873258Y-110241599D01*
X148873254Y-110241608D01*
X148842156Y-110320844D01*
X148803296Y-110368105D01*
X148744079Y-110383498D01*
X148687123Y-110361144D01*
X148657844Y-110320844D01*
X148626745Y-110241608D01*
X148626743Y-110241602D01*
X148491815Y-110007898D01*
X148484038Y-109998146D01*
X148323565Y-109796918D01*
X148323559Y-109796912D01*
X148125747Y-109613370D01*
X148125744Y-109613368D01*
X148125741Y-109613365D01*
X147902775Y-109461349D01*
X147889610Y-109455009D01*
X147659643Y-109344262D01*
X147401776Y-109264721D01*
X147401773Y-109264720D01*
X147401772Y-109264720D01*
X147401767Y-109264719D01*
X147401766Y-109264719D01*
X147134932Y-109224500D01*
X147134929Y-109224500D01*
X146865071Y-109224500D01*
X146865067Y-109224500D01*
X146598233Y-109264719D01*
X146598223Y-109264721D01*
X146340358Y-109344262D01*
X146097233Y-109461345D01*
X146097229Y-109461347D01*
X146097226Y-109461349D01*
X145874259Y-109613365D01*
X145874252Y-109613370D01*
X145782966Y-109698072D01*
X145727449Y-109723792D01*
X145715629Y-109724500D01*
X140981454Y-109724500D01*
X140981430Y-109724499D01*
X140977352Y-109724499D01*
X140772649Y-109724499D01*
X140772646Y-109724499D01*
X140570467Y-109756522D01*
X140375788Y-109819776D01*
X140193390Y-109912712D01*
X140193386Y-109912714D01*
X140027785Y-110033030D01*
X140027779Y-110033035D01*
X139883033Y-110177780D01*
X139883034Y-110177781D01*
X136083033Y-113977782D01*
X135962711Y-114143391D01*
X135916246Y-114234585D01*
X135916245Y-114234584D01*
X135869424Y-114326480D01*
X135868580Y-114329474D01*
X135806522Y-114520467D01*
X135776998Y-114706872D01*
X135776998Y-114706876D01*
X135776347Y-114710985D01*
X135748572Y-114765502D01*
X135694056Y-114793281D01*
X135678566Y-114794500D01*
X127924000Y-114794500D01*
X127878411Y-114799401D01*
X127859048Y-114801483D01*
X127807574Y-114812681D01*
X127807554Y-114812686D01*
X127807548Y-114812688D01*
X127769342Y-114823646D01*
X127685936Y-114872426D01*
X127672426Y-114880327D01*
X127619625Y-114926079D01*
X127619624Y-114926080D01*
X127577446Y-114970814D01*
X127526562Y-115070885D01*
X127526559Y-115070892D01*
X127513750Y-115114516D01*
X127479214Y-115165022D01*
X127421587Y-115185583D01*
X127362880Y-115168344D01*
X127330552Y-115131569D01*
X127328050Y-115126658D01*
X127238342Y-115036950D01*
X127125304Y-114979354D01*
X127125305Y-114979354D01*
X127031522Y-114964500D01*
X126558479Y-114964500D01*
X126558476Y-114964501D01*
X126464700Y-114979352D01*
X126464695Y-114979354D01*
X126351659Y-115036949D01*
X126261949Y-115126659D01*
X126204354Y-115239694D01*
X126192270Y-115315988D01*
X126164492Y-115370504D01*
X126109975Y-115398281D01*
X126094489Y-115399500D01*
X126065892Y-115399500D01*
X125934107Y-115399500D01*
X125856200Y-115420374D01*
X125806809Y-115433609D01*
X125692690Y-115499496D01*
X125692684Y-115499500D01*
X125692685Y-115499501D01*
X124992686Y-116199500D01*
X124992685Y-116199499D01*
X124899500Y-116292685D01*
X124899496Y-116292690D01*
X124833609Y-116406809D01*
X124817610Y-116466519D01*
X124799500Y-116534108D01*
X124100500Y-116534108D01*
X124100500Y-106024996D01*
X142994659Y-106024996D01*
X142994659Y-106025003D01*
X143013974Y-106221126D01*
X143013975Y-106221129D01*
X143071187Y-106409730D01*
X143071188Y-106409732D01*
X143142218Y-106542618D01*
X143164090Y-106583538D01*
X143164092Y-106583540D01*
X143164093Y-106583542D01*
X143289112Y-106735878D01*
X143289121Y-106735887D01*
X143441457Y-106860906D01*
X143441462Y-106860910D01*
X143615273Y-106953814D01*
X143803868Y-107011024D01*
X143803870Y-107011024D01*
X143803873Y-107011025D01*
X143999997Y-107030341D01*
X144000000Y-107030341D01*
X144000003Y-107030341D01*
X144196126Y-107011025D01*
X144196127Y-107011024D01*
X144196132Y-107011024D01*
X144384727Y-106953814D01*
X144558538Y-106860910D01*
X144710883Y-106735883D01*
X144835910Y-106583538D01*
X144928814Y-106409727D01*
X144986024Y-106221132D01*
X145005341Y-106025000D01*
X145005341Y-106024996D01*
X155994659Y-106024996D01*
X155994659Y-106025003D01*
X156013974Y-106221126D01*
X156013975Y-106221129D01*
X156071187Y-106409730D01*
X156071188Y-106409732D01*
X156142218Y-106542618D01*
X156164090Y-106583538D01*
X156164092Y-106583540D01*
X156164093Y-106583542D01*
X156289112Y-106735878D01*
X156289121Y-106735887D01*
X156441457Y-106860906D01*
X156441462Y-106860910D01*
X156615273Y-106953814D01*
X156803868Y-107011024D01*
X156803870Y-107011024D01*
X156803873Y-107011025D01*
X156999997Y-107030341D01*
X157000000Y-107030341D01*
X157000003Y-107030341D01*
X157196126Y-107011025D01*
X157196127Y-107011024D01*
X157196132Y-107011024D01*
X157384727Y-106953814D01*
X157558538Y-106860910D01*
X157710883Y-106735883D01*
X157835910Y-106583538D01*
X157928814Y-106409727D01*
X157986024Y-106221132D01*
X158005341Y-106025000D01*
X158005341Y-106024996D01*
X157986025Y-105828873D01*
X157986024Y-105828870D01*
X157986024Y-105828868D01*
X157928814Y-105640273D01*
X157835910Y-105466462D01*
X157835906Y-105466457D01*
X157710887Y-105314121D01*
X157710878Y-105314112D01*
X157558542Y-105189093D01*
X157558540Y-105189092D01*
X157558538Y-105189090D01*
X157517618Y-105167218D01*
X157384732Y-105096188D01*
X157384730Y-105096187D01*
X157196129Y-105038975D01*
X157196126Y-105038974D01*
X157000003Y-105019659D01*
X156999997Y-105019659D01*
X156803873Y-105038974D01*
X156803870Y-105038975D01*
X156615269Y-105096187D01*
X156615267Y-105096188D01*
X156441467Y-105189087D01*
X156441457Y-105189093D01*
X156289121Y-105314112D01*
X156289112Y-105314121D01*
X156164093Y-105466457D01*
X156164087Y-105466467D01*
X156071188Y-105640267D01*
X156071187Y-105640269D01*
X156013975Y-105828870D01*
X156013974Y-105828873D01*
X155994659Y-106024996D01*
X145005341Y-106024996D01*
X144986025Y-105828873D01*
X144986024Y-105828870D01*
X144986024Y-105828868D01*
X144928814Y-105640273D01*
X144835910Y-105466462D01*
X144835906Y-105466457D01*
X144710887Y-105314121D01*
X144710878Y-105314112D01*
X144558542Y-105189093D01*
X144558540Y-105189092D01*
X144558538Y-105189090D01*
X144517618Y-105167218D01*
X144384732Y-105096188D01*
X144384730Y-105096187D01*
X144196129Y-105038975D01*
X144196126Y-105038974D01*
X144000003Y-105019659D01*
X143999997Y-105019659D01*
X143803873Y-105038974D01*
X143803870Y-105038975D01*
X143615269Y-105096187D01*
X143615267Y-105096188D01*
X143441467Y-105189087D01*
X143441457Y-105189093D01*
X143289121Y-105314112D01*
X143289112Y-105314121D01*
X143164093Y-105466457D01*
X143164087Y-105466467D01*
X143071188Y-105640267D01*
X143071187Y-105640269D01*
X143013975Y-105828870D01*
X143013974Y-105828873D01*
X142994659Y-106024996D01*
X124100500Y-106024996D01*
X124100500Y-103399500D01*
X124119407Y-103341309D01*
X124168907Y-103305345D01*
X124199500Y-103300500D01*
X167000500Y-103300500D01*
X167058691Y-103319407D01*
G37*
%TD.AperFunction*%
%TD*%
M02*
