%TF.GenerationSoftware,KiCad,Pcbnew,8.0.3+1*%
%TF.CreationDate,2024-07-24T15:48:46+00:00*%
%TF.ProjectId,TFESC02,54464553-4330-4322-9e6b-696361645f70,01A*%
%TF.SameCoordinates,Original*%
%TF.FileFunction,Legend,Bot*%
%TF.FilePolarity,Positive*%
%FSLAX46Y46*%
G04 Gerber Fmt 4.6, Leading zero omitted, Abs format (unit mm)*
G04 Created by KiCad (PCBNEW 8.0.3+1) date 2024-07-24 15:48:46*
%MOMM*%
%LPD*%
G01*
G04 APERTURE LIST*
%ADD10C,0.000000*%
%ADD11C,0.100000*%
%ADD12C,0.400000*%
%ADD13C,0.150000*%
%ADD14C,0.120000*%
G04 APERTURE END LIST*
D10*
G36*
X164803636Y-110042273D02*
G01*
X164486363Y-110042273D01*
X164486363Y-109725000D01*
X164803636Y-109725000D01*
X164803636Y-110042273D01*
G37*
G36*
X159410000Y-106235001D02*
G01*
X159092727Y-106235001D01*
X159092727Y-105917728D01*
X159410000Y-105917728D01*
X159410000Y-106235001D01*
G37*
G36*
X165438181Y-111311364D02*
G01*
X165120909Y-111311364D01*
X165120909Y-110994091D01*
X165438181Y-110994091D01*
X165438181Y-111311364D01*
G37*
G36*
X165755454Y-107186819D02*
G01*
X165438181Y-107186819D01*
X165438181Y-106869546D01*
X165755454Y-106869546D01*
X165755454Y-107186819D01*
G37*
G36*
X162900000Y-113532273D02*
G01*
X162582727Y-113532273D01*
X162582727Y-113215000D01*
X162900000Y-113215000D01*
X162900000Y-113532273D01*
G37*
G36*
X163217273Y-109407728D02*
G01*
X162900000Y-109407728D01*
X162900000Y-109090455D01*
X163217273Y-109090455D01*
X163217273Y-109407728D01*
G37*
G36*
X162582727Y-112580455D02*
G01*
X162265454Y-112580455D01*
X162265454Y-112263182D01*
X162582727Y-112263182D01*
X162582727Y-112580455D01*
G37*
G36*
X135675347Y-110025000D02*
G01*
X136350000Y-110025000D01*
X136350000Y-109440958D01*
X136619850Y-109440958D01*
X136619850Y-110916845D01*
X136350000Y-110916845D01*
X136350000Y-110278009D01*
X135675347Y-110278009D01*
X135675347Y-110916845D01*
X135405434Y-110916845D01*
X135405434Y-109440958D01*
X135675347Y-109440958D01*
X135675347Y-110025000D01*
G37*
G36*
X161948182Y-107504091D02*
G01*
X161630909Y-107504091D01*
X161630909Y-107186819D01*
X161948182Y-107186819D01*
X161948182Y-107504091D01*
G37*
G36*
X160361818Y-111945909D02*
G01*
X160044545Y-111945909D01*
X160044545Y-111628637D01*
X160361818Y-111628637D01*
X160361818Y-111945909D01*
G37*
G36*
X160679091Y-106235001D02*
G01*
X160361818Y-106235001D01*
X160361818Y-105917728D01*
X160679091Y-105917728D01*
X160679091Y-106235001D01*
G37*
G36*
X162582727Y-107504091D02*
G01*
X162265454Y-107504091D01*
X162265454Y-107186819D01*
X162582727Y-107186819D01*
X162582727Y-107504091D01*
G37*
G36*
X163217273Y-107504091D02*
G01*
X162900000Y-107504091D01*
X162900000Y-107186819D01*
X163217273Y-107186819D01*
X163217273Y-107504091D01*
G37*
G36*
X164169091Y-110042273D02*
G01*
X163851818Y-110042273D01*
X163851818Y-109725000D01*
X164169091Y-109725000D01*
X164169091Y-110042273D01*
G37*
G36*
X165438181Y-110042273D02*
G01*
X165120909Y-110042273D01*
X165120909Y-109725000D01*
X165438181Y-109725000D01*
X165438181Y-110042273D01*
G37*
G36*
X163534545Y-107821364D02*
G01*
X163217273Y-107821364D01*
X163217273Y-107504091D01*
X163534545Y-107504091D01*
X163534545Y-107821364D01*
G37*
G36*
X158775455Y-108138637D02*
G01*
X158458182Y-108138637D01*
X158458182Y-107821364D01*
X158775455Y-107821364D01*
X158775455Y-108138637D01*
G37*
G36*
X165120909Y-112263182D02*
G01*
X164803636Y-112263182D01*
X164803636Y-111945909D01*
X165120909Y-111945909D01*
X165120909Y-112263182D01*
G37*
G36*
X161630909Y-110676819D02*
G01*
X161313636Y-110676819D01*
X161313636Y-110359546D01*
X161630909Y-110359546D01*
X161630909Y-110676819D01*
G37*
G36*
X158775455Y-113215000D02*
G01*
X158458182Y-113215000D01*
X158458182Y-112897727D01*
X158775455Y-112897727D01*
X158775455Y-113215000D01*
G37*
G36*
X164486363Y-110042273D02*
G01*
X164169091Y-110042273D01*
X164169091Y-109725000D01*
X164486363Y-109725000D01*
X164486363Y-110042273D01*
G37*
G36*
X165120909Y-106235001D02*
G01*
X164803636Y-106235001D01*
X164803636Y-105917728D01*
X165120909Y-105917728D01*
X165120909Y-106235001D01*
G37*
G36*
X164169091Y-111311364D02*
G01*
X163851818Y-111311364D01*
X163851818Y-110994091D01*
X164169091Y-110994091D01*
X164169091Y-111311364D01*
G37*
G36*
X160996364Y-111311364D02*
G01*
X160679091Y-111311364D01*
X160679091Y-110994091D01*
X160996364Y-110994091D01*
X160996364Y-111311364D01*
G37*
G36*
X166389999Y-107821364D02*
G01*
X166072727Y-107821364D01*
X166072727Y-107504091D01*
X166389999Y-107504091D01*
X166389999Y-107821364D01*
G37*
G36*
X158775455Y-107186819D02*
G01*
X158458182Y-107186819D01*
X158458182Y-106869546D01*
X158775455Y-106869546D01*
X158775455Y-107186819D01*
G37*
G36*
X166389999Y-109090455D02*
G01*
X166072727Y-109090455D01*
X166072727Y-108773182D01*
X166389999Y-108773182D01*
X166389999Y-109090455D01*
G37*
G36*
X161948182Y-112580455D02*
G01*
X161630909Y-112580455D01*
X161630909Y-112263182D01*
X161948182Y-112263182D01*
X161948182Y-112580455D01*
G37*
G36*
X158775455Y-112580455D02*
G01*
X158458182Y-112580455D01*
X158458182Y-112263182D01*
X158775455Y-112263182D01*
X158775455Y-112580455D01*
G37*
G36*
X159727273Y-110676819D02*
G01*
X159410000Y-110676819D01*
X159410000Y-110359546D01*
X159727273Y-110359546D01*
X159727273Y-110676819D01*
G37*
G36*
X166072727Y-113849545D02*
G01*
X165755454Y-113849545D01*
X165755454Y-113532273D01*
X166072727Y-113532273D01*
X166072727Y-113849545D01*
G37*
G36*
X163534545Y-111945909D02*
G01*
X163217273Y-111945909D01*
X163217273Y-111628637D01*
X163534545Y-111628637D01*
X163534545Y-111945909D01*
G37*
G36*
X160044545Y-110676819D02*
G01*
X159727273Y-110676819D01*
X159727273Y-110359546D01*
X160044545Y-110359546D01*
X160044545Y-110676819D01*
G37*
G36*
X165438181Y-110359546D02*
G01*
X165120909Y-110359546D01*
X165120909Y-110042273D01*
X165438181Y-110042273D01*
X165438181Y-110359546D01*
G37*
G36*
X158775455Y-111945909D02*
G01*
X158458182Y-111945909D01*
X158458182Y-111628637D01*
X158775455Y-111628637D01*
X158775455Y-111945909D01*
G37*
G36*
X162582727Y-109090455D02*
G01*
X162265454Y-109090455D01*
X162265454Y-108773182D01*
X162582727Y-108773182D01*
X162582727Y-109090455D01*
G37*
G36*
X166072727Y-109407728D02*
G01*
X165755454Y-109407728D01*
X165755454Y-109090455D01*
X166072727Y-109090455D01*
X166072727Y-109407728D01*
G37*
D11*
X167150000Y-146200000D02*
X155150000Y-146200000D01*
D10*
G36*
X165438181Y-112263182D02*
G01*
X165120909Y-112263182D01*
X165120909Y-111945909D01*
X165438181Y-111945909D01*
X165438181Y-112263182D01*
G37*
G36*
X161948182Y-111311364D02*
G01*
X161630909Y-111311364D01*
X161630909Y-110994091D01*
X161948182Y-110994091D01*
X161948182Y-111311364D01*
G37*
G36*
X160044545Y-113849545D02*
G01*
X159727273Y-113849545D01*
X159727273Y-113532273D01*
X160044545Y-113532273D01*
X160044545Y-113849545D01*
G37*
G36*
X129489630Y-110916845D02*
G01*
X129219737Y-110916845D01*
X129219737Y-110368690D01*
X128945693Y-110368690D01*
X128661053Y-110916845D01*
X128359496Y-110916845D01*
X128692641Y-110296973D01*
X128677837Y-110289447D01*
X128663462Y-110281615D01*
X128649515Y-110273476D01*
X128635996Y-110265032D01*
X128622905Y-110256281D01*
X128610241Y-110247226D01*
X128598005Y-110237865D01*
X128586197Y-110228199D01*
X128574817Y-110218228D01*
X128563863Y-110207952D01*
X128553337Y-110197372D01*
X128543238Y-110186488D01*
X128533567Y-110175301D01*
X128524321Y-110163809D01*
X128515503Y-110152014D01*
X128507112Y-110139915D01*
X128499202Y-110127442D01*
X128491801Y-110114533D01*
X128484909Y-110101186D01*
X128478526Y-110087404D01*
X128472652Y-110073184D01*
X128467288Y-110058528D01*
X128462434Y-110043436D01*
X128458090Y-110027906D01*
X128454256Y-110011940D01*
X128450933Y-109995537D01*
X128448120Y-109978696D01*
X128445818Y-109961419D01*
X128444028Y-109943705D01*
X128442748Y-109925554D01*
X128441980Y-109906965D01*
X128441923Y-109902732D01*
X128724306Y-109902732D01*
X128724596Y-109917517D01*
X128725467Y-109931832D01*
X128726918Y-109945678D01*
X128728950Y-109959055D01*
X128731563Y-109971962D01*
X128734755Y-109984400D01*
X128738529Y-109996369D01*
X128742883Y-110007868D01*
X128747818Y-110018898D01*
X128753333Y-110029458D01*
X128759429Y-110039549D01*
X128766105Y-110049171D01*
X128773363Y-110058323D01*
X128781201Y-110067006D01*
X128789619Y-110075220D01*
X128798618Y-110082964D01*
X128808198Y-110090239D01*
X128818359Y-110097044D01*
X128829101Y-110103380D01*
X128840423Y-110109247D01*
X128852326Y-110114645D01*
X128864810Y-110119573D01*
X128877875Y-110124031D01*
X128891520Y-110128021D01*
X128920554Y-110134591D01*
X128951911Y-110139285D01*
X128985591Y-110142101D01*
X129021595Y-110143039D01*
X129219736Y-110143039D01*
X129219736Y-109666581D01*
X129011039Y-109666581D01*
X128992392Y-109666816D01*
X128974404Y-109667520D01*
X128957075Y-109668693D01*
X128940404Y-109670336D01*
X128924392Y-109672448D01*
X128909038Y-109675029D01*
X128894344Y-109678080D01*
X128880308Y-109681601D01*
X128866931Y-109685591D01*
X128854214Y-109690050D01*
X128842155Y-109694979D01*
X128830755Y-109700378D01*
X128820015Y-109706246D01*
X128809933Y-109712583D01*
X128800511Y-109719391D01*
X128791749Y-109726667D01*
X128783586Y-109734400D01*
X128775949Y-109742569D01*
X128768838Y-109751173D01*
X128762253Y-109760214D01*
X128756195Y-109769691D01*
X128750662Y-109779604D01*
X128745656Y-109789953D01*
X128741176Y-109800738D01*
X128737223Y-109811960D01*
X128733797Y-109823618D01*
X128730897Y-109835713D01*
X128728525Y-109848243D01*
X128726679Y-109861211D01*
X128725361Y-109874615D01*
X128724570Y-109888455D01*
X128724306Y-109902732D01*
X128441923Y-109902732D01*
X128441724Y-109887939D01*
X128442256Y-109860696D01*
X128443849Y-109834301D01*
X128446505Y-109808752D01*
X128450223Y-109784051D01*
X128455004Y-109760197D01*
X128460848Y-109737191D01*
X128467754Y-109715032D01*
X128475723Y-109693721D01*
X128484754Y-109673258D01*
X128494849Y-109653643D01*
X128506006Y-109634876D01*
X128518226Y-109616957D01*
X128531509Y-109599887D01*
X128545856Y-109583665D01*
X128561265Y-109568291D01*
X128577738Y-109553765D01*
X128595127Y-109540112D01*
X128613301Y-109527337D01*
X128632259Y-109515443D01*
X128652000Y-109504428D01*
X128672525Y-109494294D01*
X128693832Y-109485040D01*
X128715923Y-109476667D01*
X128738795Y-109469174D01*
X128762449Y-109462562D01*
X128786884Y-109456832D01*
X128812101Y-109451982D01*
X128838098Y-109448014D01*
X128864875Y-109444927D01*
X128892432Y-109442722D01*
X128920768Y-109441399D01*
X128949883Y-109440958D01*
X129489630Y-109440958D01*
X129489630Y-110143039D01*
X129489630Y-110916845D01*
G37*
G36*
X164169091Y-109725000D02*
G01*
X163851818Y-109725000D01*
X163851818Y-109407728D01*
X164169091Y-109407728D01*
X164169091Y-109725000D01*
G37*
G36*
X160679091Y-110042273D02*
G01*
X160361818Y-110042273D01*
X160361818Y-109725000D01*
X160679091Y-109725000D01*
X160679091Y-110042273D01*
G37*
G36*
X162265454Y-109725000D02*
G01*
X161948182Y-109725000D01*
X161948182Y-109407728D01*
X162265454Y-109407728D01*
X162265454Y-109725000D01*
G37*
G36*
X161630909Y-109090455D02*
G01*
X161313636Y-109090455D01*
X161313636Y-108773182D01*
X161630909Y-108773182D01*
X161630909Y-109090455D01*
G37*
G36*
X160361818Y-106235001D02*
G01*
X160044545Y-106235001D01*
X160044545Y-105917728D01*
X160361818Y-105917728D01*
X160361818Y-106235001D01*
G37*
G36*
X159727273Y-113215000D02*
G01*
X159410000Y-113215000D01*
X159410000Y-112897727D01*
X159727273Y-112897727D01*
X159727273Y-113215000D01*
G37*
G36*
X166072727Y-112263182D02*
G01*
X165755454Y-112263182D01*
X165755454Y-111945909D01*
X166072727Y-111945909D01*
X166072727Y-112263182D01*
G37*
G36*
X160044545Y-108773182D02*
G01*
X159727273Y-108773182D01*
X159727273Y-108455910D01*
X160044545Y-108455910D01*
X160044545Y-108773182D01*
G37*
G36*
X164169091Y-109090455D02*
G01*
X163851818Y-109090455D01*
X163851818Y-108773182D01*
X164169091Y-108773182D01*
X164169091Y-109090455D01*
G37*
G36*
X165755454Y-112897727D02*
G01*
X165438181Y-112897727D01*
X165438181Y-112580455D01*
X165755454Y-112580455D01*
X165755454Y-112897727D01*
G37*
G36*
X161630909Y-107186819D02*
G01*
X161313636Y-107186819D01*
X161313636Y-106869546D01*
X161630909Y-106869546D01*
X161630909Y-107186819D01*
G37*
G36*
X128260463Y-110916845D02*
G01*
X127990570Y-110916845D01*
X127878850Y-110278009D01*
X127410775Y-110278009D01*
X127364364Y-110016572D01*
X127832438Y-110016572D01*
X127775549Y-109702399D01*
X127172511Y-109702399D01*
X127126138Y-109440958D01*
X128001087Y-109440958D01*
X128260463Y-110916845D01*
G37*
G36*
X165120909Y-111311364D02*
G01*
X164803636Y-111311364D01*
X164803636Y-110994091D01*
X165120909Y-110994091D01*
X165120909Y-111311364D01*
G37*
G36*
X159092727Y-108773182D02*
G01*
X158775455Y-108773182D01*
X158775455Y-108455910D01*
X159092727Y-108455910D01*
X159092727Y-108773182D01*
G37*
G36*
X161313636Y-113849545D02*
G01*
X160996364Y-113849545D01*
X160996364Y-113532273D01*
X161313636Y-113532273D01*
X161313636Y-113849545D01*
G37*
G36*
X159410000Y-108138637D02*
G01*
X159092727Y-108138637D01*
X159092727Y-107821364D01*
X159410000Y-107821364D01*
X159410000Y-108138637D01*
G37*
G36*
X166389999Y-106869546D02*
G01*
X166072727Y-106869546D01*
X166072727Y-106552273D01*
X166389999Y-106552273D01*
X166389999Y-106869546D01*
G37*
G36*
X160679091Y-113215000D02*
G01*
X160361818Y-113215000D01*
X160361818Y-112897727D01*
X160679091Y-112897727D01*
X160679091Y-113215000D01*
G37*
G36*
X161630909Y-113532273D02*
G01*
X161313636Y-113532273D01*
X161313636Y-113215000D01*
X161630909Y-113215000D01*
X161630909Y-113532273D01*
G37*
G36*
X163217273Y-111311364D02*
G01*
X162900000Y-111311364D01*
X162900000Y-110994091D01*
X163217273Y-110994091D01*
X163217273Y-111311364D01*
G37*
G36*
X165438181Y-111945909D02*
G01*
X165120909Y-111945909D01*
X165120909Y-111628637D01*
X165438181Y-111628637D01*
X165438181Y-111945909D01*
G37*
G36*
X160996364Y-110676819D02*
G01*
X160679091Y-110676819D01*
X160679091Y-110359546D01*
X160996364Y-110359546D01*
X160996364Y-110676819D01*
G37*
G36*
X166389999Y-108138637D02*
G01*
X166072727Y-108138637D01*
X166072727Y-107821364D01*
X166389999Y-107821364D01*
X166389999Y-108138637D01*
G37*
G36*
X164486363Y-107821364D02*
G01*
X164169091Y-107821364D01*
X164169091Y-107504091D01*
X164486363Y-107504091D01*
X164486363Y-107821364D01*
G37*
G36*
X166389999Y-110042273D02*
G01*
X166072727Y-110042273D01*
X166072727Y-109725000D01*
X166389999Y-109725000D01*
X166389999Y-110042273D01*
G37*
G36*
X159727273Y-108138637D02*
G01*
X159410000Y-108138637D01*
X159410000Y-107821364D01*
X159727273Y-107821364D01*
X159727273Y-108138637D01*
G37*
G36*
X159727273Y-113849545D02*
G01*
X159410000Y-113849545D01*
X159410000Y-113532273D01*
X159727273Y-113532273D01*
X159727273Y-113849545D01*
G37*
G36*
X163217273Y-112263182D02*
G01*
X162900000Y-112263182D01*
X162900000Y-111945909D01*
X163217273Y-111945909D01*
X163217273Y-112263182D01*
G37*
G36*
X165438181Y-106235001D02*
G01*
X165120909Y-106235001D01*
X165120909Y-105917728D01*
X165438181Y-105917728D01*
X165438181Y-106235001D01*
G37*
G36*
X163851818Y-110994091D02*
G01*
X163534545Y-110994091D01*
X163534545Y-110676819D01*
X163851818Y-110676819D01*
X163851818Y-110994091D01*
G37*
G36*
X163217273Y-110676819D02*
G01*
X162900000Y-110676819D01*
X162900000Y-110359546D01*
X163217273Y-110359546D01*
X163217273Y-110676819D01*
G37*
G36*
X159410000Y-113215000D02*
G01*
X159092727Y-113215000D01*
X159092727Y-112897727D01*
X159410000Y-112897727D01*
X159410000Y-113215000D01*
G37*
G36*
X126883682Y-109087827D02*
G01*
X126613789Y-109087827D01*
X126354450Y-107611936D01*
X126624305Y-107611936D01*
X126883682Y-109087827D01*
G37*
G36*
X164803636Y-108138637D02*
G01*
X164486363Y-108138637D01*
X164486363Y-107821364D01*
X164803636Y-107821364D01*
X164803636Y-108138637D01*
G37*
G36*
X166389999Y-113849545D02*
G01*
X166072727Y-113849545D01*
X166072727Y-113532273D01*
X166389999Y-113532273D01*
X166389999Y-113849545D01*
G37*
G36*
X160679091Y-106869546D02*
G01*
X160361818Y-106869546D01*
X160361818Y-106552273D01*
X160679091Y-106552273D01*
X160679091Y-106869546D01*
G37*
G36*
X125814860Y-109087827D02*
G01*
X125545006Y-109087827D01*
X125285630Y-107611936D01*
X125555561Y-107611936D01*
X125814860Y-109087827D01*
G37*
G36*
X166389999Y-109407728D02*
G01*
X166072727Y-109407728D01*
X166072727Y-109090455D01*
X166389999Y-109090455D01*
X166389999Y-109407728D01*
G37*
G36*
X162265454Y-107186819D02*
G01*
X161948182Y-107186819D01*
X161948182Y-106869546D01*
X162265454Y-106869546D01*
X162265454Y-107186819D01*
G37*
G36*
X160996364Y-109725000D02*
G01*
X160679091Y-109725000D01*
X160679091Y-109407728D01*
X160996364Y-109407728D01*
X160996364Y-109725000D01*
G37*
G36*
X158775455Y-112897727D02*
G01*
X158458182Y-112897727D01*
X158458182Y-112580455D01*
X158775455Y-112580455D01*
X158775455Y-112897727D01*
G37*
G36*
X161630909Y-110994091D02*
G01*
X161313636Y-110994091D01*
X161313636Y-110676819D01*
X161630909Y-110676819D01*
X161630909Y-110994091D01*
G37*
G36*
X160044545Y-111311364D02*
G01*
X159727273Y-111311364D01*
X159727273Y-110994091D01*
X160044545Y-110994091D01*
X160044545Y-111311364D01*
G37*
G36*
X166389999Y-111628637D02*
G01*
X166072727Y-111628637D01*
X166072727Y-111311364D01*
X166389999Y-111311364D01*
X166389999Y-111628637D01*
G37*
G36*
X166072727Y-110676819D02*
G01*
X165755454Y-110676819D01*
X165755454Y-110359546D01*
X166072727Y-110359546D01*
X166072727Y-110676819D01*
G37*
G36*
X165120909Y-111945909D02*
G01*
X164803636Y-111945909D01*
X164803636Y-111628637D01*
X165120909Y-111628637D01*
X165120909Y-111945909D01*
G37*
G36*
X163534545Y-113532273D02*
G01*
X163217273Y-113532273D01*
X163217273Y-113215000D01*
X163534545Y-113215000D01*
X163534545Y-113532273D01*
G37*
G36*
X159092727Y-109407728D02*
G01*
X158775455Y-109407728D01*
X158775455Y-109090455D01*
X159092727Y-109090455D01*
X159092727Y-109407728D01*
G37*
G36*
X165438181Y-112897727D02*
G01*
X165120909Y-112897727D01*
X165120909Y-112580455D01*
X165438181Y-112580455D01*
X165438181Y-112897727D01*
G37*
G36*
X126452396Y-112742844D02*
G01*
X126182542Y-112742844D01*
X125923166Y-111266945D01*
X126193058Y-111266945D01*
X126452396Y-112742844D01*
G37*
G36*
X137876029Y-109702399D02*
G01*
X137458566Y-109702399D01*
X137458566Y-110916845D01*
X137188685Y-110916845D01*
X137188685Y-109702399D01*
X136771207Y-109702399D01*
X136771207Y-109440958D01*
X137876029Y-109440958D01*
X137876029Y-109702399D01*
G37*
G36*
X160679091Y-110676819D02*
G01*
X160361818Y-110676819D01*
X160361818Y-110359546D01*
X160679091Y-110359546D01*
X160679091Y-110676819D01*
G37*
G36*
X162582727Y-113849545D02*
G01*
X162265454Y-113849545D01*
X162265454Y-113532273D01*
X162582727Y-113532273D01*
X162582727Y-113849545D01*
G37*
D11*
X164950000Y-129700000D02*
X164975000Y-136075000D01*
D10*
G36*
X161948182Y-106869546D02*
G01*
X161630909Y-106869546D01*
X161630909Y-106552273D01*
X161948182Y-106552273D01*
X161948182Y-106869546D01*
G37*
G36*
X159727273Y-110359546D02*
G01*
X159410000Y-110359546D01*
X159410000Y-110042273D01*
X159727273Y-110042273D01*
X159727273Y-110359546D01*
G37*
G36*
X160044545Y-113215000D02*
G01*
X159727273Y-113215000D01*
X159727273Y-112897727D01*
X160044545Y-112897727D01*
X160044545Y-113215000D01*
G37*
G36*
X160361818Y-110359546D02*
G01*
X160044545Y-110359546D01*
X160044545Y-110042273D01*
X160361818Y-110042273D01*
X160361818Y-110359546D01*
G37*
G36*
X165755454Y-106235001D02*
G01*
X165438181Y-106235001D01*
X165438181Y-105917728D01*
X165755454Y-105917728D01*
X165755454Y-106235001D01*
G37*
G36*
X163851818Y-112580455D02*
G01*
X163534545Y-112580455D01*
X163534545Y-112263182D01*
X163851818Y-112263182D01*
X163851818Y-112580455D01*
G37*
G36*
X162582727Y-108455910D02*
G01*
X162265454Y-108455910D01*
X162265454Y-108138637D01*
X162582727Y-108138637D01*
X162582727Y-108455910D01*
G37*
G36*
X160996364Y-110359546D02*
G01*
X160679091Y-110359546D01*
X160679091Y-110042273D01*
X160996364Y-110042273D01*
X160996364Y-110359546D01*
G37*
G36*
X163851818Y-110359546D02*
G01*
X163534545Y-110359546D01*
X163534545Y-110042273D01*
X163851818Y-110042273D01*
X163851818Y-110359546D01*
G37*
G36*
X159727273Y-112580455D02*
G01*
X159410000Y-112580455D01*
X159410000Y-112263182D01*
X159727273Y-112263182D01*
X159727273Y-112580455D01*
G37*
G36*
X161313636Y-108773182D02*
G01*
X160996364Y-108773182D01*
X160996364Y-108455910D01*
X161313636Y-108455910D01*
X161313636Y-108773182D01*
G37*
G36*
X162582727Y-111628637D02*
G01*
X162265454Y-111628637D01*
X162265454Y-111311364D01*
X162582727Y-111311364D01*
X162582727Y-111628637D01*
G37*
G36*
X162900000Y-106552273D02*
G01*
X162582727Y-106552273D01*
X162582727Y-106235001D01*
X162900000Y-106235001D01*
X162900000Y-106552273D01*
G37*
G36*
X163217273Y-112897727D02*
G01*
X162900000Y-112897727D01*
X162900000Y-112580455D01*
X163217273Y-112580455D01*
X163217273Y-112897727D01*
G37*
G36*
X134171635Y-110214756D02*
G01*
X134172063Y-110252436D01*
X134173346Y-110288497D01*
X134175484Y-110322940D01*
X134178480Y-110355766D01*
X134182332Y-110386975D01*
X134187041Y-110416566D01*
X134192607Y-110444541D01*
X134199032Y-110470900D01*
X134202638Y-110483512D01*
X134206617Y-110495769D01*
X134210968Y-110507670D01*
X134215692Y-110519216D01*
X134220787Y-110530406D01*
X134226255Y-110541241D01*
X134232093Y-110551722D01*
X134238303Y-110561848D01*
X134244884Y-110571619D01*
X134251836Y-110581036D01*
X134259159Y-110590099D01*
X134266852Y-110598809D01*
X134274915Y-110607164D01*
X134283348Y-110615167D01*
X134292151Y-110622816D01*
X134301323Y-110630112D01*
X134310917Y-110637001D01*
X134320997Y-110643445D01*
X134331565Y-110649446D01*
X134342619Y-110655002D01*
X134354160Y-110660115D01*
X134366186Y-110664783D01*
X134378699Y-110669006D01*
X134391697Y-110672785D01*
X134405180Y-110676120D01*
X134419148Y-110679011D01*
X134433601Y-110681457D01*
X134448538Y-110683458D01*
X134463959Y-110685014D01*
X134479864Y-110686126D01*
X134496252Y-110686793D01*
X134513124Y-110687016D01*
X134530023Y-110686793D01*
X134546434Y-110686126D01*
X134562358Y-110685014D01*
X134577794Y-110683458D01*
X134592743Y-110681457D01*
X134607205Y-110679011D01*
X134621180Y-110676120D01*
X134634668Y-110672785D01*
X134647668Y-110669006D01*
X134660182Y-110664783D01*
X134672209Y-110660115D01*
X134683749Y-110655002D01*
X134694802Y-110649446D01*
X134705368Y-110643445D01*
X134715448Y-110637001D01*
X134725041Y-110630112D01*
X134734220Y-110622816D01*
X134743027Y-110615166D01*
X134751462Y-110607164D01*
X134759526Y-110598808D01*
X134767219Y-110590099D01*
X134774541Y-110581036D01*
X134781491Y-110571619D01*
X134788070Y-110561847D01*
X134794277Y-110551722D01*
X134800114Y-110541241D01*
X134805579Y-110530406D01*
X134810673Y-110519216D01*
X134815397Y-110507670D01*
X134819749Y-110495769D01*
X134823730Y-110483512D01*
X134827340Y-110470900D01*
X134833761Y-110444541D01*
X134839326Y-110416566D01*
X134844033Y-110386975D01*
X134847884Y-110355766D01*
X134850879Y-110322940D01*
X134853018Y-110288497D01*
X134854301Y-110252436D01*
X134854729Y-110214756D01*
X134854729Y-109440958D01*
X135124595Y-109440958D01*
X135124595Y-110284346D01*
X135123994Y-110322562D01*
X135122191Y-110359733D01*
X135119186Y-110395858D01*
X135114979Y-110430937D01*
X135109569Y-110464971D01*
X135102958Y-110497960D01*
X135095144Y-110529902D01*
X135086128Y-110560799D01*
X135075910Y-110590650D01*
X135064489Y-110619456D01*
X135051865Y-110647215D01*
X135038039Y-110673929D01*
X135023010Y-110699597D01*
X135006779Y-110724220D01*
X134989344Y-110747796D01*
X134970707Y-110770327D01*
X134950886Y-110791641D01*
X134929893Y-110811580D01*
X134907731Y-110830144D01*
X134884397Y-110847333D01*
X134859894Y-110863147D01*
X134834220Y-110877586D01*
X134807375Y-110890650D01*
X134779361Y-110902339D01*
X134750176Y-110912653D01*
X134719822Y-110921591D01*
X134688297Y-110929155D01*
X134655602Y-110935344D01*
X134621737Y-110940157D01*
X134586703Y-110943595D01*
X134550498Y-110945658D01*
X134513124Y-110946345D01*
X134475771Y-110945658D01*
X134439585Y-110943595D01*
X134404567Y-110940157D01*
X134370717Y-110935344D01*
X134338035Y-110929155D01*
X134306521Y-110921591D01*
X134276174Y-110912653D01*
X134246995Y-110902339D01*
X134218984Y-110890650D01*
X134192141Y-110877586D01*
X134166466Y-110863147D01*
X134141958Y-110847333D01*
X134118619Y-110830144D01*
X134096447Y-110811580D01*
X134075443Y-110791641D01*
X134055606Y-110770327D01*
X134036983Y-110747796D01*
X134019561Y-110724220D01*
X134003339Y-110699597D01*
X133988319Y-110673929D01*
X133974499Y-110647215D01*
X133961881Y-110619456D01*
X133950463Y-110590650D01*
X133940247Y-110560799D01*
X133931233Y-110529902D01*
X133923420Y-110497960D01*
X133916808Y-110464971D01*
X133911399Y-110430937D01*
X133907191Y-110395858D01*
X133904186Y-110359733D01*
X133902382Y-110322562D01*
X133901781Y-110284346D01*
X133901781Y-109440958D01*
X134171635Y-109440958D01*
X134171635Y-110214756D01*
G37*
G36*
X164169091Y-108773182D02*
G01*
X163851818Y-108773182D01*
X163851818Y-108455910D01*
X164169091Y-108455910D01*
X164169091Y-108773182D01*
G37*
G36*
X159727273Y-107504091D02*
G01*
X159410000Y-107504091D01*
X159410000Y-107186819D01*
X159727273Y-107186819D01*
X159727273Y-107504091D01*
G37*
G36*
X160679091Y-109407728D02*
G01*
X160361818Y-109407728D01*
X160361818Y-109090455D01*
X160679091Y-109090455D01*
X160679091Y-109407728D01*
G37*
G36*
X165755454Y-110676819D02*
G01*
X165438181Y-110676819D01*
X165438181Y-110359546D01*
X165755454Y-110359546D01*
X165755454Y-110676819D01*
G37*
G36*
X166072727Y-108138637D02*
G01*
X165755454Y-108138637D01*
X165755454Y-107821364D01*
X166072727Y-107821364D01*
X166072727Y-108138637D01*
G37*
G36*
X163851818Y-113532273D02*
G01*
X163534545Y-113532273D01*
X163534545Y-113215000D01*
X163851818Y-113215000D01*
X163851818Y-113532273D01*
G37*
G36*
X160361818Y-109407728D02*
G01*
X160044545Y-109407728D01*
X160044545Y-109090455D01*
X160361818Y-109090455D01*
X160361818Y-109407728D01*
G37*
G36*
X160361818Y-110994091D02*
G01*
X160044545Y-110994091D01*
X160044545Y-110676819D01*
X160361818Y-110676819D01*
X160361818Y-110994091D01*
G37*
G36*
X163534545Y-111628637D02*
G01*
X163217273Y-111628637D01*
X163217273Y-111311364D01*
X163534545Y-111311364D01*
X163534545Y-111628637D01*
G37*
G36*
X160044545Y-112897727D02*
G01*
X159727273Y-112897727D01*
X159727273Y-112580455D01*
X160044545Y-112580455D01*
X160044545Y-112897727D01*
G37*
G36*
X165755454Y-108773182D02*
G01*
X165438181Y-108773182D01*
X165438181Y-108455910D01*
X165755454Y-108455910D01*
X165755454Y-108773182D01*
G37*
G36*
X164803636Y-113849545D02*
G01*
X164486363Y-113849545D01*
X164486363Y-113532273D01*
X164803636Y-113532273D01*
X164803636Y-113849545D01*
G37*
G36*
X160044545Y-107504091D02*
G01*
X159727273Y-107504091D01*
X159727273Y-107186819D01*
X160044545Y-107186819D01*
X160044545Y-107504091D01*
G37*
G36*
X158775455Y-106235001D02*
G01*
X158458182Y-106235001D01*
X158458182Y-105917728D01*
X158775455Y-105917728D01*
X158775455Y-106235001D01*
G37*
G36*
X162900000Y-108455910D02*
G01*
X162582727Y-108455910D01*
X162582727Y-108138637D01*
X162900000Y-108138637D01*
X162900000Y-108455910D01*
G37*
G36*
X163217273Y-109725000D02*
G01*
X162900000Y-109725000D01*
X162900000Y-109407728D01*
X163217273Y-109407728D01*
X163217273Y-109725000D01*
G37*
G36*
X165120909Y-107186819D02*
G01*
X164803636Y-107186819D01*
X164803636Y-106869546D01*
X165120909Y-106869546D01*
X165120909Y-107186819D01*
G37*
G36*
X162900000Y-107504091D02*
G01*
X162582727Y-107504091D01*
X162582727Y-107186819D01*
X162900000Y-107186819D01*
X162900000Y-107504091D01*
G37*
G36*
X163851818Y-108138637D02*
G01*
X163534545Y-108138637D01*
X163534545Y-107821364D01*
X163851818Y-107821364D01*
X163851818Y-108138637D01*
G37*
G36*
X164486363Y-107504091D02*
G01*
X164169091Y-107504091D01*
X164169091Y-107186819D01*
X164486363Y-107186819D01*
X164486363Y-107504091D01*
G37*
G36*
X163851818Y-112263182D02*
G01*
X163534545Y-112263182D01*
X163534545Y-111945909D01*
X163851818Y-111945909D01*
X163851818Y-112263182D01*
G37*
G36*
X162265454Y-107504091D02*
G01*
X161948182Y-107504091D01*
X161948182Y-107186819D01*
X162265454Y-107186819D01*
X162265454Y-107504091D01*
G37*
G36*
X163217273Y-108138637D02*
G01*
X162900000Y-108138637D01*
X162900000Y-107821364D01*
X163217273Y-107821364D01*
X163217273Y-108138637D01*
G37*
G36*
X163217273Y-113215000D02*
G01*
X162900000Y-113215000D01*
X162900000Y-112897727D01*
X163217273Y-112897727D01*
X163217273Y-113215000D01*
G37*
G36*
X161313636Y-113215000D02*
G01*
X160996364Y-113215000D01*
X160996364Y-112897727D01*
X161313636Y-112897727D01*
X161313636Y-113215000D01*
G37*
G36*
X166072727Y-111628637D02*
G01*
X165755454Y-111628637D01*
X165755454Y-111311364D01*
X166072727Y-111311364D01*
X166072727Y-111628637D01*
G37*
G36*
X165755454Y-106869546D02*
G01*
X165438181Y-106869546D01*
X165438181Y-106552273D01*
X165755454Y-106552273D01*
X165755454Y-106869546D01*
G37*
G36*
X165120909Y-111628637D02*
G01*
X164803636Y-111628637D01*
X164803636Y-111311364D01*
X165120909Y-111311364D01*
X165120909Y-111628637D01*
G37*
G36*
X163851818Y-111945909D02*
G01*
X163534545Y-111945909D01*
X163534545Y-111628637D01*
X163851818Y-111628637D01*
X163851818Y-111945909D01*
G37*
G36*
X159092727Y-113849545D02*
G01*
X158775455Y-113849545D01*
X158775455Y-113532273D01*
X159092727Y-113532273D01*
X159092727Y-113849545D01*
G37*
G36*
X164486363Y-110676819D02*
G01*
X164169091Y-110676819D01*
X164169091Y-110359546D01*
X164486363Y-110359546D01*
X164486363Y-110676819D01*
G37*
G36*
X163534545Y-106235001D02*
G01*
X163217273Y-106235001D01*
X163217273Y-105917728D01*
X163534545Y-105917728D01*
X163534545Y-106235001D01*
G37*
G36*
X165438181Y-108138637D02*
G01*
X165120909Y-108138637D01*
X165120909Y-107821364D01*
X165438181Y-107821364D01*
X165438181Y-108138637D01*
G37*
G36*
X159727273Y-112897727D02*
G01*
X159410000Y-112897727D01*
X159410000Y-112580455D01*
X159727273Y-112580455D01*
X159727273Y-112897727D01*
G37*
G36*
X162582727Y-110042273D02*
G01*
X162265454Y-110042273D01*
X162265454Y-109725000D01*
X162582727Y-109725000D01*
X162582727Y-110042273D01*
G37*
G36*
X130668620Y-110916845D02*
G01*
X129702943Y-110916845D01*
X129702943Y-110655409D01*
X130392440Y-110655409D01*
X130392440Y-110278009D01*
X129873765Y-110278009D01*
X129873765Y-110016572D01*
X130392440Y-110016572D01*
X130392440Y-109702399D01*
X129724092Y-109702399D01*
X129724092Y-109440958D01*
X130668620Y-109440958D01*
X130668620Y-110916845D01*
G37*
G36*
X162265454Y-110676819D02*
G01*
X161948182Y-110676819D01*
X161948182Y-110359546D01*
X162265454Y-110359546D01*
X162265454Y-110676819D01*
G37*
G36*
X164803636Y-110676819D02*
G01*
X164486363Y-110676819D01*
X164486363Y-110359546D01*
X164803636Y-110359546D01*
X164803636Y-110676819D01*
G37*
G36*
X158775455Y-111311364D02*
G01*
X158458182Y-111311364D01*
X158458182Y-110994091D01*
X158775455Y-110994091D01*
X158775455Y-111311364D01*
G37*
G36*
X158775455Y-107504091D02*
G01*
X158458182Y-107504091D01*
X158458182Y-107186819D01*
X158775455Y-107186819D01*
X158775455Y-107504091D01*
G37*
G36*
X162900000Y-106235001D02*
G01*
X162582727Y-106235001D01*
X162582727Y-105917728D01*
X162900000Y-105917728D01*
X162900000Y-106235001D01*
G37*
G36*
X165438181Y-112580455D02*
G01*
X165120909Y-112580455D01*
X165120909Y-112263182D01*
X165438181Y-112263182D01*
X165438181Y-112580455D01*
G37*
G36*
X160679091Y-113849545D02*
G01*
X160361818Y-113849545D01*
X160361818Y-113532273D01*
X160679091Y-113532273D01*
X160679091Y-113849545D01*
G37*
G36*
X164169091Y-112580455D02*
G01*
X163851818Y-112580455D01*
X163851818Y-112263182D01*
X164169091Y-112263182D01*
X164169091Y-112580455D01*
G37*
G36*
X160679091Y-112580455D02*
G01*
X160361818Y-112580455D01*
X160361818Y-112263182D01*
X160679091Y-112263182D01*
X160679091Y-112580455D01*
G37*
G36*
X165438181Y-113532273D02*
G01*
X165120909Y-113532273D01*
X165120909Y-113215000D01*
X165438181Y-113215000D01*
X165438181Y-113532273D01*
G37*
G36*
X159410000Y-106869546D02*
G01*
X159092727Y-106869546D01*
X159092727Y-106552273D01*
X159410000Y-106552273D01*
X159410000Y-106869546D01*
G37*
G36*
X162900000Y-113849545D02*
G01*
X162582727Y-113849545D01*
X162582727Y-113532273D01*
X162900000Y-113532273D01*
X162900000Y-113849545D01*
G37*
G36*
X158775455Y-112263182D02*
G01*
X158458182Y-112263182D01*
X158458182Y-111945909D01*
X158775455Y-111945909D01*
X158775455Y-112263182D01*
G37*
G36*
X163534545Y-106552273D02*
G01*
X163217273Y-106552273D01*
X163217273Y-106235001D01*
X163534545Y-106235001D01*
X163534545Y-106552273D01*
G37*
G36*
X164803636Y-106235001D02*
G01*
X164486363Y-106235001D01*
X164486363Y-105917728D01*
X164803636Y-105917728D01*
X164803636Y-106235001D01*
G37*
G36*
X159092727Y-111945909D02*
G01*
X158775455Y-111945909D01*
X158775455Y-111628637D01*
X159092727Y-111628637D01*
X159092727Y-111945909D01*
G37*
G36*
X161313636Y-111628637D02*
G01*
X160996364Y-111628637D01*
X160996364Y-111311364D01*
X161313636Y-111311364D01*
X161313636Y-111628637D01*
G37*
G36*
X158775455Y-109407728D02*
G01*
X158458182Y-109407728D01*
X158458182Y-109090455D01*
X158775455Y-109090455D01*
X158775455Y-109407728D01*
G37*
G36*
X158775455Y-106869546D02*
G01*
X158458182Y-106869546D01*
X158458182Y-106552273D01*
X158775455Y-106552273D01*
X158775455Y-106869546D01*
G37*
G36*
X162582727Y-111311364D02*
G01*
X162265454Y-111311364D01*
X162265454Y-110994091D01*
X162582727Y-110994091D01*
X162582727Y-111311364D01*
G37*
G36*
X162582727Y-106869546D02*
G01*
X162265454Y-106869546D01*
X162265454Y-106552273D01*
X162582727Y-106552273D01*
X162582727Y-106869546D01*
G37*
G36*
X166389999Y-110676819D02*
G01*
X166072727Y-110676819D01*
X166072727Y-110359546D01*
X166389999Y-110359546D01*
X166389999Y-110676819D01*
G37*
G36*
X159727273Y-106235001D02*
G01*
X159410000Y-106235001D01*
X159410000Y-105917728D01*
X159727273Y-105917728D01*
X159727273Y-106235001D01*
G37*
G36*
X159410000Y-112897727D02*
G01*
X159092727Y-112897727D01*
X159092727Y-112580455D01*
X159410000Y-112580455D01*
X159410000Y-112897727D01*
G37*
G36*
X160996364Y-110042273D02*
G01*
X160679091Y-110042273D01*
X160679091Y-109725000D01*
X160996364Y-109725000D01*
X160996364Y-110042273D01*
G37*
G36*
X160044545Y-111945909D02*
G01*
X159727273Y-111945909D01*
X159727273Y-111628637D01*
X160044545Y-111628637D01*
X160044545Y-111945909D01*
G37*
G36*
X163534545Y-110994091D02*
G01*
X163217273Y-110994091D01*
X163217273Y-110676819D01*
X163534545Y-110676819D01*
X163534545Y-110994091D01*
G37*
G36*
X162582727Y-111945909D02*
G01*
X162265454Y-111945909D01*
X162265454Y-111628637D01*
X162582727Y-111628637D01*
X162582727Y-111945909D01*
G37*
G36*
X165120909Y-112580455D02*
G01*
X164803636Y-112580455D01*
X164803636Y-112263182D01*
X165120909Y-112263182D01*
X165120909Y-112580455D01*
G37*
G36*
X164486363Y-110359546D02*
G01*
X164169091Y-110359546D01*
X164169091Y-110042273D01*
X164486363Y-110042273D01*
X164486363Y-110359546D01*
G37*
G36*
X128577350Y-112742844D02*
G01*
X128307495Y-112742844D01*
X128048157Y-111266945D01*
X128318011Y-111266945D01*
X128577350Y-112742844D01*
G37*
G36*
X165438181Y-106869546D02*
G01*
X165120909Y-106869546D01*
X165120909Y-106552273D01*
X165438181Y-106552273D01*
X165438181Y-106869546D01*
G37*
G36*
X161313636Y-108455910D02*
G01*
X160996364Y-108455910D01*
X160996364Y-108138637D01*
X161313636Y-108138637D01*
X161313636Y-108455910D01*
G37*
G36*
X161630909Y-106552273D02*
G01*
X161313636Y-106552273D01*
X161313636Y-106235001D01*
X161630909Y-106235001D01*
X161630909Y-106552273D01*
G37*
G36*
X163534545Y-107504091D02*
G01*
X163217273Y-107504091D01*
X163217273Y-107186819D01*
X163534545Y-107186819D01*
X163534545Y-107504091D01*
G37*
G36*
X162582727Y-109407728D02*
G01*
X162265454Y-109407728D01*
X162265454Y-109090455D01*
X162582727Y-109090455D01*
X162582727Y-109407728D01*
G37*
G36*
X165755454Y-107504091D02*
G01*
X165438181Y-107504091D01*
X165438181Y-107186819D01*
X165755454Y-107186819D01*
X165755454Y-107504091D01*
G37*
G36*
X163534545Y-113849545D02*
G01*
X163217273Y-113849545D01*
X163217273Y-113532273D01*
X163534545Y-113532273D01*
X163534545Y-113849545D01*
G37*
G36*
X160044545Y-106235001D02*
G01*
X159727273Y-106235001D01*
X159727273Y-105917728D01*
X160044545Y-105917728D01*
X160044545Y-106235001D01*
G37*
G36*
X160679091Y-107186819D02*
G01*
X160361818Y-107186819D01*
X160361818Y-106869546D01*
X160679091Y-106869546D01*
X160679091Y-107186819D01*
G37*
G36*
X165438181Y-107186819D02*
G01*
X165120909Y-107186819D01*
X165120909Y-106869546D01*
X165438181Y-106869546D01*
X165438181Y-107186819D01*
G37*
G36*
X163851818Y-113215000D02*
G01*
X163534545Y-113215000D01*
X163534545Y-112897727D01*
X163851818Y-112897727D01*
X163851818Y-113215000D01*
G37*
G36*
X161948182Y-112897727D02*
G01*
X161630909Y-112897727D01*
X161630909Y-112580455D01*
X161948182Y-112580455D01*
X161948182Y-112897727D01*
G37*
G36*
X132160692Y-110916845D02*
G01*
X131608334Y-110916845D01*
X131582158Y-110916500D01*
X131556336Y-110915463D01*
X131530868Y-110913735D01*
X131505755Y-110911316D01*
X131480995Y-110908205D01*
X131456590Y-110904402D01*
X131432538Y-110899908D01*
X131408840Y-110894721D01*
X131385495Y-110888842D01*
X131362503Y-110882270D01*
X131339864Y-110875006D01*
X131317578Y-110867049D01*
X131295645Y-110858400D01*
X131274064Y-110849057D01*
X131252835Y-110839021D01*
X131231959Y-110828291D01*
X131211557Y-110816914D01*
X131191724Y-110804928D01*
X131172459Y-110792335D01*
X131153763Y-110779133D01*
X131135634Y-110765322D01*
X131118074Y-110750903D01*
X131101082Y-110735874D01*
X131084658Y-110720236D01*
X131068802Y-110703989D01*
X131053514Y-110687132D01*
X131038793Y-110669665D01*
X131024641Y-110651588D01*
X131011056Y-110632901D01*
X130998039Y-110613603D01*
X130985590Y-110593695D01*
X130973708Y-110573176D01*
X130962473Y-110552119D01*
X130951962Y-110530584D01*
X130942176Y-110508570D01*
X130933115Y-110486078D01*
X130924779Y-110463107D01*
X130917168Y-110439658D01*
X130910281Y-110415731D01*
X130904120Y-110391327D01*
X130898683Y-110366445D01*
X130893971Y-110341086D01*
X130889985Y-110315249D01*
X130886723Y-110288936D01*
X130884186Y-110262146D01*
X130882373Y-110234880D01*
X130881286Y-110207137D01*
X130880924Y-110178919D01*
X131176079Y-110178919D01*
X131176512Y-110207769D01*
X131177811Y-110235823D01*
X131179975Y-110263079D01*
X131183004Y-110289537D01*
X131186899Y-110315197D01*
X131191658Y-110340059D01*
X131197283Y-110364123D01*
X131203772Y-110387387D01*
X131211125Y-110409853D01*
X131219343Y-110431518D01*
X131228425Y-110452384D01*
X131238371Y-110472450D01*
X131249181Y-110491716D01*
X131260854Y-110510181D01*
X131273391Y-110527845D01*
X131286791Y-110544708D01*
X131301021Y-110560671D01*
X131316034Y-110575603D01*
X131331828Y-110589503D01*
X131348405Y-110602372D01*
X131365764Y-110614211D01*
X131383905Y-110625019D01*
X131402828Y-110634796D01*
X131422533Y-110643544D01*
X131443021Y-110651261D01*
X131464290Y-110657949D01*
X131486342Y-110663607D01*
X131509176Y-110668236D01*
X131532792Y-110671836D01*
X131557191Y-110674408D01*
X131582371Y-110675950D01*
X131608334Y-110676464D01*
X131890839Y-110676464D01*
X131890839Y-109681331D01*
X131608334Y-109681331D01*
X131582371Y-109681846D01*
X131557191Y-109683392D01*
X131532792Y-109685968D01*
X131509176Y-109689574D01*
X131486342Y-109694210D01*
X131464290Y-109699875D01*
X131443021Y-109706569D01*
X131422533Y-109714293D01*
X131402828Y-109723045D01*
X131383905Y-109732827D01*
X131365764Y-109743636D01*
X131348405Y-109755474D01*
X131331828Y-109768340D01*
X131316034Y-109782233D01*
X131301021Y-109797154D01*
X131286791Y-109813103D01*
X131273391Y-109829973D01*
X131260854Y-109847642D01*
X131249181Y-109866110D01*
X131238371Y-109885378D01*
X131228425Y-109905445D01*
X131219343Y-109926311D01*
X131211125Y-109947977D01*
X131203772Y-109970441D01*
X131197283Y-109993705D01*
X131191658Y-110017767D01*
X131186899Y-110042629D01*
X131183004Y-110068289D01*
X131179975Y-110094749D01*
X131177811Y-110122007D01*
X131176512Y-110150063D01*
X131176079Y-110178919D01*
X130880924Y-110178919D01*
X130881286Y-110150693D01*
X130882373Y-110122946D01*
X130884186Y-110095677D01*
X130886723Y-110068885D01*
X130889985Y-110042572D01*
X130893971Y-110016736D01*
X130898683Y-109991378D01*
X130904120Y-109966497D01*
X130910281Y-109942094D01*
X130917168Y-109918169D01*
X130924779Y-109894720D01*
X130933115Y-109871749D01*
X130942176Y-109849255D01*
X130951962Y-109827238D01*
X130962473Y-109805698D01*
X130973708Y-109784635D01*
X130985590Y-109764128D01*
X130998039Y-109744228D01*
X131011056Y-109724937D01*
X131024641Y-109706253D01*
X131038794Y-109688177D01*
X131053514Y-109670710D01*
X131068802Y-109653851D01*
X131084658Y-109637600D01*
X131101082Y-109621957D01*
X131118074Y-109606924D01*
X131135635Y-109592499D01*
X131153763Y-109578683D01*
X131172459Y-109565476D01*
X131191724Y-109552879D01*
X131211557Y-109540890D01*
X131231959Y-109529512D01*
X131252835Y-109518791D01*
X131274064Y-109508761D01*
X131295645Y-109499422D01*
X131317578Y-109490775D01*
X131339864Y-109482819D01*
X131362503Y-109475555D01*
X131385495Y-109468982D01*
X131408840Y-109463101D01*
X131432538Y-109457912D01*
X131456590Y-109453414D01*
X131480995Y-109449608D01*
X131505755Y-109446494D01*
X131530868Y-109444072D01*
X131556336Y-109442342D01*
X131582158Y-109441304D01*
X131608334Y-109440958D01*
X132160692Y-109440958D01*
X132160692Y-110676464D01*
X132160692Y-110916845D01*
G37*
G36*
X162582727Y-110994091D02*
G01*
X162265454Y-110994091D01*
X162265454Y-110676819D01*
X162582727Y-110676819D01*
X162582727Y-110994091D01*
G37*
G36*
X166389999Y-113215000D02*
G01*
X166072727Y-113215000D01*
X166072727Y-112897727D01*
X166389999Y-112897727D01*
X166389999Y-113215000D01*
G37*
G36*
X159410000Y-111311364D02*
G01*
X159092727Y-111311364D01*
X159092727Y-110994091D01*
X159410000Y-110994091D01*
X159410000Y-111311364D01*
G37*
G36*
X160044545Y-107186819D02*
G01*
X159727273Y-107186819D01*
X159727273Y-106869546D01*
X160044545Y-106869546D01*
X160044545Y-107186819D01*
G37*
G36*
X166072727Y-113532273D02*
G01*
X165755454Y-113532273D01*
X165755454Y-113215000D01*
X166072727Y-113215000D01*
X166072727Y-113532273D01*
G37*
G36*
X164486363Y-106869546D02*
G01*
X164169091Y-106869546D01*
X164169091Y-106552273D01*
X164486363Y-106552273D01*
X164486363Y-106869546D01*
G37*
G36*
X165120909Y-107504091D02*
G01*
X164803636Y-107504091D01*
X164803636Y-107186819D01*
X165120909Y-107186819D01*
X165120909Y-107504091D01*
G37*
G36*
X165755454Y-108138637D02*
G01*
X165438181Y-108138637D01*
X165438181Y-107821364D01*
X165755454Y-107821364D01*
X165755454Y-108138637D01*
G37*
G36*
X159092727Y-110994091D02*
G01*
X158775455Y-110994091D01*
X158775455Y-110676819D01*
X159092727Y-110676819D01*
X159092727Y-110994091D01*
G37*
G36*
X160679091Y-107504091D02*
G01*
X160361818Y-107504091D01*
X160361818Y-107186819D01*
X160679091Y-107186819D01*
X160679091Y-107504091D01*
G37*
G36*
X160044545Y-112580455D02*
G01*
X159727273Y-112580455D01*
X159727273Y-112263182D01*
X160044545Y-112263182D01*
X160044545Y-112580455D01*
G37*
G36*
X163851818Y-111628637D02*
G01*
X163534545Y-111628637D01*
X163534545Y-111311364D01*
X163851818Y-111311364D01*
X163851818Y-111628637D01*
G37*
G36*
X159410000Y-108773182D02*
G01*
X159092727Y-108773182D01*
X159092727Y-108455910D01*
X159410000Y-108455910D01*
X159410000Y-108773182D01*
G37*
G36*
X166072727Y-106235001D02*
G01*
X165755454Y-106235001D01*
X165755454Y-105917728D01*
X166072727Y-105917728D01*
X166072727Y-106235001D01*
G37*
G36*
X159092727Y-109090455D02*
G01*
X158775455Y-109090455D01*
X158775455Y-108773182D01*
X159092727Y-108773182D01*
X159092727Y-109090455D01*
G37*
G36*
X160044545Y-109407728D02*
G01*
X159727273Y-109407728D01*
X159727273Y-109090455D01*
X160044545Y-109090455D01*
X160044545Y-109407728D01*
G37*
G36*
X166072727Y-110994091D02*
G01*
X165755454Y-110994091D01*
X165755454Y-110676819D01*
X166072727Y-110676819D01*
X166072727Y-110994091D01*
G37*
G36*
X161630909Y-113215000D02*
G01*
X161313636Y-113215000D01*
X161313636Y-112897727D01*
X161630909Y-112897727D01*
X161630909Y-113215000D01*
G37*
G36*
X162265454Y-110042273D02*
G01*
X161948182Y-110042273D01*
X161948182Y-109725000D01*
X162265454Y-109725000D01*
X162265454Y-110042273D01*
G37*
G36*
X127205727Y-110916845D02*
G01*
X126426512Y-110916845D01*
X126380140Y-110655409D01*
X126889501Y-110655409D01*
X126676498Y-109440958D01*
X126946351Y-109440958D01*
X127205727Y-110916845D01*
G37*
G36*
X166072727Y-111945909D02*
G01*
X165755454Y-111945909D01*
X165755454Y-111628637D01*
X166072727Y-111628637D01*
X166072727Y-111945909D01*
G37*
G36*
X163534545Y-112897727D02*
G01*
X163217273Y-112897727D01*
X163217273Y-112580455D01*
X163534545Y-112580455D01*
X163534545Y-112897727D01*
G37*
G36*
X160679091Y-113532273D02*
G01*
X160361818Y-113532273D01*
X160361818Y-113215000D01*
X160679091Y-113215000D01*
X160679091Y-113532273D01*
G37*
G36*
X164486363Y-109090455D02*
G01*
X164169091Y-109090455D01*
X164169091Y-108773182D01*
X164486363Y-108773182D01*
X164486363Y-109090455D01*
G37*
G36*
X165120909Y-113532273D02*
G01*
X164803636Y-113532273D01*
X164803636Y-113215000D01*
X165120909Y-113215000D01*
X165120909Y-113532273D01*
G37*
G36*
X158775455Y-110676819D02*
G01*
X158458182Y-110676819D01*
X158458182Y-110359546D01*
X158775455Y-110359546D01*
X158775455Y-110676819D01*
G37*
G36*
X162900000Y-110676819D02*
G01*
X162582727Y-110676819D01*
X162582727Y-110359546D01*
X162900000Y-110359546D01*
X162900000Y-110676819D01*
G37*
G36*
X162900000Y-111311364D02*
G01*
X162582727Y-111311364D01*
X162582727Y-110994091D01*
X162900000Y-110994091D01*
X162900000Y-111311364D01*
G37*
G36*
X161630909Y-107821364D02*
G01*
X161313636Y-107821364D01*
X161313636Y-107504091D01*
X161630909Y-107504091D01*
X161630909Y-107821364D01*
G37*
G36*
X163851818Y-111311364D02*
G01*
X163534545Y-111311364D01*
X163534545Y-110994091D01*
X163851818Y-110994091D01*
X163851818Y-111311364D01*
G37*
G36*
X161948182Y-108138637D02*
G01*
X161630909Y-108138637D01*
X161630909Y-107821364D01*
X161948182Y-107821364D01*
X161948182Y-108138637D01*
G37*
G36*
X161948182Y-110676819D02*
G01*
X161630909Y-110676819D01*
X161630909Y-110359546D01*
X161948182Y-110359546D01*
X161948182Y-110676819D01*
G37*
G36*
X159092727Y-108138637D02*
G01*
X158775455Y-108138637D01*
X158775455Y-107821364D01*
X159092727Y-107821364D01*
X159092727Y-108138637D01*
G37*
G36*
X162265454Y-113532273D02*
G01*
X161948182Y-113532273D01*
X161948182Y-113215000D01*
X162265454Y-113215000D01*
X162265454Y-113532273D01*
G37*
G36*
X166072727Y-109725000D02*
G01*
X165755454Y-109725000D01*
X165755454Y-109407728D01*
X166072727Y-109407728D01*
X166072727Y-109725000D01*
G37*
G36*
X165120909Y-110994091D02*
G01*
X164803636Y-110994091D01*
X164803636Y-110676819D01*
X165120909Y-110676819D01*
X165120909Y-110994091D01*
G37*
G36*
X162265454Y-113849545D02*
G01*
X161948182Y-113849545D01*
X161948182Y-113532273D01*
X162265454Y-113532273D01*
X162265454Y-113849545D01*
G37*
G36*
X162582727Y-113532273D02*
G01*
X162265454Y-113532273D01*
X162265454Y-113215000D01*
X162582727Y-113215000D01*
X162582727Y-113532273D01*
G37*
G36*
X164803636Y-111311364D02*
G01*
X164486363Y-111311364D01*
X164486363Y-110994091D01*
X164803636Y-110994091D01*
X164803636Y-111311364D01*
G37*
G36*
X162900000Y-109407728D02*
G01*
X162582727Y-109407728D01*
X162582727Y-109090455D01*
X162900000Y-109090455D01*
X162900000Y-109407728D01*
G37*
G36*
X164486363Y-112580455D02*
G01*
X164169091Y-112580455D01*
X164169091Y-112263182D01*
X164486363Y-112263182D01*
X164486363Y-112580455D01*
G37*
G36*
X163217273Y-107821364D02*
G01*
X162900000Y-107821364D01*
X162900000Y-107504091D01*
X163217273Y-107504091D01*
X163217273Y-107821364D01*
G37*
G36*
X166389999Y-110359546D02*
G01*
X166072727Y-110359546D01*
X166072727Y-110042273D01*
X166389999Y-110042273D01*
X166389999Y-110359546D01*
G37*
G36*
X162265454Y-111628637D02*
G01*
X161948182Y-111628637D01*
X161948182Y-111311364D01*
X162265454Y-111311364D01*
X162265454Y-111628637D01*
G37*
G36*
X166389999Y-106552273D02*
G01*
X166072727Y-106552273D01*
X166072727Y-106235001D01*
X166389999Y-106235001D01*
X166389999Y-106552273D01*
G37*
G36*
X159727273Y-107186819D02*
G01*
X159410000Y-107186819D01*
X159410000Y-106869546D01*
X159727273Y-106869546D01*
X159727273Y-107186819D01*
G37*
G36*
X164803636Y-112897727D02*
G01*
X164486363Y-112897727D01*
X164486363Y-112580455D01*
X164803636Y-112580455D01*
X164803636Y-112897727D01*
G37*
G36*
X165438181Y-107504091D02*
G01*
X165120909Y-107504091D01*
X165120909Y-107186819D01*
X165438181Y-107186819D01*
X165438181Y-107504091D01*
G37*
G36*
X161313636Y-113532273D02*
G01*
X160996364Y-113532273D01*
X160996364Y-113215000D01*
X161313636Y-113215000D01*
X161313636Y-113532273D01*
G37*
G36*
X163851818Y-108455910D02*
G01*
X163534545Y-108455910D01*
X163534545Y-108138637D01*
X163851818Y-108138637D01*
X163851818Y-108455910D01*
G37*
G36*
X161630909Y-108455910D02*
G01*
X161313636Y-108455910D01*
X161313636Y-108138637D01*
X161630909Y-108138637D01*
X161630909Y-108455910D01*
G37*
G36*
X160679091Y-111311364D02*
G01*
X160361818Y-111311364D01*
X160361818Y-110994091D01*
X160679091Y-110994091D01*
X160679091Y-111311364D01*
G37*
G36*
X160679091Y-111945909D02*
G01*
X160361818Y-111945909D01*
X160361818Y-111628637D01*
X160679091Y-111628637D01*
X160679091Y-111945909D01*
G37*
G36*
X162900000Y-108773182D02*
G01*
X162582727Y-108773182D01*
X162582727Y-108455910D01*
X162900000Y-108455910D01*
X162900000Y-108773182D01*
G37*
G36*
X158775455Y-106552273D02*
G01*
X158458182Y-106552273D01*
X158458182Y-106235001D01*
X158775455Y-106235001D01*
X158775455Y-106552273D01*
G37*
G36*
X165120909Y-109407728D02*
G01*
X164803636Y-109407728D01*
X164803636Y-109090455D01*
X165120909Y-109090455D01*
X165120909Y-109407728D01*
G37*
G36*
X160679091Y-112897727D02*
G01*
X160361818Y-112897727D01*
X160361818Y-112580455D01*
X160679091Y-112580455D01*
X160679091Y-112897727D01*
G37*
G36*
X164486363Y-113532273D02*
G01*
X164169091Y-113532273D01*
X164169091Y-113215000D01*
X164486363Y-113215000D01*
X164486363Y-113532273D01*
G37*
G36*
X162582727Y-107186819D02*
G01*
X162265454Y-107186819D01*
X162265454Y-106869546D01*
X162582727Y-106869546D01*
X162582727Y-107186819D01*
G37*
G36*
X162900000Y-112580455D02*
G01*
X162582727Y-112580455D01*
X162582727Y-112263182D01*
X162900000Y-112263182D01*
X162900000Y-112580455D01*
G37*
G36*
X165120909Y-108138637D02*
G01*
X164803636Y-108138637D01*
X164803636Y-107821364D01*
X165120909Y-107821364D01*
X165120909Y-108138637D01*
G37*
G36*
X164486363Y-111311364D02*
G01*
X164169091Y-111311364D01*
X164169091Y-110994091D01*
X164486363Y-110994091D01*
X164486363Y-111311364D01*
G37*
G36*
X163851818Y-109407728D02*
G01*
X163534545Y-109407728D01*
X163534545Y-109090455D01*
X163851818Y-109090455D01*
X163851818Y-109407728D01*
G37*
G36*
X166389999Y-106235001D02*
G01*
X166072727Y-106235001D01*
X166072727Y-105917728D01*
X166389999Y-105917728D01*
X166389999Y-106235001D01*
G37*
G36*
X160679091Y-112263182D02*
G01*
X160361818Y-112263182D01*
X160361818Y-111945909D01*
X160679091Y-111945909D01*
X160679091Y-112263182D01*
G37*
G36*
X159092727Y-109725000D02*
G01*
X158775455Y-109725000D01*
X158775455Y-109407728D01*
X159092727Y-109407728D01*
X159092727Y-109725000D01*
G37*
G36*
X164486363Y-108773182D02*
G01*
X164169091Y-108773182D01*
X164169091Y-108455910D01*
X164486363Y-108455910D01*
X164486363Y-108773182D01*
G37*
G36*
X159410000Y-113849545D02*
G01*
X159092727Y-113849545D01*
X159092727Y-113532273D01*
X159410000Y-113532273D01*
X159410000Y-113849545D01*
G37*
G36*
X162265454Y-106869546D02*
G01*
X161948182Y-106869546D01*
X161948182Y-106552273D01*
X162265454Y-106552273D01*
X162265454Y-106869546D01*
G37*
G36*
X162582727Y-106552273D02*
G01*
X162265454Y-106552273D01*
X162265454Y-106235001D01*
X162582727Y-106235001D01*
X162582727Y-106552273D01*
G37*
G36*
X162582727Y-109725000D02*
G01*
X162265454Y-109725000D01*
X162265454Y-109407728D01*
X162582727Y-109407728D01*
X162582727Y-109725000D01*
G37*
G36*
X162900000Y-110994091D02*
G01*
X162582727Y-110994091D01*
X162582727Y-110676819D01*
X162900000Y-110676819D01*
X162900000Y-110994091D01*
G37*
G36*
X162900000Y-109090455D02*
G01*
X162582727Y-109090455D01*
X162582727Y-108773182D01*
X162900000Y-108773182D01*
X162900000Y-109090455D01*
G37*
G36*
X162900000Y-112897727D02*
G01*
X162582727Y-112897727D01*
X162582727Y-112580455D01*
X162900000Y-112580455D01*
X162900000Y-112897727D01*
G37*
G36*
X159410000Y-110042273D02*
G01*
X159092727Y-110042273D01*
X159092727Y-109725000D01*
X159410000Y-109725000D01*
X159410000Y-110042273D01*
G37*
G36*
X160361818Y-108138637D02*
G01*
X160044545Y-108138637D01*
X160044545Y-107821364D01*
X160361818Y-107821364D01*
X160361818Y-108138637D01*
G37*
G36*
X161313636Y-112580455D02*
G01*
X160996364Y-112580455D01*
X160996364Y-112263182D01*
X161313636Y-112263182D01*
X161313636Y-112580455D01*
G37*
G36*
X162265454Y-109090455D02*
G01*
X161948182Y-109090455D01*
X161948182Y-108773182D01*
X162265454Y-108773182D01*
X162265454Y-109090455D01*
G37*
G36*
X165120909Y-112897727D02*
G01*
X164803636Y-112897727D01*
X164803636Y-112580455D01*
X165120909Y-112580455D01*
X165120909Y-112897727D01*
G37*
G36*
X161313636Y-106869546D02*
G01*
X160996364Y-106869546D01*
X160996364Y-106552273D01*
X161313636Y-106552273D01*
X161313636Y-106869546D01*
G37*
G36*
X162265454Y-106235001D02*
G01*
X161948182Y-106235001D01*
X161948182Y-105917728D01*
X162265454Y-105917728D01*
X162265454Y-106235001D01*
G37*
G36*
X132724848Y-110393956D02*
G01*
X133355283Y-109440958D01*
X133620907Y-109440958D01*
X133620907Y-110916845D01*
X133351053Y-110916845D01*
X133351053Y-109904839D01*
X132676380Y-110916845D01*
X132454994Y-110916845D01*
X132454994Y-109440958D01*
X132724848Y-109440958D01*
X132724848Y-110393956D01*
G37*
G36*
X161630909Y-112580455D02*
G01*
X161313636Y-112580455D01*
X161313636Y-112263182D01*
X161630909Y-112263182D01*
X161630909Y-112580455D01*
G37*
G36*
X162265454Y-107821364D02*
G01*
X161948182Y-107821364D01*
X161948182Y-107504091D01*
X162265454Y-107504091D01*
X162265454Y-107821364D01*
G37*
G36*
X159727273Y-109725000D02*
G01*
X159410000Y-109725000D01*
X159410000Y-109407728D01*
X159727273Y-109407728D01*
X159727273Y-109725000D01*
G37*
G36*
X166072727Y-110042273D02*
G01*
X165755454Y-110042273D01*
X165755454Y-109725000D01*
X166072727Y-109725000D01*
X166072727Y-110042273D01*
G37*
G36*
X165120909Y-106869546D02*
G01*
X164803636Y-106869546D01*
X164803636Y-106552273D01*
X165120909Y-106552273D01*
X165120909Y-106869546D01*
G37*
G36*
X125838222Y-110031322D02*
G01*
X126078545Y-109440958D01*
X126365318Y-109440958D01*
X126019521Y-110263263D01*
X126133377Y-110916845D01*
X125865658Y-110916845D01*
X125749630Y-110263263D01*
X125112908Y-109440958D01*
X125399642Y-109440958D01*
X125838222Y-110031322D01*
G37*
G36*
X164803636Y-112580455D02*
G01*
X164486363Y-112580455D01*
X164486363Y-112263182D01*
X164803636Y-112263182D01*
X164803636Y-112580455D01*
G37*
G36*
X163534545Y-113215000D02*
G01*
X163217273Y-113215000D01*
X163217273Y-112897727D01*
X163534545Y-112897727D01*
X163534545Y-113215000D01*
G37*
G36*
X160044545Y-109090455D02*
G01*
X159727273Y-109090455D01*
X159727273Y-108773182D01*
X160044545Y-108773182D01*
X160044545Y-109090455D01*
G37*
G36*
X162900000Y-110042273D02*
G01*
X162582727Y-110042273D01*
X162582727Y-109725000D01*
X162900000Y-109725000D01*
X162900000Y-110042273D01*
G37*
G36*
X161948182Y-108773182D02*
G01*
X161630909Y-108773182D01*
X161630909Y-108455910D01*
X161948182Y-108455910D01*
X161948182Y-108773182D01*
G37*
G36*
X160679091Y-108138637D02*
G01*
X160361818Y-108138637D01*
X160361818Y-107821364D01*
X160679091Y-107821364D01*
X160679091Y-108138637D01*
G37*
G36*
X159727273Y-111945909D02*
G01*
X159410000Y-111945909D01*
X159410000Y-111628637D01*
X159727273Y-111628637D01*
X159727273Y-111945909D01*
G37*
G36*
X161630909Y-112263182D02*
G01*
X161313636Y-112263182D01*
X161313636Y-111945909D01*
X161630909Y-111945909D01*
X161630909Y-112263182D01*
G37*
G36*
X164486363Y-106235001D02*
G01*
X164169091Y-106235001D01*
X164169091Y-105917728D01*
X164486363Y-105917728D01*
X164486363Y-106235001D01*
G37*
G36*
X164169091Y-110676819D02*
G01*
X163851818Y-110676819D01*
X163851818Y-110359546D01*
X164169091Y-110359546D01*
X164169091Y-110676819D01*
G37*
G36*
X164486363Y-111945909D02*
G01*
X164169091Y-111945909D01*
X164169091Y-111628637D01*
X164486363Y-111628637D01*
X164486363Y-111945909D01*
G37*
G36*
X164486363Y-107186819D02*
G01*
X164169091Y-107186819D01*
X164169091Y-106869546D01*
X164486363Y-106869546D01*
X164486363Y-107186819D01*
G37*
G36*
X166389999Y-107186819D02*
G01*
X166072727Y-107186819D01*
X166072727Y-106869546D01*
X166389999Y-106869546D01*
X166389999Y-107186819D01*
G37*
G36*
X163851818Y-109090455D02*
G01*
X163534545Y-109090455D01*
X163534545Y-108773182D01*
X163851818Y-108773182D01*
X163851818Y-109090455D01*
G37*
G36*
X161313636Y-112263182D02*
G01*
X160996364Y-112263182D01*
X160996364Y-111945909D01*
X161313636Y-111945909D01*
X161313636Y-112263182D01*
G37*
G36*
X162900000Y-111945909D02*
G01*
X162582727Y-111945909D01*
X162582727Y-111628637D01*
X162900000Y-111628637D01*
X162900000Y-111945909D01*
G37*
G36*
X164486363Y-106552273D02*
G01*
X164169091Y-106552273D01*
X164169091Y-106235001D01*
X164486363Y-106235001D01*
X164486363Y-106552273D01*
G37*
G36*
X162582727Y-113215000D02*
G01*
X162265454Y-113215000D01*
X162265454Y-112897727D01*
X162582727Y-112897727D01*
X162582727Y-113215000D01*
G37*
G36*
X159410000Y-110994091D02*
G01*
X159092727Y-110994091D01*
X159092727Y-110676819D01*
X159410000Y-110676819D01*
X159410000Y-110994091D01*
G37*
G36*
X163851818Y-108773182D02*
G01*
X163534545Y-108773182D01*
X163534545Y-108455910D01*
X163851818Y-108455910D01*
X163851818Y-108773182D01*
G37*
G36*
X161948182Y-106235001D02*
G01*
X161630909Y-106235001D01*
X161630909Y-105917728D01*
X161948182Y-105917728D01*
X161948182Y-106235001D01*
G37*
G36*
X161313636Y-111945909D02*
G01*
X160996364Y-111945909D01*
X160996364Y-111628637D01*
X161313636Y-111628637D01*
X161313636Y-111945909D01*
G37*
G36*
X159410000Y-109407728D02*
G01*
X159092727Y-109407728D01*
X159092727Y-109090455D01*
X159410000Y-109090455D01*
X159410000Y-109407728D01*
G37*
G36*
X160361818Y-113849545D02*
G01*
X160044545Y-113849545D01*
X160044545Y-113532273D01*
X160361818Y-113532273D01*
X160361818Y-113849545D01*
G37*
G36*
X163851818Y-113849545D02*
G01*
X163534545Y-113849545D01*
X163534545Y-113532273D01*
X163851818Y-113532273D01*
X163851818Y-113849545D01*
G37*
G36*
X166389999Y-107504091D02*
G01*
X166072727Y-107504091D01*
X166072727Y-107186819D01*
X166389999Y-107186819D01*
X166389999Y-107504091D01*
G37*
G36*
X166389999Y-111945909D02*
G01*
X166072727Y-111945909D01*
X166072727Y-111628637D01*
X166389999Y-111628637D01*
X166389999Y-111945909D01*
G37*
G36*
X158775455Y-113532273D02*
G01*
X158458182Y-113532273D01*
X158458182Y-113215000D01*
X158775455Y-113215000D01*
X158775455Y-113532273D01*
G37*
G36*
X160996364Y-108773182D02*
G01*
X160679091Y-108773182D01*
X160679091Y-108455910D01*
X160996364Y-108455910D01*
X160996364Y-108773182D01*
G37*
G36*
X161948182Y-112263182D02*
G01*
X161630909Y-112263182D01*
X161630909Y-111945909D01*
X161948182Y-111945909D01*
X161948182Y-112263182D01*
G37*
G36*
X160044545Y-106869546D02*
G01*
X159727273Y-106869546D01*
X159727273Y-106552273D01*
X160044545Y-106552273D01*
X160044545Y-106869546D01*
G37*
G36*
X162900000Y-109725000D02*
G01*
X162582727Y-109725000D01*
X162582727Y-109407728D01*
X162900000Y-109407728D01*
X162900000Y-109725000D01*
G37*
G36*
X161630909Y-109725000D02*
G01*
X161313636Y-109725000D01*
X161313636Y-109407728D01*
X161630909Y-109407728D01*
X161630909Y-109725000D01*
G37*
G36*
X160361818Y-111311364D02*
G01*
X160044545Y-111311364D01*
X160044545Y-110994091D01*
X160361818Y-110994091D01*
X160361818Y-111311364D01*
G37*
G36*
X162265454Y-112263182D02*
G01*
X161948182Y-112263182D01*
X161948182Y-111945909D01*
X162265454Y-111945909D01*
X162265454Y-112263182D01*
G37*
G36*
X163217273Y-110359546D02*
G01*
X162900000Y-110359546D01*
X162900000Y-110042273D01*
X163217273Y-110042273D01*
X163217273Y-110359546D01*
G37*
G36*
X162900000Y-112263182D02*
G01*
X162582727Y-112263182D01*
X162582727Y-111945909D01*
X162900000Y-111945909D01*
X162900000Y-112263182D01*
G37*
G36*
X161313636Y-108138637D02*
G01*
X160996364Y-108138637D01*
X160996364Y-107821364D01*
X161313636Y-107821364D01*
X161313636Y-108138637D01*
G37*
G36*
X165755454Y-109407728D02*
G01*
X165438181Y-109407728D01*
X165438181Y-109090455D01*
X165755454Y-109090455D01*
X165755454Y-109407728D01*
G37*
G36*
X161948182Y-108455910D02*
G01*
X161630909Y-108455910D01*
X161630909Y-108138637D01*
X161948182Y-108138637D01*
X161948182Y-108455910D01*
G37*
G36*
X164486363Y-108138637D02*
G01*
X164169091Y-108138637D01*
X164169091Y-107821364D01*
X164486363Y-107821364D01*
X164486363Y-108138637D01*
G37*
G36*
X158775455Y-107821364D02*
G01*
X158458182Y-107821364D01*
X158458182Y-107504091D01*
X158775455Y-107504091D01*
X158775455Y-107821364D01*
G37*
G36*
X159410000Y-112580455D02*
G01*
X159092727Y-112580455D01*
X159092727Y-112263182D01*
X159410000Y-112263182D01*
X159410000Y-112580455D01*
G37*
G36*
X158775455Y-113849545D02*
G01*
X158458182Y-113849545D01*
X158458182Y-113532273D01*
X158775455Y-113532273D01*
X158775455Y-113849545D01*
G37*
G36*
X161948182Y-110042273D02*
G01*
X161630909Y-110042273D01*
X161630909Y-109725000D01*
X161948182Y-109725000D01*
X161948182Y-110042273D01*
G37*
G36*
X159410000Y-111945909D02*
G01*
X159092727Y-111945909D01*
X159092727Y-111628637D01*
X159410000Y-111628637D01*
X159410000Y-111945909D01*
G37*
G36*
X159092727Y-106235001D02*
G01*
X158775455Y-106235001D01*
X158775455Y-105917728D01*
X159092727Y-105917728D01*
X159092727Y-106235001D01*
G37*
G36*
X160044545Y-108138637D02*
G01*
X159727273Y-108138637D01*
X159727273Y-107821364D01*
X160044545Y-107821364D01*
X160044545Y-108138637D01*
G37*
G36*
X161948182Y-109407728D02*
G01*
X161630909Y-109407728D01*
X161630909Y-109090455D01*
X161948182Y-109090455D01*
X161948182Y-109407728D01*
G37*
G36*
X159410000Y-107504091D02*
G01*
X159092727Y-107504091D01*
X159092727Y-107186819D01*
X159410000Y-107186819D01*
X159410000Y-107504091D01*
G37*
G36*
X162582727Y-108138637D02*
G01*
X162265454Y-108138637D01*
X162265454Y-107821364D01*
X162582727Y-107821364D01*
X162582727Y-108138637D01*
G37*
G36*
X165120909Y-113215000D02*
G01*
X164803636Y-113215000D01*
X164803636Y-112897727D01*
X165120909Y-112897727D01*
X165120909Y-113215000D01*
G37*
G36*
X159727273Y-106869546D02*
G01*
X159410000Y-106869546D01*
X159410000Y-106552273D01*
X159727273Y-106552273D01*
X159727273Y-106869546D01*
G37*
G36*
X158775455Y-108773182D02*
G01*
X158458182Y-108773182D01*
X158458182Y-108455910D01*
X158775455Y-108455910D01*
X158775455Y-108773182D01*
G37*
G36*
X160679091Y-108773182D02*
G01*
X160361818Y-108773182D01*
X160361818Y-108455910D01*
X160679091Y-108455910D01*
X160679091Y-108773182D01*
G37*
G36*
X160361818Y-108773182D02*
G01*
X160044545Y-108773182D01*
X160044545Y-108455910D01*
X160361818Y-108455910D01*
X160361818Y-108773182D01*
G37*
G36*
X127940939Y-109087827D02*
G01*
X127671085Y-109087827D01*
X127411747Y-107611936D01*
X127681639Y-107611936D01*
X127940939Y-109087827D01*
G37*
G36*
X127519859Y-112742844D02*
G01*
X127250005Y-112742844D01*
X126990628Y-111266945D01*
X127260521Y-111266945D01*
X127519859Y-112742844D01*
G37*
G36*
X159727273Y-110042273D02*
G01*
X159410000Y-110042273D01*
X159410000Y-109725000D01*
X159727273Y-109725000D01*
X159727273Y-110042273D01*
G37*
G36*
X160679091Y-106552273D02*
G01*
X160361818Y-106552273D01*
X160361818Y-106235001D01*
X160679091Y-106235001D01*
X160679091Y-106552273D01*
G37*
G36*
X159410000Y-107186819D02*
G01*
X159092727Y-107186819D01*
X159092727Y-106869546D01*
X159410000Y-106869546D01*
X159410000Y-107186819D01*
G37*
G36*
X159092727Y-110042273D02*
G01*
X158775455Y-110042273D01*
X158775455Y-109725000D01*
X159092727Y-109725000D01*
X159092727Y-110042273D01*
G37*
G36*
X165438181Y-111628637D02*
G01*
X165120909Y-111628637D01*
X165120909Y-111311364D01*
X165438181Y-111311364D01*
X165438181Y-111628637D01*
G37*
G36*
X160679091Y-107821364D02*
G01*
X160361818Y-107821364D01*
X160361818Y-107504091D01*
X160679091Y-107504091D01*
X160679091Y-107821364D01*
G37*
G36*
X161948182Y-111945909D02*
G01*
X161630909Y-111945909D01*
X161630909Y-111628637D01*
X161948182Y-111628637D01*
X161948182Y-111945909D01*
G37*
D11*
X166637782Y-147596895D02*
X167066353Y-147596895D01*
X166852068Y-147596895D02*
X166852068Y-146796895D01*
X166852068Y-146796895D02*
X166923496Y-146911180D01*
X166923496Y-146911180D02*
X166994925Y-146987371D01*
X166994925Y-146987371D02*
X167066353Y-147025466D01*
X166352067Y-146873085D02*
X166316353Y-146834990D01*
X166316353Y-146834990D02*
X166244925Y-146796895D01*
X166244925Y-146796895D02*
X166066353Y-146796895D01*
X166066353Y-146796895D02*
X165994925Y-146834990D01*
X165994925Y-146834990D02*
X165959210Y-146873085D01*
X165959210Y-146873085D02*
X165923496Y-146949276D01*
X165923496Y-146949276D02*
X165923496Y-147025466D01*
X165923496Y-147025466D02*
X165959210Y-147139752D01*
X165959210Y-147139752D02*
X166387782Y-147596895D01*
X166387782Y-147596895D02*
X165923496Y-147596895D01*
X165709210Y-146796895D02*
X165459210Y-147596895D01*
X165459210Y-147596895D02*
X165209210Y-146796895D01*
X163887781Y-146796895D02*
X163423495Y-146796895D01*
X163423495Y-146796895D02*
X163673495Y-147101657D01*
X163673495Y-147101657D02*
X163566352Y-147101657D01*
X163566352Y-147101657D02*
X163494924Y-147139752D01*
X163494924Y-147139752D02*
X163459209Y-147177847D01*
X163459209Y-147177847D02*
X163423495Y-147254038D01*
X163423495Y-147254038D02*
X163423495Y-147444514D01*
X163423495Y-147444514D02*
X163459209Y-147520704D01*
X163459209Y-147520704D02*
X163494924Y-147558800D01*
X163494924Y-147558800D02*
X163566352Y-147596895D01*
X163566352Y-147596895D02*
X163780638Y-147596895D01*
X163780638Y-147596895D02*
X163852066Y-147558800D01*
X163852066Y-147558800D02*
X163887781Y-147520704D01*
X163173495Y-147063561D02*
X162994923Y-147596895D01*
X162994923Y-147596895D02*
X162816352Y-147063561D01*
X162602066Y-146796895D02*
X162137780Y-146796895D01*
X162137780Y-146796895D02*
X162387780Y-147101657D01*
X162387780Y-147101657D02*
X162280637Y-147101657D01*
X162280637Y-147101657D02*
X162209209Y-147139752D01*
X162209209Y-147139752D02*
X162173494Y-147177847D01*
X162173494Y-147177847D02*
X162137780Y-147254038D01*
X162137780Y-147254038D02*
X162137780Y-147444514D01*
X162137780Y-147444514D02*
X162173494Y-147520704D01*
X162173494Y-147520704D02*
X162209209Y-147558800D01*
X162209209Y-147558800D02*
X162280637Y-147596895D01*
X162280637Y-147596895D02*
X162494923Y-147596895D01*
X162494923Y-147596895D02*
X162566351Y-147558800D01*
X162566351Y-147558800D02*
X162602066Y-147520704D01*
X160423493Y-147177847D02*
X160673493Y-147177847D01*
X160673493Y-147596895D02*
X160673493Y-146796895D01*
X160673493Y-146796895D02*
X160316350Y-146796895D01*
X159637779Y-146834990D02*
X159709208Y-146796895D01*
X159709208Y-146796895D02*
X159816350Y-146796895D01*
X159816350Y-146796895D02*
X159923493Y-146834990D01*
X159923493Y-146834990D02*
X159994922Y-146911180D01*
X159994922Y-146911180D02*
X160030636Y-146987371D01*
X160030636Y-146987371D02*
X160066350Y-147139752D01*
X160066350Y-147139752D02*
X160066350Y-147254038D01*
X160066350Y-147254038D02*
X160030636Y-147406419D01*
X160030636Y-147406419D02*
X159994922Y-147482609D01*
X159994922Y-147482609D02*
X159923493Y-147558800D01*
X159923493Y-147558800D02*
X159816350Y-147596895D01*
X159816350Y-147596895D02*
X159744922Y-147596895D01*
X159744922Y-147596895D02*
X159637779Y-147558800D01*
X159637779Y-147558800D02*
X159602065Y-147520704D01*
X159602065Y-147520704D02*
X159602065Y-147254038D01*
X159602065Y-147254038D02*
X159744922Y-147254038D01*
X157887778Y-147177847D02*
X158137778Y-147177847D01*
X158137778Y-147596895D02*
X158137778Y-146796895D01*
X158137778Y-146796895D02*
X157780635Y-146796895D01*
X157530635Y-147368323D02*
X157173493Y-147368323D01*
X157602064Y-147596895D02*
X157352064Y-146796895D01*
X157352064Y-146796895D02*
X157102064Y-147596895D01*
X156852064Y-146796895D02*
X156852064Y-147444514D01*
X156852064Y-147444514D02*
X156816350Y-147520704D01*
X156816350Y-147520704D02*
X156780636Y-147558800D01*
X156780636Y-147558800D02*
X156709207Y-147596895D01*
X156709207Y-147596895D02*
X156566350Y-147596895D01*
X156566350Y-147596895D02*
X156494921Y-147558800D01*
X156494921Y-147558800D02*
X156459207Y-147520704D01*
X156459207Y-147520704D02*
X156423493Y-147444514D01*
X156423493Y-147444514D02*
X156423493Y-146796895D01*
X155709207Y-147596895D02*
X156066350Y-147596895D01*
X156066350Y-147596895D02*
X156066350Y-146796895D01*
X155566350Y-146796895D02*
X155137779Y-146796895D01*
X155352064Y-147596895D02*
X155352064Y-146796895D01*
X149471428Y-106977447D02*
X149471428Y-105977447D01*
X149471428Y-105977447D02*
X149138095Y-106691732D01*
X149138095Y-106691732D02*
X148804762Y-105977447D01*
X148804762Y-105977447D02*
X148804762Y-106977447D01*
X148138095Y-105977447D02*
X147947619Y-105977447D01*
X147947619Y-105977447D02*
X147852381Y-106025066D01*
X147852381Y-106025066D02*
X147757143Y-106120304D01*
X147757143Y-106120304D02*
X147709524Y-106310780D01*
X147709524Y-106310780D02*
X147709524Y-106644113D01*
X147709524Y-106644113D02*
X147757143Y-106834589D01*
X147757143Y-106834589D02*
X147852381Y-106929828D01*
X147852381Y-106929828D02*
X147947619Y-106977447D01*
X147947619Y-106977447D02*
X148138095Y-106977447D01*
X148138095Y-106977447D02*
X148233333Y-106929828D01*
X148233333Y-106929828D02*
X148328571Y-106834589D01*
X148328571Y-106834589D02*
X148376190Y-106644113D01*
X148376190Y-106644113D02*
X148376190Y-106310780D01*
X148376190Y-106310780D02*
X148328571Y-106120304D01*
X148328571Y-106120304D02*
X148233333Y-106025066D01*
X148233333Y-106025066D02*
X148138095Y-105977447D01*
X147423809Y-105977447D02*
X146852381Y-105977447D01*
X147138095Y-106977447D02*
X147138095Y-105977447D01*
X146328571Y-105977447D02*
X146138095Y-105977447D01*
X146138095Y-105977447D02*
X146042857Y-106025066D01*
X146042857Y-106025066D02*
X145947619Y-106120304D01*
X145947619Y-106120304D02*
X145900000Y-106310780D01*
X145900000Y-106310780D02*
X145900000Y-106644113D01*
X145900000Y-106644113D02*
X145947619Y-106834589D01*
X145947619Y-106834589D02*
X146042857Y-106929828D01*
X146042857Y-106929828D02*
X146138095Y-106977447D01*
X146138095Y-106977447D02*
X146328571Y-106977447D01*
X146328571Y-106977447D02*
X146423809Y-106929828D01*
X146423809Y-106929828D02*
X146519047Y-106834589D01*
X146519047Y-106834589D02*
X146566666Y-106644113D01*
X146566666Y-106644113D02*
X146566666Y-106310780D01*
X146566666Y-106310780D02*
X146519047Y-106120304D01*
X146519047Y-106120304D02*
X146423809Y-106025066D01*
X146423809Y-106025066D02*
X146328571Y-105977447D01*
X144900000Y-106977447D02*
X145233333Y-106501256D01*
X145471428Y-106977447D02*
X145471428Y-105977447D01*
X145471428Y-105977447D02*
X145090476Y-105977447D01*
X145090476Y-105977447D02*
X144995238Y-106025066D01*
X144995238Y-106025066D02*
X144947619Y-106072685D01*
X144947619Y-106072685D02*
X144900000Y-106167923D01*
X144900000Y-106167923D02*
X144900000Y-106310780D01*
X144900000Y-106310780D02*
X144947619Y-106406018D01*
X144947619Y-106406018D02*
X144995238Y-106453637D01*
X144995238Y-106453637D02*
X145090476Y-106501256D01*
X145090476Y-106501256D02*
X145471428Y-106501256D01*
X143519047Y-105977447D02*
X143328571Y-105977447D01*
X143328571Y-105977447D02*
X143233333Y-106025066D01*
X143233333Y-106025066D02*
X143138095Y-106120304D01*
X143138095Y-106120304D02*
X143090476Y-106310780D01*
X143090476Y-106310780D02*
X143090476Y-106644113D01*
X143090476Y-106644113D02*
X143138095Y-106834589D01*
X143138095Y-106834589D02*
X143233333Y-106929828D01*
X143233333Y-106929828D02*
X143328571Y-106977447D01*
X143328571Y-106977447D02*
X143519047Y-106977447D01*
X143519047Y-106977447D02*
X143614285Y-106929828D01*
X143614285Y-106929828D02*
X143709523Y-106834589D01*
X143709523Y-106834589D02*
X143757142Y-106644113D01*
X143757142Y-106644113D02*
X143757142Y-106310780D01*
X143757142Y-106310780D02*
X143709523Y-106120304D01*
X143709523Y-106120304D02*
X143614285Y-106025066D01*
X143614285Y-106025066D02*
X143519047Y-105977447D01*
X142661904Y-105977447D02*
X142661904Y-106786970D01*
X142661904Y-106786970D02*
X142614285Y-106882208D01*
X142614285Y-106882208D02*
X142566666Y-106929828D01*
X142566666Y-106929828D02*
X142471428Y-106977447D01*
X142471428Y-106977447D02*
X142280952Y-106977447D01*
X142280952Y-106977447D02*
X142185714Y-106929828D01*
X142185714Y-106929828D02*
X142138095Y-106882208D01*
X142138095Y-106882208D02*
X142090476Y-106786970D01*
X142090476Y-106786970D02*
X142090476Y-105977447D01*
X141757142Y-105977447D02*
X141185714Y-105977447D01*
X141471428Y-106977447D02*
X141471428Y-105977447D01*
X147542857Y-108492152D02*
X147590476Y-108539772D01*
X147590476Y-108539772D02*
X147733333Y-108587391D01*
X147733333Y-108587391D02*
X147828571Y-108587391D01*
X147828571Y-108587391D02*
X147971428Y-108539772D01*
X147971428Y-108539772D02*
X148066666Y-108444533D01*
X148066666Y-108444533D02*
X148114285Y-108349295D01*
X148114285Y-108349295D02*
X148161904Y-108158819D01*
X148161904Y-108158819D02*
X148161904Y-108015962D01*
X148161904Y-108015962D02*
X148114285Y-107825486D01*
X148114285Y-107825486D02*
X148066666Y-107730248D01*
X148066666Y-107730248D02*
X147971428Y-107635010D01*
X147971428Y-107635010D02*
X147828571Y-107587391D01*
X147828571Y-107587391D02*
X147733333Y-107587391D01*
X147733333Y-107587391D02*
X147590476Y-107635010D01*
X147590476Y-107635010D02*
X147542857Y-107682629D01*
X145257142Y-108063581D02*
X145114285Y-108111200D01*
X145114285Y-108111200D02*
X145066666Y-108158819D01*
X145066666Y-108158819D02*
X145019047Y-108254057D01*
X145019047Y-108254057D02*
X145019047Y-108396914D01*
X145019047Y-108396914D02*
X145066666Y-108492152D01*
X145066666Y-108492152D02*
X145114285Y-108539772D01*
X145114285Y-108539772D02*
X145209523Y-108587391D01*
X145209523Y-108587391D02*
X145590475Y-108587391D01*
X145590475Y-108587391D02*
X145590475Y-107587391D01*
X145590475Y-107587391D02*
X145257142Y-107587391D01*
X145257142Y-107587391D02*
X145161904Y-107635010D01*
X145161904Y-107635010D02*
X145114285Y-107682629D01*
X145114285Y-107682629D02*
X145066666Y-107777867D01*
X145066666Y-107777867D02*
X145066666Y-107873105D01*
X145066666Y-107873105D02*
X145114285Y-107968343D01*
X145114285Y-107968343D02*
X145161904Y-108015962D01*
X145161904Y-108015962D02*
X145257142Y-108063581D01*
X145257142Y-108063581D02*
X145590475Y-108063581D01*
X143114284Y-108301676D02*
X142638094Y-108301676D01*
X143209522Y-108587391D02*
X142876189Y-107587391D01*
X142876189Y-107587391D02*
X142542856Y-108587391D01*
X134064284Y-147582419D02*
X134064284Y-146582419D01*
X134064284Y-146582419D02*
X133683332Y-146582419D01*
X133683332Y-146582419D02*
X133588094Y-146630038D01*
X133588094Y-146630038D02*
X133540475Y-146677657D01*
X133540475Y-146677657D02*
X133492856Y-146772895D01*
X133492856Y-146772895D02*
X133492856Y-146915752D01*
X133492856Y-146915752D02*
X133540475Y-147010990D01*
X133540475Y-147010990D02*
X133588094Y-147058609D01*
X133588094Y-147058609D02*
X133683332Y-147106228D01*
X133683332Y-147106228D02*
X134064284Y-147106228D01*
X133159522Y-146582419D02*
X132921427Y-147582419D01*
X132921427Y-147582419D02*
X132730951Y-146868133D01*
X132730951Y-146868133D02*
X132540475Y-147582419D01*
X132540475Y-147582419D02*
X132302380Y-146582419D01*
X131349999Y-147582419D02*
X131683332Y-147106228D01*
X131921427Y-147582419D02*
X131921427Y-146582419D01*
X131921427Y-146582419D02*
X131540475Y-146582419D01*
X131540475Y-146582419D02*
X131445237Y-146630038D01*
X131445237Y-146630038D02*
X131397618Y-146677657D01*
X131397618Y-146677657D02*
X131349999Y-146772895D01*
X131349999Y-146772895D02*
X131349999Y-146915752D01*
X131349999Y-146915752D02*
X131397618Y-147010990D01*
X131397618Y-147010990D02*
X131445237Y-147058609D01*
X131445237Y-147058609D02*
X131540475Y-147106228D01*
X131540475Y-147106228D02*
X131921427Y-147106228D01*
X130921427Y-147201466D02*
X130159523Y-147201466D01*
X129683332Y-147582419D02*
X129683332Y-146582419D01*
X129207142Y-147582419D02*
X129207142Y-146582419D01*
X129207142Y-146582419D02*
X128635714Y-147582419D01*
X128635714Y-147582419D02*
X128635714Y-146582419D01*
D12*
X152547619Y-122329438D02*
X151404762Y-122329438D01*
X151976191Y-124329438D02*
X151976191Y-122329438D01*
X150071428Y-123281819D02*
X150738095Y-123281819D01*
X150738095Y-124329438D02*
X150738095Y-122329438D01*
X150738095Y-122329438D02*
X149785714Y-122329438D01*
X149023809Y-123281819D02*
X148357142Y-123281819D01*
X148071428Y-124329438D02*
X149023809Y-124329438D01*
X149023809Y-124329438D02*
X149023809Y-122329438D01*
X149023809Y-122329438D02*
X148071428Y-122329438D01*
X147309523Y-124234200D02*
X147023809Y-124329438D01*
X147023809Y-124329438D02*
X146547618Y-124329438D01*
X146547618Y-124329438D02*
X146357142Y-124234200D01*
X146357142Y-124234200D02*
X146261904Y-124138961D01*
X146261904Y-124138961D02*
X146166666Y-123948485D01*
X146166666Y-123948485D02*
X146166666Y-123758009D01*
X146166666Y-123758009D02*
X146261904Y-123567533D01*
X146261904Y-123567533D02*
X146357142Y-123472295D01*
X146357142Y-123472295D02*
X146547618Y-123377057D01*
X146547618Y-123377057D02*
X146928571Y-123281819D01*
X146928571Y-123281819D02*
X147119047Y-123186580D01*
X147119047Y-123186580D02*
X147214285Y-123091342D01*
X147214285Y-123091342D02*
X147309523Y-122900866D01*
X147309523Y-122900866D02*
X147309523Y-122710390D01*
X147309523Y-122710390D02*
X147214285Y-122519914D01*
X147214285Y-122519914D02*
X147119047Y-122424676D01*
X147119047Y-122424676D02*
X146928571Y-122329438D01*
X146928571Y-122329438D02*
X146452380Y-122329438D01*
X146452380Y-122329438D02*
X146166666Y-122424676D01*
X144166666Y-124138961D02*
X144261904Y-124234200D01*
X144261904Y-124234200D02*
X144547618Y-124329438D01*
X144547618Y-124329438D02*
X144738094Y-124329438D01*
X144738094Y-124329438D02*
X145023809Y-124234200D01*
X145023809Y-124234200D02*
X145214285Y-124043723D01*
X145214285Y-124043723D02*
X145309523Y-123853247D01*
X145309523Y-123853247D02*
X145404761Y-123472295D01*
X145404761Y-123472295D02*
X145404761Y-123186580D01*
X145404761Y-123186580D02*
X145309523Y-122805628D01*
X145309523Y-122805628D02*
X145214285Y-122615152D01*
X145214285Y-122615152D02*
X145023809Y-122424676D01*
X145023809Y-122424676D02*
X144738094Y-122329438D01*
X144738094Y-122329438D02*
X144547618Y-122329438D01*
X144547618Y-122329438D02*
X144261904Y-122424676D01*
X144261904Y-122424676D02*
X144166666Y-122519914D01*
X142928571Y-122329438D02*
X142738094Y-122329438D01*
X142738094Y-122329438D02*
X142547618Y-122424676D01*
X142547618Y-122424676D02*
X142452380Y-122519914D01*
X142452380Y-122519914D02*
X142357142Y-122710390D01*
X142357142Y-122710390D02*
X142261904Y-123091342D01*
X142261904Y-123091342D02*
X142261904Y-123567533D01*
X142261904Y-123567533D02*
X142357142Y-123948485D01*
X142357142Y-123948485D02*
X142452380Y-124138961D01*
X142452380Y-124138961D02*
X142547618Y-124234200D01*
X142547618Y-124234200D02*
X142738094Y-124329438D01*
X142738094Y-124329438D02*
X142928571Y-124329438D01*
X142928571Y-124329438D02*
X143119047Y-124234200D01*
X143119047Y-124234200D02*
X143214285Y-124138961D01*
X143214285Y-124138961D02*
X143309523Y-123948485D01*
X143309523Y-123948485D02*
X143404761Y-123567533D01*
X143404761Y-123567533D02*
X143404761Y-123091342D01*
X143404761Y-123091342D02*
X143309523Y-122710390D01*
X143309523Y-122710390D02*
X143214285Y-122519914D01*
X143214285Y-122519914D02*
X143119047Y-122424676D01*
X143119047Y-122424676D02*
X142928571Y-122329438D01*
X141499999Y-122519914D02*
X141404761Y-122424676D01*
X141404761Y-122424676D02*
X141214285Y-122329438D01*
X141214285Y-122329438D02*
X140738094Y-122329438D01*
X140738094Y-122329438D02*
X140547618Y-122424676D01*
X140547618Y-122424676D02*
X140452380Y-122519914D01*
X140452380Y-122519914D02*
X140357142Y-122710390D01*
X140357142Y-122710390D02*
X140357142Y-122900866D01*
X140357142Y-122900866D02*
X140452380Y-123186580D01*
X140452380Y-123186580D02*
X141595237Y-124329438D01*
X141595237Y-124329438D02*
X140357142Y-124329438D01*
X139595237Y-123758009D02*
X138642856Y-123758009D01*
X139785713Y-124329438D02*
X139119047Y-122329438D01*
X139119047Y-122329438D02*
X138452380Y-124329438D01*
D13*
X166572342Y-127699999D02*
X165372342Y-127699999D01*
X165372342Y-127699999D02*
X165372342Y-128157142D01*
X165372342Y-128157142D02*
X165429485Y-128271427D01*
X165429485Y-128271427D02*
X165486628Y-128328570D01*
X165486628Y-128328570D02*
X165600914Y-128385713D01*
X165600914Y-128385713D02*
X165772342Y-128385713D01*
X165772342Y-128385713D02*
X165886628Y-128328570D01*
X165886628Y-128328570D02*
X165943771Y-128271427D01*
X165943771Y-128271427D02*
X166000914Y-128157142D01*
X166000914Y-128157142D02*
X166000914Y-127699999D01*
X166572342Y-128899999D02*
X165772342Y-128899999D01*
X165372342Y-128899999D02*
X165429485Y-128842856D01*
X165429485Y-128842856D02*
X165486628Y-128899999D01*
X165486628Y-128899999D02*
X165429485Y-128957142D01*
X165429485Y-128957142D02*
X165372342Y-128899999D01*
X165372342Y-128899999D02*
X165486628Y-128899999D01*
X166572342Y-129357142D02*
X165772342Y-129985714D01*
X165772342Y-129357142D02*
X166572342Y-129985714D01*
X166572342Y-130442857D02*
X165372342Y-130442857D01*
X166572342Y-130957143D02*
X165943771Y-130957143D01*
X165943771Y-130957143D02*
X165829485Y-130900000D01*
X165829485Y-130900000D02*
X165772342Y-130785714D01*
X165772342Y-130785714D02*
X165772342Y-130614285D01*
X165772342Y-130614285D02*
X165829485Y-130500000D01*
X165829485Y-130500000D02*
X165886628Y-130442857D01*
X166572342Y-132042857D02*
X165943771Y-132042857D01*
X165943771Y-132042857D02*
X165829485Y-131985714D01*
X165829485Y-131985714D02*
X165772342Y-131871428D01*
X165772342Y-131871428D02*
X165772342Y-131642857D01*
X165772342Y-131642857D02*
X165829485Y-131528571D01*
X166515200Y-132042857D02*
X166572342Y-131928571D01*
X166572342Y-131928571D02*
X166572342Y-131642857D01*
X166572342Y-131642857D02*
X166515200Y-131528571D01*
X166515200Y-131528571D02*
X166400914Y-131471428D01*
X166400914Y-131471428D02*
X166286628Y-131471428D01*
X166286628Y-131471428D02*
X166172342Y-131528571D01*
X166172342Y-131528571D02*
X166115200Y-131642857D01*
X166115200Y-131642857D02*
X166115200Y-131928571D01*
X166115200Y-131928571D02*
X166058057Y-132042857D01*
X165772342Y-132499999D02*
X166572342Y-132728571D01*
X166572342Y-132728571D02*
X166000914Y-132957142D01*
X166000914Y-132957142D02*
X166572342Y-133185713D01*
X166572342Y-133185713D02*
X165772342Y-133414285D01*
X166572342Y-133871428D02*
X165372342Y-133871428D01*
X166115200Y-133985714D02*
X166572342Y-134328571D01*
X165772342Y-134328571D02*
X166229485Y-133871428D01*
X166572342Y-135757143D02*
X165372342Y-135757143D01*
X165486628Y-136271429D02*
X165429485Y-136328572D01*
X165429485Y-136328572D02*
X165372342Y-136442858D01*
X165372342Y-136442858D02*
X165372342Y-136728572D01*
X165372342Y-136728572D02*
X165429485Y-136842858D01*
X165429485Y-136842858D02*
X165486628Y-136900000D01*
X165486628Y-136900000D02*
X165600914Y-136957143D01*
X165600914Y-136957143D02*
X165715200Y-136957143D01*
X165715200Y-136957143D02*
X165886628Y-136900000D01*
X165886628Y-136900000D02*
X166572342Y-136214286D01*
X166572342Y-136214286D02*
X166572342Y-136957143D01*
X166458057Y-138157143D02*
X166515200Y-138100000D01*
X166515200Y-138100000D02*
X166572342Y-137928572D01*
X166572342Y-137928572D02*
X166572342Y-137814286D01*
X166572342Y-137814286D02*
X166515200Y-137642857D01*
X166515200Y-137642857D02*
X166400914Y-137528572D01*
X166400914Y-137528572D02*
X166286628Y-137471429D01*
X166286628Y-137471429D02*
X166058057Y-137414286D01*
X166058057Y-137414286D02*
X165886628Y-137414286D01*
X165886628Y-137414286D02*
X165658057Y-137471429D01*
X165658057Y-137471429D02*
X165543771Y-137528572D01*
X165543771Y-137528572D02*
X165429485Y-137642857D01*
X165429485Y-137642857D02*
X165372342Y-137814286D01*
X165372342Y-137814286D02*
X165372342Y-137928572D01*
X165372342Y-137928572D02*
X165429485Y-138100000D01*
X165429485Y-138100000D02*
X165486628Y-138157143D01*
D11*
X164036904Y-129990122D02*
X164132142Y-129942503D01*
X164132142Y-129942503D02*
X164274999Y-129942503D01*
X164274999Y-129942503D02*
X164417856Y-129990122D01*
X164417856Y-129990122D02*
X164513094Y-130085360D01*
X164513094Y-130085360D02*
X164560713Y-130180598D01*
X164560713Y-130180598D02*
X164608332Y-130371074D01*
X164608332Y-130371074D02*
X164608332Y-130513931D01*
X164608332Y-130513931D02*
X164560713Y-130704407D01*
X164560713Y-130704407D02*
X164513094Y-130799645D01*
X164513094Y-130799645D02*
X164417856Y-130894884D01*
X164417856Y-130894884D02*
X164274999Y-130942503D01*
X164274999Y-130942503D02*
X164179761Y-130942503D01*
X164179761Y-130942503D02*
X164036904Y-130894884D01*
X164036904Y-130894884D02*
X163989285Y-130847264D01*
X163989285Y-130847264D02*
X163989285Y-130513931D01*
X163989285Y-130513931D02*
X164179761Y-130513931D01*
X163560713Y-130942503D02*
X163560713Y-129942503D01*
X163560713Y-129942503D02*
X162989285Y-130942503D01*
X162989285Y-130942503D02*
X162989285Y-129942503D01*
X162513094Y-130942503D02*
X162513094Y-129942503D01*
X162513094Y-129942503D02*
X162274999Y-129942503D01*
X162274999Y-129942503D02*
X162132142Y-129990122D01*
X162132142Y-129990122D02*
X162036904Y-130085360D01*
X162036904Y-130085360D02*
X161989285Y-130180598D01*
X161989285Y-130180598D02*
X161941666Y-130371074D01*
X161941666Y-130371074D02*
X161941666Y-130513931D01*
X161941666Y-130513931D02*
X161989285Y-130704407D01*
X161989285Y-130704407D02*
X162036904Y-130799645D01*
X162036904Y-130799645D02*
X162132142Y-130894884D01*
X162132142Y-130894884D02*
X162274999Y-130942503D01*
X162274999Y-130942503D02*
X162513094Y-130942503D01*
X164489285Y-132504828D02*
X164346428Y-132552447D01*
X164346428Y-132552447D02*
X164108333Y-132552447D01*
X164108333Y-132552447D02*
X164013095Y-132504828D01*
X164013095Y-132504828D02*
X163965476Y-132457208D01*
X163965476Y-132457208D02*
X163917857Y-132361970D01*
X163917857Y-132361970D02*
X163917857Y-132266732D01*
X163917857Y-132266732D02*
X163965476Y-132171494D01*
X163965476Y-132171494D02*
X164013095Y-132123875D01*
X164013095Y-132123875D02*
X164108333Y-132076256D01*
X164108333Y-132076256D02*
X164298809Y-132028637D01*
X164298809Y-132028637D02*
X164394047Y-131981018D01*
X164394047Y-131981018D02*
X164441666Y-131933399D01*
X164441666Y-131933399D02*
X164489285Y-131838161D01*
X164489285Y-131838161D02*
X164489285Y-131742923D01*
X164489285Y-131742923D02*
X164441666Y-131647685D01*
X164441666Y-131647685D02*
X164394047Y-131600066D01*
X164394047Y-131600066D02*
X164298809Y-131552447D01*
X164298809Y-131552447D02*
X164060714Y-131552447D01*
X164060714Y-131552447D02*
X163917857Y-131600066D01*
X163489285Y-132552447D02*
X163489285Y-131552447D01*
X163489285Y-131552447D02*
X163251190Y-131552447D01*
X163251190Y-131552447D02*
X163108333Y-131600066D01*
X163108333Y-131600066D02*
X163013095Y-131695304D01*
X163013095Y-131695304D02*
X162965476Y-131790542D01*
X162965476Y-131790542D02*
X162917857Y-131981018D01*
X162917857Y-131981018D02*
X162917857Y-132123875D01*
X162917857Y-132123875D02*
X162965476Y-132314351D01*
X162965476Y-132314351D02*
X163013095Y-132409589D01*
X163013095Y-132409589D02*
X163108333Y-132504828D01*
X163108333Y-132504828D02*
X163251190Y-132552447D01*
X163251190Y-132552447D02*
X163489285Y-132552447D01*
X162536904Y-132266732D02*
X162060714Y-132266732D01*
X162632142Y-132552447D02*
X162298809Y-131552447D01*
X162298809Y-131552447D02*
X161965476Y-132552447D01*
X164465475Y-134114772D02*
X164322618Y-134162391D01*
X164322618Y-134162391D02*
X164084523Y-134162391D01*
X164084523Y-134162391D02*
X163989285Y-134114772D01*
X163989285Y-134114772D02*
X163941666Y-134067152D01*
X163941666Y-134067152D02*
X163894047Y-133971914D01*
X163894047Y-133971914D02*
X163894047Y-133876676D01*
X163894047Y-133876676D02*
X163941666Y-133781438D01*
X163941666Y-133781438D02*
X163989285Y-133733819D01*
X163989285Y-133733819D02*
X164084523Y-133686200D01*
X164084523Y-133686200D02*
X164274999Y-133638581D01*
X164274999Y-133638581D02*
X164370237Y-133590962D01*
X164370237Y-133590962D02*
X164417856Y-133543343D01*
X164417856Y-133543343D02*
X164465475Y-133448105D01*
X164465475Y-133448105D02*
X164465475Y-133352867D01*
X164465475Y-133352867D02*
X164417856Y-133257629D01*
X164417856Y-133257629D02*
X164370237Y-133210010D01*
X164370237Y-133210010D02*
X164274999Y-133162391D01*
X164274999Y-133162391D02*
X164036904Y-133162391D01*
X164036904Y-133162391D02*
X163894047Y-133210010D01*
X162894047Y-134067152D02*
X162941666Y-134114772D01*
X162941666Y-134114772D02*
X163084523Y-134162391D01*
X163084523Y-134162391D02*
X163179761Y-134162391D01*
X163179761Y-134162391D02*
X163322618Y-134114772D01*
X163322618Y-134114772D02*
X163417856Y-134019533D01*
X163417856Y-134019533D02*
X163465475Y-133924295D01*
X163465475Y-133924295D02*
X163513094Y-133733819D01*
X163513094Y-133733819D02*
X163513094Y-133590962D01*
X163513094Y-133590962D02*
X163465475Y-133400486D01*
X163465475Y-133400486D02*
X163417856Y-133305248D01*
X163417856Y-133305248D02*
X163322618Y-133210010D01*
X163322618Y-133210010D02*
X163179761Y-133162391D01*
X163179761Y-133162391D02*
X163084523Y-133162391D01*
X163084523Y-133162391D02*
X162941666Y-133210010D01*
X162941666Y-133210010D02*
X162894047Y-133257629D01*
X161989285Y-134162391D02*
X162465475Y-134162391D01*
X162465475Y-134162391D02*
X162465475Y-133162391D01*
X163894047Y-134772335D02*
X164370237Y-134772335D01*
X164370237Y-134772335D02*
X164417856Y-135248525D01*
X164417856Y-135248525D02*
X164370237Y-135200906D01*
X164370237Y-135200906D02*
X164274999Y-135153287D01*
X164274999Y-135153287D02*
X164036904Y-135153287D01*
X164036904Y-135153287D02*
X163941666Y-135200906D01*
X163941666Y-135200906D02*
X163894047Y-135248525D01*
X163894047Y-135248525D02*
X163846428Y-135343763D01*
X163846428Y-135343763D02*
X163846428Y-135581858D01*
X163846428Y-135581858D02*
X163894047Y-135677096D01*
X163894047Y-135677096D02*
X163941666Y-135724716D01*
X163941666Y-135724716D02*
X164036904Y-135772335D01*
X164036904Y-135772335D02*
X164274999Y-135772335D01*
X164274999Y-135772335D02*
X164370237Y-135724716D01*
X164370237Y-135724716D02*
X164417856Y-135677096D01*
X163513094Y-135105668D02*
X163274999Y-135772335D01*
X163274999Y-135772335D02*
X163036904Y-135105668D01*
X162227380Y-135105668D02*
X162227380Y-135772335D01*
X162465475Y-134724716D02*
X162703570Y-135439001D01*
X162703570Y-135439001D02*
X162084523Y-135439001D01*
X166394925Y-145897419D02*
X166871115Y-145897419D01*
X166871115Y-145897419D02*
X166871115Y-144897419D01*
X166061591Y-145373609D02*
X165728258Y-145373609D01*
X165585401Y-145897419D02*
X166061591Y-145897419D01*
X166061591Y-145897419D02*
X166061591Y-144897419D01*
X166061591Y-144897419D02*
X165585401Y-144897419D01*
X165156829Y-145897419D02*
X165156829Y-144897419D01*
X165156829Y-144897419D02*
X164918734Y-144897419D01*
X164918734Y-144897419D02*
X164775877Y-144945038D01*
X164775877Y-144945038D02*
X164680639Y-145040276D01*
X164680639Y-145040276D02*
X164633020Y-145135514D01*
X164633020Y-145135514D02*
X164585401Y-145325990D01*
X164585401Y-145325990D02*
X164585401Y-145468847D01*
X164585401Y-145468847D02*
X164633020Y-145659323D01*
X164633020Y-145659323D02*
X164680639Y-145754561D01*
X164680639Y-145754561D02*
X164775877Y-145849800D01*
X164775877Y-145849800D02*
X164918734Y-145897419D01*
X164918734Y-145897419D02*
X165156829Y-145897419D01*
X164204448Y-145849800D02*
X164109210Y-145897419D01*
X164109210Y-145897419D02*
X163918734Y-145897419D01*
X163918734Y-145897419D02*
X163823496Y-145849800D01*
X163823496Y-145849800D02*
X163775877Y-145754561D01*
X163775877Y-145754561D02*
X163775877Y-145706942D01*
X163775877Y-145706942D02*
X163823496Y-145611704D01*
X163823496Y-145611704D02*
X163918734Y-145564085D01*
X163918734Y-145564085D02*
X164061591Y-145564085D01*
X164061591Y-145564085D02*
X164156829Y-145516466D01*
X164156829Y-145516466D02*
X164204448Y-145421228D01*
X164204448Y-145421228D02*
X164204448Y-145373609D01*
X164204448Y-145373609D02*
X164156829Y-145278371D01*
X164156829Y-145278371D02*
X164061591Y-145230752D01*
X164061591Y-145230752D02*
X163918734Y-145230752D01*
X163918734Y-145230752D02*
X163823496Y-145278371D01*
X152974569Y-147122306D02*
X153022188Y-147217544D01*
X153022188Y-147217544D02*
X153022188Y-147360401D01*
X153022188Y-147360401D02*
X152974569Y-147503258D01*
X152974569Y-147503258D02*
X152879331Y-147598496D01*
X152879331Y-147598496D02*
X152784093Y-147646115D01*
X152784093Y-147646115D02*
X152593617Y-147693734D01*
X152593617Y-147693734D02*
X152450760Y-147693734D01*
X152450760Y-147693734D02*
X152260284Y-147646115D01*
X152260284Y-147646115D02*
X152165046Y-147598496D01*
X152165046Y-147598496D02*
X152069808Y-147503258D01*
X152069808Y-147503258D02*
X152022188Y-147360401D01*
X152022188Y-147360401D02*
X152022188Y-147265163D01*
X152022188Y-147265163D02*
X152069808Y-147122306D01*
X152069808Y-147122306D02*
X152117427Y-147074687D01*
X152117427Y-147074687D02*
X152450760Y-147074687D01*
X152450760Y-147074687D02*
X152450760Y-147265163D01*
X152022188Y-146646115D02*
X153022188Y-146646115D01*
X153022188Y-146646115D02*
X152022188Y-146074687D01*
X152022188Y-146074687D02*
X153022188Y-146074687D01*
X152022188Y-145598496D02*
X153022188Y-145598496D01*
X153022188Y-145598496D02*
X153022188Y-145360401D01*
X153022188Y-145360401D02*
X152974569Y-145217544D01*
X152974569Y-145217544D02*
X152879331Y-145122306D01*
X152879331Y-145122306D02*
X152784093Y-145074687D01*
X152784093Y-145074687D02*
X152593617Y-145027068D01*
X152593617Y-145027068D02*
X152450760Y-145027068D01*
X152450760Y-145027068D02*
X152260284Y-145074687D01*
X152260284Y-145074687D02*
X152165046Y-145122306D01*
X152165046Y-145122306D02*
X152069808Y-145217544D01*
X152069808Y-145217544D02*
X152022188Y-145360401D01*
X152022188Y-145360401D02*
X152022188Y-145598496D01*
X151078911Y-147693734D02*
X151078911Y-146979449D01*
X151507483Y-147408020D02*
X150221768Y-147693734D01*
X150650340Y-147074687D02*
X150650340Y-147788972D01*
X150221768Y-147360401D02*
X151507483Y-147074687D01*
X150936054Y-146312782D02*
X150936054Y-146646115D01*
X150412244Y-146646115D02*
X151412244Y-146646115D01*
X151412244Y-146646115D02*
X151412244Y-146169925D01*
X150697959Y-145836591D02*
X150697959Y-145360401D01*
X150412244Y-145931829D02*
X151412244Y-145598496D01*
X151412244Y-145598496D02*
X150412244Y-145265163D01*
X151412244Y-144931829D02*
X150602721Y-144931829D01*
X150602721Y-144931829D02*
X150507483Y-144884210D01*
X150507483Y-144884210D02*
X150459864Y-144836591D01*
X150459864Y-144836591D02*
X150412244Y-144741353D01*
X150412244Y-144741353D02*
X150412244Y-144550877D01*
X150412244Y-144550877D02*
X150459864Y-144455639D01*
X150459864Y-144455639D02*
X150507483Y-144408020D01*
X150507483Y-144408020D02*
X150602721Y-144360401D01*
X150602721Y-144360401D02*
X151412244Y-144360401D01*
X150412244Y-143408020D02*
X150412244Y-143884210D01*
X150412244Y-143884210D02*
X151412244Y-143884210D01*
X151412244Y-143217543D02*
X151412244Y-142646115D01*
X150412244Y-142931829D02*
X151412244Y-142931829D01*
X149326110Y-147312782D02*
X149278491Y-147169925D01*
X149278491Y-147169925D02*
X149230872Y-147122306D01*
X149230872Y-147122306D02*
X149135634Y-147074687D01*
X149135634Y-147074687D02*
X148992777Y-147074687D01*
X148992777Y-147074687D02*
X148897539Y-147122306D01*
X148897539Y-147122306D02*
X148849920Y-147169925D01*
X148849920Y-147169925D02*
X148802300Y-147265163D01*
X148802300Y-147265163D02*
X148802300Y-147646115D01*
X148802300Y-147646115D02*
X149802300Y-147646115D01*
X149802300Y-147646115D02*
X149802300Y-147312782D01*
X149802300Y-147312782D02*
X149754681Y-147217544D01*
X149754681Y-147217544D02*
X149707062Y-147169925D01*
X149707062Y-147169925D02*
X149611824Y-147122306D01*
X149611824Y-147122306D02*
X149516586Y-147122306D01*
X149516586Y-147122306D02*
X149421348Y-147169925D01*
X149421348Y-147169925D02*
X149373729Y-147217544D01*
X149373729Y-147217544D02*
X149326110Y-147312782D01*
X149326110Y-147312782D02*
X149326110Y-147646115D01*
X148802300Y-146074687D02*
X149278491Y-146408020D01*
X148802300Y-146646115D02*
X149802300Y-146646115D01*
X149802300Y-146646115D02*
X149802300Y-146265163D01*
X149802300Y-146265163D02*
X149754681Y-146169925D01*
X149754681Y-146169925D02*
X149707062Y-146122306D01*
X149707062Y-146122306D02*
X149611824Y-146074687D01*
X149611824Y-146074687D02*
X149468967Y-146074687D01*
X149468967Y-146074687D02*
X149373729Y-146122306D01*
X149373729Y-146122306D02*
X149326110Y-146169925D01*
X149326110Y-146169925D02*
X149278491Y-146265163D01*
X149278491Y-146265163D02*
X149278491Y-146646115D01*
X149088015Y-145693734D02*
X149088015Y-145217544D01*
X148802300Y-145788972D02*
X149802300Y-145455639D01*
X149802300Y-145455639D02*
X148802300Y-145122306D01*
X148802300Y-144788972D02*
X149802300Y-144788972D01*
X148802300Y-144217544D02*
X149373729Y-144646115D01*
X149802300Y-144217544D02*
X149230872Y-144788972D01*
X149326110Y-143788972D02*
X149326110Y-143455639D01*
X148802300Y-143312782D02*
X148802300Y-143788972D01*
X148802300Y-143788972D02*
X149802300Y-143788972D01*
X149802300Y-143788972D02*
X149802300Y-143312782D01*
X147192356Y-147646115D02*
X148192356Y-147646115D01*
X148192356Y-147646115D02*
X147478071Y-147312782D01*
X147478071Y-147312782D02*
X148192356Y-146979449D01*
X148192356Y-146979449D02*
X147192356Y-146979449D01*
X147192356Y-146503258D02*
X148192356Y-146503258D01*
X148192356Y-146503258D02*
X148192356Y-146122306D01*
X148192356Y-146122306D02*
X148144737Y-146027068D01*
X148144737Y-146027068D02*
X148097118Y-145979449D01*
X148097118Y-145979449D02*
X148001880Y-145931830D01*
X148001880Y-145931830D02*
X147859023Y-145931830D01*
X147859023Y-145931830D02*
X147763785Y-145979449D01*
X147763785Y-145979449D02*
X147716166Y-146027068D01*
X147716166Y-146027068D02*
X147668547Y-146122306D01*
X147668547Y-146122306D02*
X147668547Y-146503258D01*
X147192356Y-145503258D02*
X148192356Y-145503258D01*
X148192356Y-144836592D02*
X148192356Y-144646116D01*
X148192356Y-144646116D02*
X148144737Y-144550878D01*
X148144737Y-144550878D02*
X148049499Y-144455640D01*
X148049499Y-144455640D02*
X147859023Y-144408021D01*
X147859023Y-144408021D02*
X147525690Y-144408021D01*
X147525690Y-144408021D02*
X147335214Y-144455640D01*
X147335214Y-144455640D02*
X147239976Y-144550878D01*
X147239976Y-144550878D02*
X147192356Y-144646116D01*
X147192356Y-144646116D02*
X147192356Y-144836592D01*
X147192356Y-144836592D02*
X147239976Y-144931830D01*
X147239976Y-144931830D02*
X147335214Y-145027068D01*
X147335214Y-145027068D02*
X147525690Y-145074687D01*
X147525690Y-145074687D02*
X147859023Y-145074687D01*
X147859023Y-145074687D02*
X148049499Y-145027068D01*
X148049499Y-145027068D02*
X148144737Y-144931830D01*
X148144737Y-144931830D02*
X148192356Y-144836592D01*
X145582412Y-147646115D02*
X146582412Y-147646115D01*
X146582412Y-147646115D02*
X146582412Y-147408020D01*
X146582412Y-147408020D02*
X146534793Y-147265163D01*
X146534793Y-147265163D02*
X146439555Y-147169925D01*
X146439555Y-147169925D02*
X146344317Y-147122306D01*
X146344317Y-147122306D02*
X146153841Y-147074687D01*
X146153841Y-147074687D02*
X146010984Y-147074687D01*
X146010984Y-147074687D02*
X145820508Y-147122306D01*
X145820508Y-147122306D02*
X145725270Y-147169925D01*
X145725270Y-147169925D02*
X145630032Y-147265163D01*
X145630032Y-147265163D02*
X145582412Y-147408020D01*
X145582412Y-147408020D02*
X145582412Y-147646115D01*
X145582412Y-146646115D02*
X146582412Y-146646115D01*
X145582412Y-145598497D02*
X146058603Y-145931830D01*
X145582412Y-146169925D02*
X146582412Y-146169925D01*
X146582412Y-146169925D02*
X146582412Y-145788973D01*
X146582412Y-145788973D02*
X146534793Y-145693735D01*
X146534793Y-145693735D02*
X146487174Y-145646116D01*
X146487174Y-145646116D02*
X146391936Y-145598497D01*
X146391936Y-145598497D02*
X146249079Y-145598497D01*
X146249079Y-145598497D02*
X146153841Y-145646116D01*
X146153841Y-145646116D02*
X146106222Y-145693735D01*
X146106222Y-145693735D02*
X146058603Y-145788973D01*
X146058603Y-145788973D02*
X146058603Y-146169925D01*
X144496278Y-147312782D02*
X144496278Y-147646115D01*
X143972468Y-147646115D02*
X144972468Y-147646115D01*
X144972468Y-147646115D02*
X144972468Y-147169925D01*
X144924849Y-146265163D02*
X144972468Y-146360401D01*
X144972468Y-146360401D02*
X144972468Y-146503258D01*
X144972468Y-146503258D02*
X144924849Y-146646115D01*
X144924849Y-146646115D02*
X144829611Y-146741353D01*
X144829611Y-146741353D02*
X144734373Y-146788972D01*
X144734373Y-146788972D02*
X144543897Y-146836591D01*
X144543897Y-146836591D02*
X144401040Y-146836591D01*
X144401040Y-146836591D02*
X144210564Y-146788972D01*
X144210564Y-146788972D02*
X144115326Y-146741353D01*
X144115326Y-146741353D02*
X144020088Y-146646115D01*
X144020088Y-146646115D02*
X143972468Y-146503258D01*
X143972468Y-146503258D02*
X143972468Y-146408020D01*
X143972468Y-146408020D02*
X144020088Y-146265163D01*
X144020088Y-146265163D02*
X144067707Y-146217544D01*
X144067707Y-146217544D02*
X144401040Y-146217544D01*
X144401040Y-146217544D02*
X144401040Y-146408020D01*
X142410144Y-147693734D02*
X142362524Y-147550877D01*
X142362524Y-147550877D02*
X142362524Y-147312782D01*
X142362524Y-147312782D02*
X142410144Y-147217544D01*
X142410144Y-147217544D02*
X142457763Y-147169925D01*
X142457763Y-147169925D02*
X142553001Y-147122306D01*
X142553001Y-147122306D02*
X142648239Y-147122306D01*
X142648239Y-147122306D02*
X142743477Y-147169925D01*
X142743477Y-147169925D02*
X142791096Y-147217544D01*
X142791096Y-147217544D02*
X142838715Y-147312782D01*
X142838715Y-147312782D02*
X142886334Y-147503258D01*
X142886334Y-147503258D02*
X142933953Y-147598496D01*
X142933953Y-147598496D02*
X142981572Y-147646115D01*
X142981572Y-147646115D02*
X143076810Y-147693734D01*
X143076810Y-147693734D02*
X143172048Y-147693734D01*
X143172048Y-147693734D02*
X143267286Y-147646115D01*
X143267286Y-147646115D02*
X143314905Y-147598496D01*
X143314905Y-147598496D02*
X143362524Y-147503258D01*
X143362524Y-147503258D02*
X143362524Y-147265163D01*
X143362524Y-147265163D02*
X143314905Y-147122306D01*
X142362524Y-146693734D02*
X143362524Y-146693734D01*
X143362524Y-146693734D02*
X143362524Y-146312782D01*
X143362524Y-146312782D02*
X143314905Y-146217544D01*
X143314905Y-146217544D02*
X143267286Y-146169925D01*
X143267286Y-146169925D02*
X143172048Y-146122306D01*
X143172048Y-146122306D02*
X143029191Y-146122306D01*
X143029191Y-146122306D02*
X142933953Y-146169925D01*
X142933953Y-146169925D02*
X142886334Y-146217544D01*
X142886334Y-146217544D02*
X142838715Y-146312782D01*
X142838715Y-146312782D02*
X142838715Y-146693734D01*
X142886334Y-145693734D02*
X142886334Y-145360401D01*
X142362524Y-145217544D02*
X142362524Y-145693734D01*
X142362524Y-145693734D02*
X143362524Y-145693734D01*
X143362524Y-145693734D02*
X143362524Y-145217544D01*
X142886334Y-144788972D02*
X142886334Y-144455639D01*
X142362524Y-144312782D02*
X142362524Y-144788972D01*
X142362524Y-144788972D02*
X143362524Y-144788972D01*
X143362524Y-144788972D02*
X143362524Y-144312782D01*
X142362524Y-143884210D02*
X143362524Y-143884210D01*
X143362524Y-143884210D02*
X143362524Y-143646115D01*
X143362524Y-143646115D02*
X143314905Y-143503258D01*
X143314905Y-143503258D02*
X143219667Y-143408020D01*
X143219667Y-143408020D02*
X143124429Y-143360401D01*
X143124429Y-143360401D02*
X142933953Y-143312782D01*
X142933953Y-143312782D02*
X142791096Y-143312782D01*
X142791096Y-143312782D02*
X142600620Y-143360401D01*
X142600620Y-143360401D02*
X142505382Y-143408020D01*
X142505382Y-143408020D02*
X142410144Y-143503258D01*
X142410144Y-143503258D02*
X142362524Y-143646115D01*
X142362524Y-143646115D02*
X142362524Y-143884210D01*
X140752580Y-147646115D02*
X141752580Y-147646115D01*
X141752580Y-147646115D02*
X141752580Y-147408020D01*
X141752580Y-147408020D02*
X141704961Y-147265163D01*
X141704961Y-147265163D02*
X141609723Y-147169925D01*
X141609723Y-147169925D02*
X141514485Y-147122306D01*
X141514485Y-147122306D02*
X141324009Y-147074687D01*
X141324009Y-147074687D02*
X141181152Y-147074687D01*
X141181152Y-147074687D02*
X140990676Y-147122306D01*
X140990676Y-147122306D02*
X140895438Y-147169925D01*
X140895438Y-147169925D02*
X140800200Y-147265163D01*
X140800200Y-147265163D02*
X140752580Y-147408020D01*
X140752580Y-147408020D02*
X140752580Y-147646115D01*
X140752580Y-146074687D02*
X141228771Y-146408020D01*
X140752580Y-146646115D02*
X141752580Y-146646115D01*
X141752580Y-146646115D02*
X141752580Y-146265163D01*
X141752580Y-146265163D02*
X141704961Y-146169925D01*
X141704961Y-146169925D02*
X141657342Y-146122306D01*
X141657342Y-146122306D02*
X141562104Y-146074687D01*
X141562104Y-146074687D02*
X141419247Y-146074687D01*
X141419247Y-146074687D02*
X141324009Y-146122306D01*
X141324009Y-146122306D02*
X141276390Y-146169925D01*
X141276390Y-146169925D02*
X141228771Y-146265163D01*
X141228771Y-146265163D02*
X141228771Y-146646115D01*
X141752580Y-145788972D02*
X140752580Y-145455639D01*
X140752580Y-145455639D02*
X141752580Y-145122306D01*
X140657342Y-145027068D02*
X140657342Y-144265163D01*
X141752580Y-143836591D02*
X141752580Y-143646115D01*
X141752580Y-143646115D02*
X141704961Y-143550877D01*
X141704961Y-143550877D02*
X141609723Y-143455639D01*
X141609723Y-143455639D02*
X141419247Y-143408020D01*
X141419247Y-143408020D02*
X141085914Y-143408020D01*
X141085914Y-143408020D02*
X140895438Y-143455639D01*
X140895438Y-143455639D02*
X140800200Y-143550877D01*
X140800200Y-143550877D02*
X140752580Y-143646115D01*
X140752580Y-143646115D02*
X140752580Y-143836591D01*
X140752580Y-143836591D02*
X140800200Y-143931829D01*
X140800200Y-143931829D02*
X140895438Y-144027067D01*
X140895438Y-144027067D02*
X141085914Y-144074686D01*
X141085914Y-144074686D02*
X141419247Y-144074686D01*
X141419247Y-144074686D02*
X141609723Y-144027067D01*
X141609723Y-144027067D02*
X141704961Y-143931829D01*
X141704961Y-143931829D02*
X141752580Y-143836591D01*
X141276390Y-142646115D02*
X141276390Y-142979448D01*
X140752580Y-142979448D02*
X141752580Y-142979448D01*
X141752580Y-142979448D02*
X141752580Y-142503258D01*
X141276390Y-141788972D02*
X141276390Y-142122305D01*
X140752580Y-142122305D02*
X141752580Y-142122305D01*
X141752580Y-142122305D02*
X141752580Y-141646115D01*
D13*
X152371427Y-125051080D02*
X151742855Y-125051080D01*
X152057141Y-126151080D02*
X152057141Y-125051080D01*
X151376189Y-126151080D02*
X151376189Y-125051080D01*
X150904760Y-126151080D02*
X150904760Y-125574890D01*
X150904760Y-125574890D02*
X150957141Y-125470128D01*
X150957141Y-125470128D02*
X151061903Y-125417747D01*
X151061903Y-125417747D02*
X151219046Y-125417747D01*
X151219046Y-125417747D02*
X151323808Y-125470128D01*
X151323808Y-125470128D02*
X151376189Y-125522509D01*
X149909522Y-125417747D02*
X149909522Y-126151080D01*
X150380951Y-125417747D02*
X150380951Y-125993938D01*
X150380951Y-125993938D02*
X150328570Y-126098700D01*
X150328570Y-126098700D02*
X150223808Y-126151080D01*
X150223808Y-126151080D02*
X150066665Y-126151080D01*
X150066665Y-126151080D02*
X149961903Y-126098700D01*
X149961903Y-126098700D02*
X149909522Y-126046319D01*
X149385713Y-125417747D02*
X149385713Y-126151080D01*
X149385713Y-125522509D02*
X149333332Y-125470128D01*
X149333332Y-125470128D02*
X149228570Y-125417747D01*
X149228570Y-125417747D02*
X149071427Y-125417747D01*
X149071427Y-125417747D02*
X148966665Y-125470128D01*
X148966665Y-125470128D02*
X148914284Y-125574890D01*
X148914284Y-125574890D02*
X148914284Y-126151080D01*
X147919046Y-126151080D02*
X147919046Y-125051080D01*
X147919046Y-126098700D02*
X148023808Y-126151080D01*
X148023808Y-126151080D02*
X148233332Y-126151080D01*
X148233332Y-126151080D02*
X148338094Y-126098700D01*
X148338094Y-126098700D02*
X148390475Y-126046319D01*
X148390475Y-126046319D02*
X148442856Y-125941557D01*
X148442856Y-125941557D02*
X148442856Y-125627271D01*
X148442856Y-125627271D02*
X148390475Y-125522509D01*
X148390475Y-125522509D02*
X148338094Y-125470128D01*
X148338094Y-125470128D02*
X148233332Y-125417747D01*
X148233332Y-125417747D02*
X148023808Y-125417747D01*
X148023808Y-125417747D02*
X147919046Y-125470128D01*
X146976189Y-126098700D02*
X147080951Y-126151080D01*
X147080951Y-126151080D02*
X147290475Y-126151080D01*
X147290475Y-126151080D02*
X147395237Y-126098700D01*
X147395237Y-126098700D02*
X147447618Y-125993938D01*
X147447618Y-125993938D02*
X147447618Y-125574890D01*
X147447618Y-125574890D02*
X147395237Y-125470128D01*
X147395237Y-125470128D02*
X147290475Y-125417747D01*
X147290475Y-125417747D02*
X147080951Y-125417747D01*
X147080951Y-125417747D02*
X146976189Y-125470128D01*
X146976189Y-125470128D02*
X146923808Y-125574890D01*
X146923808Y-125574890D02*
X146923808Y-125679652D01*
X146923808Y-125679652D02*
X147447618Y-125784414D01*
X146452380Y-126151080D02*
X146452380Y-125417747D01*
X146452380Y-125627271D02*
X146399999Y-125522509D01*
X146399999Y-125522509D02*
X146347618Y-125470128D01*
X146347618Y-125470128D02*
X146242856Y-125417747D01*
X146242856Y-125417747D02*
X146138094Y-125417747D01*
X145404761Y-125574890D02*
X145771428Y-125574890D01*
X145771428Y-126151080D02*
X145771428Y-125051080D01*
X145771428Y-125051080D02*
X145247618Y-125051080D01*
X144671428Y-126151080D02*
X144776190Y-126098700D01*
X144776190Y-126098700D02*
X144828571Y-125993938D01*
X144828571Y-125993938D02*
X144828571Y-125051080D01*
X144357143Y-125417747D02*
X144095238Y-126151080D01*
X143833333Y-125417747D02*
X144095238Y-126151080D01*
X144095238Y-126151080D02*
X144200000Y-126412985D01*
X144200000Y-126412985D02*
X144252381Y-126465366D01*
X144252381Y-126465366D02*
X144357143Y-126517747D01*
X143361905Y-126098700D02*
X143361905Y-126151080D01*
X143361905Y-126151080D02*
X143414286Y-126255842D01*
X143414286Y-126255842D02*
X143466667Y-126308223D01*
X142104762Y-125155842D02*
X142052381Y-125103461D01*
X142052381Y-125103461D02*
X141947619Y-125051080D01*
X141947619Y-125051080D02*
X141685714Y-125051080D01*
X141685714Y-125051080D02*
X141580952Y-125103461D01*
X141580952Y-125103461D02*
X141528571Y-125155842D01*
X141528571Y-125155842D02*
X141476190Y-125260604D01*
X141476190Y-125260604D02*
X141476190Y-125365366D01*
X141476190Y-125365366D02*
X141528571Y-125522509D01*
X141528571Y-125522509D02*
X142157143Y-126151080D01*
X142157143Y-126151080D02*
X141476190Y-126151080D01*
X140795238Y-125051080D02*
X140690476Y-125051080D01*
X140690476Y-125051080D02*
X140585714Y-125103461D01*
X140585714Y-125103461D02*
X140533333Y-125155842D01*
X140533333Y-125155842D02*
X140480952Y-125260604D01*
X140480952Y-125260604D02*
X140428571Y-125470128D01*
X140428571Y-125470128D02*
X140428571Y-125732033D01*
X140428571Y-125732033D02*
X140480952Y-125941557D01*
X140480952Y-125941557D02*
X140533333Y-126046319D01*
X140533333Y-126046319D02*
X140585714Y-126098700D01*
X140585714Y-126098700D02*
X140690476Y-126151080D01*
X140690476Y-126151080D02*
X140795238Y-126151080D01*
X140795238Y-126151080D02*
X140900000Y-126098700D01*
X140900000Y-126098700D02*
X140952381Y-126046319D01*
X140952381Y-126046319D02*
X141004762Y-125941557D01*
X141004762Y-125941557D02*
X141057143Y-125732033D01*
X141057143Y-125732033D02*
X141057143Y-125470128D01*
X141057143Y-125470128D02*
X141004762Y-125260604D01*
X141004762Y-125260604D02*
X140952381Y-125155842D01*
X140952381Y-125155842D02*
X140900000Y-125103461D01*
X140900000Y-125103461D02*
X140795238Y-125051080D01*
X140009524Y-125155842D02*
X139957143Y-125103461D01*
X139957143Y-125103461D02*
X139852381Y-125051080D01*
X139852381Y-125051080D02*
X139590476Y-125051080D01*
X139590476Y-125051080D02*
X139485714Y-125103461D01*
X139485714Y-125103461D02*
X139433333Y-125155842D01*
X139433333Y-125155842D02*
X139380952Y-125260604D01*
X139380952Y-125260604D02*
X139380952Y-125365366D01*
X139380952Y-125365366D02*
X139433333Y-125522509D01*
X139433333Y-125522509D02*
X140061905Y-126151080D01*
X140061905Y-126151080D02*
X139380952Y-126151080D01*
X138438095Y-125417747D02*
X138438095Y-126151080D01*
X138700000Y-124998700D02*
X138961905Y-125784414D01*
X138961905Y-125784414D02*
X138280952Y-125784414D01*
X159045239Y-128839819D02*
X159045239Y-127839819D01*
X159045239Y-128316009D02*
X158473811Y-128316009D01*
X158473811Y-128839819D02*
X158473811Y-127839819D01*
X157997620Y-128839819D02*
X157997620Y-128173152D01*
X157997620Y-127839819D02*
X158045239Y-127887438D01*
X158045239Y-127887438D02*
X157997620Y-127935057D01*
X157997620Y-127935057D02*
X157950001Y-127887438D01*
X157950001Y-127887438D02*
X157997620Y-127839819D01*
X157997620Y-127839819D02*
X157997620Y-127935057D01*
X157092859Y-128173152D02*
X157092859Y-128982676D01*
X157092859Y-128982676D02*
X157140478Y-129077914D01*
X157140478Y-129077914D02*
X157188097Y-129125533D01*
X157188097Y-129125533D02*
X157283335Y-129173152D01*
X157283335Y-129173152D02*
X157426192Y-129173152D01*
X157426192Y-129173152D02*
X157521430Y-129125533D01*
X157092859Y-128792200D02*
X157188097Y-128839819D01*
X157188097Y-128839819D02*
X157378573Y-128839819D01*
X157378573Y-128839819D02*
X157473811Y-128792200D01*
X157473811Y-128792200D02*
X157521430Y-128744580D01*
X157521430Y-128744580D02*
X157569049Y-128649342D01*
X157569049Y-128649342D02*
X157569049Y-128363628D01*
X157569049Y-128363628D02*
X157521430Y-128268390D01*
X157521430Y-128268390D02*
X157473811Y-128220771D01*
X157473811Y-128220771D02*
X157378573Y-128173152D01*
X157378573Y-128173152D02*
X157188097Y-128173152D01*
X157188097Y-128173152D02*
X157092859Y-128220771D01*
X156616668Y-128839819D02*
X156616668Y-127839819D01*
X156188097Y-128839819D02*
X156188097Y-128316009D01*
X156188097Y-128316009D02*
X156235716Y-128220771D01*
X156235716Y-128220771D02*
X156330954Y-128173152D01*
X156330954Y-128173152D02*
X156473811Y-128173152D01*
X156473811Y-128173152D02*
X156569049Y-128220771D01*
X156569049Y-128220771D02*
X156616668Y-128268390D01*
X154950001Y-128173152D02*
X154950001Y-129173152D01*
X154950001Y-128220771D02*
X154854763Y-128173152D01*
X154854763Y-128173152D02*
X154664287Y-128173152D01*
X154664287Y-128173152D02*
X154569049Y-128220771D01*
X154569049Y-128220771D02*
X154521430Y-128268390D01*
X154521430Y-128268390D02*
X154473811Y-128363628D01*
X154473811Y-128363628D02*
X154473811Y-128649342D01*
X154473811Y-128649342D02*
X154521430Y-128744580D01*
X154521430Y-128744580D02*
X154569049Y-128792200D01*
X154569049Y-128792200D02*
X154664287Y-128839819D01*
X154664287Y-128839819D02*
X154854763Y-128839819D01*
X154854763Y-128839819D02*
X154950001Y-128792200D01*
X153664287Y-128792200D02*
X153759525Y-128839819D01*
X153759525Y-128839819D02*
X153950001Y-128839819D01*
X153950001Y-128839819D02*
X154045239Y-128792200D01*
X154045239Y-128792200D02*
X154092858Y-128696961D01*
X154092858Y-128696961D02*
X154092858Y-128316009D01*
X154092858Y-128316009D02*
X154045239Y-128220771D01*
X154045239Y-128220771D02*
X153950001Y-128173152D01*
X153950001Y-128173152D02*
X153759525Y-128173152D01*
X153759525Y-128173152D02*
X153664287Y-128220771D01*
X153664287Y-128220771D02*
X153616668Y-128316009D01*
X153616668Y-128316009D02*
X153616668Y-128411247D01*
X153616668Y-128411247D02*
X154092858Y-128506485D01*
X153188096Y-128839819D02*
X153188096Y-128173152D01*
X153188096Y-128363628D02*
X153140477Y-128268390D01*
X153140477Y-128268390D02*
X153092858Y-128220771D01*
X153092858Y-128220771D02*
X152997620Y-128173152D01*
X152997620Y-128173152D02*
X152902382Y-128173152D01*
X152711905Y-128173152D02*
X152330953Y-128173152D01*
X152569048Y-128839819D02*
X152569048Y-127982676D01*
X152569048Y-127982676D02*
X152521429Y-127887438D01*
X152521429Y-127887438D02*
X152426191Y-127839819D01*
X152426191Y-127839819D02*
X152330953Y-127839819D01*
X151854762Y-128839819D02*
X151950000Y-128792200D01*
X151950000Y-128792200D02*
X151997619Y-128744580D01*
X151997619Y-128744580D02*
X152045238Y-128649342D01*
X152045238Y-128649342D02*
X152045238Y-128363628D01*
X152045238Y-128363628D02*
X151997619Y-128268390D01*
X151997619Y-128268390D02*
X151950000Y-128220771D01*
X151950000Y-128220771D02*
X151854762Y-128173152D01*
X151854762Y-128173152D02*
X151711905Y-128173152D01*
X151711905Y-128173152D02*
X151616667Y-128220771D01*
X151616667Y-128220771D02*
X151569048Y-128268390D01*
X151569048Y-128268390D02*
X151521429Y-128363628D01*
X151521429Y-128363628D02*
X151521429Y-128649342D01*
X151521429Y-128649342D02*
X151569048Y-128744580D01*
X151569048Y-128744580D02*
X151616667Y-128792200D01*
X151616667Y-128792200D02*
X151711905Y-128839819D01*
X151711905Y-128839819D02*
X151854762Y-128839819D01*
X151092857Y-128839819D02*
X151092857Y-128173152D01*
X151092857Y-128363628D02*
X151045238Y-128268390D01*
X151045238Y-128268390D02*
X150997619Y-128220771D01*
X150997619Y-128220771D02*
X150902381Y-128173152D01*
X150902381Y-128173152D02*
X150807143Y-128173152D01*
X150473809Y-128839819D02*
X150473809Y-128173152D01*
X150473809Y-128268390D02*
X150426190Y-128220771D01*
X150426190Y-128220771D02*
X150330952Y-128173152D01*
X150330952Y-128173152D02*
X150188095Y-128173152D01*
X150188095Y-128173152D02*
X150092857Y-128220771D01*
X150092857Y-128220771D02*
X150045238Y-128316009D01*
X150045238Y-128316009D02*
X150045238Y-128839819D01*
X150045238Y-128316009D02*
X149997619Y-128220771D01*
X149997619Y-128220771D02*
X149902381Y-128173152D01*
X149902381Y-128173152D02*
X149759524Y-128173152D01*
X149759524Y-128173152D02*
X149664285Y-128220771D01*
X149664285Y-128220771D02*
X149616666Y-128316009D01*
X149616666Y-128316009D02*
X149616666Y-128839819D01*
X148711905Y-128839819D02*
X148711905Y-128316009D01*
X148711905Y-128316009D02*
X148759524Y-128220771D01*
X148759524Y-128220771D02*
X148854762Y-128173152D01*
X148854762Y-128173152D02*
X149045238Y-128173152D01*
X149045238Y-128173152D02*
X149140476Y-128220771D01*
X148711905Y-128792200D02*
X148807143Y-128839819D01*
X148807143Y-128839819D02*
X149045238Y-128839819D01*
X149045238Y-128839819D02*
X149140476Y-128792200D01*
X149140476Y-128792200D02*
X149188095Y-128696961D01*
X149188095Y-128696961D02*
X149188095Y-128601723D01*
X149188095Y-128601723D02*
X149140476Y-128506485D01*
X149140476Y-128506485D02*
X149045238Y-128458866D01*
X149045238Y-128458866D02*
X148807143Y-128458866D01*
X148807143Y-128458866D02*
X148711905Y-128411247D01*
X148235714Y-128173152D02*
X148235714Y-128839819D01*
X148235714Y-128268390D02*
X148188095Y-128220771D01*
X148188095Y-128220771D02*
X148092857Y-128173152D01*
X148092857Y-128173152D02*
X147950000Y-128173152D01*
X147950000Y-128173152D02*
X147854762Y-128220771D01*
X147854762Y-128220771D02*
X147807143Y-128316009D01*
X147807143Y-128316009D02*
X147807143Y-128839819D01*
X146902381Y-128792200D02*
X146997619Y-128839819D01*
X146997619Y-128839819D02*
X147188095Y-128839819D01*
X147188095Y-128839819D02*
X147283333Y-128792200D01*
X147283333Y-128792200D02*
X147330952Y-128744580D01*
X147330952Y-128744580D02*
X147378571Y-128649342D01*
X147378571Y-128649342D02*
X147378571Y-128363628D01*
X147378571Y-128363628D02*
X147330952Y-128268390D01*
X147330952Y-128268390D02*
X147283333Y-128220771D01*
X147283333Y-128220771D02*
X147188095Y-128173152D01*
X147188095Y-128173152D02*
X146997619Y-128173152D01*
X146997619Y-128173152D02*
X146902381Y-128220771D01*
X146092857Y-128792200D02*
X146188095Y-128839819D01*
X146188095Y-128839819D02*
X146378571Y-128839819D01*
X146378571Y-128839819D02*
X146473809Y-128792200D01*
X146473809Y-128792200D02*
X146521428Y-128696961D01*
X146521428Y-128696961D02*
X146521428Y-128316009D01*
X146521428Y-128316009D02*
X146473809Y-128220771D01*
X146473809Y-128220771D02*
X146378571Y-128173152D01*
X146378571Y-128173152D02*
X146188095Y-128173152D01*
X146188095Y-128173152D02*
X146092857Y-128220771D01*
X146092857Y-128220771D02*
X146045238Y-128316009D01*
X146045238Y-128316009D02*
X146045238Y-128411247D01*
X146045238Y-128411247D02*
X146521428Y-128506485D01*
X144521428Y-128316009D02*
X144854761Y-128316009D01*
X144854761Y-128839819D02*
X144854761Y-127839819D01*
X144854761Y-127839819D02*
X144378571Y-127839819D01*
X143807142Y-127839819D02*
X143616666Y-127839819D01*
X143616666Y-127839819D02*
X143521428Y-127887438D01*
X143521428Y-127887438D02*
X143426190Y-127982676D01*
X143426190Y-127982676D02*
X143378571Y-128173152D01*
X143378571Y-128173152D02*
X143378571Y-128506485D01*
X143378571Y-128506485D02*
X143426190Y-128696961D01*
X143426190Y-128696961D02*
X143521428Y-128792200D01*
X143521428Y-128792200D02*
X143616666Y-128839819D01*
X143616666Y-128839819D02*
X143807142Y-128839819D01*
X143807142Y-128839819D02*
X143902380Y-128792200D01*
X143902380Y-128792200D02*
X143997618Y-128696961D01*
X143997618Y-128696961D02*
X144045237Y-128506485D01*
X144045237Y-128506485D02*
X144045237Y-128173152D01*
X144045237Y-128173152D02*
X143997618Y-127982676D01*
X143997618Y-127982676D02*
X143902380Y-127887438D01*
X143902380Y-127887438D02*
X143807142Y-127839819D01*
X142378571Y-128744580D02*
X142426190Y-128792200D01*
X142426190Y-128792200D02*
X142569047Y-128839819D01*
X142569047Y-128839819D02*
X142664285Y-128839819D01*
X142664285Y-128839819D02*
X142807142Y-128792200D01*
X142807142Y-128792200D02*
X142902380Y-128696961D01*
X142902380Y-128696961D02*
X142949999Y-128601723D01*
X142949999Y-128601723D02*
X142997618Y-128411247D01*
X142997618Y-128411247D02*
X142997618Y-128268390D01*
X142997618Y-128268390D02*
X142949999Y-128077914D01*
X142949999Y-128077914D02*
X142902380Y-127982676D01*
X142902380Y-127982676D02*
X142807142Y-127887438D01*
X142807142Y-127887438D02*
X142664285Y-127839819D01*
X142664285Y-127839819D02*
X142569047Y-127839819D01*
X142569047Y-127839819D02*
X142426190Y-127887438D01*
X142426190Y-127887438D02*
X142378571Y-127935057D01*
X141188094Y-128839819D02*
X141188094Y-128173152D01*
X141188094Y-128268390D02*
X141140475Y-128220771D01*
X141140475Y-128220771D02*
X141045237Y-128173152D01*
X141045237Y-128173152D02*
X140902380Y-128173152D01*
X140902380Y-128173152D02*
X140807142Y-128220771D01*
X140807142Y-128220771D02*
X140759523Y-128316009D01*
X140759523Y-128316009D02*
X140759523Y-128839819D01*
X140759523Y-128316009D02*
X140711904Y-128220771D01*
X140711904Y-128220771D02*
X140616666Y-128173152D01*
X140616666Y-128173152D02*
X140473809Y-128173152D01*
X140473809Y-128173152D02*
X140378570Y-128220771D01*
X140378570Y-128220771D02*
X140330951Y-128316009D01*
X140330951Y-128316009D02*
X140330951Y-128839819D01*
X139711904Y-128839819D02*
X139807142Y-128792200D01*
X139807142Y-128792200D02*
X139854761Y-128744580D01*
X139854761Y-128744580D02*
X139902380Y-128649342D01*
X139902380Y-128649342D02*
X139902380Y-128363628D01*
X139902380Y-128363628D02*
X139854761Y-128268390D01*
X139854761Y-128268390D02*
X139807142Y-128220771D01*
X139807142Y-128220771D02*
X139711904Y-128173152D01*
X139711904Y-128173152D02*
X139569047Y-128173152D01*
X139569047Y-128173152D02*
X139473809Y-128220771D01*
X139473809Y-128220771D02*
X139426190Y-128268390D01*
X139426190Y-128268390D02*
X139378571Y-128363628D01*
X139378571Y-128363628D02*
X139378571Y-128649342D01*
X139378571Y-128649342D02*
X139426190Y-128744580D01*
X139426190Y-128744580D02*
X139473809Y-128792200D01*
X139473809Y-128792200D02*
X139569047Y-128839819D01*
X139569047Y-128839819D02*
X139711904Y-128839819D01*
X139092856Y-128173152D02*
X138711904Y-128173152D01*
X138949999Y-127839819D02*
X138949999Y-128696961D01*
X138949999Y-128696961D02*
X138902380Y-128792200D01*
X138902380Y-128792200D02*
X138807142Y-128839819D01*
X138807142Y-128839819D02*
X138711904Y-128839819D01*
X138235713Y-128839819D02*
X138330951Y-128792200D01*
X138330951Y-128792200D02*
X138378570Y-128744580D01*
X138378570Y-128744580D02*
X138426189Y-128649342D01*
X138426189Y-128649342D02*
X138426189Y-128363628D01*
X138426189Y-128363628D02*
X138378570Y-128268390D01*
X138378570Y-128268390D02*
X138330951Y-128220771D01*
X138330951Y-128220771D02*
X138235713Y-128173152D01*
X138235713Y-128173152D02*
X138092856Y-128173152D01*
X138092856Y-128173152D02*
X137997618Y-128220771D01*
X137997618Y-128220771D02*
X137949999Y-128268390D01*
X137949999Y-128268390D02*
X137902380Y-128363628D01*
X137902380Y-128363628D02*
X137902380Y-128649342D01*
X137902380Y-128649342D02*
X137949999Y-128744580D01*
X137949999Y-128744580D02*
X137997618Y-128792200D01*
X137997618Y-128792200D02*
X138092856Y-128839819D01*
X138092856Y-128839819D02*
X138235713Y-128839819D01*
X137473808Y-128839819D02*
X137473808Y-128173152D01*
X137473808Y-128363628D02*
X137426189Y-128268390D01*
X137426189Y-128268390D02*
X137378570Y-128220771D01*
X137378570Y-128220771D02*
X137283332Y-128173152D01*
X137283332Y-128173152D02*
X137188094Y-128173152D01*
X135664284Y-128839819D02*
X135664284Y-127839819D01*
X135664284Y-128792200D02*
X135759522Y-128839819D01*
X135759522Y-128839819D02*
X135949998Y-128839819D01*
X135949998Y-128839819D02*
X136045236Y-128792200D01*
X136045236Y-128792200D02*
X136092855Y-128744580D01*
X136092855Y-128744580D02*
X136140474Y-128649342D01*
X136140474Y-128649342D02*
X136140474Y-128363628D01*
X136140474Y-128363628D02*
X136092855Y-128268390D01*
X136092855Y-128268390D02*
X136045236Y-128220771D01*
X136045236Y-128220771D02*
X135949998Y-128173152D01*
X135949998Y-128173152D02*
X135759522Y-128173152D01*
X135759522Y-128173152D02*
X135664284Y-128220771D01*
X135188093Y-128839819D02*
X135188093Y-128173152D01*
X135188093Y-128363628D02*
X135140474Y-128268390D01*
X135140474Y-128268390D02*
X135092855Y-128220771D01*
X135092855Y-128220771D02*
X134997617Y-128173152D01*
X134997617Y-128173152D02*
X134902379Y-128173152D01*
X134569045Y-128839819D02*
X134569045Y-128173152D01*
X134569045Y-127839819D02*
X134616664Y-127887438D01*
X134616664Y-127887438D02*
X134569045Y-127935057D01*
X134569045Y-127935057D02*
X134521426Y-127887438D01*
X134521426Y-127887438D02*
X134569045Y-127839819D01*
X134569045Y-127839819D02*
X134569045Y-127935057D01*
X134188093Y-128173152D02*
X133949998Y-128839819D01*
X133949998Y-128839819D02*
X133711903Y-128173152D01*
X132949998Y-128792200D02*
X133045236Y-128839819D01*
X133045236Y-128839819D02*
X133235712Y-128839819D01*
X133235712Y-128839819D02*
X133330950Y-128792200D01*
X133330950Y-128792200D02*
X133378569Y-128696961D01*
X133378569Y-128696961D02*
X133378569Y-128316009D01*
X133378569Y-128316009D02*
X133330950Y-128220771D01*
X133330950Y-128220771D02*
X133235712Y-128173152D01*
X133235712Y-128173152D02*
X133045236Y-128173152D01*
X133045236Y-128173152D02*
X132949998Y-128220771D01*
X132949998Y-128220771D02*
X132902379Y-128316009D01*
X132902379Y-128316009D02*
X132902379Y-128411247D01*
X132902379Y-128411247D02*
X133378569Y-128506485D01*
X132473807Y-128839819D02*
X132473807Y-128173152D01*
X132473807Y-128363628D02*
X132426188Y-128268390D01*
X132426188Y-128268390D02*
X132378569Y-128220771D01*
X132378569Y-128220771D02*
X132283331Y-128173152D01*
X132283331Y-128173152D02*
X132188093Y-128173152D01*
X131807140Y-128792200D02*
X131807140Y-128839819D01*
X131807140Y-128839819D02*
X131854759Y-128935057D01*
X131854759Y-128935057D02*
X131902378Y-128982676D01*
X159902381Y-130402144D02*
X159997619Y-130449763D01*
X159997619Y-130449763D02*
X160188095Y-130449763D01*
X160188095Y-130449763D02*
X160283333Y-130402144D01*
X160283333Y-130402144D02*
X160330952Y-130354524D01*
X160330952Y-130354524D02*
X160378571Y-130259286D01*
X160378571Y-130259286D02*
X160378571Y-129973572D01*
X160378571Y-129973572D02*
X160330952Y-129878334D01*
X160330952Y-129878334D02*
X160283333Y-129830715D01*
X160283333Y-129830715D02*
X160188095Y-129783096D01*
X160188095Y-129783096D02*
X159997619Y-129783096D01*
X159997619Y-129783096D02*
X159902381Y-129830715D01*
X159330952Y-130449763D02*
X159426190Y-130402144D01*
X159426190Y-130402144D02*
X159473809Y-130354524D01*
X159473809Y-130354524D02*
X159521428Y-130259286D01*
X159521428Y-130259286D02*
X159521428Y-129973572D01*
X159521428Y-129973572D02*
X159473809Y-129878334D01*
X159473809Y-129878334D02*
X159426190Y-129830715D01*
X159426190Y-129830715D02*
X159330952Y-129783096D01*
X159330952Y-129783096D02*
X159188095Y-129783096D01*
X159188095Y-129783096D02*
X159092857Y-129830715D01*
X159092857Y-129830715D02*
X159045238Y-129878334D01*
X159045238Y-129878334D02*
X158997619Y-129973572D01*
X158997619Y-129973572D02*
X158997619Y-130259286D01*
X158997619Y-130259286D02*
X159045238Y-130354524D01*
X159045238Y-130354524D02*
X159092857Y-130402144D01*
X159092857Y-130402144D02*
X159188095Y-130449763D01*
X159188095Y-130449763D02*
X159330952Y-130449763D01*
X158569047Y-130449763D02*
X158569047Y-129783096D01*
X158569047Y-129878334D02*
X158521428Y-129830715D01*
X158521428Y-129830715D02*
X158426190Y-129783096D01*
X158426190Y-129783096D02*
X158283333Y-129783096D01*
X158283333Y-129783096D02*
X158188095Y-129830715D01*
X158188095Y-129830715D02*
X158140476Y-129925953D01*
X158140476Y-129925953D02*
X158140476Y-130449763D01*
X158140476Y-129925953D02*
X158092857Y-129830715D01*
X158092857Y-129830715D02*
X157997619Y-129783096D01*
X157997619Y-129783096D02*
X157854762Y-129783096D01*
X157854762Y-129783096D02*
X157759523Y-129830715D01*
X157759523Y-129830715D02*
X157711904Y-129925953D01*
X157711904Y-129925953D02*
X157711904Y-130449763D01*
X157235714Y-129783096D02*
X157235714Y-130783096D01*
X157235714Y-129830715D02*
X157140476Y-129783096D01*
X157140476Y-129783096D02*
X156950000Y-129783096D01*
X156950000Y-129783096D02*
X156854762Y-129830715D01*
X156854762Y-129830715D02*
X156807143Y-129878334D01*
X156807143Y-129878334D02*
X156759524Y-129973572D01*
X156759524Y-129973572D02*
X156759524Y-130259286D01*
X156759524Y-130259286D02*
X156807143Y-130354524D01*
X156807143Y-130354524D02*
X156854762Y-130402144D01*
X156854762Y-130402144D02*
X156950000Y-130449763D01*
X156950000Y-130449763D02*
X157140476Y-130449763D01*
X157140476Y-130449763D02*
X157235714Y-130402144D01*
X155902381Y-130449763D02*
X155902381Y-129925953D01*
X155902381Y-129925953D02*
X155950000Y-129830715D01*
X155950000Y-129830715D02*
X156045238Y-129783096D01*
X156045238Y-129783096D02*
X156235714Y-129783096D01*
X156235714Y-129783096D02*
X156330952Y-129830715D01*
X155902381Y-130402144D02*
X155997619Y-130449763D01*
X155997619Y-130449763D02*
X156235714Y-130449763D01*
X156235714Y-130449763D02*
X156330952Y-130402144D01*
X156330952Y-130402144D02*
X156378571Y-130306905D01*
X156378571Y-130306905D02*
X156378571Y-130211667D01*
X156378571Y-130211667D02*
X156330952Y-130116429D01*
X156330952Y-130116429D02*
X156235714Y-130068810D01*
X156235714Y-130068810D02*
X155997619Y-130068810D01*
X155997619Y-130068810D02*
X155902381Y-130021191D01*
X155569047Y-129783096D02*
X155188095Y-129783096D01*
X155426190Y-129449763D02*
X155426190Y-130306905D01*
X155426190Y-130306905D02*
X155378571Y-130402144D01*
X155378571Y-130402144D02*
X155283333Y-130449763D01*
X155283333Y-130449763D02*
X155188095Y-130449763D01*
X154854761Y-130449763D02*
X154854761Y-129783096D01*
X154854761Y-129449763D02*
X154902380Y-129497382D01*
X154902380Y-129497382D02*
X154854761Y-129545001D01*
X154854761Y-129545001D02*
X154807142Y-129497382D01*
X154807142Y-129497382D02*
X154854761Y-129449763D01*
X154854761Y-129449763D02*
X154854761Y-129545001D01*
X154378571Y-130449763D02*
X154378571Y-129449763D01*
X154378571Y-129830715D02*
X154283333Y-129783096D01*
X154283333Y-129783096D02*
X154092857Y-129783096D01*
X154092857Y-129783096D02*
X153997619Y-129830715D01*
X153997619Y-129830715D02*
X153950000Y-129878334D01*
X153950000Y-129878334D02*
X153902381Y-129973572D01*
X153902381Y-129973572D02*
X153902381Y-130259286D01*
X153902381Y-130259286D02*
X153950000Y-130354524D01*
X153950000Y-130354524D02*
X153997619Y-130402144D01*
X153997619Y-130402144D02*
X154092857Y-130449763D01*
X154092857Y-130449763D02*
X154283333Y-130449763D01*
X154283333Y-130449763D02*
X154378571Y-130402144D01*
X153473809Y-130449763D02*
X153473809Y-129783096D01*
X153473809Y-129449763D02*
X153521428Y-129497382D01*
X153521428Y-129497382D02*
X153473809Y-129545001D01*
X153473809Y-129545001D02*
X153426190Y-129497382D01*
X153426190Y-129497382D02*
X153473809Y-129449763D01*
X153473809Y-129449763D02*
X153473809Y-129545001D01*
X152854762Y-130449763D02*
X152950000Y-130402144D01*
X152950000Y-130402144D02*
X152997619Y-130306905D01*
X152997619Y-130306905D02*
X152997619Y-129449763D01*
X152092857Y-130402144D02*
X152188095Y-130449763D01*
X152188095Y-130449763D02*
X152378571Y-130449763D01*
X152378571Y-130449763D02*
X152473809Y-130402144D01*
X152473809Y-130402144D02*
X152521428Y-130306905D01*
X152521428Y-130306905D02*
X152521428Y-129925953D01*
X152521428Y-129925953D02*
X152473809Y-129830715D01*
X152473809Y-129830715D02*
X152378571Y-129783096D01*
X152378571Y-129783096D02*
X152188095Y-129783096D01*
X152188095Y-129783096D02*
X152092857Y-129830715D01*
X152092857Y-129830715D02*
X152045238Y-129925953D01*
X152045238Y-129925953D02*
X152045238Y-130021191D01*
X152045238Y-130021191D02*
X152521428Y-130116429D01*
X150949999Y-129783096D02*
X150759523Y-130449763D01*
X150759523Y-130449763D02*
X150569047Y-129973572D01*
X150569047Y-129973572D02*
X150378571Y-130449763D01*
X150378571Y-130449763D02*
X150188095Y-129783096D01*
X149807142Y-130449763D02*
X149807142Y-129783096D01*
X149807142Y-129449763D02*
X149854761Y-129497382D01*
X149854761Y-129497382D02*
X149807142Y-129545001D01*
X149807142Y-129545001D02*
X149759523Y-129497382D01*
X149759523Y-129497382D02*
X149807142Y-129449763D01*
X149807142Y-129449763D02*
X149807142Y-129545001D01*
X149473809Y-129783096D02*
X149092857Y-129783096D01*
X149330952Y-129449763D02*
X149330952Y-130306905D01*
X149330952Y-130306905D02*
X149283333Y-130402144D01*
X149283333Y-130402144D02*
X149188095Y-130449763D01*
X149188095Y-130449763D02*
X149092857Y-130449763D01*
X148759523Y-130449763D02*
X148759523Y-129449763D01*
X148330952Y-130449763D02*
X148330952Y-129925953D01*
X148330952Y-129925953D02*
X148378571Y-129830715D01*
X148378571Y-129830715D02*
X148473809Y-129783096D01*
X148473809Y-129783096D02*
X148616666Y-129783096D01*
X148616666Y-129783096D02*
X148711904Y-129830715D01*
X148711904Y-129830715D02*
X148759523Y-129878334D01*
X147092856Y-130449763D02*
X147092856Y-129449763D01*
X147092856Y-129449763D02*
X146711904Y-129449763D01*
X146711904Y-129449763D02*
X146616666Y-129497382D01*
X146616666Y-129497382D02*
X146569047Y-129545001D01*
X146569047Y-129545001D02*
X146521428Y-129640239D01*
X146521428Y-129640239D02*
X146521428Y-129783096D01*
X146521428Y-129783096D02*
X146569047Y-129878334D01*
X146569047Y-129878334D02*
X146616666Y-129925953D01*
X146616666Y-129925953D02*
X146711904Y-129973572D01*
X146711904Y-129973572D02*
X147092856Y-129973572D01*
X146092856Y-130449763D02*
X146092856Y-129783096D01*
X146092856Y-129449763D02*
X146140475Y-129497382D01*
X146140475Y-129497382D02*
X146092856Y-129545001D01*
X146092856Y-129545001D02*
X146045237Y-129497382D01*
X146045237Y-129497382D02*
X146092856Y-129449763D01*
X146092856Y-129449763D02*
X146092856Y-129545001D01*
X145711904Y-130449763D02*
X145188095Y-129783096D01*
X145711904Y-129783096D02*
X145188095Y-130449763D01*
X144807142Y-130449763D02*
X144807142Y-129449763D01*
X144378571Y-130449763D02*
X144378571Y-129925953D01*
X144378571Y-129925953D02*
X144426190Y-129830715D01*
X144426190Y-129830715D02*
X144521428Y-129783096D01*
X144521428Y-129783096D02*
X144664285Y-129783096D01*
X144664285Y-129783096D02*
X144759523Y-129830715D01*
X144759523Y-129830715D02*
X144807142Y-129878334D01*
X143473809Y-130449763D02*
X143473809Y-129925953D01*
X143473809Y-129925953D02*
X143521428Y-129830715D01*
X143521428Y-129830715D02*
X143616666Y-129783096D01*
X143616666Y-129783096D02*
X143807142Y-129783096D01*
X143807142Y-129783096D02*
X143902380Y-129830715D01*
X143473809Y-130402144D02*
X143569047Y-130449763D01*
X143569047Y-130449763D02*
X143807142Y-130449763D01*
X143807142Y-130449763D02*
X143902380Y-130402144D01*
X143902380Y-130402144D02*
X143949999Y-130306905D01*
X143949999Y-130306905D02*
X143949999Y-130211667D01*
X143949999Y-130211667D02*
X143902380Y-130116429D01*
X143902380Y-130116429D02*
X143807142Y-130068810D01*
X143807142Y-130068810D02*
X143569047Y-130068810D01*
X143569047Y-130068810D02*
X143473809Y-130021191D01*
X143092856Y-129783096D02*
X142902380Y-130449763D01*
X142902380Y-130449763D02*
X142711904Y-129973572D01*
X142711904Y-129973572D02*
X142521428Y-130449763D01*
X142521428Y-130449763D02*
X142330952Y-129783096D01*
X141949999Y-130449763D02*
X141949999Y-129449763D01*
X141854761Y-130068810D02*
X141569047Y-130449763D01*
X141569047Y-129783096D02*
X141949999Y-130164048D01*
X140378570Y-130449763D02*
X140378570Y-129449763D01*
X139949999Y-129545001D02*
X139902380Y-129497382D01*
X139902380Y-129497382D02*
X139807142Y-129449763D01*
X139807142Y-129449763D02*
X139569047Y-129449763D01*
X139569047Y-129449763D02*
X139473809Y-129497382D01*
X139473809Y-129497382D02*
X139426190Y-129545001D01*
X139426190Y-129545001D02*
X139378571Y-129640239D01*
X139378571Y-129640239D02*
X139378571Y-129735477D01*
X139378571Y-129735477D02*
X139426190Y-129878334D01*
X139426190Y-129878334D02*
X139997618Y-130449763D01*
X139997618Y-130449763D02*
X139378571Y-130449763D01*
X138378571Y-130354524D02*
X138426190Y-130402144D01*
X138426190Y-130402144D02*
X138569047Y-130449763D01*
X138569047Y-130449763D02*
X138664285Y-130449763D01*
X138664285Y-130449763D02*
X138807142Y-130402144D01*
X138807142Y-130402144D02*
X138902380Y-130306905D01*
X138902380Y-130306905D02*
X138949999Y-130211667D01*
X138949999Y-130211667D02*
X138997618Y-130021191D01*
X138997618Y-130021191D02*
X138997618Y-129878334D01*
X138997618Y-129878334D02*
X138949999Y-129687858D01*
X138949999Y-129687858D02*
X138902380Y-129592620D01*
X138902380Y-129592620D02*
X138807142Y-129497382D01*
X138807142Y-129497382D02*
X138664285Y-129449763D01*
X138664285Y-129449763D02*
X138569047Y-129449763D01*
X138569047Y-129449763D02*
X138426190Y-129497382D01*
X138426190Y-129497382D02*
X138378571Y-129545001D01*
X137188094Y-130449763D02*
X137188094Y-129783096D01*
X137188094Y-129449763D02*
X137235713Y-129497382D01*
X137235713Y-129497382D02*
X137188094Y-129545001D01*
X137188094Y-129545001D02*
X137140475Y-129497382D01*
X137140475Y-129497382D02*
X137188094Y-129449763D01*
X137188094Y-129449763D02*
X137188094Y-129545001D01*
X136711904Y-129783096D02*
X136711904Y-130449763D01*
X136711904Y-129878334D02*
X136664285Y-129830715D01*
X136664285Y-129830715D02*
X136569047Y-129783096D01*
X136569047Y-129783096D02*
X136426190Y-129783096D01*
X136426190Y-129783096D02*
X136330952Y-129830715D01*
X136330952Y-129830715D02*
X136283333Y-129925953D01*
X136283333Y-129925953D02*
X136283333Y-130449763D01*
X135949999Y-129783096D02*
X135569047Y-129783096D01*
X135807142Y-129449763D02*
X135807142Y-130306905D01*
X135807142Y-130306905D02*
X135759523Y-130402144D01*
X135759523Y-130402144D02*
X135664285Y-130449763D01*
X135664285Y-130449763D02*
X135569047Y-130449763D01*
X134854761Y-130402144D02*
X134949999Y-130449763D01*
X134949999Y-130449763D02*
X135140475Y-130449763D01*
X135140475Y-130449763D02*
X135235713Y-130402144D01*
X135235713Y-130402144D02*
X135283332Y-130306905D01*
X135283332Y-130306905D02*
X135283332Y-129925953D01*
X135283332Y-129925953D02*
X135235713Y-129830715D01*
X135235713Y-129830715D02*
X135140475Y-129783096D01*
X135140475Y-129783096D02*
X134949999Y-129783096D01*
X134949999Y-129783096D02*
X134854761Y-129830715D01*
X134854761Y-129830715D02*
X134807142Y-129925953D01*
X134807142Y-129925953D02*
X134807142Y-130021191D01*
X134807142Y-130021191D02*
X135283332Y-130116429D01*
X134378570Y-130449763D02*
X134378570Y-129783096D01*
X134378570Y-129973572D02*
X134330951Y-129878334D01*
X134330951Y-129878334D02*
X134283332Y-129830715D01*
X134283332Y-129830715D02*
X134188094Y-129783096D01*
X134188094Y-129783096D02*
X134092856Y-129783096D01*
X133902379Y-129783096D02*
X133521427Y-129783096D01*
X133759522Y-130449763D02*
X133759522Y-129592620D01*
X133759522Y-129592620D02*
X133711903Y-129497382D01*
X133711903Y-129497382D02*
X133616665Y-129449763D01*
X133616665Y-129449763D02*
X133521427Y-129449763D01*
X132759522Y-130449763D02*
X132759522Y-129925953D01*
X132759522Y-129925953D02*
X132807141Y-129830715D01*
X132807141Y-129830715D02*
X132902379Y-129783096D01*
X132902379Y-129783096D02*
X133092855Y-129783096D01*
X133092855Y-129783096D02*
X133188093Y-129830715D01*
X132759522Y-130402144D02*
X132854760Y-130449763D01*
X132854760Y-130449763D02*
X133092855Y-130449763D01*
X133092855Y-130449763D02*
X133188093Y-130402144D01*
X133188093Y-130402144D02*
X133235712Y-130306905D01*
X133235712Y-130306905D02*
X133235712Y-130211667D01*
X133235712Y-130211667D02*
X133188093Y-130116429D01*
X133188093Y-130116429D02*
X133092855Y-130068810D01*
X133092855Y-130068810D02*
X132854760Y-130068810D01*
X132854760Y-130068810D02*
X132759522Y-130021191D01*
X131854760Y-130402144D02*
X131949998Y-130449763D01*
X131949998Y-130449763D02*
X132140474Y-130449763D01*
X132140474Y-130449763D02*
X132235712Y-130402144D01*
X132235712Y-130402144D02*
X132283331Y-130354524D01*
X132283331Y-130354524D02*
X132330950Y-130259286D01*
X132330950Y-130259286D02*
X132330950Y-129973572D01*
X132330950Y-129973572D02*
X132283331Y-129878334D01*
X132283331Y-129878334D02*
X132235712Y-129830715D01*
X132235712Y-129830715D02*
X132140474Y-129783096D01*
X132140474Y-129783096D02*
X131949998Y-129783096D01*
X131949998Y-129783096D02*
X131854760Y-129830715D01*
X131045236Y-130402144D02*
X131140474Y-130449763D01*
X131140474Y-130449763D02*
X131330950Y-130449763D01*
X131330950Y-130449763D02*
X131426188Y-130402144D01*
X131426188Y-130402144D02*
X131473807Y-130306905D01*
X131473807Y-130306905D02*
X131473807Y-129925953D01*
X131473807Y-129925953D02*
X131426188Y-129830715D01*
X131426188Y-129830715D02*
X131330950Y-129783096D01*
X131330950Y-129783096D02*
X131140474Y-129783096D01*
X131140474Y-129783096D02*
X131045236Y-129830715D01*
X131045236Y-129830715D02*
X130997617Y-129925953D01*
X130997617Y-129925953D02*
X130997617Y-130021191D01*
X130997617Y-130021191D02*
X131473807Y-130116429D01*
X130569045Y-130354524D02*
X130521426Y-130402144D01*
X130521426Y-130402144D02*
X130569045Y-130449763D01*
X130569045Y-130449763D02*
X130616664Y-130402144D01*
X130616664Y-130402144D02*
X130569045Y-130354524D01*
X130569045Y-130354524D02*
X130569045Y-130449763D01*
D14*
%TO.C,TP1*%
X146200000Y-137275000D02*
G75*
G02*
X144300000Y-137275000I-950000J0D01*
G01*
X144300000Y-137275000D02*
G75*
G02*
X146200000Y-137275000I950000J0D01*
G01*
%TD*%
M02*
