%TF.GenerationSoftware,KiCad,Pcbnew,8.0.6+1*%
%TF.CreationDate,2025-01-08T18:32:10+00:00*%
%TF.ProjectId,TFESC02,54464553-4330-4322-9e6b-696361645f70,01A*%
%TF.SameCoordinates,Original*%
%TF.FileFunction,Legend,Top*%
%TF.FilePolarity,Positive*%
%FSLAX46Y46*%
G04 Gerber Fmt 4.6, Leading zero omitted, Abs format (unit mm)*
G04 Created by KiCad (PCBNEW 8.0.6+1) date 2025-01-08 18:32:10*
%MOMM*%
%LPD*%
G01*
G04 APERTURE LIST*
%ADD10C,0.000000*%
%ADD11C,0.100000*%
%ADD12C,0.150000*%
%ADD13C,0.120000*%
%ADD14C,0.200000*%
G04 APERTURE END LIST*
D10*
G36*
X162259546Y-109736363D02*
G01*
X161942273Y-109736363D01*
X161942273Y-109419091D01*
X162259546Y-109419091D01*
X162259546Y-109736363D01*
G37*
G36*
X161942273Y-111322727D02*
G01*
X161625000Y-111322727D01*
X161625000Y-111005454D01*
X161942273Y-111005454D01*
X161942273Y-111322727D01*
G37*
G36*
X165115000Y-106246364D02*
G01*
X164797728Y-106246364D01*
X164797728Y-105929091D01*
X165115000Y-105929091D01*
X165115000Y-106246364D01*
G37*
G36*
X165749546Y-111957272D02*
G01*
X165432273Y-111957272D01*
X165432273Y-111640000D01*
X165749546Y-111640000D01*
X165749546Y-111957272D01*
G37*
G36*
X163845909Y-113226363D02*
G01*
X163528637Y-113226363D01*
X163528637Y-112909090D01*
X163845909Y-112909090D01*
X163845909Y-113226363D01*
G37*
G36*
X162576819Y-113543636D02*
G01*
X162259546Y-113543636D01*
X162259546Y-113226363D01*
X162576819Y-113226363D01*
X162576819Y-113543636D01*
G37*
G36*
X164480455Y-107198182D02*
G01*
X164163182Y-107198182D01*
X164163182Y-106880909D01*
X164480455Y-106880909D01*
X164480455Y-107198182D01*
G37*
G36*
X161625000Y-107832727D02*
G01*
X161307728Y-107832727D01*
X161307728Y-107515454D01*
X161625000Y-107515454D01*
X161625000Y-107832727D01*
G37*
G36*
X162259546Y-109419091D02*
G01*
X161942273Y-109419091D01*
X161942273Y-109101818D01*
X162259546Y-109101818D01*
X162259546Y-109419091D01*
G37*
G36*
X158769546Y-113226363D02*
G01*
X158452274Y-113226363D01*
X158452274Y-112909090D01*
X158769546Y-112909090D01*
X158769546Y-113226363D01*
G37*
G36*
X166384091Y-113543636D02*
G01*
X166066818Y-113543636D01*
X166066818Y-113226363D01*
X166384091Y-113226363D01*
X166384091Y-113543636D01*
G37*
G36*
X164480455Y-107832727D02*
G01*
X164163182Y-107832727D01*
X164163182Y-107515454D01*
X164480455Y-107515454D01*
X164480455Y-107832727D01*
G37*
G36*
X159404092Y-109419091D02*
G01*
X159086819Y-109419091D01*
X159086819Y-109101818D01*
X159404092Y-109101818D01*
X159404092Y-109419091D01*
G37*
G36*
X160038637Y-112591818D02*
G01*
X159721364Y-112591818D01*
X159721364Y-112274545D01*
X160038637Y-112274545D01*
X160038637Y-112591818D01*
G37*
G36*
X163528637Y-106563636D02*
G01*
X163211364Y-106563636D01*
X163211364Y-106246364D01*
X163528637Y-106246364D01*
X163528637Y-106563636D01*
G37*
G36*
X166066818Y-111957272D02*
G01*
X165749546Y-111957272D01*
X165749546Y-111640000D01*
X166066818Y-111640000D01*
X166066818Y-111957272D01*
G37*
G36*
X158769546Y-109419091D02*
G01*
X158452274Y-109419091D01*
X158452274Y-109101818D01*
X158769546Y-109101818D01*
X158769546Y-109419091D01*
G37*
G36*
X164480455Y-110688182D02*
G01*
X164163182Y-110688182D01*
X164163182Y-110370909D01*
X164480455Y-110370909D01*
X164480455Y-110688182D01*
G37*
G36*
X162576819Y-109101818D02*
G01*
X162259546Y-109101818D01*
X162259546Y-108784545D01*
X162576819Y-108784545D01*
X162576819Y-109101818D01*
G37*
G36*
X159404092Y-108150000D02*
G01*
X159086819Y-108150000D01*
X159086819Y-107832727D01*
X159404092Y-107832727D01*
X159404092Y-108150000D01*
G37*
G36*
X166066818Y-108784545D02*
G01*
X165749546Y-108784545D01*
X165749546Y-108467273D01*
X166066818Y-108467273D01*
X166066818Y-108784545D01*
G37*
G36*
X161942273Y-109419091D02*
G01*
X161625000Y-109419091D01*
X161625000Y-109101818D01*
X161942273Y-109101818D01*
X161942273Y-109419091D01*
G37*
G36*
X161942273Y-110370909D02*
G01*
X161625000Y-110370909D01*
X161625000Y-110053636D01*
X161942273Y-110053636D01*
X161942273Y-110370909D01*
G37*
G36*
X165432273Y-113226363D02*
G01*
X165115000Y-113226363D01*
X165115000Y-112909090D01*
X165432273Y-112909090D01*
X165432273Y-113226363D01*
G37*
G36*
X160673182Y-110370909D02*
G01*
X160355910Y-110370909D01*
X160355910Y-110053636D01*
X160673182Y-110053636D01*
X160673182Y-110370909D01*
G37*
G36*
X164797728Y-109419091D02*
G01*
X164480455Y-109419091D01*
X164480455Y-109101818D01*
X164797728Y-109101818D01*
X164797728Y-109419091D01*
G37*
G36*
X164163182Y-108784545D02*
G01*
X163845909Y-108784545D01*
X163845909Y-108467273D01*
X164163182Y-108467273D01*
X164163182Y-108784545D01*
G37*
G36*
X161625000Y-107515454D02*
G01*
X161307728Y-107515454D01*
X161307728Y-107198182D01*
X161625000Y-107198182D01*
X161625000Y-107515454D01*
G37*
G36*
X158769546Y-107832727D02*
G01*
X158452274Y-107832727D01*
X158452274Y-107515454D01*
X158769546Y-107515454D01*
X158769546Y-107832727D01*
G37*
G36*
X166066818Y-110053636D02*
G01*
X165749546Y-110053636D01*
X165749546Y-109736363D01*
X166066818Y-109736363D01*
X166066818Y-110053636D01*
G37*
G36*
X164163182Y-109736363D02*
G01*
X163845909Y-109736363D01*
X163845909Y-109419091D01*
X164163182Y-109419091D01*
X164163182Y-109736363D01*
G37*
G36*
X160990455Y-108784545D02*
G01*
X160673182Y-108784545D01*
X160673182Y-108467273D01*
X160990455Y-108467273D01*
X160990455Y-108784545D01*
G37*
G36*
X160038637Y-113543636D02*
G01*
X159721364Y-113543636D01*
X159721364Y-113226363D01*
X160038637Y-113226363D01*
X160038637Y-113543636D01*
G37*
G36*
X160038637Y-111322727D02*
G01*
X159721364Y-111322727D01*
X159721364Y-111005454D01*
X160038637Y-111005454D01*
X160038637Y-111322727D01*
G37*
G36*
X164480455Y-106246364D02*
G01*
X164163182Y-106246364D01*
X164163182Y-105929091D01*
X164480455Y-105929091D01*
X164480455Y-106246364D01*
G37*
G36*
X165749546Y-112591818D02*
G01*
X165432273Y-112591818D01*
X165432273Y-112274545D01*
X165749546Y-112274545D01*
X165749546Y-112591818D01*
G37*
G36*
X163528637Y-107832727D02*
G01*
X163211364Y-107832727D01*
X163211364Y-107515454D01*
X163528637Y-107515454D01*
X163528637Y-107832727D01*
G37*
G36*
X166384091Y-113226363D02*
G01*
X166066818Y-113226363D01*
X166066818Y-112909090D01*
X166384091Y-112909090D01*
X166384091Y-113226363D01*
G37*
G36*
X158769546Y-109101818D02*
G01*
X158452274Y-109101818D01*
X158452274Y-108784545D01*
X158769546Y-108784545D01*
X158769546Y-109101818D01*
G37*
G36*
X158769546Y-111957272D02*
G01*
X158452274Y-111957272D01*
X158452274Y-111640000D01*
X158769546Y-111640000D01*
X158769546Y-111957272D01*
G37*
G36*
X162259546Y-108784545D02*
G01*
X161942273Y-108784545D01*
X161942273Y-108467273D01*
X162259546Y-108467273D01*
X162259546Y-108784545D01*
G37*
G36*
X158769546Y-107198182D02*
G01*
X158452274Y-107198182D01*
X158452274Y-106880909D01*
X158769546Y-106880909D01*
X158769546Y-107198182D01*
G37*
G36*
X158769546Y-106880909D02*
G01*
X158452274Y-106880909D01*
X158452274Y-106563636D01*
X158769546Y-106563636D01*
X158769546Y-106880909D01*
G37*
G36*
X166384091Y-111957272D02*
G01*
X166066818Y-111957272D01*
X166066818Y-111640000D01*
X166384091Y-111640000D01*
X166384091Y-111957272D01*
G37*
G36*
X159721364Y-112591818D02*
G01*
X159404092Y-112591818D01*
X159404092Y-112274545D01*
X159721364Y-112274545D01*
X159721364Y-112591818D01*
G37*
G36*
X162259546Y-113860908D02*
G01*
X161942273Y-113860908D01*
X161942273Y-113543636D01*
X162259546Y-113543636D01*
X162259546Y-113860908D01*
G37*
G36*
X164797728Y-108784545D02*
G01*
X164480455Y-108784545D01*
X164480455Y-108467273D01*
X164797728Y-108467273D01*
X164797728Y-108784545D01*
G37*
G36*
X166384091Y-108150000D02*
G01*
X166066818Y-108150000D01*
X166066818Y-107832727D01*
X166384091Y-107832727D01*
X166384091Y-108150000D01*
G37*
G36*
X162894091Y-106880909D02*
G01*
X162576819Y-106880909D01*
X162576819Y-106563636D01*
X162894091Y-106563636D01*
X162894091Y-106880909D01*
G37*
G36*
X158769546Y-110370909D02*
G01*
X158452274Y-110370909D01*
X158452274Y-110053636D01*
X158769546Y-110053636D01*
X158769546Y-110370909D01*
G37*
G36*
X165432273Y-110370909D02*
G01*
X165115000Y-110370909D01*
X165115000Y-110053636D01*
X165432273Y-110053636D01*
X165432273Y-110370909D01*
G37*
G36*
X163211364Y-108467273D02*
G01*
X162894091Y-108467273D01*
X162894091Y-108150000D01*
X163211364Y-108150000D01*
X163211364Y-108467273D01*
G37*
G36*
X161942273Y-107832727D02*
G01*
X161625000Y-107832727D01*
X161625000Y-107515454D01*
X161942273Y-107515454D01*
X161942273Y-107832727D01*
G37*
G36*
X164797728Y-111322727D02*
G01*
X164480455Y-111322727D01*
X164480455Y-111005454D01*
X164797728Y-111005454D01*
X164797728Y-111322727D01*
G37*
G36*
X162894091Y-112274545D02*
G01*
X162576819Y-112274545D01*
X162576819Y-111957272D01*
X162894091Y-111957272D01*
X162894091Y-112274545D01*
G37*
G36*
X164480455Y-112591818D02*
G01*
X164163182Y-112591818D01*
X164163182Y-112274545D01*
X164480455Y-112274545D01*
X164480455Y-112591818D01*
G37*
G36*
X162576819Y-113226363D02*
G01*
X162259546Y-113226363D01*
X162259546Y-112909090D01*
X162576819Y-112909090D01*
X162576819Y-113226363D01*
G37*
G36*
X166384091Y-107515454D02*
G01*
X166066818Y-107515454D01*
X166066818Y-107198182D01*
X166384091Y-107198182D01*
X166384091Y-107515454D01*
G37*
G36*
X164480455Y-113226363D02*
G01*
X164163182Y-113226363D01*
X164163182Y-112909090D01*
X164480455Y-112909090D01*
X164480455Y-113226363D01*
G37*
G36*
X164480455Y-112274545D02*
G01*
X164163182Y-112274545D01*
X164163182Y-111957272D01*
X164480455Y-111957272D01*
X164480455Y-112274545D01*
G37*
G36*
X159086819Y-111640000D02*
G01*
X158769546Y-111640000D01*
X158769546Y-111322727D01*
X159086819Y-111322727D01*
X159086819Y-111640000D01*
G37*
G36*
X166384091Y-113860908D02*
G01*
X166066818Y-113860908D01*
X166066818Y-113543636D01*
X166384091Y-113543636D01*
X166384091Y-113860908D01*
G37*
G36*
X165115000Y-106880909D02*
G01*
X164797728Y-106880909D01*
X164797728Y-106563636D01*
X165115000Y-106563636D01*
X165115000Y-106880909D01*
G37*
G36*
X163528637Y-113226363D02*
G01*
X163211364Y-113226363D01*
X163211364Y-112909090D01*
X163528637Y-112909090D01*
X163528637Y-113226363D01*
G37*
G36*
X164480455Y-106563636D02*
G01*
X164163182Y-106563636D01*
X164163182Y-106246364D01*
X164480455Y-106246364D01*
X164480455Y-106563636D01*
G37*
G36*
X159404092Y-106880909D02*
G01*
X159086819Y-106880909D01*
X159086819Y-106563636D01*
X159404092Y-106563636D01*
X159404092Y-106880909D01*
G37*
G36*
X164480455Y-113543636D02*
G01*
X164163182Y-113543636D01*
X164163182Y-113226363D01*
X164480455Y-113226363D01*
X164480455Y-113543636D01*
G37*
G36*
X165749546Y-113860908D02*
G01*
X165432273Y-113860908D01*
X165432273Y-113543636D01*
X165749546Y-113543636D01*
X165749546Y-113860908D01*
G37*
G36*
X162576819Y-106880909D02*
G01*
X162259546Y-106880909D01*
X162259546Y-106563636D01*
X162576819Y-106563636D01*
X162576819Y-106880909D01*
G37*
G36*
X158769546Y-113860908D02*
G01*
X158452274Y-113860908D01*
X158452274Y-113543636D01*
X158769546Y-113543636D01*
X158769546Y-113860908D01*
G37*
G36*
X162259546Y-111957272D02*
G01*
X161942273Y-111957272D01*
X161942273Y-111640000D01*
X162259546Y-111640000D01*
X162259546Y-111957272D01*
G37*
G36*
X159404092Y-106246364D02*
G01*
X159086819Y-106246364D01*
X159086819Y-105929091D01*
X159404092Y-105929091D01*
X159404092Y-106246364D01*
G37*
G36*
X165115000Y-109101818D02*
G01*
X164797728Y-109101818D01*
X164797728Y-108784545D01*
X165115000Y-108784545D01*
X165115000Y-109101818D01*
G37*
G36*
X160673182Y-107515454D02*
G01*
X160355910Y-107515454D01*
X160355910Y-107198182D01*
X160673182Y-107198182D01*
X160673182Y-107515454D01*
G37*
G36*
X159721364Y-111322727D02*
G01*
X159404092Y-111322727D01*
X159404092Y-111005454D01*
X159721364Y-111005454D01*
X159721364Y-111322727D01*
G37*
G36*
X165749546Y-113226363D02*
G01*
X165432273Y-113226363D01*
X165432273Y-112909090D01*
X165749546Y-112909090D01*
X165749546Y-113226363D01*
G37*
G36*
X164480455Y-109419091D02*
G01*
X164163182Y-109419091D01*
X164163182Y-109101818D01*
X164480455Y-109101818D01*
X164480455Y-109419091D01*
G37*
G36*
X162576819Y-111005454D02*
G01*
X162259546Y-111005454D01*
X162259546Y-110688182D01*
X162576819Y-110688182D01*
X162576819Y-111005454D01*
G37*
G36*
X165432273Y-109736363D02*
G01*
X165115000Y-109736363D01*
X165115000Y-109419091D01*
X165432273Y-109419091D01*
X165432273Y-109736363D01*
G37*
G36*
X159721364Y-111640000D02*
G01*
X159404092Y-111640000D01*
X159404092Y-111322727D01*
X159721364Y-111322727D01*
X159721364Y-111640000D01*
G37*
G36*
X162259546Y-108467273D02*
G01*
X161942273Y-108467273D01*
X161942273Y-108150000D01*
X162259546Y-108150000D01*
X162259546Y-108467273D01*
G37*
G36*
X165115000Y-111957272D02*
G01*
X164797728Y-111957272D01*
X164797728Y-111640000D01*
X165115000Y-111640000D01*
X165115000Y-111957272D01*
G37*
G36*
X165432273Y-110688182D02*
G01*
X165115000Y-110688182D01*
X165115000Y-110370909D01*
X165432273Y-110370909D01*
X165432273Y-110688182D01*
G37*
G36*
X161942273Y-112909090D02*
G01*
X161625000Y-112909090D01*
X161625000Y-112591818D01*
X161942273Y-112591818D01*
X161942273Y-112909090D01*
G37*
G36*
X165115000Y-109419091D02*
G01*
X164797728Y-109419091D01*
X164797728Y-109101818D01*
X165115000Y-109101818D01*
X165115000Y-109419091D01*
G37*
G36*
X161625000Y-113543636D02*
G01*
X161307728Y-113543636D01*
X161307728Y-113226363D01*
X161625000Y-113226363D01*
X161625000Y-113543636D01*
G37*
G36*
X159721364Y-107515454D02*
G01*
X159404092Y-107515454D01*
X159404092Y-107198182D01*
X159721364Y-107198182D01*
X159721364Y-107515454D01*
G37*
G36*
X163211364Y-106246364D02*
G01*
X162894091Y-106246364D01*
X162894091Y-105929091D01*
X163211364Y-105929091D01*
X163211364Y-106246364D01*
G37*
G36*
X160038637Y-111005454D02*
G01*
X159721364Y-111005454D01*
X159721364Y-110688182D01*
X160038637Y-110688182D01*
X160038637Y-111005454D01*
G37*
G36*
X160990455Y-109736363D02*
G01*
X160673182Y-109736363D01*
X160673182Y-109419091D01*
X160990455Y-109419091D01*
X160990455Y-109736363D01*
G37*
G36*
X165115000Y-107515454D02*
G01*
X164797728Y-107515454D01*
X164797728Y-107198182D01*
X165115000Y-107198182D01*
X165115000Y-107515454D01*
G37*
G36*
X161625000Y-111957272D02*
G01*
X161307728Y-111957272D01*
X161307728Y-111640000D01*
X161625000Y-111640000D01*
X161625000Y-111957272D01*
G37*
G36*
X163528637Y-113543636D02*
G01*
X163211364Y-113543636D01*
X163211364Y-113226363D01*
X163528637Y-113226363D01*
X163528637Y-113543636D01*
G37*
G36*
X163211364Y-110688182D02*
G01*
X162894091Y-110688182D01*
X162894091Y-110370909D01*
X163211364Y-110370909D01*
X163211364Y-110688182D01*
G37*
G36*
X161307728Y-113543636D02*
G01*
X160990455Y-113543636D01*
X160990455Y-113226363D01*
X161307728Y-113226363D01*
X161307728Y-113543636D01*
G37*
G36*
X166384091Y-106563636D02*
G01*
X166066818Y-106563636D01*
X166066818Y-106246364D01*
X166384091Y-106246364D01*
X166384091Y-106563636D01*
G37*
G36*
X159721364Y-106246364D02*
G01*
X159404092Y-106246364D01*
X159404092Y-105929091D01*
X159721364Y-105929091D01*
X159721364Y-106246364D01*
G37*
G36*
X163211364Y-110053636D02*
G01*
X162894091Y-110053636D01*
X162894091Y-109736363D01*
X163211364Y-109736363D01*
X163211364Y-110053636D01*
G37*
G36*
X162576819Y-109419091D02*
G01*
X162259546Y-109419091D01*
X162259546Y-109101818D01*
X162576819Y-109101818D01*
X162576819Y-109419091D01*
G37*
G36*
X161942273Y-113226363D02*
G01*
X161625000Y-113226363D01*
X161625000Y-112909090D01*
X161942273Y-112909090D01*
X161942273Y-113226363D01*
G37*
G36*
X163211364Y-111322727D02*
G01*
X162894091Y-111322727D01*
X162894091Y-111005454D01*
X163211364Y-111005454D01*
X163211364Y-111322727D01*
G37*
G36*
X166384091Y-111322727D02*
G01*
X166066818Y-111322727D01*
X166066818Y-111005454D01*
X166384091Y-111005454D01*
X166384091Y-111322727D01*
G37*
G36*
X163528637Y-110688182D02*
G01*
X163211364Y-110688182D01*
X163211364Y-110370909D01*
X163528637Y-110370909D01*
X163528637Y-110688182D01*
G37*
G36*
X162894091Y-110688182D02*
G01*
X162576819Y-110688182D01*
X162576819Y-110370909D01*
X162894091Y-110370909D01*
X162894091Y-110688182D01*
G37*
G36*
X160038637Y-112274545D02*
G01*
X159721364Y-112274545D01*
X159721364Y-111957272D01*
X160038637Y-111957272D01*
X160038637Y-112274545D01*
G37*
G36*
X164480455Y-106880909D02*
G01*
X164163182Y-106880909D01*
X164163182Y-106563636D01*
X164480455Y-106563636D01*
X164480455Y-106880909D01*
G37*
G36*
X161307728Y-111005454D02*
G01*
X160990455Y-111005454D01*
X160990455Y-110688182D01*
X161307728Y-110688182D01*
X161307728Y-111005454D01*
G37*
G36*
X166384091Y-109419091D02*
G01*
X166066818Y-109419091D01*
X166066818Y-109101818D01*
X166384091Y-109101818D01*
X166384091Y-109419091D01*
G37*
G36*
X162576819Y-113860908D02*
G01*
X162259546Y-113860908D01*
X162259546Y-113543636D01*
X162576819Y-113543636D01*
X162576819Y-113860908D01*
G37*
G36*
X162894091Y-107198182D02*
G01*
X162576819Y-107198182D01*
X162576819Y-106880909D01*
X162894091Y-106880909D01*
X162894091Y-107198182D01*
G37*
G36*
X158769546Y-106246364D02*
G01*
X158452274Y-106246364D01*
X158452274Y-105929091D01*
X158769546Y-105929091D01*
X158769546Y-106246364D01*
G37*
G36*
X159404092Y-107198182D02*
G01*
X159086819Y-107198182D01*
X159086819Y-106880909D01*
X159404092Y-106880909D01*
X159404092Y-107198182D01*
G37*
G36*
X163528637Y-108467273D02*
G01*
X163211364Y-108467273D01*
X163211364Y-108150000D01*
X163528637Y-108150000D01*
X163528637Y-108467273D01*
G37*
G36*
X159721364Y-111957272D02*
G01*
X159404092Y-111957272D01*
X159404092Y-111640000D01*
X159721364Y-111640000D01*
X159721364Y-111957272D01*
G37*
G36*
X159721364Y-110370909D02*
G01*
X159404092Y-110370909D01*
X159404092Y-110053636D01*
X159721364Y-110053636D01*
X159721364Y-110370909D01*
G37*
G36*
X162259546Y-112591818D02*
G01*
X161942273Y-112591818D01*
X161942273Y-112274545D01*
X162259546Y-112274545D01*
X162259546Y-112591818D01*
G37*
G36*
X159086819Y-111005454D02*
G01*
X158769546Y-111005454D01*
X158769546Y-110688182D01*
X159086819Y-110688182D01*
X159086819Y-111005454D01*
G37*
G36*
X161307728Y-109101818D02*
G01*
X160990455Y-109101818D01*
X160990455Y-108784545D01*
X161307728Y-108784545D01*
X161307728Y-109101818D01*
G37*
G36*
X166066818Y-109419091D02*
G01*
X165749546Y-109419091D01*
X165749546Y-109101818D01*
X166066818Y-109101818D01*
X166066818Y-109419091D01*
G37*
G36*
X158769546Y-106563636D02*
G01*
X158452274Y-106563636D01*
X158452274Y-106246364D01*
X158769546Y-106246364D01*
X158769546Y-106563636D01*
G37*
G36*
X163528637Y-107198182D02*
G01*
X163211364Y-107198182D01*
X163211364Y-106880909D01*
X163528637Y-106880909D01*
X163528637Y-107198182D01*
G37*
G36*
X163211364Y-108784545D02*
G01*
X162894091Y-108784545D01*
X162894091Y-108467273D01*
X163211364Y-108467273D01*
X163211364Y-108784545D01*
G37*
G36*
X164480455Y-111957272D02*
G01*
X164163182Y-111957272D01*
X164163182Y-111640000D01*
X164480455Y-111640000D01*
X164480455Y-111957272D01*
G37*
G36*
X165115000Y-111322727D02*
G01*
X164797728Y-111322727D01*
X164797728Y-111005454D01*
X165115000Y-111005454D01*
X165115000Y-111322727D01*
G37*
G36*
X161942273Y-110688182D02*
G01*
X161625000Y-110688182D01*
X161625000Y-110370909D01*
X161942273Y-110370909D01*
X161942273Y-110688182D01*
G37*
G36*
X161625000Y-113226363D02*
G01*
X161307728Y-113226363D01*
X161307728Y-112909090D01*
X161625000Y-112909090D01*
X161625000Y-113226363D01*
G37*
G36*
X163211364Y-112591818D02*
G01*
X162894091Y-112591818D01*
X162894091Y-112274545D01*
X163211364Y-112274545D01*
X163211364Y-112591818D01*
G37*
G36*
X166384091Y-106246364D02*
G01*
X166066818Y-106246364D01*
X166066818Y-105929091D01*
X166384091Y-105929091D01*
X166384091Y-106246364D01*
G37*
G36*
X161307728Y-109419091D02*
G01*
X160990455Y-109419091D01*
X160990455Y-109101818D01*
X161307728Y-109101818D01*
X161307728Y-109419091D01*
G37*
G36*
X159721364Y-112909090D02*
G01*
X159404092Y-112909090D01*
X159404092Y-112591818D01*
X159721364Y-112591818D01*
X159721364Y-112909090D01*
G37*
G36*
X160673182Y-111957272D02*
G01*
X160355910Y-111957272D01*
X160355910Y-111640000D01*
X160673182Y-111640000D01*
X160673182Y-111957272D01*
G37*
G36*
X160673182Y-106563636D02*
G01*
X160355910Y-106563636D01*
X160355910Y-106246364D01*
X160673182Y-106246364D01*
X160673182Y-106563636D01*
G37*
G36*
X159086819Y-109736363D02*
G01*
X158769546Y-109736363D01*
X158769546Y-109419091D01*
X159086819Y-109419091D01*
X159086819Y-109736363D01*
G37*
G36*
X165432273Y-112591818D02*
G01*
X165115000Y-112591818D01*
X165115000Y-112274545D01*
X165432273Y-112274545D01*
X165432273Y-112591818D01*
G37*
G36*
X162576819Y-111640000D02*
G01*
X162259546Y-111640000D01*
X162259546Y-111322727D01*
X162576819Y-111322727D01*
X162576819Y-111640000D01*
G37*
G36*
X162259546Y-106246364D02*
G01*
X161942273Y-106246364D01*
X161942273Y-105929091D01*
X162259546Y-105929091D01*
X162259546Y-106246364D01*
G37*
G36*
X164480455Y-113860908D02*
G01*
X164163182Y-113860908D01*
X164163182Y-113543636D01*
X164480455Y-113543636D01*
X164480455Y-113860908D01*
G37*
G36*
X160673182Y-110053636D02*
G01*
X160355910Y-110053636D01*
X160355910Y-109736363D01*
X160673182Y-109736363D01*
X160673182Y-110053636D01*
G37*
G36*
X161625000Y-111640000D02*
G01*
X161307728Y-111640000D01*
X161307728Y-111322727D01*
X161625000Y-111322727D01*
X161625000Y-111640000D01*
G37*
G36*
X161307728Y-108467273D02*
G01*
X160990455Y-108467273D01*
X160990455Y-108150000D01*
X161307728Y-108150000D01*
X161307728Y-108467273D01*
G37*
G36*
X164797728Y-108150000D02*
G01*
X164480455Y-108150000D01*
X164480455Y-107832727D01*
X164797728Y-107832727D01*
X164797728Y-108150000D01*
G37*
G36*
X166384091Y-110688182D02*
G01*
X166066818Y-110688182D01*
X166066818Y-110370909D01*
X166384091Y-110370909D01*
X166384091Y-110688182D01*
G37*
G36*
X159086819Y-106246364D02*
G01*
X158769546Y-106246364D01*
X158769546Y-105929091D01*
X159086819Y-105929091D01*
X159086819Y-106246364D01*
G37*
G36*
X162894091Y-107515454D02*
G01*
X162576819Y-107515454D01*
X162576819Y-107198182D01*
X162894091Y-107198182D01*
X162894091Y-107515454D01*
G37*
G36*
X164480455Y-112909090D02*
G01*
X164163182Y-112909090D01*
X164163182Y-112591818D01*
X164480455Y-112591818D01*
X164480455Y-112909090D01*
G37*
G36*
X161625000Y-111005454D02*
G01*
X161307728Y-111005454D01*
X161307728Y-110688182D01*
X161625000Y-110688182D01*
X161625000Y-111005454D01*
G37*
G36*
X159721364Y-112274545D02*
G01*
X159404092Y-112274545D01*
X159404092Y-111957272D01*
X159721364Y-111957272D01*
X159721364Y-112274545D01*
G37*
G36*
X161307728Y-108150000D02*
G01*
X160990455Y-108150000D01*
X160990455Y-107832727D01*
X161307728Y-107832727D01*
X161307728Y-108150000D01*
G37*
G36*
X166384091Y-107832727D02*
G01*
X166066818Y-107832727D01*
X166066818Y-107515454D01*
X166384091Y-107515454D01*
X166384091Y-107832727D01*
G37*
G36*
X164163182Y-110370909D02*
G01*
X163845909Y-110370909D01*
X163845909Y-110053636D01*
X164163182Y-110053636D01*
X164163182Y-110370909D01*
G37*
G36*
X162576819Y-107198182D02*
G01*
X162259546Y-107198182D01*
X162259546Y-106880909D01*
X162576819Y-106880909D01*
X162576819Y-107198182D01*
G37*
G36*
X162259546Y-106563636D02*
G01*
X161942273Y-106563636D01*
X161942273Y-106246364D01*
X162259546Y-106246364D01*
X162259546Y-106563636D01*
G37*
G36*
X161625000Y-106246364D02*
G01*
X161307728Y-106246364D01*
X161307728Y-105929091D01*
X161625000Y-105929091D01*
X161625000Y-106246364D01*
G37*
G36*
X163528637Y-109736363D02*
G01*
X163211364Y-109736363D01*
X163211364Y-109419091D01*
X163528637Y-109419091D01*
X163528637Y-109736363D01*
G37*
G36*
X160673182Y-111322727D02*
G01*
X160355910Y-111322727D01*
X160355910Y-111005454D01*
X160673182Y-111005454D01*
X160673182Y-111322727D01*
G37*
G36*
X160355910Y-110053636D02*
G01*
X160038637Y-110053636D01*
X160038637Y-109736363D01*
X160355910Y-109736363D01*
X160355910Y-110053636D01*
G37*
G36*
X160673182Y-110688182D02*
G01*
X160355910Y-110688182D01*
X160355910Y-110370909D01*
X160673182Y-110370909D01*
X160673182Y-110688182D01*
G37*
G36*
X164163182Y-110053636D02*
G01*
X163845909Y-110053636D01*
X163845909Y-109736363D01*
X164163182Y-109736363D01*
X164163182Y-110053636D01*
G37*
G36*
X166066818Y-109736363D02*
G01*
X165749546Y-109736363D01*
X165749546Y-109419091D01*
X166066818Y-109419091D01*
X166066818Y-109736363D01*
G37*
G36*
X165432273Y-107515454D02*
G01*
X165115000Y-107515454D01*
X165115000Y-107198182D01*
X165432273Y-107198182D01*
X165432273Y-107515454D01*
G37*
G36*
X165115000Y-113226363D02*
G01*
X164797728Y-113226363D01*
X164797728Y-112909090D01*
X165115000Y-112909090D01*
X165115000Y-113226363D01*
G37*
G36*
X166384091Y-112591818D02*
G01*
X166066818Y-112591818D01*
X166066818Y-112274545D01*
X166384091Y-112274545D01*
X166384091Y-112591818D01*
G37*
G36*
X165749546Y-111005454D02*
G01*
X165432273Y-111005454D01*
X165432273Y-110688182D01*
X165749546Y-110688182D01*
X165749546Y-111005454D01*
G37*
G36*
X162259546Y-109101818D02*
G01*
X161942273Y-109101818D01*
X161942273Y-108784545D01*
X162259546Y-108784545D01*
X162259546Y-109101818D01*
G37*
G36*
X164480455Y-110053636D02*
G01*
X164163182Y-110053636D01*
X164163182Y-109736363D01*
X164480455Y-109736363D01*
X164480455Y-110053636D01*
G37*
G36*
X160038637Y-111957272D02*
G01*
X159721364Y-111957272D01*
X159721364Y-111640000D01*
X160038637Y-111640000D01*
X160038637Y-111957272D01*
G37*
G36*
X166066818Y-106246364D02*
G01*
X165749546Y-106246364D01*
X165749546Y-105929091D01*
X166066818Y-105929091D01*
X166066818Y-106246364D01*
G37*
G36*
X166384091Y-112274545D02*
G01*
X166066818Y-112274545D01*
X166066818Y-111957272D01*
X166384091Y-111957272D01*
X166384091Y-112274545D01*
G37*
G36*
X160355910Y-110688182D02*
G01*
X160038637Y-110688182D01*
X160038637Y-110370909D01*
X160355910Y-110370909D01*
X160355910Y-110688182D01*
G37*
G36*
X161307728Y-111640000D02*
G01*
X160990455Y-111640000D01*
X160990455Y-111322727D01*
X161307728Y-111322727D01*
X161307728Y-111640000D01*
G37*
G36*
X165749546Y-107515454D02*
G01*
X165432273Y-107515454D01*
X165432273Y-107198182D01*
X165749546Y-107198182D01*
X165749546Y-107515454D01*
G37*
G36*
X166384091Y-107198182D02*
G01*
X166066818Y-107198182D01*
X166066818Y-106880909D01*
X166384091Y-106880909D01*
X166384091Y-107198182D01*
G37*
G36*
X165432273Y-110053636D02*
G01*
X165115000Y-110053636D01*
X165115000Y-109736363D01*
X165432273Y-109736363D01*
X165432273Y-110053636D01*
G37*
G36*
X160355910Y-113860908D02*
G01*
X160038637Y-113860908D01*
X160038637Y-113543636D01*
X160355910Y-113543636D01*
X160355910Y-113860908D01*
G37*
G36*
X162894091Y-109101818D02*
G01*
X162576819Y-109101818D01*
X162576819Y-108784545D01*
X162894091Y-108784545D01*
X162894091Y-109101818D01*
G37*
G36*
X160038637Y-108150000D02*
G01*
X159721364Y-108150000D01*
X159721364Y-107832727D01*
X160038637Y-107832727D01*
X160038637Y-108150000D01*
G37*
G36*
X161625000Y-106563636D02*
G01*
X161307728Y-106563636D01*
X161307728Y-106246364D01*
X161625000Y-106246364D01*
X161625000Y-106563636D01*
G37*
G36*
X162894091Y-110053636D02*
G01*
X162576819Y-110053636D01*
X162576819Y-109736363D01*
X162894091Y-109736363D01*
X162894091Y-110053636D01*
G37*
G36*
X165115000Y-112591818D02*
G01*
X164797728Y-112591818D01*
X164797728Y-112274545D01*
X165115000Y-112274545D01*
X165115000Y-112591818D01*
G37*
G36*
X162576819Y-112591818D02*
G01*
X162259546Y-112591818D01*
X162259546Y-112274545D01*
X162576819Y-112274545D01*
X162576819Y-112591818D01*
G37*
G36*
X165115000Y-113860908D02*
G01*
X164797728Y-113860908D01*
X164797728Y-113543636D01*
X165115000Y-113543636D01*
X165115000Y-113860908D01*
G37*
G36*
X160038637Y-107515454D02*
G01*
X159721364Y-107515454D01*
X159721364Y-107198182D01*
X160038637Y-107198182D01*
X160038637Y-107515454D01*
G37*
G36*
X158769546Y-110053636D02*
G01*
X158452274Y-110053636D01*
X158452274Y-109736363D01*
X158769546Y-109736363D01*
X158769546Y-110053636D01*
G37*
G36*
X163528637Y-109101818D02*
G01*
X163211364Y-109101818D01*
X163211364Y-108784545D01*
X163528637Y-108784545D01*
X163528637Y-109101818D01*
G37*
G36*
X159086819Y-111957272D02*
G01*
X158769546Y-111957272D01*
X158769546Y-111640000D01*
X159086819Y-111640000D01*
X159086819Y-111957272D01*
G37*
G36*
X163211364Y-108150000D02*
G01*
X162894091Y-108150000D01*
X162894091Y-107832727D01*
X163211364Y-107832727D01*
X163211364Y-108150000D01*
G37*
G36*
X163845909Y-111957272D02*
G01*
X163528637Y-111957272D01*
X163528637Y-111640000D01*
X163845909Y-111640000D01*
X163845909Y-111957272D01*
G37*
G36*
X161307728Y-111322727D02*
G01*
X160990455Y-111322727D01*
X160990455Y-111005454D01*
X161307728Y-111005454D01*
X161307728Y-111322727D01*
G37*
G36*
X165749546Y-106246364D02*
G01*
X165432273Y-106246364D01*
X165432273Y-105929091D01*
X165749546Y-105929091D01*
X165749546Y-106246364D01*
G37*
G36*
X161942273Y-109736363D02*
G01*
X161625000Y-109736363D01*
X161625000Y-109419091D01*
X161942273Y-109419091D01*
X161942273Y-109736363D01*
G37*
G36*
X160355910Y-112591818D02*
G01*
X160038637Y-112591818D01*
X160038637Y-112274545D01*
X160355910Y-112274545D01*
X160355910Y-112591818D01*
G37*
G36*
X162576819Y-111957272D02*
G01*
X162259546Y-111957272D01*
X162259546Y-111640000D01*
X162576819Y-111640000D01*
X162576819Y-111957272D01*
G37*
G36*
X160038637Y-111640000D02*
G01*
X159721364Y-111640000D01*
X159721364Y-111322727D01*
X160038637Y-111322727D01*
X160038637Y-111640000D01*
G37*
G36*
X162576819Y-109736363D02*
G01*
X162259546Y-109736363D01*
X162259546Y-109419091D01*
X162576819Y-109419091D01*
X162576819Y-109736363D01*
G37*
G36*
X159721364Y-107198182D02*
G01*
X159404092Y-107198182D01*
X159404092Y-106880909D01*
X159721364Y-106880909D01*
X159721364Y-107198182D01*
G37*
G36*
X165749546Y-107198182D02*
G01*
X165432273Y-107198182D01*
X165432273Y-106880909D01*
X165749546Y-106880909D01*
X165749546Y-107198182D01*
G37*
G36*
X166066818Y-113860908D02*
G01*
X165749546Y-113860908D01*
X165749546Y-113543636D01*
X166066818Y-113543636D01*
X166066818Y-113860908D01*
G37*
G36*
X158769546Y-108150000D02*
G01*
X158452274Y-108150000D01*
X158452274Y-107832727D01*
X158769546Y-107832727D01*
X158769546Y-108150000D01*
G37*
G36*
X159721364Y-108150000D02*
G01*
X159404092Y-108150000D01*
X159404092Y-107832727D01*
X159721364Y-107832727D01*
X159721364Y-108150000D01*
G37*
G36*
X161625000Y-112909090D02*
G01*
X161307728Y-112909090D01*
X161307728Y-112591818D01*
X161625000Y-112591818D01*
X161625000Y-112909090D01*
G37*
G36*
X162259546Y-112909090D02*
G01*
X161942273Y-112909090D01*
X161942273Y-112591818D01*
X162259546Y-112591818D01*
X162259546Y-112909090D01*
G37*
G36*
X163211364Y-112909090D02*
G01*
X162894091Y-112909090D01*
X162894091Y-112591818D01*
X163211364Y-112591818D01*
X163211364Y-112909090D01*
G37*
G36*
X163211364Y-107515454D02*
G01*
X162894091Y-107515454D01*
X162894091Y-107198182D01*
X163211364Y-107198182D01*
X163211364Y-107515454D01*
G37*
G36*
X158769546Y-111640000D02*
G01*
X158452274Y-111640000D01*
X158452274Y-111322727D01*
X158769546Y-111322727D01*
X158769546Y-111640000D01*
G37*
G36*
X159404092Y-107515454D02*
G01*
X159086819Y-107515454D01*
X159086819Y-107198182D01*
X159404092Y-107198182D01*
X159404092Y-107515454D01*
G37*
G36*
X160673182Y-107198182D02*
G01*
X160355910Y-107198182D01*
X160355910Y-106880909D01*
X160673182Y-106880909D01*
X160673182Y-107198182D01*
G37*
G36*
X159086819Y-113543636D02*
G01*
X158769546Y-113543636D01*
X158769546Y-113226363D01*
X159086819Y-113226363D01*
X159086819Y-113543636D01*
G37*
G36*
X163528637Y-112591818D02*
G01*
X163211364Y-112591818D01*
X163211364Y-112274545D01*
X163528637Y-112274545D01*
X163528637Y-112591818D01*
G37*
G36*
X164797728Y-113860908D02*
G01*
X164480455Y-113860908D01*
X164480455Y-113543636D01*
X164797728Y-113543636D01*
X164797728Y-113860908D01*
G37*
G36*
X160673182Y-107832727D02*
G01*
X160355910Y-107832727D01*
X160355910Y-107515454D01*
X160673182Y-107515454D01*
X160673182Y-107832727D01*
G37*
G36*
X164480455Y-108150000D02*
G01*
X164163182Y-108150000D01*
X164163182Y-107832727D01*
X164480455Y-107832727D01*
X164480455Y-108150000D01*
G37*
G36*
X162576819Y-108150000D02*
G01*
X162259546Y-108150000D01*
X162259546Y-107832727D01*
X162576819Y-107832727D01*
X162576819Y-108150000D01*
G37*
G36*
X160673182Y-108784545D02*
G01*
X160355910Y-108784545D01*
X160355910Y-108467273D01*
X160673182Y-108467273D01*
X160673182Y-108784545D01*
G37*
G36*
X163211364Y-106880909D02*
G01*
X162894091Y-106880909D01*
X162894091Y-106563636D01*
X163211364Y-106563636D01*
X163211364Y-106880909D01*
G37*
G36*
X163211364Y-112274545D02*
G01*
X162894091Y-112274545D01*
X162894091Y-111957272D01*
X163211364Y-111957272D01*
X163211364Y-112274545D01*
G37*
G36*
X160990455Y-111322727D02*
G01*
X160673182Y-111322727D01*
X160673182Y-111005454D01*
X160990455Y-111005454D01*
X160990455Y-111322727D01*
G37*
G36*
X160673182Y-113543636D02*
G01*
X160355910Y-113543636D01*
X160355910Y-113226363D01*
X160673182Y-113226363D01*
X160673182Y-113543636D01*
G37*
G36*
X165749546Y-112909090D02*
G01*
X165432273Y-112909090D01*
X165432273Y-112591818D01*
X165749546Y-112591818D01*
X165749546Y-112909090D01*
G37*
G36*
X163845909Y-113860908D02*
G01*
X163528637Y-113860908D01*
X163528637Y-113543636D01*
X163845909Y-113543636D01*
X163845909Y-113860908D01*
G37*
G36*
X164797728Y-111005454D02*
G01*
X164480455Y-111005454D01*
X164480455Y-110688182D01*
X164797728Y-110688182D01*
X164797728Y-111005454D01*
G37*
G36*
X160355910Y-112909090D02*
G01*
X160038637Y-112909090D01*
X160038637Y-112591818D01*
X160355910Y-112591818D01*
X160355910Y-112909090D01*
G37*
G36*
X166384091Y-108784545D02*
G01*
X166066818Y-108784545D01*
X166066818Y-108467273D01*
X166384091Y-108467273D01*
X166384091Y-108784545D01*
G37*
G36*
X160673182Y-106246364D02*
G01*
X160355910Y-106246364D01*
X160355910Y-105929091D01*
X160673182Y-105929091D01*
X160673182Y-106246364D01*
G37*
G36*
X165115000Y-107198182D02*
G01*
X164797728Y-107198182D01*
X164797728Y-106880909D01*
X165115000Y-106880909D01*
X165115000Y-107198182D01*
G37*
G36*
X162259546Y-113543636D02*
G01*
X161942273Y-113543636D01*
X161942273Y-113226363D01*
X162259546Y-113226363D01*
X162259546Y-113543636D01*
G37*
G36*
X162259546Y-110688182D02*
G01*
X161942273Y-110688182D01*
X161942273Y-110370909D01*
X162259546Y-110370909D01*
X162259546Y-110688182D01*
G37*
G36*
X160990455Y-110688182D02*
G01*
X160673182Y-110688182D01*
X160673182Y-110370909D01*
X160990455Y-110370909D01*
X160990455Y-110688182D01*
G37*
G36*
X160990455Y-112591818D02*
G01*
X160673182Y-112591818D01*
X160673182Y-112274545D01*
X160990455Y-112274545D01*
X160990455Y-112591818D01*
G37*
G36*
X162576819Y-107515454D02*
G01*
X162259546Y-107515454D01*
X162259546Y-107198182D01*
X162576819Y-107198182D01*
X162576819Y-107515454D01*
G37*
G36*
X161625000Y-113860908D02*
G01*
X161307728Y-113860908D01*
X161307728Y-113543636D01*
X161625000Y-113543636D01*
X161625000Y-113860908D01*
G37*
G36*
X162894091Y-113543636D02*
G01*
X162576819Y-113543636D01*
X162576819Y-113226363D01*
X162894091Y-113226363D01*
X162894091Y-113543636D01*
G37*
G36*
X161307728Y-113226363D02*
G01*
X160990455Y-113226363D01*
X160990455Y-112909090D01*
X161307728Y-112909090D01*
X161307728Y-113226363D01*
G37*
G36*
X164797728Y-111957272D02*
G01*
X164480455Y-111957272D01*
X164480455Y-111640000D01*
X164797728Y-111640000D01*
X164797728Y-111957272D01*
G37*
G36*
X162576819Y-111322727D02*
G01*
X162259546Y-111322727D01*
X162259546Y-111005454D01*
X162576819Y-111005454D01*
X162576819Y-111322727D01*
G37*
G36*
X164163182Y-111322727D02*
G01*
X163845909Y-111322727D01*
X163845909Y-111005454D01*
X164163182Y-111005454D01*
X164163182Y-111322727D01*
G37*
G36*
X165432273Y-113860908D02*
G01*
X165115000Y-113860908D01*
X165115000Y-113543636D01*
X165432273Y-113543636D01*
X165432273Y-113860908D01*
G37*
G36*
X160038637Y-109419091D02*
G01*
X159721364Y-109419091D01*
X159721364Y-109101818D01*
X160038637Y-109101818D01*
X160038637Y-109419091D01*
G37*
G36*
X160673182Y-108150000D02*
G01*
X160355910Y-108150000D01*
X160355910Y-107832727D01*
X160673182Y-107832727D01*
X160673182Y-108150000D01*
G37*
G36*
X161307728Y-108784545D02*
G01*
X160990455Y-108784545D01*
X160990455Y-108467273D01*
X161307728Y-108467273D01*
X161307728Y-108784545D01*
G37*
G36*
X159086819Y-110688182D02*
G01*
X158769546Y-110688182D01*
X158769546Y-110370909D01*
X159086819Y-110370909D01*
X159086819Y-110688182D01*
G37*
G36*
X160673182Y-109101818D02*
G01*
X160355910Y-109101818D01*
X160355910Y-108784545D01*
X160673182Y-108784545D01*
X160673182Y-109101818D01*
G37*
G36*
X165115000Y-108150000D02*
G01*
X164797728Y-108150000D01*
X164797728Y-107832727D01*
X165115000Y-107832727D01*
X165115000Y-108150000D01*
G37*
G36*
X159404092Y-108784545D02*
G01*
X159086819Y-108784545D01*
X159086819Y-108467273D01*
X159404092Y-108467273D01*
X159404092Y-108784545D01*
G37*
G36*
X165432273Y-108150000D02*
G01*
X165115000Y-108150000D01*
X165115000Y-107832727D01*
X165432273Y-107832727D01*
X165432273Y-108150000D01*
G37*
G36*
X163845909Y-108784545D02*
G01*
X163528637Y-108784545D01*
X163528637Y-108467273D01*
X163845909Y-108467273D01*
X163845909Y-108784545D01*
G37*
G36*
X160990455Y-110053636D02*
G01*
X160673182Y-110053636D01*
X160673182Y-109736363D01*
X160990455Y-109736363D01*
X160990455Y-110053636D01*
G37*
G36*
X163528637Y-111005454D02*
G01*
X163211364Y-111005454D01*
X163211364Y-110688182D01*
X163528637Y-110688182D01*
X163528637Y-111005454D01*
G37*
G36*
X159086819Y-108150000D02*
G01*
X158769546Y-108150000D01*
X158769546Y-107832727D01*
X159086819Y-107832727D01*
X159086819Y-108150000D01*
G37*
G36*
X165432273Y-106246364D02*
G01*
X165115000Y-106246364D01*
X165115000Y-105929091D01*
X165432273Y-105929091D01*
X165432273Y-106246364D01*
G37*
G36*
X161942273Y-108150000D02*
G01*
X161625000Y-108150000D01*
X161625000Y-107832727D01*
X161942273Y-107832727D01*
X161942273Y-108150000D01*
G37*
G36*
X163845909Y-111640000D02*
G01*
X163528637Y-111640000D01*
X163528637Y-111322727D01*
X163845909Y-111322727D01*
X163845909Y-111640000D01*
G37*
G36*
X165749546Y-108150000D02*
G01*
X165432273Y-108150000D01*
X165432273Y-107832727D01*
X165749546Y-107832727D01*
X165749546Y-108150000D01*
G37*
G36*
X161942273Y-112274545D02*
G01*
X161625000Y-112274545D01*
X161625000Y-111957272D01*
X161942273Y-111957272D01*
X161942273Y-112274545D01*
G37*
G36*
X161307728Y-110370909D02*
G01*
X160990455Y-110370909D01*
X160990455Y-110053636D01*
X161307728Y-110053636D01*
X161307728Y-110370909D01*
G37*
G36*
X165749546Y-110053636D02*
G01*
X165432273Y-110053636D01*
X165432273Y-109736363D01*
X165749546Y-109736363D01*
X165749546Y-110053636D01*
G37*
G36*
X159086819Y-110053636D02*
G01*
X158769546Y-110053636D01*
X158769546Y-109736363D01*
X159086819Y-109736363D01*
X159086819Y-110053636D01*
G37*
G36*
X165749546Y-106880909D02*
G01*
X165432273Y-106880909D01*
X165432273Y-106563636D01*
X165749546Y-106563636D01*
X165749546Y-106880909D01*
G37*
G36*
X160355910Y-111322727D02*
G01*
X160038637Y-111322727D01*
X160038637Y-111005454D01*
X160355910Y-111005454D01*
X160355910Y-111322727D01*
G37*
G36*
X162259546Y-107515454D02*
G01*
X161942273Y-107515454D01*
X161942273Y-107198182D01*
X162259546Y-107198182D01*
X162259546Y-107515454D01*
G37*
G36*
X161307728Y-111957272D02*
G01*
X160990455Y-111957272D01*
X160990455Y-111640000D01*
X161307728Y-111640000D01*
X161307728Y-111957272D01*
G37*
G36*
X159721364Y-106880909D02*
G01*
X159404092Y-106880909D01*
X159404092Y-106563636D01*
X159721364Y-106563636D01*
X159721364Y-106880909D01*
G37*
G36*
X163211364Y-111957272D02*
G01*
X162894091Y-111957272D01*
X162894091Y-111640000D01*
X163211364Y-111640000D01*
X163211364Y-111957272D01*
G37*
G36*
X162894091Y-107832727D02*
G01*
X162576819Y-107832727D01*
X162576819Y-107515454D01*
X162894091Y-107515454D01*
X162894091Y-107832727D01*
G37*
G36*
X165432273Y-106880909D02*
G01*
X165115000Y-106880909D01*
X165115000Y-106563636D01*
X165432273Y-106563636D01*
X165432273Y-106880909D01*
G37*
G36*
X165432273Y-107198182D02*
G01*
X165115000Y-107198182D01*
X165115000Y-106880909D01*
X165432273Y-106880909D01*
X165432273Y-107198182D01*
G37*
G36*
X162259546Y-110053636D02*
G01*
X161942273Y-110053636D01*
X161942273Y-109736363D01*
X162259546Y-109736363D01*
X162259546Y-110053636D01*
G37*
G36*
X161307728Y-112274545D02*
G01*
X160990455Y-112274545D01*
X160990455Y-111957272D01*
X161307728Y-111957272D01*
X161307728Y-112274545D01*
G37*
G36*
X164480455Y-108784545D02*
G01*
X164163182Y-108784545D01*
X164163182Y-108467273D01*
X164480455Y-108467273D01*
X164480455Y-108784545D01*
G37*
G36*
X160673182Y-106880909D02*
G01*
X160355910Y-106880909D01*
X160355910Y-106563636D01*
X160673182Y-106563636D01*
X160673182Y-106880909D01*
G37*
G36*
X159721364Y-110053636D02*
G01*
X159404092Y-110053636D01*
X159404092Y-109736363D01*
X159721364Y-109736363D01*
X159721364Y-110053636D01*
G37*
G36*
X164480455Y-111322727D02*
G01*
X164163182Y-111322727D01*
X164163182Y-111005454D01*
X164480455Y-111005454D01*
X164480455Y-111322727D01*
G37*
G36*
X161942273Y-107515454D02*
G01*
X161625000Y-107515454D01*
X161625000Y-107198182D01*
X161942273Y-107198182D01*
X161942273Y-107515454D01*
G37*
G36*
X165749546Y-108784545D02*
G01*
X165432273Y-108784545D01*
X165432273Y-108467273D01*
X165749546Y-108467273D01*
X165749546Y-108784545D01*
G37*
G36*
X162894091Y-109736363D02*
G01*
X162576819Y-109736363D01*
X162576819Y-109419091D01*
X162894091Y-109419091D01*
X162894091Y-109736363D01*
G37*
G36*
X166384091Y-106880909D02*
G01*
X166066818Y-106880909D01*
X166066818Y-106563636D01*
X166384091Y-106563636D01*
X166384091Y-106880909D01*
G37*
G36*
X166066818Y-111005454D02*
G01*
X165749546Y-111005454D01*
X165749546Y-110688182D01*
X166066818Y-110688182D01*
X166066818Y-111005454D01*
G37*
G36*
X165115000Y-110688182D02*
G01*
X164797728Y-110688182D01*
X164797728Y-110370909D01*
X165115000Y-110370909D01*
X165115000Y-110688182D01*
G37*
G36*
X165749546Y-111322727D02*
G01*
X165432273Y-111322727D01*
X165432273Y-111005454D01*
X165749546Y-111005454D01*
X165749546Y-111322727D01*
G37*
G36*
X158769546Y-110688182D02*
G01*
X158452274Y-110688182D01*
X158452274Y-110370909D01*
X158769546Y-110370909D01*
X158769546Y-110688182D01*
G37*
G36*
X160355910Y-106246364D02*
G01*
X160038637Y-106246364D01*
X160038637Y-105929091D01*
X160355910Y-105929091D01*
X160355910Y-106246364D01*
G37*
G36*
X160990455Y-109101818D02*
G01*
X160673182Y-109101818D01*
X160673182Y-108784545D01*
X160990455Y-108784545D01*
X160990455Y-109101818D01*
G37*
G36*
X161307728Y-112591818D02*
G01*
X160990455Y-112591818D01*
X160990455Y-112274545D01*
X161307728Y-112274545D01*
X161307728Y-112591818D01*
G37*
G36*
X163845909Y-108467273D02*
G01*
X163528637Y-108467273D01*
X163528637Y-108150000D01*
X163845909Y-108150000D01*
X163845909Y-108467273D01*
G37*
G36*
X161307728Y-113860908D02*
G01*
X160990455Y-113860908D01*
X160990455Y-113543636D01*
X161307728Y-113543636D01*
X161307728Y-113860908D01*
G37*
G36*
X159404092Y-110688182D02*
G01*
X159086819Y-110688182D01*
X159086819Y-110370909D01*
X159404092Y-110370909D01*
X159404092Y-110688182D01*
G37*
G36*
X159721364Y-113543636D02*
G01*
X159404092Y-113543636D01*
X159404092Y-113226363D01*
X159721364Y-113226363D01*
X159721364Y-113543636D01*
G37*
G36*
X164797728Y-110370909D02*
G01*
X164480455Y-110370909D01*
X164480455Y-110053636D01*
X164797728Y-110053636D01*
X164797728Y-110370909D01*
G37*
G36*
X164163182Y-110688182D02*
G01*
X163845909Y-110688182D01*
X163845909Y-110370909D01*
X164163182Y-110370909D01*
X164163182Y-110688182D01*
G37*
G36*
X166066818Y-108150000D02*
G01*
X165749546Y-108150000D01*
X165749546Y-107832727D01*
X166066818Y-107832727D01*
X166066818Y-108150000D01*
G37*
G36*
X163845909Y-113543636D02*
G01*
X163528637Y-113543636D01*
X163528637Y-113226363D01*
X163845909Y-113226363D01*
X163845909Y-113543636D01*
G37*
G36*
X159086819Y-109419091D02*
G01*
X158769546Y-109419091D01*
X158769546Y-109101818D01*
X159086819Y-109101818D01*
X159086819Y-109419091D01*
G37*
G36*
X162576819Y-110053636D02*
G01*
X162259546Y-110053636D01*
X162259546Y-109736363D01*
X162576819Y-109736363D01*
X162576819Y-110053636D01*
G37*
G36*
X166384091Y-112909090D02*
G01*
X166066818Y-112909090D01*
X166066818Y-112591818D01*
X166384091Y-112591818D01*
X166384091Y-112909090D01*
G37*
G36*
X165749546Y-109419091D02*
G01*
X165432273Y-109419091D01*
X165432273Y-109101818D01*
X165749546Y-109101818D01*
X165749546Y-109419091D01*
G37*
G36*
X159086819Y-113860908D02*
G01*
X158769546Y-113860908D01*
X158769546Y-113543636D01*
X159086819Y-113543636D01*
X159086819Y-113860908D01*
G37*
G36*
X162259546Y-112274545D02*
G01*
X161942273Y-112274545D01*
X161942273Y-111957272D01*
X162259546Y-111957272D01*
X162259546Y-112274545D01*
G37*
G36*
X162894091Y-113860908D02*
G01*
X162576819Y-113860908D01*
X162576819Y-113543636D01*
X162894091Y-113543636D01*
X162894091Y-113860908D01*
G37*
G36*
X162576819Y-108467273D02*
G01*
X162259546Y-108467273D01*
X162259546Y-108150000D01*
X162576819Y-108150000D01*
X162576819Y-108467273D01*
G37*
G36*
X163845909Y-108150000D02*
G01*
X163528637Y-108150000D01*
X163528637Y-107832727D01*
X163845909Y-107832727D01*
X163845909Y-108150000D01*
G37*
G36*
X160038637Y-112909090D02*
G01*
X159721364Y-112909090D01*
X159721364Y-112591818D01*
X160038637Y-112591818D01*
X160038637Y-112909090D01*
G37*
G36*
X165432273Y-112909090D02*
G01*
X165115000Y-112909090D01*
X165115000Y-112591818D01*
X165432273Y-112591818D01*
X165432273Y-112909090D01*
G37*
G36*
X160355910Y-108150000D02*
G01*
X160038637Y-108150000D01*
X160038637Y-107832727D01*
X160355910Y-107832727D01*
X160355910Y-108150000D01*
G37*
G36*
X162894091Y-111640000D02*
G01*
X162576819Y-111640000D01*
X162576819Y-111322727D01*
X162894091Y-111322727D01*
X162894091Y-111640000D01*
G37*
G36*
X160038637Y-106880909D02*
G01*
X159721364Y-106880909D01*
X159721364Y-106563636D01*
X160038637Y-106563636D01*
X160038637Y-106880909D01*
G37*
G36*
X163211364Y-109419091D02*
G01*
X162894091Y-109419091D01*
X162894091Y-109101818D01*
X163211364Y-109101818D01*
X163211364Y-109419091D01*
G37*
G36*
X162259546Y-111005454D02*
G01*
X161942273Y-111005454D01*
X161942273Y-110688182D01*
X162259546Y-110688182D01*
X162259546Y-111005454D01*
G37*
G36*
X163528637Y-112274545D02*
G01*
X163211364Y-112274545D01*
X163211364Y-111957272D01*
X163528637Y-111957272D01*
X163528637Y-112274545D01*
G37*
G36*
X160038637Y-113226363D02*
G01*
X159721364Y-113226363D01*
X159721364Y-112909090D01*
X160038637Y-112909090D01*
X160038637Y-113226363D01*
G37*
G36*
X159404092Y-112909090D02*
G01*
X159086819Y-112909090D01*
X159086819Y-112591818D01*
X159404092Y-112591818D01*
X159404092Y-112909090D01*
G37*
G36*
X165115000Y-112909090D02*
G01*
X164797728Y-112909090D01*
X164797728Y-112591818D01*
X165115000Y-112591818D01*
X165115000Y-112909090D01*
G37*
G36*
X163845909Y-112274545D02*
G01*
X163528637Y-112274545D01*
X163528637Y-111957272D01*
X163845909Y-111957272D01*
X163845909Y-112274545D01*
G37*
G36*
X160038637Y-106246364D02*
G01*
X159721364Y-106246364D01*
X159721364Y-105929091D01*
X160038637Y-105929091D01*
X160038637Y-106246364D01*
G37*
G36*
X165432273Y-111957272D02*
G01*
X165115000Y-111957272D01*
X165115000Y-111640000D01*
X165432273Y-111640000D01*
X165432273Y-111957272D01*
G37*
G36*
X162894091Y-106246364D02*
G01*
X162576819Y-106246364D01*
X162576819Y-105929091D01*
X162894091Y-105929091D01*
X162894091Y-106246364D01*
G37*
G36*
X160673182Y-112591818D02*
G01*
X160355910Y-112591818D01*
X160355910Y-112274545D01*
X160673182Y-112274545D01*
X160673182Y-112591818D01*
G37*
G36*
X163845909Y-106880909D02*
G01*
X163528637Y-106880909D01*
X163528637Y-106563636D01*
X163845909Y-106563636D01*
X163845909Y-106880909D01*
G37*
G36*
X163845909Y-112591818D02*
G01*
X163528637Y-112591818D01*
X163528637Y-112274545D01*
X163845909Y-112274545D01*
X163845909Y-112591818D01*
G37*
G36*
X160038637Y-107198182D02*
G01*
X159721364Y-107198182D01*
X159721364Y-106880909D01*
X160038637Y-106880909D01*
X160038637Y-107198182D01*
G37*
G36*
X162576819Y-106563636D02*
G01*
X162259546Y-106563636D01*
X162259546Y-106246364D01*
X162576819Y-106246364D01*
X162576819Y-106563636D01*
G37*
G36*
X165115000Y-108784545D02*
G01*
X164797728Y-108784545D01*
X164797728Y-108467273D01*
X165115000Y-108467273D01*
X165115000Y-108784545D01*
G37*
G36*
X159086819Y-112274545D02*
G01*
X158769546Y-112274545D01*
X158769546Y-111957272D01*
X159086819Y-111957272D01*
X159086819Y-112274545D01*
G37*
G36*
X158769546Y-107515454D02*
G01*
X158452274Y-107515454D01*
X158452274Y-107198182D01*
X158769546Y-107198182D01*
X158769546Y-107515454D01*
G37*
G36*
X166066818Y-109101818D02*
G01*
X165749546Y-109101818D01*
X165749546Y-108784545D01*
X166066818Y-108784545D01*
X166066818Y-109101818D01*
G37*
G36*
X164480455Y-107515454D02*
G01*
X164163182Y-107515454D01*
X164163182Y-107198182D01*
X164480455Y-107198182D01*
X164480455Y-107515454D01*
G37*
G36*
X164797728Y-106246364D02*
G01*
X164480455Y-106246364D01*
X164480455Y-105929091D01*
X164797728Y-105929091D01*
X164797728Y-106246364D01*
G37*
G36*
X162259546Y-111322727D02*
G01*
X161942273Y-111322727D01*
X161942273Y-111005454D01*
X162259546Y-111005454D01*
X162259546Y-111322727D01*
G37*
D11*
X153079514Y-127999904D02*
X153041418Y-128038000D01*
X153041418Y-128038000D02*
X152927133Y-128076095D01*
X152927133Y-128076095D02*
X152850942Y-128076095D01*
X152850942Y-128076095D02*
X152736656Y-128038000D01*
X152736656Y-128038000D02*
X152660466Y-127961809D01*
X152660466Y-127961809D02*
X152622371Y-127885619D01*
X152622371Y-127885619D02*
X152584275Y-127733238D01*
X152584275Y-127733238D02*
X152584275Y-127618952D01*
X152584275Y-127618952D02*
X152622371Y-127466571D01*
X152622371Y-127466571D02*
X152660466Y-127390380D01*
X152660466Y-127390380D02*
X152736656Y-127314190D01*
X152736656Y-127314190D02*
X152850942Y-127276095D01*
X152850942Y-127276095D02*
X152927133Y-127276095D01*
X152927133Y-127276095D02*
X153041418Y-127314190D01*
X153041418Y-127314190D02*
X153079514Y-127352285D01*
X153841418Y-128076095D02*
X153384275Y-128076095D01*
X153612847Y-128076095D02*
X153612847Y-127276095D01*
X153612847Y-127276095D02*
X153536656Y-127390380D01*
X153536656Y-127390380D02*
X153460466Y-127466571D01*
X153460466Y-127466571D02*
X153384275Y-127504666D01*
X154336657Y-127276095D02*
X154412847Y-127276095D01*
X154412847Y-127276095D02*
X154489038Y-127314190D01*
X154489038Y-127314190D02*
X154527133Y-127352285D01*
X154527133Y-127352285D02*
X154565228Y-127428476D01*
X154565228Y-127428476D02*
X154603323Y-127580857D01*
X154603323Y-127580857D02*
X154603323Y-127771333D01*
X154603323Y-127771333D02*
X154565228Y-127923714D01*
X154565228Y-127923714D02*
X154527133Y-127999904D01*
X154527133Y-127999904D02*
X154489038Y-128038000D01*
X154489038Y-128038000D02*
X154412847Y-128076095D01*
X154412847Y-128076095D02*
X154336657Y-128076095D01*
X154336657Y-128076095D02*
X154260466Y-128038000D01*
X154260466Y-128038000D02*
X154222371Y-127999904D01*
X154222371Y-127999904D02*
X154184276Y-127923714D01*
X154184276Y-127923714D02*
X154146180Y-127771333D01*
X154146180Y-127771333D02*
X154146180Y-127580857D01*
X154146180Y-127580857D02*
X154184276Y-127428476D01*
X154184276Y-127428476D02*
X154222371Y-127352285D01*
X154222371Y-127352285D02*
X154260466Y-127314190D01*
X154260466Y-127314190D02*
X154336657Y-127276095D01*
X151933333Y-109014895D02*
X151933333Y-109586323D01*
X151933333Y-109586323D02*
X151895238Y-109700609D01*
X151895238Y-109700609D02*
X151819047Y-109776800D01*
X151819047Y-109776800D02*
X151704762Y-109814895D01*
X151704762Y-109814895D02*
X151628571Y-109814895D01*
X152695238Y-109014895D02*
X152314286Y-109014895D01*
X152314286Y-109014895D02*
X152276190Y-109395847D01*
X152276190Y-109395847D02*
X152314286Y-109357752D01*
X152314286Y-109357752D02*
X152390476Y-109319657D01*
X152390476Y-109319657D02*
X152580952Y-109319657D01*
X152580952Y-109319657D02*
X152657143Y-109357752D01*
X152657143Y-109357752D02*
X152695238Y-109395847D01*
X152695238Y-109395847D02*
X152733333Y-109472038D01*
X152733333Y-109472038D02*
X152733333Y-109662514D01*
X152733333Y-109662514D02*
X152695238Y-109738704D01*
X152695238Y-109738704D02*
X152657143Y-109776800D01*
X152657143Y-109776800D02*
X152580952Y-109814895D01*
X152580952Y-109814895D02*
X152390476Y-109814895D01*
X152390476Y-109814895D02*
X152314286Y-109776800D01*
X152314286Y-109776800D02*
X152276190Y-109738704D01*
X149785714Y-128918704D02*
X149747618Y-128956800D01*
X149747618Y-128956800D02*
X149633333Y-128994895D01*
X149633333Y-128994895D02*
X149557142Y-128994895D01*
X149557142Y-128994895D02*
X149442856Y-128956800D01*
X149442856Y-128956800D02*
X149366666Y-128880609D01*
X149366666Y-128880609D02*
X149328571Y-128804419D01*
X149328571Y-128804419D02*
X149290475Y-128652038D01*
X149290475Y-128652038D02*
X149290475Y-128537752D01*
X149290475Y-128537752D02*
X149328571Y-128385371D01*
X149328571Y-128385371D02*
X149366666Y-128309180D01*
X149366666Y-128309180D02*
X149442856Y-128232990D01*
X149442856Y-128232990D02*
X149557142Y-128194895D01*
X149557142Y-128194895D02*
X149633333Y-128194895D01*
X149633333Y-128194895D02*
X149747618Y-128232990D01*
X149747618Y-128232990D02*
X149785714Y-128271085D01*
X150547618Y-128994895D02*
X150090475Y-128994895D01*
X150319047Y-128994895D02*
X150319047Y-128194895D01*
X150319047Y-128194895D02*
X150242856Y-128309180D01*
X150242856Y-128309180D02*
X150166666Y-128385371D01*
X150166666Y-128385371D02*
X150090475Y-128423466D01*
X151309523Y-128994895D02*
X150852380Y-128994895D01*
X151080952Y-128994895D02*
X151080952Y-128194895D01*
X151080952Y-128194895D02*
X151004761Y-128309180D01*
X151004761Y-128309180D02*
X150928571Y-128385371D01*
X150928571Y-128385371D02*
X150852380Y-128423466D01*
X152367914Y-125059295D02*
X152101247Y-124678342D01*
X151910771Y-125059295D02*
X151910771Y-124259295D01*
X151910771Y-124259295D02*
X152215533Y-124259295D01*
X152215533Y-124259295D02*
X152291723Y-124297390D01*
X152291723Y-124297390D02*
X152329818Y-124335485D01*
X152329818Y-124335485D02*
X152367914Y-124411676D01*
X152367914Y-124411676D02*
X152367914Y-124525961D01*
X152367914Y-124525961D02*
X152329818Y-124602152D01*
X152329818Y-124602152D02*
X152291723Y-124640247D01*
X152291723Y-124640247D02*
X152215533Y-124678342D01*
X152215533Y-124678342D02*
X151910771Y-124678342D01*
X153129818Y-125059295D02*
X152672675Y-125059295D01*
X152901247Y-125059295D02*
X152901247Y-124259295D01*
X152901247Y-124259295D02*
X152825056Y-124373580D01*
X152825056Y-124373580D02*
X152748866Y-124449771D01*
X152748866Y-124449771D02*
X152672675Y-124487866D01*
X153396485Y-124259295D02*
X153891723Y-124259295D01*
X153891723Y-124259295D02*
X153625057Y-124564057D01*
X153625057Y-124564057D02*
X153739342Y-124564057D01*
X153739342Y-124564057D02*
X153815533Y-124602152D01*
X153815533Y-124602152D02*
X153853628Y-124640247D01*
X153853628Y-124640247D02*
X153891723Y-124716438D01*
X153891723Y-124716438D02*
X153891723Y-124906914D01*
X153891723Y-124906914D02*
X153853628Y-124983104D01*
X153853628Y-124983104D02*
X153815533Y-125021200D01*
X153815533Y-125021200D02*
X153739342Y-125059295D01*
X153739342Y-125059295D02*
X153510771Y-125059295D01*
X153510771Y-125059295D02*
X153434580Y-125021200D01*
X153434580Y-125021200D02*
X153396485Y-124983104D01*
D12*
X125700057Y-118595238D02*
X125652438Y-118690476D01*
X125652438Y-118690476D02*
X125557200Y-118785714D01*
X125557200Y-118785714D02*
X125414342Y-118928571D01*
X125414342Y-118928571D02*
X125366723Y-119023809D01*
X125366723Y-119023809D02*
X125366723Y-119119047D01*
X125604819Y-119071428D02*
X125557200Y-119166666D01*
X125557200Y-119166666D02*
X125461961Y-119261904D01*
X125461961Y-119261904D02*
X125271485Y-119309523D01*
X125271485Y-119309523D02*
X124938152Y-119309523D01*
X124938152Y-119309523D02*
X124747676Y-119261904D01*
X124747676Y-119261904D02*
X124652438Y-119166666D01*
X124652438Y-119166666D02*
X124604819Y-119071428D01*
X124604819Y-119071428D02*
X124604819Y-118880952D01*
X124604819Y-118880952D02*
X124652438Y-118785714D01*
X124652438Y-118785714D02*
X124747676Y-118690476D01*
X124747676Y-118690476D02*
X124938152Y-118642857D01*
X124938152Y-118642857D02*
X125271485Y-118642857D01*
X125271485Y-118642857D02*
X125461961Y-118690476D01*
X125461961Y-118690476D02*
X125557200Y-118785714D01*
X125557200Y-118785714D02*
X125604819Y-118880952D01*
X125604819Y-118880952D02*
X125604819Y-119071428D01*
X124604819Y-117738095D02*
X124604819Y-118214285D01*
X124604819Y-118214285D02*
X125081009Y-118261904D01*
X125081009Y-118261904D02*
X125033390Y-118214285D01*
X125033390Y-118214285D02*
X124985771Y-118119047D01*
X124985771Y-118119047D02*
X124985771Y-117880952D01*
X124985771Y-117880952D02*
X125033390Y-117785714D01*
X125033390Y-117785714D02*
X125081009Y-117738095D01*
X125081009Y-117738095D02*
X125176247Y-117690476D01*
X125176247Y-117690476D02*
X125414342Y-117690476D01*
X125414342Y-117690476D02*
X125509580Y-117738095D01*
X125509580Y-117738095D02*
X125557200Y-117785714D01*
X125557200Y-117785714D02*
X125604819Y-117880952D01*
X125604819Y-117880952D02*
X125604819Y-118119047D01*
X125604819Y-118119047D02*
X125557200Y-118214285D01*
X125557200Y-118214285D02*
X125509580Y-118261904D01*
D11*
X161764895Y-129166666D02*
X162336323Y-129166666D01*
X162336323Y-129166666D02*
X162450609Y-129204761D01*
X162450609Y-129204761D02*
X162526800Y-129280952D01*
X162526800Y-129280952D02*
X162564895Y-129395237D01*
X162564895Y-129395237D02*
X162564895Y-129471428D01*
X162564895Y-128366666D02*
X162564895Y-128823809D01*
X162564895Y-128595237D02*
X161764895Y-128595237D01*
X161764895Y-128595237D02*
X161879180Y-128671428D01*
X161879180Y-128671428D02*
X161955371Y-128747618D01*
X161955371Y-128747618D02*
X161993466Y-128823809D01*
X143630714Y-128330104D02*
X143592618Y-128368200D01*
X143592618Y-128368200D02*
X143478333Y-128406295D01*
X143478333Y-128406295D02*
X143402142Y-128406295D01*
X143402142Y-128406295D02*
X143287856Y-128368200D01*
X143287856Y-128368200D02*
X143211666Y-128292009D01*
X143211666Y-128292009D02*
X143173571Y-128215819D01*
X143173571Y-128215819D02*
X143135475Y-128063438D01*
X143135475Y-128063438D02*
X143135475Y-127949152D01*
X143135475Y-127949152D02*
X143173571Y-127796771D01*
X143173571Y-127796771D02*
X143211666Y-127720580D01*
X143211666Y-127720580D02*
X143287856Y-127644390D01*
X143287856Y-127644390D02*
X143402142Y-127606295D01*
X143402142Y-127606295D02*
X143478333Y-127606295D01*
X143478333Y-127606295D02*
X143592618Y-127644390D01*
X143592618Y-127644390D02*
X143630714Y-127682485D01*
X144392618Y-128406295D02*
X143935475Y-128406295D01*
X144164047Y-128406295D02*
X144164047Y-127606295D01*
X144164047Y-127606295D02*
X144087856Y-127720580D01*
X144087856Y-127720580D02*
X144011666Y-127796771D01*
X144011666Y-127796771D02*
X143935475Y-127834866D01*
X144697380Y-127682485D02*
X144735476Y-127644390D01*
X144735476Y-127644390D02*
X144811666Y-127606295D01*
X144811666Y-127606295D02*
X145002142Y-127606295D01*
X145002142Y-127606295D02*
X145078333Y-127644390D01*
X145078333Y-127644390D02*
X145116428Y-127682485D01*
X145116428Y-127682485D02*
X145154523Y-127758676D01*
X145154523Y-127758676D02*
X145154523Y-127834866D01*
X145154523Y-127834866D02*
X145116428Y-127949152D01*
X145116428Y-127949152D02*
X144659285Y-128406295D01*
X144659285Y-128406295D02*
X145154523Y-128406295D01*
X159291667Y-146139895D02*
X159025000Y-145758942D01*
X158834524Y-146139895D02*
X158834524Y-145339895D01*
X158834524Y-145339895D02*
X159139286Y-145339895D01*
X159139286Y-145339895D02*
X159215476Y-145377990D01*
X159215476Y-145377990D02*
X159253571Y-145416085D01*
X159253571Y-145416085D02*
X159291667Y-145492276D01*
X159291667Y-145492276D02*
X159291667Y-145606561D01*
X159291667Y-145606561D02*
X159253571Y-145682752D01*
X159253571Y-145682752D02*
X159215476Y-145720847D01*
X159215476Y-145720847D02*
X159139286Y-145758942D01*
X159139286Y-145758942D02*
X158834524Y-145758942D01*
X160015476Y-145339895D02*
X159634524Y-145339895D01*
X159634524Y-145339895D02*
X159596428Y-145720847D01*
X159596428Y-145720847D02*
X159634524Y-145682752D01*
X159634524Y-145682752D02*
X159710714Y-145644657D01*
X159710714Y-145644657D02*
X159901190Y-145644657D01*
X159901190Y-145644657D02*
X159977381Y-145682752D01*
X159977381Y-145682752D02*
X160015476Y-145720847D01*
X160015476Y-145720847D02*
X160053571Y-145797038D01*
X160053571Y-145797038D02*
X160053571Y-145987514D01*
X160053571Y-145987514D02*
X160015476Y-146063704D01*
X160015476Y-146063704D02*
X159977381Y-146101800D01*
X159977381Y-146101800D02*
X159901190Y-146139895D01*
X159901190Y-146139895D02*
X159710714Y-146139895D01*
X159710714Y-146139895D02*
X159634524Y-146101800D01*
X159634524Y-146101800D02*
X159596428Y-146063704D01*
X150166667Y-142114895D02*
X149900000Y-141733942D01*
X149709524Y-142114895D02*
X149709524Y-141314895D01*
X149709524Y-141314895D02*
X150014286Y-141314895D01*
X150014286Y-141314895D02*
X150090476Y-141352990D01*
X150090476Y-141352990D02*
X150128571Y-141391085D01*
X150128571Y-141391085D02*
X150166667Y-141467276D01*
X150166667Y-141467276D02*
X150166667Y-141581561D01*
X150166667Y-141581561D02*
X150128571Y-141657752D01*
X150128571Y-141657752D02*
X150090476Y-141695847D01*
X150090476Y-141695847D02*
X150014286Y-141733942D01*
X150014286Y-141733942D02*
X149709524Y-141733942D01*
X150852381Y-141314895D02*
X150700000Y-141314895D01*
X150700000Y-141314895D02*
X150623809Y-141352990D01*
X150623809Y-141352990D02*
X150585714Y-141391085D01*
X150585714Y-141391085D02*
X150509524Y-141505371D01*
X150509524Y-141505371D02*
X150471428Y-141657752D01*
X150471428Y-141657752D02*
X150471428Y-141962514D01*
X150471428Y-141962514D02*
X150509524Y-142038704D01*
X150509524Y-142038704D02*
X150547619Y-142076800D01*
X150547619Y-142076800D02*
X150623809Y-142114895D01*
X150623809Y-142114895D02*
X150776190Y-142114895D01*
X150776190Y-142114895D02*
X150852381Y-142076800D01*
X150852381Y-142076800D02*
X150890476Y-142038704D01*
X150890476Y-142038704D02*
X150928571Y-141962514D01*
X150928571Y-141962514D02*
X150928571Y-141772038D01*
X150928571Y-141772038D02*
X150890476Y-141695847D01*
X150890476Y-141695847D02*
X150852381Y-141657752D01*
X150852381Y-141657752D02*
X150776190Y-141619657D01*
X150776190Y-141619657D02*
X150623809Y-141619657D01*
X150623809Y-141619657D02*
X150547619Y-141657752D01*
X150547619Y-141657752D02*
X150509524Y-141695847D01*
X150509524Y-141695847D02*
X150471428Y-141772038D01*
X136960714Y-133013704D02*
X136922618Y-133051800D01*
X136922618Y-133051800D02*
X136808333Y-133089895D01*
X136808333Y-133089895D02*
X136732142Y-133089895D01*
X136732142Y-133089895D02*
X136617856Y-133051800D01*
X136617856Y-133051800D02*
X136541666Y-132975609D01*
X136541666Y-132975609D02*
X136503571Y-132899419D01*
X136503571Y-132899419D02*
X136465475Y-132747038D01*
X136465475Y-132747038D02*
X136465475Y-132632752D01*
X136465475Y-132632752D02*
X136503571Y-132480371D01*
X136503571Y-132480371D02*
X136541666Y-132404180D01*
X136541666Y-132404180D02*
X136617856Y-132327990D01*
X136617856Y-132327990D02*
X136732142Y-132289895D01*
X136732142Y-132289895D02*
X136808333Y-132289895D01*
X136808333Y-132289895D02*
X136922618Y-132327990D01*
X136922618Y-132327990D02*
X136960714Y-132366085D01*
X137265475Y-132366085D02*
X137303571Y-132327990D01*
X137303571Y-132327990D02*
X137379761Y-132289895D01*
X137379761Y-132289895D02*
X137570237Y-132289895D01*
X137570237Y-132289895D02*
X137646428Y-132327990D01*
X137646428Y-132327990D02*
X137684523Y-132366085D01*
X137684523Y-132366085D02*
X137722618Y-132442276D01*
X137722618Y-132442276D02*
X137722618Y-132518466D01*
X137722618Y-132518466D02*
X137684523Y-132632752D01*
X137684523Y-132632752D02*
X137227380Y-133089895D01*
X137227380Y-133089895D02*
X137722618Y-133089895D01*
X138217857Y-132289895D02*
X138294047Y-132289895D01*
X138294047Y-132289895D02*
X138370238Y-132327990D01*
X138370238Y-132327990D02*
X138408333Y-132366085D01*
X138408333Y-132366085D02*
X138446428Y-132442276D01*
X138446428Y-132442276D02*
X138484523Y-132594657D01*
X138484523Y-132594657D02*
X138484523Y-132785133D01*
X138484523Y-132785133D02*
X138446428Y-132937514D01*
X138446428Y-132937514D02*
X138408333Y-133013704D01*
X138408333Y-133013704D02*
X138370238Y-133051800D01*
X138370238Y-133051800D02*
X138294047Y-133089895D01*
X138294047Y-133089895D02*
X138217857Y-133089895D01*
X138217857Y-133089895D02*
X138141666Y-133051800D01*
X138141666Y-133051800D02*
X138103571Y-133013704D01*
X138103571Y-133013704D02*
X138065476Y-132937514D01*
X138065476Y-132937514D02*
X138027380Y-132785133D01*
X138027380Y-132785133D02*
X138027380Y-132594657D01*
X138027380Y-132594657D02*
X138065476Y-132442276D01*
X138065476Y-132442276D02*
X138103571Y-132366085D01*
X138103571Y-132366085D02*
X138141666Y-132327990D01*
X138141666Y-132327990D02*
X138217857Y-132289895D01*
X127920238Y-133385133D02*
X128529762Y-133385133D01*
X128225000Y-133689895D02*
X128225000Y-133080371D01*
X167188704Y-140433332D02*
X167226800Y-140471428D01*
X167226800Y-140471428D02*
X167264895Y-140585713D01*
X167264895Y-140585713D02*
X167264895Y-140661904D01*
X167264895Y-140661904D02*
X167226800Y-140776190D01*
X167226800Y-140776190D02*
X167150609Y-140852380D01*
X167150609Y-140852380D02*
X167074419Y-140890475D01*
X167074419Y-140890475D02*
X166922038Y-140928571D01*
X166922038Y-140928571D02*
X166807752Y-140928571D01*
X166807752Y-140928571D02*
X166655371Y-140890475D01*
X166655371Y-140890475D02*
X166579180Y-140852380D01*
X166579180Y-140852380D02*
X166502990Y-140776190D01*
X166502990Y-140776190D02*
X166464895Y-140661904D01*
X166464895Y-140661904D02*
X166464895Y-140585713D01*
X166464895Y-140585713D02*
X166502990Y-140471428D01*
X166502990Y-140471428D02*
X166541085Y-140433332D01*
X166541085Y-140128571D02*
X166502990Y-140090475D01*
X166502990Y-140090475D02*
X166464895Y-140014285D01*
X166464895Y-140014285D02*
X166464895Y-139823809D01*
X166464895Y-139823809D02*
X166502990Y-139747618D01*
X166502990Y-139747618D02*
X166541085Y-139709523D01*
X166541085Y-139709523D02*
X166617276Y-139671428D01*
X166617276Y-139671428D02*
X166693466Y-139671428D01*
X166693466Y-139671428D02*
X166807752Y-139709523D01*
X166807752Y-139709523D02*
X167264895Y-140166666D01*
X167264895Y-140166666D02*
X167264895Y-139671428D01*
X145538704Y-133014285D02*
X145576800Y-133052381D01*
X145576800Y-133052381D02*
X145614895Y-133166666D01*
X145614895Y-133166666D02*
X145614895Y-133242857D01*
X145614895Y-133242857D02*
X145576800Y-133357143D01*
X145576800Y-133357143D02*
X145500609Y-133433333D01*
X145500609Y-133433333D02*
X145424419Y-133471428D01*
X145424419Y-133471428D02*
X145272038Y-133509524D01*
X145272038Y-133509524D02*
X145157752Y-133509524D01*
X145157752Y-133509524D02*
X145005371Y-133471428D01*
X145005371Y-133471428D02*
X144929180Y-133433333D01*
X144929180Y-133433333D02*
X144852990Y-133357143D01*
X144852990Y-133357143D02*
X144814895Y-133242857D01*
X144814895Y-133242857D02*
X144814895Y-133166666D01*
X144814895Y-133166666D02*
X144852990Y-133052381D01*
X144852990Y-133052381D02*
X144891085Y-133014285D01*
X145614895Y-132252381D02*
X145614895Y-132709524D01*
X145614895Y-132480952D02*
X144814895Y-132480952D01*
X144814895Y-132480952D02*
X144929180Y-132557143D01*
X144929180Y-132557143D02*
X145005371Y-132633333D01*
X145005371Y-132633333D02*
X145043466Y-132709524D01*
X144814895Y-131985714D02*
X144814895Y-131490476D01*
X144814895Y-131490476D02*
X145119657Y-131757142D01*
X145119657Y-131757142D02*
X145119657Y-131642857D01*
X145119657Y-131642857D02*
X145157752Y-131566666D01*
X145157752Y-131566666D02*
X145195847Y-131528571D01*
X145195847Y-131528571D02*
X145272038Y-131490476D01*
X145272038Y-131490476D02*
X145462514Y-131490476D01*
X145462514Y-131490476D02*
X145538704Y-131528571D01*
X145538704Y-131528571D02*
X145576800Y-131566666D01*
X145576800Y-131566666D02*
X145614895Y-131642857D01*
X145614895Y-131642857D02*
X145614895Y-131871428D01*
X145614895Y-131871428D02*
X145576800Y-131947619D01*
X145576800Y-131947619D02*
X145538704Y-131985714D01*
D12*
X156216361Y-114672257D02*
X156121123Y-114624638D01*
X156121123Y-114624638D02*
X156025885Y-114529400D01*
X156025885Y-114529400D02*
X155883028Y-114386542D01*
X155883028Y-114386542D02*
X155787790Y-114338923D01*
X155787790Y-114338923D02*
X155692552Y-114338923D01*
X155740171Y-114577019D02*
X155644933Y-114529400D01*
X155644933Y-114529400D02*
X155549695Y-114434161D01*
X155549695Y-114434161D02*
X155502076Y-114243685D01*
X155502076Y-114243685D02*
X155502076Y-113910352D01*
X155502076Y-113910352D02*
X155549695Y-113719876D01*
X155549695Y-113719876D02*
X155644933Y-113624638D01*
X155644933Y-113624638D02*
X155740171Y-113577019D01*
X155740171Y-113577019D02*
X155930647Y-113577019D01*
X155930647Y-113577019D02*
X156025885Y-113624638D01*
X156025885Y-113624638D02*
X156121123Y-113719876D01*
X156121123Y-113719876D02*
X156168742Y-113910352D01*
X156168742Y-113910352D02*
X156168742Y-114243685D01*
X156168742Y-114243685D02*
X156121123Y-114434161D01*
X156121123Y-114434161D02*
X156025885Y-114529400D01*
X156025885Y-114529400D02*
X155930647Y-114577019D01*
X155930647Y-114577019D02*
X155740171Y-114577019D01*
X157121123Y-114577019D02*
X156549695Y-114577019D01*
X156835409Y-114577019D02*
X156835409Y-113577019D01*
X156835409Y-113577019D02*
X156740171Y-113719876D01*
X156740171Y-113719876D02*
X156644933Y-113815114D01*
X156644933Y-113815114D02*
X156549695Y-113862733D01*
D11*
X155689895Y-141883332D02*
X155308942Y-142149999D01*
X155689895Y-142340475D02*
X154889895Y-142340475D01*
X154889895Y-142340475D02*
X154889895Y-142035713D01*
X154889895Y-142035713D02*
X154927990Y-141959523D01*
X154927990Y-141959523D02*
X154966085Y-141921428D01*
X154966085Y-141921428D02*
X155042276Y-141883332D01*
X155042276Y-141883332D02*
X155156561Y-141883332D01*
X155156561Y-141883332D02*
X155232752Y-141921428D01*
X155232752Y-141921428D02*
X155270847Y-141959523D01*
X155270847Y-141959523D02*
X155308942Y-142035713D01*
X155308942Y-142035713D02*
X155308942Y-142340475D01*
X154889895Y-141616666D02*
X154889895Y-141083332D01*
X154889895Y-141083332D02*
X155689895Y-141426190D01*
X152203248Y-135721495D02*
X152203248Y-134921495D01*
X153041343Y-135645304D02*
X153003247Y-135683400D01*
X153003247Y-135683400D02*
X152888962Y-135721495D01*
X152888962Y-135721495D02*
X152812771Y-135721495D01*
X152812771Y-135721495D02*
X152698485Y-135683400D01*
X152698485Y-135683400D02*
X152622295Y-135607209D01*
X152622295Y-135607209D02*
X152584200Y-135531019D01*
X152584200Y-135531019D02*
X152546104Y-135378638D01*
X152546104Y-135378638D02*
X152546104Y-135264352D01*
X152546104Y-135264352D02*
X152584200Y-135111971D01*
X152584200Y-135111971D02*
X152622295Y-135035780D01*
X152622295Y-135035780D02*
X152698485Y-134959590D01*
X152698485Y-134959590D02*
X152812771Y-134921495D01*
X152812771Y-134921495D02*
X152888962Y-134921495D01*
X152888962Y-134921495D02*
X153003247Y-134959590D01*
X153003247Y-134959590D02*
X153041343Y-134997685D01*
X153803247Y-135721495D02*
X153346104Y-135721495D01*
X153574676Y-135721495D02*
X153574676Y-134921495D01*
X153574676Y-134921495D02*
X153498485Y-135035780D01*
X153498485Y-135035780D02*
X153422295Y-135111971D01*
X153422295Y-135111971D02*
X153346104Y-135150066D01*
X143035714Y-125139895D02*
X142769047Y-124758942D01*
X142578571Y-125139895D02*
X142578571Y-124339895D01*
X142578571Y-124339895D02*
X142883333Y-124339895D01*
X142883333Y-124339895D02*
X142959523Y-124377990D01*
X142959523Y-124377990D02*
X142997618Y-124416085D01*
X142997618Y-124416085D02*
X143035714Y-124492276D01*
X143035714Y-124492276D02*
X143035714Y-124606561D01*
X143035714Y-124606561D02*
X142997618Y-124682752D01*
X142997618Y-124682752D02*
X142959523Y-124720847D01*
X142959523Y-124720847D02*
X142883333Y-124758942D01*
X142883333Y-124758942D02*
X142578571Y-124758942D01*
X143797618Y-125139895D02*
X143340475Y-125139895D01*
X143569047Y-125139895D02*
X143569047Y-124339895D01*
X143569047Y-124339895D02*
X143492856Y-124454180D01*
X143492856Y-124454180D02*
X143416666Y-124530371D01*
X143416666Y-124530371D02*
X143340475Y-124568466D01*
X144102380Y-124416085D02*
X144140476Y-124377990D01*
X144140476Y-124377990D02*
X144216666Y-124339895D01*
X144216666Y-124339895D02*
X144407142Y-124339895D01*
X144407142Y-124339895D02*
X144483333Y-124377990D01*
X144483333Y-124377990D02*
X144521428Y-124416085D01*
X144521428Y-124416085D02*
X144559523Y-124492276D01*
X144559523Y-124492276D02*
X144559523Y-124568466D01*
X144559523Y-124568466D02*
X144521428Y-124682752D01*
X144521428Y-124682752D02*
X144064285Y-125139895D01*
X144064285Y-125139895D02*
X144559523Y-125139895D01*
X162508229Y-147690475D02*
X161708229Y-147690475D01*
X161708229Y-147690475D02*
X161708229Y-147499999D01*
X161708229Y-147499999D02*
X161746324Y-147385713D01*
X161746324Y-147385713D02*
X161822514Y-147309523D01*
X161822514Y-147309523D02*
X161898705Y-147271428D01*
X161898705Y-147271428D02*
X162051086Y-147233332D01*
X162051086Y-147233332D02*
X162165372Y-147233332D01*
X162165372Y-147233332D02*
X162317753Y-147271428D01*
X162317753Y-147271428D02*
X162393943Y-147309523D01*
X162393943Y-147309523D02*
X162470134Y-147385713D01*
X162470134Y-147385713D02*
X162508229Y-147499999D01*
X162508229Y-147499999D02*
X162508229Y-147690475D01*
X161784419Y-146928571D02*
X161746324Y-146890475D01*
X161746324Y-146890475D02*
X161708229Y-146814285D01*
X161708229Y-146814285D02*
X161708229Y-146623809D01*
X161708229Y-146623809D02*
X161746324Y-146547618D01*
X161746324Y-146547618D02*
X161784419Y-146509523D01*
X161784419Y-146509523D02*
X161860610Y-146471428D01*
X161860610Y-146471428D02*
X161936800Y-146471428D01*
X161936800Y-146471428D02*
X162051086Y-146509523D01*
X162051086Y-146509523D02*
X162508229Y-146966666D01*
X162508229Y-146966666D02*
X162508229Y-146471428D01*
D12*
X161932579Y-124620257D02*
X161980199Y-124667876D01*
X161980199Y-124667876D02*
X162027818Y-124810733D01*
X162027818Y-124810733D02*
X162027818Y-124905971D01*
X162027818Y-124905971D02*
X161980199Y-125048828D01*
X161980199Y-125048828D02*
X161884960Y-125144066D01*
X161884960Y-125144066D02*
X161789722Y-125191685D01*
X161789722Y-125191685D02*
X161599246Y-125239304D01*
X161599246Y-125239304D02*
X161456389Y-125239304D01*
X161456389Y-125239304D02*
X161265913Y-125191685D01*
X161265913Y-125191685D02*
X161170675Y-125144066D01*
X161170675Y-125144066D02*
X161075437Y-125048828D01*
X161075437Y-125048828D02*
X161027818Y-124905971D01*
X161027818Y-124905971D02*
X161027818Y-124810733D01*
X161027818Y-124810733D02*
X161075437Y-124667876D01*
X161075437Y-124667876D02*
X161123056Y-124620257D01*
X162027818Y-123667876D02*
X162027818Y-124239304D01*
X162027818Y-123953590D02*
X161027818Y-123953590D01*
X161027818Y-123953590D02*
X161170675Y-124048828D01*
X161170675Y-124048828D02*
X161265913Y-124144066D01*
X161265913Y-124144066D02*
X161313532Y-124239304D01*
X161027818Y-122810733D02*
X161027818Y-123001209D01*
X161027818Y-123001209D02*
X161075437Y-123096447D01*
X161075437Y-123096447D02*
X161123056Y-123144066D01*
X161123056Y-123144066D02*
X161265913Y-123239304D01*
X161265913Y-123239304D02*
X161456389Y-123286923D01*
X161456389Y-123286923D02*
X161837341Y-123286923D01*
X161837341Y-123286923D02*
X161932579Y-123239304D01*
X161932579Y-123239304D02*
X161980199Y-123191685D01*
X161980199Y-123191685D02*
X162027818Y-123096447D01*
X162027818Y-123096447D02*
X162027818Y-122905971D01*
X162027818Y-122905971D02*
X161980199Y-122810733D01*
X161980199Y-122810733D02*
X161932579Y-122763114D01*
X161932579Y-122763114D02*
X161837341Y-122715495D01*
X161837341Y-122715495D02*
X161599246Y-122715495D01*
X161599246Y-122715495D02*
X161504008Y-122763114D01*
X161504008Y-122763114D02*
X161456389Y-122810733D01*
X161456389Y-122810733D02*
X161408770Y-122905971D01*
X161408770Y-122905971D02*
X161408770Y-123096447D01*
X161408770Y-123096447D02*
X161456389Y-123191685D01*
X161456389Y-123191685D02*
X161504008Y-123239304D01*
X161504008Y-123239304D02*
X161599246Y-123286923D01*
D11*
X159564895Y-136714285D02*
X159183942Y-136980952D01*
X159564895Y-137171428D02*
X158764895Y-137171428D01*
X158764895Y-137171428D02*
X158764895Y-136866666D01*
X158764895Y-136866666D02*
X158802990Y-136790476D01*
X158802990Y-136790476D02*
X158841085Y-136752381D01*
X158841085Y-136752381D02*
X158917276Y-136714285D01*
X158917276Y-136714285D02*
X159031561Y-136714285D01*
X159031561Y-136714285D02*
X159107752Y-136752381D01*
X159107752Y-136752381D02*
X159145847Y-136790476D01*
X159145847Y-136790476D02*
X159183942Y-136866666D01*
X159183942Y-136866666D02*
X159183942Y-137171428D01*
X159564895Y-135952381D02*
X159564895Y-136409524D01*
X159564895Y-136180952D02*
X158764895Y-136180952D01*
X158764895Y-136180952D02*
X158879180Y-136257143D01*
X158879180Y-136257143D02*
X158955371Y-136333333D01*
X158955371Y-136333333D02*
X158993466Y-136409524D01*
X158764895Y-135266666D02*
X158764895Y-135419047D01*
X158764895Y-135419047D02*
X158802990Y-135495238D01*
X158802990Y-135495238D02*
X158841085Y-135533333D01*
X158841085Y-135533333D02*
X158955371Y-135609523D01*
X158955371Y-135609523D02*
X159107752Y-135647619D01*
X159107752Y-135647619D02*
X159412514Y-135647619D01*
X159412514Y-135647619D02*
X159488704Y-135609523D01*
X159488704Y-135609523D02*
X159526800Y-135571428D01*
X159526800Y-135571428D02*
X159564895Y-135495238D01*
X159564895Y-135495238D02*
X159564895Y-135342857D01*
X159564895Y-135342857D02*
X159526800Y-135266666D01*
X159526800Y-135266666D02*
X159488704Y-135228571D01*
X159488704Y-135228571D02*
X159412514Y-135190476D01*
X159412514Y-135190476D02*
X159222038Y-135190476D01*
X159222038Y-135190476D02*
X159145847Y-135228571D01*
X159145847Y-135228571D02*
X159107752Y-135266666D01*
X159107752Y-135266666D02*
X159069657Y-135342857D01*
X159069657Y-135342857D02*
X159069657Y-135495238D01*
X159069657Y-135495238D02*
X159107752Y-135571428D01*
X159107752Y-135571428D02*
X159145847Y-135609523D01*
X159145847Y-135609523D02*
X159222038Y-135647619D01*
X141239895Y-131267857D02*
X140858942Y-131534524D01*
X141239895Y-131725000D02*
X140439895Y-131725000D01*
X140439895Y-131725000D02*
X140439895Y-131420238D01*
X140439895Y-131420238D02*
X140477990Y-131344048D01*
X140477990Y-131344048D02*
X140516085Y-131305953D01*
X140516085Y-131305953D02*
X140592276Y-131267857D01*
X140592276Y-131267857D02*
X140706561Y-131267857D01*
X140706561Y-131267857D02*
X140782752Y-131305953D01*
X140782752Y-131305953D02*
X140820847Y-131344048D01*
X140820847Y-131344048D02*
X140858942Y-131420238D01*
X140858942Y-131420238D02*
X140858942Y-131725000D01*
X141316085Y-131115477D02*
X141316085Y-130505953D01*
X141201800Y-130353572D02*
X141239895Y-130239286D01*
X141239895Y-130239286D02*
X141239895Y-130048810D01*
X141239895Y-130048810D02*
X141201800Y-129972619D01*
X141201800Y-129972619D02*
X141163704Y-129934524D01*
X141163704Y-129934524D02*
X141087514Y-129896429D01*
X141087514Y-129896429D02*
X141011323Y-129896429D01*
X141011323Y-129896429D02*
X140935133Y-129934524D01*
X140935133Y-129934524D02*
X140897038Y-129972619D01*
X140897038Y-129972619D02*
X140858942Y-130048810D01*
X140858942Y-130048810D02*
X140820847Y-130201191D01*
X140820847Y-130201191D02*
X140782752Y-130277381D01*
X140782752Y-130277381D02*
X140744657Y-130315476D01*
X140744657Y-130315476D02*
X140668466Y-130353572D01*
X140668466Y-130353572D02*
X140592276Y-130353572D01*
X140592276Y-130353572D02*
X140516085Y-130315476D01*
X140516085Y-130315476D02*
X140477990Y-130277381D01*
X140477990Y-130277381D02*
X140439895Y-130201191D01*
X140439895Y-130201191D02*
X140439895Y-130010714D01*
X140439895Y-130010714D02*
X140477990Y-129896429D01*
X140820847Y-129553571D02*
X140820847Y-129286905D01*
X141239895Y-129172619D02*
X141239895Y-129553571D01*
X141239895Y-129553571D02*
X140439895Y-129553571D01*
X140439895Y-129553571D02*
X140439895Y-129172619D01*
X141239895Y-128829761D02*
X140439895Y-128829761D01*
X140439895Y-128829761D02*
X141239895Y-128372618D01*
X141239895Y-128372618D02*
X140439895Y-128372618D01*
X141201800Y-128029762D02*
X141239895Y-127915476D01*
X141239895Y-127915476D02*
X141239895Y-127725000D01*
X141239895Y-127725000D02*
X141201800Y-127648809D01*
X141201800Y-127648809D02*
X141163704Y-127610714D01*
X141163704Y-127610714D02*
X141087514Y-127572619D01*
X141087514Y-127572619D02*
X141011323Y-127572619D01*
X141011323Y-127572619D02*
X140935133Y-127610714D01*
X140935133Y-127610714D02*
X140897038Y-127648809D01*
X140897038Y-127648809D02*
X140858942Y-127725000D01*
X140858942Y-127725000D02*
X140820847Y-127877381D01*
X140820847Y-127877381D02*
X140782752Y-127953571D01*
X140782752Y-127953571D02*
X140744657Y-127991666D01*
X140744657Y-127991666D02*
X140668466Y-128029762D01*
X140668466Y-128029762D02*
X140592276Y-128029762D01*
X140592276Y-128029762D02*
X140516085Y-127991666D01*
X140516085Y-127991666D02*
X140477990Y-127953571D01*
X140477990Y-127953571D02*
X140439895Y-127877381D01*
X140439895Y-127877381D02*
X140439895Y-127686904D01*
X140439895Y-127686904D02*
X140477990Y-127572619D01*
X140820847Y-127229761D02*
X140820847Y-126963095D01*
X141239895Y-126848809D02*
X141239895Y-127229761D01*
X141239895Y-127229761D02*
X140439895Y-127229761D01*
X140439895Y-127229761D02*
X140439895Y-126848809D01*
X141239895Y-126086904D02*
X141239895Y-126544047D01*
X141239895Y-126315475D02*
X140439895Y-126315475D01*
X140439895Y-126315475D02*
X140554180Y-126391666D01*
X140554180Y-126391666D02*
X140630371Y-126467856D01*
X140630371Y-126467856D02*
X140668466Y-126544047D01*
X152466667Y-140564895D02*
X152200000Y-140183942D01*
X152009524Y-140564895D02*
X152009524Y-139764895D01*
X152009524Y-139764895D02*
X152314286Y-139764895D01*
X152314286Y-139764895D02*
X152390476Y-139802990D01*
X152390476Y-139802990D02*
X152428571Y-139841085D01*
X152428571Y-139841085D02*
X152466667Y-139917276D01*
X152466667Y-139917276D02*
X152466667Y-140031561D01*
X152466667Y-140031561D02*
X152428571Y-140107752D01*
X152428571Y-140107752D02*
X152390476Y-140145847D01*
X152390476Y-140145847D02*
X152314286Y-140183942D01*
X152314286Y-140183942D02*
X152009524Y-140183942D01*
X152923809Y-140107752D02*
X152847619Y-140069657D01*
X152847619Y-140069657D02*
X152809524Y-140031561D01*
X152809524Y-140031561D02*
X152771428Y-139955371D01*
X152771428Y-139955371D02*
X152771428Y-139917276D01*
X152771428Y-139917276D02*
X152809524Y-139841085D01*
X152809524Y-139841085D02*
X152847619Y-139802990D01*
X152847619Y-139802990D02*
X152923809Y-139764895D01*
X152923809Y-139764895D02*
X153076190Y-139764895D01*
X153076190Y-139764895D02*
X153152381Y-139802990D01*
X153152381Y-139802990D02*
X153190476Y-139841085D01*
X153190476Y-139841085D02*
X153228571Y-139917276D01*
X153228571Y-139917276D02*
X153228571Y-139955371D01*
X153228571Y-139955371D02*
X153190476Y-140031561D01*
X153190476Y-140031561D02*
X153152381Y-140069657D01*
X153152381Y-140069657D02*
X153076190Y-140107752D01*
X153076190Y-140107752D02*
X152923809Y-140107752D01*
X152923809Y-140107752D02*
X152847619Y-140145847D01*
X152847619Y-140145847D02*
X152809524Y-140183942D01*
X152809524Y-140183942D02*
X152771428Y-140260133D01*
X152771428Y-140260133D02*
X152771428Y-140412514D01*
X152771428Y-140412514D02*
X152809524Y-140488704D01*
X152809524Y-140488704D02*
X152847619Y-140526800D01*
X152847619Y-140526800D02*
X152923809Y-140564895D01*
X152923809Y-140564895D02*
X153076190Y-140564895D01*
X153076190Y-140564895D02*
X153152381Y-140526800D01*
X153152381Y-140526800D02*
X153190476Y-140488704D01*
X153190476Y-140488704D02*
X153228571Y-140412514D01*
X153228571Y-140412514D02*
X153228571Y-140260133D01*
X153228571Y-140260133D02*
X153190476Y-140183942D01*
X153190476Y-140183942D02*
X153152381Y-140145847D01*
X153152381Y-140145847D02*
X153076190Y-140107752D01*
D12*
X139757161Y-114875457D02*
X139661923Y-114827838D01*
X139661923Y-114827838D02*
X139566685Y-114732600D01*
X139566685Y-114732600D02*
X139423828Y-114589742D01*
X139423828Y-114589742D02*
X139328590Y-114542123D01*
X139328590Y-114542123D02*
X139233352Y-114542123D01*
X139280971Y-114780219D02*
X139185733Y-114732600D01*
X139185733Y-114732600D02*
X139090495Y-114637361D01*
X139090495Y-114637361D02*
X139042876Y-114446885D01*
X139042876Y-114446885D02*
X139042876Y-114113552D01*
X139042876Y-114113552D02*
X139090495Y-113923076D01*
X139090495Y-113923076D02*
X139185733Y-113827838D01*
X139185733Y-113827838D02*
X139280971Y-113780219D01*
X139280971Y-113780219D02*
X139471447Y-113780219D01*
X139471447Y-113780219D02*
X139566685Y-113827838D01*
X139566685Y-113827838D02*
X139661923Y-113923076D01*
X139661923Y-113923076D02*
X139709542Y-114113552D01*
X139709542Y-114113552D02*
X139709542Y-114446885D01*
X139709542Y-114446885D02*
X139661923Y-114637361D01*
X139661923Y-114637361D02*
X139566685Y-114732600D01*
X139566685Y-114732600D02*
X139471447Y-114780219D01*
X139471447Y-114780219D02*
X139280971Y-114780219D01*
X140042876Y-113780219D02*
X140661923Y-113780219D01*
X140661923Y-113780219D02*
X140328590Y-114161171D01*
X140328590Y-114161171D02*
X140471447Y-114161171D01*
X140471447Y-114161171D02*
X140566685Y-114208790D01*
X140566685Y-114208790D02*
X140614304Y-114256409D01*
X140614304Y-114256409D02*
X140661923Y-114351647D01*
X140661923Y-114351647D02*
X140661923Y-114589742D01*
X140661923Y-114589742D02*
X140614304Y-114684980D01*
X140614304Y-114684980D02*
X140566685Y-114732600D01*
X140566685Y-114732600D02*
X140471447Y-114780219D01*
X140471447Y-114780219D02*
X140185733Y-114780219D01*
X140185733Y-114780219D02*
X140090495Y-114732600D01*
X140090495Y-114732600D02*
X140042876Y-114684980D01*
D11*
X158789895Y-141908332D02*
X158408942Y-142174999D01*
X158789895Y-142365475D02*
X157989895Y-142365475D01*
X157989895Y-142365475D02*
X157989895Y-142060713D01*
X157989895Y-142060713D02*
X158027990Y-141984523D01*
X158027990Y-141984523D02*
X158066085Y-141946428D01*
X158066085Y-141946428D02*
X158142276Y-141908332D01*
X158142276Y-141908332D02*
X158256561Y-141908332D01*
X158256561Y-141908332D02*
X158332752Y-141946428D01*
X158332752Y-141946428D02*
X158370847Y-141984523D01*
X158370847Y-141984523D02*
X158408942Y-142060713D01*
X158408942Y-142060713D02*
X158408942Y-142365475D01*
X158789895Y-141527380D02*
X158789895Y-141374999D01*
X158789895Y-141374999D02*
X158751800Y-141298809D01*
X158751800Y-141298809D02*
X158713704Y-141260713D01*
X158713704Y-141260713D02*
X158599419Y-141184523D01*
X158599419Y-141184523D02*
X158447038Y-141146428D01*
X158447038Y-141146428D02*
X158142276Y-141146428D01*
X158142276Y-141146428D02*
X158066085Y-141184523D01*
X158066085Y-141184523D02*
X158027990Y-141222618D01*
X158027990Y-141222618D02*
X157989895Y-141298809D01*
X157989895Y-141298809D02*
X157989895Y-141451190D01*
X157989895Y-141451190D02*
X158027990Y-141527380D01*
X158027990Y-141527380D02*
X158066085Y-141565475D01*
X158066085Y-141565475D02*
X158142276Y-141603571D01*
X158142276Y-141603571D02*
X158332752Y-141603571D01*
X158332752Y-141603571D02*
X158408942Y-141565475D01*
X158408942Y-141565475D02*
X158447038Y-141527380D01*
X158447038Y-141527380D02*
X158485133Y-141451190D01*
X158485133Y-141451190D02*
X158485133Y-141298809D01*
X158485133Y-141298809D02*
X158447038Y-141222618D01*
X158447038Y-141222618D02*
X158408942Y-141184523D01*
X158408942Y-141184523D02*
X158332752Y-141146428D01*
X157264895Y-141933332D02*
X156883942Y-142199999D01*
X157264895Y-142390475D02*
X156464895Y-142390475D01*
X156464895Y-142390475D02*
X156464895Y-142085713D01*
X156464895Y-142085713D02*
X156502990Y-142009523D01*
X156502990Y-142009523D02*
X156541085Y-141971428D01*
X156541085Y-141971428D02*
X156617276Y-141933332D01*
X156617276Y-141933332D02*
X156731561Y-141933332D01*
X156731561Y-141933332D02*
X156807752Y-141971428D01*
X156807752Y-141971428D02*
X156845847Y-142009523D01*
X156845847Y-142009523D02*
X156883942Y-142085713D01*
X156883942Y-142085713D02*
X156883942Y-142390475D01*
X156464895Y-141666666D02*
X156464895Y-141171428D01*
X156464895Y-141171428D02*
X156769657Y-141438094D01*
X156769657Y-141438094D02*
X156769657Y-141323809D01*
X156769657Y-141323809D02*
X156807752Y-141247618D01*
X156807752Y-141247618D02*
X156845847Y-141209523D01*
X156845847Y-141209523D02*
X156922038Y-141171428D01*
X156922038Y-141171428D02*
X157112514Y-141171428D01*
X157112514Y-141171428D02*
X157188704Y-141209523D01*
X157188704Y-141209523D02*
X157226800Y-141247618D01*
X157226800Y-141247618D02*
X157264895Y-141323809D01*
X157264895Y-141323809D02*
X157264895Y-141552380D01*
X157264895Y-141552380D02*
X157226800Y-141628571D01*
X157226800Y-141628571D02*
X157188704Y-141666666D01*
X135633333Y-138664895D02*
X135633333Y-139236323D01*
X135633333Y-139236323D02*
X135595238Y-139350609D01*
X135595238Y-139350609D02*
X135519047Y-139426800D01*
X135519047Y-139426800D02*
X135404762Y-139464895D01*
X135404762Y-139464895D02*
X135328571Y-139464895D01*
X135938095Y-138664895D02*
X136433333Y-138664895D01*
X136433333Y-138664895D02*
X136166667Y-138969657D01*
X136166667Y-138969657D02*
X136280952Y-138969657D01*
X136280952Y-138969657D02*
X136357143Y-139007752D01*
X136357143Y-139007752D02*
X136395238Y-139045847D01*
X136395238Y-139045847D02*
X136433333Y-139122038D01*
X136433333Y-139122038D02*
X136433333Y-139312514D01*
X136433333Y-139312514D02*
X136395238Y-139388704D01*
X136395238Y-139388704D02*
X136357143Y-139426800D01*
X136357143Y-139426800D02*
X136280952Y-139464895D01*
X136280952Y-139464895D02*
X136052381Y-139464895D01*
X136052381Y-139464895D02*
X135976190Y-139426800D01*
X135976190Y-139426800D02*
X135938095Y-139388704D01*
D12*
X136378571Y-135964700D02*
X137521429Y-135964700D01*
X136950000Y-136536128D02*
X136950000Y-135393271D01*
X125378571Y-135964700D02*
X126521429Y-135964700D01*
D11*
X124563704Y-127658332D02*
X124601800Y-127696428D01*
X124601800Y-127696428D02*
X124639895Y-127810713D01*
X124639895Y-127810713D02*
X124639895Y-127886904D01*
X124639895Y-127886904D02*
X124601800Y-128001190D01*
X124601800Y-128001190D02*
X124525609Y-128077380D01*
X124525609Y-128077380D02*
X124449419Y-128115475D01*
X124449419Y-128115475D02*
X124297038Y-128153571D01*
X124297038Y-128153571D02*
X124182752Y-128153571D01*
X124182752Y-128153571D02*
X124030371Y-128115475D01*
X124030371Y-128115475D02*
X123954180Y-128077380D01*
X123954180Y-128077380D02*
X123877990Y-128001190D01*
X123877990Y-128001190D02*
X123839895Y-127886904D01*
X123839895Y-127886904D02*
X123839895Y-127810713D01*
X123839895Y-127810713D02*
X123877990Y-127696428D01*
X123877990Y-127696428D02*
X123916085Y-127658332D01*
X123839895Y-126972618D02*
X123839895Y-127124999D01*
X123839895Y-127124999D02*
X123877990Y-127201190D01*
X123877990Y-127201190D02*
X123916085Y-127239285D01*
X123916085Y-127239285D02*
X124030371Y-127315475D01*
X124030371Y-127315475D02*
X124182752Y-127353571D01*
X124182752Y-127353571D02*
X124487514Y-127353571D01*
X124487514Y-127353571D02*
X124563704Y-127315475D01*
X124563704Y-127315475D02*
X124601800Y-127277380D01*
X124601800Y-127277380D02*
X124639895Y-127201190D01*
X124639895Y-127201190D02*
X124639895Y-127048809D01*
X124639895Y-127048809D02*
X124601800Y-126972618D01*
X124601800Y-126972618D02*
X124563704Y-126934523D01*
X124563704Y-126934523D02*
X124487514Y-126896428D01*
X124487514Y-126896428D02*
X124297038Y-126896428D01*
X124297038Y-126896428D02*
X124220847Y-126934523D01*
X124220847Y-126934523D02*
X124182752Y-126972618D01*
X124182752Y-126972618D02*
X124144657Y-127048809D01*
X124144657Y-127048809D02*
X124144657Y-127201190D01*
X124144657Y-127201190D02*
X124182752Y-127277380D01*
X124182752Y-127277380D02*
X124220847Y-127315475D01*
X124220847Y-127315475D02*
X124297038Y-127353571D01*
X131771428Y-126722532D02*
X131728571Y-126765390D01*
X131728571Y-126765390D02*
X131599999Y-126808247D01*
X131599999Y-126808247D02*
X131514285Y-126808247D01*
X131514285Y-126808247D02*
X131385714Y-126765390D01*
X131385714Y-126765390D02*
X131299999Y-126679675D01*
X131299999Y-126679675D02*
X131257142Y-126593961D01*
X131257142Y-126593961D02*
X131214285Y-126422532D01*
X131214285Y-126422532D02*
X131214285Y-126293961D01*
X131214285Y-126293961D02*
X131257142Y-126122532D01*
X131257142Y-126122532D02*
X131299999Y-126036818D01*
X131299999Y-126036818D02*
X131385714Y-125951104D01*
X131385714Y-125951104D02*
X131514285Y-125908247D01*
X131514285Y-125908247D02*
X131599999Y-125908247D01*
X131599999Y-125908247D02*
X131728571Y-125951104D01*
X131728571Y-125951104D02*
X131771428Y-125993961D01*
X132628571Y-126808247D02*
X132114285Y-126808247D01*
X132371428Y-126808247D02*
X132371428Y-125908247D01*
X132371428Y-125908247D02*
X132285714Y-126036818D01*
X132285714Y-126036818D02*
X132199999Y-126122532D01*
X132199999Y-126122532D02*
X132114285Y-126165390D01*
X133142857Y-126293961D02*
X133057142Y-126251104D01*
X133057142Y-126251104D02*
X133014285Y-126208247D01*
X133014285Y-126208247D02*
X132971428Y-126122532D01*
X132971428Y-126122532D02*
X132971428Y-126079675D01*
X132971428Y-126079675D02*
X133014285Y-125993961D01*
X133014285Y-125993961D02*
X133057142Y-125951104D01*
X133057142Y-125951104D02*
X133142857Y-125908247D01*
X133142857Y-125908247D02*
X133314285Y-125908247D01*
X133314285Y-125908247D02*
X133400000Y-125951104D01*
X133400000Y-125951104D02*
X133442857Y-125993961D01*
X133442857Y-125993961D02*
X133485714Y-126079675D01*
X133485714Y-126079675D02*
X133485714Y-126122532D01*
X133485714Y-126122532D02*
X133442857Y-126208247D01*
X133442857Y-126208247D02*
X133400000Y-126251104D01*
X133400000Y-126251104D02*
X133314285Y-126293961D01*
X133314285Y-126293961D02*
X133142857Y-126293961D01*
X133142857Y-126293961D02*
X133057142Y-126336818D01*
X133057142Y-126336818D02*
X133014285Y-126379675D01*
X133014285Y-126379675D02*
X132971428Y-126465390D01*
X132971428Y-126465390D02*
X132971428Y-126636818D01*
X132971428Y-126636818D02*
X133014285Y-126722532D01*
X133014285Y-126722532D02*
X133057142Y-126765390D01*
X133057142Y-126765390D02*
X133142857Y-126808247D01*
X133142857Y-126808247D02*
X133314285Y-126808247D01*
X133314285Y-126808247D02*
X133400000Y-126765390D01*
X133400000Y-126765390D02*
X133442857Y-126722532D01*
X133442857Y-126722532D02*
X133485714Y-126636818D01*
X133485714Y-126636818D02*
X133485714Y-126465390D01*
X133485714Y-126465390D02*
X133442857Y-126379675D01*
X133442857Y-126379675D02*
X133400000Y-126336818D01*
X133400000Y-126336818D02*
X133314285Y-126293961D01*
X127920238Y-126532223D02*
X128529762Y-126532223D01*
X128225000Y-126836985D02*
X128225000Y-126227461D01*
X130910714Y-125739895D02*
X130644047Y-125358942D01*
X130453571Y-125739895D02*
X130453571Y-124939895D01*
X130453571Y-124939895D02*
X130758333Y-124939895D01*
X130758333Y-124939895D02*
X130834523Y-124977990D01*
X130834523Y-124977990D02*
X130872618Y-125016085D01*
X130872618Y-125016085D02*
X130910714Y-125092276D01*
X130910714Y-125092276D02*
X130910714Y-125206561D01*
X130910714Y-125206561D02*
X130872618Y-125282752D01*
X130872618Y-125282752D02*
X130834523Y-125320847D01*
X130834523Y-125320847D02*
X130758333Y-125358942D01*
X130758333Y-125358942D02*
X130453571Y-125358942D01*
X131215475Y-125016085D02*
X131253571Y-124977990D01*
X131253571Y-124977990D02*
X131329761Y-124939895D01*
X131329761Y-124939895D02*
X131520237Y-124939895D01*
X131520237Y-124939895D02*
X131596428Y-124977990D01*
X131596428Y-124977990D02*
X131634523Y-125016085D01*
X131634523Y-125016085D02*
X131672618Y-125092276D01*
X131672618Y-125092276D02*
X131672618Y-125168466D01*
X131672618Y-125168466D02*
X131634523Y-125282752D01*
X131634523Y-125282752D02*
X131177380Y-125739895D01*
X131177380Y-125739895D02*
X131672618Y-125739895D01*
X131977380Y-125016085D02*
X132015476Y-124977990D01*
X132015476Y-124977990D02*
X132091666Y-124939895D01*
X132091666Y-124939895D02*
X132282142Y-124939895D01*
X132282142Y-124939895D02*
X132358333Y-124977990D01*
X132358333Y-124977990D02*
X132396428Y-125016085D01*
X132396428Y-125016085D02*
X132434523Y-125092276D01*
X132434523Y-125092276D02*
X132434523Y-125168466D01*
X132434523Y-125168466D02*
X132396428Y-125282752D01*
X132396428Y-125282752D02*
X131939285Y-125739895D01*
X131939285Y-125739895D02*
X132434523Y-125739895D01*
X151816667Y-138888704D02*
X151778571Y-138926800D01*
X151778571Y-138926800D02*
X151664286Y-138964895D01*
X151664286Y-138964895D02*
X151588095Y-138964895D01*
X151588095Y-138964895D02*
X151473809Y-138926800D01*
X151473809Y-138926800D02*
X151397619Y-138850609D01*
X151397619Y-138850609D02*
X151359524Y-138774419D01*
X151359524Y-138774419D02*
X151321428Y-138622038D01*
X151321428Y-138622038D02*
X151321428Y-138507752D01*
X151321428Y-138507752D02*
X151359524Y-138355371D01*
X151359524Y-138355371D02*
X151397619Y-138279180D01*
X151397619Y-138279180D02*
X151473809Y-138202990D01*
X151473809Y-138202990D02*
X151588095Y-138164895D01*
X151588095Y-138164895D02*
X151664286Y-138164895D01*
X151664286Y-138164895D02*
X151778571Y-138202990D01*
X151778571Y-138202990D02*
X151816667Y-138241085D01*
X152197619Y-138964895D02*
X152350000Y-138964895D01*
X152350000Y-138964895D02*
X152426190Y-138926800D01*
X152426190Y-138926800D02*
X152464286Y-138888704D01*
X152464286Y-138888704D02*
X152540476Y-138774419D01*
X152540476Y-138774419D02*
X152578571Y-138622038D01*
X152578571Y-138622038D02*
X152578571Y-138317276D01*
X152578571Y-138317276D02*
X152540476Y-138241085D01*
X152540476Y-138241085D02*
X152502381Y-138202990D01*
X152502381Y-138202990D02*
X152426190Y-138164895D01*
X152426190Y-138164895D02*
X152273809Y-138164895D01*
X152273809Y-138164895D02*
X152197619Y-138202990D01*
X152197619Y-138202990D02*
X152159524Y-138241085D01*
X152159524Y-138241085D02*
X152121428Y-138317276D01*
X152121428Y-138317276D02*
X152121428Y-138507752D01*
X152121428Y-138507752D02*
X152159524Y-138583942D01*
X152159524Y-138583942D02*
X152197619Y-138622038D01*
X152197619Y-138622038D02*
X152273809Y-138660133D01*
X152273809Y-138660133D02*
X152426190Y-138660133D01*
X152426190Y-138660133D02*
X152502381Y-138622038D01*
X152502381Y-138622038D02*
X152540476Y-138583942D01*
X152540476Y-138583942D02*
X152578571Y-138507752D01*
X141160714Y-122614895D02*
X140894047Y-122233942D01*
X140703571Y-122614895D02*
X140703571Y-121814895D01*
X140703571Y-121814895D02*
X141008333Y-121814895D01*
X141008333Y-121814895D02*
X141084523Y-121852990D01*
X141084523Y-121852990D02*
X141122618Y-121891085D01*
X141122618Y-121891085D02*
X141160714Y-121967276D01*
X141160714Y-121967276D02*
X141160714Y-122081561D01*
X141160714Y-122081561D02*
X141122618Y-122157752D01*
X141122618Y-122157752D02*
X141084523Y-122195847D01*
X141084523Y-122195847D02*
X141008333Y-122233942D01*
X141008333Y-122233942D02*
X140703571Y-122233942D01*
X141922618Y-122614895D02*
X141465475Y-122614895D01*
X141694047Y-122614895D02*
X141694047Y-121814895D01*
X141694047Y-121814895D02*
X141617856Y-121929180D01*
X141617856Y-121929180D02*
X141541666Y-122005371D01*
X141541666Y-122005371D02*
X141465475Y-122043466D01*
X142303571Y-122614895D02*
X142455952Y-122614895D01*
X142455952Y-122614895D02*
X142532142Y-122576800D01*
X142532142Y-122576800D02*
X142570238Y-122538704D01*
X142570238Y-122538704D02*
X142646428Y-122424419D01*
X142646428Y-122424419D02*
X142684523Y-122272038D01*
X142684523Y-122272038D02*
X142684523Y-121967276D01*
X142684523Y-121967276D02*
X142646428Y-121891085D01*
X142646428Y-121891085D02*
X142608333Y-121852990D01*
X142608333Y-121852990D02*
X142532142Y-121814895D01*
X142532142Y-121814895D02*
X142379761Y-121814895D01*
X142379761Y-121814895D02*
X142303571Y-121852990D01*
X142303571Y-121852990D02*
X142265476Y-121891085D01*
X142265476Y-121891085D02*
X142227380Y-121967276D01*
X142227380Y-121967276D02*
X142227380Y-122157752D01*
X142227380Y-122157752D02*
X142265476Y-122233942D01*
X142265476Y-122233942D02*
X142303571Y-122272038D01*
X142303571Y-122272038D02*
X142379761Y-122310133D01*
X142379761Y-122310133D02*
X142532142Y-122310133D01*
X142532142Y-122310133D02*
X142608333Y-122272038D01*
X142608333Y-122272038D02*
X142646428Y-122233942D01*
X142646428Y-122233942D02*
X142684523Y-122157752D01*
X161164895Y-136714285D02*
X160783942Y-136980952D01*
X161164895Y-137171428D02*
X160364895Y-137171428D01*
X160364895Y-137171428D02*
X160364895Y-136866666D01*
X160364895Y-136866666D02*
X160402990Y-136790476D01*
X160402990Y-136790476D02*
X160441085Y-136752381D01*
X160441085Y-136752381D02*
X160517276Y-136714285D01*
X160517276Y-136714285D02*
X160631561Y-136714285D01*
X160631561Y-136714285D02*
X160707752Y-136752381D01*
X160707752Y-136752381D02*
X160745847Y-136790476D01*
X160745847Y-136790476D02*
X160783942Y-136866666D01*
X160783942Y-136866666D02*
X160783942Y-137171428D01*
X161164895Y-135952381D02*
X161164895Y-136409524D01*
X161164895Y-136180952D02*
X160364895Y-136180952D01*
X160364895Y-136180952D02*
X160479180Y-136257143D01*
X160479180Y-136257143D02*
X160555371Y-136333333D01*
X160555371Y-136333333D02*
X160593466Y-136409524D01*
X160364895Y-135685714D02*
X160364895Y-135152380D01*
X160364895Y-135152380D02*
X161164895Y-135495238D01*
X125385714Y-124689895D02*
X125119047Y-124308942D01*
X124928571Y-124689895D02*
X124928571Y-123889895D01*
X124928571Y-123889895D02*
X125233333Y-123889895D01*
X125233333Y-123889895D02*
X125309523Y-123927990D01*
X125309523Y-123927990D02*
X125347618Y-123966085D01*
X125347618Y-123966085D02*
X125385714Y-124042276D01*
X125385714Y-124042276D02*
X125385714Y-124156561D01*
X125385714Y-124156561D02*
X125347618Y-124232752D01*
X125347618Y-124232752D02*
X125309523Y-124270847D01*
X125309523Y-124270847D02*
X125233333Y-124308942D01*
X125233333Y-124308942D02*
X124928571Y-124308942D01*
X126147618Y-124689895D02*
X125690475Y-124689895D01*
X125919047Y-124689895D02*
X125919047Y-123889895D01*
X125919047Y-123889895D02*
X125842856Y-124004180D01*
X125842856Y-124004180D02*
X125766666Y-124080371D01*
X125766666Y-124080371D02*
X125690475Y-124118466D01*
X126833333Y-124156561D02*
X126833333Y-124689895D01*
X126642857Y-123851800D02*
X126452380Y-124423228D01*
X126452380Y-124423228D02*
X126947619Y-124423228D01*
X155998304Y-137191732D02*
X156036400Y-137229828D01*
X156036400Y-137229828D02*
X156074495Y-137344113D01*
X156074495Y-137344113D02*
X156074495Y-137420304D01*
X156074495Y-137420304D02*
X156036400Y-137534590D01*
X156036400Y-137534590D02*
X155960209Y-137610780D01*
X155960209Y-137610780D02*
X155884019Y-137648875D01*
X155884019Y-137648875D02*
X155731638Y-137686971D01*
X155731638Y-137686971D02*
X155617352Y-137686971D01*
X155617352Y-137686971D02*
X155464971Y-137648875D01*
X155464971Y-137648875D02*
X155388780Y-137610780D01*
X155388780Y-137610780D02*
X155312590Y-137534590D01*
X155312590Y-137534590D02*
X155274495Y-137420304D01*
X155274495Y-137420304D02*
X155274495Y-137344113D01*
X155274495Y-137344113D02*
X155312590Y-137229828D01*
X155312590Y-137229828D02*
X155350685Y-137191732D01*
X155274495Y-136925066D02*
X155274495Y-136391732D01*
X155274495Y-136391732D02*
X156074495Y-136734590D01*
D12*
X145991342Y-125708580D02*
X145943723Y-125756200D01*
X145943723Y-125756200D02*
X145800866Y-125803819D01*
X145800866Y-125803819D02*
X145705628Y-125803819D01*
X145705628Y-125803819D02*
X145562771Y-125756200D01*
X145562771Y-125756200D02*
X145467533Y-125660961D01*
X145467533Y-125660961D02*
X145419914Y-125565723D01*
X145419914Y-125565723D02*
X145372295Y-125375247D01*
X145372295Y-125375247D02*
X145372295Y-125232390D01*
X145372295Y-125232390D02*
X145419914Y-125041914D01*
X145419914Y-125041914D02*
X145467533Y-124946676D01*
X145467533Y-124946676D02*
X145562771Y-124851438D01*
X145562771Y-124851438D02*
X145705628Y-124803819D01*
X145705628Y-124803819D02*
X145800866Y-124803819D01*
X145800866Y-124803819D02*
X145943723Y-124851438D01*
X145943723Y-124851438D02*
X145991342Y-124899057D01*
X146943723Y-125803819D02*
X146372295Y-125803819D01*
X146658009Y-125803819D02*
X146658009Y-124803819D01*
X146658009Y-124803819D02*
X146562771Y-124946676D01*
X146562771Y-124946676D02*
X146467533Y-125041914D01*
X146467533Y-125041914D02*
X146372295Y-125089533D01*
X147800866Y-125137152D02*
X147800866Y-125803819D01*
X147562771Y-124756200D02*
X147324676Y-125470485D01*
X147324676Y-125470485D02*
X147943723Y-125470485D01*
D11*
X159851562Y-147890475D02*
X159051562Y-147890475D01*
X159051562Y-147890475D02*
X159051562Y-147699999D01*
X159051562Y-147699999D02*
X159089657Y-147585713D01*
X159089657Y-147585713D02*
X159165847Y-147509523D01*
X159165847Y-147509523D02*
X159242038Y-147471428D01*
X159242038Y-147471428D02*
X159394419Y-147433332D01*
X159394419Y-147433332D02*
X159508705Y-147433332D01*
X159508705Y-147433332D02*
X159661086Y-147471428D01*
X159661086Y-147471428D02*
X159737276Y-147509523D01*
X159737276Y-147509523D02*
X159813467Y-147585713D01*
X159813467Y-147585713D02*
X159851562Y-147699999D01*
X159851562Y-147699999D02*
X159851562Y-147890475D01*
X159318228Y-146747618D02*
X159851562Y-146747618D01*
X159013467Y-146938094D02*
X159584895Y-147128571D01*
X159584895Y-147128571D02*
X159584895Y-146633332D01*
X167188704Y-138558332D02*
X167226800Y-138596428D01*
X167226800Y-138596428D02*
X167264895Y-138710713D01*
X167264895Y-138710713D02*
X167264895Y-138786904D01*
X167264895Y-138786904D02*
X167226800Y-138901190D01*
X167226800Y-138901190D02*
X167150609Y-138977380D01*
X167150609Y-138977380D02*
X167074419Y-139015475D01*
X167074419Y-139015475D02*
X166922038Y-139053571D01*
X166922038Y-139053571D02*
X166807752Y-139053571D01*
X166807752Y-139053571D02*
X166655371Y-139015475D01*
X166655371Y-139015475D02*
X166579180Y-138977380D01*
X166579180Y-138977380D02*
X166502990Y-138901190D01*
X166502990Y-138901190D02*
X166464895Y-138786904D01*
X166464895Y-138786904D02*
X166464895Y-138710713D01*
X166464895Y-138710713D02*
X166502990Y-138596428D01*
X166502990Y-138596428D02*
X166541085Y-138558332D01*
X167264895Y-137796428D02*
X167264895Y-138253571D01*
X167264895Y-138024999D02*
X166464895Y-138024999D01*
X166464895Y-138024999D02*
X166579180Y-138101190D01*
X166579180Y-138101190D02*
X166655371Y-138177380D01*
X166655371Y-138177380D02*
X166693466Y-138253571D01*
X166339895Y-123089285D02*
X165958942Y-123355952D01*
X166339895Y-123546428D02*
X165539895Y-123546428D01*
X165539895Y-123546428D02*
X165539895Y-123241666D01*
X165539895Y-123241666D02*
X165577990Y-123165476D01*
X165577990Y-123165476D02*
X165616085Y-123127381D01*
X165616085Y-123127381D02*
X165692276Y-123089285D01*
X165692276Y-123089285D02*
X165806561Y-123089285D01*
X165806561Y-123089285D02*
X165882752Y-123127381D01*
X165882752Y-123127381D02*
X165920847Y-123165476D01*
X165920847Y-123165476D02*
X165958942Y-123241666D01*
X165958942Y-123241666D02*
X165958942Y-123546428D01*
X165616085Y-122784524D02*
X165577990Y-122746428D01*
X165577990Y-122746428D02*
X165539895Y-122670238D01*
X165539895Y-122670238D02*
X165539895Y-122479762D01*
X165539895Y-122479762D02*
X165577990Y-122403571D01*
X165577990Y-122403571D02*
X165616085Y-122365476D01*
X165616085Y-122365476D02*
X165692276Y-122327381D01*
X165692276Y-122327381D02*
X165768466Y-122327381D01*
X165768466Y-122327381D02*
X165882752Y-122365476D01*
X165882752Y-122365476D02*
X166339895Y-122822619D01*
X166339895Y-122822619D02*
X166339895Y-122327381D01*
X166339895Y-121565476D02*
X166339895Y-122022619D01*
X166339895Y-121794047D02*
X165539895Y-121794047D01*
X165539895Y-121794047D02*
X165654180Y-121870238D01*
X165654180Y-121870238D02*
X165730371Y-121946428D01*
X165730371Y-121946428D02*
X165768466Y-122022619D01*
X149421114Y-125084295D02*
X149154447Y-124703342D01*
X148963971Y-125084295D02*
X148963971Y-124284295D01*
X148963971Y-124284295D02*
X149268733Y-124284295D01*
X149268733Y-124284295D02*
X149344923Y-124322390D01*
X149344923Y-124322390D02*
X149383018Y-124360485D01*
X149383018Y-124360485D02*
X149421114Y-124436676D01*
X149421114Y-124436676D02*
X149421114Y-124550961D01*
X149421114Y-124550961D02*
X149383018Y-124627152D01*
X149383018Y-124627152D02*
X149344923Y-124665247D01*
X149344923Y-124665247D02*
X149268733Y-124703342D01*
X149268733Y-124703342D02*
X148963971Y-124703342D01*
X150183018Y-125084295D02*
X149725875Y-125084295D01*
X149954447Y-125084295D02*
X149954447Y-124284295D01*
X149954447Y-124284295D02*
X149878256Y-124398580D01*
X149878256Y-124398580D02*
X149802066Y-124474771D01*
X149802066Y-124474771D02*
X149725875Y-124512866D01*
X150640161Y-124627152D02*
X150563971Y-124589057D01*
X150563971Y-124589057D02*
X150525876Y-124550961D01*
X150525876Y-124550961D02*
X150487780Y-124474771D01*
X150487780Y-124474771D02*
X150487780Y-124436676D01*
X150487780Y-124436676D02*
X150525876Y-124360485D01*
X150525876Y-124360485D02*
X150563971Y-124322390D01*
X150563971Y-124322390D02*
X150640161Y-124284295D01*
X150640161Y-124284295D02*
X150792542Y-124284295D01*
X150792542Y-124284295D02*
X150868733Y-124322390D01*
X150868733Y-124322390D02*
X150906828Y-124360485D01*
X150906828Y-124360485D02*
X150944923Y-124436676D01*
X150944923Y-124436676D02*
X150944923Y-124474771D01*
X150944923Y-124474771D02*
X150906828Y-124550961D01*
X150906828Y-124550961D02*
X150868733Y-124589057D01*
X150868733Y-124589057D02*
X150792542Y-124627152D01*
X150792542Y-124627152D02*
X150640161Y-124627152D01*
X150640161Y-124627152D02*
X150563971Y-124665247D01*
X150563971Y-124665247D02*
X150525876Y-124703342D01*
X150525876Y-124703342D02*
X150487780Y-124779533D01*
X150487780Y-124779533D02*
X150487780Y-124931914D01*
X150487780Y-124931914D02*
X150525876Y-125008104D01*
X150525876Y-125008104D02*
X150563971Y-125046200D01*
X150563971Y-125046200D02*
X150640161Y-125084295D01*
X150640161Y-125084295D02*
X150792542Y-125084295D01*
X150792542Y-125084295D02*
X150868733Y-125046200D01*
X150868733Y-125046200D02*
X150906828Y-125008104D01*
X150906828Y-125008104D02*
X150944923Y-124931914D01*
X150944923Y-124931914D02*
X150944923Y-124779533D01*
X150944923Y-124779533D02*
X150906828Y-124703342D01*
X150906828Y-124703342D02*
X150868733Y-124665247D01*
X150868733Y-124665247D02*
X150792542Y-124627152D01*
X156860714Y-125089895D02*
X156594047Y-124708942D01*
X156403571Y-125089895D02*
X156403571Y-124289895D01*
X156403571Y-124289895D02*
X156708333Y-124289895D01*
X156708333Y-124289895D02*
X156784523Y-124327990D01*
X156784523Y-124327990D02*
X156822618Y-124366085D01*
X156822618Y-124366085D02*
X156860714Y-124442276D01*
X156860714Y-124442276D02*
X156860714Y-124556561D01*
X156860714Y-124556561D02*
X156822618Y-124632752D01*
X156822618Y-124632752D02*
X156784523Y-124670847D01*
X156784523Y-124670847D02*
X156708333Y-124708942D01*
X156708333Y-124708942D02*
X156403571Y-124708942D01*
X157622618Y-125089895D02*
X157165475Y-125089895D01*
X157394047Y-125089895D02*
X157394047Y-124289895D01*
X157394047Y-124289895D02*
X157317856Y-124404180D01*
X157317856Y-124404180D02*
X157241666Y-124480371D01*
X157241666Y-124480371D02*
X157165475Y-124518466D01*
X158117857Y-124289895D02*
X158194047Y-124289895D01*
X158194047Y-124289895D02*
X158270238Y-124327990D01*
X158270238Y-124327990D02*
X158308333Y-124366085D01*
X158308333Y-124366085D02*
X158346428Y-124442276D01*
X158346428Y-124442276D02*
X158384523Y-124594657D01*
X158384523Y-124594657D02*
X158384523Y-124785133D01*
X158384523Y-124785133D02*
X158346428Y-124937514D01*
X158346428Y-124937514D02*
X158308333Y-125013704D01*
X158308333Y-125013704D02*
X158270238Y-125051800D01*
X158270238Y-125051800D02*
X158194047Y-125089895D01*
X158194047Y-125089895D02*
X158117857Y-125089895D01*
X158117857Y-125089895D02*
X158041666Y-125051800D01*
X158041666Y-125051800D02*
X158003571Y-125013704D01*
X158003571Y-125013704D02*
X157965476Y-124937514D01*
X157965476Y-124937514D02*
X157927380Y-124785133D01*
X157927380Y-124785133D02*
X157927380Y-124594657D01*
X157927380Y-124594657D02*
X157965476Y-124442276D01*
X157965476Y-124442276D02*
X158003571Y-124366085D01*
X158003571Y-124366085D02*
X158041666Y-124327990D01*
X158041666Y-124327990D02*
X158117857Y-124289895D01*
D12*
X158042780Y-134812066D02*
X158090400Y-134859685D01*
X158090400Y-134859685D02*
X158138019Y-135002542D01*
X158138019Y-135002542D02*
X158138019Y-135097780D01*
X158138019Y-135097780D02*
X158090400Y-135240637D01*
X158090400Y-135240637D02*
X157995161Y-135335875D01*
X157995161Y-135335875D02*
X157899923Y-135383494D01*
X157899923Y-135383494D02*
X157709447Y-135431113D01*
X157709447Y-135431113D02*
X157566590Y-135431113D01*
X157566590Y-135431113D02*
X157376114Y-135383494D01*
X157376114Y-135383494D02*
X157280876Y-135335875D01*
X157280876Y-135335875D02*
X157185638Y-135240637D01*
X157185638Y-135240637D02*
X157138019Y-135097780D01*
X157138019Y-135097780D02*
X157138019Y-135002542D01*
X157138019Y-135002542D02*
X157185638Y-134859685D01*
X157185638Y-134859685D02*
X157233257Y-134812066D01*
X157138019Y-134478732D02*
X157138019Y-133859685D01*
X157138019Y-133859685D02*
X157518971Y-134193018D01*
X157518971Y-134193018D02*
X157518971Y-134050161D01*
X157518971Y-134050161D02*
X157566590Y-133954923D01*
X157566590Y-133954923D02*
X157614209Y-133907304D01*
X157614209Y-133907304D02*
X157709447Y-133859685D01*
X157709447Y-133859685D02*
X157947542Y-133859685D01*
X157947542Y-133859685D02*
X158042780Y-133907304D01*
X158042780Y-133907304D02*
X158090400Y-133954923D01*
X158090400Y-133954923D02*
X158138019Y-134050161D01*
X158138019Y-134050161D02*
X158138019Y-134335875D01*
X158138019Y-134335875D02*
X158090400Y-134431113D01*
X158090400Y-134431113D02*
X158042780Y-134478732D01*
X166550057Y-118420238D02*
X166502438Y-118515476D01*
X166502438Y-118515476D02*
X166407200Y-118610714D01*
X166407200Y-118610714D02*
X166264342Y-118753571D01*
X166264342Y-118753571D02*
X166216723Y-118848809D01*
X166216723Y-118848809D02*
X166216723Y-118944047D01*
X166454819Y-118896428D02*
X166407200Y-118991666D01*
X166407200Y-118991666D02*
X166311961Y-119086904D01*
X166311961Y-119086904D02*
X166121485Y-119134523D01*
X166121485Y-119134523D02*
X165788152Y-119134523D01*
X165788152Y-119134523D02*
X165597676Y-119086904D01*
X165597676Y-119086904D02*
X165502438Y-118991666D01*
X165502438Y-118991666D02*
X165454819Y-118896428D01*
X165454819Y-118896428D02*
X165454819Y-118705952D01*
X165454819Y-118705952D02*
X165502438Y-118610714D01*
X165502438Y-118610714D02*
X165597676Y-118515476D01*
X165597676Y-118515476D02*
X165788152Y-118467857D01*
X165788152Y-118467857D02*
X166121485Y-118467857D01*
X166121485Y-118467857D02*
X166311961Y-118515476D01*
X166311961Y-118515476D02*
X166407200Y-118610714D01*
X166407200Y-118610714D02*
X166454819Y-118705952D01*
X166454819Y-118705952D02*
X166454819Y-118896428D01*
X165550057Y-118086904D02*
X165502438Y-118039285D01*
X165502438Y-118039285D02*
X165454819Y-117944047D01*
X165454819Y-117944047D02*
X165454819Y-117705952D01*
X165454819Y-117705952D02*
X165502438Y-117610714D01*
X165502438Y-117610714D02*
X165550057Y-117563095D01*
X165550057Y-117563095D02*
X165645295Y-117515476D01*
X165645295Y-117515476D02*
X165740533Y-117515476D01*
X165740533Y-117515476D02*
X165883390Y-117563095D01*
X165883390Y-117563095D02*
X166454819Y-118134523D01*
X166454819Y-118134523D02*
X166454819Y-117515476D01*
X151796761Y-114723057D02*
X151701523Y-114675438D01*
X151701523Y-114675438D02*
X151606285Y-114580200D01*
X151606285Y-114580200D02*
X151463428Y-114437342D01*
X151463428Y-114437342D02*
X151368190Y-114389723D01*
X151368190Y-114389723D02*
X151272952Y-114389723D01*
X151320571Y-114627819D02*
X151225333Y-114580200D01*
X151225333Y-114580200D02*
X151130095Y-114484961D01*
X151130095Y-114484961D02*
X151082476Y-114294485D01*
X151082476Y-114294485D02*
X151082476Y-113961152D01*
X151082476Y-113961152D02*
X151130095Y-113770676D01*
X151130095Y-113770676D02*
X151225333Y-113675438D01*
X151225333Y-113675438D02*
X151320571Y-113627819D01*
X151320571Y-113627819D02*
X151511047Y-113627819D01*
X151511047Y-113627819D02*
X151606285Y-113675438D01*
X151606285Y-113675438D02*
X151701523Y-113770676D01*
X151701523Y-113770676D02*
X151749142Y-113961152D01*
X151749142Y-113961152D02*
X151749142Y-114294485D01*
X151749142Y-114294485D02*
X151701523Y-114484961D01*
X151701523Y-114484961D02*
X151606285Y-114580200D01*
X151606285Y-114580200D02*
X151511047Y-114627819D01*
X151511047Y-114627819D02*
X151320571Y-114627819D01*
X152606285Y-113961152D02*
X152606285Y-114627819D01*
X152368190Y-113580200D02*
X152130095Y-114294485D01*
X152130095Y-114294485D02*
X152749142Y-114294485D01*
D11*
X165164895Y-143533332D02*
X164783942Y-143799999D01*
X165164895Y-143990475D02*
X164364895Y-143990475D01*
X164364895Y-143990475D02*
X164364895Y-143685713D01*
X164364895Y-143685713D02*
X164402990Y-143609523D01*
X164402990Y-143609523D02*
X164441085Y-143571428D01*
X164441085Y-143571428D02*
X164517276Y-143533332D01*
X164517276Y-143533332D02*
X164631561Y-143533332D01*
X164631561Y-143533332D02*
X164707752Y-143571428D01*
X164707752Y-143571428D02*
X164745847Y-143609523D01*
X164745847Y-143609523D02*
X164783942Y-143685713D01*
X164783942Y-143685713D02*
X164783942Y-143990475D01*
X165164895Y-142771428D02*
X165164895Y-143228571D01*
X165164895Y-142999999D02*
X164364895Y-142999999D01*
X164364895Y-142999999D02*
X164479180Y-143076190D01*
X164479180Y-143076190D02*
X164555371Y-143152380D01*
X164555371Y-143152380D02*
X164593466Y-143228571D01*
X158764895Y-140884523D02*
X159412514Y-140884523D01*
X159412514Y-140884523D02*
X159488704Y-140846428D01*
X159488704Y-140846428D02*
X159526800Y-140808333D01*
X159526800Y-140808333D02*
X159564895Y-140732142D01*
X159564895Y-140732142D02*
X159564895Y-140579761D01*
X159564895Y-140579761D02*
X159526800Y-140503571D01*
X159526800Y-140503571D02*
X159488704Y-140465476D01*
X159488704Y-140465476D02*
X159412514Y-140427380D01*
X159412514Y-140427380D02*
X158764895Y-140427380D01*
X159564895Y-139627381D02*
X159564895Y-140084524D01*
X159564895Y-139855952D02*
X158764895Y-139855952D01*
X158764895Y-139855952D02*
X158879180Y-139932143D01*
X158879180Y-139932143D02*
X158955371Y-140008333D01*
X158955371Y-140008333D02*
X158993466Y-140084524D01*
X157189895Y-147690475D02*
X156389895Y-147690475D01*
X156389895Y-147690475D02*
X156389895Y-147499999D01*
X156389895Y-147499999D02*
X156427990Y-147385713D01*
X156427990Y-147385713D02*
X156504180Y-147309523D01*
X156504180Y-147309523D02*
X156580371Y-147271428D01*
X156580371Y-147271428D02*
X156732752Y-147233332D01*
X156732752Y-147233332D02*
X156847038Y-147233332D01*
X156847038Y-147233332D02*
X156999419Y-147271428D01*
X156999419Y-147271428D02*
X157075609Y-147309523D01*
X157075609Y-147309523D02*
X157151800Y-147385713D01*
X157151800Y-147385713D02*
X157189895Y-147499999D01*
X157189895Y-147499999D02*
X157189895Y-147690475D01*
X156389895Y-146509523D02*
X156389895Y-146890475D01*
X156389895Y-146890475D02*
X156770847Y-146928571D01*
X156770847Y-146928571D02*
X156732752Y-146890475D01*
X156732752Y-146890475D02*
X156694657Y-146814285D01*
X156694657Y-146814285D02*
X156694657Y-146623809D01*
X156694657Y-146623809D02*
X156732752Y-146547618D01*
X156732752Y-146547618D02*
X156770847Y-146509523D01*
X156770847Y-146509523D02*
X156847038Y-146471428D01*
X156847038Y-146471428D02*
X157037514Y-146471428D01*
X157037514Y-146471428D02*
X157113704Y-146509523D01*
X157113704Y-146509523D02*
X157151800Y-146547618D01*
X157151800Y-146547618D02*
X157189895Y-146623809D01*
X157189895Y-146623809D02*
X157189895Y-146814285D01*
X157189895Y-146814285D02*
X157151800Y-146890475D01*
X157151800Y-146890475D02*
X157113704Y-146928571D01*
D12*
X124833142Y-123244780D02*
X124785523Y-123292400D01*
X124785523Y-123292400D02*
X124642666Y-123340019D01*
X124642666Y-123340019D02*
X124547428Y-123340019D01*
X124547428Y-123340019D02*
X124404571Y-123292400D01*
X124404571Y-123292400D02*
X124309333Y-123197161D01*
X124309333Y-123197161D02*
X124261714Y-123101923D01*
X124261714Y-123101923D02*
X124214095Y-122911447D01*
X124214095Y-122911447D02*
X124214095Y-122768590D01*
X124214095Y-122768590D02*
X124261714Y-122578114D01*
X124261714Y-122578114D02*
X124309333Y-122482876D01*
X124309333Y-122482876D02*
X124404571Y-122387638D01*
X124404571Y-122387638D02*
X124547428Y-122340019D01*
X124547428Y-122340019D02*
X124642666Y-122340019D01*
X124642666Y-122340019D02*
X124785523Y-122387638D01*
X124785523Y-122387638D02*
X124833142Y-122435257D01*
X125785523Y-123340019D02*
X125214095Y-123340019D01*
X125499809Y-123340019D02*
X125499809Y-122340019D01*
X125499809Y-122340019D02*
X125404571Y-122482876D01*
X125404571Y-122482876D02*
X125309333Y-122578114D01*
X125309333Y-122578114D02*
X125214095Y-122625733D01*
X126690285Y-122340019D02*
X126214095Y-122340019D01*
X126214095Y-122340019D02*
X126166476Y-122816209D01*
X126166476Y-122816209D02*
X126214095Y-122768590D01*
X126214095Y-122768590D02*
X126309333Y-122720971D01*
X126309333Y-122720971D02*
X126547428Y-122720971D01*
X126547428Y-122720971D02*
X126642666Y-122768590D01*
X126642666Y-122768590D02*
X126690285Y-122816209D01*
X126690285Y-122816209D02*
X126737904Y-122911447D01*
X126737904Y-122911447D02*
X126737904Y-123149542D01*
X126737904Y-123149542D02*
X126690285Y-123244780D01*
X126690285Y-123244780D02*
X126642666Y-123292400D01*
X126642666Y-123292400D02*
X126547428Y-123340019D01*
X126547428Y-123340019D02*
X126309333Y-123340019D01*
X126309333Y-123340019D02*
X126214095Y-123292400D01*
X126214095Y-123292400D02*
X126166476Y-123244780D01*
X157541933Y-128375580D02*
X157494314Y-128423200D01*
X157494314Y-128423200D02*
X157351457Y-128470819D01*
X157351457Y-128470819D02*
X157256219Y-128470819D01*
X157256219Y-128470819D02*
X157113362Y-128423200D01*
X157113362Y-128423200D02*
X157018124Y-128327961D01*
X157018124Y-128327961D02*
X156970505Y-128232723D01*
X156970505Y-128232723D02*
X156922886Y-128042247D01*
X156922886Y-128042247D02*
X156922886Y-127899390D01*
X156922886Y-127899390D02*
X156970505Y-127708914D01*
X156970505Y-127708914D02*
X157018124Y-127613676D01*
X157018124Y-127613676D02*
X157113362Y-127518438D01*
X157113362Y-127518438D02*
X157256219Y-127470819D01*
X157256219Y-127470819D02*
X157351457Y-127470819D01*
X157351457Y-127470819D02*
X157494314Y-127518438D01*
X157494314Y-127518438D02*
X157541933Y-127566057D01*
X158113362Y-127899390D02*
X158018124Y-127851771D01*
X158018124Y-127851771D02*
X157970505Y-127804152D01*
X157970505Y-127804152D02*
X157922886Y-127708914D01*
X157922886Y-127708914D02*
X157922886Y-127661295D01*
X157922886Y-127661295D02*
X157970505Y-127566057D01*
X157970505Y-127566057D02*
X158018124Y-127518438D01*
X158018124Y-127518438D02*
X158113362Y-127470819D01*
X158113362Y-127470819D02*
X158303838Y-127470819D01*
X158303838Y-127470819D02*
X158399076Y-127518438D01*
X158399076Y-127518438D02*
X158446695Y-127566057D01*
X158446695Y-127566057D02*
X158494314Y-127661295D01*
X158494314Y-127661295D02*
X158494314Y-127708914D01*
X158494314Y-127708914D02*
X158446695Y-127804152D01*
X158446695Y-127804152D02*
X158399076Y-127851771D01*
X158399076Y-127851771D02*
X158303838Y-127899390D01*
X158303838Y-127899390D02*
X158113362Y-127899390D01*
X158113362Y-127899390D02*
X158018124Y-127947009D01*
X158018124Y-127947009D02*
X157970505Y-127994628D01*
X157970505Y-127994628D02*
X157922886Y-128089866D01*
X157922886Y-128089866D02*
X157922886Y-128280342D01*
X157922886Y-128280342D02*
X157970505Y-128375580D01*
X157970505Y-128375580D02*
X158018124Y-128423200D01*
X158018124Y-128423200D02*
X158113362Y-128470819D01*
X158113362Y-128470819D02*
X158303838Y-128470819D01*
X158303838Y-128470819D02*
X158399076Y-128423200D01*
X158399076Y-128423200D02*
X158446695Y-128375580D01*
X158446695Y-128375580D02*
X158494314Y-128280342D01*
X158494314Y-128280342D02*
X158494314Y-128089866D01*
X158494314Y-128089866D02*
X158446695Y-127994628D01*
X158446695Y-127994628D02*
X158399076Y-127947009D01*
X158399076Y-127947009D02*
X158303838Y-127899390D01*
D11*
X143988704Y-130514285D02*
X144026800Y-130552381D01*
X144026800Y-130552381D02*
X144064895Y-130666666D01*
X144064895Y-130666666D02*
X144064895Y-130742857D01*
X144064895Y-130742857D02*
X144026800Y-130857143D01*
X144026800Y-130857143D02*
X143950609Y-130933333D01*
X143950609Y-130933333D02*
X143874419Y-130971428D01*
X143874419Y-130971428D02*
X143722038Y-131009524D01*
X143722038Y-131009524D02*
X143607752Y-131009524D01*
X143607752Y-131009524D02*
X143455371Y-130971428D01*
X143455371Y-130971428D02*
X143379180Y-130933333D01*
X143379180Y-130933333D02*
X143302990Y-130857143D01*
X143302990Y-130857143D02*
X143264895Y-130742857D01*
X143264895Y-130742857D02*
X143264895Y-130666666D01*
X143264895Y-130666666D02*
X143302990Y-130552381D01*
X143302990Y-130552381D02*
X143341085Y-130514285D01*
X144064895Y-129752381D02*
X144064895Y-130209524D01*
X144064895Y-129980952D02*
X143264895Y-129980952D01*
X143264895Y-129980952D02*
X143379180Y-130057143D01*
X143379180Y-130057143D02*
X143455371Y-130133333D01*
X143455371Y-130133333D02*
X143493466Y-130209524D01*
X143264895Y-129485714D02*
X143264895Y-128952380D01*
X143264895Y-128952380D02*
X144064895Y-129295238D01*
X139429895Y-121697685D02*
X139048942Y-121964352D01*
X139429895Y-122154828D02*
X138629895Y-122154828D01*
X138629895Y-122154828D02*
X138629895Y-121850066D01*
X138629895Y-121850066D02*
X138667990Y-121773876D01*
X138667990Y-121773876D02*
X138706085Y-121735781D01*
X138706085Y-121735781D02*
X138782276Y-121697685D01*
X138782276Y-121697685D02*
X138896561Y-121697685D01*
X138896561Y-121697685D02*
X138972752Y-121735781D01*
X138972752Y-121735781D02*
X139010847Y-121773876D01*
X139010847Y-121773876D02*
X139048942Y-121850066D01*
X139048942Y-121850066D02*
X139048942Y-122154828D01*
X139429895Y-120935781D02*
X139429895Y-121392924D01*
X139429895Y-121164352D02*
X138629895Y-121164352D01*
X138629895Y-121164352D02*
X138744180Y-121240543D01*
X138744180Y-121240543D02*
X138820371Y-121316733D01*
X138820371Y-121316733D02*
X138858466Y-121392924D01*
X138629895Y-120211971D02*
X138629895Y-120592923D01*
X138629895Y-120592923D02*
X139010847Y-120631019D01*
X139010847Y-120631019D02*
X138972752Y-120592923D01*
X138972752Y-120592923D02*
X138934657Y-120516733D01*
X138934657Y-120516733D02*
X138934657Y-120326257D01*
X138934657Y-120326257D02*
X138972752Y-120250066D01*
X138972752Y-120250066D02*
X139010847Y-120211971D01*
X139010847Y-120211971D02*
X139087038Y-120173876D01*
X139087038Y-120173876D02*
X139277514Y-120173876D01*
X139277514Y-120173876D02*
X139353704Y-120211971D01*
X139353704Y-120211971D02*
X139391800Y-120250066D01*
X139391800Y-120250066D02*
X139429895Y-120326257D01*
X139429895Y-120326257D02*
X139429895Y-120516733D01*
X139429895Y-120516733D02*
X139391800Y-120592923D01*
X139391800Y-120592923D02*
X139353704Y-120631019D01*
X163364895Y-144133332D02*
X162983942Y-144399999D01*
X163364895Y-144590475D02*
X162564895Y-144590475D01*
X162564895Y-144590475D02*
X162564895Y-144285713D01*
X162564895Y-144285713D02*
X162602990Y-144209523D01*
X162602990Y-144209523D02*
X162641085Y-144171428D01*
X162641085Y-144171428D02*
X162717276Y-144133332D01*
X162717276Y-144133332D02*
X162831561Y-144133332D01*
X162831561Y-144133332D02*
X162907752Y-144171428D01*
X162907752Y-144171428D02*
X162945847Y-144209523D01*
X162945847Y-144209523D02*
X162983942Y-144285713D01*
X162983942Y-144285713D02*
X162983942Y-144590475D01*
X162641085Y-143828571D02*
X162602990Y-143790475D01*
X162602990Y-143790475D02*
X162564895Y-143714285D01*
X162564895Y-143714285D02*
X162564895Y-143523809D01*
X162564895Y-143523809D02*
X162602990Y-143447618D01*
X162602990Y-143447618D02*
X162641085Y-143409523D01*
X162641085Y-143409523D02*
X162717276Y-143371428D01*
X162717276Y-143371428D02*
X162793466Y-143371428D01*
X162793466Y-143371428D02*
X162907752Y-143409523D01*
X162907752Y-143409523D02*
X163364895Y-143866666D01*
X163364895Y-143866666D02*
X163364895Y-143371428D01*
D12*
X134423161Y-114824657D02*
X134327923Y-114777038D01*
X134327923Y-114777038D02*
X134232685Y-114681800D01*
X134232685Y-114681800D02*
X134089828Y-114538942D01*
X134089828Y-114538942D02*
X133994590Y-114491323D01*
X133994590Y-114491323D02*
X133899352Y-114491323D01*
X133946971Y-114729419D02*
X133851733Y-114681800D01*
X133851733Y-114681800D02*
X133756495Y-114586561D01*
X133756495Y-114586561D02*
X133708876Y-114396085D01*
X133708876Y-114396085D02*
X133708876Y-114062752D01*
X133708876Y-114062752D02*
X133756495Y-113872276D01*
X133756495Y-113872276D02*
X133851733Y-113777038D01*
X133851733Y-113777038D02*
X133946971Y-113729419D01*
X133946971Y-113729419D02*
X134137447Y-113729419D01*
X134137447Y-113729419D02*
X134232685Y-113777038D01*
X134232685Y-113777038D02*
X134327923Y-113872276D01*
X134327923Y-113872276D02*
X134375542Y-114062752D01*
X134375542Y-114062752D02*
X134375542Y-114396085D01*
X134375542Y-114396085D02*
X134327923Y-114586561D01*
X134327923Y-114586561D02*
X134232685Y-114681800D01*
X134232685Y-114681800D02*
X134137447Y-114729419D01*
X134137447Y-114729419D02*
X133946971Y-114729419D01*
X135232685Y-113729419D02*
X135042209Y-113729419D01*
X135042209Y-113729419D02*
X134946971Y-113777038D01*
X134946971Y-113777038D02*
X134899352Y-113824657D01*
X134899352Y-113824657D02*
X134804114Y-113967514D01*
X134804114Y-113967514D02*
X134756495Y-114157990D01*
X134756495Y-114157990D02*
X134756495Y-114538942D01*
X134756495Y-114538942D02*
X134804114Y-114634180D01*
X134804114Y-114634180D02*
X134851733Y-114681800D01*
X134851733Y-114681800D02*
X134946971Y-114729419D01*
X134946971Y-114729419D02*
X135137447Y-114729419D01*
X135137447Y-114729419D02*
X135232685Y-114681800D01*
X135232685Y-114681800D02*
X135280304Y-114634180D01*
X135280304Y-114634180D02*
X135327923Y-114538942D01*
X135327923Y-114538942D02*
X135327923Y-114300847D01*
X135327923Y-114300847D02*
X135280304Y-114205609D01*
X135280304Y-114205609D02*
X135232685Y-114157990D01*
X135232685Y-114157990D02*
X135137447Y-114110371D01*
X135137447Y-114110371D02*
X134946971Y-114110371D01*
X134946971Y-114110371D02*
X134851733Y-114157990D01*
X134851733Y-114157990D02*
X134804114Y-114205609D01*
X134804114Y-114205609D02*
X134756495Y-114300847D01*
D11*
X152208333Y-143589895D02*
X152208333Y-144161323D01*
X152208333Y-144161323D02*
X152170238Y-144275609D01*
X152170238Y-144275609D02*
X152094047Y-144351800D01*
X152094047Y-144351800D02*
X151979762Y-144389895D01*
X151979762Y-144389895D02*
X151903571Y-144389895D01*
X152932143Y-143856561D02*
X152932143Y-144389895D01*
X152741667Y-143551800D02*
X152551190Y-144123228D01*
X152551190Y-144123228D02*
X153046429Y-144123228D01*
X166889895Y-142440475D02*
X166089895Y-142440475D01*
X166089895Y-142440475D02*
X166089895Y-142249999D01*
X166089895Y-142249999D02*
X166127990Y-142135713D01*
X166127990Y-142135713D02*
X166204180Y-142059523D01*
X166204180Y-142059523D02*
X166280371Y-142021428D01*
X166280371Y-142021428D02*
X166432752Y-141983332D01*
X166432752Y-141983332D02*
X166547038Y-141983332D01*
X166547038Y-141983332D02*
X166699419Y-142021428D01*
X166699419Y-142021428D02*
X166775609Y-142059523D01*
X166775609Y-142059523D02*
X166851800Y-142135713D01*
X166851800Y-142135713D02*
X166889895Y-142249999D01*
X166889895Y-142249999D02*
X166889895Y-142440475D01*
X166089895Y-141716666D02*
X166089895Y-141221428D01*
X166089895Y-141221428D02*
X166394657Y-141488094D01*
X166394657Y-141488094D02*
X166394657Y-141373809D01*
X166394657Y-141373809D02*
X166432752Y-141297618D01*
X166432752Y-141297618D02*
X166470847Y-141259523D01*
X166470847Y-141259523D02*
X166547038Y-141221428D01*
X166547038Y-141221428D02*
X166737514Y-141221428D01*
X166737514Y-141221428D02*
X166813704Y-141259523D01*
X166813704Y-141259523D02*
X166851800Y-141297618D01*
X166851800Y-141297618D02*
X166889895Y-141373809D01*
X166889895Y-141373809D02*
X166889895Y-141602380D01*
X166889895Y-141602380D02*
X166851800Y-141678571D01*
X166851800Y-141678571D02*
X166813704Y-141716666D01*
X134435714Y-124914895D02*
X134169047Y-124533942D01*
X133978571Y-124914895D02*
X133978571Y-124114895D01*
X133978571Y-124114895D02*
X134283333Y-124114895D01*
X134283333Y-124114895D02*
X134359523Y-124152990D01*
X134359523Y-124152990D02*
X134397618Y-124191085D01*
X134397618Y-124191085D02*
X134435714Y-124267276D01*
X134435714Y-124267276D02*
X134435714Y-124381561D01*
X134435714Y-124381561D02*
X134397618Y-124457752D01*
X134397618Y-124457752D02*
X134359523Y-124495847D01*
X134359523Y-124495847D02*
X134283333Y-124533942D01*
X134283333Y-124533942D02*
X133978571Y-124533942D01*
X134740475Y-124191085D02*
X134778571Y-124152990D01*
X134778571Y-124152990D02*
X134854761Y-124114895D01*
X134854761Y-124114895D02*
X135045237Y-124114895D01*
X135045237Y-124114895D02*
X135121428Y-124152990D01*
X135121428Y-124152990D02*
X135159523Y-124191085D01*
X135159523Y-124191085D02*
X135197618Y-124267276D01*
X135197618Y-124267276D02*
X135197618Y-124343466D01*
X135197618Y-124343466D02*
X135159523Y-124457752D01*
X135159523Y-124457752D02*
X134702380Y-124914895D01*
X134702380Y-124914895D02*
X135197618Y-124914895D01*
X135464285Y-124114895D02*
X135959523Y-124114895D01*
X135959523Y-124114895D02*
X135692857Y-124419657D01*
X135692857Y-124419657D02*
X135807142Y-124419657D01*
X135807142Y-124419657D02*
X135883333Y-124457752D01*
X135883333Y-124457752D02*
X135921428Y-124495847D01*
X135921428Y-124495847D02*
X135959523Y-124572038D01*
X135959523Y-124572038D02*
X135959523Y-124762514D01*
X135959523Y-124762514D02*
X135921428Y-124838704D01*
X135921428Y-124838704D02*
X135883333Y-124876800D01*
X135883333Y-124876800D02*
X135807142Y-124914895D01*
X135807142Y-124914895D02*
X135578571Y-124914895D01*
X135578571Y-124914895D02*
X135502380Y-124876800D01*
X135502380Y-124876800D02*
X135464285Y-124838704D01*
X165139895Y-147865475D02*
X164339895Y-147865475D01*
X164339895Y-147865475D02*
X164339895Y-147674999D01*
X164339895Y-147674999D02*
X164377990Y-147560713D01*
X164377990Y-147560713D02*
X164454180Y-147484523D01*
X164454180Y-147484523D02*
X164530371Y-147446428D01*
X164530371Y-147446428D02*
X164682752Y-147408332D01*
X164682752Y-147408332D02*
X164797038Y-147408332D01*
X164797038Y-147408332D02*
X164949419Y-147446428D01*
X164949419Y-147446428D02*
X165025609Y-147484523D01*
X165025609Y-147484523D02*
X165101800Y-147560713D01*
X165101800Y-147560713D02*
X165139895Y-147674999D01*
X165139895Y-147674999D02*
X165139895Y-147865475D01*
X165139895Y-146646428D02*
X165139895Y-147103571D01*
X165139895Y-146874999D02*
X164339895Y-146874999D01*
X164339895Y-146874999D02*
X164454180Y-146951190D01*
X164454180Y-146951190D02*
X164530371Y-147027380D01*
X164530371Y-147027380D02*
X164568466Y-147103571D01*
D12*
X159758142Y-126927780D02*
X159710523Y-126975400D01*
X159710523Y-126975400D02*
X159567666Y-127023019D01*
X159567666Y-127023019D02*
X159472428Y-127023019D01*
X159472428Y-127023019D02*
X159329571Y-126975400D01*
X159329571Y-126975400D02*
X159234333Y-126880161D01*
X159234333Y-126880161D02*
X159186714Y-126784923D01*
X159186714Y-126784923D02*
X159139095Y-126594447D01*
X159139095Y-126594447D02*
X159139095Y-126451590D01*
X159139095Y-126451590D02*
X159186714Y-126261114D01*
X159186714Y-126261114D02*
X159234333Y-126165876D01*
X159234333Y-126165876D02*
X159329571Y-126070638D01*
X159329571Y-126070638D02*
X159472428Y-126023019D01*
X159472428Y-126023019D02*
X159567666Y-126023019D01*
X159567666Y-126023019D02*
X159710523Y-126070638D01*
X159710523Y-126070638D02*
X159758142Y-126118257D01*
X160139095Y-126118257D02*
X160186714Y-126070638D01*
X160186714Y-126070638D02*
X160281952Y-126023019D01*
X160281952Y-126023019D02*
X160520047Y-126023019D01*
X160520047Y-126023019D02*
X160615285Y-126070638D01*
X160615285Y-126070638D02*
X160662904Y-126118257D01*
X160662904Y-126118257D02*
X160710523Y-126213495D01*
X160710523Y-126213495D02*
X160710523Y-126308733D01*
X160710523Y-126308733D02*
X160662904Y-126451590D01*
X160662904Y-126451590D02*
X160091476Y-127023019D01*
X160091476Y-127023019D02*
X160710523Y-127023019D01*
X161662904Y-127023019D02*
X161091476Y-127023019D01*
X161377190Y-127023019D02*
X161377190Y-126023019D01*
X161377190Y-126023019D02*
X161281952Y-126165876D01*
X161281952Y-126165876D02*
X161186714Y-126261114D01*
X161186714Y-126261114D02*
X161091476Y-126308733D01*
D11*
X166314895Y-126414285D02*
X165933942Y-126680952D01*
X166314895Y-126871428D02*
X165514895Y-126871428D01*
X165514895Y-126871428D02*
X165514895Y-126566666D01*
X165514895Y-126566666D02*
X165552990Y-126490476D01*
X165552990Y-126490476D02*
X165591085Y-126452381D01*
X165591085Y-126452381D02*
X165667276Y-126414285D01*
X165667276Y-126414285D02*
X165781561Y-126414285D01*
X165781561Y-126414285D02*
X165857752Y-126452381D01*
X165857752Y-126452381D02*
X165895847Y-126490476D01*
X165895847Y-126490476D02*
X165933942Y-126566666D01*
X165933942Y-126566666D02*
X165933942Y-126871428D01*
X166314895Y-125652381D02*
X166314895Y-126109524D01*
X166314895Y-125880952D02*
X165514895Y-125880952D01*
X165514895Y-125880952D02*
X165629180Y-125957143D01*
X165629180Y-125957143D02*
X165705371Y-126033333D01*
X165705371Y-126033333D02*
X165743466Y-126109524D01*
X166314895Y-124890476D02*
X166314895Y-125347619D01*
X166314895Y-125119047D02*
X165514895Y-125119047D01*
X165514895Y-125119047D02*
X165629180Y-125195238D01*
X165629180Y-125195238D02*
X165705371Y-125271428D01*
X165705371Y-125271428D02*
X165743466Y-125347619D01*
X154510714Y-126639895D02*
X154244047Y-126258942D01*
X154053571Y-126639895D02*
X154053571Y-125839895D01*
X154053571Y-125839895D02*
X154358333Y-125839895D01*
X154358333Y-125839895D02*
X154434523Y-125877990D01*
X154434523Y-125877990D02*
X154472618Y-125916085D01*
X154472618Y-125916085D02*
X154510714Y-125992276D01*
X154510714Y-125992276D02*
X154510714Y-126106561D01*
X154510714Y-126106561D02*
X154472618Y-126182752D01*
X154472618Y-126182752D02*
X154434523Y-126220847D01*
X154434523Y-126220847D02*
X154358333Y-126258942D01*
X154358333Y-126258942D02*
X154053571Y-126258942D01*
X154815475Y-125916085D02*
X154853571Y-125877990D01*
X154853571Y-125877990D02*
X154929761Y-125839895D01*
X154929761Y-125839895D02*
X155120237Y-125839895D01*
X155120237Y-125839895D02*
X155196428Y-125877990D01*
X155196428Y-125877990D02*
X155234523Y-125916085D01*
X155234523Y-125916085D02*
X155272618Y-125992276D01*
X155272618Y-125992276D02*
X155272618Y-126068466D01*
X155272618Y-126068466D02*
X155234523Y-126182752D01*
X155234523Y-126182752D02*
X154777380Y-126639895D01*
X154777380Y-126639895D02*
X155272618Y-126639895D01*
X155767857Y-125839895D02*
X155844047Y-125839895D01*
X155844047Y-125839895D02*
X155920238Y-125877990D01*
X155920238Y-125877990D02*
X155958333Y-125916085D01*
X155958333Y-125916085D02*
X155996428Y-125992276D01*
X155996428Y-125992276D02*
X156034523Y-126144657D01*
X156034523Y-126144657D02*
X156034523Y-126335133D01*
X156034523Y-126335133D02*
X155996428Y-126487514D01*
X155996428Y-126487514D02*
X155958333Y-126563704D01*
X155958333Y-126563704D02*
X155920238Y-126601800D01*
X155920238Y-126601800D02*
X155844047Y-126639895D01*
X155844047Y-126639895D02*
X155767857Y-126639895D01*
X155767857Y-126639895D02*
X155691666Y-126601800D01*
X155691666Y-126601800D02*
X155653571Y-126563704D01*
X155653571Y-126563704D02*
X155615476Y-126487514D01*
X155615476Y-126487514D02*
X155577380Y-126335133D01*
X155577380Y-126335133D02*
X155577380Y-126144657D01*
X155577380Y-126144657D02*
X155615476Y-125992276D01*
X155615476Y-125992276D02*
X155653571Y-125916085D01*
X155653571Y-125916085D02*
X155691666Y-125877990D01*
X155691666Y-125877990D02*
X155767857Y-125839895D01*
X139191667Y-142489895D02*
X138925000Y-142108942D01*
X138734524Y-142489895D02*
X138734524Y-141689895D01*
X138734524Y-141689895D02*
X139039286Y-141689895D01*
X139039286Y-141689895D02*
X139115476Y-141727990D01*
X139115476Y-141727990D02*
X139153571Y-141766085D01*
X139153571Y-141766085D02*
X139191667Y-141842276D01*
X139191667Y-141842276D02*
X139191667Y-141956561D01*
X139191667Y-141956561D02*
X139153571Y-142032752D01*
X139153571Y-142032752D02*
X139115476Y-142070847D01*
X139115476Y-142070847D02*
X139039286Y-142108942D01*
X139039286Y-142108942D02*
X138734524Y-142108942D01*
X139877381Y-141956561D02*
X139877381Y-142489895D01*
X139686905Y-141651800D02*
X139496428Y-142223228D01*
X139496428Y-142223228D02*
X139991667Y-142223228D01*
D12*
X153851780Y-132424466D02*
X153899400Y-132472085D01*
X153899400Y-132472085D02*
X153947019Y-132614942D01*
X153947019Y-132614942D02*
X153947019Y-132710180D01*
X153947019Y-132710180D02*
X153899400Y-132853037D01*
X153899400Y-132853037D02*
X153804161Y-132948275D01*
X153804161Y-132948275D02*
X153708923Y-132995894D01*
X153708923Y-132995894D02*
X153518447Y-133043513D01*
X153518447Y-133043513D02*
X153375590Y-133043513D01*
X153375590Y-133043513D02*
X153185114Y-132995894D01*
X153185114Y-132995894D02*
X153089876Y-132948275D01*
X153089876Y-132948275D02*
X152994638Y-132853037D01*
X152994638Y-132853037D02*
X152947019Y-132710180D01*
X152947019Y-132710180D02*
X152947019Y-132614942D01*
X152947019Y-132614942D02*
X152994638Y-132472085D01*
X152994638Y-132472085D02*
X153042257Y-132424466D01*
X153280352Y-131567323D02*
X153947019Y-131567323D01*
X152899400Y-131805418D02*
X153613685Y-132043513D01*
X153613685Y-132043513D02*
X153613685Y-131424466D01*
D11*
X142491666Y-137839895D02*
X142110714Y-137839895D01*
X142110714Y-137839895D02*
X142110714Y-137039895D01*
X143177380Y-137839895D02*
X142720237Y-137839895D01*
X142948809Y-137839895D02*
X142948809Y-137039895D01*
X142948809Y-137039895D02*
X142872618Y-137154180D01*
X142872618Y-137154180D02*
X142796428Y-137230371D01*
X142796428Y-137230371D02*
X142720237Y-137268466D01*
X155841667Y-139363704D02*
X155803571Y-139401800D01*
X155803571Y-139401800D02*
X155689286Y-139439895D01*
X155689286Y-139439895D02*
X155613095Y-139439895D01*
X155613095Y-139439895D02*
X155498809Y-139401800D01*
X155498809Y-139401800D02*
X155422619Y-139325609D01*
X155422619Y-139325609D02*
X155384524Y-139249419D01*
X155384524Y-139249419D02*
X155346428Y-139097038D01*
X155346428Y-139097038D02*
X155346428Y-138982752D01*
X155346428Y-138982752D02*
X155384524Y-138830371D01*
X155384524Y-138830371D02*
X155422619Y-138754180D01*
X155422619Y-138754180D02*
X155498809Y-138677990D01*
X155498809Y-138677990D02*
X155613095Y-138639895D01*
X155613095Y-138639895D02*
X155689286Y-138639895D01*
X155689286Y-138639895D02*
X155803571Y-138677990D01*
X155803571Y-138677990D02*
X155841667Y-138716085D01*
X156565476Y-138639895D02*
X156184524Y-138639895D01*
X156184524Y-138639895D02*
X156146428Y-139020847D01*
X156146428Y-139020847D02*
X156184524Y-138982752D01*
X156184524Y-138982752D02*
X156260714Y-138944657D01*
X156260714Y-138944657D02*
X156451190Y-138944657D01*
X156451190Y-138944657D02*
X156527381Y-138982752D01*
X156527381Y-138982752D02*
X156565476Y-139020847D01*
X156565476Y-139020847D02*
X156603571Y-139097038D01*
X156603571Y-139097038D02*
X156603571Y-139287514D01*
X156603571Y-139287514D02*
X156565476Y-139363704D01*
X156565476Y-139363704D02*
X156527381Y-139401800D01*
X156527381Y-139401800D02*
X156451190Y-139439895D01*
X156451190Y-139439895D02*
X156260714Y-139439895D01*
X156260714Y-139439895D02*
X156184524Y-139401800D01*
X156184524Y-139401800D02*
X156146428Y-139363704D01*
X124663704Y-134889285D02*
X124701800Y-134927381D01*
X124701800Y-134927381D02*
X124739895Y-135041666D01*
X124739895Y-135041666D02*
X124739895Y-135117857D01*
X124739895Y-135117857D02*
X124701800Y-135232143D01*
X124701800Y-135232143D02*
X124625609Y-135308333D01*
X124625609Y-135308333D02*
X124549419Y-135346428D01*
X124549419Y-135346428D02*
X124397038Y-135384524D01*
X124397038Y-135384524D02*
X124282752Y-135384524D01*
X124282752Y-135384524D02*
X124130371Y-135346428D01*
X124130371Y-135346428D02*
X124054180Y-135308333D01*
X124054180Y-135308333D02*
X123977990Y-135232143D01*
X123977990Y-135232143D02*
X123939895Y-135117857D01*
X123939895Y-135117857D02*
X123939895Y-135041666D01*
X123939895Y-135041666D02*
X123977990Y-134927381D01*
X123977990Y-134927381D02*
X124016085Y-134889285D01*
X124739895Y-134127381D02*
X124739895Y-134584524D01*
X124739895Y-134355952D02*
X123939895Y-134355952D01*
X123939895Y-134355952D02*
X124054180Y-134432143D01*
X124054180Y-134432143D02*
X124130371Y-134508333D01*
X124130371Y-134508333D02*
X124168466Y-134584524D01*
X124739895Y-133746428D02*
X124739895Y-133594047D01*
X124739895Y-133594047D02*
X124701800Y-133517857D01*
X124701800Y-133517857D02*
X124663704Y-133479761D01*
X124663704Y-133479761D02*
X124549419Y-133403571D01*
X124549419Y-133403571D02*
X124397038Y-133365476D01*
X124397038Y-133365476D02*
X124092276Y-133365476D01*
X124092276Y-133365476D02*
X124016085Y-133403571D01*
X124016085Y-133403571D02*
X123977990Y-133441666D01*
X123977990Y-133441666D02*
X123939895Y-133517857D01*
X123939895Y-133517857D02*
X123939895Y-133670238D01*
X123939895Y-133670238D02*
X123977990Y-133746428D01*
X123977990Y-133746428D02*
X124016085Y-133784523D01*
X124016085Y-133784523D02*
X124092276Y-133822619D01*
X124092276Y-133822619D02*
X124282752Y-133822619D01*
X124282752Y-133822619D02*
X124358942Y-133784523D01*
X124358942Y-133784523D02*
X124397038Y-133746428D01*
X124397038Y-133746428D02*
X124435133Y-133670238D01*
X124435133Y-133670238D02*
X124435133Y-133517857D01*
X124435133Y-133517857D02*
X124397038Y-133441666D01*
X124397038Y-133441666D02*
X124358942Y-133403571D01*
X124358942Y-133403571D02*
X124282752Y-133365476D01*
D13*
%TO.C,C10*%
X152890000Y-129865580D02*
X152890000Y-129584420D01*
X153910000Y-129865580D02*
X153910000Y-129584420D01*
%TO.C,J5*%
X138800000Y-105990000D02*
X139640000Y-105990000D01*
X138800000Y-108210000D02*
X152200000Y-108210000D01*
X139640000Y-103940000D02*
X139640000Y-105990000D01*
X139640000Y-103940000D02*
X140240000Y-103940000D01*
X140240000Y-97840000D02*
X140240000Y-103940000D01*
X140240000Y-97840000D02*
X150760000Y-97840000D01*
X150760000Y-97840000D02*
X150760000Y-103940000D01*
X150760000Y-103940000D02*
X151360000Y-103940000D01*
X151360000Y-103940000D02*
X151360000Y-105990000D01*
X151360000Y-105990000D02*
X152200000Y-105990000D01*
X138800000Y-108210000D02*
G75*
G02*
X138800000Y-105990000I0J1110000D01*
G01*
X152200000Y-105990000D02*
G75*
G02*
X152200000Y-108210000I0J-1110000D01*
G01*
%TO.C,C11*%
X150440580Y-126690000D02*
X150159420Y-126690000D01*
X150440580Y-127710000D02*
X150159420Y-127710000D01*
%TO.C,R13*%
X153094458Y-122946900D02*
X152619942Y-122946900D01*
X153094458Y-123991900D02*
X152619942Y-123991900D01*
%TO.C,Q5*%
X126000000Y-115350000D02*
X126400000Y-115350000D01*
X126000000Y-117300000D02*
X126000000Y-115350000D01*
X126000000Y-119800000D02*
X126000000Y-118200000D01*
X126000000Y-121650000D02*
X126000000Y-120600000D01*
X126000000Y-121650000D02*
X126400000Y-121650000D01*
X131380000Y-121650000D02*
X131000000Y-121650000D01*
X131400000Y-115350000D02*
X131000000Y-115350000D01*
X131400000Y-117300000D02*
X131400000Y-115350000D01*
X131400000Y-119800000D02*
X131400000Y-118200000D01*
X131400000Y-121650000D02*
X131400000Y-120600000D01*
%TO.C,J1*%
X162990000Y-128665000D02*
X162990000Y-130465000D01*
X162990000Y-135335000D02*
X162000000Y-135335000D01*
X162990000Y-137135000D02*
X162990000Y-135335000D01*
X164440000Y-128665000D02*
X162990000Y-128665000D01*
X164440000Y-137135000D02*
X162990000Y-137135000D01*
X167260000Y-135865000D02*
X167260000Y-129935000D01*
%TO.C,C12*%
X147090580Y-127590000D02*
X146809420Y-127590000D01*
X147090580Y-128610000D02*
X146809420Y-128610000D01*
%TO.C,R5*%
X159577500Y-143762742D02*
X159577500Y-144237258D01*
X160622500Y-143762742D02*
X160622500Y-144237258D01*
%TO.C,R6*%
X147812742Y-141202500D02*
X148287258Y-141202500D01*
X147812742Y-142247500D02*
X148287258Y-142247500D01*
D12*
%TO.C,C20*%
X128437600Y-130251800D02*
X128437600Y-133147400D01*
X128437600Y-130251800D02*
X128437600Y-133147400D01*
X134437080Y-130251800D02*
X128437600Y-130251800D01*
X134485340Y-133147400D02*
X128437600Y-133147400D01*
D13*
%TO.C,C2*%
X164759420Y-139690000D02*
X165040580Y-139690000D01*
X164759420Y-140710000D02*
X165040580Y-140710000D01*
%TO.C,C13*%
X144765000Y-135140580D02*
X144765000Y-134859420D01*
X145785000Y-135140580D02*
X145785000Y-134859420D01*
%TO.C,Q1*%
X153425000Y-115150000D02*
X153825000Y-115150000D01*
X153425000Y-117100000D02*
X153425000Y-115150000D01*
X153425000Y-119600000D02*
X153425000Y-118000000D01*
X153425000Y-121450000D02*
X153425000Y-120400000D01*
X153425000Y-121450000D02*
X153825000Y-121450000D01*
X158805000Y-121450000D02*
X158425000Y-121450000D01*
X158825000Y-115150000D02*
X158425000Y-115150000D01*
X158825000Y-117100000D02*
X158825000Y-115150000D01*
X158825000Y-119600000D02*
X158825000Y-118000000D01*
X158825000Y-121450000D02*
X158825000Y-120400000D01*
%TO.C,R7*%
X154777500Y-143762742D02*
X154777500Y-144237258D01*
X155822500Y-143762742D02*
X155822500Y-144237258D01*
D14*
%TO.C,IC1*%
X151800000Y-135300000D02*
G75*
G02*
X151600000Y-135300000I-100000J0D01*
G01*
X151600000Y-135300000D02*
G75*
G02*
X151800000Y-135300000I100000J0D01*
G01*
D13*
%TO.C,R12*%
X143762258Y-122977500D02*
X143287742Y-122977500D01*
X143762258Y-124022500D02*
X143287742Y-124022500D01*
%TO.C,D2*%
X162631666Y-146300000D02*
X162631666Y-148585000D01*
X162631666Y-148585000D02*
X164101666Y-148585000D01*
X164101666Y-148585000D02*
X164101666Y-146300000D01*
%TO.C,C16*%
X159158000Y-123716147D02*
X159158000Y-124238653D01*
X160628000Y-123716147D02*
X160628000Y-124238653D01*
%TO.C,R16*%
X158577500Y-133837258D02*
X158577500Y-133362742D01*
X159622500Y-133837258D02*
X159622500Y-133362742D01*
%TO.C,R_SENSE1*%
X136665000Y-125847936D02*
X136665000Y-130202064D01*
X140085000Y-125847936D02*
X140085000Y-130202064D01*
%TO.C,R8*%
X150112742Y-139627500D02*
X150587258Y-139627500D01*
X150112742Y-140672500D02*
X150587258Y-140672500D01*
%TO.C,Q3*%
X139925000Y-115300000D02*
X140325000Y-115300000D01*
X139925000Y-117250000D02*
X139925000Y-115300000D01*
X139925000Y-119750000D02*
X139925000Y-118150000D01*
X139925000Y-121600000D02*
X139925000Y-120550000D01*
X139925000Y-121600000D02*
X140325000Y-121600000D01*
X145305000Y-121600000D02*
X144925000Y-121600000D01*
X145325000Y-115300000D02*
X144925000Y-115300000D01*
X145325000Y-117250000D02*
X145325000Y-115300000D01*
X145325000Y-119750000D02*
X145325000Y-118150000D01*
X145325000Y-121600000D02*
X145325000Y-120550000D01*
%TO.C,R9*%
X157877500Y-143762742D02*
X157877500Y-144237258D01*
X158922500Y-143762742D02*
X158922500Y-144237258D01*
%TO.C,R3*%
X156377500Y-143762742D02*
X156377500Y-144237258D01*
X157422500Y-143762742D02*
X157422500Y-144237258D01*
%TO.C,J3*%
X126390000Y-144740000D02*
X125800000Y-144740000D01*
X126390000Y-144740000D02*
X126390000Y-139840000D01*
X126390000Y-146960000D02*
X125800000Y-146960000D01*
X126390000Y-149060000D02*
X126390000Y-146960000D01*
X136510000Y-139840000D02*
X126390000Y-139840000D01*
X136510000Y-144740000D02*
X136510000Y-139840000D01*
X136510000Y-149060000D02*
X126390000Y-149060000D01*
X136510000Y-149060000D02*
X136510000Y-146960000D01*
X137100000Y-144740000D02*
X136510000Y-144740000D01*
X137100000Y-146960000D02*
X136510000Y-146960000D01*
X125800000Y-146960000D02*
G75*
G02*
X125800000Y-144740000I0J1110000D01*
G01*
X137100000Y-144740000D02*
G75*
G02*
X137100000Y-146960000I0J-1110000D01*
G01*
%TO.C,C6*%
X126811252Y-128615000D02*
X125388748Y-128615000D01*
X126811252Y-130435000D02*
X125388748Y-130435000D01*
D12*
%TO.C,C18*%
X128425530Y-127050800D02*
X128425530Y-129946400D01*
X128425530Y-127050800D02*
X128425530Y-129946400D01*
X134425010Y-127050800D02*
X128425530Y-127050800D01*
X134473270Y-129946400D02*
X128425530Y-129946400D01*
D13*
%TO.C,R22*%
X129052500Y-124062742D02*
X129052500Y-124537258D01*
X130097500Y-124062742D02*
X130097500Y-124537258D01*
%TO.C,C9*%
X151834420Y-136915000D02*
X152115580Y-136915000D01*
X151834420Y-137935000D02*
X152115580Y-137935000D01*
%TO.C,R19*%
X140777500Y-123887742D02*
X140777500Y-124362258D01*
X141822500Y-123887742D02*
X141822500Y-124362258D01*
%TO.C,R17*%
X160177500Y-133837258D02*
X160177500Y-133362742D01*
X161222500Y-133837258D02*
X161222500Y-133362742D01*
%TO.C,R14*%
X127252500Y-124512258D02*
X127252500Y-124037742D01*
X128297500Y-124512258D02*
X128297500Y-124037742D01*
%TO.C,C7*%
X153769600Y-136917820D02*
X153769600Y-137198980D01*
X154789600Y-136917820D02*
X154789600Y-137198980D01*
%TO.C,C14*%
X146438748Y-122765000D02*
X146961252Y-122765000D01*
X146438748Y-124235000D02*
X146961252Y-124235000D01*
%TO.C,D4*%
X159998333Y-146300000D02*
X159998333Y-148585000D01*
X159998333Y-148585000D02*
X161468333Y-148585000D01*
X161468333Y-148585000D02*
X161468333Y-146300000D01*
%TO.C,C1*%
X164759420Y-138190000D02*
X165040580Y-138190000D01*
X164759420Y-139210000D02*
X165040580Y-139210000D01*
%TO.C,R21*%
X164112258Y-122277500D02*
X163637742Y-122277500D01*
X164112258Y-123322500D02*
X163637742Y-123322500D01*
%TO.C,R18*%
X150122658Y-122946900D02*
X149648142Y-122946900D01*
X150122658Y-123991900D02*
X149648142Y-123991900D01*
%TO.C,R10*%
X157612258Y-122877500D02*
X157137742Y-122877500D01*
X157612258Y-123922500D02*
X157137742Y-123922500D01*
%TO.C,C3*%
X154983547Y-133504000D02*
X155506053Y-133504000D01*
X154983547Y-134974000D02*
X155506053Y-134974000D01*
%TO.C,Q2*%
X159750000Y-115175000D02*
X159750000Y-116225000D01*
X159750000Y-117025000D02*
X159750000Y-118625000D01*
X159750000Y-119525000D02*
X159750000Y-121475000D01*
X159750000Y-121475000D02*
X160150000Y-121475000D01*
X159770000Y-115175000D02*
X160150000Y-115175000D01*
X165150000Y-115175000D02*
X164750000Y-115175000D01*
X165150000Y-115175000D02*
X165150000Y-116225000D01*
X165150000Y-117025000D02*
X165150000Y-118625000D01*
X165150000Y-119525000D02*
X165150000Y-121475000D01*
X165150000Y-121475000D02*
X164750000Y-121475000D01*
%TO.C,Q4*%
X146275000Y-115300000D02*
X146275000Y-116350000D01*
X146275000Y-117150000D02*
X146275000Y-118750000D01*
X146275000Y-119650000D02*
X146275000Y-121600000D01*
X146275000Y-121600000D02*
X146675000Y-121600000D01*
X146295000Y-115300000D02*
X146675000Y-115300000D01*
X151675000Y-115300000D02*
X151275000Y-115300000D01*
X151675000Y-115300000D02*
X151675000Y-116350000D01*
X151675000Y-117150000D02*
X151675000Y-118750000D01*
X151675000Y-119650000D02*
X151675000Y-121600000D01*
X151675000Y-121600000D02*
X151275000Y-121600000D01*
%TO.C,R1*%
X165477500Y-143837742D02*
X165477500Y-144312258D01*
X166522500Y-143837742D02*
X166522500Y-144312258D01*
%TO.C,U1*%
X159840000Y-140025000D02*
X159840000Y-139225000D01*
X159840000Y-140025000D02*
X159840000Y-140825000D01*
X162960000Y-140025000D02*
X162960000Y-139225000D01*
X162960000Y-140025000D02*
X162960000Y-140825000D01*
X159890000Y-141325000D02*
X159560000Y-141565000D01*
X159560000Y-141085000D01*
X159890000Y-141325000D01*
G36*
X159890000Y-141325000D02*
G01*
X159560000Y-141565000D01*
X159560000Y-141085000D01*
X159890000Y-141325000D01*
G37*
%TO.C,D5*%
X157365000Y-146300000D02*
X157365000Y-148585000D01*
X157365000Y-148585000D02*
X158835000Y-148585000D01*
X158835000Y-148585000D02*
X158835000Y-146300000D01*
%TO.C,C15*%
X131793348Y-122378800D02*
X132315852Y-122378800D01*
X131793348Y-123848800D02*
X132315852Y-123848800D01*
%TO.C,C8*%
X155981348Y-128934800D02*
X157403852Y-128934800D01*
X155981348Y-130754800D02*
X157403852Y-130754800D01*
%TO.C,C17*%
X143215000Y-132359420D02*
X143215000Y-132640580D01*
X144235000Y-132359420D02*
X144235000Y-132640580D01*
%TO.C,R15*%
X139312258Y-122677500D02*
X138837742Y-122677500D01*
X139312258Y-123722500D02*
X138837742Y-123722500D01*
%TO.C,R2*%
X161177500Y-143762742D02*
X161177500Y-144237258D01*
X162222500Y-143762742D02*
X162222500Y-144237258D01*
%TO.C,Q6*%
X132350000Y-115325000D02*
X132350000Y-116375000D01*
X132350000Y-117175000D02*
X132350000Y-118775000D01*
X132350000Y-119675000D02*
X132350000Y-121625000D01*
X132350000Y-121625000D02*
X132750000Y-121625000D01*
X132370000Y-115325000D02*
X132750000Y-115325000D01*
X137750000Y-115325000D02*
X137350000Y-115325000D01*
X137750000Y-115325000D02*
X137750000Y-116375000D01*
X137750000Y-117175000D02*
X137750000Y-118775000D01*
X137750000Y-119675000D02*
X137750000Y-121625000D01*
X137750000Y-121625000D02*
X137350000Y-121625000D01*
%TO.C,J4*%
X140065000Y-144590000D02*
X141865000Y-144590000D01*
X140065000Y-146040000D02*
X140065000Y-144590000D01*
X141335000Y-148860000D02*
X152265000Y-148860000D01*
X141865000Y-144590000D02*
X141865000Y-143600000D01*
X153535000Y-144590000D02*
X151735000Y-144590000D01*
X153535000Y-146040000D02*
X153535000Y-144590000D01*
%TO.C,D3*%
X163540000Y-141100000D02*
X163540000Y-142300000D01*
X165500000Y-141100000D02*
X163540000Y-141100000D01*
X165500000Y-142300000D02*
X163540000Y-142300000D01*
%TO.C,R23*%
X136312258Y-122677500D02*
X135837742Y-122677500D01*
X136312258Y-123722500D02*
X135837742Y-123722500D01*
%TO.C,D1*%
X165265000Y-146300000D02*
X165265000Y-148585000D01*
X165265000Y-148585000D02*
X166735000Y-148585000D01*
X166735000Y-148585000D02*
X166735000Y-146300000D01*
%TO.C,C21*%
X159691400Y-129242452D02*
X159691400Y-128719948D01*
X161161400Y-129242452D02*
X161161400Y-128719948D01*
%TO.C,R11*%
X164127500Y-125762258D02*
X164127500Y-125287742D01*
X165172500Y-125762258D02*
X165172500Y-125287742D01*
%TO.C,R20*%
X154577500Y-123962742D02*
X154577500Y-124437258D01*
X155622500Y-123962742D02*
X155622500Y-124437258D01*
%TO.C,R4*%
X141762258Y-141627500D02*
X141287742Y-141627500D01*
X141762258Y-142672500D02*
X141287742Y-142672500D01*
%TO.C,C4*%
X155618547Y-131319600D02*
X156141053Y-131319600D01*
X155618547Y-132789600D02*
X156141053Y-132789600D01*
%TO.C,L1*%
X143024622Y-135365000D02*
X142225378Y-135365000D01*
X143024622Y-136485000D02*
X142225378Y-136485000D01*
%TO.C,C5*%
X158240580Y-138390000D02*
X157959420Y-138390000D01*
X158240580Y-139410000D02*
X157959420Y-139410000D01*
%TO.C,C19*%
X126811252Y-131015000D02*
X125388748Y-131015000D01*
X126811252Y-132835000D02*
X125388748Y-132835000D01*
%TD*%
M02*
