M48
; DRILL file {KiCad 8.0.3+1} date 2024-07-16T12:47:32+0000
; FORMAT={3:3/ absolute / metric / suppress leading zeros}
; #@! TF.CreationDate,2024-07-16T12:47:32+00:00
; #@! TF.GenerationSoftware,Kicad,Pcbnew,8.0.3+1
; #@! TF.FileFunction,Plated,1,2,PTH
FMAT,2
METRIC,TZ
; #@! TA.AperFunction,Plated,PTH,ViaDrill
T1C0.300
; #@! TA.AperFunction,Plated,PTH,ComponentDrill
T2C1.000
; #@! TA.AperFunction,Plated,PTH,ComponentDrill
T3C1.900
%
G90
G05
T1
X126400Y-117900
X126400Y-118725
X126400Y-119550
X126400Y-120375
X126400Y-121200
X126600Y-127400
X126600Y-136200
X127167Y-117900
X127167Y-118725
X127167Y-119550
X127167Y-120375
X127167Y-121200
X127933Y-117900
X127933Y-118725
X127933Y-119550
X127933Y-120375
X127933Y-121200
X128500Y-132800
X128700Y-117900
X128700Y-118725
X128700Y-119550
X128700Y-120375
X128700Y-121200
X128700Y-128300
X128800Y-126200
X129467Y-117900
X129467Y-118725
X129467Y-119550
X129467Y-120375
X129467Y-121200
X130233Y-117900
X130233Y-118725
X130233Y-119550
X130233Y-120375
X130233Y-121200
X130300Y-137300
X131000Y-117900
X131000Y-118725
X131000Y-119550
X131000Y-120375
X131000Y-121200
X131900Y-128700
X132200Y-132800
X132700Y-127200
X132767Y-115725
X132767Y-116550
X132767Y-117375
X132767Y-118200
X132767Y-119025
X133000Y-124000
X133000Y-134500
X133533Y-115725
X133533Y-116550
X133533Y-117375
X133533Y-118200
X133533Y-119025
X134300Y-115725
X134300Y-116550
X134300Y-117375
X134300Y-118200
X134300Y-119025
X134800Y-135900
X134800Y-139500
X135067Y-115725
X135067Y-116550
X135067Y-117375
X135067Y-118200
X135067Y-119025
X135400Y-130200
X135833Y-115725
X135833Y-116550
X135833Y-117375
X135833Y-118200
X135833Y-119025
X136300Y-130200
X136600Y-115725
X136600Y-116550
X136600Y-117375
X136600Y-118200
X136600Y-119025
X137200Y-130200
X137367Y-115725
X137367Y-116550
X137367Y-117375
X137367Y-118200
X137367Y-119025
X138000Y-144900
X138000Y-146600
X138200Y-130200
X139100Y-126700
X139200Y-130200
X139500Y-147600
X139600Y-136200
X139700Y-138700
X139800Y-132500
X139900Y-123500
X140200Y-127800
X140333Y-117725
X140333Y-118550
X140333Y-119375
X140333Y-120200
X140333Y-121025
X140500Y-147400
X140500Y-148600
X141100Y-117725
X141100Y-118550
X141100Y-119375
X141100Y-120200
X141100Y-121025
X141300Y-139600
X141500Y-147600
X141600Y-132500
X141700Y-135300
X141867Y-117725
X141867Y-118550
X141867Y-119375
X141867Y-120200
X141867Y-121025
X142300Y-126000
X142600Y-145800
X142633Y-117725
X142633Y-118550
X142633Y-119375
X142633Y-120200
X142633Y-121025
X143400Y-117725
X143400Y-118550
X143400Y-119375
X143400Y-120200
X143400Y-121025
X143400Y-126800
X143400Y-131400
X144167Y-117725
X144167Y-118550
X144167Y-119375
X144167Y-120200
X144167Y-121025
X144500Y-131400
X144650Y-123550
X144925Y-142000
X144933Y-117725
X144933Y-118550
X144933Y-119375
X144933Y-120200
X144933Y-121025
X145700Y-127700
X146100Y-129400
X146200Y-144800
X146567Y-115725
X146567Y-116550
X146567Y-117375
X146567Y-118200
X146567Y-119025
X146700Y-122772
X147000Y-126200
X147300Y-139000
X147333Y-115725
X147333Y-116550
X147333Y-117375
X147333Y-118200
X147333Y-119025
X148100Y-115725
X148100Y-116550
X148100Y-117375
X148100Y-118200
X148100Y-119025
X148100Y-137200
X148300Y-131400
X148300Y-132150
X148300Y-132900
X148300Y-133650
X148300Y-134400
X148500Y-128900
X148700Y-145300
X148867Y-115725
X148867Y-116550
X148867Y-117375
X148867Y-118200
X148867Y-119025
X148967Y-131400
X148967Y-132150
X148967Y-132900
X148967Y-133650
X148967Y-134400
X149200Y-126600
X149633Y-115725
X149633Y-116550
X149633Y-117375
X149633Y-118200
X149633Y-119025
X149633Y-131400
X149633Y-132150
X149633Y-132900
X149633Y-133650
X149633Y-134400
X150300Y-131400
X150300Y-132150
X150300Y-132900
X150300Y-133650
X150300Y-134400
X150400Y-115725
X150400Y-116550
X150400Y-117375
X150400Y-118200
X150400Y-119025
X151167Y-115725
X151167Y-116550
X151167Y-117375
X151167Y-118200
X151167Y-119025
X152800Y-136300
X153000Y-127600
X153000Y-146700
X153000Y-148600
X153025Y-147650
X153200Y-133500
X153500Y-123400
X153500Y-136300
X153695Y-133995
X153767Y-117725
X153767Y-118550
X153767Y-119375
X153767Y-120200
X153767Y-121025
X153800Y-139800
X154000Y-128900
X154000Y-138300
X154533Y-117725
X154533Y-118550
X154533Y-119375
X154533Y-120200
X154533Y-121025
X155200Y-134500
X155300Y-117725
X155300Y-118550
X155300Y-119375
X155300Y-120200
X155300Y-121025
X155700Y-138200
X156067Y-117725
X156067Y-118550
X156067Y-119375
X156067Y-120200
X156067Y-121025
X156100Y-139900
X156200Y-132000
X156200Y-134100
X156833Y-117725
X156833Y-118550
X156833Y-119375
X156833Y-120200
X156833Y-121025
X156900Y-144200
X157400Y-136300
X157600Y-117725
X157600Y-118550
X157600Y-119375
X157600Y-120200
X157600Y-121025
X158025Y-123400
X158367Y-117725
X158367Y-118550
X158367Y-119375
X158367Y-120200
X158367Y-121025
X159100Y-132775
X159300Y-129900
X159600Y-122000
X159800Y-131000
X160100Y-137200
X160167Y-115525
X160167Y-116350
X160167Y-117175
X160167Y-118000
X160167Y-118825
X160700Y-132775
X160933Y-115525
X160933Y-116350
X160933Y-117175
X160933Y-118000
X160933Y-118825
X161400Y-140800
X161400Y-142000
X161700Y-115525
X161700Y-116350
X161700Y-117175
X161700Y-118000
X161700Y-118825
X162467Y-115525
X162467Y-116350
X162467Y-117175
X162467Y-118000
X162467Y-118825
X162949Y-129900
X163000Y-142700
X163200Y-131000
X163233Y-115525
X163233Y-116350
X163233Y-117175
X163233Y-118000
X163233Y-118825
X163300Y-144500
X163900Y-129200
X164000Y-115525
X164000Y-116350
X164000Y-117175
X164000Y-118000
X164000Y-118825
X164767Y-115525
X164767Y-116350
X164767Y-117175
X164767Y-118000
X164767Y-118825
X165600Y-129200
X165600Y-136600
X166000Y-143600
X166299Y-129161
X166600Y-136600
T2
X127200Y-129700
X127200Y-140700
X139000Y-107100
X152000Y-107100
T3
X137200Y-132700
X137200Y-137700
X142000Y-112100
X145500Y-112100
X149000Y-112100
M30
