M48
; DRILL file {KiCad 8.0.6+1} date 2025-01-11T23:51:09+0000
; FORMAT={3:3/ absolute / metric / suppress leading zeros}
; #@! TF.CreationDate,2025-01-11T23:51:09+00:00
; #@! TF.GenerationSoftware,Kicad,Pcbnew,8.0.6+1
; #@! TF.FileFunction,Plated,1,2,PTH
FMAT,2
METRIC,TZ
; #@! TA.AperFunction,Plated,PTH,ViaDrill
T1C0.200
; #@! TA.AperFunction,Plated,PTH,ViaDrill
T2C0.300
; #@! TA.AperFunction,Plated,PTH,ComponentDrill
T3C1.000
; #@! TA.AperFunction,Plated,PTH,ComponentDrill
T4C1.900
%
G90
G05
T1
X147650Y-139347
X147930Y-138786
X148950Y-136645
T2
X124200Y-121650
X124475Y-115500
X124775Y-148000
X124875Y-105625
X124925Y-143950
X124975Y-138225
X125000Y-140875
X126400Y-117900
X126400Y-118725
X126400Y-119550
X126400Y-120375
X126400Y-121200
X127167Y-117900
X127167Y-118725
X127167Y-119550
X127167Y-120375
X127167Y-121200
X127933Y-117900
X127933Y-118725
X127933Y-119550
X127933Y-120375
X127933Y-121200
X128150Y-105600
X128700Y-117900
X128700Y-118725
X128700Y-119550
X128700Y-120375
X128700Y-121200
X129200Y-127762
X129467Y-117900
X129467Y-118725
X129467Y-119550
X129467Y-120375
X129467Y-121200
X129794Y-129286
X129925Y-128524
X129950Y-127762
X130233Y-117900
X130233Y-118725
X130233Y-119550
X130233Y-120375
X130233Y-121200
X130675Y-129286
X130700Y-127762
X130700Y-128524
X130750Y-130875
X131000Y-117900
X131000Y-118725
X131000Y-119550
X131000Y-120375
X131000Y-121200
X132175Y-124275
X132225Y-138250
X132309Y-127203
X132767Y-115725
X132767Y-116550
X132767Y-117375
X132767Y-118200
X132767Y-119025
X132918Y-128295
X133533Y-115725
X133533Y-116550
X133533Y-117375
X133533Y-118200
X133533Y-119025
X134300Y-115725
X134300Y-116550
X134300Y-117375
X134300Y-118200
X134300Y-119025
X134500Y-113900
X134650Y-105600
X135067Y-115725
X135067Y-116550
X135067Y-117375
X135067Y-118200
X135067Y-119025
X135100Y-138425
X135833Y-115725
X135833Y-116550
X135833Y-117375
X135833Y-118200
X135833Y-119025
X136600Y-115725
X136600Y-116550
X136600Y-117375
X136600Y-118200
X136600Y-119025
X136950Y-143050
X136975Y-144200
X137262Y-127660
X137325Y-129375
X137367Y-115725
X137367Y-116550
X137367Y-117375
X137367Y-118200
X137367Y-119025
X137775Y-105575
X138659Y-126390
X138887Y-128118
X139500Y-147600
X139550Y-109875
X139776Y-138024
X139827Y-136804
X139900Y-123500
X140081Y-133909
X140208Y-132537
X140259Y-134772
X140333Y-117725
X140333Y-118550
X140333Y-119375
X140333Y-120200
X140333Y-121025
X140500Y-147400
X140500Y-148600
X140575Y-145725
X140665Y-137897
X140945Y-133528
X141021Y-140640
X141097Y-132359
X141100Y-117725
X141100Y-118550
X141100Y-119375
X141100Y-120200
X141100Y-121025
X141427Y-134493
X141500Y-147600
X141600Y-139800
X141625Y-137475
X141625Y-138675
X141808Y-133071
X141867Y-117725
X141867Y-118550
X141867Y-119375
X141867Y-120200
X141867Y-121025
X142418Y-130581
X142596Y-134264
X142633Y-117725
X142633Y-118550
X142633Y-119375
X142633Y-120200
X142633Y-121025
X142850Y-129845
X143025Y-126725
X143332Y-139548
X143400Y-117725
X143400Y-118550
X143400Y-119375
X143400Y-120200
X143400Y-121025
X143408Y-130480
X143485Y-138049
X143600Y-109925
X143625Y-113950
X144167Y-117725
X144167Y-118550
X144167Y-119375
X144167Y-120200
X144167Y-121025
X144221Y-138887
X144250Y-126550
X144650Y-123550
X144925Y-144450
X144933Y-117725
X144933Y-118550
X144933Y-119375
X144933Y-120200
X144933Y-121025
X145491Y-126975
X146200Y-128100
X146567Y-115725
X146567Y-116550
X146567Y-117375
X146567Y-118200
X146567Y-119025
X146660Y-122377
X146660Y-126492
X146825Y-109900
X147050Y-129950
X147333Y-115725
X147333Y-116550
X147333Y-117375
X147333Y-118200
X147333Y-119025
X147819Y-127081
X148100Y-115725
X148100Y-116550
X148100Y-117375
X148100Y-118200
X148100Y-119025
X148300Y-131400
X148300Y-132150
X148300Y-132900
X148300Y-133650
X148300Y-134400
X148500Y-128900
X148650Y-140700
X148867Y-115725
X148867Y-116550
X148867Y-117375
X148867Y-118200
X148867Y-119025
X148967Y-131400
X148967Y-132150
X148967Y-132900
X148967Y-133650
X148967Y-134400
X149525Y-127200
X149633Y-115725
X149633Y-116550
X149633Y-117375
X149633Y-118200
X149633Y-119025
X149633Y-131400
X149633Y-132150
X149633Y-132900
X149633Y-133650
X149633Y-134400
X150292Y-126213
X150300Y-131400
X150300Y-132150
X150300Y-132900
X150300Y-133650
X150300Y-134400
X150400Y-115725
X150400Y-116550
X150400Y-117375
X150400Y-118200
X150400Y-119025
X151167Y-115725
X151167Y-116550
X151167Y-117375
X151167Y-118200
X151167Y-119025
X151200Y-141050
X151714Y-148184
X151975Y-113900
X152451Y-136373
X152550Y-105450
X153000Y-146700
X153000Y-148600
X153025Y-147650
X153500Y-123400
X153589Y-133889
X153625Y-143100
X153767Y-117725
X153767Y-118550
X153767Y-119375
X153767Y-120200
X153767Y-121025
X153800Y-140704
X154000Y-128900
X154124Y-138812
X154275Y-146825
X154300Y-109900
X154381Y-127762
X154533Y-117725
X154533Y-118550
X154533Y-119375
X154533Y-120200
X154533Y-121025
X154889Y-133833
X155296Y-135306
X155300Y-117725
X155300Y-118550
X155300Y-119375
X155300Y-120200
X155300Y-121025
X155700Y-138200
X156067Y-117725
X156067Y-118550
X156067Y-119375
X156067Y-120200
X156067Y-121025
X156100Y-139900
X156210Y-137185
X156464Y-128651
X156515Y-130505
X156833Y-117725
X156833Y-118550
X156833Y-119375
X156833Y-120200
X156833Y-121025
X156900Y-144200
X156972Y-129616
X157251Y-133452
X157400Y-136300
X157404Y-128245
X157600Y-117725
X157600Y-118550
X157600Y-119375
X157600Y-120200
X157600Y-121025
X157785Y-127457
X157800Y-123400
X157963Y-132258
X158367Y-117725
X158367Y-118550
X158367Y-119375
X158367Y-120200
X158367Y-121025
X158648Y-131674
X158877Y-127330
X158888Y-132987
X158979Y-128346
X159461Y-131191
X159600Y-122000
X159690Y-129900
X160100Y-137200
X160167Y-115525
X160167Y-116350
X160167Y-117175
X160167Y-118000
X160167Y-118825
X160198Y-131521
X160700Y-132775
X160933Y-115525
X160933Y-116350
X160933Y-117175
X160933Y-118000
X160933Y-118825
X161341Y-131216
X161400Y-140800
X161400Y-142000
X161700Y-115525
X161700Y-116350
X161700Y-117175
X161700Y-118000
X161700Y-118825
X161900Y-128651
X162125Y-127425
X162467Y-115525
X162467Y-116350
X162467Y-117175
X162467Y-118000
X162467Y-118825
X162890Y-128245
X162949Y-129900
X163000Y-142700
X163200Y-131000
X163233Y-115525
X163233Y-116350
X163233Y-117175
X163233Y-118000
X163233Y-118825
X163246Y-127381
X163300Y-144500
X163900Y-129200
X163900Y-136100
X164000Y-115525
X164000Y-116350
X164000Y-117175
X164000Y-118000
X164000Y-118825
X164767Y-115525
X164767Y-116350
X164767Y-117175
X164767Y-118000
X164767Y-118825
X164950Y-129175
X166000Y-143600
X166625Y-118575
X166825Y-125425
X166900Y-129150
X166950Y-136200
X166950Y-136950
X167175Y-115550
T3
X125950Y-145850
X136950Y-145850
X139000Y-107100
X152000Y-107100
T4
X128950Y-135850
X133950Y-135850
X142000Y-112100
X145500Y-112100
X149000Y-112100
M30
