%TF.GenerationSoftware,KiCad,Pcbnew,8.0.3+1*%
%TF.CreationDate,2024-07-16T10:30:10+00:00*%
%TF.ProjectId,TFESC02,54464553-4330-4322-9e6b-696361645f70,rev?*%
%TF.SameCoordinates,Original*%
%TF.FileFunction,Copper,L2,Bot*%
%TF.FilePolarity,Positive*%
%FSLAX46Y46*%
G04 Gerber Fmt 4.6, Leading zero omitted, Abs format (unit mm)*
G04 Created by KiCad (PCBNEW 8.0.3+1) date 2024-07-16 10:30:10*
%MOMM*%
%LPD*%
G01*
G04 APERTURE LIST*
%TA.AperFunction,ComponentPad*%
%ADD10C,1.400000*%
%TD*%
%TA.AperFunction,ComponentPad*%
%ADD11R,3.000000X3.000000*%
%TD*%
%TA.AperFunction,ComponentPad*%
%ADD12C,3.000000*%
%TD*%
%TA.AperFunction,ComponentPad*%
%ADD13R,3.500000X3.500000*%
%TD*%
%TA.AperFunction,ComponentPad*%
%ADD14C,3.500000*%
%TD*%
%TA.AperFunction,ViaPad*%
%ADD15C,0.600000*%
%TD*%
%TA.AperFunction,Conductor*%
%ADD16C,0.400000*%
%TD*%
%TA.AperFunction,Conductor*%
%ADD17C,0.200000*%
%TD*%
%TA.AperFunction,Conductor*%
%ADD18C,2.000000*%
%TD*%
G04 APERTURE END LIST*
D10*
%TO.P,J5,*%
%TO.N,*%
X144000000Y-106025000D03*
X157000000Y-106025000D03*
D11*
%TO.P,J5,1,A*%
%TO.N,/OUT_A*%
X154000000Y-111025000D03*
D12*
%TO.P,J5,2,B*%
%TO.N,/OUT_B*%
X150500000Y-111025000D03*
%TO.P,J5,3,C*%
%TO.N,/OUT_C*%
X147000000Y-111025000D03*
%TD*%
D10*
%TO.P,J3,*%
%TO.N,*%
X127200000Y-140700000D03*
X127200000Y-129700000D03*
D13*
%TO.P,J3,1,-*%
%TO.N,GNDPWR*%
X137200000Y-132700000D03*
D14*
%TO.P,J3,2,+*%
%TO.N,VDDPWR*%
X137200000Y-137700000D03*
%TD*%
D15*
%TO.N,VDDPWR*%
X143400000Y-119375000D03*
X127166668Y-120375000D03*
X130233332Y-119550000D03*
X141700000Y-135300000D03*
X141100000Y-117725000D03*
X131000002Y-120375000D03*
X130233332Y-118725000D03*
X127166668Y-119550000D03*
X156833330Y-117725000D03*
X157599996Y-117725000D03*
X127933334Y-121200000D03*
X129466666Y-118725000D03*
X127166666Y-117900000D03*
X128700000Y-119550000D03*
X144166666Y-120200000D03*
X162948529Y-129900000D03*
X144166666Y-118550000D03*
X144933334Y-117725000D03*
X143400000Y-120200000D03*
X142633334Y-120200000D03*
X154533334Y-118550000D03*
X130233332Y-121200000D03*
X158366668Y-121025000D03*
X153766668Y-119375000D03*
X166000000Y-143600000D03*
X140333336Y-119375000D03*
X142633334Y-121025000D03*
X130233330Y-117900000D03*
X127933334Y-120375000D03*
X141100002Y-118550000D03*
X126400002Y-121200000D03*
X129466666Y-119550000D03*
X153766666Y-117725000D03*
X158366666Y-117725000D03*
X126400002Y-120375000D03*
X158366668Y-120200000D03*
X154533332Y-117725000D03*
X156066666Y-121025000D03*
X157599998Y-120200000D03*
X128700000Y-120375000D03*
X141100002Y-120200000D03*
X155300000Y-119375000D03*
X157599998Y-119375000D03*
X156066664Y-117725000D03*
X142633334Y-119375000D03*
X156833332Y-119375000D03*
X127933334Y-119550000D03*
X153700000Y-134000000D03*
X141866668Y-119375000D03*
X153766668Y-121025000D03*
X126400002Y-119550000D03*
X141866668Y-121025000D03*
X140333336Y-121025000D03*
X154533334Y-121025000D03*
X155300000Y-118550000D03*
X158366668Y-118550000D03*
X126400002Y-118725000D03*
X153766668Y-120200000D03*
X156833332Y-120200000D03*
X142633332Y-117725000D03*
X154533334Y-119375000D03*
X129466666Y-121200000D03*
X156833332Y-118550000D03*
X155300000Y-121025000D03*
X128699998Y-117900000D03*
X127933332Y-117900000D03*
X141866668Y-120200000D03*
X143399998Y-117725000D03*
X141100002Y-119375000D03*
X129466666Y-120375000D03*
X158366668Y-119375000D03*
X127166668Y-118725000D03*
X131000000Y-117900000D03*
X157599998Y-121025000D03*
X140333334Y-117725000D03*
X128700000Y-118725000D03*
X131000002Y-121200000D03*
X156066666Y-118550000D03*
X144166666Y-119375000D03*
X140333336Y-120200000D03*
X144933336Y-119375000D03*
X144933336Y-121025000D03*
X127933334Y-118725000D03*
X140333336Y-118550000D03*
X155300000Y-120200000D03*
X157599998Y-118550000D03*
X144166666Y-121025000D03*
X156066666Y-119375000D03*
X131000002Y-118725000D03*
X129466664Y-117900000D03*
X141866666Y-117725000D03*
X131000002Y-119550000D03*
X154533334Y-120200000D03*
X153766668Y-118550000D03*
X128700000Y-121200000D03*
X143400000Y-121025000D03*
X142633334Y-118550000D03*
X127166668Y-121200000D03*
X130233332Y-120375000D03*
X155299998Y-117725000D03*
X144166664Y-117725000D03*
X143400000Y-118550000D03*
X141100002Y-121025000D03*
X156833332Y-121025000D03*
X144933336Y-118550000D03*
X156066666Y-120200000D03*
X153200000Y-133500000D03*
X141866668Y-118550000D03*
X126400000Y-117900000D03*
X144933336Y-120200000D03*
X159300000Y-129900000D03*
%TO.N,GNDD*%
X149633332Y-132900000D03*
X138900000Y-126300000D03*
X165600000Y-136600000D03*
X142600000Y-145800000D03*
X137900000Y-130000000D03*
X153500000Y-136300000D03*
X141600000Y-132500000D03*
X136400000Y-130000000D03*
X159800000Y-131000000D03*
X154000000Y-138300000D03*
X142800000Y-131100000D03*
X158500000Y-135300000D03*
X139800000Y-130700000D03*
X163200000Y-131000000D03*
X138600000Y-130000000D03*
X155200000Y-134500000D03*
X151300000Y-146200000D03*
X150300000Y-132150000D03*
X155700000Y-138200000D03*
X148966666Y-134400000D03*
X148966666Y-133650000D03*
X149633332Y-134400000D03*
X126600000Y-136200000D03*
X150300000Y-131400000D03*
X150300000Y-133650000D03*
X163900000Y-129200000D03*
X135700000Y-130000000D03*
X136700000Y-128600000D03*
X140400000Y-128700000D03*
X148966666Y-131400000D03*
X165600000Y-129200000D03*
X149633332Y-131400000D03*
X153800000Y-139800000D03*
X148300000Y-133650000D03*
X163100000Y-143500000D03*
X149633332Y-133650000D03*
X131900000Y-125700000D03*
X156400000Y-134100000D03*
X148966666Y-132150000D03*
X156100000Y-139900000D03*
X126600000Y-127400000D03*
X152800000Y-136300000D03*
X137200000Y-129400000D03*
X163000000Y-142700000D03*
X148300000Y-132150000D03*
X150300000Y-134400000D03*
X148300000Y-131400000D03*
X163800000Y-136600000D03*
X148300000Y-134400000D03*
X161400000Y-140800000D03*
X139200000Y-147900000D03*
X148000000Y-138200000D03*
X160100000Y-137200000D03*
X161400000Y-142000000D03*
X149633332Y-132150000D03*
X148966666Y-132900000D03*
X150300000Y-132900000D03*
X148300000Y-132900000D03*
X142900000Y-128900000D03*
%TO.N,/SHA*%
X154700000Y-128500000D03*
X159600000Y-122000000D03*
%TO.N,/SHB*%
X146700001Y-122372152D03*
X148900000Y-126300000D03*
%TO.N,/SHC*%
X144500000Y-126900000D03*
X132099999Y-123527849D03*
%TO.N,/FG*%
X156900000Y-144200000D03*
X144925000Y-142000000D03*
%TO.N,/SDA*%
X146900000Y-138600000D03*
X159400000Y-132775000D03*
%TO.N,/SCL*%
X157800000Y-132775000D03*
X148100000Y-137200000D03*
%TO.N,/BRAKE*%
X137800000Y-146600000D03*
X148700000Y-144300000D03*
%TO.N,/DIR*%
X146200000Y-144800000D03*
X138000000Y-144900000D03*
%TO.N,/OUT_A*%
X160933334Y-118825000D03*
X163999998Y-118000000D03*
X163233332Y-117175000D03*
X163233332Y-118000000D03*
X160933334Y-116350000D03*
X161699998Y-115525000D03*
X163999998Y-117175000D03*
X160166668Y-118000000D03*
X160933334Y-117175000D03*
X164766668Y-116350000D03*
X160166668Y-116350000D03*
X164766668Y-118825000D03*
X162466666Y-116350000D03*
X163999998Y-116350000D03*
X162466666Y-118825000D03*
X162466666Y-118000000D03*
X163233332Y-116350000D03*
X164766666Y-115525000D03*
X160166668Y-117175000D03*
X164766668Y-118000000D03*
X160166666Y-115525000D03*
X163233332Y-118825000D03*
X160933334Y-118000000D03*
X161700000Y-117175000D03*
X163233330Y-115525000D03*
X164766668Y-117175000D03*
X161700000Y-118825000D03*
X160166668Y-118825000D03*
X161700000Y-118000000D03*
X162466664Y-115525000D03*
X160933332Y-115525000D03*
X161700000Y-116350000D03*
X163999996Y-115525000D03*
X162466666Y-117175000D03*
X163999998Y-118825000D03*
%TO.N,/OUT_B*%
X151166668Y-116550000D03*
X147333334Y-116550000D03*
X148099998Y-115725000D03*
X148100000Y-119025000D03*
X147333334Y-117375000D03*
X148100000Y-116550000D03*
X147333332Y-115725000D03*
X149633332Y-117375000D03*
X150399998Y-116550000D03*
X148866666Y-117375000D03*
X146566668Y-117375000D03*
X150399996Y-115725000D03*
X146566668Y-118200000D03*
X151166668Y-118200000D03*
X148866666Y-116550000D03*
X150399998Y-118200000D03*
X151166666Y-115725000D03*
X146566668Y-116550000D03*
X147333334Y-119025000D03*
X148866664Y-115725000D03*
X146566668Y-119025000D03*
X149633332Y-118200000D03*
X148100000Y-117375000D03*
X146566666Y-115725000D03*
X149633332Y-116550000D03*
X148866666Y-118200000D03*
X149633332Y-119025000D03*
X150399998Y-119025000D03*
X150399998Y-117375000D03*
X151166668Y-117375000D03*
X147333334Y-118200000D03*
X148100000Y-118200000D03*
X149633330Y-115725000D03*
X148866666Y-119025000D03*
X151166668Y-119025000D03*
%TO.N,/OUT_C*%
X137366668Y-117375000D03*
X135066666Y-119025000D03*
X134300000Y-117375000D03*
X135066666Y-116550000D03*
X137366666Y-115725000D03*
X135833332Y-118200000D03*
X135833332Y-117375000D03*
X133533334Y-117375000D03*
X135833332Y-119025000D03*
X132766668Y-116550000D03*
X133533334Y-118200000D03*
X137366668Y-116550000D03*
X134300000Y-119025000D03*
X136599998Y-119025000D03*
X136599996Y-115725000D03*
X134300000Y-118200000D03*
X137366668Y-119025000D03*
X133533332Y-115725000D03*
X137366668Y-118200000D03*
X135066666Y-117375000D03*
X135833332Y-116550000D03*
X133533334Y-119025000D03*
X132766668Y-118200000D03*
X132766668Y-119025000D03*
X135066664Y-115725000D03*
X133533334Y-116550000D03*
X136599998Y-116550000D03*
X134300000Y-116550000D03*
X135066666Y-118200000D03*
X132766666Y-115725000D03*
X136599998Y-118200000D03*
X132766668Y-117375000D03*
X135833330Y-115725000D03*
X136599998Y-117375000D03*
X134299998Y-115725000D03*
%TO.N,/GHA*%
X158000000Y-123500000D03*
X152874265Y-127474265D03*
%TO.N,/GHB*%
X147000000Y-126200000D03*
X144650000Y-123550000D03*
%TO.N,/GLB*%
X148500000Y-128900000D03*
X153500000Y-123400000D03*
%TO.N,/GHC*%
X145000000Y-128300000D03*
X131800000Y-126700000D03*
%TO.N,/GLC*%
X139900000Y-123200000D03*
X141500000Y-126300000D03*
%TD*%
D16*
%TO.N,VDDPWR*%
X151800000Y-135400000D02*
X153450000Y-133750000D01*
D17*
X159300000Y-129900000D02*
X157300000Y-129900000D01*
X166200000Y-143400000D02*
X166000000Y-143600000D01*
X166200000Y-136100000D02*
X166200000Y-143400000D01*
D18*
X133500000Y-137700000D02*
X130300000Y-134500000D01*
D17*
X157300000Y-129900000D02*
X153450000Y-133750000D01*
X164800000Y-134700000D02*
X166200000Y-136100000D01*
D18*
X130300000Y-134500000D02*
X130300000Y-122000000D01*
D16*
X153450000Y-133750000D02*
X153200000Y-133500000D01*
X153700000Y-134000000D02*
X153450000Y-133750000D01*
X141800000Y-135400000D02*
X151800000Y-135400000D01*
X141700000Y-135300000D02*
X141800000Y-135400000D01*
D18*
X137200000Y-137700000D02*
X133500000Y-137700000D01*
D17*
X162948529Y-129900000D02*
X164800000Y-131751471D01*
X164800000Y-131751471D02*
X164800000Y-134700000D01*
%TO.N,/SHA*%
X159600000Y-122000000D02*
X159600000Y-123600000D01*
X159600000Y-123600000D02*
X154700000Y-128500000D01*
%TO.N,/SHB*%
X146700001Y-124100001D02*
X148900000Y-126300000D01*
X146700001Y-122372152D02*
X146700001Y-124100001D01*
%TO.N,/SHC*%
X132372150Y-123800000D02*
X132099999Y-123527849D01*
X144500000Y-126900000D02*
X144300000Y-127100000D01*
X137600000Y-123800000D02*
X132372150Y-123800000D01*
X144300000Y-127100000D02*
X140900000Y-127100000D01*
X140900000Y-127100000D02*
X137600000Y-123800000D01*
D16*
%TO.N,/FG*%
X156900000Y-144200000D02*
X154700000Y-142000000D01*
X154700000Y-142000000D02*
X144925000Y-142000000D01*
%TO.N,/SDA*%
X146900000Y-138600000D02*
X147300000Y-139000000D01*
X147300000Y-139000000D02*
X156000000Y-139000000D01*
X156000000Y-139000000D02*
X159400000Y-135600000D01*
X159400000Y-135600000D02*
X159400000Y-132775000D01*
%TO.N,/SCL*%
X148100000Y-137200000D02*
X155300000Y-137200000D01*
X157800000Y-134700000D02*
X157800000Y-132775000D01*
X155300000Y-137200000D02*
X157800000Y-134700000D01*
%TO.N,/BRAKE*%
X142500000Y-146600000D02*
X146400000Y-146600000D01*
X146400000Y-146600000D02*
X148700000Y-144300000D01*
X137800000Y-146600000D02*
X142500000Y-146600000D01*
%TO.N,/DIR*%
X146100000Y-144900000D02*
X146200000Y-144800000D01*
X138000000Y-144900000D02*
X146100000Y-144900000D01*
D17*
%TO.N,/GHA*%
X152925735Y-127474265D02*
X155300000Y-125100000D01*
X152874265Y-127474265D02*
X152925735Y-127474265D01*
X156400000Y-125100000D02*
X158000000Y-123500000D01*
X155300000Y-125100000D02*
X156400000Y-125100000D01*
%TO.N,/GHB*%
X144650000Y-123550000D02*
X147000000Y-125900000D01*
X147000000Y-125900000D02*
X147000000Y-126200000D01*
%TO.N,/GLB*%
X153500000Y-123400000D02*
X153500000Y-123748529D01*
X153500000Y-123748529D02*
X148500000Y-128748529D01*
X148500000Y-128748529D02*
X148500000Y-128900000D01*
%TO.N,/GHC*%
X139700000Y-128100000D02*
X138000000Y-126400000D01*
X132100000Y-126400000D02*
X131800000Y-126700000D01*
X138000000Y-126400000D02*
X132100000Y-126400000D01*
X144800000Y-128100000D02*
X139700000Y-128100000D01*
X145000000Y-128300000D02*
X144800000Y-128100000D01*
%TO.N,/GLC*%
X139900000Y-124700000D02*
X139900000Y-123200000D01*
X141500000Y-126300000D02*
X139900000Y-124700000D01*
%TD*%
%TA.AperFunction,Conductor*%
%TO.N,GNDD*%
G36*
X167058691Y-103319407D02*
G01*
X167094655Y-103368907D01*
X167099500Y-103399500D01*
X167099500Y-150000500D01*
X167080593Y-150058691D01*
X167031093Y-150094655D01*
X167000500Y-150099500D01*
X124199500Y-150099500D01*
X124141309Y-150080593D01*
X124105345Y-150031093D01*
X124100500Y-150000500D01*
X124100500Y-146599999D01*
X137194318Y-146599999D01*
X137194318Y-146600000D01*
X137214955Y-146756758D01*
X137214957Y-146756766D01*
X137275462Y-146902838D01*
X137275462Y-146902839D01*
X137350402Y-147000503D01*
X137371718Y-147028282D01*
X137497159Y-147124536D01*
X137643238Y-147185044D01*
X137760809Y-147200522D01*
X137799999Y-147205682D01*
X137800000Y-147205682D01*
X137800001Y-147205682D01*
X137831352Y-147201554D01*
X137956762Y-147185044D01*
X138102841Y-147124536D01*
X138104118Y-147123555D01*
X138107506Y-147120957D01*
X138165182Y-147100534D01*
X138167772Y-147100500D01*
X146465890Y-147100500D01*
X146465892Y-147100500D01*
X146593186Y-147066392D01*
X146593188Y-147066390D01*
X146593190Y-147066390D01*
X146707309Y-147000503D01*
X146707309Y-147000502D01*
X146707314Y-147000500D01*
X148793854Y-144913957D01*
X148848369Y-144886182D01*
X148850859Y-144885820D01*
X148856762Y-144885044D01*
X149002841Y-144824536D01*
X149128282Y-144728282D01*
X149224536Y-144602841D01*
X149285044Y-144456762D01*
X149305682Y-144300000D01*
X149285044Y-144143238D01*
X149224537Y-143997161D01*
X149224537Y-143997160D01*
X149128286Y-143871723D01*
X149128285Y-143871722D01*
X149128282Y-143871718D01*
X149128277Y-143871714D01*
X149128276Y-143871713D01*
X149002838Y-143775462D01*
X148856766Y-143714957D01*
X148856758Y-143714955D01*
X148700001Y-143694318D01*
X148699999Y-143694318D01*
X148543241Y-143714955D01*
X148543233Y-143714957D01*
X148397161Y-143775462D01*
X148397160Y-143775462D01*
X148271723Y-143871713D01*
X148271713Y-143871723D01*
X148175462Y-143997160D01*
X148175462Y-143997161D01*
X148114956Y-144143237D01*
X148114954Y-144143241D01*
X148114187Y-144149071D01*
X148087842Y-144204295D01*
X148086039Y-144206146D01*
X146221682Y-146070504D01*
X146167165Y-146098281D01*
X146151678Y-146099500D01*
X138167772Y-146099500D01*
X138109581Y-146080593D01*
X138107506Y-146079043D01*
X138102842Y-146075464D01*
X138102838Y-146075462D01*
X137956766Y-146014957D01*
X137956758Y-146014955D01*
X137800001Y-145994318D01*
X137799999Y-145994318D01*
X137643241Y-146014955D01*
X137643233Y-146014957D01*
X137497161Y-146075462D01*
X137497160Y-146075462D01*
X137371723Y-146171713D01*
X137371713Y-146171723D01*
X137275462Y-146297160D01*
X137275462Y-146297161D01*
X137214957Y-146443233D01*
X137214955Y-146443241D01*
X137194318Y-146599999D01*
X124100500Y-146599999D01*
X124100500Y-144899999D01*
X137394318Y-144899999D01*
X137394318Y-144900000D01*
X137414955Y-145056758D01*
X137414957Y-145056766D01*
X137475462Y-145202838D01*
X137475462Y-145202839D01*
X137568844Y-145324537D01*
X137571718Y-145328282D01*
X137697159Y-145424536D01*
X137843238Y-145485044D01*
X137960809Y-145500522D01*
X137999999Y-145505682D01*
X138000000Y-145505682D01*
X138000001Y-145505682D01*
X138031352Y-145501554D01*
X138156762Y-145485044D01*
X138302841Y-145424536D01*
X138304118Y-145423555D01*
X138307506Y-145420957D01*
X138365182Y-145400534D01*
X138367772Y-145400500D01*
X146034108Y-145400500D01*
X146154150Y-145400500D01*
X146167072Y-145401347D01*
X146199999Y-145405682D01*
X146200000Y-145405682D01*
X146200001Y-145405682D01*
X146239361Y-145400500D01*
X146356762Y-145385044D01*
X146502841Y-145324536D01*
X146628282Y-145228282D01*
X146724536Y-145102841D01*
X146785044Y-144956762D01*
X146805682Y-144800000D01*
X146785044Y-144643238D01*
X146765958Y-144597160D01*
X146724537Y-144497161D01*
X146724537Y-144497160D01*
X146628286Y-144371723D01*
X146628285Y-144371722D01*
X146628282Y-144371718D01*
X146628277Y-144371714D01*
X146628276Y-144371713D01*
X146502838Y-144275462D01*
X146356766Y-144214957D01*
X146356758Y-144214955D01*
X146200001Y-144194318D01*
X146199999Y-144194318D01*
X146043241Y-144214955D01*
X146043233Y-144214957D01*
X145897161Y-144275462D01*
X145897160Y-144275462D01*
X145766570Y-144375668D01*
X145765509Y-144374286D01*
X145718416Y-144398281D01*
X145702929Y-144399500D01*
X138367772Y-144399500D01*
X138309581Y-144380593D01*
X138307506Y-144379043D01*
X138302842Y-144375464D01*
X138302838Y-144375462D01*
X138156766Y-144314957D01*
X138156758Y-144314955D01*
X138000001Y-144294318D01*
X137999999Y-144294318D01*
X137843241Y-144314955D01*
X137843233Y-144314957D01*
X137697161Y-144375462D01*
X137697160Y-144375462D01*
X137571723Y-144471713D01*
X137571713Y-144471723D01*
X137475462Y-144597160D01*
X137475462Y-144597161D01*
X137414957Y-144743233D01*
X137414955Y-144743241D01*
X137394318Y-144899999D01*
X124100500Y-144899999D01*
X124100500Y-141999999D01*
X144319318Y-141999999D01*
X144319318Y-142000000D01*
X144339955Y-142156758D01*
X144339957Y-142156766D01*
X144400462Y-142302838D01*
X144400462Y-142302839D01*
X144400464Y-142302841D01*
X144496718Y-142428282D01*
X144622159Y-142524536D01*
X144768238Y-142585044D01*
X144885809Y-142600522D01*
X144924999Y-142605682D01*
X144925000Y-142605682D01*
X144925001Y-142605682D01*
X144956352Y-142601554D01*
X145081762Y-142585044D01*
X145227841Y-142524536D01*
X145229118Y-142523555D01*
X145232506Y-142520957D01*
X145290182Y-142500534D01*
X145292772Y-142500500D01*
X154451678Y-142500500D01*
X154509869Y-142519407D01*
X154521682Y-142529496D01*
X156286039Y-144293853D01*
X156313816Y-144348370D01*
X156314187Y-144350929D01*
X156314954Y-144356757D01*
X156314956Y-144356762D01*
X156375462Y-144502838D01*
X156375462Y-144502839D01*
X156447837Y-144597160D01*
X156471718Y-144628282D01*
X156597159Y-144724536D01*
X156597160Y-144724536D01*
X156597161Y-144724537D01*
X156743233Y-144785042D01*
X156743238Y-144785044D01*
X156856833Y-144799999D01*
X156899999Y-144805682D01*
X156900000Y-144805682D01*
X156900001Y-144805682D01*
X156943167Y-144799999D01*
X157056762Y-144785044D01*
X157202841Y-144724536D01*
X157328282Y-144628282D01*
X157424536Y-144502841D01*
X157485044Y-144356762D01*
X157505682Y-144200000D01*
X157485044Y-144043238D01*
X157465958Y-143997160D01*
X157424537Y-143897161D01*
X157424537Y-143897160D01*
X157328286Y-143771723D01*
X157328285Y-143771722D01*
X157328282Y-143771718D01*
X157328277Y-143771714D01*
X157328276Y-143771713D01*
X157202838Y-143675462D01*
X157056762Y-143614956D01*
X157056757Y-143614954D01*
X157050929Y-143614187D01*
X156995705Y-143587843D01*
X156993853Y-143586039D01*
X156013496Y-142605682D01*
X155007314Y-141599500D01*
X155007311Y-141599498D01*
X155007310Y-141599497D01*
X155007309Y-141599496D01*
X154893189Y-141533609D01*
X154893191Y-141533609D01*
X154843799Y-141520375D01*
X154765892Y-141499500D01*
X154765890Y-141499500D01*
X145292772Y-141499500D01*
X145234581Y-141480593D01*
X145232506Y-141479043D01*
X145227842Y-141475464D01*
X145227838Y-141475462D01*
X145081766Y-141414957D01*
X145081758Y-141414955D01*
X144925001Y-141394318D01*
X144924999Y-141394318D01*
X144768241Y-141414955D01*
X144768233Y-141414957D01*
X144622161Y-141475462D01*
X144622160Y-141475462D01*
X144496723Y-141571713D01*
X144496713Y-141571723D01*
X144400462Y-141697160D01*
X144400462Y-141697161D01*
X144339957Y-141843233D01*
X144339955Y-141843241D01*
X144319318Y-141999999D01*
X124100500Y-141999999D01*
X124100500Y-140699996D01*
X126194659Y-140699996D01*
X126194659Y-140700003D01*
X126213974Y-140896126D01*
X126213975Y-140896129D01*
X126271187Y-141084730D01*
X126271188Y-141084732D01*
X126342218Y-141217618D01*
X126364090Y-141258538D01*
X126364092Y-141258540D01*
X126364093Y-141258542D01*
X126489112Y-141410878D01*
X126489121Y-141410887D01*
X126638657Y-141533608D01*
X126641462Y-141535910D01*
X126815273Y-141628814D01*
X127003868Y-141686024D01*
X127003870Y-141686024D01*
X127003873Y-141686025D01*
X127199997Y-141705341D01*
X127200000Y-141705341D01*
X127200003Y-141705341D01*
X127396126Y-141686025D01*
X127396127Y-141686024D01*
X127396132Y-141686024D01*
X127584727Y-141628814D01*
X127758538Y-141535910D01*
X127910883Y-141410883D01*
X128035910Y-141258538D01*
X128128814Y-141084727D01*
X128186024Y-140896132D01*
X128205341Y-140700000D01*
X128205341Y-140699996D01*
X128186025Y-140503873D01*
X128186024Y-140503870D01*
X128186024Y-140503868D01*
X128128814Y-140315273D01*
X128035910Y-140141462D01*
X128035906Y-140141457D01*
X127910887Y-139989121D01*
X127910878Y-139989112D01*
X127758542Y-139864093D01*
X127758540Y-139864092D01*
X127758538Y-139864090D01*
X127717618Y-139842218D01*
X127584732Y-139771188D01*
X127584730Y-139771187D01*
X127396129Y-139713975D01*
X127396126Y-139713974D01*
X127200003Y-139694659D01*
X127199997Y-139694659D01*
X127003873Y-139713974D01*
X127003870Y-139713975D01*
X126815269Y-139771187D01*
X126815267Y-139771188D01*
X126641467Y-139864087D01*
X126641457Y-139864093D01*
X126489121Y-139989112D01*
X126489112Y-139989121D01*
X126364093Y-140141457D01*
X126364087Y-140141467D01*
X126271188Y-140315267D01*
X126271187Y-140315269D01*
X126213975Y-140503870D01*
X126213974Y-140503873D01*
X126194659Y-140699996D01*
X124100500Y-140699996D01*
X124100500Y-129699996D01*
X126194659Y-129699996D01*
X126194659Y-129700003D01*
X126213974Y-129896126D01*
X126213975Y-129896129D01*
X126271187Y-130084730D01*
X126271188Y-130084732D01*
X126334318Y-130202838D01*
X126364090Y-130258538D01*
X126364092Y-130258540D01*
X126364093Y-130258542D01*
X126489112Y-130410878D01*
X126489121Y-130410887D01*
X126627667Y-130524589D01*
X126641462Y-130535910D01*
X126815273Y-130628814D01*
X127003868Y-130686024D01*
X127003870Y-130686024D01*
X127003873Y-130686025D01*
X127199997Y-130705341D01*
X127200000Y-130705341D01*
X127200003Y-130705341D01*
X127396126Y-130686025D01*
X127396127Y-130686024D01*
X127396132Y-130686024D01*
X127584727Y-130628814D01*
X127758538Y-130535910D01*
X127910883Y-130410883D01*
X128035910Y-130258538D01*
X128128814Y-130084727D01*
X128186024Y-129896132D01*
X128201083Y-129743241D01*
X128205341Y-129700003D01*
X128205341Y-129699996D01*
X128186025Y-129503873D01*
X128186024Y-129503870D01*
X128186024Y-129503868D01*
X128128814Y-129315273D01*
X128035910Y-129141462D01*
X127989607Y-129085042D01*
X127910887Y-128989121D01*
X127910878Y-128989112D01*
X127758542Y-128864093D01*
X127758540Y-128864092D01*
X127758538Y-128864090D01*
X127684538Y-128824536D01*
X127584732Y-128771188D01*
X127584730Y-128771187D01*
X127396129Y-128713975D01*
X127396126Y-128713974D01*
X127200003Y-128694659D01*
X127199997Y-128694659D01*
X127003873Y-128713974D01*
X127003870Y-128713975D01*
X126815269Y-128771187D01*
X126815267Y-128771188D01*
X126641467Y-128864087D01*
X126641457Y-128864093D01*
X126489121Y-128989112D01*
X126489112Y-128989121D01*
X126364093Y-129141457D01*
X126364087Y-129141467D01*
X126271188Y-129315267D01*
X126271187Y-129315269D01*
X126213975Y-129503870D01*
X126213974Y-129503873D01*
X126194659Y-129699996D01*
X124100500Y-129699996D01*
X124100500Y-117424000D01*
X125594500Y-117424000D01*
X125594500Y-122675996D01*
X125601483Y-122740951D01*
X125612681Y-122792425D01*
X125612685Y-122792441D01*
X125612688Y-122792452D01*
X125623646Y-122830658D01*
X125680325Y-122927571D01*
X125726080Y-122980375D01*
X125770813Y-123022553D01*
X125870889Y-123073439D01*
X125870891Y-123073439D01*
X125870892Y-123073440D01*
X125918155Y-123087318D01*
X125937928Y-123093124D01*
X126024000Y-123105500D01*
X128900500Y-123105500D01*
X128958691Y-123124407D01*
X128994655Y-123173907D01*
X128999500Y-123204500D01*
X128999500Y-134602355D01*
X129031522Y-134804532D01*
X129053352Y-134871719D01*
X129053351Y-134871719D01*
X129094778Y-134999214D01*
X129094780Y-134999219D01*
X129098903Y-135007310D01*
X129098904Y-135007314D01*
X129098905Y-135007314D01*
X129187711Y-135181609D01*
X129253517Y-135272183D01*
X129308034Y-135347219D01*
X131004048Y-137043233D01*
X132508033Y-138547218D01*
X132508034Y-138547219D01*
X132508033Y-138547219D01*
X132652779Y-138691964D01*
X132652785Y-138691969D01*
X132818386Y-138812285D01*
X132818390Y-138812287D01*
X133000781Y-138905220D01*
X133195466Y-138968477D01*
X133195467Y-138968477D01*
X133195470Y-138968478D01*
X133397645Y-139000500D01*
X133397648Y-139000500D01*
X135565890Y-139000500D01*
X135624081Y-139019407D01*
X135638241Y-139031925D01*
X135797155Y-139202081D01*
X136014754Y-139379111D01*
X136158279Y-139466390D01*
X136254427Y-139524859D01*
X136254439Y-139524866D01*
X136511715Y-139636616D01*
X136511717Y-139636616D01*
X136511725Y-139636620D01*
X136781839Y-139712303D01*
X137059742Y-139750500D01*
X137059748Y-139750500D01*
X137340252Y-139750500D01*
X137340258Y-139750500D01*
X137618161Y-139712303D01*
X137888275Y-139636620D01*
X137926195Y-139620148D01*
X138145560Y-139524866D01*
X138145563Y-139524863D01*
X138145568Y-139524862D01*
X138385246Y-139379111D01*
X138602845Y-139202081D01*
X138794312Y-138997069D01*
X138956081Y-138767896D01*
X139043078Y-138599999D01*
X146294318Y-138599999D01*
X146294318Y-138600000D01*
X146314955Y-138756758D01*
X146314957Y-138756766D01*
X146375462Y-138902838D01*
X146375462Y-138902839D01*
X146447766Y-138997067D01*
X146471718Y-139028282D01*
X146597159Y-139124536D01*
X146743238Y-139185044D01*
X146749061Y-139185810D01*
X146804284Y-139212147D01*
X146806145Y-139213959D01*
X146899500Y-139307314D01*
X146899499Y-139307314D01*
X146992685Y-139400499D01*
X146992690Y-139400503D01*
X147106810Y-139466390D01*
X147106808Y-139466390D01*
X147106812Y-139466391D01*
X147106814Y-139466392D01*
X147234107Y-139500500D01*
X147234108Y-139500500D01*
X147234109Y-139500500D01*
X156065890Y-139500500D01*
X156065892Y-139500500D01*
X156193186Y-139466392D01*
X156193188Y-139466390D01*
X156193190Y-139466390D01*
X156307309Y-139400503D01*
X156307309Y-139400502D01*
X156307314Y-139400500D01*
X159800500Y-135907314D01*
X159819080Y-135875133D01*
X159866390Y-135793190D01*
X159866390Y-135793188D01*
X159866392Y-135793186D01*
X159900500Y-135665893D01*
X159900500Y-135534108D01*
X159900500Y-133142771D01*
X159919407Y-133084580D01*
X159920960Y-133082501D01*
X159924536Y-133077841D01*
X159985044Y-132931762D01*
X160005682Y-132775000D01*
X159985044Y-132618238D01*
X159924537Y-132472161D01*
X159924537Y-132472160D01*
X159828286Y-132346723D01*
X159828285Y-132346722D01*
X159828282Y-132346718D01*
X159828277Y-132346714D01*
X159828276Y-132346713D01*
X159702838Y-132250462D01*
X159556766Y-132189957D01*
X159556758Y-132189955D01*
X159400001Y-132169318D01*
X159399999Y-132169318D01*
X159243241Y-132189955D01*
X159243233Y-132189957D01*
X159097161Y-132250462D01*
X159097160Y-132250462D01*
X158971723Y-132346713D01*
X158971713Y-132346723D01*
X158875462Y-132472160D01*
X158875462Y-132472161D01*
X158814957Y-132618233D01*
X158814955Y-132618241D01*
X158794318Y-132774999D01*
X158794318Y-132775000D01*
X158814955Y-132931758D01*
X158814957Y-132931766D01*
X158875462Y-133077838D01*
X158875463Y-133077839D01*
X158875464Y-133077841D01*
X158879040Y-133082501D01*
X158899466Y-133140176D01*
X158899500Y-133142771D01*
X158899500Y-135351678D01*
X158880593Y-135409869D01*
X158870504Y-135421682D01*
X155821682Y-138470504D01*
X155767165Y-138498281D01*
X155751678Y-138499500D01*
X147574498Y-138499500D01*
X147516307Y-138480593D01*
X147483034Y-138438385D01*
X147424537Y-138297161D01*
X147424537Y-138297160D01*
X147328286Y-138171723D01*
X147328285Y-138171722D01*
X147328282Y-138171718D01*
X147328277Y-138171714D01*
X147328276Y-138171713D01*
X147202838Y-138075462D01*
X147056766Y-138014957D01*
X147056758Y-138014955D01*
X146900001Y-137994318D01*
X146899999Y-137994318D01*
X146743241Y-138014955D01*
X146743233Y-138014957D01*
X146597161Y-138075462D01*
X146597160Y-138075462D01*
X146471723Y-138171713D01*
X146471713Y-138171723D01*
X146375462Y-138297160D01*
X146375462Y-138297161D01*
X146314957Y-138443233D01*
X146314955Y-138443241D01*
X146294318Y-138599999D01*
X139043078Y-138599999D01*
X139085136Y-138518830D01*
X139179075Y-138254511D01*
X139236148Y-137979862D01*
X139253858Y-137720957D01*
X139255291Y-137700003D01*
X139255291Y-137699996D01*
X139236148Y-137420141D01*
X139236148Y-137420138D01*
X139190402Y-137199999D01*
X147494318Y-137199999D01*
X147494318Y-137200000D01*
X147514955Y-137356758D01*
X147514957Y-137356766D01*
X147575462Y-137502838D01*
X147575462Y-137502839D01*
X147575464Y-137502841D01*
X147671718Y-137628282D01*
X147797159Y-137724536D01*
X147943238Y-137785044D01*
X148060809Y-137800522D01*
X148099999Y-137805682D01*
X148100000Y-137805682D01*
X148100001Y-137805682D01*
X148131352Y-137801554D01*
X148256762Y-137785044D01*
X148402841Y-137724536D01*
X148404118Y-137723555D01*
X148407506Y-137720957D01*
X148465182Y-137700534D01*
X148467772Y-137700500D01*
X155365890Y-137700500D01*
X155365892Y-137700500D01*
X155493186Y-137666392D01*
X155493188Y-137666390D01*
X155493190Y-137666390D01*
X155607309Y-137600503D01*
X155607309Y-137600502D01*
X155607314Y-137600500D01*
X158200500Y-135007314D01*
X158206362Y-134997161D01*
X158266390Y-134893190D01*
X158266390Y-134893188D01*
X158266392Y-134893186D01*
X158300500Y-134765892D01*
X158300500Y-134634107D01*
X158300500Y-133142771D01*
X158319407Y-133084580D01*
X158320960Y-133082501D01*
X158324536Y-133077841D01*
X158385044Y-132931762D01*
X158405682Y-132775000D01*
X158385044Y-132618238D01*
X158324537Y-132472161D01*
X158324537Y-132472160D01*
X158228286Y-132346723D01*
X158228285Y-132346722D01*
X158228282Y-132346718D01*
X158228277Y-132346714D01*
X158228276Y-132346713D01*
X158102838Y-132250462D01*
X157956766Y-132189957D01*
X157956758Y-132189955D01*
X157800001Y-132169318D01*
X157799999Y-132169318D01*
X157643241Y-132189955D01*
X157643233Y-132189957D01*
X157497161Y-132250462D01*
X157497160Y-132250462D01*
X157371723Y-132346713D01*
X157371713Y-132346723D01*
X157275462Y-132472160D01*
X157275462Y-132472161D01*
X157214957Y-132618233D01*
X157214955Y-132618241D01*
X157194318Y-132774999D01*
X157194318Y-132775000D01*
X157214955Y-132931758D01*
X157214957Y-132931766D01*
X157275462Y-133077838D01*
X157275463Y-133077839D01*
X157275464Y-133077841D01*
X157279040Y-133082501D01*
X157299466Y-133140176D01*
X157299500Y-133142771D01*
X157299500Y-134451678D01*
X157280593Y-134509869D01*
X157270504Y-134521682D01*
X155121682Y-136670504D01*
X155067165Y-136698281D01*
X155051678Y-136699500D01*
X148467772Y-136699500D01*
X148409581Y-136680593D01*
X148407506Y-136679043D01*
X148402842Y-136675464D01*
X148402838Y-136675462D01*
X148256766Y-136614957D01*
X148256758Y-136614955D01*
X148100001Y-136594318D01*
X148099999Y-136594318D01*
X147943241Y-136614955D01*
X147943233Y-136614957D01*
X147797161Y-136675462D01*
X147797160Y-136675462D01*
X147671723Y-136771713D01*
X147671713Y-136771723D01*
X147575462Y-136897160D01*
X147575462Y-136897161D01*
X147514957Y-137043233D01*
X147514955Y-137043241D01*
X147494318Y-137199999D01*
X139190402Y-137199999D01*
X139179075Y-137145489D01*
X139085136Y-136881170D01*
X138956081Y-136632104D01*
X138794312Y-136402931D01*
X138602845Y-136197919D01*
X138417678Y-136047274D01*
X138385255Y-136020896D01*
X138385252Y-136020894D01*
X138385246Y-136020889D01*
X138261129Y-135945412D01*
X138145572Y-135875140D01*
X138145560Y-135875133D01*
X137888284Y-135763383D01*
X137888276Y-135763380D01*
X137888275Y-135763380D01*
X137762988Y-135728276D01*
X137618162Y-135687697D01*
X137548685Y-135678147D01*
X137340258Y-135649500D01*
X137059742Y-135649500D01*
X136920790Y-135668598D01*
X136781837Y-135687697D01*
X136511728Y-135763379D01*
X136511715Y-135763383D01*
X136254439Y-135875133D01*
X136254427Y-135875140D01*
X136014760Y-136020885D01*
X136014744Y-136020896D01*
X135797160Y-136197914D01*
X135797159Y-136197915D01*
X135638243Y-136368073D01*
X135584706Y-136397695D01*
X135565890Y-136399500D01*
X134079693Y-136399500D01*
X134021502Y-136380593D01*
X134009689Y-136370504D01*
X132939184Y-135299999D01*
X141094318Y-135299999D01*
X141094318Y-135300000D01*
X141114955Y-135456758D01*
X141114957Y-135456766D01*
X141175462Y-135602838D01*
X141175462Y-135602839D01*
X141223845Y-135665893D01*
X141271718Y-135728282D01*
X141397159Y-135824536D01*
X141397160Y-135824536D01*
X141397161Y-135824537D01*
X141543233Y-135885042D01*
X141543238Y-135885044D01*
X141660639Y-135900500D01*
X141699999Y-135905682D01*
X141700000Y-135905682D01*
X141700001Y-135905682D01*
X141732928Y-135901347D01*
X141745850Y-135900500D01*
X151865890Y-135900500D01*
X151865892Y-135900500D01*
X151993186Y-135866392D01*
X151993188Y-135866390D01*
X151993190Y-135866390D01*
X152107309Y-135800503D01*
X152107309Y-135800502D01*
X152107314Y-135800500D01*
X153340570Y-134567242D01*
X153395085Y-134539467D01*
X153448455Y-134545783D01*
X153543238Y-134585044D01*
X153660809Y-134600522D01*
X153699999Y-134605682D01*
X153700000Y-134605682D01*
X153700001Y-134605682D01*
X153731352Y-134601554D01*
X153856762Y-134585044D01*
X154002841Y-134524536D01*
X154128282Y-134428282D01*
X154224536Y-134302841D01*
X154285044Y-134156762D01*
X154305682Y-134000000D01*
X154304406Y-133990311D01*
X154295190Y-133920307D01*
X154285044Y-133843238D01*
X154224536Y-133697159D01*
X154209960Y-133678163D01*
X154189536Y-133620490D01*
X154206913Y-133561824D01*
X154218492Y-133547899D01*
X157436897Y-130329496D01*
X157491414Y-130301719D01*
X157506901Y-130300500D01*
X158802929Y-130300500D01*
X158861120Y-130319407D01*
X158869687Y-130326723D01*
X158871716Y-130328280D01*
X158871718Y-130328282D01*
X158997159Y-130424536D01*
X159143238Y-130485044D01*
X159260809Y-130500522D01*
X159299999Y-130505682D01*
X159300000Y-130505682D01*
X159300001Y-130505682D01*
X159334720Y-130501111D01*
X159456762Y-130485044D01*
X159602841Y-130424536D01*
X159728282Y-130328282D01*
X159824536Y-130202841D01*
X159885044Y-130056762D01*
X159905682Y-129900000D01*
X159905682Y-129899999D01*
X162342847Y-129899999D01*
X162342847Y-129900000D01*
X162363484Y-130056758D01*
X162363486Y-130056766D01*
X162423991Y-130202838D01*
X162423991Y-130202839D01*
X162520242Y-130328276D01*
X162520247Y-130328282D01*
X162645688Y-130424536D01*
X162791767Y-130485044D01*
X162948529Y-130505682D01*
X162954962Y-130506529D01*
X162954734Y-130508256D01*
X163005001Y-130524589D01*
X163016814Y-130534678D01*
X164370504Y-131888368D01*
X164398281Y-131942885D01*
X164399500Y-131958372D01*
X164399500Y-134647273D01*
X164399500Y-134752727D01*
X164413381Y-134804532D01*
X164426794Y-134854592D01*
X164479516Y-134945908D01*
X164479518Y-134945910D01*
X164479520Y-134945913D01*
X165770505Y-136236898D01*
X165798281Y-136291413D01*
X165799500Y-136306900D01*
X165799500Y-142966922D01*
X165780593Y-143025113D01*
X165738387Y-143058385D01*
X165697163Y-143075461D01*
X165697157Y-143075464D01*
X165571723Y-143171713D01*
X165571713Y-143171723D01*
X165475462Y-143297160D01*
X165475462Y-143297161D01*
X165414957Y-143443233D01*
X165414955Y-143443241D01*
X165394318Y-143599999D01*
X165394318Y-143600000D01*
X165414955Y-143756758D01*
X165414957Y-143756766D01*
X165475462Y-143902838D01*
X165475462Y-143902839D01*
X165547837Y-143997160D01*
X165571718Y-144028282D01*
X165697159Y-144124536D01*
X165697160Y-144124536D01*
X165697161Y-144124537D01*
X165836816Y-144182384D01*
X165843238Y-144185044D01*
X165956833Y-144199999D01*
X165999999Y-144205682D01*
X166000000Y-144205682D01*
X166000001Y-144205682D01*
X166043167Y-144199999D01*
X166156762Y-144185044D01*
X166302841Y-144124536D01*
X166428282Y-144028282D01*
X166524536Y-143902841D01*
X166585044Y-143756762D01*
X166605682Y-143600000D01*
X166593544Y-143507802D01*
X166596070Y-143469260D01*
X166600501Y-143452727D01*
X166600501Y-143347273D01*
X166600501Y-143341211D01*
X166600500Y-143341193D01*
X166600500Y-136047274D01*
X166600500Y-136047273D01*
X166573207Y-135945413D01*
X166573207Y-135945412D01*
X166573207Y-135945411D01*
X166520483Y-135854091D01*
X166520482Y-135854090D01*
X166520481Y-135854089D01*
X166520480Y-135854087D01*
X165229496Y-134563103D01*
X165201719Y-134508586D01*
X165200500Y-134493099D01*
X165200500Y-131698745D01*
X165200500Y-131698744D01*
X165173207Y-131596884D01*
X165120480Y-131505558D01*
X165045913Y-131430990D01*
X165045913Y-131430991D01*
X163583207Y-129968285D01*
X163555430Y-129913768D01*
X163554547Y-129902554D01*
X163533573Y-129743241D01*
X163533573Y-129743238D01*
X163533571Y-129743233D01*
X163473066Y-129597161D01*
X163473066Y-129597160D01*
X163376815Y-129471723D01*
X163376814Y-129471722D01*
X163376811Y-129471718D01*
X163376806Y-129471714D01*
X163376805Y-129471713D01*
X163251367Y-129375462D01*
X163105295Y-129314957D01*
X163105287Y-129314955D01*
X162948530Y-129294318D01*
X162948528Y-129294318D01*
X162791770Y-129314955D01*
X162791762Y-129314957D01*
X162645690Y-129375462D01*
X162645689Y-129375462D01*
X162520252Y-129471713D01*
X162520242Y-129471723D01*
X162423991Y-129597160D01*
X162423991Y-129597161D01*
X162363486Y-129743233D01*
X162363484Y-129743241D01*
X162342847Y-129899999D01*
X159905682Y-129899999D01*
X159885044Y-129743238D01*
X159885042Y-129743233D01*
X159824537Y-129597161D01*
X159824537Y-129597160D01*
X159728286Y-129471723D01*
X159728285Y-129471722D01*
X159728282Y-129471718D01*
X159728277Y-129471714D01*
X159728276Y-129471713D01*
X159602838Y-129375462D01*
X159456766Y-129314957D01*
X159456758Y-129314955D01*
X159300001Y-129294318D01*
X159299999Y-129294318D01*
X159143241Y-129314955D01*
X159143233Y-129314957D01*
X158997161Y-129375462D01*
X158997160Y-129375462D01*
X158866570Y-129475668D01*
X158865509Y-129474286D01*
X158818416Y-129498281D01*
X158802929Y-129499500D01*
X157352727Y-129499500D01*
X157247273Y-129499500D01*
X157184929Y-129516204D01*
X157145407Y-129526794D01*
X157054091Y-129579516D01*
X157054090Y-129579517D01*
X153652105Y-132981500D01*
X153597588Y-133009277D01*
X153537156Y-132999706D01*
X153521836Y-132990039D01*
X153502841Y-132975464D01*
X153502836Y-132975462D01*
X153469746Y-132961755D01*
X153356762Y-132914956D01*
X153356759Y-132914955D01*
X153356758Y-132914955D01*
X153200001Y-132894318D01*
X153199999Y-132894318D01*
X153043241Y-132914955D01*
X153043233Y-132914957D01*
X152897161Y-132975462D01*
X152897160Y-132975462D01*
X152771723Y-133071713D01*
X152771713Y-133071723D01*
X152675462Y-133197160D01*
X152675462Y-133197161D01*
X152614957Y-133343233D01*
X152614955Y-133343241D01*
X152594318Y-133499999D01*
X152594318Y-133500000D01*
X152614955Y-133656758D01*
X152614957Y-133656767D01*
X152654214Y-133751541D01*
X152659015Y-133812538D01*
X152632754Y-133859430D01*
X151621682Y-134870504D01*
X151567165Y-134898281D01*
X151551678Y-134899500D01*
X142197071Y-134899500D01*
X142138880Y-134880593D01*
X142130312Y-134873276D01*
X142126699Y-134870504D01*
X142002841Y-134775464D01*
X142002840Y-134775463D01*
X142002838Y-134775462D01*
X141856766Y-134714957D01*
X141856758Y-134714955D01*
X141700001Y-134694318D01*
X141699999Y-134694318D01*
X141543241Y-134714955D01*
X141543233Y-134714957D01*
X141397161Y-134775462D01*
X141397160Y-134775462D01*
X141271723Y-134871713D01*
X141271713Y-134871723D01*
X141175462Y-134997160D01*
X141175462Y-134997161D01*
X141114957Y-135143233D01*
X141114955Y-135143241D01*
X141094318Y-135299999D01*
X132939184Y-135299999D01*
X131629496Y-133990311D01*
X131601719Y-133935794D01*
X131600500Y-133920307D01*
X131600500Y-130905130D01*
X135149500Y-130905130D01*
X135149500Y-134494860D01*
X135149501Y-134494863D01*
X135152414Y-134519990D01*
X135171451Y-134563103D01*
X135197794Y-134622765D01*
X135277235Y-134702206D01*
X135380009Y-134747585D01*
X135405135Y-134750500D01*
X138994864Y-134750499D01*
X139019991Y-134747585D01*
X139122765Y-134702206D01*
X139202206Y-134622765D01*
X139247585Y-134519991D01*
X139250500Y-134494865D01*
X139250499Y-130905136D01*
X139247585Y-130880009D01*
X139202206Y-130777235D01*
X139122765Y-130697794D01*
X139019991Y-130652415D01*
X139019990Y-130652414D01*
X139019988Y-130652414D01*
X138994868Y-130649500D01*
X135405139Y-130649500D01*
X135405136Y-130649501D01*
X135380009Y-130652414D01*
X135277235Y-130697794D01*
X135197794Y-130777235D01*
X135152414Y-130880011D01*
X135149500Y-130905130D01*
X131600500Y-130905130D01*
X131600500Y-127392305D01*
X131619407Y-127334114D01*
X131668907Y-127298150D01*
X131712421Y-127294152D01*
X131800000Y-127305682D01*
X131800001Y-127305682D01*
X131831352Y-127301554D01*
X131956762Y-127285044D01*
X132102841Y-127224536D01*
X132228282Y-127128282D01*
X132324536Y-127002841D01*
X132371599Y-126889221D01*
X132383034Y-126861615D01*
X132422770Y-126815089D01*
X132474498Y-126800500D01*
X137793099Y-126800500D01*
X137851290Y-126819407D01*
X137863103Y-126829496D01*
X139454087Y-128420480D01*
X139454089Y-128420481D01*
X139454090Y-128420482D01*
X139454091Y-128420483D01*
X139545408Y-128473205D01*
X139545406Y-128473205D01*
X139545410Y-128473206D01*
X139545412Y-128473207D01*
X139647273Y-128500500D01*
X144366923Y-128500500D01*
X144425114Y-128519407D01*
X144458387Y-128561614D01*
X144475463Y-128602839D01*
X144475464Y-128602842D01*
X144571713Y-128728276D01*
X144571718Y-128728282D01*
X144697159Y-128824536D01*
X144697160Y-128824536D01*
X144697161Y-128824537D01*
X144792658Y-128864093D01*
X144843238Y-128885044D01*
X144956833Y-128899999D01*
X144999999Y-128905682D01*
X145000000Y-128905682D01*
X145000001Y-128905682D01*
X145043167Y-128899999D01*
X145156762Y-128885044D01*
X145302841Y-128824536D01*
X145428282Y-128728282D01*
X145524536Y-128602841D01*
X145585044Y-128456762D01*
X145605682Y-128300000D01*
X145585044Y-128143238D01*
X145558828Y-128079947D01*
X145524537Y-127997161D01*
X145524537Y-127997160D01*
X145428286Y-127871723D01*
X145428285Y-127871722D01*
X145428282Y-127871718D01*
X145428277Y-127871714D01*
X145428276Y-127871713D01*
X145302838Y-127775462D01*
X145156766Y-127714957D01*
X145156758Y-127714955D01*
X145000001Y-127694318D01*
X144999998Y-127694318D01*
X144907802Y-127706455D01*
X144869262Y-127703930D01*
X144858653Y-127701087D01*
X144852727Y-127699500D01*
X144852726Y-127699500D01*
X144538254Y-127699500D01*
X144504690Y-127688594D01*
X144461747Y-127699500D01*
X139906901Y-127699500D01*
X139848710Y-127680593D01*
X139836897Y-127670504D01*
X139045534Y-126879141D01*
X138245913Y-126079520D01*
X138245910Y-126079518D01*
X138245909Y-126079517D01*
X138245908Y-126079516D01*
X138154591Y-126026794D01*
X138154593Y-126026794D01*
X138115070Y-126016204D01*
X138052727Y-125999500D01*
X132152727Y-125999500D01*
X132047273Y-125999500D01*
X131945412Y-126026793D01*
X131945411Y-126026793D01*
X131945409Y-126026794D01*
X131891474Y-126057933D01*
X131854087Y-126079520D01*
X131854085Y-126079521D01*
X131851431Y-126081054D01*
X131806386Y-126093123D01*
X131806432Y-126093471D01*
X131803795Y-126093818D01*
X131801930Y-126094318D01*
X131799998Y-126094318D01*
X131712421Y-126105847D01*
X131652261Y-126094697D01*
X131610144Y-126050314D01*
X131600500Y-126007694D01*
X131600500Y-124102235D01*
X131619407Y-124044044D01*
X131668907Y-124008080D01*
X131730093Y-124008080D01*
X131759765Y-124023692D01*
X131797158Y-124052385D01*
X131797159Y-124052385D01*
X131797160Y-124052386D01*
X131914793Y-124101111D01*
X131943237Y-124112893D01*
X132099999Y-124133531D01*
X132106453Y-124132681D01*
X132166614Y-124143830D01*
X132168877Y-124145098D01*
X132187209Y-124155682D01*
X132217563Y-124173207D01*
X132319420Y-124200500D01*
X132319422Y-124200501D01*
X132319423Y-124200501D01*
X132430940Y-124200501D01*
X132430956Y-124200500D01*
X137393099Y-124200500D01*
X137451290Y-124219407D01*
X137463103Y-124229496D01*
X139105321Y-125871713D01*
X140579518Y-127345910D01*
X140579520Y-127345913D01*
X140654087Y-127420480D01*
X140699750Y-127446843D01*
X140745412Y-127473207D01*
X140847273Y-127500501D01*
X140847275Y-127500501D01*
X140958790Y-127500501D01*
X140958806Y-127500500D01*
X144352727Y-127500500D01*
X144369255Y-127496070D01*
X144407800Y-127493543D01*
X144474670Y-127502347D01*
X144497744Y-127513353D01*
X144525332Y-127502347D01*
X144526195Y-127502233D01*
X144656762Y-127485044D01*
X144802841Y-127424536D01*
X144928282Y-127328282D01*
X145024536Y-127202841D01*
X145085044Y-127056762D01*
X145105682Y-126900000D01*
X145085044Y-126743238D01*
X145024537Y-126597161D01*
X145024537Y-126597160D01*
X144928286Y-126471723D01*
X144928285Y-126471722D01*
X144928282Y-126471718D01*
X144928277Y-126471714D01*
X144928276Y-126471713D01*
X144802838Y-126375462D01*
X144656766Y-126314957D01*
X144656758Y-126314955D01*
X144500001Y-126294318D01*
X144499999Y-126294318D01*
X144343241Y-126314955D01*
X144343233Y-126314957D01*
X144197161Y-126375462D01*
X144197160Y-126375462D01*
X144071723Y-126471713D01*
X144071713Y-126471723D01*
X143975464Y-126597157D01*
X143975463Y-126597160D01*
X143958387Y-126638386D01*
X143918650Y-126684912D01*
X143866923Y-126699500D01*
X142132663Y-126699500D01*
X142074472Y-126680593D01*
X142038508Y-126631093D01*
X142038508Y-126569907D01*
X142041199Y-126562615D01*
X142085042Y-126456767D01*
X142085042Y-126456766D01*
X142085044Y-126456762D01*
X142105682Y-126300000D01*
X142085044Y-126143238D01*
X142058650Y-126079517D01*
X142024537Y-125997161D01*
X142024537Y-125997160D01*
X141928286Y-125871723D01*
X141928285Y-125871722D01*
X141928282Y-125871718D01*
X141928277Y-125871714D01*
X141928276Y-125871713D01*
X141802838Y-125775462D01*
X141656766Y-125714957D01*
X141656758Y-125714955D01*
X141493567Y-125693471D01*
X141493794Y-125691743D01*
X141443528Y-125675411D01*
X141431715Y-125665322D01*
X140329496Y-124563103D01*
X140301719Y-124508586D01*
X140300500Y-124493099D01*
X140300500Y-123697071D01*
X140319407Y-123638880D01*
X140326715Y-123630324D01*
X140335953Y-123618285D01*
X140424536Y-123502841D01*
X140485044Y-123356762D01*
X140505682Y-123200000D01*
X140506529Y-123193567D01*
X140509123Y-123193908D01*
X140524589Y-123146309D01*
X140574089Y-123110345D01*
X140604682Y-123105500D01*
X144035977Y-123105500D01*
X144094168Y-123124407D01*
X144130132Y-123173907D01*
X144130132Y-123235093D01*
X144127441Y-123242386D01*
X144064957Y-123393235D01*
X144064955Y-123393241D01*
X144044318Y-123549999D01*
X144044318Y-123550000D01*
X144064955Y-123706758D01*
X144064957Y-123706766D01*
X144125462Y-123852838D01*
X144125462Y-123852839D01*
X144221713Y-123978276D01*
X144221718Y-123978282D01*
X144347159Y-124074536D01*
X144347160Y-124074536D01*
X144347161Y-124074537D01*
X144414030Y-124102235D01*
X144493238Y-124135044D01*
X144650000Y-124155682D01*
X144656433Y-124156529D01*
X144656205Y-124158256D01*
X144706472Y-124174589D01*
X144718285Y-124184678D01*
X146415597Y-125881990D01*
X146443374Y-125936507D01*
X146437058Y-125989878D01*
X146421768Y-126026794D01*
X146414956Y-126043239D01*
X146414955Y-126043241D01*
X146394318Y-126199999D01*
X146394318Y-126200000D01*
X146414955Y-126356758D01*
X146414957Y-126356766D01*
X146475462Y-126502838D01*
X146475462Y-126502839D01*
X146547837Y-126597160D01*
X146571718Y-126628282D01*
X146697159Y-126724536D01*
X146697160Y-126724536D01*
X146697161Y-126724537D01*
X146843233Y-126785042D01*
X146843238Y-126785044D01*
X146960639Y-126800500D01*
X146999999Y-126805682D01*
X147000000Y-126805682D01*
X147000001Y-126805682D01*
X147039361Y-126800500D01*
X147156762Y-126785044D01*
X147302841Y-126724536D01*
X147428282Y-126628282D01*
X147524536Y-126502841D01*
X147585044Y-126356762D01*
X147605682Y-126200000D01*
X147585044Y-126043238D01*
X147565958Y-125997160D01*
X147524537Y-125897161D01*
X147524537Y-125897160D01*
X147428286Y-125771723D01*
X147428285Y-125771722D01*
X147428282Y-125771718D01*
X147372290Y-125728754D01*
X147346823Y-125699714D01*
X147326966Y-125665322D01*
X147320480Y-125654087D01*
X145284678Y-123618285D01*
X145256901Y-123563768D01*
X145256018Y-123552554D01*
X145246403Y-123479520D01*
X145235044Y-123393238D01*
X145174536Y-123247159D01*
X145172559Y-123242386D01*
X145167758Y-123181389D01*
X145199728Y-123129220D01*
X145256256Y-123105805D01*
X145264023Y-123105500D01*
X146041658Y-123105500D01*
X146041666Y-123105500D01*
X146079741Y-123103118D01*
X146110407Y-123099266D01*
X146122780Y-123097454D01*
X146166490Y-123081463D01*
X146227633Y-123079229D01*
X146278414Y-123113360D01*
X146299435Y-123170821D01*
X146299501Y-123174438D01*
X146299501Y-124047274D01*
X146299501Y-124152728D01*
X146323571Y-124242560D01*
X146326795Y-124254593D01*
X146379517Y-124345909D01*
X146379519Y-124345911D01*
X146379521Y-124345914D01*
X148265323Y-126231716D01*
X148293099Y-126286231D01*
X148293981Y-126297447D01*
X148314955Y-126456758D01*
X148314957Y-126456766D01*
X148375462Y-126602838D01*
X148375462Y-126602839D01*
X148468844Y-126724537D01*
X148471718Y-126728282D01*
X148597159Y-126824536D01*
X148597160Y-126824536D01*
X148597161Y-126824537D01*
X148712703Y-126872396D01*
X148743238Y-126885044D01*
X148856833Y-126899999D01*
X148899999Y-126905682D01*
X148900000Y-126905682D01*
X148900001Y-126905682D01*
X148943167Y-126899999D01*
X149056762Y-126885044D01*
X149202841Y-126824536D01*
X149328282Y-126728282D01*
X149424536Y-126602841D01*
X149485044Y-126456762D01*
X149505682Y-126300000D01*
X149485044Y-126143238D01*
X149458650Y-126079517D01*
X149424537Y-125997161D01*
X149424537Y-125997160D01*
X149328286Y-125871723D01*
X149328285Y-125871722D01*
X149328282Y-125871718D01*
X149328277Y-125871714D01*
X149328276Y-125871713D01*
X149202838Y-125775462D01*
X149056766Y-125714957D01*
X149056758Y-125714955D01*
X148893567Y-125693471D01*
X148893794Y-125691743D01*
X148843528Y-125675411D01*
X148831715Y-125665322D01*
X147129497Y-123963104D01*
X147101720Y-123908587D01*
X147100501Y-123893100D01*
X147100501Y-123174938D01*
X147119408Y-123116747D01*
X147168908Y-123080783D01*
X147227394Y-123079949D01*
X147253029Y-123087476D01*
X147272264Y-123093124D01*
X147358336Y-123105500D01*
X152823845Y-123105500D01*
X152882036Y-123124407D01*
X152918000Y-123173907D01*
X152918000Y-123235093D01*
X152915312Y-123242378D01*
X152915309Y-123242386D01*
X152914956Y-123243236D01*
X152914955Y-123243241D01*
X152894318Y-123399999D01*
X152894318Y-123400000D01*
X152914955Y-123556758D01*
X152914956Y-123556763D01*
X152926536Y-123584718D01*
X152948970Y-123638880D01*
X152951271Y-123644433D01*
X152956072Y-123705430D01*
X152929811Y-123752323D01*
X148394571Y-128287563D01*
X148348858Y-128310854D01*
X148349507Y-128313276D01*
X148343237Y-128314956D01*
X148197161Y-128375462D01*
X148197160Y-128375462D01*
X148071723Y-128471713D01*
X148071713Y-128471723D01*
X147975462Y-128597160D01*
X147975462Y-128597161D01*
X147914957Y-128743233D01*
X147914955Y-128743241D01*
X147894318Y-128899999D01*
X147894318Y-128900000D01*
X147914955Y-129056758D01*
X147914957Y-129056766D01*
X147975462Y-129202838D01*
X147975462Y-129202839D01*
X148071713Y-129328276D01*
X148071718Y-129328282D01*
X148197159Y-129424536D01*
X148343238Y-129485044D01*
X148443784Y-129498281D01*
X148499999Y-129505682D01*
X148500000Y-129505682D01*
X148500001Y-129505682D01*
X148556216Y-129498281D01*
X148656762Y-129485044D01*
X148802841Y-129424536D01*
X148928282Y-129328282D01*
X149024536Y-129202841D01*
X149085044Y-129056762D01*
X149105682Y-128900000D01*
X149089862Y-128779834D01*
X149101012Y-128719674D01*
X149118008Y-128696912D01*
X153820480Y-123994442D01*
X153873207Y-123903117D01*
X153875495Y-123894578D01*
X153908815Y-123843261D01*
X153910775Y-123841714D01*
X153928282Y-123828282D01*
X154024536Y-123702841D01*
X154085044Y-123556762D01*
X154105682Y-123400000D01*
X154085044Y-123243238D01*
X154084689Y-123242383D01*
X154084638Y-123241725D01*
X154083364Y-123236970D01*
X154084245Y-123236733D01*
X154079891Y-123181387D01*
X154111861Y-123129219D01*
X154168389Y-123105805D01*
X154176155Y-123105500D01*
X157365266Y-123105500D01*
X157423457Y-123124407D01*
X157459421Y-123173907D01*
X157459421Y-123235093D01*
X157456730Y-123242385D01*
X157414957Y-123343233D01*
X157414955Y-123343241D01*
X157393471Y-123506433D01*
X157391742Y-123506205D01*
X157375411Y-123556471D01*
X157365322Y-123568284D01*
X156263103Y-124670504D01*
X156208586Y-124698281D01*
X156193099Y-124699500D01*
X155352727Y-124699500D01*
X155247273Y-124699500D01*
X155145412Y-124726793D01*
X155145411Y-124726793D01*
X155145409Y-124726794D01*
X155100495Y-124752726D01*
X155054086Y-124779520D01*
X154979519Y-124854086D01*
X154979520Y-124854087D01*
X154979518Y-124854089D01*
X152988986Y-126844619D01*
X152934469Y-126872396D01*
X152906062Y-126872768D01*
X152874268Y-126868583D01*
X152874264Y-126868583D01*
X152717506Y-126889220D01*
X152717498Y-126889222D01*
X152571426Y-126949727D01*
X152571425Y-126949727D01*
X152445988Y-127045978D01*
X152445978Y-127045988D01*
X152349727Y-127171425D01*
X152349727Y-127171426D01*
X152289222Y-127317498D01*
X152289220Y-127317506D01*
X152268583Y-127474264D01*
X152268583Y-127474265D01*
X152289220Y-127631023D01*
X152289222Y-127631031D01*
X152349727Y-127777103D01*
X152349727Y-127777104D01*
X152443175Y-127898888D01*
X152445983Y-127902547D01*
X152571424Y-127998801D01*
X152717503Y-128059309D01*
X152835074Y-128074787D01*
X152874264Y-128079947D01*
X152874265Y-128079947D01*
X152874266Y-128079947D01*
X152905617Y-128075819D01*
X153031027Y-128059309D01*
X153177106Y-127998801D01*
X153302547Y-127902547D01*
X153398801Y-127777106D01*
X153459309Y-127631027D01*
X153473713Y-127521610D01*
X153500053Y-127466386D01*
X153501824Y-127464567D01*
X155436896Y-125529496D01*
X155491413Y-125501719D01*
X155506900Y-125500500D01*
X156452725Y-125500500D01*
X156452727Y-125500500D01*
X156554588Y-125473207D01*
X156554590Y-125473205D01*
X156554592Y-125473205D01*
X156645908Y-125420483D01*
X156645908Y-125420482D01*
X156645913Y-125420480D01*
X157931714Y-124134677D01*
X157986231Y-124106901D01*
X157997447Y-124106018D01*
X157999999Y-124105681D01*
X158000000Y-124105682D01*
X158156762Y-124085044D01*
X158302841Y-124024536D01*
X158420657Y-123934132D01*
X158429722Y-123930922D01*
X158434132Y-123920657D01*
X158524536Y-123802841D01*
X158585044Y-123656762D01*
X158605682Y-123500000D01*
X158585044Y-123343238D01*
X158545247Y-123247159D01*
X158543270Y-123242385D01*
X158538469Y-123181389D01*
X158570439Y-123129220D01*
X158626967Y-123105805D01*
X158634734Y-123105500D01*
X158775996Y-123105500D01*
X158776000Y-123105500D01*
X158840941Y-123098518D01*
X158840949Y-123098516D01*
X158840951Y-123098516D01*
X158892425Y-123087318D01*
X158892426Y-123087317D01*
X158892452Y-123087312D01*
X158930658Y-123076354D01*
X159027571Y-123019675D01*
X159035669Y-123012657D01*
X159092024Y-122988839D01*
X159151620Y-123002695D01*
X159191690Y-123048935D01*
X159199500Y-123087476D01*
X159199500Y-123393098D01*
X159180593Y-123451289D01*
X159170504Y-123463102D01*
X158582679Y-124050927D01*
X158564222Y-124060331D01*
X158550927Y-124082679D01*
X154768284Y-127865322D01*
X154713767Y-127893099D01*
X154702555Y-127893981D01*
X154543241Y-127914955D01*
X154543233Y-127914957D01*
X154397161Y-127975462D01*
X154397160Y-127975462D01*
X154271723Y-128071713D01*
X154271713Y-128071723D01*
X154175462Y-128197160D01*
X154175462Y-128197161D01*
X154114957Y-128343233D01*
X154114955Y-128343241D01*
X154094318Y-128499999D01*
X154094318Y-128500000D01*
X154114955Y-128656758D01*
X154114957Y-128656766D01*
X154175462Y-128802838D01*
X154175462Y-128802839D01*
X154254376Y-128905682D01*
X154271718Y-128928282D01*
X154397159Y-129024536D01*
X154397160Y-129024536D01*
X154397161Y-129024537D01*
X154474959Y-129056762D01*
X154543238Y-129085044D01*
X154660809Y-129100522D01*
X154699999Y-129105682D01*
X154700000Y-129105682D01*
X154700001Y-129105682D01*
X154731352Y-129101554D01*
X154856762Y-129085044D01*
X155002841Y-129024536D01*
X155128282Y-128928282D01*
X155224536Y-128802841D01*
X155285044Y-128656762D01*
X155305682Y-128500000D01*
X155305682Y-128499999D01*
X155306529Y-128493567D01*
X155308256Y-128493794D01*
X155324589Y-128443527D01*
X155334678Y-128431714D01*
X157566393Y-126199999D01*
X159920480Y-123845913D01*
X159930659Y-123828282D01*
X159973207Y-123754587D01*
X160000500Y-123652727D01*
X160000500Y-122497071D01*
X160019407Y-122438880D01*
X160026715Y-122430324D01*
X160028282Y-122428282D01*
X160124536Y-122302841D01*
X160185044Y-122156762D01*
X160205682Y-122000000D01*
X160185044Y-121843238D01*
X160124537Y-121697161D01*
X160124537Y-121697160D01*
X160028286Y-121571723D01*
X160028285Y-121571722D01*
X160028282Y-121571718D01*
X160028277Y-121571714D01*
X160028276Y-121571713D01*
X159902838Y-121475462D01*
X159756766Y-121414957D01*
X159756758Y-121414955D01*
X159600001Y-121394318D01*
X159599999Y-121394318D01*
X159443241Y-121414955D01*
X159443233Y-121414957D01*
X159342385Y-121456730D01*
X159281389Y-121461531D01*
X159229220Y-121429561D01*
X159205805Y-121373033D01*
X159205500Y-121365266D01*
X159205500Y-120086488D01*
X159224407Y-120028297D01*
X159273907Y-119992333D01*
X159332396Y-119991500D01*
X159337921Y-119993122D01*
X159337928Y-119993124D01*
X159424000Y-120005500D01*
X159424001Y-120005500D01*
X165275996Y-120005500D01*
X165276000Y-120005500D01*
X165340941Y-119998518D01*
X165340949Y-119998516D01*
X165340951Y-119998516D01*
X165392425Y-119987318D01*
X165392426Y-119987317D01*
X165392452Y-119987312D01*
X165430658Y-119976354D01*
X165527571Y-119919675D01*
X165580375Y-119873920D01*
X165622553Y-119829187D01*
X165673439Y-119729111D01*
X165693124Y-119662072D01*
X165705500Y-119576000D01*
X165705500Y-114824000D01*
X165698518Y-114759059D01*
X165691343Y-114726079D01*
X165687318Y-114707574D01*
X165687316Y-114707569D01*
X165687312Y-114707548D01*
X165676354Y-114669342D01*
X165619675Y-114572429D01*
X165573920Y-114519625D01*
X165529187Y-114477447D01*
X165526058Y-114475856D01*
X165429114Y-114426562D01*
X165429107Y-114426559D01*
X165362078Y-114406877D01*
X165362068Y-114406875D01*
X165297762Y-114397629D01*
X165276000Y-114394500D01*
X159424000Y-114394500D01*
X159378411Y-114399401D01*
X159359048Y-114401483D01*
X159307574Y-114412681D01*
X159307554Y-114412686D01*
X159307548Y-114412688D01*
X159269342Y-114423646D01*
X159172426Y-114480327D01*
X159119625Y-114526079D01*
X159119624Y-114526080D01*
X159077446Y-114570814D01*
X159026562Y-114670885D01*
X159026559Y-114670892D01*
X159006877Y-114737921D01*
X159006875Y-114737931D01*
X158994500Y-114824000D01*
X158994500Y-116713511D01*
X158975593Y-116771702D01*
X158926093Y-116807666D01*
X158867613Y-116808502D01*
X158862078Y-116806877D01*
X158862068Y-116806875D01*
X158797762Y-116797629D01*
X158776000Y-116794500D01*
X153424000Y-116794500D01*
X153378411Y-116799401D01*
X153359048Y-116801483D01*
X153307574Y-116812681D01*
X153307554Y-116812686D01*
X153307548Y-116812688D01*
X153284080Y-116819418D01*
X153269341Y-116823646D01*
X153254478Y-116832339D01*
X153194701Y-116845394D01*
X153138668Y-116820820D01*
X153107780Y-116768004D01*
X153105500Y-116746880D01*
X153105500Y-115024003D01*
X153105500Y-115024000D01*
X153098518Y-114959059D01*
X153087312Y-114907548D01*
X153076354Y-114869342D01*
X153019675Y-114772429D01*
X152973920Y-114719625D01*
X152929187Y-114677447D01*
X152926058Y-114675856D01*
X152829114Y-114626562D01*
X152829107Y-114626559D01*
X152762078Y-114606877D01*
X152762068Y-114606875D01*
X152697762Y-114597629D01*
X152676000Y-114594500D01*
X145924000Y-114594500D01*
X145878411Y-114599401D01*
X145859048Y-114601483D01*
X145807574Y-114612681D01*
X145807554Y-114612686D01*
X145807548Y-114612688D01*
X145769342Y-114623646D01*
X145688564Y-114670889D01*
X145672426Y-114680327D01*
X145619625Y-114726079D01*
X145619624Y-114726080D01*
X145577446Y-114770814D01*
X145526562Y-114870885D01*
X145526559Y-114870892D01*
X145506877Y-114937921D01*
X145506875Y-114937931D01*
X145494500Y-115024000D01*
X145494500Y-116813511D01*
X145475593Y-116871702D01*
X145426093Y-116907666D01*
X145367613Y-116908502D01*
X145362078Y-116906877D01*
X145362068Y-116906875D01*
X145297762Y-116897629D01*
X145276000Y-116894500D01*
X139924000Y-116894500D01*
X139878411Y-116899401D01*
X139859048Y-116901483D01*
X139807574Y-116912681D01*
X139807554Y-116912686D01*
X139807548Y-116912688D01*
X139769342Y-116923646D01*
X139707509Y-116959809D01*
X139672426Y-116980327D01*
X139619625Y-117026079D01*
X139619624Y-117026080D01*
X139577446Y-117070814D01*
X139526562Y-117170885D01*
X139526559Y-117170892D01*
X139506877Y-117237921D01*
X139506875Y-117237931D01*
X139494500Y-117324000D01*
X139494500Y-120095500D01*
X139475593Y-120153691D01*
X139426093Y-120189655D01*
X139395500Y-120194500D01*
X139196095Y-120194500D01*
X139137904Y-120175593D01*
X139101940Y-120126093D01*
X139101940Y-120064907D01*
X139119328Y-120035572D01*
X139118480Y-120034975D01*
X139122552Y-120029188D01*
X139123006Y-120028297D01*
X139173439Y-119929111D01*
X139193124Y-119862072D01*
X139205500Y-119776000D01*
X139205500Y-115024000D01*
X139198518Y-114959059D01*
X139187312Y-114907548D01*
X139176354Y-114869342D01*
X139119675Y-114772429D01*
X139073920Y-114719625D01*
X139029187Y-114677447D01*
X139026058Y-114675856D01*
X138929114Y-114626562D01*
X138929107Y-114626559D01*
X138862078Y-114606877D01*
X138862068Y-114606875D01*
X138797762Y-114597629D01*
X138776000Y-114594500D01*
X132024000Y-114594500D01*
X131978411Y-114599401D01*
X131959048Y-114601483D01*
X131907574Y-114612681D01*
X131907554Y-114612686D01*
X131907548Y-114612688D01*
X131869342Y-114623646D01*
X131788564Y-114670889D01*
X131772426Y-114680327D01*
X131719625Y-114726079D01*
X131719624Y-114726080D01*
X131677446Y-114770814D01*
X131626562Y-114870885D01*
X131626559Y-114870892D01*
X131606877Y-114937921D01*
X131606875Y-114937931D01*
X131594500Y-115024000D01*
X131594500Y-116913511D01*
X131575593Y-116971702D01*
X131526093Y-117007666D01*
X131467613Y-117008502D01*
X131462078Y-117006877D01*
X131462068Y-117006875D01*
X131397762Y-116997629D01*
X131376000Y-116994500D01*
X126024000Y-116994500D01*
X125978411Y-116999401D01*
X125959048Y-117001483D01*
X125907574Y-117012681D01*
X125907554Y-117012686D01*
X125907548Y-117012688D01*
X125869342Y-117023646D01*
X125788692Y-117070814D01*
X125772426Y-117080327D01*
X125719625Y-117126079D01*
X125719624Y-117126080D01*
X125677446Y-117170814D01*
X125626562Y-117270885D01*
X125626559Y-117270892D01*
X125606877Y-117337921D01*
X125606875Y-117337931D01*
X125594500Y-117424000D01*
X124100500Y-117424000D01*
X124100500Y-111024997D01*
X145194451Y-111024997D01*
X145194451Y-111025002D01*
X145214616Y-111294098D01*
X145214618Y-111294107D01*
X145274666Y-111557197D01*
X145326339Y-111688855D01*
X145373257Y-111808398D01*
X145508185Y-112042102D01*
X145508189Y-112042108D01*
X145508191Y-112042110D01*
X145676434Y-112253081D01*
X145676440Y-112253087D01*
X145874252Y-112436629D01*
X145874254Y-112436630D01*
X145874259Y-112436635D01*
X146097226Y-112588651D01*
X146340359Y-112705738D01*
X146598228Y-112785280D01*
X146865071Y-112825500D01*
X146865076Y-112825500D01*
X147134924Y-112825500D01*
X147134929Y-112825500D01*
X147401772Y-112785280D01*
X147659641Y-112705738D01*
X147902775Y-112588651D01*
X148125741Y-112436635D01*
X148323561Y-112253085D01*
X148323565Y-112253081D01*
X148418855Y-112133589D01*
X148491815Y-112042102D01*
X148626743Y-111808398D01*
X148657844Y-111729155D01*
X148696703Y-111681895D01*
X148755921Y-111666501D01*
X148812877Y-111688855D01*
X148842156Y-111729155D01*
X148873257Y-111808398D01*
X149008185Y-112042102D01*
X149008189Y-112042108D01*
X149008191Y-112042110D01*
X149176434Y-112253081D01*
X149176440Y-112253087D01*
X149374252Y-112436629D01*
X149374254Y-112436630D01*
X149374259Y-112436635D01*
X149597226Y-112588651D01*
X149840359Y-112705738D01*
X150098228Y-112785280D01*
X150365071Y-112825500D01*
X150365076Y-112825500D01*
X150634924Y-112825500D01*
X150634929Y-112825500D01*
X150901772Y-112785280D01*
X151159641Y-112705738D01*
X151402775Y-112588651D01*
X151625741Y-112436635D01*
X151823561Y-112253085D01*
X151823565Y-112253081D01*
X151918855Y-112133589D01*
X151991815Y-112042102D01*
X152014764Y-112002351D01*
X152060232Y-111961412D01*
X152121082Y-111955015D01*
X152174070Y-111985607D01*
X152198958Y-112041502D01*
X152199500Y-112051852D01*
X152199500Y-112569860D01*
X152199501Y-112569863D01*
X152202414Y-112594990D01*
X152227756Y-112652385D01*
X152247794Y-112697765D01*
X152327235Y-112777206D01*
X152430009Y-112822585D01*
X152455135Y-112825500D01*
X155544864Y-112825499D01*
X155569991Y-112822585D01*
X155672765Y-112777206D01*
X155752206Y-112697765D01*
X155797585Y-112594991D01*
X155800500Y-112569865D01*
X155800499Y-109480136D01*
X155797585Y-109455009D01*
X155752206Y-109352235D01*
X155672765Y-109272794D01*
X155569991Y-109227415D01*
X155569990Y-109227414D01*
X155569988Y-109227414D01*
X155544868Y-109224500D01*
X152455139Y-109224500D01*
X152455136Y-109224501D01*
X152430009Y-109227414D01*
X152327235Y-109272794D01*
X152247794Y-109352235D01*
X152202414Y-109455011D01*
X152199500Y-109480130D01*
X152199500Y-109998146D01*
X152180593Y-110056337D01*
X152131093Y-110092301D01*
X152069907Y-110092301D01*
X152020407Y-110056337D01*
X152014764Y-110047647D01*
X152012952Y-110044510D01*
X151991815Y-110007898D01*
X151984038Y-109998146D01*
X151823565Y-109796918D01*
X151823559Y-109796912D01*
X151625747Y-109613370D01*
X151625744Y-109613368D01*
X151625741Y-109613365D01*
X151402775Y-109461349D01*
X151389610Y-109455009D01*
X151159643Y-109344262D01*
X150901776Y-109264721D01*
X150901773Y-109264720D01*
X150901772Y-109264720D01*
X150901767Y-109264719D01*
X150901766Y-109264719D01*
X150634932Y-109224500D01*
X150634929Y-109224500D01*
X150365071Y-109224500D01*
X150365067Y-109224500D01*
X150098233Y-109264719D01*
X150098223Y-109264721D01*
X149840358Y-109344262D01*
X149597233Y-109461345D01*
X149597229Y-109461347D01*
X149597226Y-109461349D01*
X149374259Y-109613365D01*
X149374252Y-109613370D01*
X149176440Y-109796912D01*
X149176434Y-109796918D01*
X149008191Y-110007889D01*
X149008187Y-110007894D01*
X149008185Y-110007898D01*
X148980219Y-110056337D01*
X148873258Y-110241599D01*
X148873254Y-110241608D01*
X148842156Y-110320844D01*
X148803296Y-110368105D01*
X148744079Y-110383498D01*
X148687123Y-110361144D01*
X148657844Y-110320844D01*
X148626745Y-110241608D01*
X148626743Y-110241602D01*
X148491815Y-110007898D01*
X148484038Y-109998146D01*
X148323565Y-109796918D01*
X148323559Y-109796912D01*
X148125747Y-109613370D01*
X148125744Y-109613368D01*
X148125741Y-109613365D01*
X147902775Y-109461349D01*
X147889610Y-109455009D01*
X147659643Y-109344262D01*
X147401776Y-109264721D01*
X147401773Y-109264720D01*
X147401772Y-109264720D01*
X147401767Y-109264719D01*
X147401766Y-109264719D01*
X147134932Y-109224500D01*
X147134929Y-109224500D01*
X146865071Y-109224500D01*
X146865067Y-109224500D01*
X146598233Y-109264719D01*
X146598223Y-109264721D01*
X146340358Y-109344262D01*
X146097233Y-109461345D01*
X146097229Y-109461347D01*
X146097226Y-109461349D01*
X145874259Y-109613365D01*
X145874252Y-109613370D01*
X145676440Y-109796912D01*
X145676434Y-109796918D01*
X145508191Y-110007889D01*
X145508187Y-110007894D01*
X145508185Y-110007898D01*
X145480219Y-110056337D01*
X145373258Y-110241599D01*
X145373254Y-110241608D01*
X145274666Y-110492802D01*
X145214618Y-110755892D01*
X145214616Y-110755901D01*
X145194451Y-111024997D01*
X124100500Y-111024997D01*
X124100500Y-106024996D01*
X142994659Y-106024996D01*
X142994659Y-106025003D01*
X143013974Y-106221126D01*
X143013975Y-106221129D01*
X143071187Y-106409730D01*
X143071188Y-106409732D01*
X143142218Y-106542618D01*
X143164090Y-106583538D01*
X143164092Y-106583540D01*
X143164093Y-106583542D01*
X143289112Y-106735878D01*
X143289121Y-106735887D01*
X143441457Y-106860906D01*
X143441462Y-106860910D01*
X143615273Y-106953814D01*
X143803868Y-107011024D01*
X143803870Y-107011024D01*
X143803873Y-107011025D01*
X143999997Y-107030341D01*
X144000000Y-107030341D01*
X144000003Y-107030341D01*
X144196126Y-107011025D01*
X144196127Y-107011024D01*
X144196132Y-107011024D01*
X144384727Y-106953814D01*
X144558538Y-106860910D01*
X144710883Y-106735883D01*
X144835910Y-106583538D01*
X144928814Y-106409727D01*
X144986024Y-106221132D01*
X145005341Y-106025000D01*
X145005341Y-106024996D01*
X155994659Y-106024996D01*
X155994659Y-106025003D01*
X156013974Y-106221126D01*
X156013975Y-106221129D01*
X156071187Y-106409730D01*
X156071188Y-106409732D01*
X156142218Y-106542618D01*
X156164090Y-106583538D01*
X156164092Y-106583540D01*
X156164093Y-106583542D01*
X156289112Y-106735878D01*
X156289121Y-106735887D01*
X156441457Y-106860906D01*
X156441462Y-106860910D01*
X156615273Y-106953814D01*
X156803868Y-107011024D01*
X156803870Y-107011024D01*
X156803873Y-107011025D01*
X156999997Y-107030341D01*
X157000000Y-107030341D01*
X157000003Y-107030341D01*
X157196126Y-107011025D01*
X157196127Y-107011024D01*
X157196132Y-107011024D01*
X157384727Y-106953814D01*
X157558538Y-106860910D01*
X157710883Y-106735883D01*
X157835910Y-106583538D01*
X157928814Y-106409727D01*
X157986024Y-106221132D01*
X158005341Y-106025000D01*
X158005341Y-106024996D01*
X157986025Y-105828873D01*
X157986024Y-105828870D01*
X157986024Y-105828868D01*
X157928814Y-105640273D01*
X157835910Y-105466462D01*
X157835906Y-105466457D01*
X157710887Y-105314121D01*
X157710878Y-105314112D01*
X157558542Y-105189093D01*
X157558540Y-105189092D01*
X157558538Y-105189090D01*
X157517618Y-105167218D01*
X157384732Y-105096188D01*
X157384730Y-105096187D01*
X157196129Y-105038975D01*
X157196126Y-105038974D01*
X157000003Y-105019659D01*
X156999997Y-105019659D01*
X156803873Y-105038974D01*
X156803870Y-105038975D01*
X156615269Y-105096187D01*
X156615267Y-105096188D01*
X156441467Y-105189087D01*
X156441457Y-105189093D01*
X156289121Y-105314112D01*
X156289112Y-105314121D01*
X156164093Y-105466457D01*
X156164087Y-105466467D01*
X156071188Y-105640267D01*
X156071187Y-105640269D01*
X156013975Y-105828870D01*
X156013974Y-105828873D01*
X155994659Y-106024996D01*
X145005341Y-106024996D01*
X144986025Y-105828873D01*
X144986024Y-105828870D01*
X144986024Y-105828868D01*
X144928814Y-105640273D01*
X144835910Y-105466462D01*
X144835906Y-105466457D01*
X144710887Y-105314121D01*
X144710878Y-105314112D01*
X144558542Y-105189093D01*
X144558540Y-105189092D01*
X144558538Y-105189090D01*
X144517618Y-105167218D01*
X144384732Y-105096188D01*
X144384730Y-105096187D01*
X144196129Y-105038975D01*
X144196126Y-105038974D01*
X144000003Y-105019659D01*
X143999997Y-105019659D01*
X143803873Y-105038974D01*
X143803870Y-105038975D01*
X143615269Y-105096187D01*
X143615267Y-105096188D01*
X143441467Y-105189087D01*
X143441457Y-105189093D01*
X143289121Y-105314112D01*
X143289112Y-105314121D01*
X143164093Y-105466457D01*
X143164087Y-105466467D01*
X143071188Y-105640267D01*
X143071187Y-105640269D01*
X143013975Y-105828870D01*
X143013974Y-105828873D01*
X142994659Y-106024996D01*
X124100500Y-106024996D01*
X124100500Y-103399500D01*
X124119407Y-103341309D01*
X124168907Y-103305345D01*
X124199500Y-103300500D01*
X167000500Y-103300500D01*
X167058691Y-103319407D01*
G37*
%TD.AperFunction*%
%TD*%
%TA.AperFunction,Conductor*%
%TO.N,/OUT_C*%
G36*
X138843039Y-114919685D02*
G01*
X138888794Y-114972489D01*
X138900000Y-115024000D01*
X138900000Y-119776000D01*
X138880315Y-119843039D01*
X138827511Y-119888794D01*
X138776000Y-119900000D01*
X132024000Y-119900000D01*
X131956961Y-119880315D01*
X131911206Y-119827511D01*
X131900000Y-119776000D01*
X131900000Y-115024000D01*
X131919685Y-114956961D01*
X131972489Y-114911206D01*
X132024000Y-114900000D01*
X138776000Y-114900000D01*
X138843039Y-114919685D01*
G37*
%TD.AperFunction*%
%TD*%
%TA.AperFunction,Conductor*%
%TO.N,/OUT_B*%
G36*
X152743039Y-114919685D02*
G01*
X152788794Y-114972489D01*
X152800000Y-115024000D01*
X152800000Y-119776000D01*
X152780315Y-119843039D01*
X152727511Y-119888794D01*
X152676000Y-119900000D01*
X145924000Y-119900000D01*
X145856961Y-119880315D01*
X145811206Y-119827511D01*
X145800000Y-119776000D01*
X145800000Y-115024000D01*
X145819685Y-114956961D01*
X145872489Y-114911206D01*
X145924000Y-114900000D01*
X152676000Y-114900000D01*
X152743039Y-114919685D01*
G37*
%TD.AperFunction*%
%TD*%
%TA.AperFunction,Conductor*%
%TO.N,VDDPWR*%
G36*
X158843039Y-117119685D02*
G01*
X158888794Y-117172489D01*
X158900000Y-117224000D01*
X158900000Y-122676000D01*
X158880315Y-122743039D01*
X158827511Y-122788794D01*
X158776000Y-122800000D01*
X153551285Y-122800000D01*
X153535101Y-122798939D01*
X153500000Y-122794318D01*
X153464898Y-122798939D01*
X153448715Y-122800000D01*
X147358336Y-122800000D01*
X147291297Y-122780315D01*
X147245542Y-122727511D01*
X147235598Y-122658353D01*
X147243773Y-122628551D01*
X147285045Y-122528914D01*
X147305683Y-122372152D01*
X147285045Y-122215390D01*
X147224537Y-122069311D01*
X147128283Y-121943870D01*
X147002842Y-121847616D01*
X146856763Y-121787108D01*
X146856761Y-121787107D01*
X146700002Y-121766470D01*
X146700000Y-121766470D01*
X146543240Y-121787107D01*
X146543238Y-121787108D01*
X146397161Y-121847615D01*
X146271719Y-121943870D01*
X146175464Y-122069312D01*
X146114957Y-122215389D01*
X146114956Y-122215391D01*
X146094319Y-122372150D01*
X146094319Y-122372153D01*
X146114956Y-122528912D01*
X146114957Y-122528914D01*
X146156227Y-122628548D01*
X146163696Y-122698016D01*
X146132421Y-122760496D01*
X146072332Y-122796148D01*
X146041666Y-122800000D01*
X140407233Y-122800000D01*
X140340194Y-122780315D01*
X140331747Y-122774376D01*
X140202842Y-122675464D01*
X140056762Y-122614956D01*
X140056760Y-122614955D01*
X139900001Y-122594318D01*
X139899999Y-122594318D01*
X139743239Y-122614955D01*
X139743237Y-122614956D01*
X139597157Y-122675464D01*
X139468253Y-122774376D01*
X139403084Y-122799570D01*
X139392767Y-122800000D01*
X126024000Y-122800000D01*
X125956961Y-122780315D01*
X125911206Y-122727511D01*
X125900000Y-122676000D01*
X125900000Y-117424000D01*
X125919685Y-117356961D01*
X125972489Y-117311206D01*
X126024000Y-117300000D01*
X131376000Y-117300000D01*
X131443039Y-117319685D01*
X131488794Y-117372489D01*
X131500000Y-117424000D01*
X131500000Y-120500000D01*
X139800000Y-120500000D01*
X139800000Y-117324000D01*
X139819685Y-117256961D01*
X139872489Y-117211206D01*
X139924000Y-117200000D01*
X145276000Y-117200000D01*
X145343039Y-117219685D01*
X145388794Y-117272489D01*
X145400000Y-117324000D01*
X145400000Y-120500000D01*
X153300000Y-120500000D01*
X153300000Y-117224000D01*
X153319685Y-117156961D01*
X153372489Y-117111206D01*
X153424000Y-117100000D01*
X158776000Y-117100000D01*
X158843039Y-117119685D01*
G37*
%TD.AperFunction*%
%TD*%
%TA.AperFunction,Conductor*%
%TO.N,/OUT_A*%
G36*
X165343039Y-114719685D02*
G01*
X165388794Y-114772489D01*
X165400000Y-114824000D01*
X165400000Y-119576000D01*
X165380315Y-119643039D01*
X165327511Y-119688794D01*
X165276000Y-119700000D01*
X159424000Y-119700000D01*
X159356961Y-119680315D01*
X159311206Y-119627511D01*
X159300000Y-119576000D01*
X159300000Y-114824000D01*
X159319685Y-114756961D01*
X159372489Y-114711206D01*
X159424000Y-114700000D01*
X165276000Y-114700000D01*
X165343039Y-114719685D01*
G37*
%TD.AperFunction*%
%TD*%
M02*
