%TF.GenerationSoftware,KiCad,Pcbnew,8.0.3+1*%
%TF.CreationDate,2024-07-16T14:24:49+00:00*%
%TF.ProjectId,TFESC02,54464553-4330-4322-9e6b-696361645f70,rev?*%
%TF.SameCoordinates,Original*%
%TF.FileFunction,Legend,Top*%
%TF.FilePolarity,Positive*%
%FSLAX46Y46*%
G04 Gerber Fmt 4.6, Leading zero omitted, Abs format (unit mm)*
G04 Created by KiCad (PCBNEW 8.0.3+1) date 2024-07-16 14:24:49*
%MOMM*%
%LPD*%
G01*
G04 APERTURE LIST*
%ADD10C,0.100000*%
%ADD11C,0.150000*%
%ADD12C,0.120000*%
%ADD13C,0.200000*%
G04 APERTURE END LIST*
D10*
X152258704Y-130239285D02*
X152296800Y-130277381D01*
X152296800Y-130277381D02*
X152334895Y-130391666D01*
X152334895Y-130391666D02*
X152334895Y-130467857D01*
X152334895Y-130467857D02*
X152296800Y-130582143D01*
X152296800Y-130582143D02*
X152220609Y-130658333D01*
X152220609Y-130658333D02*
X152144419Y-130696428D01*
X152144419Y-130696428D02*
X151992038Y-130734524D01*
X151992038Y-130734524D02*
X151877752Y-130734524D01*
X151877752Y-130734524D02*
X151725371Y-130696428D01*
X151725371Y-130696428D02*
X151649180Y-130658333D01*
X151649180Y-130658333D02*
X151572990Y-130582143D01*
X151572990Y-130582143D02*
X151534895Y-130467857D01*
X151534895Y-130467857D02*
X151534895Y-130391666D01*
X151534895Y-130391666D02*
X151572990Y-130277381D01*
X151572990Y-130277381D02*
X151611085Y-130239285D01*
X152334895Y-129477381D02*
X152334895Y-129934524D01*
X152334895Y-129705952D02*
X151534895Y-129705952D01*
X151534895Y-129705952D02*
X151649180Y-129782143D01*
X151649180Y-129782143D02*
X151725371Y-129858333D01*
X151725371Y-129858333D02*
X151763466Y-129934524D01*
X151534895Y-128982142D02*
X151534895Y-128905952D01*
X151534895Y-128905952D02*
X151572990Y-128829761D01*
X151572990Y-128829761D02*
X151611085Y-128791666D01*
X151611085Y-128791666D02*
X151687276Y-128753571D01*
X151687276Y-128753571D02*
X151839657Y-128715476D01*
X151839657Y-128715476D02*
X152030133Y-128715476D01*
X152030133Y-128715476D02*
X152182514Y-128753571D01*
X152182514Y-128753571D02*
X152258704Y-128791666D01*
X152258704Y-128791666D02*
X152296800Y-128829761D01*
X152296800Y-128829761D02*
X152334895Y-128905952D01*
X152334895Y-128905952D02*
X152334895Y-128982142D01*
X152334895Y-128982142D02*
X152296800Y-129058333D01*
X152296800Y-129058333D02*
X152258704Y-129096428D01*
X152258704Y-129096428D02*
X152182514Y-129134523D01*
X152182514Y-129134523D02*
X152030133Y-129172619D01*
X152030133Y-129172619D02*
X151839657Y-129172619D01*
X151839657Y-129172619D02*
X151687276Y-129134523D01*
X151687276Y-129134523D02*
X151611085Y-129096428D01*
X151611085Y-129096428D02*
X151572990Y-129058333D01*
X151572990Y-129058333D02*
X151534895Y-128982142D01*
X151933333Y-109014895D02*
X151933333Y-109586323D01*
X151933333Y-109586323D02*
X151895238Y-109700609D01*
X151895238Y-109700609D02*
X151819047Y-109776800D01*
X151819047Y-109776800D02*
X151704762Y-109814895D01*
X151704762Y-109814895D02*
X151628571Y-109814895D01*
X152695238Y-109014895D02*
X152314286Y-109014895D01*
X152314286Y-109014895D02*
X152276190Y-109395847D01*
X152276190Y-109395847D02*
X152314286Y-109357752D01*
X152314286Y-109357752D02*
X152390476Y-109319657D01*
X152390476Y-109319657D02*
X152580952Y-109319657D01*
X152580952Y-109319657D02*
X152657143Y-109357752D01*
X152657143Y-109357752D02*
X152695238Y-109395847D01*
X152695238Y-109395847D02*
X152733333Y-109472038D01*
X152733333Y-109472038D02*
X152733333Y-109662514D01*
X152733333Y-109662514D02*
X152695238Y-109738704D01*
X152695238Y-109738704D02*
X152657143Y-109776800D01*
X152657143Y-109776800D02*
X152580952Y-109814895D01*
X152580952Y-109814895D02*
X152390476Y-109814895D01*
X152390476Y-109814895D02*
X152314286Y-109776800D01*
X152314286Y-109776800D02*
X152276190Y-109738704D01*
X149785714Y-128918704D02*
X149747618Y-128956800D01*
X149747618Y-128956800D02*
X149633333Y-128994895D01*
X149633333Y-128994895D02*
X149557142Y-128994895D01*
X149557142Y-128994895D02*
X149442856Y-128956800D01*
X149442856Y-128956800D02*
X149366666Y-128880609D01*
X149366666Y-128880609D02*
X149328571Y-128804419D01*
X149328571Y-128804419D02*
X149290475Y-128652038D01*
X149290475Y-128652038D02*
X149290475Y-128537752D01*
X149290475Y-128537752D02*
X149328571Y-128385371D01*
X149328571Y-128385371D02*
X149366666Y-128309180D01*
X149366666Y-128309180D02*
X149442856Y-128232990D01*
X149442856Y-128232990D02*
X149557142Y-128194895D01*
X149557142Y-128194895D02*
X149633333Y-128194895D01*
X149633333Y-128194895D02*
X149747618Y-128232990D01*
X149747618Y-128232990D02*
X149785714Y-128271085D01*
X150547618Y-128994895D02*
X150090475Y-128994895D01*
X150319047Y-128994895D02*
X150319047Y-128194895D01*
X150319047Y-128194895D02*
X150242856Y-128309180D01*
X150242856Y-128309180D02*
X150166666Y-128385371D01*
X150166666Y-128385371D02*
X150090475Y-128423466D01*
X151309523Y-128994895D02*
X150852380Y-128994895D01*
X151080952Y-128994895D02*
X151080952Y-128194895D01*
X151080952Y-128194895D02*
X151004761Y-128309180D01*
X151004761Y-128309180D02*
X150928571Y-128385371D01*
X150928571Y-128385371D02*
X150852380Y-128423466D01*
X152285714Y-125294895D02*
X152019047Y-124913942D01*
X151828571Y-125294895D02*
X151828571Y-124494895D01*
X151828571Y-124494895D02*
X152133333Y-124494895D01*
X152133333Y-124494895D02*
X152209523Y-124532990D01*
X152209523Y-124532990D02*
X152247618Y-124571085D01*
X152247618Y-124571085D02*
X152285714Y-124647276D01*
X152285714Y-124647276D02*
X152285714Y-124761561D01*
X152285714Y-124761561D02*
X152247618Y-124837752D01*
X152247618Y-124837752D02*
X152209523Y-124875847D01*
X152209523Y-124875847D02*
X152133333Y-124913942D01*
X152133333Y-124913942D02*
X151828571Y-124913942D01*
X153047618Y-125294895D02*
X152590475Y-125294895D01*
X152819047Y-125294895D02*
X152819047Y-124494895D01*
X152819047Y-124494895D02*
X152742856Y-124609180D01*
X152742856Y-124609180D02*
X152666666Y-124685371D01*
X152666666Y-124685371D02*
X152590475Y-124723466D01*
X153314285Y-124494895D02*
X153809523Y-124494895D01*
X153809523Y-124494895D02*
X153542857Y-124799657D01*
X153542857Y-124799657D02*
X153657142Y-124799657D01*
X153657142Y-124799657D02*
X153733333Y-124837752D01*
X153733333Y-124837752D02*
X153771428Y-124875847D01*
X153771428Y-124875847D02*
X153809523Y-124952038D01*
X153809523Y-124952038D02*
X153809523Y-125142514D01*
X153809523Y-125142514D02*
X153771428Y-125218704D01*
X153771428Y-125218704D02*
X153733333Y-125256800D01*
X153733333Y-125256800D02*
X153657142Y-125294895D01*
X153657142Y-125294895D02*
X153428571Y-125294895D01*
X153428571Y-125294895D02*
X153352380Y-125256800D01*
X153352380Y-125256800D02*
X153314285Y-125218704D01*
X130826190Y-113733914D02*
X130902380Y-113772009D01*
X130902380Y-113772009D02*
X130978571Y-113848200D01*
X130978571Y-113848200D02*
X131092857Y-113962485D01*
X131092857Y-113962485D02*
X131169047Y-114000580D01*
X131169047Y-114000580D02*
X131245238Y-114000580D01*
X131207142Y-113810104D02*
X131283333Y-113848200D01*
X131283333Y-113848200D02*
X131359523Y-113924390D01*
X131359523Y-113924390D02*
X131397619Y-114076771D01*
X131397619Y-114076771D02*
X131397619Y-114343438D01*
X131397619Y-114343438D02*
X131359523Y-114495819D01*
X131359523Y-114495819D02*
X131283333Y-114572009D01*
X131283333Y-114572009D02*
X131207142Y-114610104D01*
X131207142Y-114610104D02*
X131054761Y-114610104D01*
X131054761Y-114610104D02*
X130978571Y-114572009D01*
X130978571Y-114572009D02*
X130902380Y-114495819D01*
X130902380Y-114495819D02*
X130864285Y-114343438D01*
X130864285Y-114343438D02*
X130864285Y-114076771D01*
X130864285Y-114076771D02*
X130902380Y-113924390D01*
X130902380Y-113924390D02*
X130978571Y-113848200D01*
X130978571Y-113848200D02*
X131054761Y-113810104D01*
X131054761Y-113810104D02*
X131207142Y-113810104D01*
X130140476Y-114610104D02*
X130521428Y-114610104D01*
X130521428Y-114610104D02*
X130559524Y-114229152D01*
X130559524Y-114229152D02*
X130521428Y-114267247D01*
X130521428Y-114267247D02*
X130445238Y-114305342D01*
X130445238Y-114305342D02*
X130254762Y-114305342D01*
X130254762Y-114305342D02*
X130178571Y-114267247D01*
X130178571Y-114267247D02*
X130140476Y-114229152D01*
X130140476Y-114229152D02*
X130102381Y-114152961D01*
X130102381Y-114152961D02*
X130102381Y-113962485D01*
X130102381Y-113962485D02*
X130140476Y-113886295D01*
X130140476Y-113886295D02*
X130178571Y-113848200D01*
X130178571Y-113848200D02*
X130254762Y-113810104D01*
X130254762Y-113810104D02*
X130445238Y-113810104D01*
X130445238Y-113810104D02*
X130521428Y-113848200D01*
X130521428Y-113848200D02*
X130559524Y-113886295D01*
X161764895Y-129166666D02*
X162336323Y-129166666D01*
X162336323Y-129166666D02*
X162450609Y-129204761D01*
X162450609Y-129204761D02*
X162526800Y-129280952D01*
X162526800Y-129280952D02*
X162564895Y-129395237D01*
X162564895Y-129395237D02*
X162564895Y-129471428D01*
X162564895Y-128366666D02*
X162564895Y-128823809D01*
X162564895Y-128595237D02*
X161764895Y-128595237D01*
X161764895Y-128595237D02*
X161879180Y-128671428D01*
X161879180Y-128671428D02*
X161955371Y-128747618D01*
X161955371Y-128747618D02*
X161993466Y-128823809D01*
X146460714Y-129818704D02*
X146422618Y-129856800D01*
X146422618Y-129856800D02*
X146308333Y-129894895D01*
X146308333Y-129894895D02*
X146232142Y-129894895D01*
X146232142Y-129894895D02*
X146117856Y-129856800D01*
X146117856Y-129856800D02*
X146041666Y-129780609D01*
X146041666Y-129780609D02*
X146003571Y-129704419D01*
X146003571Y-129704419D02*
X145965475Y-129552038D01*
X145965475Y-129552038D02*
X145965475Y-129437752D01*
X145965475Y-129437752D02*
X146003571Y-129285371D01*
X146003571Y-129285371D02*
X146041666Y-129209180D01*
X146041666Y-129209180D02*
X146117856Y-129132990D01*
X146117856Y-129132990D02*
X146232142Y-129094895D01*
X146232142Y-129094895D02*
X146308333Y-129094895D01*
X146308333Y-129094895D02*
X146422618Y-129132990D01*
X146422618Y-129132990D02*
X146460714Y-129171085D01*
X147222618Y-129894895D02*
X146765475Y-129894895D01*
X146994047Y-129894895D02*
X146994047Y-129094895D01*
X146994047Y-129094895D02*
X146917856Y-129209180D01*
X146917856Y-129209180D02*
X146841666Y-129285371D01*
X146841666Y-129285371D02*
X146765475Y-129323466D01*
X147527380Y-129171085D02*
X147565476Y-129132990D01*
X147565476Y-129132990D02*
X147641666Y-129094895D01*
X147641666Y-129094895D02*
X147832142Y-129094895D01*
X147832142Y-129094895D02*
X147908333Y-129132990D01*
X147908333Y-129132990D02*
X147946428Y-129171085D01*
X147946428Y-129171085D02*
X147984523Y-129247276D01*
X147984523Y-129247276D02*
X147984523Y-129323466D01*
X147984523Y-129323466D02*
X147946428Y-129437752D01*
X147946428Y-129437752D02*
X147489285Y-129894895D01*
X147489285Y-129894895D02*
X147984523Y-129894895D01*
X159441667Y-146389895D02*
X159175000Y-146008942D01*
X158984524Y-146389895D02*
X158984524Y-145589895D01*
X158984524Y-145589895D02*
X159289286Y-145589895D01*
X159289286Y-145589895D02*
X159365476Y-145627990D01*
X159365476Y-145627990D02*
X159403571Y-145666085D01*
X159403571Y-145666085D02*
X159441667Y-145742276D01*
X159441667Y-145742276D02*
X159441667Y-145856561D01*
X159441667Y-145856561D02*
X159403571Y-145932752D01*
X159403571Y-145932752D02*
X159365476Y-145970847D01*
X159365476Y-145970847D02*
X159289286Y-146008942D01*
X159289286Y-146008942D02*
X158984524Y-146008942D01*
X160165476Y-145589895D02*
X159784524Y-145589895D01*
X159784524Y-145589895D02*
X159746428Y-145970847D01*
X159746428Y-145970847D02*
X159784524Y-145932752D01*
X159784524Y-145932752D02*
X159860714Y-145894657D01*
X159860714Y-145894657D02*
X160051190Y-145894657D01*
X160051190Y-145894657D02*
X160127381Y-145932752D01*
X160127381Y-145932752D02*
X160165476Y-145970847D01*
X160165476Y-145970847D02*
X160203571Y-146047038D01*
X160203571Y-146047038D02*
X160203571Y-146237514D01*
X160203571Y-146237514D02*
X160165476Y-146313704D01*
X160165476Y-146313704D02*
X160127381Y-146351800D01*
X160127381Y-146351800D02*
X160051190Y-146389895D01*
X160051190Y-146389895D02*
X159860714Y-146389895D01*
X159860714Y-146389895D02*
X159784524Y-146351800D01*
X159784524Y-146351800D02*
X159746428Y-146313704D01*
X134591667Y-146064895D02*
X134325000Y-145683942D01*
X134134524Y-146064895D02*
X134134524Y-145264895D01*
X134134524Y-145264895D02*
X134439286Y-145264895D01*
X134439286Y-145264895D02*
X134515476Y-145302990D01*
X134515476Y-145302990D02*
X134553571Y-145341085D01*
X134553571Y-145341085D02*
X134591667Y-145417276D01*
X134591667Y-145417276D02*
X134591667Y-145531561D01*
X134591667Y-145531561D02*
X134553571Y-145607752D01*
X134553571Y-145607752D02*
X134515476Y-145645847D01*
X134515476Y-145645847D02*
X134439286Y-145683942D01*
X134439286Y-145683942D02*
X134134524Y-145683942D01*
X135277381Y-145264895D02*
X135125000Y-145264895D01*
X135125000Y-145264895D02*
X135048809Y-145302990D01*
X135048809Y-145302990D02*
X135010714Y-145341085D01*
X135010714Y-145341085D02*
X134934524Y-145455371D01*
X134934524Y-145455371D02*
X134896428Y-145607752D01*
X134896428Y-145607752D02*
X134896428Y-145912514D01*
X134896428Y-145912514D02*
X134934524Y-145988704D01*
X134934524Y-145988704D02*
X134972619Y-146026800D01*
X134972619Y-146026800D02*
X135048809Y-146064895D01*
X135048809Y-146064895D02*
X135201190Y-146064895D01*
X135201190Y-146064895D02*
X135277381Y-146026800D01*
X135277381Y-146026800D02*
X135315476Y-145988704D01*
X135315476Y-145988704D02*
X135353571Y-145912514D01*
X135353571Y-145912514D02*
X135353571Y-145722038D01*
X135353571Y-145722038D02*
X135315476Y-145645847D01*
X135315476Y-145645847D02*
X135277381Y-145607752D01*
X135277381Y-145607752D02*
X135201190Y-145569657D01*
X135201190Y-145569657D02*
X135048809Y-145569657D01*
X135048809Y-145569657D02*
X134972619Y-145607752D01*
X134972619Y-145607752D02*
X134934524Y-145645847D01*
X134934524Y-145645847D02*
X134896428Y-145722038D01*
X167188704Y-140233332D02*
X167226800Y-140271428D01*
X167226800Y-140271428D02*
X167264895Y-140385713D01*
X167264895Y-140385713D02*
X167264895Y-140461904D01*
X167264895Y-140461904D02*
X167226800Y-140576190D01*
X167226800Y-140576190D02*
X167150609Y-140652380D01*
X167150609Y-140652380D02*
X167074419Y-140690475D01*
X167074419Y-140690475D02*
X166922038Y-140728571D01*
X166922038Y-140728571D02*
X166807752Y-140728571D01*
X166807752Y-140728571D02*
X166655371Y-140690475D01*
X166655371Y-140690475D02*
X166579180Y-140652380D01*
X166579180Y-140652380D02*
X166502990Y-140576190D01*
X166502990Y-140576190D02*
X166464895Y-140461904D01*
X166464895Y-140461904D02*
X166464895Y-140385713D01*
X166464895Y-140385713D02*
X166502990Y-140271428D01*
X166502990Y-140271428D02*
X166541085Y-140233332D01*
X166541085Y-139928571D02*
X166502990Y-139890475D01*
X166502990Y-139890475D02*
X166464895Y-139814285D01*
X166464895Y-139814285D02*
X166464895Y-139623809D01*
X166464895Y-139623809D02*
X166502990Y-139547618D01*
X166502990Y-139547618D02*
X166541085Y-139509523D01*
X166541085Y-139509523D02*
X166617276Y-139471428D01*
X166617276Y-139471428D02*
X166693466Y-139471428D01*
X166693466Y-139471428D02*
X166807752Y-139509523D01*
X166807752Y-139509523D02*
X167264895Y-139966666D01*
X167264895Y-139966666D02*
X167264895Y-139471428D01*
X145538704Y-133214285D02*
X145576800Y-133252381D01*
X145576800Y-133252381D02*
X145614895Y-133366666D01*
X145614895Y-133366666D02*
X145614895Y-133442857D01*
X145614895Y-133442857D02*
X145576800Y-133557143D01*
X145576800Y-133557143D02*
X145500609Y-133633333D01*
X145500609Y-133633333D02*
X145424419Y-133671428D01*
X145424419Y-133671428D02*
X145272038Y-133709524D01*
X145272038Y-133709524D02*
X145157752Y-133709524D01*
X145157752Y-133709524D02*
X145005371Y-133671428D01*
X145005371Y-133671428D02*
X144929180Y-133633333D01*
X144929180Y-133633333D02*
X144852990Y-133557143D01*
X144852990Y-133557143D02*
X144814895Y-133442857D01*
X144814895Y-133442857D02*
X144814895Y-133366666D01*
X144814895Y-133366666D02*
X144852990Y-133252381D01*
X144852990Y-133252381D02*
X144891085Y-133214285D01*
X145614895Y-132452381D02*
X145614895Y-132909524D01*
X145614895Y-132680952D02*
X144814895Y-132680952D01*
X144814895Y-132680952D02*
X144929180Y-132757143D01*
X144929180Y-132757143D02*
X145005371Y-132833333D01*
X145005371Y-132833333D02*
X145043466Y-132909524D01*
X144814895Y-132185714D02*
X144814895Y-131690476D01*
X144814895Y-131690476D02*
X145119657Y-131957142D01*
X145119657Y-131957142D02*
X145119657Y-131842857D01*
X145119657Y-131842857D02*
X145157752Y-131766666D01*
X145157752Y-131766666D02*
X145195847Y-131728571D01*
X145195847Y-131728571D02*
X145272038Y-131690476D01*
X145272038Y-131690476D02*
X145462514Y-131690476D01*
X145462514Y-131690476D02*
X145538704Y-131728571D01*
X145538704Y-131728571D02*
X145576800Y-131766666D01*
X145576800Y-131766666D02*
X145614895Y-131842857D01*
X145614895Y-131842857D02*
X145614895Y-132071428D01*
X145614895Y-132071428D02*
X145576800Y-132147619D01*
X145576800Y-132147619D02*
X145538704Y-132185714D01*
X158201190Y-113783914D02*
X158277380Y-113822009D01*
X158277380Y-113822009D02*
X158353571Y-113898200D01*
X158353571Y-113898200D02*
X158467857Y-114012485D01*
X158467857Y-114012485D02*
X158544047Y-114050580D01*
X158544047Y-114050580D02*
X158620238Y-114050580D01*
X158582142Y-113860104D02*
X158658333Y-113898200D01*
X158658333Y-113898200D02*
X158734523Y-113974390D01*
X158734523Y-113974390D02*
X158772619Y-114126771D01*
X158772619Y-114126771D02*
X158772619Y-114393438D01*
X158772619Y-114393438D02*
X158734523Y-114545819D01*
X158734523Y-114545819D02*
X158658333Y-114622009D01*
X158658333Y-114622009D02*
X158582142Y-114660104D01*
X158582142Y-114660104D02*
X158429761Y-114660104D01*
X158429761Y-114660104D02*
X158353571Y-114622009D01*
X158353571Y-114622009D02*
X158277380Y-114545819D01*
X158277380Y-114545819D02*
X158239285Y-114393438D01*
X158239285Y-114393438D02*
X158239285Y-114126771D01*
X158239285Y-114126771D02*
X158277380Y-113974390D01*
X158277380Y-113974390D02*
X158353571Y-113898200D01*
X158353571Y-113898200D02*
X158429761Y-113860104D01*
X158429761Y-113860104D02*
X158582142Y-113860104D01*
X157477381Y-113860104D02*
X157934524Y-113860104D01*
X157705952Y-113860104D02*
X157705952Y-114660104D01*
X157705952Y-114660104D02*
X157782143Y-114545819D01*
X157782143Y-114545819D02*
X157858333Y-114469628D01*
X157858333Y-114469628D02*
X157934524Y-114431533D01*
X155689895Y-141883332D02*
X155308942Y-142149999D01*
X155689895Y-142340475D02*
X154889895Y-142340475D01*
X154889895Y-142340475D02*
X154889895Y-142035713D01*
X154889895Y-142035713D02*
X154927990Y-141959523D01*
X154927990Y-141959523D02*
X154966085Y-141921428D01*
X154966085Y-141921428D02*
X155042276Y-141883332D01*
X155042276Y-141883332D02*
X155156561Y-141883332D01*
X155156561Y-141883332D02*
X155232752Y-141921428D01*
X155232752Y-141921428D02*
X155270847Y-141959523D01*
X155270847Y-141959523D02*
X155308942Y-142035713D01*
X155308942Y-142035713D02*
X155308942Y-142340475D01*
X154889895Y-141616666D02*
X154889895Y-141083332D01*
X154889895Y-141083332D02*
X155689895Y-141426190D01*
X150369048Y-137014895D02*
X150369048Y-136214895D01*
X151207143Y-136938704D02*
X151169047Y-136976800D01*
X151169047Y-136976800D02*
X151054762Y-137014895D01*
X151054762Y-137014895D02*
X150978571Y-137014895D01*
X150978571Y-137014895D02*
X150864285Y-136976800D01*
X150864285Y-136976800D02*
X150788095Y-136900609D01*
X150788095Y-136900609D02*
X150750000Y-136824419D01*
X150750000Y-136824419D02*
X150711904Y-136672038D01*
X150711904Y-136672038D02*
X150711904Y-136557752D01*
X150711904Y-136557752D02*
X150750000Y-136405371D01*
X150750000Y-136405371D02*
X150788095Y-136329180D01*
X150788095Y-136329180D02*
X150864285Y-136252990D01*
X150864285Y-136252990D02*
X150978571Y-136214895D01*
X150978571Y-136214895D02*
X151054762Y-136214895D01*
X151054762Y-136214895D02*
X151169047Y-136252990D01*
X151169047Y-136252990D02*
X151207143Y-136291085D01*
X151969047Y-137014895D02*
X151511904Y-137014895D01*
X151740476Y-137014895D02*
X151740476Y-136214895D01*
X151740476Y-136214895D02*
X151664285Y-136329180D01*
X151664285Y-136329180D02*
X151588095Y-136405371D01*
X151588095Y-136405371D02*
X151511904Y-136443466D01*
X143010714Y-125294895D02*
X142744047Y-124913942D01*
X142553571Y-125294895D02*
X142553571Y-124494895D01*
X142553571Y-124494895D02*
X142858333Y-124494895D01*
X142858333Y-124494895D02*
X142934523Y-124532990D01*
X142934523Y-124532990D02*
X142972618Y-124571085D01*
X142972618Y-124571085D02*
X143010714Y-124647276D01*
X143010714Y-124647276D02*
X143010714Y-124761561D01*
X143010714Y-124761561D02*
X142972618Y-124837752D01*
X142972618Y-124837752D02*
X142934523Y-124875847D01*
X142934523Y-124875847D02*
X142858333Y-124913942D01*
X142858333Y-124913942D02*
X142553571Y-124913942D01*
X143772618Y-125294895D02*
X143315475Y-125294895D01*
X143544047Y-125294895D02*
X143544047Y-124494895D01*
X143544047Y-124494895D02*
X143467856Y-124609180D01*
X143467856Y-124609180D02*
X143391666Y-124685371D01*
X143391666Y-124685371D02*
X143315475Y-124723466D01*
X144077380Y-124571085D02*
X144115476Y-124532990D01*
X144115476Y-124532990D02*
X144191666Y-124494895D01*
X144191666Y-124494895D02*
X144382142Y-124494895D01*
X144382142Y-124494895D02*
X144458333Y-124532990D01*
X144458333Y-124532990D02*
X144496428Y-124571085D01*
X144496428Y-124571085D02*
X144534523Y-124647276D01*
X144534523Y-124647276D02*
X144534523Y-124723466D01*
X144534523Y-124723466D02*
X144496428Y-124837752D01*
X144496428Y-124837752D02*
X144039285Y-125294895D01*
X144039285Y-125294895D02*
X144534523Y-125294895D01*
X162614895Y-147690475D02*
X161814895Y-147690475D01*
X161814895Y-147690475D02*
X161814895Y-147499999D01*
X161814895Y-147499999D02*
X161852990Y-147385713D01*
X161852990Y-147385713D02*
X161929180Y-147309523D01*
X161929180Y-147309523D02*
X162005371Y-147271428D01*
X162005371Y-147271428D02*
X162157752Y-147233332D01*
X162157752Y-147233332D02*
X162272038Y-147233332D01*
X162272038Y-147233332D02*
X162424419Y-147271428D01*
X162424419Y-147271428D02*
X162500609Y-147309523D01*
X162500609Y-147309523D02*
X162576800Y-147385713D01*
X162576800Y-147385713D02*
X162614895Y-147499999D01*
X162614895Y-147499999D02*
X162614895Y-147690475D01*
X161891085Y-146928571D02*
X161852990Y-146890475D01*
X161852990Y-146890475D02*
X161814895Y-146814285D01*
X161814895Y-146814285D02*
X161814895Y-146623809D01*
X161814895Y-146623809D02*
X161852990Y-146547618D01*
X161852990Y-146547618D02*
X161891085Y-146509523D01*
X161891085Y-146509523D02*
X161967276Y-146471428D01*
X161967276Y-146471428D02*
X162043466Y-146471428D01*
X162043466Y-146471428D02*
X162157752Y-146509523D01*
X162157752Y-146509523D02*
X162614895Y-146966666D01*
X162614895Y-146966666D02*
X162614895Y-146471428D01*
X159885714Y-124988704D02*
X159847618Y-125026800D01*
X159847618Y-125026800D02*
X159733333Y-125064895D01*
X159733333Y-125064895D02*
X159657142Y-125064895D01*
X159657142Y-125064895D02*
X159542856Y-125026800D01*
X159542856Y-125026800D02*
X159466666Y-124950609D01*
X159466666Y-124950609D02*
X159428571Y-124874419D01*
X159428571Y-124874419D02*
X159390475Y-124722038D01*
X159390475Y-124722038D02*
X159390475Y-124607752D01*
X159390475Y-124607752D02*
X159428571Y-124455371D01*
X159428571Y-124455371D02*
X159466666Y-124379180D01*
X159466666Y-124379180D02*
X159542856Y-124302990D01*
X159542856Y-124302990D02*
X159657142Y-124264895D01*
X159657142Y-124264895D02*
X159733333Y-124264895D01*
X159733333Y-124264895D02*
X159847618Y-124302990D01*
X159847618Y-124302990D02*
X159885714Y-124341085D01*
X160647618Y-125064895D02*
X160190475Y-125064895D01*
X160419047Y-125064895D02*
X160419047Y-124264895D01*
X160419047Y-124264895D02*
X160342856Y-124379180D01*
X160342856Y-124379180D02*
X160266666Y-124455371D01*
X160266666Y-124455371D02*
X160190475Y-124493466D01*
X161333333Y-124264895D02*
X161180952Y-124264895D01*
X161180952Y-124264895D02*
X161104761Y-124302990D01*
X161104761Y-124302990D02*
X161066666Y-124341085D01*
X161066666Y-124341085D02*
X160990476Y-124455371D01*
X160990476Y-124455371D02*
X160952380Y-124607752D01*
X160952380Y-124607752D02*
X160952380Y-124912514D01*
X160952380Y-124912514D02*
X160990476Y-124988704D01*
X160990476Y-124988704D02*
X161028571Y-125026800D01*
X161028571Y-125026800D02*
X161104761Y-125064895D01*
X161104761Y-125064895D02*
X161257142Y-125064895D01*
X161257142Y-125064895D02*
X161333333Y-125026800D01*
X161333333Y-125026800D02*
X161371428Y-124988704D01*
X161371428Y-124988704D02*
X161409523Y-124912514D01*
X161409523Y-124912514D02*
X161409523Y-124722038D01*
X161409523Y-124722038D02*
X161371428Y-124645847D01*
X161371428Y-124645847D02*
X161333333Y-124607752D01*
X161333333Y-124607752D02*
X161257142Y-124569657D01*
X161257142Y-124569657D02*
X161104761Y-124569657D01*
X161104761Y-124569657D02*
X161028571Y-124607752D01*
X161028571Y-124607752D02*
X160990476Y-124645847D01*
X160990476Y-124645847D02*
X160952380Y-124722038D01*
X159564895Y-136714285D02*
X159183942Y-136980952D01*
X159564895Y-137171428D02*
X158764895Y-137171428D01*
X158764895Y-137171428D02*
X158764895Y-136866666D01*
X158764895Y-136866666D02*
X158802990Y-136790476D01*
X158802990Y-136790476D02*
X158841085Y-136752381D01*
X158841085Y-136752381D02*
X158917276Y-136714285D01*
X158917276Y-136714285D02*
X159031561Y-136714285D01*
X159031561Y-136714285D02*
X159107752Y-136752381D01*
X159107752Y-136752381D02*
X159145847Y-136790476D01*
X159145847Y-136790476D02*
X159183942Y-136866666D01*
X159183942Y-136866666D02*
X159183942Y-137171428D01*
X159564895Y-135952381D02*
X159564895Y-136409524D01*
X159564895Y-136180952D02*
X158764895Y-136180952D01*
X158764895Y-136180952D02*
X158879180Y-136257143D01*
X158879180Y-136257143D02*
X158955371Y-136333333D01*
X158955371Y-136333333D02*
X158993466Y-136409524D01*
X158764895Y-135266666D02*
X158764895Y-135419047D01*
X158764895Y-135419047D02*
X158802990Y-135495238D01*
X158802990Y-135495238D02*
X158841085Y-135533333D01*
X158841085Y-135533333D02*
X158955371Y-135609523D01*
X158955371Y-135609523D02*
X159107752Y-135647619D01*
X159107752Y-135647619D02*
X159412514Y-135647619D01*
X159412514Y-135647619D02*
X159488704Y-135609523D01*
X159488704Y-135609523D02*
X159526800Y-135571428D01*
X159526800Y-135571428D02*
X159564895Y-135495238D01*
X159564895Y-135495238D02*
X159564895Y-135342857D01*
X159564895Y-135342857D02*
X159526800Y-135266666D01*
X159526800Y-135266666D02*
X159488704Y-135228571D01*
X159488704Y-135228571D02*
X159412514Y-135190476D01*
X159412514Y-135190476D02*
X159222038Y-135190476D01*
X159222038Y-135190476D02*
X159145847Y-135228571D01*
X159145847Y-135228571D02*
X159107752Y-135266666D01*
X159107752Y-135266666D02*
X159069657Y-135342857D01*
X159069657Y-135342857D02*
X159069657Y-135495238D01*
X159069657Y-135495238D02*
X159107752Y-135571428D01*
X159107752Y-135571428D02*
X159145847Y-135609523D01*
X159145847Y-135609523D02*
X159222038Y-135647619D01*
X134591667Y-147639895D02*
X134325000Y-147258942D01*
X134134524Y-147639895D02*
X134134524Y-146839895D01*
X134134524Y-146839895D02*
X134439286Y-146839895D01*
X134439286Y-146839895D02*
X134515476Y-146877990D01*
X134515476Y-146877990D02*
X134553571Y-146916085D01*
X134553571Y-146916085D02*
X134591667Y-146992276D01*
X134591667Y-146992276D02*
X134591667Y-147106561D01*
X134591667Y-147106561D02*
X134553571Y-147182752D01*
X134553571Y-147182752D02*
X134515476Y-147220847D01*
X134515476Y-147220847D02*
X134439286Y-147258942D01*
X134439286Y-147258942D02*
X134134524Y-147258942D01*
X135048809Y-147182752D02*
X134972619Y-147144657D01*
X134972619Y-147144657D02*
X134934524Y-147106561D01*
X134934524Y-147106561D02*
X134896428Y-147030371D01*
X134896428Y-147030371D02*
X134896428Y-146992276D01*
X134896428Y-146992276D02*
X134934524Y-146916085D01*
X134934524Y-146916085D02*
X134972619Y-146877990D01*
X134972619Y-146877990D02*
X135048809Y-146839895D01*
X135048809Y-146839895D02*
X135201190Y-146839895D01*
X135201190Y-146839895D02*
X135277381Y-146877990D01*
X135277381Y-146877990D02*
X135315476Y-146916085D01*
X135315476Y-146916085D02*
X135353571Y-146992276D01*
X135353571Y-146992276D02*
X135353571Y-147030371D01*
X135353571Y-147030371D02*
X135315476Y-147106561D01*
X135315476Y-147106561D02*
X135277381Y-147144657D01*
X135277381Y-147144657D02*
X135201190Y-147182752D01*
X135201190Y-147182752D02*
X135048809Y-147182752D01*
X135048809Y-147182752D02*
X134972619Y-147220847D01*
X134972619Y-147220847D02*
X134934524Y-147258942D01*
X134934524Y-147258942D02*
X134896428Y-147335133D01*
X134896428Y-147335133D02*
X134896428Y-147487514D01*
X134896428Y-147487514D02*
X134934524Y-147563704D01*
X134934524Y-147563704D02*
X134972619Y-147601800D01*
X134972619Y-147601800D02*
X135048809Y-147639895D01*
X135048809Y-147639895D02*
X135201190Y-147639895D01*
X135201190Y-147639895D02*
X135277381Y-147601800D01*
X135277381Y-147601800D02*
X135315476Y-147563704D01*
X135315476Y-147563704D02*
X135353571Y-147487514D01*
X135353571Y-147487514D02*
X135353571Y-147335133D01*
X135353571Y-147335133D02*
X135315476Y-147258942D01*
X135315476Y-147258942D02*
X135277381Y-147220847D01*
X135277381Y-147220847D02*
X135201190Y-147182752D01*
X139951190Y-113958914D02*
X140027380Y-113997009D01*
X140027380Y-113997009D02*
X140103571Y-114073200D01*
X140103571Y-114073200D02*
X140217857Y-114187485D01*
X140217857Y-114187485D02*
X140294047Y-114225580D01*
X140294047Y-114225580D02*
X140370238Y-114225580D01*
X140332142Y-114035104D02*
X140408333Y-114073200D01*
X140408333Y-114073200D02*
X140484523Y-114149390D01*
X140484523Y-114149390D02*
X140522619Y-114301771D01*
X140522619Y-114301771D02*
X140522619Y-114568438D01*
X140522619Y-114568438D02*
X140484523Y-114720819D01*
X140484523Y-114720819D02*
X140408333Y-114797009D01*
X140408333Y-114797009D02*
X140332142Y-114835104D01*
X140332142Y-114835104D02*
X140179761Y-114835104D01*
X140179761Y-114835104D02*
X140103571Y-114797009D01*
X140103571Y-114797009D02*
X140027380Y-114720819D01*
X140027380Y-114720819D02*
X139989285Y-114568438D01*
X139989285Y-114568438D02*
X139989285Y-114301771D01*
X139989285Y-114301771D02*
X140027380Y-114149390D01*
X140027380Y-114149390D02*
X140103571Y-114073200D01*
X140103571Y-114073200D02*
X140179761Y-114035104D01*
X140179761Y-114035104D02*
X140332142Y-114035104D01*
X139722619Y-114835104D02*
X139227381Y-114835104D01*
X139227381Y-114835104D02*
X139494047Y-114530342D01*
X139494047Y-114530342D02*
X139379762Y-114530342D01*
X139379762Y-114530342D02*
X139303571Y-114492247D01*
X139303571Y-114492247D02*
X139265476Y-114454152D01*
X139265476Y-114454152D02*
X139227381Y-114377961D01*
X139227381Y-114377961D02*
X139227381Y-114187485D01*
X139227381Y-114187485D02*
X139265476Y-114111295D01*
X139265476Y-114111295D02*
X139303571Y-114073200D01*
X139303571Y-114073200D02*
X139379762Y-114035104D01*
X139379762Y-114035104D02*
X139608333Y-114035104D01*
X139608333Y-114035104D02*
X139684524Y-114073200D01*
X139684524Y-114073200D02*
X139722619Y-114111295D01*
X158789895Y-141908332D02*
X158408942Y-142174999D01*
X158789895Y-142365475D02*
X157989895Y-142365475D01*
X157989895Y-142365475D02*
X157989895Y-142060713D01*
X157989895Y-142060713D02*
X158027990Y-141984523D01*
X158027990Y-141984523D02*
X158066085Y-141946428D01*
X158066085Y-141946428D02*
X158142276Y-141908332D01*
X158142276Y-141908332D02*
X158256561Y-141908332D01*
X158256561Y-141908332D02*
X158332752Y-141946428D01*
X158332752Y-141946428D02*
X158370847Y-141984523D01*
X158370847Y-141984523D02*
X158408942Y-142060713D01*
X158408942Y-142060713D02*
X158408942Y-142365475D01*
X158789895Y-141527380D02*
X158789895Y-141374999D01*
X158789895Y-141374999D02*
X158751800Y-141298809D01*
X158751800Y-141298809D02*
X158713704Y-141260713D01*
X158713704Y-141260713D02*
X158599419Y-141184523D01*
X158599419Y-141184523D02*
X158447038Y-141146428D01*
X158447038Y-141146428D02*
X158142276Y-141146428D01*
X158142276Y-141146428D02*
X158066085Y-141184523D01*
X158066085Y-141184523D02*
X158027990Y-141222618D01*
X158027990Y-141222618D02*
X157989895Y-141298809D01*
X157989895Y-141298809D02*
X157989895Y-141451190D01*
X157989895Y-141451190D02*
X158027990Y-141527380D01*
X158027990Y-141527380D02*
X158066085Y-141565475D01*
X158066085Y-141565475D02*
X158142276Y-141603571D01*
X158142276Y-141603571D02*
X158332752Y-141603571D01*
X158332752Y-141603571D02*
X158408942Y-141565475D01*
X158408942Y-141565475D02*
X158447038Y-141527380D01*
X158447038Y-141527380D02*
X158485133Y-141451190D01*
X158485133Y-141451190D02*
X158485133Y-141298809D01*
X158485133Y-141298809D02*
X158447038Y-141222618D01*
X158447038Y-141222618D02*
X158408942Y-141184523D01*
X158408942Y-141184523D02*
X158332752Y-141146428D01*
X157264895Y-141933332D02*
X156883942Y-142199999D01*
X157264895Y-142390475D02*
X156464895Y-142390475D01*
X156464895Y-142390475D02*
X156464895Y-142085713D01*
X156464895Y-142085713D02*
X156502990Y-142009523D01*
X156502990Y-142009523D02*
X156541085Y-141971428D01*
X156541085Y-141971428D02*
X156617276Y-141933332D01*
X156617276Y-141933332D02*
X156731561Y-141933332D01*
X156731561Y-141933332D02*
X156807752Y-141971428D01*
X156807752Y-141971428D02*
X156845847Y-142009523D01*
X156845847Y-142009523D02*
X156883942Y-142085713D01*
X156883942Y-142085713D02*
X156883942Y-142390475D01*
X156464895Y-141666666D02*
X156464895Y-141171428D01*
X156464895Y-141171428D02*
X156769657Y-141438094D01*
X156769657Y-141438094D02*
X156769657Y-141323809D01*
X156769657Y-141323809D02*
X156807752Y-141247618D01*
X156807752Y-141247618D02*
X156845847Y-141209523D01*
X156845847Y-141209523D02*
X156922038Y-141171428D01*
X156922038Y-141171428D02*
X157112514Y-141171428D01*
X157112514Y-141171428D02*
X157188704Y-141209523D01*
X157188704Y-141209523D02*
X157226800Y-141247618D01*
X157226800Y-141247618D02*
X157264895Y-141323809D01*
X157264895Y-141323809D02*
X157264895Y-141552380D01*
X157264895Y-141552380D02*
X157226800Y-141628571D01*
X157226800Y-141628571D02*
X157188704Y-141666666D01*
X133514895Y-139916666D02*
X134086323Y-139916666D01*
X134086323Y-139916666D02*
X134200609Y-139954761D01*
X134200609Y-139954761D02*
X134276800Y-140030952D01*
X134276800Y-140030952D02*
X134314895Y-140145237D01*
X134314895Y-140145237D02*
X134314895Y-140221428D01*
X133514895Y-139611904D02*
X133514895Y-139116666D01*
X133514895Y-139116666D02*
X133819657Y-139383332D01*
X133819657Y-139383332D02*
X133819657Y-139269047D01*
X133819657Y-139269047D02*
X133857752Y-139192856D01*
X133857752Y-139192856D02*
X133895847Y-139154761D01*
X133895847Y-139154761D02*
X133972038Y-139116666D01*
X133972038Y-139116666D02*
X134162514Y-139116666D01*
X134162514Y-139116666D02*
X134238704Y-139154761D01*
X134238704Y-139154761D02*
X134276800Y-139192856D01*
X134276800Y-139192856D02*
X134314895Y-139269047D01*
X134314895Y-139269047D02*
X134314895Y-139497618D01*
X134314895Y-139497618D02*
X134276800Y-139573809D01*
X134276800Y-139573809D02*
X134238704Y-139611904D01*
D11*
X137314700Y-141271428D02*
X137314700Y-140128571D01*
X137886128Y-140699999D02*
X136743271Y-140699999D01*
X137314700Y-130271428D02*
X137314700Y-129128571D01*
D10*
X142438704Y-132583332D02*
X142476800Y-132621428D01*
X142476800Y-132621428D02*
X142514895Y-132735713D01*
X142514895Y-132735713D02*
X142514895Y-132811904D01*
X142514895Y-132811904D02*
X142476800Y-132926190D01*
X142476800Y-132926190D02*
X142400609Y-133002380D01*
X142400609Y-133002380D02*
X142324419Y-133040475D01*
X142324419Y-133040475D02*
X142172038Y-133078571D01*
X142172038Y-133078571D02*
X142057752Y-133078571D01*
X142057752Y-133078571D02*
X141905371Y-133040475D01*
X141905371Y-133040475D02*
X141829180Y-133002380D01*
X141829180Y-133002380D02*
X141752990Y-132926190D01*
X141752990Y-132926190D02*
X141714895Y-132811904D01*
X141714895Y-132811904D02*
X141714895Y-132735713D01*
X141714895Y-132735713D02*
X141752990Y-132621428D01*
X141752990Y-132621428D02*
X141791085Y-132583332D01*
X141714895Y-131897618D02*
X141714895Y-132049999D01*
X141714895Y-132049999D02*
X141752990Y-132126190D01*
X141752990Y-132126190D02*
X141791085Y-132164285D01*
X141791085Y-132164285D02*
X141905371Y-132240475D01*
X141905371Y-132240475D02*
X142057752Y-132278571D01*
X142057752Y-132278571D02*
X142362514Y-132278571D01*
X142362514Y-132278571D02*
X142438704Y-132240475D01*
X142438704Y-132240475D02*
X142476800Y-132202380D01*
X142476800Y-132202380D02*
X142514895Y-132126190D01*
X142514895Y-132126190D02*
X142514895Y-131973809D01*
X142514895Y-131973809D02*
X142476800Y-131897618D01*
X142476800Y-131897618D02*
X142438704Y-131859523D01*
X142438704Y-131859523D02*
X142362514Y-131821428D01*
X142362514Y-131821428D02*
X142172038Y-131821428D01*
X142172038Y-131821428D02*
X142095847Y-131859523D01*
X142095847Y-131859523D02*
X142057752Y-131897618D01*
X142057752Y-131897618D02*
X142019657Y-131973809D01*
X142019657Y-131973809D02*
X142019657Y-132126190D01*
X142019657Y-132126190D02*
X142057752Y-132202380D01*
X142057752Y-132202380D02*
X142095847Y-132240475D01*
X142095847Y-132240475D02*
X142172038Y-132278571D01*
X128660714Y-126764895D02*
X128394047Y-126383942D01*
X128203571Y-126764895D02*
X128203571Y-125964895D01*
X128203571Y-125964895D02*
X128508333Y-125964895D01*
X128508333Y-125964895D02*
X128584523Y-126002990D01*
X128584523Y-126002990D02*
X128622618Y-126041085D01*
X128622618Y-126041085D02*
X128660714Y-126117276D01*
X128660714Y-126117276D02*
X128660714Y-126231561D01*
X128660714Y-126231561D02*
X128622618Y-126307752D01*
X128622618Y-126307752D02*
X128584523Y-126345847D01*
X128584523Y-126345847D02*
X128508333Y-126383942D01*
X128508333Y-126383942D02*
X128203571Y-126383942D01*
X128965475Y-126041085D02*
X129003571Y-126002990D01*
X129003571Y-126002990D02*
X129079761Y-125964895D01*
X129079761Y-125964895D02*
X129270237Y-125964895D01*
X129270237Y-125964895D02*
X129346428Y-126002990D01*
X129346428Y-126002990D02*
X129384523Y-126041085D01*
X129384523Y-126041085D02*
X129422618Y-126117276D01*
X129422618Y-126117276D02*
X129422618Y-126193466D01*
X129422618Y-126193466D02*
X129384523Y-126307752D01*
X129384523Y-126307752D02*
X128927380Y-126764895D01*
X128927380Y-126764895D02*
X129422618Y-126764895D01*
X129727380Y-126041085D02*
X129765476Y-126002990D01*
X129765476Y-126002990D02*
X129841666Y-125964895D01*
X129841666Y-125964895D02*
X130032142Y-125964895D01*
X130032142Y-125964895D02*
X130108333Y-126002990D01*
X130108333Y-126002990D02*
X130146428Y-126041085D01*
X130146428Y-126041085D02*
X130184523Y-126117276D01*
X130184523Y-126117276D02*
X130184523Y-126193466D01*
X130184523Y-126193466D02*
X130146428Y-126307752D01*
X130146428Y-126307752D02*
X129689285Y-126764895D01*
X129689285Y-126764895D02*
X130184523Y-126764895D01*
X151716667Y-139463704D02*
X151678571Y-139501800D01*
X151678571Y-139501800D02*
X151564286Y-139539895D01*
X151564286Y-139539895D02*
X151488095Y-139539895D01*
X151488095Y-139539895D02*
X151373809Y-139501800D01*
X151373809Y-139501800D02*
X151297619Y-139425609D01*
X151297619Y-139425609D02*
X151259524Y-139349419D01*
X151259524Y-139349419D02*
X151221428Y-139197038D01*
X151221428Y-139197038D02*
X151221428Y-139082752D01*
X151221428Y-139082752D02*
X151259524Y-138930371D01*
X151259524Y-138930371D02*
X151297619Y-138854180D01*
X151297619Y-138854180D02*
X151373809Y-138777990D01*
X151373809Y-138777990D02*
X151488095Y-138739895D01*
X151488095Y-138739895D02*
X151564286Y-138739895D01*
X151564286Y-138739895D02*
X151678571Y-138777990D01*
X151678571Y-138777990D02*
X151716667Y-138816085D01*
X152097619Y-139539895D02*
X152250000Y-139539895D01*
X152250000Y-139539895D02*
X152326190Y-139501800D01*
X152326190Y-139501800D02*
X152364286Y-139463704D01*
X152364286Y-139463704D02*
X152440476Y-139349419D01*
X152440476Y-139349419D02*
X152478571Y-139197038D01*
X152478571Y-139197038D02*
X152478571Y-138892276D01*
X152478571Y-138892276D02*
X152440476Y-138816085D01*
X152440476Y-138816085D02*
X152402381Y-138777990D01*
X152402381Y-138777990D02*
X152326190Y-138739895D01*
X152326190Y-138739895D02*
X152173809Y-138739895D01*
X152173809Y-138739895D02*
X152097619Y-138777990D01*
X152097619Y-138777990D02*
X152059524Y-138816085D01*
X152059524Y-138816085D02*
X152021428Y-138892276D01*
X152021428Y-138892276D02*
X152021428Y-139082752D01*
X152021428Y-139082752D02*
X152059524Y-139158942D01*
X152059524Y-139158942D02*
X152097619Y-139197038D01*
X152097619Y-139197038D02*
X152173809Y-139235133D01*
X152173809Y-139235133D02*
X152326190Y-139235133D01*
X152326190Y-139235133D02*
X152402381Y-139197038D01*
X152402381Y-139197038D02*
X152440476Y-139158942D01*
X152440476Y-139158942D02*
X152478571Y-139082752D01*
X132489895Y-129992857D02*
X132108942Y-130259524D01*
X132489895Y-130450000D02*
X131689895Y-130450000D01*
X131689895Y-130450000D02*
X131689895Y-130145238D01*
X131689895Y-130145238D02*
X131727990Y-130069048D01*
X131727990Y-130069048D02*
X131766085Y-130030953D01*
X131766085Y-130030953D02*
X131842276Y-129992857D01*
X131842276Y-129992857D02*
X131956561Y-129992857D01*
X131956561Y-129992857D02*
X132032752Y-130030953D01*
X132032752Y-130030953D02*
X132070847Y-130069048D01*
X132070847Y-130069048D02*
X132108942Y-130145238D01*
X132108942Y-130145238D02*
X132108942Y-130450000D01*
X132566085Y-129840477D02*
X132566085Y-129230953D01*
X132451800Y-129078572D02*
X132489895Y-128964286D01*
X132489895Y-128964286D02*
X132489895Y-128773810D01*
X132489895Y-128773810D02*
X132451800Y-128697619D01*
X132451800Y-128697619D02*
X132413704Y-128659524D01*
X132413704Y-128659524D02*
X132337514Y-128621429D01*
X132337514Y-128621429D02*
X132261323Y-128621429D01*
X132261323Y-128621429D02*
X132185133Y-128659524D01*
X132185133Y-128659524D02*
X132147038Y-128697619D01*
X132147038Y-128697619D02*
X132108942Y-128773810D01*
X132108942Y-128773810D02*
X132070847Y-128926191D01*
X132070847Y-128926191D02*
X132032752Y-129002381D01*
X132032752Y-129002381D02*
X131994657Y-129040476D01*
X131994657Y-129040476D02*
X131918466Y-129078572D01*
X131918466Y-129078572D02*
X131842276Y-129078572D01*
X131842276Y-129078572D02*
X131766085Y-129040476D01*
X131766085Y-129040476D02*
X131727990Y-129002381D01*
X131727990Y-129002381D02*
X131689895Y-128926191D01*
X131689895Y-128926191D02*
X131689895Y-128735714D01*
X131689895Y-128735714D02*
X131727990Y-128621429D01*
X132070847Y-128278571D02*
X132070847Y-128011905D01*
X132489895Y-127897619D02*
X132489895Y-128278571D01*
X132489895Y-128278571D02*
X131689895Y-128278571D01*
X131689895Y-128278571D02*
X131689895Y-127897619D01*
X132489895Y-127554761D02*
X131689895Y-127554761D01*
X131689895Y-127554761D02*
X132489895Y-127097618D01*
X132489895Y-127097618D02*
X131689895Y-127097618D01*
X132451800Y-126754762D02*
X132489895Y-126640476D01*
X132489895Y-126640476D02*
X132489895Y-126450000D01*
X132489895Y-126450000D02*
X132451800Y-126373809D01*
X132451800Y-126373809D02*
X132413704Y-126335714D01*
X132413704Y-126335714D02*
X132337514Y-126297619D01*
X132337514Y-126297619D02*
X132261323Y-126297619D01*
X132261323Y-126297619D02*
X132185133Y-126335714D01*
X132185133Y-126335714D02*
X132147038Y-126373809D01*
X132147038Y-126373809D02*
X132108942Y-126450000D01*
X132108942Y-126450000D02*
X132070847Y-126602381D01*
X132070847Y-126602381D02*
X132032752Y-126678571D01*
X132032752Y-126678571D02*
X131994657Y-126716666D01*
X131994657Y-126716666D02*
X131918466Y-126754762D01*
X131918466Y-126754762D02*
X131842276Y-126754762D01*
X131842276Y-126754762D02*
X131766085Y-126716666D01*
X131766085Y-126716666D02*
X131727990Y-126678571D01*
X131727990Y-126678571D02*
X131689895Y-126602381D01*
X131689895Y-126602381D02*
X131689895Y-126411904D01*
X131689895Y-126411904D02*
X131727990Y-126297619D01*
X132070847Y-125954761D02*
X132070847Y-125688095D01*
X132489895Y-125573809D02*
X132489895Y-125954761D01*
X132489895Y-125954761D02*
X131689895Y-125954761D01*
X131689895Y-125954761D02*
X131689895Y-125573809D01*
X132489895Y-124811904D02*
X132489895Y-125269047D01*
X132489895Y-125040475D02*
X131689895Y-125040475D01*
X131689895Y-125040475D02*
X131804180Y-125116666D01*
X131804180Y-125116666D02*
X131880371Y-125192856D01*
X131880371Y-125192856D02*
X131918466Y-125269047D01*
X140435714Y-126539895D02*
X140169047Y-126158942D01*
X139978571Y-126539895D02*
X139978571Y-125739895D01*
X139978571Y-125739895D02*
X140283333Y-125739895D01*
X140283333Y-125739895D02*
X140359523Y-125777990D01*
X140359523Y-125777990D02*
X140397618Y-125816085D01*
X140397618Y-125816085D02*
X140435714Y-125892276D01*
X140435714Y-125892276D02*
X140435714Y-126006561D01*
X140435714Y-126006561D02*
X140397618Y-126082752D01*
X140397618Y-126082752D02*
X140359523Y-126120847D01*
X140359523Y-126120847D02*
X140283333Y-126158942D01*
X140283333Y-126158942D02*
X139978571Y-126158942D01*
X141197618Y-126539895D02*
X140740475Y-126539895D01*
X140969047Y-126539895D02*
X140969047Y-125739895D01*
X140969047Y-125739895D02*
X140892856Y-125854180D01*
X140892856Y-125854180D02*
X140816666Y-125930371D01*
X140816666Y-125930371D02*
X140740475Y-125968466D01*
X141578571Y-126539895D02*
X141730952Y-126539895D01*
X141730952Y-126539895D02*
X141807142Y-126501800D01*
X141807142Y-126501800D02*
X141845238Y-126463704D01*
X141845238Y-126463704D02*
X141921428Y-126349419D01*
X141921428Y-126349419D02*
X141959523Y-126197038D01*
X141959523Y-126197038D02*
X141959523Y-125892276D01*
X141959523Y-125892276D02*
X141921428Y-125816085D01*
X141921428Y-125816085D02*
X141883333Y-125777990D01*
X141883333Y-125777990D02*
X141807142Y-125739895D01*
X141807142Y-125739895D02*
X141654761Y-125739895D01*
X141654761Y-125739895D02*
X141578571Y-125777990D01*
X141578571Y-125777990D02*
X141540476Y-125816085D01*
X141540476Y-125816085D02*
X141502380Y-125892276D01*
X141502380Y-125892276D02*
X141502380Y-126082752D01*
X141502380Y-126082752D02*
X141540476Y-126158942D01*
X141540476Y-126158942D02*
X141578571Y-126197038D01*
X141578571Y-126197038D02*
X141654761Y-126235133D01*
X141654761Y-126235133D02*
X141807142Y-126235133D01*
X141807142Y-126235133D02*
X141883333Y-126197038D01*
X141883333Y-126197038D02*
X141921428Y-126158942D01*
X141921428Y-126158942D02*
X141959523Y-126082752D01*
X161164895Y-136714285D02*
X160783942Y-136980952D01*
X161164895Y-137171428D02*
X160364895Y-137171428D01*
X160364895Y-137171428D02*
X160364895Y-136866666D01*
X160364895Y-136866666D02*
X160402990Y-136790476D01*
X160402990Y-136790476D02*
X160441085Y-136752381D01*
X160441085Y-136752381D02*
X160517276Y-136714285D01*
X160517276Y-136714285D02*
X160631561Y-136714285D01*
X160631561Y-136714285D02*
X160707752Y-136752381D01*
X160707752Y-136752381D02*
X160745847Y-136790476D01*
X160745847Y-136790476D02*
X160783942Y-136866666D01*
X160783942Y-136866666D02*
X160783942Y-137171428D01*
X161164895Y-135952381D02*
X161164895Y-136409524D01*
X161164895Y-136180952D02*
X160364895Y-136180952D01*
X160364895Y-136180952D02*
X160479180Y-136257143D01*
X160479180Y-136257143D02*
X160555371Y-136333333D01*
X160555371Y-136333333D02*
X160593466Y-136409524D01*
X160364895Y-135685714D02*
X160364895Y-135152380D01*
X160364895Y-135152380D02*
X161164895Y-135495238D01*
X126010714Y-126864895D02*
X125744047Y-126483942D01*
X125553571Y-126864895D02*
X125553571Y-126064895D01*
X125553571Y-126064895D02*
X125858333Y-126064895D01*
X125858333Y-126064895D02*
X125934523Y-126102990D01*
X125934523Y-126102990D02*
X125972618Y-126141085D01*
X125972618Y-126141085D02*
X126010714Y-126217276D01*
X126010714Y-126217276D02*
X126010714Y-126331561D01*
X126010714Y-126331561D02*
X125972618Y-126407752D01*
X125972618Y-126407752D02*
X125934523Y-126445847D01*
X125934523Y-126445847D02*
X125858333Y-126483942D01*
X125858333Y-126483942D02*
X125553571Y-126483942D01*
X126772618Y-126864895D02*
X126315475Y-126864895D01*
X126544047Y-126864895D02*
X126544047Y-126064895D01*
X126544047Y-126064895D02*
X126467856Y-126179180D01*
X126467856Y-126179180D02*
X126391666Y-126255371D01*
X126391666Y-126255371D02*
X126315475Y-126293466D01*
X127458333Y-126331561D02*
X127458333Y-126864895D01*
X127267857Y-126026800D02*
X127077380Y-126598228D01*
X127077380Y-126598228D02*
X127572619Y-126598228D01*
X156618704Y-136433332D02*
X156656800Y-136471428D01*
X156656800Y-136471428D02*
X156694895Y-136585713D01*
X156694895Y-136585713D02*
X156694895Y-136661904D01*
X156694895Y-136661904D02*
X156656800Y-136776190D01*
X156656800Y-136776190D02*
X156580609Y-136852380D01*
X156580609Y-136852380D02*
X156504419Y-136890475D01*
X156504419Y-136890475D02*
X156352038Y-136928571D01*
X156352038Y-136928571D02*
X156237752Y-136928571D01*
X156237752Y-136928571D02*
X156085371Y-136890475D01*
X156085371Y-136890475D02*
X156009180Y-136852380D01*
X156009180Y-136852380D02*
X155932990Y-136776190D01*
X155932990Y-136776190D02*
X155894895Y-136661904D01*
X155894895Y-136661904D02*
X155894895Y-136585713D01*
X155894895Y-136585713D02*
X155932990Y-136471428D01*
X155932990Y-136471428D02*
X155971085Y-136433332D01*
X155894895Y-136166666D02*
X155894895Y-135633332D01*
X155894895Y-135633332D02*
X156694895Y-135976190D01*
X146010714Y-125163704D02*
X145972618Y-125201800D01*
X145972618Y-125201800D02*
X145858333Y-125239895D01*
X145858333Y-125239895D02*
X145782142Y-125239895D01*
X145782142Y-125239895D02*
X145667856Y-125201800D01*
X145667856Y-125201800D02*
X145591666Y-125125609D01*
X145591666Y-125125609D02*
X145553571Y-125049419D01*
X145553571Y-125049419D02*
X145515475Y-124897038D01*
X145515475Y-124897038D02*
X145515475Y-124782752D01*
X145515475Y-124782752D02*
X145553571Y-124630371D01*
X145553571Y-124630371D02*
X145591666Y-124554180D01*
X145591666Y-124554180D02*
X145667856Y-124477990D01*
X145667856Y-124477990D02*
X145782142Y-124439895D01*
X145782142Y-124439895D02*
X145858333Y-124439895D01*
X145858333Y-124439895D02*
X145972618Y-124477990D01*
X145972618Y-124477990D02*
X146010714Y-124516085D01*
X146772618Y-125239895D02*
X146315475Y-125239895D01*
X146544047Y-125239895D02*
X146544047Y-124439895D01*
X146544047Y-124439895D02*
X146467856Y-124554180D01*
X146467856Y-124554180D02*
X146391666Y-124630371D01*
X146391666Y-124630371D02*
X146315475Y-124668466D01*
X147458333Y-124706561D02*
X147458333Y-125239895D01*
X147267857Y-124401800D02*
X147077380Y-124973228D01*
X147077380Y-124973228D02*
X147572619Y-124973228D01*
X160064895Y-147890475D02*
X159264895Y-147890475D01*
X159264895Y-147890475D02*
X159264895Y-147699999D01*
X159264895Y-147699999D02*
X159302990Y-147585713D01*
X159302990Y-147585713D02*
X159379180Y-147509523D01*
X159379180Y-147509523D02*
X159455371Y-147471428D01*
X159455371Y-147471428D02*
X159607752Y-147433332D01*
X159607752Y-147433332D02*
X159722038Y-147433332D01*
X159722038Y-147433332D02*
X159874419Y-147471428D01*
X159874419Y-147471428D02*
X159950609Y-147509523D01*
X159950609Y-147509523D02*
X160026800Y-147585713D01*
X160026800Y-147585713D02*
X160064895Y-147699999D01*
X160064895Y-147699999D02*
X160064895Y-147890475D01*
X159531561Y-146747618D02*
X160064895Y-146747618D01*
X159226800Y-146938094D02*
X159798228Y-147128571D01*
X159798228Y-147128571D02*
X159798228Y-146633332D01*
X167188704Y-138733332D02*
X167226800Y-138771428D01*
X167226800Y-138771428D02*
X167264895Y-138885713D01*
X167264895Y-138885713D02*
X167264895Y-138961904D01*
X167264895Y-138961904D02*
X167226800Y-139076190D01*
X167226800Y-139076190D02*
X167150609Y-139152380D01*
X167150609Y-139152380D02*
X167074419Y-139190475D01*
X167074419Y-139190475D02*
X166922038Y-139228571D01*
X166922038Y-139228571D02*
X166807752Y-139228571D01*
X166807752Y-139228571D02*
X166655371Y-139190475D01*
X166655371Y-139190475D02*
X166579180Y-139152380D01*
X166579180Y-139152380D02*
X166502990Y-139076190D01*
X166502990Y-139076190D02*
X166464895Y-138961904D01*
X166464895Y-138961904D02*
X166464895Y-138885713D01*
X166464895Y-138885713D02*
X166502990Y-138771428D01*
X166502990Y-138771428D02*
X166541085Y-138733332D01*
X167264895Y-137971428D02*
X167264895Y-138428571D01*
X167264895Y-138199999D02*
X166464895Y-138199999D01*
X166464895Y-138199999D02*
X166579180Y-138276190D01*
X166579180Y-138276190D02*
X166655371Y-138352380D01*
X166655371Y-138352380D02*
X166693466Y-138428571D01*
X166339895Y-123164285D02*
X165958942Y-123430952D01*
X166339895Y-123621428D02*
X165539895Y-123621428D01*
X165539895Y-123621428D02*
X165539895Y-123316666D01*
X165539895Y-123316666D02*
X165577990Y-123240476D01*
X165577990Y-123240476D02*
X165616085Y-123202381D01*
X165616085Y-123202381D02*
X165692276Y-123164285D01*
X165692276Y-123164285D02*
X165806561Y-123164285D01*
X165806561Y-123164285D02*
X165882752Y-123202381D01*
X165882752Y-123202381D02*
X165920847Y-123240476D01*
X165920847Y-123240476D02*
X165958942Y-123316666D01*
X165958942Y-123316666D02*
X165958942Y-123621428D01*
X165616085Y-122859524D02*
X165577990Y-122821428D01*
X165577990Y-122821428D02*
X165539895Y-122745238D01*
X165539895Y-122745238D02*
X165539895Y-122554762D01*
X165539895Y-122554762D02*
X165577990Y-122478571D01*
X165577990Y-122478571D02*
X165616085Y-122440476D01*
X165616085Y-122440476D02*
X165692276Y-122402381D01*
X165692276Y-122402381D02*
X165768466Y-122402381D01*
X165768466Y-122402381D02*
X165882752Y-122440476D01*
X165882752Y-122440476D02*
X166339895Y-122897619D01*
X166339895Y-122897619D02*
X166339895Y-122402381D01*
X166339895Y-121640476D02*
X166339895Y-122097619D01*
X166339895Y-121869047D02*
X165539895Y-121869047D01*
X165539895Y-121869047D02*
X165654180Y-121945238D01*
X165654180Y-121945238D02*
X165730371Y-122021428D01*
X165730371Y-122021428D02*
X165768466Y-122097619D01*
X149285714Y-125294895D02*
X149019047Y-124913942D01*
X148828571Y-125294895D02*
X148828571Y-124494895D01*
X148828571Y-124494895D02*
X149133333Y-124494895D01*
X149133333Y-124494895D02*
X149209523Y-124532990D01*
X149209523Y-124532990D02*
X149247618Y-124571085D01*
X149247618Y-124571085D02*
X149285714Y-124647276D01*
X149285714Y-124647276D02*
X149285714Y-124761561D01*
X149285714Y-124761561D02*
X149247618Y-124837752D01*
X149247618Y-124837752D02*
X149209523Y-124875847D01*
X149209523Y-124875847D02*
X149133333Y-124913942D01*
X149133333Y-124913942D02*
X148828571Y-124913942D01*
X150047618Y-125294895D02*
X149590475Y-125294895D01*
X149819047Y-125294895D02*
X149819047Y-124494895D01*
X149819047Y-124494895D02*
X149742856Y-124609180D01*
X149742856Y-124609180D02*
X149666666Y-124685371D01*
X149666666Y-124685371D02*
X149590475Y-124723466D01*
X150504761Y-124837752D02*
X150428571Y-124799657D01*
X150428571Y-124799657D02*
X150390476Y-124761561D01*
X150390476Y-124761561D02*
X150352380Y-124685371D01*
X150352380Y-124685371D02*
X150352380Y-124647276D01*
X150352380Y-124647276D02*
X150390476Y-124571085D01*
X150390476Y-124571085D02*
X150428571Y-124532990D01*
X150428571Y-124532990D02*
X150504761Y-124494895D01*
X150504761Y-124494895D02*
X150657142Y-124494895D01*
X150657142Y-124494895D02*
X150733333Y-124532990D01*
X150733333Y-124532990D02*
X150771428Y-124571085D01*
X150771428Y-124571085D02*
X150809523Y-124647276D01*
X150809523Y-124647276D02*
X150809523Y-124685371D01*
X150809523Y-124685371D02*
X150771428Y-124761561D01*
X150771428Y-124761561D02*
X150733333Y-124799657D01*
X150733333Y-124799657D02*
X150657142Y-124837752D01*
X150657142Y-124837752D02*
X150504761Y-124837752D01*
X150504761Y-124837752D02*
X150428571Y-124875847D01*
X150428571Y-124875847D02*
X150390476Y-124913942D01*
X150390476Y-124913942D02*
X150352380Y-124990133D01*
X150352380Y-124990133D02*
X150352380Y-125142514D01*
X150352380Y-125142514D02*
X150390476Y-125218704D01*
X150390476Y-125218704D02*
X150428571Y-125256800D01*
X150428571Y-125256800D02*
X150504761Y-125294895D01*
X150504761Y-125294895D02*
X150657142Y-125294895D01*
X150657142Y-125294895D02*
X150733333Y-125256800D01*
X150733333Y-125256800D02*
X150771428Y-125218704D01*
X150771428Y-125218704D02*
X150809523Y-125142514D01*
X150809523Y-125142514D02*
X150809523Y-124990133D01*
X150809523Y-124990133D02*
X150771428Y-124913942D01*
X150771428Y-124913942D02*
X150733333Y-124875847D01*
X150733333Y-124875847D02*
X150657142Y-124837752D01*
X156860714Y-125194895D02*
X156594047Y-124813942D01*
X156403571Y-125194895D02*
X156403571Y-124394895D01*
X156403571Y-124394895D02*
X156708333Y-124394895D01*
X156708333Y-124394895D02*
X156784523Y-124432990D01*
X156784523Y-124432990D02*
X156822618Y-124471085D01*
X156822618Y-124471085D02*
X156860714Y-124547276D01*
X156860714Y-124547276D02*
X156860714Y-124661561D01*
X156860714Y-124661561D02*
X156822618Y-124737752D01*
X156822618Y-124737752D02*
X156784523Y-124775847D01*
X156784523Y-124775847D02*
X156708333Y-124813942D01*
X156708333Y-124813942D02*
X156403571Y-124813942D01*
X157622618Y-125194895D02*
X157165475Y-125194895D01*
X157394047Y-125194895D02*
X157394047Y-124394895D01*
X157394047Y-124394895D02*
X157317856Y-124509180D01*
X157317856Y-124509180D02*
X157241666Y-124585371D01*
X157241666Y-124585371D02*
X157165475Y-124623466D01*
X158117857Y-124394895D02*
X158194047Y-124394895D01*
X158194047Y-124394895D02*
X158270238Y-124432990D01*
X158270238Y-124432990D02*
X158308333Y-124471085D01*
X158308333Y-124471085D02*
X158346428Y-124547276D01*
X158346428Y-124547276D02*
X158384523Y-124699657D01*
X158384523Y-124699657D02*
X158384523Y-124890133D01*
X158384523Y-124890133D02*
X158346428Y-125042514D01*
X158346428Y-125042514D02*
X158308333Y-125118704D01*
X158308333Y-125118704D02*
X158270238Y-125156800D01*
X158270238Y-125156800D02*
X158194047Y-125194895D01*
X158194047Y-125194895D02*
X158117857Y-125194895D01*
X158117857Y-125194895D02*
X158041666Y-125156800D01*
X158041666Y-125156800D02*
X158003571Y-125118704D01*
X158003571Y-125118704D02*
X157965476Y-125042514D01*
X157965476Y-125042514D02*
X157927380Y-124890133D01*
X157927380Y-124890133D02*
X157927380Y-124699657D01*
X157927380Y-124699657D02*
X157965476Y-124547276D01*
X157965476Y-124547276D02*
X158003571Y-124471085D01*
X158003571Y-124471085D02*
X158041666Y-124432990D01*
X158041666Y-124432990D02*
X158117857Y-124394895D01*
X140913704Y-132558332D02*
X140951800Y-132596428D01*
X140951800Y-132596428D02*
X140989895Y-132710713D01*
X140989895Y-132710713D02*
X140989895Y-132786904D01*
X140989895Y-132786904D02*
X140951800Y-132901190D01*
X140951800Y-132901190D02*
X140875609Y-132977380D01*
X140875609Y-132977380D02*
X140799419Y-133015475D01*
X140799419Y-133015475D02*
X140647038Y-133053571D01*
X140647038Y-133053571D02*
X140532752Y-133053571D01*
X140532752Y-133053571D02*
X140380371Y-133015475D01*
X140380371Y-133015475D02*
X140304180Y-132977380D01*
X140304180Y-132977380D02*
X140227990Y-132901190D01*
X140227990Y-132901190D02*
X140189895Y-132786904D01*
X140189895Y-132786904D02*
X140189895Y-132710713D01*
X140189895Y-132710713D02*
X140227990Y-132596428D01*
X140227990Y-132596428D02*
X140266085Y-132558332D01*
X140189895Y-132291666D02*
X140189895Y-131796428D01*
X140189895Y-131796428D02*
X140494657Y-132063094D01*
X140494657Y-132063094D02*
X140494657Y-131948809D01*
X140494657Y-131948809D02*
X140532752Y-131872618D01*
X140532752Y-131872618D02*
X140570847Y-131834523D01*
X140570847Y-131834523D02*
X140647038Y-131796428D01*
X140647038Y-131796428D02*
X140837514Y-131796428D01*
X140837514Y-131796428D02*
X140913704Y-131834523D01*
X140913704Y-131834523D02*
X140951800Y-131872618D01*
X140951800Y-131872618D02*
X140989895Y-131948809D01*
X140989895Y-131948809D02*
X140989895Y-132177380D01*
X140989895Y-132177380D02*
X140951800Y-132253571D01*
X140951800Y-132253571D02*
X140913704Y-132291666D01*
X160073809Y-114666085D02*
X159997619Y-114627990D01*
X159997619Y-114627990D02*
X159921428Y-114551800D01*
X159921428Y-114551800D02*
X159807142Y-114437514D01*
X159807142Y-114437514D02*
X159730952Y-114399419D01*
X159730952Y-114399419D02*
X159654761Y-114399419D01*
X159692857Y-114589895D02*
X159616666Y-114551800D01*
X159616666Y-114551800D02*
X159540476Y-114475609D01*
X159540476Y-114475609D02*
X159502380Y-114323228D01*
X159502380Y-114323228D02*
X159502380Y-114056561D01*
X159502380Y-114056561D02*
X159540476Y-113904180D01*
X159540476Y-113904180D02*
X159616666Y-113827990D01*
X159616666Y-113827990D02*
X159692857Y-113789895D01*
X159692857Y-113789895D02*
X159845238Y-113789895D01*
X159845238Y-113789895D02*
X159921428Y-113827990D01*
X159921428Y-113827990D02*
X159997619Y-113904180D01*
X159997619Y-113904180D02*
X160035714Y-114056561D01*
X160035714Y-114056561D02*
X160035714Y-114323228D01*
X160035714Y-114323228D02*
X159997619Y-114475609D01*
X159997619Y-114475609D02*
X159921428Y-114551800D01*
X159921428Y-114551800D02*
X159845238Y-114589895D01*
X159845238Y-114589895D02*
X159692857Y-114589895D01*
X160340475Y-113866085D02*
X160378571Y-113827990D01*
X160378571Y-113827990D02*
X160454761Y-113789895D01*
X160454761Y-113789895D02*
X160645237Y-113789895D01*
X160645237Y-113789895D02*
X160721428Y-113827990D01*
X160721428Y-113827990D02*
X160759523Y-113866085D01*
X160759523Y-113866085D02*
X160797618Y-113942276D01*
X160797618Y-113942276D02*
X160797618Y-114018466D01*
X160797618Y-114018466D02*
X160759523Y-114132752D01*
X160759523Y-114132752D02*
X160302380Y-114589895D01*
X160302380Y-114589895D02*
X160797618Y-114589895D01*
X146898809Y-114816085D02*
X146822619Y-114777990D01*
X146822619Y-114777990D02*
X146746428Y-114701800D01*
X146746428Y-114701800D02*
X146632142Y-114587514D01*
X146632142Y-114587514D02*
X146555952Y-114549419D01*
X146555952Y-114549419D02*
X146479761Y-114549419D01*
X146517857Y-114739895D02*
X146441666Y-114701800D01*
X146441666Y-114701800D02*
X146365476Y-114625609D01*
X146365476Y-114625609D02*
X146327380Y-114473228D01*
X146327380Y-114473228D02*
X146327380Y-114206561D01*
X146327380Y-114206561D02*
X146365476Y-114054180D01*
X146365476Y-114054180D02*
X146441666Y-113977990D01*
X146441666Y-113977990D02*
X146517857Y-113939895D01*
X146517857Y-113939895D02*
X146670238Y-113939895D01*
X146670238Y-113939895D02*
X146746428Y-113977990D01*
X146746428Y-113977990D02*
X146822619Y-114054180D01*
X146822619Y-114054180D02*
X146860714Y-114206561D01*
X146860714Y-114206561D02*
X146860714Y-114473228D01*
X146860714Y-114473228D02*
X146822619Y-114625609D01*
X146822619Y-114625609D02*
X146746428Y-114701800D01*
X146746428Y-114701800D02*
X146670238Y-114739895D01*
X146670238Y-114739895D02*
X146517857Y-114739895D01*
X147546428Y-114206561D02*
X147546428Y-114739895D01*
X147355952Y-113901800D02*
X147165475Y-114473228D01*
X147165475Y-114473228D02*
X147660714Y-114473228D01*
X165164895Y-143533332D02*
X164783942Y-143799999D01*
X165164895Y-143990475D02*
X164364895Y-143990475D01*
X164364895Y-143990475D02*
X164364895Y-143685713D01*
X164364895Y-143685713D02*
X164402990Y-143609523D01*
X164402990Y-143609523D02*
X164441085Y-143571428D01*
X164441085Y-143571428D02*
X164517276Y-143533332D01*
X164517276Y-143533332D02*
X164631561Y-143533332D01*
X164631561Y-143533332D02*
X164707752Y-143571428D01*
X164707752Y-143571428D02*
X164745847Y-143609523D01*
X164745847Y-143609523D02*
X164783942Y-143685713D01*
X164783942Y-143685713D02*
X164783942Y-143990475D01*
X165164895Y-142771428D02*
X165164895Y-143228571D01*
X165164895Y-142999999D02*
X164364895Y-142999999D01*
X164364895Y-142999999D02*
X164479180Y-143076190D01*
X164479180Y-143076190D02*
X164555371Y-143152380D01*
X164555371Y-143152380D02*
X164593466Y-143228571D01*
X158764895Y-140959523D02*
X159412514Y-140959523D01*
X159412514Y-140959523D02*
X159488704Y-140921428D01*
X159488704Y-140921428D02*
X159526800Y-140883333D01*
X159526800Y-140883333D02*
X159564895Y-140807142D01*
X159564895Y-140807142D02*
X159564895Y-140654761D01*
X159564895Y-140654761D02*
X159526800Y-140578571D01*
X159526800Y-140578571D02*
X159488704Y-140540476D01*
X159488704Y-140540476D02*
X159412514Y-140502380D01*
X159412514Y-140502380D02*
X158764895Y-140502380D01*
X159564895Y-139702381D02*
X159564895Y-140159524D01*
X159564895Y-139930952D02*
X158764895Y-139930952D01*
X158764895Y-139930952D02*
X158879180Y-140007143D01*
X158879180Y-140007143D02*
X158955371Y-140083333D01*
X158955371Y-140083333D02*
X158993466Y-140159524D01*
X157189895Y-147690475D02*
X156389895Y-147690475D01*
X156389895Y-147690475D02*
X156389895Y-147499999D01*
X156389895Y-147499999D02*
X156427990Y-147385713D01*
X156427990Y-147385713D02*
X156504180Y-147309523D01*
X156504180Y-147309523D02*
X156580371Y-147271428D01*
X156580371Y-147271428D02*
X156732752Y-147233332D01*
X156732752Y-147233332D02*
X156847038Y-147233332D01*
X156847038Y-147233332D02*
X156999419Y-147271428D01*
X156999419Y-147271428D02*
X157075609Y-147309523D01*
X157075609Y-147309523D02*
X157151800Y-147385713D01*
X157151800Y-147385713D02*
X157189895Y-147499999D01*
X157189895Y-147499999D02*
X157189895Y-147690475D01*
X156389895Y-146509523D02*
X156389895Y-146890475D01*
X156389895Y-146890475D02*
X156770847Y-146928571D01*
X156770847Y-146928571D02*
X156732752Y-146890475D01*
X156732752Y-146890475D02*
X156694657Y-146814285D01*
X156694657Y-146814285D02*
X156694657Y-146623809D01*
X156694657Y-146623809D02*
X156732752Y-146547618D01*
X156732752Y-146547618D02*
X156770847Y-146509523D01*
X156770847Y-146509523D02*
X156847038Y-146471428D01*
X156847038Y-146471428D02*
X157037514Y-146471428D01*
X157037514Y-146471428D02*
X157113704Y-146509523D01*
X157113704Y-146509523D02*
X157151800Y-146547618D01*
X157151800Y-146547618D02*
X157189895Y-146623809D01*
X157189895Y-146623809D02*
X157189895Y-146814285D01*
X157189895Y-146814285D02*
X157151800Y-146890475D01*
X157151800Y-146890475D02*
X157113704Y-146928571D01*
X131585714Y-124413704D02*
X131547618Y-124451800D01*
X131547618Y-124451800D02*
X131433333Y-124489895D01*
X131433333Y-124489895D02*
X131357142Y-124489895D01*
X131357142Y-124489895D02*
X131242856Y-124451800D01*
X131242856Y-124451800D02*
X131166666Y-124375609D01*
X131166666Y-124375609D02*
X131128571Y-124299419D01*
X131128571Y-124299419D02*
X131090475Y-124147038D01*
X131090475Y-124147038D02*
X131090475Y-124032752D01*
X131090475Y-124032752D02*
X131128571Y-123880371D01*
X131128571Y-123880371D02*
X131166666Y-123804180D01*
X131166666Y-123804180D02*
X131242856Y-123727990D01*
X131242856Y-123727990D02*
X131357142Y-123689895D01*
X131357142Y-123689895D02*
X131433333Y-123689895D01*
X131433333Y-123689895D02*
X131547618Y-123727990D01*
X131547618Y-123727990D02*
X131585714Y-123766085D01*
X132347618Y-124489895D02*
X131890475Y-124489895D01*
X132119047Y-124489895D02*
X132119047Y-123689895D01*
X132119047Y-123689895D02*
X132042856Y-123804180D01*
X132042856Y-123804180D02*
X131966666Y-123880371D01*
X131966666Y-123880371D02*
X131890475Y-123918466D01*
X133071428Y-123689895D02*
X132690476Y-123689895D01*
X132690476Y-123689895D02*
X132652380Y-124070847D01*
X132652380Y-124070847D02*
X132690476Y-124032752D01*
X132690476Y-124032752D02*
X132766666Y-123994657D01*
X132766666Y-123994657D02*
X132957142Y-123994657D01*
X132957142Y-123994657D02*
X133033333Y-124032752D01*
X133033333Y-124032752D02*
X133071428Y-124070847D01*
X133071428Y-124070847D02*
X133109523Y-124147038D01*
X133109523Y-124147038D02*
X133109523Y-124337514D01*
X133109523Y-124337514D02*
X133071428Y-124413704D01*
X133071428Y-124413704D02*
X133033333Y-124451800D01*
X133033333Y-124451800D02*
X132957142Y-124489895D01*
X132957142Y-124489895D02*
X132766666Y-124489895D01*
X132766666Y-124489895D02*
X132690476Y-124451800D01*
X132690476Y-124451800D02*
X132652380Y-124413704D01*
X157966667Y-130688704D02*
X157928571Y-130726800D01*
X157928571Y-130726800D02*
X157814286Y-130764895D01*
X157814286Y-130764895D02*
X157738095Y-130764895D01*
X157738095Y-130764895D02*
X157623809Y-130726800D01*
X157623809Y-130726800D02*
X157547619Y-130650609D01*
X157547619Y-130650609D02*
X157509524Y-130574419D01*
X157509524Y-130574419D02*
X157471428Y-130422038D01*
X157471428Y-130422038D02*
X157471428Y-130307752D01*
X157471428Y-130307752D02*
X157509524Y-130155371D01*
X157509524Y-130155371D02*
X157547619Y-130079180D01*
X157547619Y-130079180D02*
X157623809Y-130002990D01*
X157623809Y-130002990D02*
X157738095Y-129964895D01*
X157738095Y-129964895D02*
X157814286Y-129964895D01*
X157814286Y-129964895D02*
X157928571Y-130002990D01*
X157928571Y-130002990D02*
X157966667Y-130041085D01*
X158423809Y-130307752D02*
X158347619Y-130269657D01*
X158347619Y-130269657D02*
X158309524Y-130231561D01*
X158309524Y-130231561D02*
X158271428Y-130155371D01*
X158271428Y-130155371D02*
X158271428Y-130117276D01*
X158271428Y-130117276D02*
X158309524Y-130041085D01*
X158309524Y-130041085D02*
X158347619Y-130002990D01*
X158347619Y-130002990D02*
X158423809Y-129964895D01*
X158423809Y-129964895D02*
X158576190Y-129964895D01*
X158576190Y-129964895D02*
X158652381Y-130002990D01*
X158652381Y-130002990D02*
X158690476Y-130041085D01*
X158690476Y-130041085D02*
X158728571Y-130117276D01*
X158728571Y-130117276D02*
X158728571Y-130155371D01*
X158728571Y-130155371D02*
X158690476Y-130231561D01*
X158690476Y-130231561D02*
X158652381Y-130269657D01*
X158652381Y-130269657D02*
X158576190Y-130307752D01*
X158576190Y-130307752D02*
X158423809Y-130307752D01*
X158423809Y-130307752D02*
X158347619Y-130345847D01*
X158347619Y-130345847D02*
X158309524Y-130383942D01*
X158309524Y-130383942D02*
X158271428Y-130460133D01*
X158271428Y-130460133D02*
X158271428Y-130612514D01*
X158271428Y-130612514D02*
X158309524Y-130688704D01*
X158309524Y-130688704D02*
X158347619Y-130726800D01*
X158347619Y-130726800D02*
X158423809Y-130764895D01*
X158423809Y-130764895D02*
X158576190Y-130764895D01*
X158576190Y-130764895D02*
X158652381Y-130726800D01*
X158652381Y-130726800D02*
X158690476Y-130688704D01*
X158690476Y-130688704D02*
X158728571Y-130612514D01*
X158728571Y-130612514D02*
X158728571Y-130460133D01*
X158728571Y-130460133D02*
X158690476Y-130383942D01*
X158690476Y-130383942D02*
X158652381Y-130345847D01*
X158652381Y-130345847D02*
X158576190Y-130307752D01*
X143988704Y-130514285D02*
X144026800Y-130552381D01*
X144026800Y-130552381D02*
X144064895Y-130666666D01*
X144064895Y-130666666D02*
X144064895Y-130742857D01*
X144064895Y-130742857D02*
X144026800Y-130857143D01*
X144026800Y-130857143D02*
X143950609Y-130933333D01*
X143950609Y-130933333D02*
X143874419Y-130971428D01*
X143874419Y-130971428D02*
X143722038Y-131009524D01*
X143722038Y-131009524D02*
X143607752Y-131009524D01*
X143607752Y-131009524D02*
X143455371Y-130971428D01*
X143455371Y-130971428D02*
X143379180Y-130933333D01*
X143379180Y-130933333D02*
X143302990Y-130857143D01*
X143302990Y-130857143D02*
X143264895Y-130742857D01*
X143264895Y-130742857D02*
X143264895Y-130666666D01*
X143264895Y-130666666D02*
X143302990Y-130552381D01*
X143302990Y-130552381D02*
X143341085Y-130514285D01*
X144064895Y-129752381D02*
X144064895Y-130209524D01*
X144064895Y-129980952D02*
X143264895Y-129980952D01*
X143264895Y-129980952D02*
X143379180Y-130057143D01*
X143379180Y-130057143D02*
X143455371Y-130133333D01*
X143455371Y-130133333D02*
X143493466Y-130209524D01*
X143264895Y-129485714D02*
X143264895Y-128952380D01*
X143264895Y-128952380D02*
X144064895Y-129295238D01*
X138560714Y-124739895D02*
X138294047Y-124358942D01*
X138103571Y-124739895D02*
X138103571Y-123939895D01*
X138103571Y-123939895D02*
X138408333Y-123939895D01*
X138408333Y-123939895D02*
X138484523Y-123977990D01*
X138484523Y-123977990D02*
X138522618Y-124016085D01*
X138522618Y-124016085D02*
X138560714Y-124092276D01*
X138560714Y-124092276D02*
X138560714Y-124206561D01*
X138560714Y-124206561D02*
X138522618Y-124282752D01*
X138522618Y-124282752D02*
X138484523Y-124320847D01*
X138484523Y-124320847D02*
X138408333Y-124358942D01*
X138408333Y-124358942D02*
X138103571Y-124358942D01*
X139322618Y-124739895D02*
X138865475Y-124739895D01*
X139094047Y-124739895D02*
X139094047Y-123939895D01*
X139094047Y-123939895D02*
X139017856Y-124054180D01*
X139017856Y-124054180D02*
X138941666Y-124130371D01*
X138941666Y-124130371D02*
X138865475Y-124168466D01*
X140046428Y-123939895D02*
X139665476Y-123939895D01*
X139665476Y-123939895D02*
X139627380Y-124320847D01*
X139627380Y-124320847D02*
X139665476Y-124282752D01*
X139665476Y-124282752D02*
X139741666Y-124244657D01*
X139741666Y-124244657D02*
X139932142Y-124244657D01*
X139932142Y-124244657D02*
X140008333Y-124282752D01*
X140008333Y-124282752D02*
X140046428Y-124320847D01*
X140046428Y-124320847D02*
X140084523Y-124397038D01*
X140084523Y-124397038D02*
X140084523Y-124587514D01*
X140084523Y-124587514D02*
X140046428Y-124663704D01*
X140046428Y-124663704D02*
X140008333Y-124701800D01*
X140008333Y-124701800D02*
X139932142Y-124739895D01*
X139932142Y-124739895D02*
X139741666Y-124739895D01*
X139741666Y-124739895D02*
X139665476Y-124701800D01*
X139665476Y-124701800D02*
X139627380Y-124663704D01*
X163364895Y-144133332D02*
X162983942Y-144399999D01*
X163364895Y-144590475D02*
X162564895Y-144590475D01*
X162564895Y-144590475D02*
X162564895Y-144285713D01*
X162564895Y-144285713D02*
X162602990Y-144209523D01*
X162602990Y-144209523D02*
X162641085Y-144171428D01*
X162641085Y-144171428D02*
X162717276Y-144133332D01*
X162717276Y-144133332D02*
X162831561Y-144133332D01*
X162831561Y-144133332D02*
X162907752Y-144171428D01*
X162907752Y-144171428D02*
X162945847Y-144209523D01*
X162945847Y-144209523D02*
X162983942Y-144285713D01*
X162983942Y-144285713D02*
X162983942Y-144590475D01*
X162641085Y-143828571D02*
X162602990Y-143790475D01*
X162602990Y-143790475D02*
X162564895Y-143714285D01*
X162564895Y-143714285D02*
X162564895Y-143523809D01*
X162564895Y-143523809D02*
X162602990Y-143447618D01*
X162602990Y-143447618D02*
X162641085Y-143409523D01*
X162641085Y-143409523D02*
X162717276Y-143371428D01*
X162717276Y-143371428D02*
X162793466Y-143371428D01*
X162793466Y-143371428D02*
X162907752Y-143409523D01*
X162907752Y-143409523D02*
X163364895Y-143866666D01*
X163364895Y-143866666D02*
X163364895Y-143371428D01*
X132348809Y-114616085D02*
X132272619Y-114577990D01*
X132272619Y-114577990D02*
X132196428Y-114501800D01*
X132196428Y-114501800D02*
X132082142Y-114387514D01*
X132082142Y-114387514D02*
X132005952Y-114349419D01*
X132005952Y-114349419D02*
X131929761Y-114349419D01*
X131967857Y-114539895D02*
X131891666Y-114501800D01*
X131891666Y-114501800D02*
X131815476Y-114425609D01*
X131815476Y-114425609D02*
X131777380Y-114273228D01*
X131777380Y-114273228D02*
X131777380Y-114006561D01*
X131777380Y-114006561D02*
X131815476Y-113854180D01*
X131815476Y-113854180D02*
X131891666Y-113777990D01*
X131891666Y-113777990D02*
X131967857Y-113739895D01*
X131967857Y-113739895D02*
X132120238Y-113739895D01*
X132120238Y-113739895D02*
X132196428Y-113777990D01*
X132196428Y-113777990D02*
X132272619Y-113854180D01*
X132272619Y-113854180D02*
X132310714Y-114006561D01*
X132310714Y-114006561D02*
X132310714Y-114273228D01*
X132310714Y-114273228D02*
X132272619Y-114425609D01*
X132272619Y-114425609D02*
X132196428Y-114501800D01*
X132196428Y-114501800D02*
X132120238Y-114539895D01*
X132120238Y-114539895D02*
X131967857Y-114539895D01*
X132996428Y-113739895D02*
X132844047Y-113739895D01*
X132844047Y-113739895D02*
X132767856Y-113777990D01*
X132767856Y-113777990D02*
X132729761Y-113816085D01*
X132729761Y-113816085D02*
X132653571Y-113930371D01*
X132653571Y-113930371D02*
X132615475Y-114082752D01*
X132615475Y-114082752D02*
X132615475Y-114387514D01*
X132615475Y-114387514D02*
X132653571Y-114463704D01*
X132653571Y-114463704D02*
X132691666Y-114501800D01*
X132691666Y-114501800D02*
X132767856Y-114539895D01*
X132767856Y-114539895D02*
X132920237Y-114539895D01*
X132920237Y-114539895D02*
X132996428Y-114501800D01*
X132996428Y-114501800D02*
X133034523Y-114463704D01*
X133034523Y-114463704D02*
X133072618Y-114387514D01*
X133072618Y-114387514D02*
X133072618Y-114197038D01*
X133072618Y-114197038D02*
X133034523Y-114120847D01*
X133034523Y-114120847D02*
X132996428Y-114082752D01*
X132996428Y-114082752D02*
X132920237Y-114044657D01*
X132920237Y-114044657D02*
X132767856Y-114044657D01*
X132767856Y-114044657D02*
X132691666Y-114082752D01*
X132691666Y-114082752D02*
X132653571Y-114120847D01*
X132653571Y-114120847D02*
X132615475Y-114197038D01*
X152208333Y-143589895D02*
X152208333Y-144161323D01*
X152208333Y-144161323D02*
X152170238Y-144275609D01*
X152170238Y-144275609D02*
X152094047Y-144351800D01*
X152094047Y-144351800D02*
X151979762Y-144389895D01*
X151979762Y-144389895D02*
X151903571Y-144389895D01*
X152932143Y-143856561D02*
X152932143Y-144389895D01*
X152741667Y-143551800D02*
X152551190Y-144123228D01*
X152551190Y-144123228D02*
X153046429Y-144123228D01*
X166964895Y-142290475D02*
X166164895Y-142290475D01*
X166164895Y-142290475D02*
X166164895Y-142099999D01*
X166164895Y-142099999D02*
X166202990Y-141985713D01*
X166202990Y-141985713D02*
X166279180Y-141909523D01*
X166279180Y-141909523D02*
X166355371Y-141871428D01*
X166355371Y-141871428D02*
X166507752Y-141833332D01*
X166507752Y-141833332D02*
X166622038Y-141833332D01*
X166622038Y-141833332D02*
X166774419Y-141871428D01*
X166774419Y-141871428D02*
X166850609Y-141909523D01*
X166850609Y-141909523D02*
X166926800Y-141985713D01*
X166926800Y-141985713D02*
X166964895Y-142099999D01*
X166964895Y-142099999D02*
X166964895Y-142290475D01*
X166164895Y-141566666D02*
X166164895Y-141071428D01*
X166164895Y-141071428D02*
X166469657Y-141338094D01*
X166469657Y-141338094D02*
X166469657Y-141223809D01*
X166469657Y-141223809D02*
X166507752Y-141147618D01*
X166507752Y-141147618D02*
X166545847Y-141109523D01*
X166545847Y-141109523D02*
X166622038Y-141071428D01*
X166622038Y-141071428D02*
X166812514Y-141071428D01*
X166812514Y-141071428D02*
X166888704Y-141109523D01*
X166888704Y-141109523D02*
X166926800Y-141147618D01*
X166926800Y-141147618D02*
X166964895Y-141223809D01*
X166964895Y-141223809D02*
X166964895Y-141452380D01*
X166964895Y-141452380D02*
X166926800Y-141528571D01*
X166926800Y-141528571D02*
X166888704Y-141566666D01*
X135685714Y-124864895D02*
X135419047Y-124483942D01*
X135228571Y-124864895D02*
X135228571Y-124064895D01*
X135228571Y-124064895D02*
X135533333Y-124064895D01*
X135533333Y-124064895D02*
X135609523Y-124102990D01*
X135609523Y-124102990D02*
X135647618Y-124141085D01*
X135647618Y-124141085D02*
X135685714Y-124217276D01*
X135685714Y-124217276D02*
X135685714Y-124331561D01*
X135685714Y-124331561D02*
X135647618Y-124407752D01*
X135647618Y-124407752D02*
X135609523Y-124445847D01*
X135609523Y-124445847D02*
X135533333Y-124483942D01*
X135533333Y-124483942D02*
X135228571Y-124483942D01*
X135990475Y-124141085D02*
X136028571Y-124102990D01*
X136028571Y-124102990D02*
X136104761Y-124064895D01*
X136104761Y-124064895D02*
X136295237Y-124064895D01*
X136295237Y-124064895D02*
X136371428Y-124102990D01*
X136371428Y-124102990D02*
X136409523Y-124141085D01*
X136409523Y-124141085D02*
X136447618Y-124217276D01*
X136447618Y-124217276D02*
X136447618Y-124293466D01*
X136447618Y-124293466D02*
X136409523Y-124407752D01*
X136409523Y-124407752D02*
X135952380Y-124864895D01*
X135952380Y-124864895D02*
X136447618Y-124864895D01*
X136714285Y-124064895D02*
X137209523Y-124064895D01*
X137209523Y-124064895D02*
X136942857Y-124369657D01*
X136942857Y-124369657D02*
X137057142Y-124369657D01*
X137057142Y-124369657D02*
X137133333Y-124407752D01*
X137133333Y-124407752D02*
X137171428Y-124445847D01*
X137171428Y-124445847D02*
X137209523Y-124522038D01*
X137209523Y-124522038D02*
X137209523Y-124712514D01*
X137209523Y-124712514D02*
X137171428Y-124788704D01*
X137171428Y-124788704D02*
X137133333Y-124826800D01*
X137133333Y-124826800D02*
X137057142Y-124864895D01*
X137057142Y-124864895D02*
X136828571Y-124864895D01*
X136828571Y-124864895D02*
X136752380Y-124826800D01*
X136752380Y-124826800D02*
X136714285Y-124788704D01*
X165139895Y-147865475D02*
X164339895Y-147865475D01*
X164339895Y-147865475D02*
X164339895Y-147674999D01*
X164339895Y-147674999D02*
X164377990Y-147560713D01*
X164377990Y-147560713D02*
X164454180Y-147484523D01*
X164454180Y-147484523D02*
X164530371Y-147446428D01*
X164530371Y-147446428D02*
X164682752Y-147408332D01*
X164682752Y-147408332D02*
X164797038Y-147408332D01*
X164797038Y-147408332D02*
X164949419Y-147446428D01*
X164949419Y-147446428D02*
X165025609Y-147484523D01*
X165025609Y-147484523D02*
X165101800Y-147560713D01*
X165101800Y-147560713D02*
X165139895Y-147674999D01*
X165139895Y-147674999D02*
X165139895Y-147865475D01*
X165139895Y-146646428D02*
X165139895Y-147103571D01*
X165139895Y-146874999D02*
X164339895Y-146874999D01*
X164339895Y-146874999D02*
X164454180Y-146951190D01*
X164454180Y-146951190D02*
X164530371Y-147027380D01*
X164530371Y-147027380D02*
X164568466Y-147103571D01*
X163534895Y-125639285D02*
X163153942Y-125905952D01*
X163534895Y-126096428D02*
X162734895Y-126096428D01*
X162734895Y-126096428D02*
X162734895Y-125791666D01*
X162734895Y-125791666D02*
X162772990Y-125715476D01*
X162772990Y-125715476D02*
X162811085Y-125677381D01*
X162811085Y-125677381D02*
X162887276Y-125639285D01*
X162887276Y-125639285D02*
X163001561Y-125639285D01*
X163001561Y-125639285D02*
X163077752Y-125677381D01*
X163077752Y-125677381D02*
X163115847Y-125715476D01*
X163115847Y-125715476D02*
X163153942Y-125791666D01*
X163153942Y-125791666D02*
X163153942Y-126096428D01*
X163534895Y-124877381D02*
X163534895Y-125334524D01*
X163534895Y-125105952D02*
X162734895Y-125105952D01*
X162734895Y-125105952D02*
X162849180Y-125182143D01*
X162849180Y-125182143D02*
X162925371Y-125258333D01*
X162925371Y-125258333D02*
X162963466Y-125334524D01*
X163534895Y-124115476D02*
X163534895Y-124572619D01*
X163534895Y-124344047D02*
X162734895Y-124344047D01*
X162734895Y-124344047D02*
X162849180Y-124420238D01*
X162849180Y-124420238D02*
X162925371Y-124496428D01*
X162925371Y-124496428D02*
X162963466Y-124572619D01*
X154510714Y-126639895D02*
X154244047Y-126258942D01*
X154053571Y-126639895D02*
X154053571Y-125839895D01*
X154053571Y-125839895D02*
X154358333Y-125839895D01*
X154358333Y-125839895D02*
X154434523Y-125877990D01*
X154434523Y-125877990D02*
X154472618Y-125916085D01*
X154472618Y-125916085D02*
X154510714Y-125992276D01*
X154510714Y-125992276D02*
X154510714Y-126106561D01*
X154510714Y-126106561D02*
X154472618Y-126182752D01*
X154472618Y-126182752D02*
X154434523Y-126220847D01*
X154434523Y-126220847D02*
X154358333Y-126258942D01*
X154358333Y-126258942D02*
X154053571Y-126258942D01*
X154815475Y-125916085D02*
X154853571Y-125877990D01*
X154853571Y-125877990D02*
X154929761Y-125839895D01*
X154929761Y-125839895D02*
X155120237Y-125839895D01*
X155120237Y-125839895D02*
X155196428Y-125877990D01*
X155196428Y-125877990D02*
X155234523Y-125916085D01*
X155234523Y-125916085D02*
X155272618Y-125992276D01*
X155272618Y-125992276D02*
X155272618Y-126068466D01*
X155272618Y-126068466D02*
X155234523Y-126182752D01*
X155234523Y-126182752D02*
X154777380Y-126639895D01*
X154777380Y-126639895D02*
X155272618Y-126639895D01*
X155767857Y-125839895D02*
X155844047Y-125839895D01*
X155844047Y-125839895D02*
X155920238Y-125877990D01*
X155920238Y-125877990D02*
X155958333Y-125916085D01*
X155958333Y-125916085D02*
X155996428Y-125992276D01*
X155996428Y-125992276D02*
X156034523Y-126144657D01*
X156034523Y-126144657D02*
X156034523Y-126335133D01*
X156034523Y-126335133D02*
X155996428Y-126487514D01*
X155996428Y-126487514D02*
X155958333Y-126563704D01*
X155958333Y-126563704D02*
X155920238Y-126601800D01*
X155920238Y-126601800D02*
X155844047Y-126639895D01*
X155844047Y-126639895D02*
X155767857Y-126639895D01*
X155767857Y-126639895D02*
X155691666Y-126601800D01*
X155691666Y-126601800D02*
X155653571Y-126563704D01*
X155653571Y-126563704D02*
X155615476Y-126487514D01*
X155615476Y-126487514D02*
X155577380Y-126335133D01*
X155577380Y-126335133D02*
X155577380Y-126144657D01*
X155577380Y-126144657D02*
X155615476Y-125992276D01*
X155615476Y-125992276D02*
X155653571Y-125916085D01*
X155653571Y-125916085D02*
X155691666Y-125877990D01*
X155691666Y-125877990D02*
X155767857Y-125839895D01*
X134641667Y-144364895D02*
X134375000Y-143983942D01*
X134184524Y-144364895D02*
X134184524Y-143564895D01*
X134184524Y-143564895D02*
X134489286Y-143564895D01*
X134489286Y-143564895D02*
X134565476Y-143602990D01*
X134565476Y-143602990D02*
X134603571Y-143641085D01*
X134603571Y-143641085D02*
X134641667Y-143717276D01*
X134641667Y-143717276D02*
X134641667Y-143831561D01*
X134641667Y-143831561D02*
X134603571Y-143907752D01*
X134603571Y-143907752D02*
X134565476Y-143945847D01*
X134565476Y-143945847D02*
X134489286Y-143983942D01*
X134489286Y-143983942D02*
X134184524Y-143983942D01*
X135327381Y-143831561D02*
X135327381Y-144364895D01*
X135136905Y-143526800D02*
X134946428Y-144098228D01*
X134946428Y-144098228D02*
X135441667Y-144098228D01*
X156463704Y-133133332D02*
X156501800Y-133171428D01*
X156501800Y-133171428D02*
X156539895Y-133285713D01*
X156539895Y-133285713D02*
X156539895Y-133361904D01*
X156539895Y-133361904D02*
X156501800Y-133476190D01*
X156501800Y-133476190D02*
X156425609Y-133552380D01*
X156425609Y-133552380D02*
X156349419Y-133590475D01*
X156349419Y-133590475D02*
X156197038Y-133628571D01*
X156197038Y-133628571D02*
X156082752Y-133628571D01*
X156082752Y-133628571D02*
X155930371Y-133590475D01*
X155930371Y-133590475D02*
X155854180Y-133552380D01*
X155854180Y-133552380D02*
X155777990Y-133476190D01*
X155777990Y-133476190D02*
X155739895Y-133361904D01*
X155739895Y-133361904D02*
X155739895Y-133285713D01*
X155739895Y-133285713D02*
X155777990Y-133171428D01*
X155777990Y-133171428D02*
X155816085Y-133133332D01*
X156006561Y-132447618D02*
X156539895Y-132447618D01*
X155701800Y-132638094D02*
X156273228Y-132828571D01*
X156273228Y-132828571D02*
X156273228Y-132333332D01*
X143091666Y-139464895D02*
X142710714Y-139464895D01*
X142710714Y-139464895D02*
X142710714Y-138664895D01*
X143777380Y-139464895D02*
X143320237Y-139464895D01*
X143548809Y-139464895D02*
X143548809Y-138664895D01*
X143548809Y-138664895D02*
X143472618Y-138779180D01*
X143472618Y-138779180D02*
X143396428Y-138855371D01*
X143396428Y-138855371D02*
X143320237Y-138893466D01*
X155841667Y-139363704D02*
X155803571Y-139401800D01*
X155803571Y-139401800D02*
X155689286Y-139439895D01*
X155689286Y-139439895D02*
X155613095Y-139439895D01*
X155613095Y-139439895D02*
X155498809Y-139401800D01*
X155498809Y-139401800D02*
X155422619Y-139325609D01*
X155422619Y-139325609D02*
X155384524Y-139249419D01*
X155384524Y-139249419D02*
X155346428Y-139097038D01*
X155346428Y-139097038D02*
X155346428Y-138982752D01*
X155346428Y-138982752D02*
X155384524Y-138830371D01*
X155384524Y-138830371D02*
X155422619Y-138754180D01*
X155422619Y-138754180D02*
X155498809Y-138677990D01*
X155498809Y-138677990D02*
X155613095Y-138639895D01*
X155613095Y-138639895D02*
X155689286Y-138639895D01*
X155689286Y-138639895D02*
X155803571Y-138677990D01*
X155803571Y-138677990D02*
X155841667Y-138716085D01*
X156565476Y-138639895D02*
X156184524Y-138639895D01*
X156184524Y-138639895D02*
X156146428Y-139020847D01*
X156146428Y-139020847D02*
X156184524Y-138982752D01*
X156184524Y-138982752D02*
X156260714Y-138944657D01*
X156260714Y-138944657D02*
X156451190Y-138944657D01*
X156451190Y-138944657D02*
X156527381Y-138982752D01*
X156527381Y-138982752D02*
X156565476Y-139020847D01*
X156565476Y-139020847D02*
X156603571Y-139097038D01*
X156603571Y-139097038D02*
X156603571Y-139287514D01*
X156603571Y-139287514D02*
X156565476Y-139363704D01*
X156565476Y-139363704D02*
X156527381Y-139401800D01*
X156527381Y-139401800D02*
X156451190Y-139439895D01*
X156451190Y-139439895D02*
X156260714Y-139439895D01*
X156260714Y-139439895D02*
X156184524Y-139401800D01*
X156184524Y-139401800D02*
X156146428Y-139363704D01*
D12*
%TO.C,C10*%
X152890000Y-129865580D02*
X152890000Y-129584420D01*
X153910000Y-129865580D02*
X153910000Y-129584420D01*
%TO.C,J5*%
X138800000Y-105990000D02*
X139640000Y-105990000D01*
X138800000Y-108210000D02*
X152200000Y-108210000D01*
X139640000Y-103940000D02*
X139640000Y-105990000D01*
X139640000Y-103940000D02*
X140240000Y-103940000D01*
X140240000Y-97840000D02*
X140240000Y-103940000D01*
X140240000Y-97840000D02*
X150760000Y-97840000D01*
X150760000Y-97840000D02*
X150760000Y-103940000D01*
X150760000Y-103940000D02*
X151360000Y-103940000D01*
X151360000Y-103940000D02*
X151360000Y-105990000D01*
X151360000Y-105990000D02*
X152200000Y-105990000D01*
X138800000Y-108210000D02*
G75*
G02*
X138800000Y-105990000I0J1110000D01*
G01*
X152200000Y-105990000D02*
G75*
G02*
X152200000Y-108210000I0J-1110000D01*
G01*
%TO.C,C11*%
X150440580Y-126690000D02*
X150159420Y-126690000D01*
X150440580Y-127710000D02*
X150159420Y-127710000D01*
%TO.C,R13*%
X153037258Y-122977500D02*
X152562742Y-122977500D01*
X153037258Y-124022500D02*
X152562742Y-124022500D01*
%TO.C,J1*%
X162990000Y-128665000D02*
X162990000Y-130465000D01*
X162990000Y-135335000D02*
X162000000Y-135335000D01*
X162990000Y-137135000D02*
X162990000Y-135335000D01*
X164440000Y-128665000D02*
X162990000Y-128665000D01*
X164440000Y-137135000D02*
X162990000Y-137135000D01*
X167260000Y-135865000D02*
X167260000Y-129935000D01*
%TO.C,C12*%
X147115580Y-127590000D02*
X146834420Y-127590000D01*
X147115580Y-128610000D02*
X146834420Y-128610000D01*
%TO.C,R5*%
X159577500Y-143762742D02*
X159577500Y-144237258D01*
X160622500Y-143762742D02*
X160622500Y-144237258D01*
%TO.C,R6*%
X137212258Y-145202500D02*
X136737742Y-145202500D01*
X137212258Y-146247500D02*
X136737742Y-146247500D01*
%TO.C,C2*%
X164759420Y-139690000D02*
X165040580Y-139690000D01*
X164759420Y-140710000D02*
X165040580Y-140710000D01*
%TO.C,C13*%
X144765000Y-135340580D02*
X144765000Y-135059420D01*
X145785000Y-135340580D02*
X145785000Y-135059420D01*
%TO.C,R7*%
X154777500Y-143762742D02*
X154777500Y-144237258D01*
X155822500Y-143762742D02*
X155822500Y-144237258D01*
D13*
%TO.C,IC1*%
X151800000Y-135300000D02*
G75*
G02*
X151600000Y-135300000I-100000J0D01*
G01*
X151600000Y-135300000D02*
G75*
G02*
X151800000Y-135300000I100000J0D01*
G01*
D12*
%TO.C,R12*%
X143762258Y-122977500D02*
X143287742Y-122977500D01*
X143762258Y-124022500D02*
X143287742Y-124022500D01*
%TO.C,D2*%
X162738332Y-146300000D02*
X162738332Y-148585000D01*
X162738332Y-148585000D02*
X164208332Y-148585000D01*
X164208332Y-148585000D02*
X164208332Y-146300000D01*
%TO.C,C16*%
X160234420Y-122890000D02*
X160515580Y-122890000D01*
X160234420Y-123910000D02*
X160515580Y-123910000D01*
%TO.C,R16*%
X158577500Y-133837258D02*
X158577500Y-133362742D01*
X159622500Y-133837258D02*
X159622500Y-133362742D01*
%TO.C,R8*%
X137212258Y-146802500D02*
X136737742Y-146802500D01*
X137212258Y-147847500D02*
X136737742Y-147847500D01*
%TO.C,R9*%
X157877500Y-143762742D02*
X157877500Y-144237258D01*
X158922500Y-143762742D02*
X158922500Y-144237258D01*
%TO.C,R3*%
X156377500Y-143762742D02*
X156377500Y-144237258D01*
X157422500Y-143762742D02*
X157422500Y-144237258D01*
%TO.C,J3*%
X123990000Y-130140000D02*
X126090000Y-130140000D01*
X123990000Y-140260000D02*
X123990000Y-130140000D01*
X123990000Y-140260000D02*
X126090000Y-140260000D01*
X126090000Y-130140000D02*
X126090000Y-129550000D01*
X126090000Y-140850000D02*
X126090000Y-140260000D01*
X128310000Y-130140000D02*
X128310000Y-129550000D01*
X128310000Y-130140000D02*
X133210000Y-130140000D01*
X128310000Y-140260000D02*
X133210000Y-140260000D01*
X128310000Y-140850000D02*
X128310000Y-140260000D01*
X133210000Y-140260000D02*
X133210000Y-130140000D01*
X126090000Y-129550000D02*
G75*
G02*
X128310000Y-129550000I1110000J0D01*
G01*
X128310000Y-140850000D02*
G75*
G02*
X126090000Y-140850000I-1110000J0D01*
G01*
%TO.C,C6*%
X141665000Y-134865580D02*
X141665000Y-134584420D01*
X142685000Y-134865580D02*
X142685000Y-134584420D01*
%TO.C,R22*%
X128277500Y-124062742D02*
X128277500Y-124537258D01*
X129322500Y-124062742D02*
X129322500Y-124537258D01*
%TO.C,C9*%
X151734420Y-137490000D02*
X152015580Y-137490000D01*
X151734420Y-138510000D02*
X152015580Y-138510000D01*
%TO.C,R_SENSE1*%
X132890000Y-126472936D02*
X132890000Y-127927064D01*
X134710000Y-126472936D02*
X134710000Y-127927064D01*
%TO.C,R19*%
X140777500Y-123887742D02*
X140777500Y-124362258D01*
X141822500Y-123887742D02*
X141822500Y-124362258D01*
%TO.C,R17*%
X160177500Y-133837258D02*
X160177500Y-133362742D01*
X161222500Y-133837258D02*
X161222500Y-133362742D01*
%TO.C,R14*%
X126477500Y-124512258D02*
X126477500Y-124037742D01*
X127522500Y-124512258D02*
X127522500Y-124037742D01*
%TO.C,C7*%
X154390000Y-136159420D02*
X154390000Y-136440580D01*
X155410000Y-136159420D02*
X155410000Y-136440580D01*
%TO.C,C14*%
X146384420Y-122990000D02*
X146665580Y-122990000D01*
X146384420Y-124010000D02*
X146665580Y-124010000D01*
%TO.C,D4*%
X160211666Y-146300000D02*
X160211666Y-148585000D01*
X160211666Y-148585000D02*
X161681666Y-148585000D01*
X161681666Y-148585000D02*
X161681666Y-146300000D01*
%TO.C,C1*%
X164759420Y-138190000D02*
X165040580Y-138190000D01*
X164759420Y-139210000D02*
X165040580Y-139210000D01*
%TO.C,R21*%
X164112258Y-122277500D02*
X163637742Y-122277500D01*
X164112258Y-123322500D02*
X163637742Y-123322500D01*
%TO.C,R18*%
X150037258Y-122977500D02*
X149562742Y-122977500D01*
X150037258Y-124022500D02*
X149562742Y-124022500D01*
%TO.C,R10*%
X157612258Y-122877500D02*
X157137742Y-122877500D01*
X157612258Y-123922500D02*
X157137742Y-123922500D01*
%TO.C,C3*%
X140065000Y-134865580D02*
X140065000Y-134584420D01*
X141085000Y-134865580D02*
X141085000Y-134584420D01*
%TO.C,R1*%
X165477500Y-143837742D02*
X165477500Y-144312258D01*
X166522500Y-143837742D02*
X166522500Y-144312258D01*
%TO.C,U1*%
X159840000Y-140100000D02*
X159840000Y-139300000D01*
X159840000Y-140100000D02*
X159840000Y-140900000D01*
X162960000Y-140100000D02*
X162960000Y-139300000D01*
X162960000Y-140100000D02*
X162960000Y-140900000D01*
X159890000Y-141400000D02*
X159560000Y-141640000D01*
X159560000Y-141160000D01*
X159890000Y-141400000D01*
G36*
X159890000Y-141400000D02*
G01*
X159560000Y-141640000D01*
X159560000Y-141160000D01*
X159890000Y-141400000D01*
G37*
%TO.C,D5*%
X157365000Y-146300000D02*
X157365000Y-148585000D01*
X157365000Y-148585000D02*
X158835000Y-148585000D01*
X158835000Y-148585000D02*
X158835000Y-146300000D01*
%TO.C,C15*%
X131959420Y-122290000D02*
X132240580Y-122290000D01*
X131959420Y-123310000D02*
X132240580Y-123310000D01*
%TO.C,C8*%
X155534420Y-129890000D02*
X155815580Y-129890000D01*
X155534420Y-130910000D02*
X155815580Y-130910000D01*
%TO.C,C17*%
X143215000Y-132359420D02*
X143215000Y-132640580D01*
X144235000Y-132359420D02*
X144235000Y-132640580D01*
%TO.C,R15*%
X139312258Y-122677500D02*
X138837742Y-122677500D01*
X139312258Y-123722500D02*
X138837742Y-123722500D01*
%TO.C,R2*%
X161177500Y-143762742D02*
X161177500Y-144237258D01*
X162222500Y-143762742D02*
X162222500Y-144237258D01*
%TO.C,J4*%
X140065000Y-144590000D02*
X141865000Y-144590000D01*
X140065000Y-146040000D02*
X140065000Y-144590000D01*
X141335000Y-148860000D02*
X152265000Y-148860000D01*
X141865000Y-144590000D02*
X141865000Y-143600000D01*
X153535000Y-144590000D02*
X151735000Y-144590000D01*
X153535000Y-146040000D02*
X153535000Y-144590000D01*
%TO.C,D3*%
X163540000Y-141100000D02*
X163540000Y-142300000D01*
X165500000Y-141100000D02*
X163540000Y-141100000D01*
X165500000Y-142300000D02*
X163540000Y-142300000D01*
%TO.C,R23*%
X136312258Y-122677500D02*
X135837742Y-122677500D01*
X136312258Y-123722500D02*
X135837742Y-123722500D01*
%TO.C,D1*%
X165265000Y-146300000D02*
X165265000Y-148585000D01*
X165265000Y-148585000D02*
X166735000Y-148585000D01*
X166735000Y-148585000D02*
X166735000Y-146300000D01*
%TO.C,R11*%
X164077500Y-125362258D02*
X164077500Y-124887742D01*
X165122500Y-125362258D02*
X165122500Y-124887742D01*
%TO.C,R20*%
X154577500Y-123962742D02*
X154577500Y-124437258D01*
X155622500Y-123962742D02*
X155622500Y-124437258D01*
%TO.C,R4*%
X137212258Y-143502500D02*
X136737742Y-143502500D01*
X137212258Y-144547500D02*
X136737742Y-144547500D01*
%TO.C,C4*%
X154365000Y-132534420D02*
X154365000Y-132815580D01*
X155385000Y-132534420D02*
X155385000Y-132815580D01*
%TO.C,L1*%
X143624622Y-136990000D02*
X142825378Y-136990000D01*
X143624622Y-138110000D02*
X142825378Y-138110000D01*
%TO.C,C5*%
X158240580Y-138390000D02*
X157959420Y-138390000D01*
X158240580Y-139410000D02*
X157959420Y-139410000D01*
%TD*%
M02*
