%TF.GenerationSoftware,KiCad,Pcbnew,8.0.3+1*%
%TF.CreationDate,2024-07-15T22:27:20+00:00*%
%TF.ProjectId,TFESC02,54464553-4330-4322-9e6b-696361645f70,rev?*%
%TF.SameCoordinates,Original*%
%TF.FileFunction,Legend,Top*%
%TF.FilePolarity,Positive*%
%FSLAX46Y46*%
G04 Gerber Fmt 4.6, Leading zero omitted, Abs format (unit mm)*
G04 Created by KiCad (PCBNEW 8.0.3+1) date 2024-07-15 22:27:20*
%MOMM*%
%LPD*%
G01*
G04 APERTURE LIST*
%ADD10C,0.150000*%
%ADD11C,0.100000*%
%ADD12C,0.254000*%
%ADD13C,0.120000*%
%ADD14C,0.200000*%
G04 APERTURE END LIST*
D10*
X139782142Y-83529580D02*
X139734523Y-83577200D01*
X139734523Y-83577200D02*
X139591666Y-83624819D01*
X139591666Y-83624819D02*
X139496428Y-83624819D01*
X139496428Y-83624819D02*
X139353571Y-83577200D01*
X139353571Y-83577200D02*
X139258333Y-83481961D01*
X139258333Y-83481961D02*
X139210714Y-83386723D01*
X139210714Y-83386723D02*
X139163095Y-83196247D01*
X139163095Y-83196247D02*
X139163095Y-83053390D01*
X139163095Y-83053390D02*
X139210714Y-82862914D01*
X139210714Y-82862914D02*
X139258333Y-82767676D01*
X139258333Y-82767676D02*
X139353571Y-82672438D01*
X139353571Y-82672438D02*
X139496428Y-82624819D01*
X139496428Y-82624819D02*
X139591666Y-82624819D01*
X139591666Y-82624819D02*
X139734523Y-82672438D01*
X139734523Y-82672438D02*
X139782142Y-82720057D01*
X140734523Y-83624819D02*
X140163095Y-83624819D01*
X140448809Y-83624819D02*
X140448809Y-82624819D01*
X140448809Y-82624819D02*
X140353571Y-82767676D01*
X140353571Y-82767676D02*
X140258333Y-82862914D01*
X140258333Y-82862914D02*
X140163095Y-82910533D01*
X141353571Y-82624819D02*
X141448809Y-82624819D01*
X141448809Y-82624819D02*
X141544047Y-82672438D01*
X141544047Y-82672438D02*
X141591666Y-82720057D01*
X141591666Y-82720057D02*
X141639285Y-82815295D01*
X141639285Y-82815295D02*
X141686904Y-83005771D01*
X141686904Y-83005771D02*
X141686904Y-83243866D01*
X141686904Y-83243866D02*
X141639285Y-83434342D01*
X141639285Y-83434342D02*
X141591666Y-83529580D01*
X141591666Y-83529580D02*
X141544047Y-83577200D01*
X141544047Y-83577200D02*
X141448809Y-83624819D01*
X141448809Y-83624819D02*
X141353571Y-83624819D01*
X141353571Y-83624819D02*
X141258333Y-83577200D01*
X141258333Y-83577200D02*
X141210714Y-83529580D01*
X141210714Y-83529580D02*
X141163095Y-83434342D01*
X141163095Y-83434342D02*
X141115476Y-83243866D01*
X141115476Y-83243866D02*
X141115476Y-83005771D01*
X141115476Y-83005771D02*
X141163095Y-82815295D01*
X141163095Y-82815295D02*
X141210714Y-82720057D01*
X141210714Y-82720057D02*
X141258333Y-82672438D01*
X141258333Y-82672438D02*
X141353571Y-82624819D01*
X127407142Y-83839580D02*
X127359523Y-83887200D01*
X127359523Y-83887200D02*
X127216666Y-83934819D01*
X127216666Y-83934819D02*
X127121428Y-83934819D01*
X127121428Y-83934819D02*
X126978571Y-83887200D01*
X126978571Y-83887200D02*
X126883333Y-83791961D01*
X126883333Y-83791961D02*
X126835714Y-83696723D01*
X126835714Y-83696723D02*
X126788095Y-83506247D01*
X126788095Y-83506247D02*
X126788095Y-83363390D01*
X126788095Y-83363390D02*
X126835714Y-83172914D01*
X126835714Y-83172914D02*
X126883333Y-83077676D01*
X126883333Y-83077676D02*
X126978571Y-82982438D01*
X126978571Y-82982438D02*
X127121428Y-82934819D01*
X127121428Y-82934819D02*
X127216666Y-82934819D01*
X127216666Y-82934819D02*
X127359523Y-82982438D01*
X127359523Y-82982438D02*
X127407142Y-83030057D01*
X128359523Y-83934819D02*
X127788095Y-83934819D01*
X128073809Y-83934819D02*
X128073809Y-82934819D01*
X128073809Y-82934819D02*
X127978571Y-83077676D01*
X127978571Y-83077676D02*
X127883333Y-83172914D01*
X127883333Y-83172914D02*
X127788095Y-83220533D01*
X129311904Y-83934819D02*
X128740476Y-83934819D01*
X129026190Y-83934819D02*
X129026190Y-82934819D01*
X129026190Y-82934819D02*
X128930952Y-83077676D01*
X128930952Y-83077676D02*
X128835714Y-83172914D01*
X128835714Y-83172914D02*
X128740476Y-83220533D01*
X135427142Y-83934819D02*
X135093809Y-83458628D01*
X134855714Y-83934819D02*
X134855714Y-82934819D01*
X134855714Y-82934819D02*
X135236666Y-82934819D01*
X135236666Y-82934819D02*
X135331904Y-82982438D01*
X135331904Y-82982438D02*
X135379523Y-83030057D01*
X135379523Y-83030057D02*
X135427142Y-83125295D01*
X135427142Y-83125295D02*
X135427142Y-83268152D01*
X135427142Y-83268152D02*
X135379523Y-83363390D01*
X135379523Y-83363390D02*
X135331904Y-83411009D01*
X135331904Y-83411009D02*
X135236666Y-83458628D01*
X135236666Y-83458628D02*
X134855714Y-83458628D01*
X136379523Y-83934819D02*
X135808095Y-83934819D01*
X136093809Y-83934819D02*
X136093809Y-82934819D01*
X136093809Y-82934819D02*
X135998571Y-83077676D01*
X135998571Y-83077676D02*
X135903333Y-83172914D01*
X135903333Y-83172914D02*
X135808095Y-83220533D01*
X136712857Y-82934819D02*
X137331904Y-82934819D01*
X137331904Y-82934819D02*
X136998571Y-83315771D01*
X136998571Y-83315771D02*
X137141428Y-83315771D01*
X137141428Y-83315771D02*
X137236666Y-83363390D01*
X137236666Y-83363390D02*
X137284285Y-83411009D01*
X137284285Y-83411009D02*
X137331904Y-83506247D01*
X137331904Y-83506247D02*
X137331904Y-83744342D01*
X137331904Y-83744342D02*
X137284285Y-83839580D01*
X137284285Y-83839580D02*
X137236666Y-83887200D01*
X137236666Y-83887200D02*
X137141428Y-83934819D01*
X137141428Y-83934819D02*
X136855714Y-83934819D01*
X136855714Y-83934819D02*
X136760476Y-83887200D01*
X136760476Y-83887200D02*
X136712857Y-83839580D01*
D11*
X131839761Y-75049457D02*
X131744523Y-75001838D01*
X131744523Y-75001838D02*
X131649285Y-74906600D01*
X131649285Y-74906600D02*
X131506428Y-74763742D01*
X131506428Y-74763742D02*
X131411190Y-74716123D01*
X131411190Y-74716123D02*
X131315952Y-74716123D01*
X131363571Y-74954219D02*
X131268333Y-74906600D01*
X131268333Y-74906600D02*
X131173095Y-74811361D01*
X131173095Y-74811361D02*
X131125476Y-74620885D01*
X131125476Y-74620885D02*
X131125476Y-74287552D01*
X131125476Y-74287552D02*
X131173095Y-74097076D01*
X131173095Y-74097076D02*
X131268333Y-74001838D01*
X131268333Y-74001838D02*
X131363571Y-73954219D01*
X131363571Y-73954219D02*
X131554047Y-73954219D01*
X131554047Y-73954219D02*
X131649285Y-74001838D01*
X131649285Y-74001838D02*
X131744523Y-74097076D01*
X131744523Y-74097076D02*
X131792142Y-74287552D01*
X131792142Y-74287552D02*
X131792142Y-74620885D01*
X131792142Y-74620885D02*
X131744523Y-74811361D01*
X131744523Y-74811361D02*
X131649285Y-74906600D01*
X131649285Y-74906600D02*
X131554047Y-74954219D01*
X131554047Y-74954219D02*
X131363571Y-74954219D01*
X132696904Y-73954219D02*
X132220714Y-73954219D01*
X132220714Y-73954219D02*
X132173095Y-74430409D01*
X132173095Y-74430409D02*
X132220714Y-74382790D01*
X132220714Y-74382790D02*
X132315952Y-74335171D01*
X132315952Y-74335171D02*
X132554047Y-74335171D01*
X132554047Y-74335171D02*
X132649285Y-74382790D01*
X132649285Y-74382790D02*
X132696904Y-74430409D01*
X132696904Y-74430409D02*
X132744523Y-74525647D01*
X132744523Y-74525647D02*
X132744523Y-74763742D01*
X132744523Y-74763742D02*
X132696904Y-74858980D01*
X132696904Y-74858980D02*
X132649285Y-74906600D01*
X132649285Y-74906600D02*
X132554047Y-74954219D01*
X132554047Y-74954219D02*
X132315952Y-74954219D01*
X132315952Y-74954219D02*
X132220714Y-74906600D01*
X132220714Y-74906600D02*
X132173095Y-74858980D01*
D10*
X153346666Y-60224819D02*
X153346666Y-60939104D01*
X153346666Y-60939104D02*
X153299047Y-61081961D01*
X153299047Y-61081961D02*
X153203809Y-61177200D01*
X153203809Y-61177200D02*
X153060952Y-61224819D01*
X153060952Y-61224819D02*
X152965714Y-61224819D01*
X154346666Y-61224819D02*
X153775238Y-61224819D01*
X154060952Y-61224819D02*
X154060952Y-60224819D01*
X154060952Y-60224819D02*
X153965714Y-60367676D01*
X153965714Y-60367676D02*
X153870476Y-60462914D01*
X153870476Y-60462914D02*
X153775238Y-60510533D01*
X127407142Y-86349580D02*
X127359523Y-86397200D01*
X127359523Y-86397200D02*
X127216666Y-86444819D01*
X127216666Y-86444819D02*
X127121428Y-86444819D01*
X127121428Y-86444819D02*
X126978571Y-86397200D01*
X126978571Y-86397200D02*
X126883333Y-86301961D01*
X126883333Y-86301961D02*
X126835714Y-86206723D01*
X126835714Y-86206723D02*
X126788095Y-86016247D01*
X126788095Y-86016247D02*
X126788095Y-85873390D01*
X126788095Y-85873390D02*
X126835714Y-85682914D01*
X126835714Y-85682914D02*
X126883333Y-85587676D01*
X126883333Y-85587676D02*
X126978571Y-85492438D01*
X126978571Y-85492438D02*
X127121428Y-85444819D01*
X127121428Y-85444819D02*
X127216666Y-85444819D01*
X127216666Y-85444819D02*
X127359523Y-85492438D01*
X127359523Y-85492438D02*
X127407142Y-85540057D01*
X128359523Y-86444819D02*
X127788095Y-86444819D01*
X128073809Y-86444819D02*
X128073809Y-85444819D01*
X128073809Y-85444819D02*
X127978571Y-85587676D01*
X127978571Y-85587676D02*
X127883333Y-85682914D01*
X127883333Y-85682914D02*
X127788095Y-85730533D01*
X128740476Y-85540057D02*
X128788095Y-85492438D01*
X128788095Y-85492438D02*
X128883333Y-85444819D01*
X128883333Y-85444819D02*
X129121428Y-85444819D01*
X129121428Y-85444819D02*
X129216666Y-85492438D01*
X129216666Y-85492438D02*
X129264285Y-85540057D01*
X129264285Y-85540057D02*
X129311904Y-85635295D01*
X129311904Y-85635295D02*
X129311904Y-85730533D01*
X129311904Y-85730533D02*
X129264285Y-85873390D01*
X129264285Y-85873390D02*
X128692857Y-86444819D01*
X128692857Y-86444819D02*
X129311904Y-86444819D01*
X131893333Y-81424819D02*
X131560000Y-80948628D01*
X131321905Y-81424819D02*
X131321905Y-80424819D01*
X131321905Y-80424819D02*
X131702857Y-80424819D01*
X131702857Y-80424819D02*
X131798095Y-80472438D01*
X131798095Y-80472438D02*
X131845714Y-80520057D01*
X131845714Y-80520057D02*
X131893333Y-80615295D01*
X131893333Y-80615295D02*
X131893333Y-80758152D01*
X131893333Y-80758152D02*
X131845714Y-80853390D01*
X131845714Y-80853390D02*
X131798095Y-80901009D01*
X131798095Y-80901009D02*
X131702857Y-80948628D01*
X131702857Y-80948628D02*
X131321905Y-80948628D01*
X132798095Y-80424819D02*
X132321905Y-80424819D01*
X132321905Y-80424819D02*
X132274286Y-80901009D01*
X132274286Y-80901009D02*
X132321905Y-80853390D01*
X132321905Y-80853390D02*
X132417143Y-80805771D01*
X132417143Y-80805771D02*
X132655238Y-80805771D01*
X132655238Y-80805771D02*
X132750476Y-80853390D01*
X132750476Y-80853390D02*
X132798095Y-80901009D01*
X132798095Y-80901009D02*
X132845714Y-80996247D01*
X132845714Y-80996247D02*
X132845714Y-81234342D01*
X132845714Y-81234342D02*
X132798095Y-81329580D01*
X132798095Y-81329580D02*
X132750476Y-81377200D01*
X132750476Y-81377200D02*
X132655238Y-81424819D01*
X132655238Y-81424819D02*
X132417143Y-81424819D01*
X132417143Y-81424819D02*
X132321905Y-81377200D01*
X132321905Y-81377200D02*
X132274286Y-81329580D01*
X131893333Y-83934819D02*
X131560000Y-83458628D01*
X131321905Y-83934819D02*
X131321905Y-82934819D01*
X131321905Y-82934819D02*
X131702857Y-82934819D01*
X131702857Y-82934819D02*
X131798095Y-82982438D01*
X131798095Y-82982438D02*
X131845714Y-83030057D01*
X131845714Y-83030057D02*
X131893333Y-83125295D01*
X131893333Y-83125295D02*
X131893333Y-83268152D01*
X131893333Y-83268152D02*
X131845714Y-83363390D01*
X131845714Y-83363390D02*
X131798095Y-83411009D01*
X131798095Y-83411009D02*
X131702857Y-83458628D01*
X131702857Y-83458628D02*
X131321905Y-83458628D01*
X132750476Y-82934819D02*
X132560000Y-82934819D01*
X132560000Y-82934819D02*
X132464762Y-82982438D01*
X132464762Y-82982438D02*
X132417143Y-83030057D01*
X132417143Y-83030057D02*
X132321905Y-83172914D01*
X132321905Y-83172914D02*
X132274286Y-83363390D01*
X132274286Y-83363390D02*
X132274286Y-83744342D01*
X132274286Y-83744342D02*
X132321905Y-83839580D01*
X132321905Y-83839580D02*
X132369524Y-83887200D01*
X132369524Y-83887200D02*
X132464762Y-83934819D01*
X132464762Y-83934819D02*
X132655238Y-83934819D01*
X132655238Y-83934819D02*
X132750476Y-83887200D01*
X132750476Y-83887200D02*
X132798095Y-83839580D01*
X132798095Y-83839580D02*
X132845714Y-83744342D01*
X132845714Y-83744342D02*
X132845714Y-83506247D01*
X132845714Y-83506247D02*
X132798095Y-83411009D01*
X132798095Y-83411009D02*
X132750476Y-83363390D01*
X132750476Y-83363390D02*
X132655238Y-83315771D01*
X132655238Y-83315771D02*
X132464762Y-83315771D01*
X132464762Y-83315771D02*
X132369524Y-83363390D01*
X132369524Y-83363390D02*
X132321905Y-83411009D01*
X132321905Y-83411009D02*
X132274286Y-83506247D01*
X123873333Y-78819580D02*
X123825714Y-78867200D01*
X123825714Y-78867200D02*
X123682857Y-78914819D01*
X123682857Y-78914819D02*
X123587619Y-78914819D01*
X123587619Y-78914819D02*
X123444762Y-78867200D01*
X123444762Y-78867200D02*
X123349524Y-78771961D01*
X123349524Y-78771961D02*
X123301905Y-78676723D01*
X123301905Y-78676723D02*
X123254286Y-78486247D01*
X123254286Y-78486247D02*
X123254286Y-78343390D01*
X123254286Y-78343390D02*
X123301905Y-78152914D01*
X123301905Y-78152914D02*
X123349524Y-78057676D01*
X123349524Y-78057676D02*
X123444762Y-77962438D01*
X123444762Y-77962438D02*
X123587619Y-77914819D01*
X123587619Y-77914819D02*
X123682857Y-77914819D01*
X123682857Y-77914819D02*
X123825714Y-77962438D01*
X123825714Y-77962438D02*
X123873333Y-78010057D01*
X124254286Y-78010057D02*
X124301905Y-77962438D01*
X124301905Y-77962438D02*
X124397143Y-77914819D01*
X124397143Y-77914819D02*
X124635238Y-77914819D01*
X124635238Y-77914819D02*
X124730476Y-77962438D01*
X124730476Y-77962438D02*
X124778095Y-78010057D01*
X124778095Y-78010057D02*
X124825714Y-78105295D01*
X124825714Y-78105295D02*
X124825714Y-78200533D01*
X124825714Y-78200533D02*
X124778095Y-78343390D01*
X124778095Y-78343390D02*
X124206667Y-78914819D01*
X124206667Y-78914819D02*
X124825714Y-78914819D01*
D11*
X131839761Y-67456057D02*
X131744523Y-67408438D01*
X131744523Y-67408438D02*
X131649285Y-67313200D01*
X131649285Y-67313200D02*
X131506428Y-67170342D01*
X131506428Y-67170342D02*
X131411190Y-67122723D01*
X131411190Y-67122723D02*
X131315952Y-67122723D01*
X131363571Y-67360819D02*
X131268333Y-67313200D01*
X131268333Y-67313200D02*
X131173095Y-67217961D01*
X131173095Y-67217961D02*
X131125476Y-67027485D01*
X131125476Y-67027485D02*
X131125476Y-66694152D01*
X131125476Y-66694152D02*
X131173095Y-66503676D01*
X131173095Y-66503676D02*
X131268333Y-66408438D01*
X131268333Y-66408438D02*
X131363571Y-66360819D01*
X131363571Y-66360819D02*
X131554047Y-66360819D01*
X131554047Y-66360819D02*
X131649285Y-66408438D01*
X131649285Y-66408438D02*
X131744523Y-66503676D01*
X131744523Y-66503676D02*
X131792142Y-66694152D01*
X131792142Y-66694152D02*
X131792142Y-67027485D01*
X131792142Y-67027485D02*
X131744523Y-67217961D01*
X131744523Y-67217961D02*
X131649285Y-67313200D01*
X131649285Y-67313200D02*
X131554047Y-67360819D01*
X131554047Y-67360819D02*
X131363571Y-67360819D01*
X132744523Y-67360819D02*
X132173095Y-67360819D01*
X132458809Y-67360819D02*
X132458809Y-66360819D01*
X132458809Y-66360819D02*
X132363571Y-66503676D01*
X132363571Y-66503676D02*
X132268333Y-66598914D01*
X132268333Y-66598914D02*
X132173095Y-66646533D01*
D10*
X131893333Y-86444819D02*
X131560000Y-85968628D01*
X131321905Y-86444819D02*
X131321905Y-85444819D01*
X131321905Y-85444819D02*
X131702857Y-85444819D01*
X131702857Y-85444819D02*
X131798095Y-85492438D01*
X131798095Y-85492438D02*
X131845714Y-85540057D01*
X131845714Y-85540057D02*
X131893333Y-85635295D01*
X131893333Y-85635295D02*
X131893333Y-85778152D01*
X131893333Y-85778152D02*
X131845714Y-85873390D01*
X131845714Y-85873390D02*
X131798095Y-85921009D01*
X131798095Y-85921009D02*
X131702857Y-85968628D01*
X131702857Y-85968628D02*
X131321905Y-85968628D01*
X132226667Y-85444819D02*
X132893333Y-85444819D01*
X132893333Y-85444819D02*
X132464762Y-86444819D01*
D12*
X143960237Y-81574318D02*
X143960237Y-80304318D01*
X145290714Y-81453365D02*
X145230238Y-81513842D01*
X145230238Y-81513842D02*
X145048809Y-81574318D01*
X145048809Y-81574318D02*
X144927857Y-81574318D01*
X144927857Y-81574318D02*
X144746428Y-81513842D01*
X144746428Y-81513842D02*
X144625476Y-81392889D01*
X144625476Y-81392889D02*
X144564999Y-81271937D01*
X144564999Y-81271937D02*
X144504523Y-81030032D01*
X144504523Y-81030032D02*
X144504523Y-80848603D01*
X144504523Y-80848603D02*
X144564999Y-80606699D01*
X144564999Y-80606699D02*
X144625476Y-80485746D01*
X144625476Y-80485746D02*
X144746428Y-80364794D01*
X144746428Y-80364794D02*
X144927857Y-80304318D01*
X144927857Y-80304318D02*
X145048809Y-80304318D01*
X145048809Y-80304318D02*
X145230238Y-80364794D01*
X145230238Y-80364794D02*
X145290714Y-80425270D01*
X146500238Y-81574318D02*
X145774523Y-81574318D01*
X146137380Y-81574318D02*
X146137380Y-80304318D01*
X146137380Y-80304318D02*
X146016428Y-80485746D01*
X146016428Y-80485746D02*
X145895476Y-80606699D01*
X145895476Y-80606699D02*
X145774523Y-80667175D01*
D10*
X135427142Y-81424819D02*
X135093809Y-80948628D01*
X134855714Y-81424819D02*
X134855714Y-80424819D01*
X134855714Y-80424819D02*
X135236666Y-80424819D01*
X135236666Y-80424819D02*
X135331904Y-80472438D01*
X135331904Y-80472438D02*
X135379523Y-80520057D01*
X135379523Y-80520057D02*
X135427142Y-80615295D01*
X135427142Y-80615295D02*
X135427142Y-80758152D01*
X135427142Y-80758152D02*
X135379523Y-80853390D01*
X135379523Y-80853390D02*
X135331904Y-80901009D01*
X135331904Y-80901009D02*
X135236666Y-80948628D01*
X135236666Y-80948628D02*
X134855714Y-80948628D01*
X136379523Y-81424819D02*
X135808095Y-81424819D01*
X136093809Y-81424819D02*
X136093809Y-80424819D01*
X136093809Y-80424819D02*
X135998571Y-80567676D01*
X135998571Y-80567676D02*
X135903333Y-80662914D01*
X135903333Y-80662914D02*
X135808095Y-80710533D01*
X136760476Y-80520057D02*
X136808095Y-80472438D01*
X136808095Y-80472438D02*
X136903333Y-80424819D01*
X136903333Y-80424819D02*
X137141428Y-80424819D01*
X137141428Y-80424819D02*
X137236666Y-80472438D01*
X137236666Y-80472438D02*
X137284285Y-80520057D01*
X137284285Y-80520057D02*
X137331904Y-80615295D01*
X137331904Y-80615295D02*
X137331904Y-80710533D01*
X137331904Y-80710533D02*
X137284285Y-80853390D01*
X137284285Y-80853390D02*
X136712857Y-81424819D01*
X136712857Y-81424819D02*
X137331904Y-81424819D01*
X157231905Y-79034819D02*
X157231905Y-78034819D01*
X157231905Y-78034819D02*
X157470000Y-78034819D01*
X157470000Y-78034819D02*
X157612857Y-78082438D01*
X157612857Y-78082438D02*
X157708095Y-78177676D01*
X157708095Y-78177676D02*
X157755714Y-78272914D01*
X157755714Y-78272914D02*
X157803333Y-78463390D01*
X157803333Y-78463390D02*
X157803333Y-78606247D01*
X157803333Y-78606247D02*
X157755714Y-78796723D01*
X157755714Y-78796723D02*
X157708095Y-78891961D01*
X157708095Y-78891961D02*
X157612857Y-78987200D01*
X157612857Y-78987200D02*
X157470000Y-79034819D01*
X157470000Y-79034819D02*
X157231905Y-79034819D01*
X158184286Y-78130057D02*
X158231905Y-78082438D01*
X158231905Y-78082438D02*
X158327143Y-78034819D01*
X158327143Y-78034819D02*
X158565238Y-78034819D01*
X158565238Y-78034819D02*
X158660476Y-78082438D01*
X158660476Y-78082438D02*
X158708095Y-78130057D01*
X158708095Y-78130057D02*
X158755714Y-78225295D01*
X158755714Y-78225295D02*
X158755714Y-78320533D01*
X158755714Y-78320533D02*
X158708095Y-78463390D01*
X158708095Y-78463390D02*
X158136667Y-79034819D01*
X158136667Y-79034819D02*
X158755714Y-79034819D01*
X144866666Y-92304819D02*
X144866666Y-93019104D01*
X144866666Y-93019104D02*
X144819047Y-93161961D01*
X144819047Y-93161961D02*
X144723809Y-93257200D01*
X144723809Y-93257200D02*
X144580952Y-93304819D01*
X144580952Y-93304819D02*
X144485714Y-93304819D01*
X145295238Y-92400057D02*
X145342857Y-92352438D01*
X145342857Y-92352438D02*
X145438095Y-92304819D01*
X145438095Y-92304819D02*
X145676190Y-92304819D01*
X145676190Y-92304819D02*
X145771428Y-92352438D01*
X145771428Y-92352438D02*
X145819047Y-92400057D01*
X145819047Y-92400057D02*
X145866666Y-92495295D01*
X145866666Y-92495295D02*
X145866666Y-92590533D01*
X145866666Y-92590533D02*
X145819047Y-92733390D01*
X145819047Y-92733390D02*
X145247619Y-93304819D01*
X145247619Y-93304819D02*
X145866666Y-93304819D01*
X131893333Y-88954819D02*
X131560000Y-88478628D01*
X131321905Y-88954819D02*
X131321905Y-87954819D01*
X131321905Y-87954819D02*
X131702857Y-87954819D01*
X131702857Y-87954819D02*
X131798095Y-88002438D01*
X131798095Y-88002438D02*
X131845714Y-88050057D01*
X131845714Y-88050057D02*
X131893333Y-88145295D01*
X131893333Y-88145295D02*
X131893333Y-88288152D01*
X131893333Y-88288152D02*
X131845714Y-88383390D01*
X131845714Y-88383390D02*
X131798095Y-88431009D01*
X131798095Y-88431009D02*
X131702857Y-88478628D01*
X131702857Y-88478628D02*
X131321905Y-88478628D01*
X132464762Y-88383390D02*
X132369524Y-88335771D01*
X132369524Y-88335771D02*
X132321905Y-88288152D01*
X132321905Y-88288152D02*
X132274286Y-88192914D01*
X132274286Y-88192914D02*
X132274286Y-88145295D01*
X132274286Y-88145295D02*
X132321905Y-88050057D01*
X132321905Y-88050057D02*
X132369524Y-88002438D01*
X132369524Y-88002438D02*
X132464762Y-87954819D01*
X132464762Y-87954819D02*
X132655238Y-87954819D01*
X132655238Y-87954819D02*
X132750476Y-88002438D01*
X132750476Y-88002438D02*
X132798095Y-88050057D01*
X132798095Y-88050057D02*
X132845714Y-88145295D01*
X132845714Y-88145295D02*
X132845714Y-88192914D01*
X132845714Y-88192914D02*
X132798095Y-88288152D01*
X132798095Y-88288152D02*
X132750476Y-88335771D01*
X132750476Y-88335771D02*
X132655238Y-88383390D01*
X132655238Y-88383390D02*
X132464762Y-88383390D01*
X132464762Y-88383390D02*
X132369524Y-88431009D01*
X132369524Y-88431009D02*
X132321905Y-88478628D01*
X132321905Y-88478628D02*
X132274286Y-88573866D01*
X132274286Y-88573866D02*
X132274286Y-88764342D01*
X132274286Y-88764342D02*
X132321905Y-88859580D01*
X132321905Y-88859580D02*
X132369524Y-88907200D01*
X132369524Y-88907200D02*
X132464762Y-88954819D01*
X132464762Y-88954819D02*
X132655238Y-88954819D01*
X132655238Y-88954819D02*
X132750476Y-88907200D01*
X132750476Y-88907200D02*
X132798095Y-88859580D01*
X132798095Y-88859580D02*
X132845714Y-88764342D01*
X132845714Y-88764342D02*
X132845714Y-88573866D01*
X132845714Y-88573866D02*
X132798095Y-88478628D01*
X132798095Y-88478628D02*
X132750476Y-88431009D01*
X132750476Y-88431009D02*
X132655238Y-88383390D01*
D11*
X145039761Y-67456057D02*
X144944523Y-67408438D01*
X144944523Y-67408438D02*
X144849285Y-67313200D01*
X144849285Y-67313200D02*
X144706428Y-67170342D01*
X144706428Y-67170342D02*
X144611190Y-67122723D01*
X144611190Y-67122723D02*
X144515952Y-67122723D01*
X144563571Y-67360819D02*
X144468333Y-67313200D01*
X144468333Y-67313200D02*
X144373095Y-67217961D01*
X144373095Y-67217961D02*
X144325476Y-67027485D01*
X144325476Y-67027485D02*
X144325476Y-66694152D01*
X144325476Y-66694152D02*
X144373095Y-66503676D01*
X144373095Y-66503676D02*
X144468333Y-66408438D01*
X144468333Y-66408438D02*
X144563571Y-66360819D01*
X144563571Y-66360819D02*
X144754047Y-66360819D01*
X144754047Y-66360819D02*
X144849285Y-66408438D01*
X144849285Y-66408438D02*
X144944523Y-66503676D01*
X144944523Y-66503676D02*
X144992142Y-66694152D01*
X144992142Y-66694152D02*
X144992142Y-67027485D01*
X144992142Y-67027485D02*
X144944523Y-67217961D01*
X144944523Y-67217961D02*
X144849285Y-67313200D01*
X144849285Y-67313200D02*
X144754047Y-67360819D01*
X144754047Y-67360819D02*
X144563571Y-67360819D01*
X145325476Y-66360819D02*
X145944523Y-66360819D01*
X145944523Y-66360819D02*
X145611190Y-66741771D01*
X145611190Y-66741771D02*
X145754047Y-66741771D01*
X145754047Y-66741771D02*
X145849285Y-66789390D01*
X145849285Y-66789390D02*
X145896904Y-66837009D01*
X145896904Y-66837009D02*
X145944523Y-66932247D01*
X145944523Y-66932247D02*
X145944523Y-67170342D01*
X145944523Y-67170342D02*
X145896904Y-67265580D01*
X145896904Y-67265580D02*
X145849285Y-67313200D01*
X145849285Y-67313200D02*
X145754047Y-67360819D01*
X145754047Y-67360819D02*
X145468333Y-67360819D01*
X145468333Y-67360819D02*
X145373095Y-67313200D01*
X145373095Y-67313200D02*
X145325476Y-67265580D01*
D10*
X131893333Y-91464819D02*
X131560000Y-90988628D01*
X131321905Y-91464819D02*
X131321905Y-90464819D01*
X131321905Y-90464819D02*
X131702857Y-90464819D01*
X131702857Y-90464819D02*
X131798095Y-90512438D01*
X131798095Y-90512438D02*
X131845714Y-90560057D01*
X131845714Y-90560057D02*
X131893333Y-90655295D01*
X131893333Y-90655295D02*
X131893333Y-90798152D01*
X131893333Y-90798152D02*
X131845714Y-90893390D01*
X131845714Y-90893390D02*
X131798095Y-90941009D01*
X131798095Y-90941009D02*
X131702857Y-90988628D01*
X131702857Y-90988628D02*
X131321905Y-90988628D01*
X132369524Y-91464819D02*
X132560000Y-91464819D01*
X132560000Y-91464819D02*
X132655238Y-91417200D01*
X132655238Y-91417200D02*
X132702857Y-91369580D01*
X132702857Y-91369580D02*
X132798095Y-91226723D01*
X132798095Y-91226723D02*
X132845714Y-91036247D01*
X132845714Y-91036247D02*
X132845714Y-90655295D01*
X132845714Y-90655295D02*
X132798095Y-90560057D01*
X132798095Y-90560057D02*
X132750476Y-90512438D01*
X132750476Y-90512438D02*
X132655238Y-90464819D01*
X132655238Y-90464819D02*
X132464762Y-90464819D01*
X132464762Y-90464819D02*
X132369524Y-90512438D01*
X132369524Y-90512438D02*
X132321905Y-90560057D01*
X132321905Y-90560057D02*
X132274286Y-90655295D01*
X132274286Y-90655295D02*
X132274286Y-90893390D01*
X132274286Y-90893390D02*
X132321905Y-90988628D01*
X132321905Y-90988628D02*
X132369524Y-91036247D01*
X132369524Y-91036247D02*
X132464762Y-91083866D01*
X132464762Y-91083866D02*
X132655238Y-91083866D01*
X132655238Y-91083866D02*
X132750476Y-91036247D01*
X132750476Y-91036247D02*
X132798095Y-90988628D01*
X132798095Y-90988628D02*
X132845714Y-90893390D01*
X131893333Y-76404819D02*
X131560000Y-75928628D01*
X131321905Y-76404819D02*
X131321905Y-75404819D01*
X131321905Y-75404819D02*
X131702857Y-75404819D01*
X131702857Y-75404819D02*
X131798095Y-75452438D01*
X131798095Y-75452438D02*
X131845714Y-75500057D01*
X131845714Y-75500057D02*
X131893333Y-75595295D01*
X131893333Y-75595295D02*
X131893333Y-75738152D01*
X131893333Y-75738152D02*
X131845714Y-75833390D01*
X131845714Y-75833390D02*
X131798095Y-75881009D01*
X131798095Y-75881009D02*
X131702857Y-75928628D01*
X131702857Y-75928628D02*
X131321905Y-75928628D01*
X132226667Y-75404819D02*
X132845714Y-75404819D01*
X132845714Y-75404819D02*
X132512381Y-75785771D01*
X132512381Y-75785771D02*
X132655238Y-75785771D01*
X132655238Y-75785771D02*
X132750476Y-75833390D01*
X132750476Y-75833390D02*
X132798095Y-75881009D01*
X132798095Y-75881009D02*
X132845714Y-75976247D01*
X132845714Y-75976247D02*
X132845714Y-76214342D01*
X132845714Y-76214342D02*
X132798095Y-76309580D01*
X132798095Y-76309580D02*
X132750476Y-76357200D01*
X132750476Y-76357200D02*
X132655238Y-76404819D01*
X132655238Y-76404819D02*
X132369524Y-76404819D01*
X132369524Y-76404819D02*
X132274286Y-76357200D01*
X132274286Y-76357200D02*
X132226667Y-76309580D01*
X94554819Y-78533333D02*
X95269104Y-78533333D01*
X95269104Y-78533333D02*
X95411961Y-78580952D01*
X95411961Y-78580952D02*
X95507200Y-78676190D01*
X95507200Y-78676190D02*
X95554819Y-78819047D01*
X95554819Y-78819047D02*
X95554819Y-78914285D01*
X94554819Y-78152380D02*
X94554819Y-77533333D01*
X94554819Y-77533333D02*
X94935771Y-77866666D01*
X94935771Y-77866666D02*
X94935771Y-77723809D01*
X94935771Y-77723809D02*
X94983390Y-77628571D01*
X94983390Y-77628571D02*
X95031009Y-77580952D01*
X95031009Y-77580952D02*
X95126247Y-77533333D01*
X95126247Y-77533333D02*
X95364342Y-77533333D01*
X95364342Y-77533333D02*
X95459580Y-77580952D01*
X95459580Y-77580952D02*
X95507200Y-77628571D01*
X95507200Y-77628571D02*
X95554819Y-77723809D01*
X95554819Y-77723809D02*
X95554819Y-78009523D01*
X95554819Y-78009523D02*
X95507200Y-78104761D01*
X95507200Y-78104761D02*
X95459580Y-78152380D01*
X109714700Y-84271428D02*
X109714700Y-83128571D01*
X110286128Y-83699999D02*
X109143271Y-83699999D01*
X109714700Y-73271428D02*
X109714700Y-72128571D01*
X123873333Y-88859580D02*
X123825714Y-88907200D01*
X123825714Y-88907200D02*
X123682857Y-88954819D01*
X123682857Y-88954819D02*
X123587619Y-88954819D01*
X123587619Y-88954819D02*
X123444762Y-88907200D01*
X123444762Y-88907200D02*
X123349524Y-88811961D01*
X123349524Y-88811961D02*
X123301905Y-88716723D01*
X123301905Y-88716723D02*
X123254286Y-88526247D01*
X123254286Y-88526247D02*
X123254286Y-88383390D01*
X123254286Y-88383390D02*
X123301905Y-88192914D01*
X123301905Y-88192914D02*
X123349524Y-88097676D01*
X123349524Y-88097676D02*
X123444762Y-88002438D01*
X123444762Y-88002438D02*
X123587619Y-87954819D01*
X123587619Y-87954819D02*
X123682857Y-87954819D01*
X123682857Y-87954819D02*
X123825714Y-88002438D01*
X123825714Y-88002438D02*
X123873333Y-88050057D01*
X124730476Y-87954819D02*
X124540000Y-87954819D01*
X124540000Y-87954819D02*
X124444762Y-88002438D01*
X124444762Y-88002438D02*
X124397143Y-88050057D01*
X124397143Y-88050057D02*
X124301905Y-88192914D01*
X124301905Y-88192914D02*
X124254286Y-88383390D01*
X124254286Y-88383390D02*
X124254286Y-88764342D01*
X124254286Y-88764342D02*
X124301905Y-88859580D01*
X124301905Y-88859580D02*
X124349524Y-88907200D01*
X124349524Y-88907200D02*
X124444762Y-88954819D01*
X124444762Y-88954819D02*
X124635238Y-88954819D01*
X124635238Y-88954819D02*
X124730476Y-88907200D01*
X124730476Y-88907200D02*
X124778095Y-88859580D01*
X124778095Y-88859580D02*
X124825714Y-88764342D01*
X124825714Y-88764342D02*
X124825714Y-88526247D01*
X124825714Y-88526247D02*
X124778095Y-88431009D01*
X124778095Y-88431009D02*
X124730476Y-88383390D01*
X124730476Y-88383390D02*
X124635238Y-88335771D01*
X124635238Y-88335771D02*
X124444762Y-88335771D01*
X124444762Y-88335771D02*
X124349524Y-88383390D01*
X124349524Y-88383390D02*
X124301905Y-88431009D01*
X124301905Y-88431009D02*
X124254286Y-88526247D01*
X127883333Y-78819580D02*
X127835714Y-78867200D01*
X127835714Y-78867200D02*
X127692857Y-78914819D01*
X127692857Y-78914819D02*
X127597619Y-78914819D01*
X127597619Y-78914819D02*
X127454762Y-78867200D01*
X127454762Y-78867200D02*
X127359524Y-78771961D01*
X127359524Y-78771961D02*
X127311905Y-78676723D01*
X127311905Y-78676723D02*
X127264286Y-78486247D01*
X127264286Y-78486247D02*
X127264286Y-78343390D01*
X127264286Y-78343390D02*
X127311905Y-78152914D01*
X127311905Y-78152914D02*
X127359524Y-78057676D01*
X127359524Y-78057676D02*
X127454762Y-77962438D01*
X127454762Y-77962438D02*
X127597619Y-77914819D01*
X127597619Y-77914819D02*
X127692857Y-77914819D01*
X127692857Y-77914819D02*
X127835714Y-77962438D01*
X127835714Y-77962438D02*
X127883333Y-78010057D01*
X128359524Y-78914819D02*
X128550000Y-78914819D01*
X128550000Y-78914819D02*
X128645238Y-78867200D01*
X128645238Y-78867200D02*
X128692857Y-78819580D01*
X128692857Y-78819580D02*
X128788095Y-78676723D01*
X128788095Y-78676723D02*
X128835714Y-78486247D01*
X128835714Y-78486247D02*
X128835714Y-78105295D01*
X128835714Y-78105295D02*
X128788095Y-78010057D01*
X128788095Y-78010057D02*
X128740476Y-77962438D01*
X128740476Y-77962438D02*
X128645238Y-77914819D01*
X128645238Y-77914819D02*
X128454762Y-77914819D01*
X128454762Y-77914819D02*
X128359524Y-77962438D01*
X128359524Y-77962438D02*
X128311905Y-78010057D01*
X128311905Y-78010057D02*
X128264286Y-78105295D01*
X128264286Y-78105295D02*
X128264286Y-78343390D01*
X128264286Y-78343390D02*
X128311905Y-78438628D01*
X128311905Y-78438628D02*
X128359524Y-78486247D01*
X128359524Y-78486247D02*
X128454762Y-78533866D01*
X128454762Y-78533866D02*
X128645238Y-78533866D01*
X128645238Y-78533866D02*
X128740476Y-78486247D01*
X128740476Y-78486247D02*
X128788095Y-78438628D01*
X128788095Y-78438628D02*
X128835714Y-78343390D01*
X148311428Y-68674819D02*
X147978095Y-68198628D01*
X147740000Y-68674819D02*
X147740000Y-67674819D01*
X147740000Y-67674819D02*
X148120952Y-67674819D01*
X148120952Y-67674819D02*
X148216190Y-67722438D01*
X148216190Y-67722438D02*
X148263809Y-67770057D01*
X148263809Y-67770057D02*
X148311428Y-67865295D01*
X148311428Y-67865295D02*
X148311428Y-68008152D01*
X148311428Y-68008152D02*
X148263809Y-68103390D01*
X148263809Y-68103390D02*
X148216190Y-68151009D01*
X148216190Y-68151009D02*
X148120952Y-68198628D01*
X148120952Y-68198628D02*
X147740000Y-68198628D01*
X148501905Y-68770057D02*
X149263809Y-68770057D01*
X149454286Y-68627200D02*
X149597143Y-68674819D01*
X149597143Y-68674819D02*
X149835238Y-68674819D01*
X149835238Y-68674819D02*
X149930476Y-68627200D01*
X149930476Y-68627200D02*
X149978095Y-68579580D01*
X149978095Y-68579580D02*
X150025714Y-68484342D01*
X150025714Y-68484342D02*
X150025714Y-68389104D01*
X150025714Y-68389104D02*
X149978095Y-68293866D01*
X149978095Y-68293866D02*
X149930476Y-68246247D01*
X149930476Y-68246247D02*
X149835238Y-68198628D01*
X149835238Y-68198628D02*
X149644762Y-68151009D01*
X149644762Y-68151009D02*
X149549524Y-68103390D01*
X149549524Y-68103390D02*
X149501905Y-68055771D01*
X149501905Y-68055771D02*
X149454286Y-67960533D01*
X149454286Y-67960533D02*
X149454286Y-67865295D01*
X149454286Y-67865295D02*
X149501905Y-67770057D01*
X149501905Y-67770057D02*
X149549524Y-67722438D01*
X149549524Y-67722438D02*
X149644762Y-67674819D01*
X149644762Y-67674819D02*
X149882857Y-67674819D01*
X149882857Y-67674819D02*
X150025714Y-67722438D01*
X150454286Y-68151009D02*
X150787619Y-68151009D01*
X150930476Y-68674819D02*
X150454286Y-68674819D01*
X150454286Y-68674819D02*
X150454286Y-67674819D01*
X150454286Y-67674819D02*
X150930476Y-67674819D01*
X151359048Y-68674819D02*
X151359048Y-67674819D01*
X151359048Y-67674819D02*
X151930476Y-68674819D01*
X151930476Y-68674819D02*
X151930476Y-67674819D01*
X152359048Y-68627200D02*
X152501905Y-68674819D01*
X152501905Y-68674819D02*
X152740000Y-68674819D01*
X152740000Y-68674819D02*
X152835238Y-68627200D01*
X152835238Y-68627200D02*
X152882857Y-68579580D01*
X152882857Y-68579580D02*
X152930476Y-68484342D01*
X152930476Y-68484342D02*
X152930476Y-68389104D01*
X152930476Y-68389104D02*
X152882857Y-68293866D01*
X152882857Y-68293866D02*
X152835238Y-68246247D01*
X152835238Y-68246247D02*
X152740000Y-68198628D01*
X152740000Y-68198628D02*
X152549524Y-68151009D01*
X152549524Y-68151009D02*
X152454286Y-68103390D01*
X152454286Y-68103390D02*
X152406667Y-68055771D01*
X152406667Y-68055771D02*
X152359048Y-67960533D01*
X152359048Y-67960533D02*
X152359048Y-67865295D01*
X152359048Y-67865295D02*
X152406667Y-67770057D01*
X152406667Y-67770057D02*
X152454286Y-67722438D01*
X152454286Y-67722438D02*
X152549524Y-67674819D01*
X152549524Y-67674819D02*
X152787619Y-67674819D01*
X152787619Y-67674819D02*
X152930476Y-67722438D01*
X153359048Y-68151009D02*
X153692381Y-68151009D01*
X153835238Y-68674819D02*
X153359048Y-68674819D01*
X153359048Y-68674819D02*
X153359048Y-67674819D01*
X153359048Y-67674819D02*
X153835238Y-67674819D01*
X154787619Y-68674819D02*
X154216191Y-68674819D01*
X154501905Y-68674819D02*
X154501905Y-67674819D01*
X154501905Y-67674819D02*
X154406667Y-67817676D01*
X154406667Y-67817676D02*
X154311429Y-67912914D01*
X154311429Y-67912914D02*
X154216191Y-67960533D01*
X127883333Y-76309580D02*
X127835714Y-76357200D01*
X127835714Y-76357200D02*
X127692857Y-76404819D01*
X127692857Y-76404819D02*
X127597619Y-76404819D01*
X127597619Y-76404819D02*
X127454762Y-76357200D01*
X127454762Y-76357200D02*
X127359524Y-76261961D01*
X127359524Y-76261961D02*
X127311905Y-76166723D01*
X127311905Y-76166723D02*
X127264286Y-75976247D01*
X127264286Y-75976247D02*
X127264286Y-75833390D01*
X127264286Y-75833390D02*
X127311905Y-75642914D01*
X127311905Y-75642914D02*
X127359524Y-75547676D01*
X127359524Y-75547676D02*
X127454762Y-75452438D01*
X127454762Y-75452438D02*
X127597619Y-75404819D01*
X127597619Y-75404819D02*
X127692857Y-75404819D01*
X127692857Y-75404819D02*
X127835714Y-75452438D01*
X127835714Y-75452438D02*
X127883333Y-75500057D01*
X128454762Y-75833390D02*
X128359524Y-75785771D01*
X128359524Y-75785771D02*
X128311905Y-75738152D01*
X128311905Y-75738152D02*
X128264286Y-75642914D01*
X128264286Y-75642914D02*
X128264286Y-75595295D01*
X128264286Y-75595295D02*
X128311905Y-75500057D01*
X128311905Y-75500057D02*
X128359524Y-75452438D01*
X128359524Y-75452438D02*
X128454762Y-75404819D01*
X128454762Y-75404819D02*
X128645238Y-75404819D01*
X128645238Y-75404819D02*
X128740476Y-75452438D01*
X128740476Y-75452438D02*
X128788095Y-75500057D01*
X128788095Y-75500057D02*
X128835714Y-75595295D01*
X128835714Y-75595295D02*
X128835714Y-75642914D01*
X128835714Y-75642914D02*
X128788095Y-75738152D01*
X128788095Y-75738152D02*
X128740476Y-75785771D01*
X128740476Y-75785771D02*
X128645238Y-75833390D01*
X128645238Y-75833390D02*
X128454762Y-75833390D01*
X128454762Y-75833390D02*
X128359524Y-75881009D01*
X128359524Y-75881009D02*
X128311905Y-75928628D01*
X128311905Y-75928628D02*
X128264286Y-76023866D01*
X128264286Y-76023866D02*
X128264286Y-76214342D01*
X128264286Y-76214342D02*
X128311905Y-76309580D01*
X128311905Y-76309580D02*
X128359524Y-76357200D01*
X128359524Y-76357200D02*
X128454762Y-76404819D01*
X128454762Y-76404819D02*
X128645238Y-76404819D01*
X128645238Y-76404819D02*
X128740476Y-76357200D01*
X128740476Y-76357200D02*
X128788095Y-76309580D01*
X128788095Y-76309580D02*
X128835714Y-76214342D01*
X128835714Y-76214342D02*
X128835714Y-76023866D01*
X128835714Y-76023866D02*
X128788095Y-75928628D01*
X128788095Y-75928628D02*
X128740476Y-75881009D01*
X128740476Y-75881009D02*
X128645238Y-75833390D01*
X135427142Y-86444819D02*
X135093809Y-85968628D01*
X134855714Y-86444819D02*
X134855714Y-85444819D01*
X134855714Y-85444819D02*
X135236666Y-85444819D01*
X135236666Y-85444819D02*
X135331904Y-85492438D01*
X135331904Y-85492438D02*
X135379523Y-85540057D01*
X135379523Y-85540057D02*
X135427142Y-85635295D01*
X135427142Y-85635295D02*
X135427142Y-85778152D01*
X135427142Y-85778152D02*
X135379523Y-85873390D01*
X135379523Y-85873390D02*
X135331904Y-85921009D01*
X135331904Y-85921009D02*
X135236666Y-85968628D01*
X135236666Y-85968628D02*
X134855714Y-85968628D01*
X136379523Y-86444819D02*
X135808095Y-86444819D01*
X136093809Y-86444819D02*
X136093809Y-85444819D01*
X136093809Y-85444819D02*
X135998571Y-85587676D01*
X135998571Y-85587676D02*
X135903333Y-85682914D01*
X135903333Y-85682914D02*
X135808095Y-85730533D01*
X137236666Y-85778152D02*
X137236666Y-86444819D01*
X136998571Y-85397200D02*
X136760476Y-86111485D01*
X136760476Y-86111485D02*
X137379523Y-86111485D01*
X123873333Y-91369580D02*
X123825714Y-91417200D01*
X123825714Y-91417200D02*
X123682857Y-91464819D01*
X123682857Y-91464819D02*
X123587619Y-91464819D01*
X123587619Y-91464819D02*
X123444762Y-91417200D01*
X123444762Y-91417200D02*
X123349524Y-91321961D01*
X123349524Y-91321961D02*
X123301905Y-91226723D01*
X123301905Y-91226723D02*
X123254286Y-91036247D01*
X123254286Y-91036247D02*
X123254286Y-90893390D01*
X123254286Y-90893390D02*
X123301905Y-90702914D01*
X123301905Y-90702914D02*
X123349524Y-90607676D01*
X123349524Y-90607676D02*
X123444762Y-90512438D01*
X123444762Y-90512438D02*
X123587619Y-90464819D01*
X123587619Y-90464819D02*
X123682857Y-90464819D01*
X123682857Y-90464819D02*
X123825714Y-90512438D01*
X123825714Y-90512438D02*
X123873333Y-90560057D01*
X124206667Y-90464819D02*
X124873333Y-90464819D01*
X124873333Y-90464819D02*
X124444762Y-91464819D01*
X157231905Y-81624819D02*
X157231905Y-80624819D01*
X157231905Y-80624819D02*
X157470000Y-80624819D01*
X157470000Y-80624819D02*
X157612857Y-80672438D01*
X157612857Y-80672438D02*
X157708095Y-80767676D01*
X157708095Y-80767676D02*
X157755714Y-80862914D01*
X157755714Y-80862914D02*
X157803333Y-81053390D01*
X157803333Y-81053390D02*
X157803333Y-81196247D01*
X157803333Y-81196247D02*
X157755714Y-81386723D01*
X157755714Y-81386723D02*
X157708095Y-81481961D01*
X157708095Y-81481961D02*
X157612857Y-81577200D01*
X157612857Y-81577200D02*
X157470000Y-81624819D01*
X157470000Y-81624819D02*
X157231905Y-81624819D01*
X158660476Y-80958152D02*
X158660476Y-81624819D01*
X158422381Y-80577200D02*
X158184286Y-81291485D01*
X158184286Y-81291485D02*
X158803333Y-81291485D01*
X123873333Y-76309580D02*
X123825714Y-76357200D01*
X123825714Y-76357200D02*
X123682857Y-76404819D01*
X123682857Y-76404819D02*
X123587619Y-76404819D01*
X123587619Y-76404819D02*
X123444762Y-76357200D01*
X123444762Y-76357200D02*
X123349524Y-76261961D01*
X123349524Y-76261961D02*
X123301905Y-76166723D01*
X123301905Y-76166723D02*
X123254286Y-75976247D01*
X123254286Y-75976247D02*
X123254286Y-75833390D01*
X123254286Y-75833390D02*
X123301905Y-75642914D01*
X123301905Y-75642914D02*
X123349524Y-75547676D01*
X123349524Y-75547676D02*
X123444762Y-75452438D01*
X123444762Y-75452438D02*
X123587619Y-75404819D01*
X123587619Y-75404819D02*
X123682857Y-75404819D01*
X123682857Y-75404819D02*
X123825714Y-75452438D01*
X123825714Y-75452438D02*
X123873333Y-75500057D01*
X124825714Y-76404819D02*
X124254286Y-76404819D01*
X124540000Y-76404819D02*
X124540000Y-75404819D01*
X124540000Y-75404819D02*
X124444762Y-75547676D01*
X124444762Y-75547676D02*
X124349524Y-75642914D01*
X124349524Y-75642914D02*
X124254286Y-75690533D01*
X135427142Y-76404819D02*
X135093809Y-75928628D01*
X134855714Y-76404819D02*
X134855714Y-75404819D01*
X134855714Y-75404819D02*
X135236666Y-75404819D01*
X135236666Y-75404819D02*
X135331904Y-75452438D01*
X135331904Y-75452438D02*
X135379523Y-75500057D01*
X135379523Y-75500057D02*
X135427142Y-75595295D01*
X135427142Y-75595295D02*
X135427142Y-75738152D01*
X135427142Y-75738152D02*
X135379523Y-75833390D01*
X135379523Y-75833390D02*
X135331904Y-75881009D01*
X135331904Y-75881009D02*
X135236666Y-75928628D01*
X135236666Y-75928628D02*
X134855714Y-75928628D01*
X136379523Y-76404819D02*
X135808095Y-76404819D01*
X136093809Y-76404819D02*
X136093809Y-75404819D01*
X136093809Y-75404819D02*
X135998571Y-75547676D01*
X135998571Y-75547676D02*
X135903333Y-75642914D01*
X135903333Y-75642914D02*
X135808095Y-75690533D01*
X136998571Y-75404819D02*
X137093809Y-75404819D01*
X137093809Y-75404819D02*
X137189047Y-75452438D01*
X137189047Y-75452438D02*
X137236666Y-75500057D01*
X137236666Y-75500057D02*
X137284285Y-75595295D01*
X137284285Y-75595295D02*
X137331904Y-75785771D01*
X137331904Y-75785771D02*
X137331904Y-76023866D01*
X137331904Y-76023866D02*
X137284285Y-76214342D01*
X137284285Y-76214342D02*
X137236666Y-76309580D01*
X137236666Y-76309580D02*
X137189047Y-76357200D01*
X137189047Y-76357200D02*
X137093809Y-76404819D01*
X137093809Y-76404819D02*
X136998571Y-76404819D01*
X136998571Y-76404819D02*
X136903333Y-76357200D01*
X136903333Y-76357200D02*
X136855714Y-76309580D01*
X136855714Y-76309580D02*
X136808095Y-76214342D01*
X136808095Y-76214342D02*
X136760476Y-76023866D01*
X136760476Y-76023866D02*
X136760476Y-75785771D01*
X136760476Y-75785771D02*
X136808095Y-75595295D01*
X136808095Y-75595295D02*
X136855714Y-75500057D01*
X136855714Y-75500057D02*
X136903333Y-75452438D01*
X136903333Y-75452438D02*
X136998571Y-75404819D01*
X123873333Y-81329580D02*
X123825714Y-81377200D01*
X123825714Y-81377200D02*
X123682857Y-81424819D01*
X123682857Y-81424819D02*
X123587619Y-81424819D01*
X123587619Y-81424819D02*
X123444762Y-81377200D01*
X123444762Y-81377200D02*
X123349524Y-81281961D01*
X123349524Y-81281961D02*
X123301905Y-81186723D01*
X123301905Y-81186723D02*
X123254286Y-80996247D01*
X123254286Y-80996247D02*
X123254286Y-80853390D01*
X123254286Y-80853390D02*
X123301905Y-80662914D01*
X123301905Y-80662914D02*
X123349524Y-80567676D01*
X123349524Y-80567676D02*
X123444762Y-80472438D01*
X123444762Y-80472438D02*
X123587619Y-80424819D01*
X123587619Y-80424819D02*
X123682857Y-80424819D01*
X123682857Y-80424819D02*
X123825714Y-80472438D01*
X123825714Y-80472438D02*
X123873333Y-80520057D01*
X124206667Y-80424819D02*
X124825714Y-80424819D01*
X124825714Y-80424819D02*
X124492381Y-80805771D01*
X124492381Y-80805771D02*
X124635238Y-80805771D01*
X124635238Y-80805771D02*
X124730476Y-80853390D01*
X124730476Y-80853390D02*
X124778095Y-80901009D01*
X124778095Y-80901009D02*
X124825714Y-80996247D01*
X124825714Y-80996247D02*
X124825714Y-81234342D01*
X124825714Y-81234342D02*
X124778095Y-81329580D01*
X124778095Y-81329580D02*
X124730476Y-81377200D01*
X124730476Y-81377200D02*
X124635238Y-81424819D01*
X124635238Y-81424819D02*
X124349524Y-81424819D01*
X124349524Y-81424819D02*
X124254286Y-81377200D01*
X124254286Y-81377200D02*
X124206667Y-81329580D01*
D11*
X138439761Y-67456057D02*
X138344523Y-67408438D01*
X138344523Y-67408438D02*
X138249285Y-67313200D01*
X138249285Y-67313200D02*
X138106428Y-67170342D01*
X138106428Y-67170342D02*
X138011190Y-67122723D01*
X138011190Y-67122723D02*
X137915952Y-67122723D01*
X137963571Y-67360819D02*
X137868333Y-67313200D01*
X137868333Y-67313200D02*
X137773095Y-67217961D01*
X137773095Y-67217961D02*
X137725476Y-67027485D01*
X137725476Y-67027485D02*
X137725476Y-66694152D01*
X137725476Y-66694152D02*
X137773095Y-66503676D01*
X137773095Y-66503676D02*
X137868333Y-66408438D01*
X137868333Y-66408438D02*
X137963571Y-66360819D01*
X137963571Y-66360819D02*
X138154047Y-66360819D01*
X138154047Y-66360819D02*
X138249285Y-66408438D01*
X138249285Y-66408438D02*
X138344523Y-66503676D01*
X138344523Y-66503676D02*
X138392142Y-66694152D01*
X138392142Y-66694152D02*
X138392142Y-67027485D01*
X138392142Y-67027485D02*
X138344523Y-67217961D01*
X138344523Y-67217961D02*
X138249285Y-67313200D01*
X138249285Y-67313200D02*
X138154047Y-67360819D01*
X138154047Y-67360819D02*
X137963571Y-67360819D01*
X138773095Y-66456057D02*
X138820714Y-66408438D01*
X138820714Y-66408438D02*
X138915952Y-66360819D01*
X138915952Y-66360819D02*
X139154047Y-66360819D01*
X139154047Y-66360819D02*
X139249285Y-66408438D01*
X139249285Y-66408438D02*
X139296904Y-66456057D01*
X139296904Y-66456057D02*
X139344523Y-66551295D01*
X139344523Y-66551295D02*
X139344523Y-66646533D01*
X139344523Y-66646533D02*
X139296904Y-66789390D01*
X139296904Y-66789390D02*
X138725476Y-67360819D01*
X138725476Y-67360819D02*
X139344523Y-67360819D01*
X125239761Y-75049457D02*
X125144523Y-75001838D01*
X125144523Y-75001838D02*
X125049285Y-74906600D01*
X125049285Y-74906600D02*
X124906428Y-74763742D01*
X124906428Y-74763742D02*
X124811190Y-74716123D01*
X124811190Y-74716123D02*
X124715952Y-74716123D01*
X124763571Y-74954219D02*
X124668333Y-74906600D01*
X124668333Y-74906600D02*
X124573095Y-74811361D01*
X124573095Y-74811361D02*
X124525476Y-74620885D01*
X124525476Y-74620885D02*
X124525476Y-74287552D01*
X124525476Y-74287552D02*
X124573095Y-74097076D01*
X124573095Y-74097076D02*
X124668333Y-74001838D01*
X124668333Y-74001838D02*
X124763571Y-73954219D01*
X124763571Y-73954219D02*
X124954047Y-73954219D01*
X124954047Y-73954219D02*
X125049285Y-74001838D01*
X125049285Y-74001838D02*
X125144523Y-74097076D01*
X125144523Y-74097076D02*
X125192142Y-74287552D01*
X125192142Y-74287552D02*
X125192142Y-74620885D01*
X125192142Y-74620885D02*
X125144523Y-74811361D01*
X125144523Y-74811361D02*
X125049285Y-74906600D01*
X125049285Y-74906600D02*
X124954047Y-74954219D01*
X124954047Y-74954219D02*
X124763571Y-74954219D01*
X126049285Y-74287552D02*
X126049285Y-74954219D01*
X125811190Y-73906600D02*
X125573095Y-74620885D01*
X125573095Y-74620885D02*
X126192142Y-74620885D01*
D10*
X127883333Y-88954819D02*
X127550000Y-88478628D01*
X127311905Y-88954819D02*
X127311905Y-87954819D01*
X127311905Y-87954819D02*
X127692857Y-87954819D01*
X127692857Y-87954819D02*
X127788095Y-88002438D01*
X127788095Y-88002438D02*
X127835714Y-88050057D01*
X127835714Y-88050057D02*
X127883333Y-88145295D01*
X127883333Y-88145295D02*
X127883333Y-88288152D01*
X127883333Y-88288152D02*
X127835714Y-88383390D01*
X127835714Y-88383390D02*
X127788095Y-88431009D01*
X127788095Y-88431009D02*
X127692857Y-88478628D01*
X127692857Y-88478628D02*
X127311905Y-88478628D01*
X128835714Y-88954819D02*
X128264286Y-88954819D01*
X128550000Y-88954819D02*
X128550000Y-87954819D01*
X128550000Y-87954819D02*
X128454762Y-88097676D01*
X128454762Y-88097676D02*
X128359524Y-88192914D01*
X128359524Y-88192914D02*
X128264286Y-88240533D01*
X155858095Y-67849819D02*
X155858095Y-68659342D01*
X155858095Y-68659342D02*
X155905714Y-68754580D01*
X155905714Y-68754580D02*
X155953333Y-68802200D01*
X155953333Y-68802200D02*
X156048571Y-68849819D01*
X156048571Y-68849819D02*
X156239047Y-68849819D01*
X156239047Y-68849819D02*
X156334285Y-68802200D01*
X156334285Y-68802200D02*
X156381904Y-68754580D01*
X156381904Y-68754580D02*
X156429523Y-68659342D01*
X156429523Y-68659342D02*
X156429523Y-67849819D01*
X157429523Y-68849819D02*
X156858095Y-68849819D01*
X157143809Y-68849819D02*
X157143809Y-67849819D01*
X157143809Y-67849819D02*
X157048571Y-67992676D01*
X157048571Y-67992676D02*
X156953333Y-68087914D01*
X156953333Y-68087914D02*
X156858095Y-68135533D01*
X157231905Y-84214819D02*
X157231905Y-83214819D01*
X157231905Y-83214819D02*
X157470000Y-83214819D01*
X157470000Y-83214819D02*
X157612857Y-83262438D01*
X157612857Y-83262438D02*
X157708095Y-83357676D01*
X157708095Y-83357676D02*
X157755714Y-83452914D01*
X157755714Y-83452914D02*
X157803333Y-83643390D01*
X157803333Y-83643390D02*
X157803333Y-83786247D01*
X157803333Y-83786247D02*
X157755714Y-83976723D01*
X157755714Y-83976723D02*
X157708095Y-84071961D01*
X157708095Y-84071961D02*
X157612857Y-84167200D01*
X157612857Y-84167200D02*
X157470000Y-84214819D01*
X157470000Y-84214819D02*
X157231905Y-84214819D01*
X158708095Y-83214819D02*
X158231905Y-83214819D01*
X158231905Y-83214819D02*
X158184286Y-83691009D01*
X158184286Y-83691009D02*
X158231905Y-83643390D01*
X158231905Y-83643390D02*
X158327143Y-83595771D01*
X158327143Y-83595771D02*
X158565238Y-83595771D01*
X158565238Y-83595771D02*
X158660476Y-83643390D01*
X158660476Y-83643390D02*
X158708095Y-83691009D01*
X158708095Y-83691009D02*
X158755714Y-83786247D01*
X158755714Y-83786247D02*
X158755714Y-84024342D01*
X158755714Y-84024342D02*
X158708095Y-84119580D01*
X158708095Y-84119580D02*
X158660476Y-84167200D01*
X158660476Y-84167200D02*
X158565238Y-84214819D01*
X158565238Y-84214819D02*
X158327143Y-84214819D01*
X158327143Y-84214819D02*
X158231905Y-84167200D01*
X158231905Y-84167200D02*
X158184286Y-84119580D01*
X139258333Y-83989580D02*
X139210714Y-84037200D01*
X139210714Y-84037200D02*
X139067857Y-84084819D01*
X139067857Y-84084819D02*
X138972619Y-84084819D01*
X138972619Y-84084819D02*
X138829762Y-84037200D01*
X138829762Y-84037200D02*
X138734524Y-83941961D01*
X138734524Y-83941961D02*
X138686905Y-83846723D01*
X138686905Y-83846723D02*
X138639286Y-83656247D01*
X138639286Y-83656247D02*
X138639286Y-83513390D01*
X138639286Y-83513390D02*
X138686905Y-83322914D01*
X138686905Y-83322914D02*
X138734524Y-83227676D01*
X138734524Y-83227676D02*
X138829762Y-83132438D01*
X138829762Y-83132438D02*
X138972619Y-83084819D01*
X138972619Y-83084819D02*
X139067857Y-83084819D01*
X139067857Y-83084819D02*
X139210714Y-83132438D01*
X139210714Y-83132438D02*
X139258333Y-83180057D01*
X139829762Y-83513390D02*
X139734524Y-83465771D01*
X139734524Y-83465771D02*
X139686905Y-83418152D01*
X139686905Y-83418152D02*
X139639286Y-83322914D01*
X139639286Y-83322914D02*
X139639286Y-83275295D01*
X139639286Y-83275295D02*
X139686905Y-83180057D01*
X139686905Y-83180057D02*
X139734524Y-83132438D01*
X139734524Y-83132438D02*
X139829762Y-83084819D01*
X139829762Y-83084819D02*
X140020238Y-83084819D01*
X140020238Y-83084819D02*
X140115476Y-83132438D01*
X140115476Y-83132438D02*
X140163095Y-83180057D01*
X140163095Y-83180057D02*
X140210714Y-83275295D01*
X140210714Y-83275295D02*
X140210714Y-83322914D01*
X140210714Y-83322914D02*
X140163095Y-83418152D01*
X140163095Y-83418152D02*
X140115476Y-83465771D01*
X140115476Y-83465771D02*
X140020238Y-83513390D01*
X140020238Y-83513390D02*
X139829762Y-83513390D01*
X139829762Y-83513390D02*
X139734524Y-83561009D01*
X139734524Y-83561009D02*
X139686905Y-83608628D01*
X139686905Y-83608628D02*
X139639286Y-83703866D01*
X139639286Y-83703866D02*
X139639286Y-83894342D01*
X139639286Y-83894342D02*
X139686905Y-83989580D01*
X139686905Y-83989580D02*
X139734524Y-84037200D01*
X139734524Y-84037200D02*
X139829762Y-84084819D01*
X139829762Y-84084819D02*
X140020238Y-84084819D01*
X140020238Y-84084819D02*
X140115476Y-84037200D01*
X140115476Y-84037200D02*
X140163095Y-83989580D01*
X140163095Y-83989580D02*
X140210714Y-83894342D01*
X140210714Y-83894342D02*
X140210714Y-83703866D01*
X140210714Y-83703866D02*
X140163095Y-83608628D01*
X140163095Y-83608628D02*
X140115476Y-83561009D01*
X140115476Y-83561009D02*
X140020238Y-83513390D01*
X135427142Y-88954819D02*
X135093809Y-88478628D01*
X134855714Y-88954819D02*
X134855714Y-87954819D01*
X134855714Y-87954819D02*
X135236666Y-87954819D01*
X135236666Y-87954819D02*
X135331904Y-88002438D01*
X135331904Y-88002438D02*
X135379523Y-88050057D01*
X135379523Y-88050057D02*
X135427142Y-88145295D01*
X135427142Y-88145295D02*
X135427142Y-88288152D01*
X135427142Y-88288152D02*
X135379523Y-88383390D01*
X135379523Y-88383390D02*
X135331904Y-88431009D01*
X135331904Y-88431009D02*
X135236666Y-88478628D01*
X135236666Y-88478628D02*
X134855714Y-88478628D01*
X136379523Y-88954819D02*
X135808095Y-88954819D01*
X136093809Y-88954819D02*
X136093809Y-87954819D01*
X136093809Y-87954819D02*
X135998571Y-88097676D01*
X135998571Y-88097676D02*
X135903333Y-88192914D01*
X135903333Y-88192914D02*
X135808095Y-88240533D01*
X137284285Y-87954819D02*
X136808095Y-87954819D01*
X136808095Y-87954819D02*
X136760476Y-88431009D01*
X136760476Y-88431009D02*
X136808095Y-88383390D01*
X136808095Y-88383390D02*
X136903333Y-88335771D01*
X136903333Y-88335771D02*
X137141428Y-88335771D01*
X137141428Y-88335771D02*
X137236666Y-88383390D01*
X137236666Y-88383390D02*
X137284285Y-88431009D01*
X137284285Y-88431009D02*
X137331904Y-88526247D01*
X137331904Y-88526247D02*
X137331904Y-88764342D01*
X137331904Y-88764342D02*
X137284285Y-88859580D01*
X137284285Y-88859580D02*
X137236666Y-88907200D01*
X137236666Y-88907200D02*
X137141428Y-88954819D01*
X137141428Y-88954819D02*
X136903333Y-88954819D01*
X136903333Y-88954819D02*
X136808095Y-88907200D01*
X136808095Y-88907200D02*
X136760476Y-88859580D01*
X127883333Y-91464819D02*
X127550000Y-90988628D01*
X127311905Y-91464819D02*
X127311905Y-90464819D01*
X127311905Y-90464819D02*
X127692857Y-90464819D01*
X127692857Y-90464819D02*
X127788095Y-90512438D01*
X127788095Y-90512438D02*
X127835714Y-90560057D01*
X127835714Y-90560057D02*
X127883333Y-90655295D01*
X127883333Y-90655295D02*
X127883333Y-90798152D01*
X127883333Y-90798152D02*
X127835714Y-90893390D01*
X127835714Y-90893390D02*
X127788095Y-90941009D01*
X127788095Y-90941009D02*
X127692857Y-90988628D01*
X127692857Y-90988628D02*
X127311905Y-90988628D01*
X128264286Y-90560057D02*
X128311905Y-90512438D01*
X128311905Y-90512438D02*
X128407143Y-90464819D01*
X128407143Y-90464819D02*
X128645238Y-90464819D01*
X128645238Y-90464819D02*
X128740476Y-90512438D01*
X128740476Y-90512438D02*
X128788095Y-90560057D01*
X128788095Y-90560057D02*
X128835714Y-90655295D01*
X128835714Y-90655295D02*
X128835714Y-90750533D01*
X128835714Y-90750533D02*
X128788095Y-90893390D01*
X128788095Y-90893390D02*
X128216667Y-91464819D01*
X128216667Y-91464819D02*
X128835714Y-91464819D01*
D11*
X138439761Y-75049457D02*
X138344523Y-75001838D01*
X138344523Y-75001838D02*
X138249285Y-74906600D01*
X138249285Y-74906600D02*
X138106428Y-74763742D01*
X138106428Y-74763742D02*
X138011190Y-74716123D01*
X138011190Y-74716123D02*
X137915952Y-74716123D01*
X137963571Y-74954219D02*
X137868333Y-74906600D01*
X137868333Y-74906600D02*
X137773095Y-74811361D01*
X137773095Y-74811361D02*
X137725476Y-74620885D01*
X137725476Y-74620885D02*
X137725476Y-74287552D01*
X137725476Y-74287552D02*
X137773095Y-74097076D01*
X137773095Y-74097076D02*
X137868333Y-74001838D01*
X137868333Y-74001838D02*
X137963571Y-73954219D01*
X137963571Y-73954219D02*
X138154047Y-73954219D01*
X138154047Y-73954219D02*
X138249285Y-74001838D01*
X138249285Y-74001838D02*
X138344523Y-74097076D01*
X138344523Y-74097076D02*
X138392142Y-74287552D01*
X138392142Y-74287552D02*
X138392142Y-74620885D01*
X138392142Y-74620885D02*
X138344523Y-74811361D01*
X138344523Y-74811361D02*
X138249285Y-74906600D01*
X138249285Y-74906600D02*
X138154047Y-74954219D01*
X138154047Y-74954219D02*
X137963571Y-74954219D01*
X139249285Y-73954219D02*
X139058809Y-73954219D01*
X139058809Y-73954219D02*
X138963571Y-74001838D01*
X138963571Y-74001838D02*
X138915952Y-74049457D01*
X138915952Y-74049457D02*
X138820714Y-74192314D01*
X138820714Y-74192314D02*
X138773095Y-74382790D01*
X138773095Y-74382790D02*
X138773095Y-74763742D01*
X138773095Y-74763742D02*
X138820714Y-74858980D01*
X138820714Y-74858980D02*
X138868333Y-74906600D01*
X138868333Y-74906600D02*
X138963571Y-74954219D01*
X138963571Y-74954219D02*
X139154047Y-74954219D01*
X139154047Y-74954219D02*
X139249285Y-74906600D01*
X139249285Y-74906600D02*
X139296904Y-74858980D01*
X139296904Y-74858980D02*
X139344523Y-74763742D01*
X139344523Y-74763742D02*
X139344523Y-74525647D01*
X139344523Y-74525647D02*
X139296904Y-74430409D01*
X139296904Y-74430409D02*
X139249285Y-74382790D01*
X139249285Y-74382790D02*
X139154047Y-74335171D01*
X139154047Y-74335171D02*
X138963571Y-74335171D01*
X138963571Y-74335171D02*
X138868333Y-74382790D01*
X138868333Y-74382790D02*
X138820714Y-74430409D01*
X138820714Y-74430409D02*
X138773095Y-74525647D01*
D10*
X155126905Y-73394819D02*
X155126905Y-72394819D01*
X155126905Y-72394819D02*
X155365000Y-72394819D01*
X155365000Y-72394819D02*
X155507857Y-72442438D01*
X155507857Y-72442438D02*
X155603095Y-72537676D01*
X155603095Y-72537676D02*
X155650714Y-72632914D01*
X155650714Y-72632914D02*
X155698333Y-72823390D01*
X155698333Y-72823390D02*
X155698333Y-72966247D01*
X155698333Y-72966247D02*
X155650714Y-73156723D01*
X155650714Y-73156723D02*
X155603095Y-73251961D01*
X155603095Y-73251961D02*
X155507857Y-73347200D01*
X155507857Y-73347200D02*
X155365000Y-73394819D01*
X155365000Y-73394819D02*
X155126905Y-73394819D01*
X156031667Y-72394819D02*
X156650714Y-72394819D01*
X156650714Y-72394819D02*
X156317381Y-72775771D01*
X156317381Y-72775771D02*
X156460238Y-72775771D01*
X156460238Y-72775771D02*
X156555476Y-72823390D01*
X156555476Y-72823390D02*
X156603095Y-72871009D01*
X156603095Y-72871009D02*
X156650714Y-72966247D01*
X156650714Y-72966247D02*
X156650714Y-73204342D01*
X156650714Y-73204342D02*
X156603095Y-73299580D01*
X156603095Y-73299580D02*
X156555476Y-73347200D01*
X156555476Y-73347200D02*
X156460238Y-73394819D01*
X156460238Y-73394819D02*
X156174524Y-73394819D01*
X156174524Y-73394819D02*
X156079286Y-73347200D01*
X156079286Y-73347200D02*
X156031667Y-73299580D01*
X157231905Y-76444819D02*
X157231905Y-75444819D01*
X157231905Y-75444819D02*
X157470000Y-75444819D01*
X157470000Y-75444819D02*
X157612857Y-75492438D01*
X157612857Y-75492438D02*
X157708095Y-75587676D01*
X157708095Y-75587676D02*
X157755714Y-75682914D01*
X157755714Y-75682914D02*
X157803333Y-75873390D01*
X157803333Y-75873390D02*
X157803333Y-76016247D01*
X157803333Y-76016247D02*
X157755714Y-76206723D01*
X157755714Y-76206723D02*
X157708095Y-76301961D01*
X157708095Y-76301961D02*
X157612857Y-76397200D01*
X157612857Y-76397200D02*
X157470000Y-76444819D01*
X157470000Y-76444819D02*
X157231905Y-76444819D01*
X158755714Y-76444819D02*
X158184286Y-76444819D01*
X158470000Y-76444819D02*
X158470000Y-75444819D01*
X158470000Y-75444819D02*
X158374762Y-75587676D01*
X158374762Y-75587676D02*
X158279524Y-75682914D01*
X158279524Y-75682914D02*
X158184286Y-75730533D01*
X135427142Y-78914819D02*
X135093809Y-78438628D01*
X134855714Y-78914819D02*
X134855714Y-77914819D01*
X134855714Y-77914819D02*
X135236666Y-77914819D01*
X135236666Y-77914819D02*
X135331904Y-77962438D01*
X135331904Y-77962438D02*
X135379523Y-78010057D01*
X135379523Y-78010057D02*
X135427142Y-78105295D01*
X135427142Y-78105295D02*
X135427142Y-78248152D01*
X135427142Y-78248152D02*
X135379523Y-78343390D01*
X135379523Y-78343390D02*
X135331904Y-78391009D01*
X135331904Y-78391009D02*
X135236666Y-78438628D01*
X135236666Y-78438628D02*
X134855714Y-78438628D01*
X136379523Y-78914819D02*
X135808095Y-78914819D01*
X136093809Y-78914819D02*
X136093809Y-77914819D01*
X136093809Y-77914819D02*
X135998571Y-78057676D01*
X135998571Y-78057676D02*
X135903333Y-78152914D01*
X135903333Y-78152914D02*
X135808095Y-78200533D01*
X137331904Y-78914819D02*
X136760476Y-78914819D01*
X137046190Y-78914819D02*
X137046190Y-77914819D01*
X137046190Y-77914819D02*
X136950952Y-78057676D01*
X136950952Y-78057676D02*
X136855714Y-78152914D01*
X136855714Y-78152914D02*
X136760476Y-78200533D01*
X131893333Y-78914819D02*
X131560000Y-78438628D01*
X131321905Y-78914819D02*
X131321905Y-77914819D01*
X131321905Y-77914819D02*
X131702857Y-77914819D01*
X131702857Y-77914819D02*
X131798095Y-77962438D01*
X131798095Y-77962438D02*
X131845714Y-78010057D01*
X131845714Y-78010057D02*
X131893333Y-78105295D01*
X131893333Y-78105295D02*
X131893333Y-78248152D01*
X131893333Y-78248152D02*
X131845714Y-78343390D01*
X131845714Y-78343390D02*
X131798095Y-78391009D01*
X131798095Y-78391009D02*
X131702857Y-78438628D01*
X131702857Y-78438628D02*
X131321905Y-78438628D01*
X132750476Y-78248152D02*
X132750476Y-78914819D01*
X132512381Y-77867200D02*
X132274286Y-78581485D01*
X132274286Y-78581485D02*
X132893333Y-78581485D01*
X123873333Y-83839580D02*
X123825714Y-83887200D01*
X123825714Y-83887200D02*
X123682857Y-83934819D01*
X123682857Y-83934819D02*
X123587619Y-83934819D01*
X123587619Y-83934819D02*
X123444762Y-83887200D01*
X123444762Y-83887200D02*
X123349524Y-83791961D01*
X123349524Y-83791961D02*
X123301905Y-83696723D01*
X123301905Y-83696723D02*
X123254286Y-83506247D01*
X123254286Y-83506247D02*
X123254286Y-83363390D01*
X123254286Y-83363390D02*
X123301905Y-83172914D01*
X123301905Y-83172914D02*
X123349524Y-83077676D01*
X123349524Y-83077676D02*
X123444762Y-82982438D01*
X123444762Y-82982438D02*
X123587619Y-82934819D01*
X123587619Y-82934819D02*
X123682857Y-82934819D01*
X123682857Y-82934819D02*
X123825714Y-82982438D01*
X123825714Y-82982438D02*
X123873333Y-83030057D01*
X124730476Y-83268152D02*
X124730476Y-83934819D01*
X124492381Y-82887200D02*
X124254286Y-83601485D01*
X124254286Y-83601485D02*
X124873333Y-83601485D01*
X123873333Y-86349580D02*
X123825714Y-86397200D01*
X123825714Y-86397200D02*
X123682857Y-86444819D01*
X123682857Y-86444819D02*
X123587619Y-86444819D01*
X123587619Y-86444819D02*
X123444762Y-86397200D01*
X123444762Y-86397200D02*
X123349524Y-86301961D01*
X123349524Y-86301961D02*
X123301905Y-86206723D01*
X123301905Y-86206723D02*
X123254286Y-86016247D01*
X123254286Y-86016247D02*
X123254286Y-85873390D01*
X123254286Y-85873390D02*
X123301905Y-85682914D01*
X123301905Y-85682914D02*
X123349524Y-85587676D01*
X123349524Y-85587676D02*
X123444762Y-85492438D01*
X123444762Y-85492438D02*
X123587619Y-85444819D01*
X123587619Y-85444819D02*
X123682857Y-85444819D01*
X123682857Y-85444819D02*
X123825714Y-85492438D01*
X123825714Y-85492438D02*
X123873333Y-85540057D01*
X124778095Y-85444819D02*
X124301905Y-85444819D01*
X124301905Y-85444819D02*
X124254286Y-85921009D01*
X124254286Y-85921009D02*
X124301905Y-85873390D01*
X124301905Y-85873390D02*
X124397143Y-85825771D01*
X124397143Y-85825771D02*
X124635238Y-85825771D01*
X124635238Y-85825771D02*
X124730476Y-85873390D01*
X124730476Y-85873390D02*
X124778095Y-85921009D01*
X124778095Y-85921009D02*
X124825714Y-86016247D01*
X124825714Y-86016247D02*
X124825714Y-86254342D01*
X124825714Y-86254342D02*
X124778095Y-86349580D01*
X124778095Y-86349580D02*
X124730476Y-86397200D01*
X124730476Y-86397200D02*
X124635238Y-86444819D01*
X124635238Y-86444819D02*
X124397143Y-86444819D01*
X124397143Y-86444819D02*
X124301905Y-86397200D01*
X124301905Y-86397200D02*
X124254286Y-86349580D01*
D13*
%TO.C,C10*%
X140284420Y-84090000D02*
X140565580Y-84090000D01*
X140284420Y-85110000D02*
X140565580Y-85110000D01*
%TO.C,C11*%
X127909420Y-84400000D02*
X128190580Y-84400000D01*
X127909420Y-85420000D02*
X128190580Y-85420000D01*
%TO.C,R13*%
X135832742Y-84387500D02*
X136307258Y-84387500D01*
X135832742Y-85432500D02*
X136307258Y-85432500D01*
%TO.C,J1*%
X149445000Y-62960000D02*
X151245000Y-62960000D01*
X149445000Y-64410000D02*
X149445000Y-62960000D01*
X150715000Y-67230000D02*
X156645000Y-67230000D01*
X151245000Y-62960000D02*
X151245000Y-61970000D01*
X157915000Y-62960000D02*
X156115000Y-62960000D01*
X157915000Y-64410000D02*
X157915000Y-62960000D01*
%TO.C,C12*%
X127909420Y-86910000D02*
X128190580Y-86910000D01*
X127909420Y-87930000D02*
X128190580Y-87930000D01*
%TO.C,R5*%
X131822742Y-81877500D02*
X132297258Y-81877500D01*
X131822742Y-82922500D02*
X132297258Y-82922500D01*
%TO.C,R6*%
X131822742Y-84387500D02*
X132297258Y-84387500D01*
X131822742Y-85432500D02*
X132297258Y-85432500D01*
%TO.C,C2*%
X123899420Y-79380000D02*
X124180580Y-79380000D01*
X123899420Y-80400000D02*
X124180580Y-80400000D01*
%TO.C,R7*%
X131822742Y-86897500D02*
X132297258Y-86897500D01*
X131822742Y-87942500D02*
X132297258Y-87942500D01*
D14*
%TO.C,IC1*%
X142900000Y-78600000D02*
G75*
G02*
X142700000Y-78600000I-100000J0D01*
G01*
X142700000Y-78600000D02*
G75*
G02*
X142900000Y-78600000I100000J0D01*
G01*
D13*
%TO.C,R12*%
X135832742Y-81877500D02*
X136307258Y-81877500D01*
X135832742Y-82922500D02*
X136307258Y-82922500D01*
%TO.C,D2*%
X156485000Y-79275000D02*
X156485000Y-80745000D01*
X156485000Y-80745000D02*
X158770000Y-80745000D01*
X158770000Y-79275000D02*
X156485000Y-79275000D01*
%TO.C,J2*%
X139090000Y-95040000D02*
X140890000Y-95040000D01*
X139090000Y-96490000D02*
X139090000Y-95040000D01*
X140360000Y-99310000D02*
X150040000Y-99310000D01*
X140890000Y-95040000D02*
X140890000Y-94050000D01*
X151310000Y-95040000D02*
X149510000Y-95040000D01*
X151310000Y-96490000D02*
X151310000Y-95040000D01*
%TO.C,R8*%
X131822742Y-89407500D02*
X132297258Y-89407500D01*
X131822742Y-90452500D02*
X132297258Y-90452500D01*
%TO.C,R9*%
X131822742Y-91917500D02*
X132297258Y-91917500D01*
X131822742Y-92962500D02*
X132297258Y-92962500D01*
%TO.C,R3*%
X131822742Y-76857500D02*
X132297258Y-76857500D01*
X131822742Y-77902500D02*
X132297258Y-77902500D01*
%TO.C,J3*%
X96390000Y-73140000D02*
X98490000Y-73140000D01*
X96390000Y-83260000D02*
X96390000Y-73140000D01*
X96390000Y-83260000D02*
X98490000Y-83260000D01*
X98490000Y-73140000D02*
X98490000Y-72550000D01*
X98490000Y-83850000D02*
X98490000Y-83260000D01*
X100710000Y-73140000D02*
X100710000Y-72550000D01*
X100710000Y-73140000D02*
X105610000Y-73140000D01*
X100710000Y-83260000D02*
X105610000Y-83260000D01*
X100710000Y-83850000D02*
X100710000Y-83260000D01*
X105610000Y-83260000D02*
X105610000Y-73140000D01*
X98490000Y-72550000D02*
G75*
G02*
X100710000Y-72550000I1110000J0D01*
G01*
X100710000Y-83850000D02*
G75*
G02*
X98490000Y-83850000I-1110000J0D01*
G01*
%TO.C,C6*%
X123899420Y-89420000D02*
X124180580Y-89420000D01*
X123899420Y-90440000D02*
X124180580Y-90440000D01*
%TO.C,C9*%
X127909420Y-79380000D02*
X128190580Y-79380000D01*
X127909420Y-80400000D02*
X128190580Y-80400000D01*
%TO.C,R_SENSE1*%
X150512936Y-69130000D02*
X151967064Y-69130000D01*
X150512936Y-70950000D02*
X151967064Y-70950000D01*
%TO.C,C8*%
X127909420Y-76870000D02*
X128190580Y-76870000D01*
X127909420Y-77890000D02*
X128190580Y-77890000D01*
%TO.C,R14*%
X135832742Y-86897500D02*
X136307258Y-86897500D01*
X135832742Y-87942500D02*
X136307258Y-87942500D01*
%TO.C,C7*%
X123899420Y-91930000D02*
X124180580Y-91930000D01*
X123899420Y-92950000D02*
X124180580Y-92950000D01*
%TO.C,D4*%
X156485000Y-81865000D02*
X156485000Y-83335000D01*
X156485000Y-83335000D02*
X158770000Y-83335000D01*
X158770000Y-81865000D02*
X156485000Y-81865000D01*
%TO.C,C1*%
X123899420Y-76870000D02*
X124180580Y-76870000D01*
X123899420Y-77890000D02*
X124180580Y-77890000D01*
%TO.C,R10*%
X135832742Y-76857500D02*
X136307258Y-76857500D01*
X135832742Y-77902500D02*
X136307258Y-77902500D01*
%TO.C,C3*%
X123899420Y-81890000D02*
X124180580Y-81890000D01*
X123899420Y-82910000D02*
X124180580Y-82910000D01*
%TO.C,R1*%
X127812742Y-89407500D02*
X128287258Y-89407500D01*
X127812742Y-90452500D02*
X128287258Y-90452500D01*
%TO.C,U1*%
X156620000Y-69235000D02*
X155820000Y-69235000D01*
X156620000Y-69235000D02*
X157420000Y-69235000D01*
X156620000Y-72355000D02*
X155820000Y-72355000D01*
X156620000Y-72355000D02*
X157420000Y-72355000D01*
X155320000Y-69285000D02*
X155080000Y-68955000D01*
X155560000Y-68955000D01*
X155320000Y-69285000D01*
G36*
X155320000Y-69285000D02*
G01*
X155080000Y-68955000D01*
X155560000Y-68955000D01*
X155320000Y-69285000D01*
G37*
%TO.C,D5*%
X156485000Y-84455000D02*
X156485000Y-85925000D01*
X156485000Y-85925000D02*
X158770000Y-85925000D01*
X158770000Y-84455000D02*
X156485000Y-84455000D01*
%TO.C,C8*%
X139565580Y-81690000D02*
X139284420Y-81690000D01*
X139565580Y-82710000D02*
X139284420Y-82710000D01*
%TO.C,R15*%
X135832742Y-89407500D02*
X136307258Y-89407500D01*
X135832742Y-90452500D02*
X136307258Y-90452500D01*
%TO.C,R2*%
X127812742Y-91917500D02*
X128287258Y-91917500D01*
X127812742Y-92962500D02*
X128287258Y-92962500D01*
%TO.C,D3*%
X154605000Y-73640000D02*
X154605000Y-74840000D01*
X156565000Y-73640000D02*
X154605000Y-73640000D01*
X156565000Y-74840000D02*
X154605000Y-74840000D01*
%TO.C,D1*%
X156485000Y-76685000D02*
X156485000Y-78155000D01*
X156485000Y-78155000D02*
X158770000Y-78155000D01*
X158770000Y-76685000D02*
X156485000Y-76685000D01*
%TO.C,R11*%
X135832742Y-79367500D02*
X136307258Y-79367500D01*
X135832742Y-80412500D02*
X136307258Y-80412500D01*
%TO.C,R4*%
X131822742Y-79367500D02*
X132297258Y-79367500D01*
X131822742Y-80412500D02*
X132297258Y-80412500D01*
%TO.C,C4*%
X123899420Y-84400000D02*
X124180580Y-84400000D01*
X123899420Y-85420000D02*
X124180580Y-85420000D01*
%TO.C,C5*%
X123899420Y-86910000D02*
X124180580Y-86910000D01*
X123899420Y-87930000D02*
X124180580Y-87930000D01*
%TD*%
M02*
