%TF.GenerationSoftware,KiCad,Pcbnew,8.0.3+1*%
%TF.CreationDate,2024-07-17T01:18:26+00:00*%
%TF.ProjectId,TFESC02,54464553-4330-4322-9e6b-696361645f70,01A*%
%TF.SameCoordinates,Original*%
%TF.FileFunction,Legend,Bot*%
%TF.FilePolarity,Positive*%
%FSLAX46Y46*%
G04 Gerber Fmt 4.6, Leading zero omitted, Abs format (unit mm)*
G04 Created by KiCad (PCBNEW 8.0.3+1) date 2024-07-17 01:18:26*
%MOMM*%
%LPD*%
G01*
G04 APERTURE LIST*
%ADD10C,0.000000*%
%ADD11C,0.100000*%
%ADD12C,0.400000*%
%ADD13C,0.240000*%
%ADD14C,0.150000*%
%ADD15C,0.120000*%
G04 APERTURE END LIST*
D10*
G36*
X164803636Y-110042273D02*
G01*
X164486363Y-110042273D01*
X164486363Y-109725000D01*
X164803636Y-109725000D01*
X164803636Y-110042273D01*
G37*
G36*
X159410000Y-106235001D02*
G01*
X159092727Y-106235001D01*
X159092727Y-105917728D01*
X159410000Y-105917728D01*
X159410000Y-106235001D01*
G37*
G36*
X165438181Y-111311364D02*
G01*
X165120909Y-111311364D01*
X165120909Y-110994091D01*
X165438181Y-110994091D01*
X165438181Y-111311364D01*
G37*
G36*
X165755454Y-107186819D02*
G01*
X165438181Y-107186819D01*
X165438181Y-106869546D01*
X165755454Y-106869546D01*
X165755454Y-107186819D01*
G37*
G36*
X162900000Y-113532273D02*
G01*
X162582727Y-113532273D01*
X162582727Y-113215000D01*
X162900000Y-113215000D01*
X162900000Y-113532273D01*
G37*
G36*
X163217273Y-109407728D02*
G01*
X162900000Y-109407728D01*
X162900000Y-109090455D01*
X163217273Y-109090455D01*
X163217273Y-109407728D01*
G37*
G36*
X162582727Y-112580455D02*
G01*
X162265454Y-112580455D01*
X162265454Y-112263182D01*
X162582727Y-112263182D01*
X162582727Y-112580455D01*
G37*
G36*
X161948182Y-107504091D02*
G01*
X161630909Y-107504091D01*
X161630909Y-107186819D01*
X161948182Y-107186819D01*
X161948182Y-107504091D01*
G37*
G36*
X160361818Y-111945909D02*
G01*
X160044545Y-111945909D01*
X160044545Y-111628637D01*
X160361818Y-111628637D01*
X160361818Y-111945909D01*
G37*
G36*
X160679091Y-106235001D02*
G01*
X160361818Y-106235001D01*
X160361818Y-105917728D01*
X160679091Y-105917728D01*
X160679091Y-106235001D01*
G37*
G36*
X162582727Y-107504091D02*
G01*
X162265454Y-107504091D01*
X162265454Y-107186819D01*
X162582727Y-107186819D01*
X162582727Y-107504091D01*
G37*
G36*
X163217273Y-107504091D02*
G01*
X162900000Y-107504091D01*
X162900000Y-107186819D01*
X163217273Y-107186819D01*
X163217273Y-107504091D01*
G37*
G36*
X164169091Y-110042273D02*
G01*
X163851818Y-110042273D01*
X163851818Y-109725000D01*
X164169091Y-109725000D01*
X164169091Y-110042273D01*
G37*
G36*
X165438181Y-110042273D02*
G01*
X165120909Y-110042273D01*
X165120909Y-109725000D01*
X165438181Y-109725000D01*
X165438181Y-110042273D01*
G37*
G36*
X163534545Y-107821364D02*
G01*
X163217273Y-107821364D01*
X163217273Y-107504091D01*
X163534545Y-107504091D01*
X163534545Y-107821364D01*
G37*
G36*
X158775455Y-108138637D02*
G01*
X158458182Y-108138637D01*
X158458182Y-107821364D01*
X158775455Y-107821364D01*
X158775455Y-108138637D01*
G37*
G36*
X165120909Y-112263182D02*
G01*
X164803636Y-112263182D01*
X164803636Y-111945909D01*
X165120909Y-111945909D01*
X165120909Y-112263182D01*
G37*
G36*
X161630909Y-110676819D02*
G01*
X161313636Y-110676819D01*
X161313636Y-110359546D01*
X161630909Y-110359546D01*
X161630909Y-110676819D01*
G37*
G36*
X158775455Y-113215000D02*
G01*
X158458182Y-113215000D01*
X158458182Y-112897727D01*
X158775455Y-112897727D01*
X158775455Y-113215000D01*
G37*
G36*
X164486363Y-110042273D02*
G01*
X164169091Y-110042273D01*
X164169091Y-109725000D01*
X164486363Y-109725000D01*
X164486363Y-110042273D01*
G37*
G36*
X165120909Y-106235001D02*
G01*
X164803636Y-106235001D01*
X164803636Y-105917728D01*
X165120909Y-105917728D01*
X165120909Y-106235001D01*
G37*
G36*
X164169091Y-111311364D02*
G01*
X163851818Y-111311364D01*
X163851818Y-110994091D01*
X164169091Y-110994091D01*
X164169091Y-111311364D01*
G37*
G36*
X160996364Y-111311364D02*
G01*
X160679091Y-111311364D01*
X160679091Y-110994091D01*
X160996364Y-110994091D01*
X160996364Y-111311364D01*
G37*
G36*
X166389999Y-107821364D02*
G01*
X166072727Y-107821364D01*
X166072727Y-107504091D01*
X166389999Y-107504091D01*
X166389999Y-107821364D01*
G37*
G36*
X158775455Y-107186819D02*
G01*
X158458182Y-107186819D01*
X158458182Y-106869546D01*
X158775455Y-106869546D01*
X158775455Y-107186819D01*
G37*
G36*
X166389999Y-109090455D02*
G01*
X166072727Y-109090455D01*
X166072727Y-108773182D01*
X166389999Y-108773182D01*
X166389999Y-109090455D01*
G37*
G36*
X161948182Y-112580455D02*
G01*
X161630909Y-112580455D01*
X161630909Y-112263182D01*
X161948182Y-112263182D01*
X161948182Y-112580455D01*
G37*
G36*
X158775455Y-112580455D02*
G01*
X158458182Y-112580455D01*
X158458182Y-112263182D01*
X158775455Y-112263182D01*
X158775455Y-112580455D01*
G37*
G36*
X159727273Y-110676819D02*
G01*
X159410000Y-110676819D01*
X159410000Y-110359546D01*
X159727273Y-110359546D01*
X159727273Y-110676819D01*
G37*
G36*
X166072727Y-113849545D02*
G01*
X165755454Y-113849545D01*
X165755454Y-113532273D01*
X166072727Y-113532273D01*
X166072727Y-113849545D01*
G37*
G36*
X163534545Y-111945909D02*
G01*
X163217273Y-111945909D01*
X163217273Y-111628637D01*
X163534545Y-111628637D01*
X163534545Y-111945909D01*
G37*
G36*
X160044545Y-110676819D02*
G01*
X159727273Y-110676819D01*
X159727273Y-110359546D01*
X160044545Y-110359546D01*
X160044545Y-110676819D01*
G37*
G36*
X165438181Y-110359546D02*
G01*
X165120909Y-110359546D01*
X165120909Y-110042273D01*
X165438181Y-110042273D01*
X165438181Y-110359546D01*
G37*
G36*
X158775455Y-111945909D02*
G01*
X158458182Y-111945909D01*
X158458182Y-111628637D01*
X158775455Y-111628637D01*
X158775455Y-111945909D01*
G37*
G36*
X162582727Y-109090455D02*
G01*
X162265454Y-109090455D01*
X162265454Y-108773182D01*
X162582727Y-108773182D01*
X162582727Y-109090455D01*
G37*
G36*
X166072727Y-109407728D02*
G01*
X165755454Y-109407728D01*
X165755454Y-109090455D01*
X166072727Y-109090455D01*
X166072727Y-109407728D01*
G37*
D11*
X167325000Y-147275000D02*
X155325000Y-147275000D01*
D10*
G36*
X165438181Y-112263182D02*
G01*
X165120909Y-112263182D01*
X165120909Y-111945909D01*
X165438181Y-111945909D01*
X165438181Y-112263182D01*
G37*
G36*
X161948182Y-111311364D02*
G01*
X161630909Y-111311364D01*
X161630909Y-110994091D01*
X161948182Y-110994091D01*
X161948182Y-111311364D01*
G37*
G36*
X160044545Y-113849545D02*
G01*
X159727273Y-113849545D01*
X159727273Y-113532273D01*
X160044545Y-113532273D01*
X160044545Y-113849545D01*
G37*
G36*
X164169091Y-109725000D02*
G01*
X163851818Y-109725000D01*
X163851818Y-109407728D01*
X164169091Y-109407728D01*
X164169091Y-109725000D01*
G37*
G36*
X160679091Y-110042273D02*
G01*
X160361818Y-110042273D01*
X160361818Y-109725000D01*
X160679091Y-109725000D01*
X160679091Y-110042273D01*
G37*
G36*
X162265454Y-109725000D02*
G01*
X161948182Y-109725000D01*
X161948182Y-109407728D01*
X162265454Y-109407728D01*
X162265454Y-109725000D01*
G37*
G36*
X161630909Y-109090455D02*
G01*
X161313636Y-109090455D01*
X161313636Y-108773182D01*
X161630909Y-108773182D01*
X161630909Y-109090455D01*
G37*
G36*
X160361818Y-106235001D02*
G01*
X160044545Y-106235001D01*
X160044545Y-105917728D01*
X160361818Y-105917728D01*
X160361818Y-106235001D01*
G37*
G36*
X159727273Y-113215000D02*
G01*
X159410000Y-113215000D01*
X159410000Y-112897727D01*
X159727273Y-112897727D01*
X159727273Y-113215000D01*
G37*
G36*
X166072727Y-112263182D02*
G01*
X165755454Y-112263182D01*
X165755454Y-111945909D01*
X166072727Y-111945909D01*
X166072727Y-112263182D01*
G37*
G36*
X160044545Y-108773182D02*
G01*
X159727273Y-108773182D01*
X159727273Y-108455910D01*
X160044545Y-108455910D01*
X160044545Y-108773182D01*
G37*
G36*
X164169091Y-109090455D02*
G01*
X163851818Y-109090455D01*
X163851818Y-108773182D01*
X164169091Y-108773182D01*
X164169091Y-109090455D01*
G37*
G36*
X165755454Y-112897727D02*
G01*
X165438181Y-112897727D01*
X165438181Y-112580455D01*
X165755454Y-112580455D01*
X165755454Y-112897727D01*
G37*
G36*
X161630909Y-107186819D02*
G01*
X161313636Y-107186819D01*
X161313636Y-106869546D01*
X161630909Y-106869546D01*
X161630909Y-107186819D01*
G37*
G36*
X165120909Y-111311364D02*
G01*
X164803636Y-111311364D01*
X164803636Y-110994091D01*
X165120909Y-110994091D01*
X165120909Y-111311364D01*
G37*
G36*
X159092727Y-108773182D02*
G01*
X158775455Y-108773182D01*
X158775455Y-108455910D01*
X159092727Y-108455910D01*
X159092727Y-108773182D01*
G37*
G36*
X161313636Y-113849545D02*
G01*
X160996364Y-113849545D01*
X160996364Y-113532273D01*
X161313636Y-113532273D01*
X161313636Y-113849545D01*
G37*
G36*
X159410000Y-108138637D02*
G01*
X159092727Y-108138637D01*
X159092727Y-107821364D01*
X159410000Y-107821364D01*
X159410000Y-108138637D01*
G37*
G36*
X166389999Y-106869546D02*
G01*
X166072727Y-106869546D01*
X166072727Y-106552273D01*
X166389999Y-106552273D01*
X166389999Y-106869546D01*
G37*
G36*
X160679091Y-113215000D02*
G01*
X160361818Y-113215000D01*
X160361818Y-112897727D01*
X160679091Y-112897727D01*
X160679091Y-113215000D01*
G37*
G36*
X161630909Y-113532273D02*
G01*
X161313636Y-113532273D01*
X161313636Y-113215000D01*
X161630909Y-113215000D01*
X161630909Y-113532273D01*
G37*
G36*
X163217273Y-111311364D02*
G01*
X162900000Y-111311364D01*
X162900000Y-110994091D01*
X163217273Y-110994091D01*
X163217273Y-111311364D01*
G37*
G36*
X165438181Y-111945909D02*
G01*
X165120909Y-111945909D01*
X165120909Y-111628637D01*
X165438181Y-111628637D01*
X165438181Y-111945909D01*
G37*
G36*
X160996364Y-110676819D02*
G01*
X160679091Y-110676819D01*
X160679091Y-110359546D01*
X160996364Y-110359546D01*
X160996364Y-110676819D01*
G37*
G36*
X166389999Y-108138637D02*
G01*
X166072727Y-108138637D01*
X166072727Y-107821364D01*
X166389999Y-107821364D01*
X166389999Y-108138637D01*
G37*
G36*
X164486363Y-107821364D02*
G01*
X164169091Y-107821364D01*
X164169091Y-107504091D01*
X164486363Y-107504091D01*
X164486363Y-107821364D01*
G37*
G36*
X166389999Y-110042273D02*
G01*
X166072727Y-110042273D01*
X166072727Y-109725000D01*
X166389999Y-109725000D01*
X166389999Y-110042273D01*
G37*
G36*
X159727273Y-108138637D02*
G01*
X159410000Y-108138637D01*
X159410000Y-107821364D01*
X159727273Y-107821364D01*
X159727273Y-108138637D01*
G37*
G36*
X159727273Y-113849545D02*
G01*
X159410000Y-113849545D01*
X159410000Y-113532273D01*
X159727273Y-113532273D01*
X159727273Y-113849545D01*
G37*
G36*
X163217273Y-112263182D02*
G01*
X162900000Y-112263182D01*
X162900000Y-111945909D01*
X163217273Y-111945909D01*
X163217273Y-112263182D01*
G37*
G36*
X165438181Y-106235001D02*
G01*
X165120909Y-106235001D01*
X165120909Y-105917728D01*
X165438181Y-105917728D01*
X165438181Y-106235001D01*
G37*
G36*
X163851818Y-110994091D02*
G01*
X163534545Y-110994091D01*
X163534545Y-110676819D01*
X163851818Y-110676819D01*
X163851818Y-110994091D01*
G37*
G36*
X163217273Y-110676819D02*
G01*
X162900000Y-110676819D01*
X162900000Y-110359546D01*
X163217273Y-110359546D01*
X163217273Y-110676819D01*
G37*
G36*
X159410000Y-113215000D02*
G01*
X159092727Y-113215000D01*
X159092727Y-112897727D01*
X159410000Y-112897727D01*
X159410000Y-113215000D01*
G37*
G36*
X164803636Y-108138637D02*
G01*
X164486363Y-108138637D01*
X164486363Y-107821364D01*
X164803636Y-107821364D01*
X164803636Y-108138637D01*
G37*
G36*
X166389999Y-113849545D02*
G01*
X166072727Y-113849545D01*
X166072727Y-113532273D01*
X166389999Y-113532273D01*
X166389999Y-113849545D01*
G37*
G36*
X160679091Y-106869546D02*
G01*
X160361818Y-106869546D01*
X160361818Y-106552273D01*
X160679091Y-106552273D01*
X160679091Y-106869546D01*
G37*
G36*
X166389999Y-109407728D02*
G01*
X166072727Y-109407728D01*
X166072727Y-109090455D01*
X166389999Y-109090455D01*
X166389999Y-109407728D01*
G37*
G36*
X162265454Y-107186819D02*
G01*
X161948182Y-107186819D01*
X161948182Y-106869546D01*
X162265454Y-106869546D01*
X162265454Y-107186819D01*
G37*
G36*
X160996364Y-109725000D02*
G01*
X160679091Y-109725000D01*
X160679091Y-109407728D01*
X160996364Y-109407728D01*
X160996364Y-109725000D01*
G37*
G36*
X158775455Y-112897727D02*
G01*
X158458182Y-112897727D01*
X158458182Y-112580455D01*
X158775455Y-112580455D01*
X158775455Y-112897727D01*
G37*
G36*
X161630909Y-110994091D02*
G01*
X161313636Y-110994091D01*
X161313636Y-110676819D01*
X161630909Y-110676819D01*
X161630909Y-110994091D01*
G37*
G36*
X160044545Y-111311364D02*
G01*
X159727273Y-111311364D01*
X159727273Y-110994091D01*
X160044545Y-110994091D01*
X160044545Y-111311364D01*
G37*
G36*
X166389999Y-111628637D02*
G01*
X166072727Y-111628637D01*
X166072727Y-111311364D01*
X166389999Y-111311364D01*
X166389999Y-111628637D01*
G37*
G36*
X166072727Y-110676819D02*
G01*
X165755454Y-110676819D01*
X165755454Y-110359546D01*
X166072727Y-110359546D01*
X166072727Y-110676819D01*
G37*
G36*
X165120909Y-111945909D02*
G01*
X164803636Y-111945909D01*
X164803636Y-111628637D01*
X165120909Y-111628637D01*
X165120909Y-111945909D01*
G37*
G36*
X163534545Y-113532273D02*
G01*
X163217273Y-113532273D01*
X163217273Y-113215000D01*
X163534545Y-113215000D01*
X163534545Y-113532273D01*
G37*
G36*
X159092727Y-109407728D02*
G01*
X158775455Y-109407728D01*
X158775455Y-109090455D01*
X159092727Y-109090455D01*
X159092727Y-109407728D01*
G37*
G36*
X165438181Y-112897727D02*
G01*
X165120909Y-112897727D01*
X165120909Y-112580455D01*
X165438181Y-112580455D01*
X165438181Y-112897727D01*
G37*
G36*
X160679091Y-110676819D02*
G01*
X160361818Y-110676819D01*
X160361818Y-110359546D01*
X160679091Y-110359546D01*
X160679091Y-110676819D01*
G37*
G36*
X162582727Y-113849545D02*
G01*
X162265454Y-113849545D01*
X162265454Y-113532273D01*
X162582727Y-113532273D01*
X162582727Y-113849545D01*
G37*
D11*
X164950000Y-129700000D02*
X164975000Y-136075000D01*
D10*
G36*
X161948182Y-106869546D02*
G01*
X161630909Y-106869546D01*
X161630909Y-106552273D01*
X161948182Y-106552273D01*
X161948182Y-106869546D01*
G37*
G36*
X159727273Y-110359546D02*
G01*
X159410000Y-110359546D01*
X159410000Y-110042273D01*
X159727273Y-110042273D01*
X159727273Y-110359546D01*
G37*
G36*
X160044545Y-113215000D02*
G01*
X159727273Y-113215000D01*
X159727273Y-112897727D01*
X160044545Y-112897727D01*
X160044545Y-113215000D01*
G37*
G36*
X160361818Y-110359546D02*
G01*
X160044545Y-110359546D01*
X160044545Y-110042273D01*
X160361818Y-110042273D01*
X160361818Y-110359546D01*
G37*
G36*
X165755454Y-106235001D02*
G01*
X165438181Y-106235001D01*
X165438181Y-105917728D01*
X165755454Y-105917728D01*
X165755454Y-106235001D01*
G37*
G36*
X163851818Y-112580455D02*
G01*
X163534545Y-112580455D01*
X163534545Y-112263182D01*
X163851818Y-112263182D01*
X163851818Y-112580455D01*
G37*
G36*
X162582727Y-108455910D02*
G01*
X162265454Y-108455910D01*
X162265454Y-108138637D01*
X162582727Y-108138637D01*
X162582727Y-108455910D01*
G37*
G36*
X160996364Y-110359546D02*
G01*
X160679091Y-110359546D01*
X160679091Y-110042273D01*
X160996364Y-110042273D01*
X160996364Y-110359546D01*
G37*
G36*
X163851818Y-110359546D02*
G01*
X163534545Y-110359546D01*
X163534545Y-110042273D01*
X163851818Y-110042273D01*
X163851818Y-110359546D01*
G37*
G36*
X159727273Y-112580455D02*
G01*
X159410000Y-112580455D01*
X159410000Y-112263182D01*
X159727273Y-112263182D01*
X159727273Y-112580455D01*
G37*
G36*
X161313636Y-108773182D02*
G01*
X160996364Y-108773182D01*
X160996364Y-108455910D01*
X161313636Y-108455910D01*
X161313636Y-108773182D01*
G37*
G36*
X162582727Y-111628637D02*
G01*
X162265454Y-111628637D01*
X162265454Y-111311364D01*
X162582727Y-111311364D01*
X162582727Y-111628637D01*
G37*
G36*
X162900000Y-106552273D02*
G01*
X162582727Y-106552273D01*
X162582727Y-106235001D01*
X162900000Y-106235001D01*
X162900000Y-106552273D01*
G37*
G36*
X163217273Y-112897727D02*
G01*
X162900000Y-112897727D01*
X162900000Y-112580455D01*
X163217273Y-112580455D01*
X163217273Y-112897727D01*
G37*
G36*
X164169091Y-108773182D02*
G01*
X163851818Y-108773182D01*
X163851818Y-108455910D01*
X164169091Y-108455910D01*
X164169091Y-108773182D01*
G37*
G36*
X159727273Y-107504091D02*
G01*
X159410000Y-107504091D01*
X159410000Y-107186819D01*
X159727273Y-107186819D01*
X159727273Y-107504091D01*
G37*
G36*
X160679091Y-109407728D02*
G01*
X160361818Y-109407728D01*
X160361818Y-109090455D01*
X160679091Y-109090455D01*
X160679091Y-109407728D01*
G37*
G36*
X165755454Y-110676819D02*
G01*
X165438181Y-110676819D01*
X165438181Y-110359546D01*
X165755454Y-110359546D01*
X165755454Y-110676819D01*
G37*
G36*
X166072727Y-108138637D02*
G01*
X165755454Y-108138637D01*
X165755454Y-107821364D01*
X166072727Y-107821364D01*
X166072727Y-108138637D01*
G37*
G36*
X163851818Y-113532273D02*
G01*
X163534545Y-113532273D01*
X163534545Y-113215000D01*
X163851818Y-113215000D01*
X163851818Y-113532273D01*
G37*
G36*
X160361818Y-109407728D02*
G01*
X160044545Y-109407728D01*
X160044545Y-109090455D01*
X160361818Y-109090455D01*
X160361818Y-109407728D01*
G37*
G36*
X160361818Y-110994091D02*
G01*
X160044545Y-110994091D01*
X160044545Y-110676819D01*
X160361818Y-110676819D01*
X160361818Y-110994091D01*
G37*
G36*
X163534545Y-111628637D02*
G01*
X163217273Y-111628637D01*
X163217273Y-111311364D01*
X163534545Y-111311364D01*
X163534545Y-111628637D01*
G37*
G36*
X160044545Y-112897727D02*
G01*
X159727273Y-112897727D01*
X159727273Y-112580455D01*
X160044545Y-112580455D01*
X160044545Y-112897727D01*
G37*
G36*
X165755454Y-108773182D02*
G01*
X165438181Y-108773182D01*
X165438181Y-108455910D01*
X165755454Y-108455910D01*
X165755454Y-108773182D01*
G37*
G36*
X164803636Y-113849545D02*
G01*
X164486363Y-113849545D01*
X164486363Y-113532273D01*
X164803636Y-113532273D01*
X164803636Y-113849545D01*
G37*
G36*
X160044545Y-107504091D02*
G01*
X159727273Y-107504091D01*
X159727273Y-107186819D01*
X160044545Y-107186819D01*
X160044545Y-107504091D01*
G37*
G36*
X158775455Y-106235001D02*
G01*
X158458182Y-106235001D01*
X158458182Y-105917728D01*
X158775455Y-105917728D01*
X158775455Y-106235001D01*
G37*
G36*
X162900000Y-108455910D02*
G01*
X162582727Y-108455910D01*
X162582727Y-108138637D01*
X162900000Y-108138637D01*
X162900000Y-108455910D01*
G37*
G36*
X163217273Y-109725000D02*
G01*
X162900000Y-109725000D01*
X162900000Y-109407728D01*
X163217273Y-109407728D01*
X163217273Y-109725000D01*
G37*
G36*
X165120909Y-107186819D02*
G01*
X164803636Y-107186819D01*
X164803636Y-106869546D01*
X165120909Y-106869546D01*
X165120909Y-107186819D01*
G37*
G36*
X162900000Y-107504091D02*
G01*
X162582727Y-107504091D01*
X162582727Y-107186819D01*
X162900000Y-107186819D01*
X162900000Y-107504091D01*
G37*
G36*
X163851818Y-108138637D02*
G01*
X163534545Y-108138637D01*
X163534545Y-107821364D01*
X163851818Y-107821364D01*
X163851818Y-108138637D01*
G37*
G36*
X164486363Y-107504091D02*
G01*
X164169091Y-107504091D01*
X164169091Y-107186819D01*
X164486363Y-107186819D01*
X164486363Y-107504091D01*
G37*
G36*
X163851818Y-112263182D02*
G01*
X163534545Y-112263182D01*
X163534545Y-111945909D01*
X163851818Y-111945909D01*
X163851818Y-112263182D01*
G37*
G36*
X162265454Y-107504091D02*
G01*
X161948182Y-107504091D01*
X161948182Y-107186819D01*
X162265454Y-107186819D01*
X162265454Y-107504091D01*
G37*
G36*
X163217273Y-108138637D02*
G01*
X162900000Y-108138637D01*
X162900000Y-107821364D01*
X163217273Y-107821364D01*
X163217273Y-108138637D01*
G37*
G36*
X163217273Y-113215000D02*
G01*
X162900000Y-113215000D01*
X162900000Y-112897727D01*
X163217273Y-112897727D01*
X163217273Y-113215000D01*
G37*
G36*
X161313636Y-113215000D02*
G01*
X160996364Y-113215000D01*
X160996364Y-112897727D01*
X161313636Y-112897727D01*
X161313636Y-113215000D01*
G37*
G36*
X166072727Y-111628637D02*
G01*
X165755454Y-111628637D01*
X165755454Y-111311364D01*
X166072727Y-111311364D01*
X166072727Y-111628637D01*
G37*
G36*
X165755454Y-106869546D02*
G01*
X165438181Y-106869546D01*
X165438181Y-106552273D01*
X165755454Y-106552273D01*
X165755454Y-106869546D01*
G37*
G36*
X165120909Y-111628637D02*
G01*
X164803636Y-111628637D01*
X164803636Y-111311364D01*
X165120909Y-111311364D01*
X165120909Y-111628637D01*
G37*
G36*
X163851818Y-111945909D02*
G01*
X163534545Y-111945909D01*
X163534545Y-111628637D01*
X163851818Y-111628637D01*
X163851818Y-111945909D01*
G37*
G36*
X159092727Y-113849545D02*
G01*
X158775455Y-113849545D01*
X158775455Y-113532273D01*
X159092727Y-113532273D01*
X159092727Y-113849545D01*
G37*
G36*
X164486363Y-110676819D02*
G01*
X164169091Y-110676819D01*
X164169091Y-110359546D01*
X164486363Y-110359546D01*
X164486363Y-110676819D01*
G37*
G36*
X163534545Y-106235001D02*
G01*
X163217273Y-106235001D01*
X163217273Y-105917728D01*
X163534545Y-105917728D01*
X163534545Y-106235001D01*
G37*
G36*
X165438181Y-108138637D02*
G01*
X165120909Y-108138637D01*
X165120909Y-107821364D01*
X165438181Y-107821364D01*
X165438181Y-108138637D01*
G37*
G36*
X159727273Y-112897727D02*
G01*
X159410000Y-112897727D01*
X159410000Y-112580455D01*
X159727273Y-112580455D01*
X159727273Y-112897727D01*
G37*
G36*
X162582727Y-110042273D02*
G01*
X162265454Y-110042273D01*
X162265454Y-109725000D01*
X162582727Y-109725000D01*
X162582727Y-110042273D01*
G37*
G36*
X162265454Y-110676819D02*
G01*
X161948182Y-110676819D01*
X161948182Y-110359546D01*
X162265454Y-110359546D01*
X162265454Y-110676819D01*
G37*
G36*
X164803636Y-110676819D02*
G01*
X164486363Y-110676819D01*
X164486363Y-110359546D01*
X164803636Y-110359546D01*
X164803636Y-110676819D01*
G37*
G36*
X158775455Y-111311364D02*
G01*
X158458182Y-111311364D01*
X158458182Y-110994091D01*
X158775455Y-110994091D01*
X158775455Y-111311364D01*
G37*
G36*
X158775455Y-107504091D02*
G01*
X158458182Y-107504091D01*
X158458182Y-107186819D01*
X158775455Y-107186819D01*
X158775455Y-107504091D01*
G37*
G36*
X162900000Y-106235001D02*
G01*
X162582727Y-106235001D01*
X162582727Y-105917728D01*
X162900000Y-105917728D01*
X162900000Y-106235001D01*
G37*
G36*
X165438181Y-112580455D02*
G01*
X165120909Y-112580455D01*
X165120909Y-112263182D01*
X165438181Y-112263182D01*
X165438181Y-112580455D01*
G37*
G36*
X160679091Y-113849545D02*
G01*
X160361818Y-113849545D01*
X160361818Y-113532273D01*
X160679091Y-113532273D01*
X160679091Y-113849545D01*
G37*
G36*
X164169091Y-112580455D02*
G01*
X163851818Y-112580455D01*
X163851818Y-112263182D01*
X164169091Y-112263182D01*
X164169091Y-112580455D01*
G37*
G36*
X160679091Y-112580455D02*
G01*
X160361818Y-112580455D01*
X160361818Y-112263182D01*
X160679091Y-112263182D01*
X160679091Y-112580455D01*
G37*
G36*
X165438181Y-113532273D02*
G01*
X165120909Y-113532273D01*
X165120909Y-113215000D01*
X165438181Y-113215000D01*
X165438181Y-113532273D01*
G37*
G36*
X159410000Y-106869546D02*
G01*
X159092727Y-106869546D01*
X159092727Y-106552273D01*
X159410000Y-106552273D01*
X159410000Y-106869546D01*
G37*
G36*
X162900000Y-113849545D02*
G01*
X162582727Y-113849545D01*
X162582727Y-113532273D01*
X162900000Y-113532273D01*
X162900000Y-113849545D01*
G37*
G36*
X158775455Y-112263182D02*
G01*
X158458182Y-112263182D01*
X158458182Y-111945909D01*
X158775455Y-111945909D01*
X158775455Y-112263182D01*
G37*
G36*
X163534545Y-106552273D02*
G01*
X163217273Y-106552273D01*
X163217273Y-106235001D01*
X163534545Y-106235001D01*
X163534545Y-106552273D01*
G37*
G36*
X164803636Y-106235001D02*
G01*
X164486363Y-106235001D01*
X164486363Y-105917728D01*
X164803636Y-105917728D01*
X164803636Y-106235001D01*
G37*
G36*
X159092727Y-111945909D02*
G01*
X158775455Y-111945909D01*
X158775455Y-111628637D01*
X159092727Y-111628637D01*
X159092727Y-111945909D01*
G37*
G36*
X161313636Y-111628637D02*
G01*
X160996364Y-111628637D01*
X160996364Y-111311364D01*
X161313636Y-111311364D01*
X161313636Y-111628637D01*
G37*
G36*
X158775455Y-109407728D02*
G01*
X158458182Y-109407728D01*
X158458182Y-109090455D01*
X158775455Y-109090455D01*
X158775455Y-109407728D01*
G37*
G36*
X158775455Y-106869546D02*
G01*
X158458182Y-106869546D01*
X158458182Y-106552273D01*
X158775455Y-106552273D01*
X158775455Y-106869546D01*
G37*
G36*
X162582727Y-111311364D02*
G01*
X162265454Y-111311364D01*
X162265454Y-110994091D01*
X162582727Y-110994091D01*
X162582727Y-111311364D01*
G37*
G36*
X162582727Y-106869546D02*
G01*
X162265454Y-106869546D01*
X162265454Y-106552273D01*
X162582727Y-106552273D01*
X162582727Y-106869546D01*
G37*
G36*
X166389999Y-110676819D02*
G01*
X166072727Y-110676819D01*
X166072727Y-110359546D01*
X166389999Y-110359546D01*
X166389999Y-110676819D01*
G37*
G36*
X159727273Y-106235001D02*
G01*
X159410000Y-106235001D01*
X159410000Y-105917728D01*
X159727273Y-105917728D01*
X159727273Y-106235001D01*
G37*
G36*
X159410000Y-112897727D02*
G01*
X159092727Y-112897727D01*
X159092727Y-112580455D01*
X159410000Y-112580455D01*
X159410000Y-112897727D01*
G37*
G36*
X160996364Y-110042273D02*
G01*
X160679091Y-110042273D01*
X160679091Y-109725000D01*
X160996364Y-109725000D01*
X160996364Y-110042273D01*
G37*
G36*
X160044545Y-111945909D02*
G01*
X159727273Y-111945909D01*
X159727273Y-111628637D01*
X160044545Y-111628637D01*
X160044545Y-111945909D01*
G37*
G36*
X163534545Y-110994091D02*
G01*
X163217273Y-110994091D01*
X163217273Y-110676819D01*
X163534545Y-110676819D01*
X163534545Y-110994091D01*
G37*
G36*
X162582727Y-111945909D02*
G01*
X162265454Y-111945909D01*
X162265454Y-111628637D01*
X162582727Y-111628637D01*
X162582727Y-111945909D01*
G37*
G36*
X165120909Y-112580455D02*
G01*
X164803636Y-112580455D01*
X164803636Y-112263182D01*
X165120909Y-112263182D01*
X165120909Y-112580455D01*
G37*
G36*
X164486363Y-110359546D02*
G01*
X164169091Y-110359546D01*
X164169091Y-110042273D01*
X164486363Y-110042273D01*
X164486363Y-110359546D01*
G37*
G36*
X165438181Y-106869546D02*
G01*
X165120909Y-106869546D01*
X165120909Y-106552273D01*
X165438181Y-106552273D01*
X165438181Y-106869546D01*
G37*
G36*
X161313636Y-108455910D02*
G01*
X160996364Y-108455910D01*
X160996364Y-108138637D01*
X161313636Y-108138637D01*
X161313636Y-108455910D01*
G37*
G36*
X161630909Y-106552273D02*
G01*
X161313636Y-106552273D01*
X161313636Y-106235001D01*
X161630909Y-106235001D01*
X161630909Y-106552273D01*
G37*
G36*
X163534545Y-107504091D02*
G01*
X163217273Y-107504091D01*
X163217273Y-107186819D01*
X163534545Y-107186819D01*
X163534545Y-107504091D01*
G37*
G36*
X162582727Y-109407728D02*
G01*
X162265454Y-109407728D01*
X162265454Y-109090455D01*
X162582727Y-109090455D01*
X162582727Y-109407728D01*
G37*
G36*
X165755454Y-107504091D02*
G01*
X165438181Y-107504091D01*
X165438181Y-107186819D01*
X165755454Y-107186819D01*
X165755454Y-107504091D01*
G37*
G36*
X163534545Y-113849545D02*
G01*
X163217273Y-113849545D01*
X163217273Y-113532273D01*
X163534545Y-113532273D01*
X163534545Y-113849545D01*
G37*
G36*
X160044545Y-106235001D02*
G01*
X159727273Y-106235001D01*
X159727273Y-105917728D01*
X160044545Y-105917728D01*
X160044545Y-106235001D01*
G37*
G36*
X160679091Y-107186819D02*
G01*
X160361818Y-107186819D01*
X160361818Y-106869546D01*
X160679091Y-106869546D01*
X160679091Y-107186819D01*
G37*
G36*
X165438181Y-107186819D02*
G01*
X165120909Y-107186819D01*
X165120909Y-106869546D01*
X165438181Y-106869546D01*
X165438181Y-107186819D01*
G37*
G36*
X163851818Y-113215000D02*
G01*
X163534545Y-113215000D01*
X163534545Y-112897727D01*
X163851818Y-112897727D01*
X163851818Y-113215000D01*
G37*
G36*
X161948182Y-112897727D02*
G01*
X161630909Y-112897727D01*
X161630909Y-112580455D01*
X161948182Y-112580455D01*
X161948182Y-112897727D01*
G37*
G36*
X162582727Y-110994091D02*
G01*
X162265454Y-110994091D01*
X162265454Y-110676819D01*
X162582727Y-110676819D01*
X162582727Y-110994091D01*
G37*
G36*
X166389999Y-113215000D02*
G01*
X166072727Y-113215000D01*
X166072727Y-112897727D01*
X166389999Y-112897727D01*
X166389999Y-113215000D01*
G37*
G36*
X159410000Y-111311364D02*
G01*
X159092727Y-111311364D01*
X159092727Y-110994091D01*
X159410000Y-110994091D01*
X159410000Y-111311364D01*
G37*
G36*
X160044545Y-107186819D02*
G01*
X159727273Y-107186819D01*
X159727273Y-106869546D01*
X160044545Y-106869546D01*
X160044545Y-107186819D01*
G37*
G36*
X166072727Y-113532273D02*
G01*
X165755454Y-113532273D01*
X165755454Y-113215000D01*
X166072727Y-113215000D01*
X166072727Y-113532273D01*
G37*
G36*
X164486363Y-106869546D02*
G01*
X164169091Y-106869546D01*
X164169091Y-106552273D01*
X164486363Y-106552273D01*
X164486363Y-106869546D01*
G37*
G36*
X165120909Y-107504091D02*
G01*
X164803636Y-107504091D01*
X164803636Y-107186819D01*
X165120909Y-107186819D01*
X165120909Y-107504091D01*
G37*
G36*
X165755454Y-108138637D02*
G01*
X165438181Y-108138637D01*
X165438181Y-107821364D01*
X165755454Y-107821364D01*
X165755454Y-108138637D01*
G37*
G36*
X159092727Y-110994091D02*
G01*
X158775455Y-110994091D01*
X158775455Y-110676819D01*
X159092727Y-110676819D01*
X159092727Y-110994091D01*
G37*
G36*
X160679091Y-107504091D02*
G01*
X160361818Y-107504091D01*
X160361818Y-107186819D01*
X160679091Y-107186819D01*
X160679091Y-107504091D01*
G37*
G36*
X160044545Y-112580455D02*
G01*
X159727273Y-112580455D01*
X159727273Y-112263182D01*
X160044545Y-112263182D01*
X160044545Y-112580455D01*
G37*
G36*
X163851818Y-111628637D02*
G01*
X163534545Y-111628637D01*
X163534545Y-111311364D01*
X163851818Y-111311364D01*
X163851818Y-111628637D01*
G37*
G36*
X159410000Y-108773182D02*
G01*
X159092727Y-108773182D01*
X159092727Y-108455910D01*
X159410000Y-108455910D01*
X159410000Y-108773182D01*
G37*
G36*
X166072727Y-106235001D02*
G01*
X165755454Y-106235001D01*
X165755454Y-105917728D01*
X166072727Y-105917728D01*
X166072727Y-106235001D01*
G37*
G36*
X159092727Y-109090455D02*
G01*
X158775455Y-109090455D01*
X158775455Y-108773182D01*
X159092727Y-108773182D01*
X159092727Y-109090455D01*
G37*
G36*
X160044545Y-109407728D02*
G01*
X159727273Y-109407728D01*
X159727273Y-109090455D01*
X160044545Y-109090455D01*
X160044545Y-109407728D01*
G37*
G36*
X166072727Y-110994091D02*
G01*
X165755454Y-110994091D01*
X165755454Y-110676819D01*
X166072727Y-110676819D01*
X166072727Y-110994091D01*
G37*
G36*
X161630909Y-113215000D02*
G01*
X161313636Y-113215000D01*
X161313636Y-112897727D01*
X161630909Y-112897727D01*
X161630909Y-113215000D01*
G37*
G36*
X162265454Y-110042273D02*
G01*
X161948182Y-110042273D01*
X161948182Y-109725000D01*
X162265454Y-109725000D01*
X162265454Y-110042273D01*
G37*
G36*
X166072727Y-111945909D02*
G01*
X165755454Y-111945909D01*
X165755454Y-111628637D01*
X166072727Y-111628637D01*
X166072727Y-111945909D01*
G37*
G36*
X163534545Y-112897727D02*
G01*
X163217273Y-112897727D01*
X163217273Y-112580455D01*
X163534545Y-112580455D01*
X163534545Y-112897727D01*
G37*
G36*
X160679091Y-113532273D02*
G01*
X160361818Y-113532273D01*
X160361818Y-113215000D01*
X160679091Y-113215000D01*
X160679091Y-113532273D01*
G37*
G36*
X164486363Y-109090455D02*
G01*
X164169091Y-109090455D01*
X164169091Y-108773182D01*
X164486363Y-108773182D01*
X164486363Y-109090455D01*
G37*
G36*
X165120909Y-113532273D02*
G01*
X164803636Y-113532273D01*
X164803636Y-113215000D01*
X165120909Y-113215000D01*
X165120909Y-113532273D01*
G37*
G36*
X158775455Y-110676819D02*
G01*
X158458182Y-110676819D01*
X158458182Y-110359546D01*
X158775455Y-110359546D01*
X158775455Y-110676819D01*
G37*
G36*
X162900000Y-110676819D02*
G01*
X162582727Y-110676819D01*
X162582727Y-110359546D01*
X162900000Y-110359546D01*
X162900000Y-110676819D01*
G37*
G36*
X162900000Y-111311364D02*
G01*
X162582727Y-111311364D01*
X162582727Y-110994091D01*
X162900000Y-110994091D01*
X162900000Y-111311364D01*
G37*
G36*
X161630909Y-107821364D02*
G01*
X161313636Y-107821364D01*
X161313636Y-107504091D01*
X161630909Y-107504091D01*
X161630909Y-107821364D01*
G37*
G36*
X163851818Y-111311364D02*
G01*
X163534545Y-111311364D01*
X163534545Y-110994091D01*
X163851818Y-110994091D01*
X163851818Y-111311364D01*
G37*
G36*
X161948182Y-108138637D02*
G01*
X161630909Y-108138637D01*
X161630909Y-107821364D01*
X161948182Y-107821364D01*
X161948182Y-108138637D01*
G37*
G36*
X161948182Y-110676819D02*
G01*
X161630909Y-110676819D01*
X161630909Y-110359546D01*
X161948182Y-110359546D01*
X161948182Y-110676819D01*
G37*
G36*
X159092727Y-108138637D02*
G01*
X158775455Y-108138637D01*
X158775455Y-107821364D01*
X159092727Y-107821364D01*
X159092727Y-108138637D01*
G37*
G36*
X162265454Y-113532273D02*
G01*
X161948182Y-113532273D01*
X161948182Y-113215000D01*
X162265454Y-113215000D01*
X162265454Y-113532273D01*
G37*
G36*
X166072727Y-109725000D02*
G01*
X165755454Y-109725000D01*
X165755454Y-109407728D01*
X166072727Y-109407728D01*
X166072727Y-109725000D01*
G37*
G36*
X165120909Y-110994091D02*
G01*
X164803636Y-110994091D01*
X164803636Y-110676819D01*
X165120909Y-110676819D01*
X165120909Y-110994091D01*
G37*
G36*
X162265454Y-113849545D02*
G01*
X161948182Y-113849545D01*
X161948182Y-113532273D01*
X162265454Y-113532273D01*
X162265454Y-113849545D01*
G37*
G36*
X162582727Y-113532273D02*
G01*
X162265454Y-113532273D01*
X162265454Y-113215000D01*
X162582727Y-113215000D01*
X162582727Y-113532273D01*
G37*
G36*
X164803636Y-111311364D02*
G01*
X164486363Y-111311364D01*
X164486363Y-110994091D01*
X164803636Y-110994091D01*
X164803636Y-111311364D01*
G37*
G36*
X162900000Y-109407728D02*
G01*
X162582727Y-109407728D01*
X162582727Y-109090455D01*
X162900000Y-109090455D01*
X162900000Y-109407728D01*
G37*
G36*
X164486363Y-112580455D02*
G01*
X164169091Y-112580455D01*
X164169091Y-112263182D01*
X164486363Y-112263182D01*
X164486363Y-112580455D01*
G37*
G36*
X163217273Y-107821364D02*
G01*
X162900000Y-107821364D01*
X162900000Y-107504091D01*
X163217273Y-107504091D01*
X163217273Y-107821364D01*
G37*
G36*
X166389999Y-110359546D02*
G01*
X166072727Y-110359546D01*
X166072727Y-110042273D01*
X166389999Y-110042273D01*
X166389999Y-110359546D01*
G37*
G36*
X162265454Y-111628637D02*
G01*
X161948182Y-111628637D01*
X161948182Y-111311364D01*
X162265454Y-111311364D01*
X162265454Y-111628637D01*
G37*
G36*
X166389999Y-106552273D02*
G01*
X166072727Y-106552273D01*
X166072727Y-106235001D01*
X166389999Y-106235001D01*
X166389999Y-106552273D01*
G37*
G36*
X159727273Y-107186819D02*
G01*
X159410000Y-107186819D01*
X159410000Y-106869546D01*
X159727273Y-106869546D01*
X159727273Y-107186819D01*
G37*
G36*
X164803636Y-112897727D02*
G01*
X164486363Y-112897727D01*
X164486363Y-112580455D01*
X164803636Y-112580455D01*
X164803636Y-112897727D01*
G37*
G36*
X165438181Y-107504091D02*
G01*
X165120909Y-107504091D01*
X165120909Y-107186819D01*
X165438181Y-107186819D01*
X165438181Y-107504091D01*
G37*
G36*
X161313636Y-113532273D02*
G01*
X160996364Y-113532273D01*
X160996364Y-113215000D01*
X161313636Y-113215000D01*
X161313636Y-113532273D01*
G37*
G36*
X163851818Y-108455910D02*
G01*
X163534545Y-108455910D01*
X163534545Y-108138637D01*
X163851818Y-108138637D01*
X163851818Y-108455910D01*
G37*
G36*
X161630909Y-108455910D02*
G01*
X161313636Y-108455910D01*
X161313636Y-108138637D01*
X161630909Y-108138637D01*
X161630909Y-108455910D01*
G37*
G36*
X160679091Y-111311364D02*
G01*
X160361818Y-111311364D01*
X160361818Y-110994091D01*
X160679091Y-110994091D01*
X160679091Y-111311364D01*
G37*
G36*
X160679091Y-111945909D02*
G01*
X160361818Y-111945909D01*
X160361818Y-111628637D01*
X160679091Y-111628637D01*
X160679091Y-111945909D01*
G37*
G36*
X162900000Y-108773182D02*
G01*
X162582727Y-108773182D01*
X162582727Y-108455910D01*
X162900000Y-108455910D01*
X162900000Y-108773182D01*
G37*
G36*
X158775455Y-106552273D02*
G01*
X158458182Y-106552273D01*
X158458182Y-106235001D01*
X158775455Y-106235001D01*
X158775455Y-106552273D01*
G37*
G36*
X165120909Y-109407728D02*
G01*
X164803636Y-109407728D01*
X164803636Y-109090455D01*
X165120909Y-109090455D01*
X165120909Y-109407728D01*
G37*
G36*
X160679091Y-112897727D02*
G01*
X160361818Y-112897727D01*
X160361818Y-112580455D01*
X160679091Y-112580455D01*
X160679091Y-112897727D01*
G37*
G36*
X164486363Y-113532273D02*
G01*
X164169091Y-113532273D01*
X164169091Y-113215000D01*
X164486363Y-113215000D01*
X164486363Y-113532273D01*
G37*
G36*
X162582727Y-107186819D02*
G01*
X162265454Y-107186819D01*
X162265454Y-106869546D01*
X162582727Y-106869546D01*
X162582727Y-107186819D01*
G37*
G36*
X162900000Y-112580455D02*
G01*
X162582727Y-112580455D01*
X162582727Y-112263182D01*
X162900000Y-112263182D01*
X162900000Y-112580455D01*
G37*
G36*
X165120909Y-108138637D02*
G01*
X164803636Y-108138637D01*
X164803636Y-107821364D01*
X165120909Y-107821364D01*
X165120909Y-108138637D01*
G37*
G36*
X164486363Y-111311364D02*
G01*
X164169091Y-111311364D01*
X164169091Y-110994091D01*
X164486363Y-110994091D01*
X164486363Y-111311364D01*
G37*
G36*
X163851818Y-109407728D02*
G01*
X163534545Y-109407728D01*
X163534545Y-109090455D01*
X163851818Y-109090455D01*
X163851818Y-109407728D01*
G37*
G36*
X166389999Y-106235001D02*
G01*
X166072727Y-106235001D01*
X166072727Y-105917728D01*
X166389999Y-105917728D01*
X166389999Y-106235001D01*
G37*
G36*
X160679091Y-112263182D02*
G01*
X160361818Y-112263182D01*
X160361818Y-111945909D01*
X160679091Y-111945909D01*
X160679091Y-112263182D01*
G37*
G36*
X159092727Y-109725000D02*
G01*
X158775455Y-109725000D01*
X158775455Y-109407728D01*
X159092727Y-109407728D01*
X159092727Y-109725000D01*
G37*
G36*
X164486363Y-108773182D02*
G01*
X164169091Y-108773182D01*
X164169091Y-108455910D01*
X164486363Y-108455910D01*
X164486363Y-108773182D01*
G37*
G36*
X159410000Y-113849545D02*
G01*
X159092727Y-113849545D01*
X159092727Y-113532273D01*
X159410000Y-113532273D01*
X159410000Y-113849545D01*
G37*
G36*
X162265454Y-106869546D02*
G01*
X161948182Y-106869546D01*
X161948182Y-106552273D01*
X162265454Y-106552273D01*
X162265454Y-106869546D01*
G37*
G36*
X162582727Y-106552273D02*
G01*
X162265454Y-106552273D01*
X162265454Y-106235001D01*
X162582727Y-106235001D01*
X162582727Y-106552273D01*
G37*
G36*
X162582727Y-109725000D02*
G01*
X162265454Y-109725000D01*
X162265454Y-109407728D01*
X162582727Y-109407728D01*
X162582727Y-109725000D01*
G37*
G36*
X162900000Y-110994091D02*
G01*
X162582727Y-110994091D01*
X162582727Y-110676819D01*
X162900000Y-110676819D01*
X162900000Y-110994091D01*
G37*
G36*
X162900000Y-109090455D02*
G01*
X162582727Y-109090455D01*
X162582727Y-108773182D01*
X162900000Y-108773182D01*
X162900000Y-109090455D01*
G37*
G36*
X162900000Y-112897727D02*
G01*
X162582727Y-112897727D01*
X162582727Y-112580455D01*
X162900000Y-112580455D01*
X162900000Y-112897727D01*
G37*
G36*
X159410000Y-110042273D02*
G01*
X159092727Y-110042273D01*
X159092727Y-109725000D01*
X159410000Y-109725000D01*
X159410000Y-110042273D01*
G37*
G36*
X160361818Y-108138637D02*
G01*
X160044545Y-108138637D01*
X160044545Y-107821364D01*
X160361818Y-107821364D01*
X160361818Y-108138637D01*
G37*
G36*
X161313636Y-112580455D02*
G01*
X160996364Y-112580455D01*
X160996364Y-112263182D01*
X161313636Y-112263182D01*
X161313636Y-112580455D01*
G37*
G36*
X162265454Y-109090455D02*
G01*
X161948182Y-109090455D01*
X161948182Y-108773182D01*
X162265454Y-108773182D01*
X162265454Y-109090455D01*
G37*
G36*
X165120909Y-112897727D02*
G01*
X164803636Y-112897727D01*
X164803636Y-112580455D01*
X165120909Y-112580455D01*
X165120909Y-112897727D01*
G37*
G36*
X161313636Y-106869546D02*
G01*
X160996364Y-106869546D01*
X160996364Y-106552273D01*
X161313636Y-106552273D01*
X161313636Y-106869546D01*
G37*
G36*
X162265454Y-106235001D02*
G01*
X161948182Y-106235001D01*
X161948182Y-105917728D01*
X162265454Y-105917728D01*
X162265454Y-106235001D01*
G37*
G36*
X161630909Y-112580455D02*
G01*
X161313636Y-112580455D01*
X161313636Y-112263182D01*
X161630909Y-112263182D01*
X161630909Y-112580455D01*
G37*
G36*
X162265454Y-107821364D02*
G01*
X161948182Y-107821364D01*
X161948182Y-107504091D01*
X162265454Y-107504091D01*
X162265454Y-107821364D01*
G37*
G36*
X159727273Y-109725000D02*
G01*
X159410000Y-109725000D01*
X159410000Y-109407728D01*
X159727273Y-109407728D01*
X159727273Y-109725000D01*
G37*
G36*
X166072727Y-110042273D02*
G01*
X165755454Y-110042273D01*
X165755454Y-109725000D01*
X166072727Y-109725000D01*
X166072727Y-110042273D01*
G37*
G36*
X165120909Y-106869546D02*
G01*
X164803636Y-106869546D01*
X164803636Y-106552273D01*
X165120909Y-106552273D01*
X165120909Y-106869546D01*
G37*
G36*
X164803636Y-112580455D02*
G01*
X164486363Y-112580455D01*
X164486363Y-112263182D01*
X164803636Y-112263182D01*
X164803636Y-112580455D01*
G37*
G36*
X163534545Y-113215000D02*
G01*
X163217273Y-113215000D01*
X163217273Y-112897727D01*
X163534545Y-112897727D01*
X163534545Y-113215000D01*
G37*
G36*
X160044545Y-109090455D02*
G01*
X159727273Y-109090455D01*
X159727273Y-108773182D01*
X160044545Y-108773182D01*
X160044545Y-109090455D01*
G37*
G36*
X162900000Y-110042273D02*
G01*
X162582727Y-110042273D01*
X162582727Y-109725000D01*
X162900000Y-109725000D01*
X162900000Y-110042273D01*
G37*
G36*
X161948182Y-108773182D02*
G01*
X161630909Y-108773182D01*
X161630909Y-108455910D01*
X161948182Y-108455910D01*
X161948182Y-108773182D01*
G37*
G36*
X160679091Y-108138637D02*
G01*
X160361818Y-108138637D01*
X160361818Y-107821364D01*
X160679091Y-107821364D01*
X160679091Y-108138637D01*
G37*
G36*
X159727273Y-111945909D02*
G01*
X159410000Y-111945909D01*
X159410000Y-111628637D01*
X159727273Y-111628637D01*
X159727273Y-111945909D01*
G37*
G36*
X161630909Y-112263182D02*
G01*
X161313636Y-112263182D01*
X161313636Y-111945909D01*
X161630909Y-111945909D01*
X161630909Y-112263182D01*
G37*
G36*
X164486363Y-106235001D02*
G01*
X164169091Y-106235001D01*
X164169091Y-105917728D01*
X164486363Y-105917728D01*
X164486363Y-106235001D01*
G37*
G36*
X164169091Y-110676819D02*
G01*
X163851818Y-110676819D01*
X163851818Y-110359546D01*
X164169091Y-110359546D01*
X164169091Y-110676819D01*
G37*
G36*
X164486363Y-111945909D02*
G01*
X164169091Y-111945909D01*
X164169091Y-111628637D01*
X164486363Y-111628637D01*
X164486363Y-111945909D01*
G37*
G36*
X164486363Y-107186819D02*
G01*
X164169091Y-107186819D01*
X164169091Y-106869546D01*
X164486363Y-106869546D01*
X164486363Y-107186819D01*
G37*
G36*
X166389999Y-107186819D02*
G01*
X166072727Y-107186819D01*
X166072727Y-106869546D01*
X166389999Y-106869546D01*
X166389999Y-107186819D01*
G37*
G36*
X163851818Y-109090455D02*
G01*
X163534545Y-109090455D01*
X163534545Y-108773182D01*
X163851818Y-108773182D01*
X163851818Y-109090455D01*
G37*
G36*
X161313636Y-112263182D02*
G01*
X160996364Y-112263182D01*
X160996364Y-111945909D01*
X161313636Y-111945909D01*
X161313636Y-112263182D01*
G37*
G36*
X162900000Y-111945909D02*
G01*
X162582727Y-111945909D01*
X162582727Y-111628637D01*
X162900000Y-111628637D01*
X162900000Y-111945909D01*
G37*
G36*
X164486363Y-106552273D02*
G01*
X164169091Y-106552273D01*
X164169091Y-106235001D01*
X164486363Y-106235001D01*
X164486363Y-106552273D01*
G37*
G36*
X162582727Y-113215000D02*
G01*
X162265454Y-113215000D01*
X162265454Y-112897727D01*
X162582727Y-112897727D01*
X162582727Y-113215000D01*
G37*
G36*
X159410000Y-110994091D02*
G01*
X159092727Y-110994091D01*
X159092727Y-110676819D01*
X159410000Y-110676819D01*
X159410000Y-110994091D01*
G37*
G36*
X163851818Y-108773182D02*
G01*
X163534545Y-108773182D01*
X163534545Y-108455910D01*
X163851818Y-108455910D01*
X163851818Y-108773182D01*
G37*
G36*
X161948182Y-106235001D02*
G01*
X161630909Y-106235001D01*
X161630909Y-105917728D01*
X161948182Y-105917728D01*
X161948182Y-106235001D01*
G37*
G36*
X161313636Y-111945909D02*
G01*
X160996364Y-111945909D01*
X160996364Y-111628637D01*
X161313636Y-111628637D01*
X161313636Y-111945909D01*
G37*
G36*
X159410000Y-109407728D02*
G01*
X159092727Y-109407728D01*
X159092727Y-109090455D01*
X159410000Y-109090455D01*
X159410000Y-109407728D01*
G37*
G36*
X160361818Y-113849545D02*
G01*
X160044545Y-113849545D01*
X160044545Y-113532273D01*
X160361818Y-113532273D01*
X160361818Y-113849545D01*
G37*
G36*
X163851818Y-113849545D02*
G01*
X163534545Y-113849545D01*
X163534545Y-113532273D01*
X163851818Y-113532273D01*
X163851818Y-113849545D01*
G37*
G36*
X166389999Y-107504091D02*
G01*
X166072727Y-107504091D01*
X166072727Y-107186819D01*
X166389999Y-107186819D01*
X166389999Y-107504091D01*
G37*
G36*
X166389999Y-111945909D02*
G01*
X166072727Y-111945909D01*
X166072727Y-111628637D01*
X166389999Y-111628637D01*
X166389999Y-111945909D01*
G37*
G36*
X158775455Y-113532273D02*
G01*
X158458182Y-113532273D01*
X158458182Y-113215000D01*
X158775455Y-113215000D01*
X158775455Y-113532273D01*
G37*
G36*
X160996364Y-108773182D02*
G01*
X160679091Y-108773182D01*
X160679091Y-108455910D01*
X160996364Y-108455910D01*
X160996364Y-108773182D01*
G37*
G36*
X161948182Y-112263182D02*
G01*
X161630909Y-112263182D01*
X161630909Y-111945909D01*
X161948182Y-111945909D01*
X161948182Y-112263182D01*
G37*
G36*
X160044545Y-106869546D02*
G01*
X159727273Y-106869546D01*
X159727273Y-106552273D01*
X160044545Y-106552273D01*
X160044545Y-106869546D01*
G37*
G36*
X162900000Y-109725000D02*
G01*
X162582727Y-109725000D01*
X162582727Y-109407728D01*
X162900000Y-109407728D01*
X162900000Y-109725000D01*
G37*
G36*
X161630909Y-109725000D02*
G01*
X161313636Y-109725000D01*
X161313636Y-109407728D01*
X161630909Y-109407728D01*
X161630909Y-109725000D01*
G37*
G36*
X160361818Y-111311364D02*
G01*
X160044545Y-111311364D01*
X160044545Y-110994091D01*
X160361818Y-110994091D01*
X160361818Y-111311364D01*
G37*
G36*
X162265454Y-112263182D02*
G01*
X161948182Y-112263182D01*
X161948182Y-111945909D01*
X162265454Y-111945909D01*
X162265454Y-112263182D01*
G37*
G36*
X163217273Y-110359546D02*
G01*
X162900000Y-110359546D01*
X162900000Y-110042273D01*
X163217273Y-110042273D01*
X163217273Y-110359546D01*
G37*
G36*
X162900000Y-112263182D02*
G01*
X162582727Y-112263182D01*
X162582727Y-111945909D01*
X162900000Y-111945909D01*
X162900000Y-112263182D01*
G37*
G36*
X161313636Y-108138637D02*
G01*
X160996364Y-108138637D01*
X160996364Y-107821364D01*
X161313636Y-107821364D01*
X161313636Y-108138637D01*
G37*
G36*
X165755454Y-109407728D02*
G01*
X165438181Y-109407728D01*
X165438181Y-109090455D01*
X165755454Y-109090455D01*
X165755454Y-109407728D01*
G37*
G36*
X161948182Y-108455910D02*
G01*
X161630909Y-108455910D01*
X161630909Y-108138637D01*
X161948182Y-108138637D01*
X161948182Y-108455910D01*
G37*
G36*
X164486363Y-108138637D02*
G01*
X164169091Y-108138637D01*
X164169091Y-107821364D01*
X164486363Y-107821364D01*
X164486363Y-108138637D01*
G37*
G36*
X158775455Y-107821364D02*
G01*
X158458182Y-107821364D01*
X158458182Y-107504091D01*
X158775455Y-107504091D01*
X158775455Y-107821364D01*
G37*
G36*
X159410000Y-112580455D02*
G01*
X159092727Y-112580455D01*
X159092727Y-112263182D01*
X159410000Y-112263182D01*
X159410000Y-112580455D01*
G37*
G36*
X158775455Y-113849545D02*
G01*
X158458182Y-113849545D01*
X158458182Y-113532273D01*
X158775455Y-113532273D01*
X158775455Y-113849545D01*
G37*
G36*
X161948182Y-110042273D02*
G01*
X161630909Y-110042273D01*
X161630909Y-109725000D01*
X161948182Y-109725000D01*
X161948182Y-110042273D01*
G37*
G36*
X159410000Y-111945909D02*
G01*
X159092727Y-111945909D01*
X159092727Y-111628637D01*
X159410000Y-111628637D01*
X159410000Y-111945909D01*
G37*
G36*
X159092727Y-106235001D02*
G01*
X158775455Y-106235001D01*
X158775455Y-105917728D01*
X159092727Y-105917728D01*
X159092727Y-106235001D01*
G37*
G36*
X160044545Y-108138637D02*
G01*
X159727273Y-108138637D01*
X159727273Y-107821364D01*
X160044545Y-107821364D01*
X160044545Y-108138637D01*
G37*
G36*
X161948182Y-109407728D02*
G01*
X161630909Y-109407728D01*
X161630909Y-109090455D01*
X161948182Y-109090455D01*
X161948182Y-109407728D01*
G37*
G36*
X159410000Y-107504091D02*
G01*
X159092727Y-107504091D01*
X159092727Y-107186819D01*
X159410000Y-107186819D01*
X159410000Y-107504091D01*
G37*
G36*
X162582727Y-108138637D02*
G01*
X162265454Y-108138637D01*
X162265454Y-107821364D01*
X162582727Y-107821364D01*
X162582727Y-108138637D01*
G37*
G36*
X165120909Y-113215000D02*
G01*
X164803636Y-113215000D01*
X164803636Y-112897727D01*
X165120909Y-112897727D01*
X165120909Y-113215000D01*
G37*
G36*
X159727273Y-106869546D02*
G01*
X159410000Y-106869546D01*
X159410000Y-106552273D01*
X159727273Y-106552273D01*
X159727273Y-106869546D01*
G37*
G36*
X158775455Y-108773182D02*
G01*
X158458182Y-108773182D01*
X158458182Y-108455910D01*
X158775455Y-108455910D01*
X158775455Y-108773182D01*
G37*
G36*
X160679091Y-108773182D02*
G01*
X160361818Y-108773182D01*
X160361818Y-108455910D01*
X160679091Y-108455910D01*
X160679091Y-108773182D01*
G37*
G36*
X160361818Y-108773182D02*
G01*
X160044545Y-108773182D01*
X160044545Y-108455910D01*
X160361818Y-108455910D01*
X160361818Y-108773182D01*
G37*
G36*
X159727273Y-110042273D02*
G01*
X159410000Y-110042273D01*
X159410000Y-109725000D01*
X159727273Y-109725000D01*
X159727273Y-110042273D01*
G37*
G36*
X160679091Y-106552273D02*
G01*
X160361818Y-106552273D01*
X160361818Y-106235001D01*
X160679091Y-106235001D01*
X160679091Y-106552273D01*
G37*
G36*
X159410000Y-107186819D02*
G01*
X159092727Y-107186819D01*
X159092727Y-106869546D01*
X159410000Y-106869546D01*
X159410000Y-107186819D01*
G37*
G36*
X159092727Y-110042273D02*
G01*
X158775455Y-110042273D01*
X158775455Y-109725000D01*
X159092727Y-109725000D01*
X159092727Y-110042273D01*
G37*
G36*
X165438181Y-111628637D02*
G01*
X165120909Y-111628637D01*
X165120909Y-111311364D01*
X165438181Y-111311364D01*
X165438181Y-111628637D01*
G37*
G36*
X160679091Y-107821364D02*
G01*
X160361818Y-107821364D01*
X160361818Y-107504091D01*
X160679091Y-107504091D01*
X160679091Y-107821364D01*
G37*
G36*
X161948182Y-111945909D02*
G01*
X161630909Y-111945909D01*
X161630909Y-111628637D01*
X161948182Y-111628637D01*
X161948182Y-111945909D01*
G37*
D11*
X166812782Y-148671895D02*
X167241353Y-148671895D01*
X167027068Y-148671895D02*
X167027068Y-147871895D01*
X167027068Y-147871895D02*
X167098496Y-147986180D01*
X167098496Y-147986180D02*
X167169925Y-148062371D01*
X167169925Y-148062371D02*
X167241353Y-148100466D01*
X166527067Y-147948085D02*
X166491353Y-147909990D01*
X166491353Y-147909990D02*
X166419925Y-147871895D01*
X166419925Y-147871895D02*
X166241353Y-147871895D01*
X166241353Y-147871895D02*
X166169925Y-147909990D01*
X166169925Y-147909990D02*
X166134210Y-147948085D01*
X166134210Y-147948085D02*
X166098496Y-148024276D01*
X166098496Y-148024276D02*
X166098496Y-148100466D01*
X166098496Y-148100466D02*
X166134210Y-148214752D01*
X166134210Y-148214752D02*
X166562782Y-148671895D01*
X166562782Y-148671895D02*
X166098496Y-148671895D01*
X165884210Y-147871895D02*
X165634210Y-148671895D01*
X165634210Y-148671895D02*
X165384210Y-147871895D01*
X164062781Y-147871895D02*
X163598495Y-147871895D01*
X163598495Y-147871895D02*
X163848495Y-148176657D01*
X163848495Y-148176657D02*
X163741352Y-148176657D01*
X163741352Y-148176657D02*
X163669924Y-148214752D01*
X163669924Y-148214752D02*
X163634209Y-148252847D01*
X163634209Y-148252847D02*
X163598495Y-148329038D01*
X163598495Y-148329038D02*
X163598495Y-148519514D01*
X163598495Y-148519514D02*
X163634209Y-148595704D01*
X163634209Y-148595704D02*
X163669924Y-148633800D01*
X163669924Y-148633800D02*
X163741352Y-148671895D01*
X163741352Y-148671895D02*
X163955638Y-148671895D01*
X163955638Y-148671895D02*
X164027066Y-148633800D01*
X164027066Y-148633800D02*
X164062781Y-148595704D01*
X163348495Y-148138561D02*
X163169923Y-148671895D01*
X163169923Y-148671895D02*
X162991352Y-148138561D01*
X162777066Y-147871895D02*
X162312780Y-147871895D01*
X162312780Y-147871895D02*
X162562780Y-148176657D01*
X162562780Y-148176657D02*
X162455637Y-148176657D01*
X162455637Y-148176657D02*
X162384209Y-148214752D01*
X162384209Y-148214752D02*
X162348494Y-148252847D01*
X162348494Y-148252847D02*
X162312780Y-148329038D01*
X162312780Y-148329038D02*
X162312780Y-148519514D01*
X162312780Y-148519514D02*
X162348494Y-148595704D01*
X162348494Y-148595704D02*
X162384209Y-148633800D01*
X162384209Y-148633800D02*
X162455637Y-148671895D01*
X162455637Y-148671895D02*
X162669923Y-148671895D01*
X162669923Y-148671895D02*
X162741351Y-148633800D01*
X162741351Y-148633800D02*
X162777066Y-148595704D01*
X160598493Y-148252847D02*
X160848493Y-148252847D01*
X160848493Y-148671895D02*
X160848493Y-147871895D01*
X160848493Y-147871895D02*
X160491350Y-147871895D01*
X159812779Y-147909990D02*
X159884208Y-147871895D01*
X159884208Y-147871895D02*
X159991350Y-147871895D01*
X159991350Y-147871895D02*
X160098493Y-147909990D01*
X160098493Y-147909990D02*
X160169922Y-147986180D01*
X160169922Y-147986180D02*
X160205636Y-148062371D01*
X160205636Y-148062371D02*
X160241350Y-148214752D01*
X160241350Y-148214752D02*
X160241350Y-148329038D01*
X160241350Y-148329038D02*
X160205636Y-148481419D01*
X160205636Y-148481419D02*
X160169922Y-148557609D01*
X160169922Y-148557609D02*
X160098493Y-148633800D01*
X160098493Y-148633800D02*
X159991350Y-148671895D01*
X159991350Y-148671895D02*
X159919922Y-148671895D01*
X159919922Y-148671895D02*
X159812779Y-148633800D01*
X159812779Y-148633800D02*
X159777065Y-148595704D01*
X159777065Y-148595704D02*
X159777065Y-148329038D01*
X159777065Y-148329038D02*
X159919922Y-148329038D01*
X158062778Y-148252847D02*
X158312778Y-148252847D01*
X158312778Y-148671895D02*
X158312778Y-147871895D01*
X158312778Y-147871895D02*
X157955635Y-147871895D01*
X157705635Y-148443323D02*
X157348493Y-148443323D01*
X157777064Y-148671895D02*
X157527064Y-147871895D01*
X157527064Y-147871895D02*
X157277064Y-148671895D01*
X157027064Y-147871895D02*
X157027064Y-148519514D01*
X157027064Y-148519514D02*
X156991350Y-148595704D01*
X156991350Y-148595704D02*
X156955636Y-148633800D01*
X156955636Y-148633800D02*
X156884207Y-148671895D01*
X156884207Y-148671895D02*
X156741350Y-148671895D01*
X156741350Y-148671895D02*
X156669921Y-148633800D01*
X156669921Y-148633800D02*
X156634207Y-148595704D01*
X156634207Y-148595704D02*
X156598493Y-148519514D01*
X156598493Y-148519514D02*
X156598493Y-147871895D01*
X155884207Y-148671895D02*
X156241350Y-148671895D01*
X156241350Y-148671895D02*
X156241350Y-147871895D01*
X155741350Y-147871895D02*
X155312779Y-147871895D01*
X155527064Y-148671895D02*
X155527064Y-147871895D01*
X149471428Y-106977447D02*
X149471428Y-105977447D01*
X149471428Y-105977447D02*
X149138095Y-106691732D01*
X149138095Y-106691732D02*
X148804762Y-105977447D01*
X148804762Y-105977447D02*
X148804762Y-106977447D01*
X148138095Y-105977447D02*
X147947619Y-105977447D01*
X147947619Y-105977447D02*
X147852381Y-106025066D01*
X147852381Y-106025066D02*
X147757143Y-106120304D01*
X147757143Y-106120304D02*
X147709524Y-106310780D01*
X147709524Y-106310780D02*
X147709524Y-106644113D01*
X147709524Y-106644113D02*
X147757143Y-106834589D01*
X147757143Y-106834589D02*
X147852381Y-106929828D01*
X147852381Y-106929828D02*
X147947619Y-106977447D01*
X147947619Y-106977447D02*
X148138095Y-106977447D01*
X148138095Y-106977447D02*
X148233333Y-106929828D01*
X148233333Y-106929828D02*
X148328571Y-106834589D01*
X148328571Y-106834589D02*
X148376190Y-106644113D01*
X148376190Y-106644113D02*
X148376190Y-106310780D01*
X148376190Y-106310780D02*
X148328571Y-106120304D01*
X148328571Y-106120304D02*
X148233333Y-106025066D01*
X148233333Y-106025066D02*
X148138095Y-105977447D01*
X147423809Y-105977447D02*
X146852381Y-105977447D01*
X147138095Y-106977447D02*
X147138095Y-105977447D01*
X146328571Y-105977447D02*
X146138095Y-105977447D01*
X146138095Y-105977447D02*
X146042857Y-106025066D01*
X146042857Y-106025066D02*
X145947619Y-106120304D01*
X145947619Y-106120304D02*
X145900000Y-106310780D01*
X145900000Y-106310780D02*
X145900000Y-106644113D01*
X145900000Y-106644113D02*
X145947619Y-106834589D01*
X145947619Y-106834589D02*
X146042857Y-106929828D01*
X146042857Y-106929828D02*
X146138095Y-106977447D01*
X146138095Y-106977447D02*
X146328571Y-106977447D01*
X146328571Y-106977447D02*
X146423809Y-106929828D01*
X146423809Y-106929828D02*
X146519047Y-106834589D01*
X146519047Y-106834589D02*
X146566666Y-106644113D01*
X146566666Y-106644113D02*
X146566666Y-106310780D01*
X146566666Y-106310780D02*
X146519047Y-106120304D01*
X146519047Y-106120304D02*
X146423809Y-106025066D01*
X146423809Y-106025066D02*
X146328571Y-105977447D01*
X144900000Y-106977447D02*
X145233333Y-106501256D01*
X145471428Y-106977447D02*
X145471428Y-105977447D01*
X145471428Y-105977447D02*
X145090476Y-105977447D01*
X145090476Y-105977447D02*
X144995238Y-106025066D01*
X144995238Y-106025066D02*
X144947619Y-106072685D01*
X144947619Y-106072685D02*
X144900000Y-106167923D01*
X144900000Y-106167923D02*
X144900000Y-106310780D01*
X144900000Y-106310780D02*
X144947619Y-106406018D01*
X144947619Y-106406018D02*
X144995238Y-106453637D01*
X144995238Y-106453637D02*
X145090476Y-106501256D01*
X145090476Y-106501256D02*
X145471428Y-106501256D01*
X143519047Y-105977447D02*
X143328571Y-105977447D01*
X143328571Y-105977447D02*
X143233333Y-106025066D01*
X143233333Y-106025066D02*
X143138095Y-106120304D01*
X143138095Y-106120304D02*
X143090476Y-106310780D01*
X143090476Y-106310780D02*
X143090476Y-106644113D01*
X143090476Y-106644113D02*
X143138095Y-106834589D01*
X143138095Y-106834589D02*
X143233333Y-106929828D01*
X143233333Y-106929828D02*
X143328571Y-106977447D01*
X143328571Y-106977447D02*
X143519047Y-106977447D01*
X143519047Y-106977447D02*
X143614285Y-106929828D01*
X143614285Y-106929828D02*
X143709523Y-106834589D01*
X143709523Y-106834589D02*
X143757142Y-106644113D01*
X143757142Y-106644113D02*
X143757142Y-106310780D01*
X143757142Y-106310780D02*
X143709523Y-106120304D01*
X143709523Y-106120304D02*
X143614285Y-106025066D01*
X143614285Y-106025066D02*
X143519047Y-105977447D01*
X142661904Y-105977447D02*
X142661904Y-106786970D01*
X142661904Y-106786970D02*
X142614285Y-106882208D01*
X142614285Y-106882208D02*
X142566666Y-106929828D01*
X142566666Y-106929828D02*
X142471428Y-106977447D01*
X142471428Y-106977447D02*
X142280952Y-106977447D01*
X142280952Y-106977447D02*
X142185714Y-106929828D01*
X142185714Y-106929828D02*
X142138095Y-106882208D01*
X142138095Y-106882208D02*
X142090476Y-106786970D01*
X142090476Y-106786970D02*
X142090476Y-105977447D01*
X141757142Y-105977447D02*
X141185714Y-105977447D01*
X141471428Y-106977447D02*
X141471428Y-105977447D01*
X147542857Y-108492152D02*
X147590476Y-108539772D01*
X147590476Y-108539772D02*
X147733333Y-108587391D01*
X147733333Y-108587391D02*
X147828571Y-108587391D01*
X147828571Y-108587391D02*
X147971428Y-108539772D01*
X147971428Y-108539772D02*
X148066666Y-108444533D01*
X148066666Y-108444533D02*
X148114285Y-108349295D01*
X148114285Y-108349295D02*
X148161904Y-108158819D01*
X148161904Y-108158819D02*
X148161904Y-108015962D01*
X148161904Y-108015962D02*
X148114285Y-107825486D01*
X148114285Y-107825486D02*
X148066666Y-107730248D01*
X148066666Y-107730248D02*
X147971428Y-107635010D01*
X147971428Y-107635010D02*
X147828571Y-107587391D01*
X147828571Y-107587391D02*
X147733333Y-107587391D01*
X147733333Y-107587391D02*
X147590476Y-107635010D01*
X147590476Y-107635010D02*
X147542857Y-107682629D01*
X145257142Y-108063581D02*
X145114285Y-108111200D01*
X145114285Y-108111200D02*
X145066666Y-108158819D01*
X145066666Y-108158819D02*
X145019047Y-108254057D01*
X145019047Y-108254057D02*
X145019047Y-108396914D01*
X145019047Y-108396914D02*
X145066666Y-108492152D01*
X145066666Y-108492152D02*
X145114285Y-108539772D01*
X145114285Y-108539772D02*
X145209523Y-108587391D01*
X145209523Y-108587391D02*
X145590475Y-108587391D01*
X145590475Y-108587391D02*
X145590475Y-107587391D01*
X145590475Y-107587391D02*
X145257142Y-107587391D01*
X145257142Y-107587391D02*
X145161904Y-107635010D01*
X145161904Y-107635010D02*
X145114285Y-107682629D01*
X145114285Y-107682629D02*
X145066666Y-107777867D01*
X145066666Y-107777867D02*
X145066666Y-107873105D01*
X145066666Y-107873105D02*
X145114285Y-107968343D01*
X145114285Y-107968343D02*
X145161904Y-108015962D01*
X145161904Y-108015962D02*
X145257142Y-108063581D01*
X145257142Y-108063581D02*
X145590475Y-108063581D01*
X143114284Y-108301676D02*
X142638094Y-108301676D01*
X143209522Y-108587391D02*
X142876189Y-107587391D01*
X142876189Y-107587391D02*
X142542856Y-108587391D01*
X134089284Y-146502447D02*
X134089284Y-145502447D01*
X134089284Y-145502447D02*
X133708332Y-145502447D01*
X133708332Y-145502447D02*
X133613094Y-145550066D01*
X133613094Y-145550066D02*
X133565475Y-145597685D01*
X133565475Y-145597685D02*
X133517856Y-145692923D01*
X133517856Y-145692923D02*
X133517856Y-145835780D01*
X133517856Y-145835780D02*
X133565475Y-145931018D01*
X133565475Y-145931018D02*
X133613094Y-145978637D01*
X133613094Y-145978637D02*
X133708332Y-146026256D01*
X133708332Y-146026256D02*
X134089284Y-146026256D01*
X133184522Y-145502447D02*
X132946427Y-146502447D01*
X132946427Y-146502447D02*
X132755951Y-145788161D01*
X132755951Y-145788161D02*
X132565475Y-146502447D01*
X132565475Y-146502447D02*
X132327380Y-145502447D01*
X131374999Y-146502447D02*
X131708332Y-146026256D01*
X131946427Y-146502447D02*
X131946427Y-145502447D01*
X131946427Y-145502447D02*
X131565475Y-145502447D01*
X131565475Y-145502447D02*
X131470237Y-145550066D01*
X131470237Y-145550066D02*
X131422618Y-145597685D01*
X131422618Y-145597685D02*
X131374999Y-145692923D01*
X131374999Y-145692923D02*
X131374999Y-145835780D01*
X131374999Y-145835780D02*
X131422618Y-145931018D01*
X131422618Y-145931018D02*
X131470237Y-145978637D01*
X131470237Y-145978637D02*
X131565475Y-146026256D01*
X131565475Y-146026256D02*
X131946427Y-146026256D01*
X130946427Y-146121494D02*
X130184523Y-146121494D01*
X129708332Y-146502447D02*
X129708332Y-145502447D01*
X129232142Y-146502447D02*
X129232142Y-145502447D01*
X129232142Y-145502447D02*
X128660714Y-146502447D01*
X128660714Y-146502447D02*
X128660714Y-145502447D01*
X135089285Y-147445724D02*
X135089285Y-148112391D01*
X135327380Y-147064772D02*
X135565475Y-147779057D01*
X135565475Y-147779057D02*
X134946428Y-147779057D01*
X134565475Y-148017152D02*
X134517856Y-148064772D01*
X134517856Y-148064772D02*
X134565475Y-148112391D01*
X134565475Y-148112391D02*
X134613094Y-148064772D01*
X134613094Y-148064772D02*
X134565475Y-148017152D01*
X134565475Y-148017152D02*
X134565475Y-148112391D01*
X133613095Y-147112391D02*
X134089285Y-147112391D01*
X134089285Y-147112391D02*
X134136904Y-147588581D01*
X134136904Y-147588581D02*
X134089285Y-147540962D01*
X134089285Y-147540962D02*
X133994047Y-147493343D01*
X133994047Y-147493343D02*
X133755952Y-147493343D01*
X133755952Y-147493343D02*
X133660714Y-147540962D01*
X133660714Y-147540962D02*
X133613095Y-147588581D01*
X133613095Y-147588581D02*
X133565476Y-147683819D01*
X133565476Y-147683819D02*
X133565476Y-147921914D01*
X133565476Y-147921914D02*
X133613095Y-148017152D01*
X133613095Y-148017152D02*
X133660714Y-148064772D01*
X133660714Y-148064772D02*
X133755952Y-148112391D01*
X133755952Y-148112391D02*
X133994047Y-148112391D01*
X133994047Y-148112391D02*
X134089285Y-148064772D01*
X134089285Y-148064772D02*
X134136904Y-148017152D01*
X133279761Y-147112391D02*
X132946428Y-148112391D01*
X132946428Y-148112391D02*
X132613095Y-147112391D01*
X131517856Y-147731438D02*
X130755952Y-147731438D01*
X129565475Y-147207629D02*
X129517856Y-147160010D01*
X129517856Y-147160010D02*
X129422618Y-147112391D01*
X129422618Y-147112391D02*
X129184523Y-147112391D01*
X129184523Y-147112391D02*
X129089285Y-147160010D01*
X129089285Y-147160010D02*
X129041666Y-147207629D01*
X129041666Y-147207629D02*
X128994047Y-147302867D01*
X128994047Y-147302867D02*
X128994047Y-147398105D01*
X128994047Y-147398105D02*
X129041666Y-147540962D01*
X129041666Y-147540962D02*
X129613094Y-148112391D01*
X129613094Y-148112391D02*
X128994047Y-148112391D01*
X128136904Y-147445724D02*
X128136904Y-148112391D01*
X128374999Y-147064772D02*
X128613094Y-147779057D01*
X128613094Y-147779057D02*
X127994047Y-147779057D01*
X127755951Y-147112391D02*
X127422618Y-148112391D01*
X127422618Y-148112391D02*
X127089285Y-147112391D01*
D12*
X152547619Y-122329438D02*
X151404762Y-122329438D01*
X151976191Y-124329438D02*
X151976191Y-122329438D01*
X150071428Y-123281819D02*
X150738095Y-123281819D01*
X150738095Y-124329438D02*
X150738095Y-122329438D01*
X150738095Y-122329438D02*
X149785714Y-122329438D01*
X149023809Y-123281819D02*
X148357142Y-123281819D01*
X148071428Y-124329438D02*
X149023809Y-124329438D01*
X149023809Y-124329438D02*
X149023809Y-122329438D01*
X149023809Y-122329438D02*
X148071428Y-122329438D01*
X147309523Y-124234200D02*
X147023809Y-124329438D01*
X147023809Y-124329438D02*
X146547618Y-124329438D01*
X146547618Y-124329438D02*
X146357142Y-124234200D01*
X146357142Y-124234200D02*
X146261904Y-124138961D01*
X146261904Y-124138961D02*
X146166666Y-123948485D01*
X146166666Y-123948485D02*
X146166666Y-123758009D01*
X146166666Y-123758009D02*
X146261904Y-123567533D01*
X146261904Y-123567533D02*
X146357142Y-123472295D01*
X146357142Y-123472295D02*
X146547618Y-123377057D01*
X146547618Y-123377057D02*
X146928571Y-123281819D01*
X146928571Y-123281819D02*
X147119047Y-123186580D01*
X147119047Y-123186580D02*
X147214285Y-123091342D01*
X147214285Y-123091342D02*
X147309523Y-122900866D01*
X147309523Y-122900866D02*
X147309523Y-122710390D01*
X147309523Y-122710390D02*
X147214285Y-122519914D01*
X147214285Y-122519914D02*
X147119047Y-122424676D01*
X147119047Y-122424676D02*
X146928571Y-122329438D01*
X146928571Y-122329438D02*
X146452380Y-122329438D01*
X146452380Y-122329438D02*
X146166666Y-122424676D01*
X144166666Y-124138961D02*
X144261904Y-124234200D01*
X144261904Y-124234200D02*
X144547618Y-124329438D01*
X144547618Y-124329438D02*
X144738094Y-124329438D01*
X144738094Y-124329438D02*
X145023809Y-124234200D01*
X145023809Y-124234200D02*
X145214285Y-124043723D01*
X145214285Y-124043723D02*
X145309523Y-123853247D01*
X145309523Y-123853247D02*
X145404761Y-123472295D01*
X145404761Y-123472295D02*
X145404761Y-123186580D01*
X145404761Y-123186580D02*
X145309523Y-122805628D01*
X145309523Y-122805628D02*
X145214285Y-122615152D01*
X145214285Y-122615152D02*
X145023809Y-122424676D01*
X145023809Y-122424676D02*
X144738094Y-122329438D01*
X144738094Y-122329438D02*
X144547618Y-122329438D01*
X144547618Y-122329438D02*
X144261904Y-122424676D01*
X144261904Y-122424676D02*
X144166666Y-122519914D01*
X142928571Y-122329438D02*
X142738094Y-122329438D01*
X142738094Y-122329438D02*
X142547618Y-122424676D01*
X142547618Y-122424676D02*
X142452380Y-122519914D01*
X142452380Y-122519914D02*
X142357142Y-122710390D01*
X142357142Y-122710390D02*
X142261904Y-123091342D01*
X142261904Y-123091342D02*
X142261904Y-123567533D01*
X142261904Y-123567533D02*
X142357142Y-123948485D01*
X142357142Y-123948485D02*
X142452380Y-124138961D01*
X142452380Y-124138961D02*
X142547618Y-124234200D01*
X142547618Y-124234200D02*
X142738094Y-124329438D01*
X142738094Y-124329438D02*
X142928571Y-124329438D01*
X142928571Y-124329438D02*
X143119047Y-124234200D01*
X143119047Y-124234200D02*
X143214285Y-124138961D01*
X143214285Y-124138961D02*
X143309523Y-123948485D01*
X143309523Y-123948485D02*
X143404761Y-123567533D01*
X143404761Y-123567533D02*
X143404761Y-123091342D01*
X143404761Y-123091342D02*
X143309523Y-122710390D01*
X143309523Y-122710390D02*
X143214285Y-122519914D01*
X143214285Y-122519914D02*
X143119047Y-122424676D01*
X143119047Y-122424676D02*
X142928571Y-122329438D01*
X141499999Y-122519914D02*
X141404761Y-122424676D01*
X141404761Y-122424676D02*
X141214285Y-122329438D01*
X141214285Y-122329438D02*
X140738094Y-122329438D01*
X140738094Y-122329438D02*
X140547618Y-122424676D01*
X140547618Y-122424676D02*
X140452380Y-122519914D01*
X140452380Y-122519914D02*
X140357142Y-122710390D01*
X140357142Y-122710390D02*
X140357142Y-122900866D01*
X140357142Y-122900866D02*
X140452380Y-123186580D01*
X140452380Y-123186580D02*
X141595237Y-124329438D01*
X141595237Y-124329438D02*
X140357142Y-124329438D01*
X139595237Y-123758009D02*
X138642856Y-123758009D01*
X139785713Y-124329438D02*
X139119047Y-122329438D01*
X139119047Y-122329438D02*
X138452380Y-124329438D01*
D13*
X166567662Y-131728571D02*
X165367662Y-131728571D01*
X165481948Y-132242857D02*
X165424805Y-132300000D01*
X165424805Y-132300000D02*
X165367662Y-132414286D01*
X165367662Y-132414286D02*
X165367662Y-132700000D01*
X165367662Y-132700000D02*
X165424805Y-132814286D01*
X165424805Y-132814286D02*
X165481948Y-132871428D01*
X165481948Y-132871428D02*
X165596234Y-132928571D01*
X165596234Y-132928571D02*
X165710520Y-132928571D01*
X165710520Y-132928571D02*
X165881948Y-132871428D01*
X165881948Y-132871428D02*
X166567662Y-132185714D01*
X166567662Y-132185714D02*
X166567662Y-132928571D01*
X166453377Y-134128571D02*
X166510520Y-134071428D01*
X166510520Y-134071428D02*
X166567662Y-133900000D01*
X166567662Y-133900000D02*
X166567662Y-133785714D01*
X166567662Y-133785714D02*
X166510520Y-133614285D01*
X166510520Y-133614285D02*
X166396234Y-133500000D01*
X166396234Y-133500000D02*
X166281948Y-133442857D01*
X166281948Y-133442857D02*
X166053377Y-133385714D01*
X166053377Y-133385714D02*
X165881948Y-133385714D01*
X165881948Y-133385714D02*
X165653377Y-133442857D01*
X165653377Y-133442857D02*
X165539091Y-133500000D01*
X165539091Y-133500000D02*
X165424805Y-133614285D01*
X165424805Y-133614285D02*
X165367662Y-133785714D01*
X165367662Y-133785714D02*
X165367662Y-133900000D01*
X165367662Y-133900000D02*
X165424805Y-134071428D01*
X165424805Y-134071428D02*
X165481948Y-134128571D01*
D11*
X164036904Y-129990122D02*
X164132142Y-129942503D01*
X164132142Y-129942503D02*
X164274999Y-129942503D01*
X164274999Y-129942503D02*
X164417856Y-129990122D01*
X164417856Y-129990122D02*
X164513094Y-130085360D01*
X164513094Y-130085360D02*
X164560713Y-130180598D01*
X164560713Y-130180598D02*
X164608332Y-130371074D01*
X164608332Y-130371074D02*
X164608332Y-130513931D01*
X164608332Y-130513931D02*
X164560713Y-130704407D01*
X164560713Y-130704407D02*
X164513094Y-130799645D01*
X164513094Y-130799645D02*
X164417856Y-130894884D01*
X164417856Y-130894884D02*
X164274999Y-130942503D01*
X164274999Y-130942503D02*
X164179761Y-130942503D01*
X164179761Y-130942503D02*
X164036904Y-130894884D01*
X164036904Y-130894884D02*
X163989285Y-130847264D01*
X163989285Y-130847264D02*
X163989285Y-130513931D01*
X163989285Y-130513931D02*
X164179761Y-130513931D01*
X163560713Y-130942503D02*
X163560713Y-129942503D01*
X163560713Y-129942503D02*
X162989285Y-130942503D01*
X162989285Y-130942503D02*
X162989285Y-129942503D01*
X162513094Y-130942503D02*
X162513094Y-129942503D01*
X162513094Y-129942503D02*
X162274999Y-129942503D01*
X162274999Y-129942503D02*
X162132142Y-129990122D01*
X162132142Y-129990122D02*
X162036904Y-130085360D01*
X162036904Y-130085360D02*
X161989285Y-130180598D01*
X161989285Y-130180598D02*
X161941666Y-130371074D01*
X161941666Y-130371074D02*
X161941666Y-130513931D01*
X161941666Y-130513931D02*
X161989285Y-130704407D01*
X161989285Y-130704407D02*
X162036904Y-130799645D01*
X162036904Y-130799645D02*
X162132142Y-130894884D01*
X162132142Y-130894884D02*
X162274999Y-130942503D01*
X162274999Y-130942503D02*
X162513094Y-130942503D01*
X164489285Y-132504828D02*
X164346428Y-132552447D01*
X164346428Y-132552447D02*
X164108333Y-132552447D01*
X164108333Y-132552447D02*
X164013095Y-132504828D01*
X164013095Y-132504828D02*
X163965476Y-132457208D01*
X163965476Y-132457208D02*
X163917857Y-132361970D01*
X163917857Y-132361970D02*
X163917857Y-132266732D01*
X163917857Y-132266732D02*
X163965476Y-132171494D01*
X163965476Y-132171494D02*
X164013095Y-132123875D01*
X164013095Y-132123875D02*
X164108333Y-132076256D01*
X164108333Y-132076256D02*
X164298809Y-132028637D01*
X164298809Y-132028637D02*
X164394047Y-131981018D01*
X164394047Y-131981018D02*
X164441666Y-131933399D01*
X164441666Y-131933399D02*
X164489285Y-131838161D01*
X164489285Y-131838161D02*
X164489285Y-131742923D01*
X164489285Y-131742923D02*
X164441666Y-131647685D01*
X164441666Y-131647685D02*
X164394047Y-131600066D01*
X164394047Y-131600066D02*
X164298809Y-131552447D01*
X164298809Y-131552447D02*
X164060714Y-131552447D01*
X164060714Y-131552447D02*
X163917857Y-131600066D01*
X163489285Y-132552447D02*
X163489285Y-131552447D01*
X163489285Y-131552447D02*
X163251190Y-131552447D01*
X163251190Y-131552447D02*
X163108333Y-131600066D01*
X163108333Y-131600066D02*
X163013095Y-131695304D01*
X163013095Y-131695304D02*
X162965476Y-131790542D01*
X162965476Y-131790542D02*
X162917857Y-131981018D01*
X162917857Y-131981018D02*
X162917857Y-132123875D01*
X162917857Y-132123875D02*
X162965476Y-132314351D01*
X162965476Y-132314351D02*
X163013095Y-132409589D01*
X163013095Y-132409589D02*
X163108333Y-132504828D01*
X163108333Y-132504828D02*
X163251190Y-132552447D01*
X163251190Y-132552447D02*
X163489285Y-132552447D01*
X162536904Y-132266732D02*
X162060714Y-132266732D01*
X162632142Y-132552447D02*
X162298809Y-131552447D01*
X162298809Y-131552447D02*
X161965476Y-132552447D01*
X164465475Y-134114772D02*
X164322618Y-134162391D01*
X164322618Y-134162391D02*
X164084523Y-134162391D01*
X164084523Y-134162391D02*
X163989285Y-134114772D01*
X163989285Y-134114772D02*
X163941666Y-134067152D01*
X163941666Y-134067152D02*
X163894047Y-133971914D01*
X163894047Y-133971914D02*
X163894047Y-133876676D01*
X163894047Y-133876676D02*
X163941666Y-133781438D01*
X163941666Y-133781438D02*
X163989285Y-133733819D01*
X163989285Y-133733819D02*
X164084523Y-133686200D01*
X164084523Y-133686200D02*
X164274999Y-133638581D01*
X164274999Y-133638581D02*
X164370237Y-133590962D01*
X164370237Y-133590962D02*
X164417856Y-133543343D01*
X164417856Y-133543343D02*
X164465475Y-133448105D01*
X164465475Y-133448105D02*
X164465475Y-133352867D01*
X164465475Y-133352867D02*
X164417856Y-133257629D01*
X164417856Y-133257629D02*
X164370237Y-133210010D01*
X164370237Y-133210010D02*
X164274999Y-133162391D01*
X164274999Y-133162391D02*
X164036904Y-133162391D01*
X164036904Y-133162391D02*
X163894047Y-133210010D01*
X162894047Y-134067152D02*
X162941666Y-134114772D01*
X162941666Y-134114772D02*
X163084523Y-134162391D01*
X163084523Y-134162391D02*
X163179761Y-134162391D01*
X163179761Y-134162391D02*
X163322618Y-134114772D01*
X163322618Y-134114772D02*
X163417856Y-134019533D01*
X163417856Y-134019533D02*
X163465475Y-133924295D01*
X163465475Y-133924295D02*
X163513094Y-133733819D01*
X163513094Y-133733819D02*
X163513094Y-133590962D01*
X163513094Y-133590962D02*
X163465475Y-133400486D01*
X163465475Y-133400486D02*
X163417856Y-133305248D01*
X163417856Y-133305248D02*
X163322618Y-133210010D01*
X163322618Y-133210010D02*
X163179761Y-133162391D01*
X163179761Y-133162391D02*
X163084523Y-133162391D01*
X163084523Y-133162391D02*
X162941666Y-133210010D01*
X162941666Y-133210010D02*
X162894047Y-133257629D01*
X161989285Y-134162391D02*
X162465475Y-134162391D01*
X162465475Y-134162391D02*
X162465475Y-133162391D01*
X163894047Y-134772335D02*
X164370237Y-134772335D01*
X164370237Y-134772335D02*
X164417856Y-135248525D01*
X164417856Y-135248525D02*
X164370237Y-135200906D01*
X164370237Y-135200906D02*
X164274999Y-135153287D01*
X164274999Y-135153287D02*
X164036904Y-135153287D01*
X164036904Y-135153287D02*
X163941666Y-135200906D01*
X163941666Y-135200906D02*
X163894047Y-135248525D01*
X163894047Y-135248525D02*
X163846428Y-135343763D01*
X163846428Y-135343763D02*
X163846428Y-135581858D01*
X163846428Y-135581858D02*
X163894047Y-135677096D01*
X163894047Y-135677096D02*
X163941666Y-135724716D01*
X163941666Y-135724716D02*
X164036904Y-135772335D01*
X164036904Y-135772335D02*
X164274999Y-135772335D01*
X164274999Y-135772335D02*
X164370237Y-135724716D01*
X164370237Y-135724716D02*
X164417856Y-135677096D01*
X163513094Y-135105668D02*
X163274999Y-135772335D01*
X163274999Y-135772335D02*
X163036904Y-135105668D01*
X162227380Y-135105668D02*
X162227380Y-135772335D01*
X162465475Y-134724716D02*
X162703570Y-135439001D01*
X162703570Y-135439001D02*
X162084523Y-135439001D01*
X166569925Y-146972419D02*
X167046115Y-146972419D01*
X167046115Y-146972419D02*
X167046115Y-145972419D01*
X166236591Y-146448609D02*
X165903258Y-146448609D01*
X165760401Y-146972419D02*
X166236591Y-146972419D01*
X166236591Y-146972419D02*
X166236591Y-145972419D01*
X166236591Y-145972419D02*
X165760401Y-145972419D01*
X165331829Y-146972419D02*
X165331829Y-145972419D01*
X165331829Y-145972419D02*
X165093734Y-145972419D01*
X165093734Y-145972419D02*
X164950877Y-146020038D01*
X164950877Y-146020038D02*
X164855639Y-146115276D01*
X164855639Y-146115276D02*
X164808020Y-146210514D01*
X164808020Y-146210514D02*
X164760401Y-146400990D01*
X164760401Y-146400990D02*
X164760401Y-146543847D01*
X164760401Y-146543847D02*
X164808020Y-146734323D01*
X164808020Y-146734323D02*
X164855639Y-146829561D01*
X164855639Y-146829561D02*
X164950877Y-146924800D01*
X164950877Y-146924800D02*
X165093734Y-146972419D01*
X165093734Y-146972419D02*
X165331829Y-146972419D01*
X164379448Y-146924800D02*
X164284210Y-146972419D01*
X164284210Y-146972419D02*
X164093734Y-146972419D01*
X164093734Y-146972419D02*
X163998496Y-146924800D01*
X163998496Y-146924800D02*
X163950877Y-146829561D01*
X163950877Y-146829561D02*
X163950877Y-146781942D01*
X163950877Y-146781942D02*
X163998496Y-146686704D01*
X163998496Y-146686704D02*
X164093734Y-146639085D01*
X164093734Y-146639085D02*
X164236591Y-146639085D01*
X164236591Y-146639085D02*
X164331829Y-146591466D01*
X164331829Y-146591466D02*
X164379448Y-146496228D01*
X164379448Y-146496228D02*
X164379448Y-146448609D01*
X164379448Y-146448609D02*
X164331829Y-146353371D01*
X164331829Y-146353371D02*
X164236591Y-146305752D01*
X164236591Y-146305752D02*
X164093734Y-146305752D01*
X164093734Y-146305752D02*
X163998496Y-146353371D01*
X152974569Y-147122306D02*
X153022188Y-147217544D01*
X153022188Y-147217544D02*
X153022188Y-147360401D01*
X153022188Y-147360401D02*
X152974569Y-147503258D01*
X152974569Y-147503258D02*
X152879331Y-147598496D01*
X152879331Y-147598496D02*
X152784093Y-147646115D01*
X152784093Y-147646115D02*
X152593617Y-147693734D01*
X152593617Y-147693734D02*
X152450760Y-147693734D01*
X152450760Y-147693734D02*
X152260284Y-147646115D01*
X152260284Y-147646115D02*
X152165046Y-147598496D01*
X152165046Y-147598496D02*
X152069808Y-147503258D01*
X152069808Y-147503258D02*
X152022188Y-147360401D01*
X152022188Y-147360401D02*
X152022188Y-147265163D01*
X152022188Y-147265163D02*
X152069808Y-147122306D01*
X152069808Y-147122306D02*
X152117427Y-147074687D01*
X152117427Y-147074687D02*
X152450760Y-147074687D01*
X152450760Y-147074687D02*
X152450760Y-147265163D01*
X152022188Y-146646115D02*
X153022188Y-146646115D01*
X153022188Y-146646115D02*
X152022188Y-146074687D01*
X152022188Y-146074687D02*
X153022188Y-146074687D01*
X152022188Y-145598496D02*
X153022188Y-145598496D01*
X153022188Y-145598496D02*
X153022188Y-145360401D01*
X153022188Y-145360401D02*
X152974569Y-145217544D01*
X152974569Y-145217544D02*
X152879331Y-145122306D01*
X152879331Y-145122306D02*
X152784093Y-145074687D01*
X152784093Y-145074687D02*
X152593617Y-145027068D01*
X152593617Y-145027068D02*
X152450760Y-145027068D01*
X152450760Y-145027068D02*
X152260284Y-145074687D01*
X152260284Y-145074687D02*
X152165046Y-145122306D01*
X152165046Y-145122306D02*
X152069808Y-145217544D01*
X152069808Y-145217544D02*
X152022188Y-145360401D01*
X152022188Y-145360401D02*
X152022188Y-145598496D01*
X151078911Y-147693734D02*
X151078911Y-146979449D01*
X151507483Y-147408020D02*
X150221768Y-147693734D01*
X150650340Y-147074687D02*
X150650340Y-147788972D01*
X150221768Y-147360401D02*
X151507483Y-147074687D01*
X150936054Y-146312782D02*
X150936054Y-146646115D01*
X150412244Y-146646115D02*
X151412244Y-146646115D01*
X151412244Y-146646115D02*
X151412244Y-146169925D01*
X150697959Y-145836591D02*
X150697959Y-145360401D01*
X150412244Y-145931829D02*
X151412244Y-145598496D01*
X151412244Y-145598496D02*
X150412244Y-145265163D01*
X151412244Y-144931829D02*
X150602721Y-144931829D01*
X150602721Y-144931829D02*
X150507483Y-144884210D01*
X150507483Y-144884210D02*
X150459864Y-144836591D01*
X150459864Y-144836591D02*
X150412244Y-144741353D01*
X150412244Y-144741353D02*
X150412244Y-144550877D01*
X150412244Y-144550877D02*
X150459864Y-144455639D01*
X150459864Y-144455639D02*
X150507483Y-144408020D01*
X150507483Y-144408020D02*
X150602721Y-144360401D01*
X150602721Y-144360401D02*
X151412244Y-144360401D01*
X150412244Y-143408020D02*
X150412244Y-143884210D01*
X150412244Y-143884210D02*
X151412244Y-143884210D01*
X151412244Y-143217543D02*
X151412244Y-142646115D01*
X150412244Y-142931829D02*
X151412244Y-142931829D01*
X149326110Y-147312782D02*
X149278491Y-147169925D01*
X149278491Y-147169925D02*
X149230872Y-147122306D01*
X149230872Y-147122306D02*
X149135634Y-147074687D01*
X149135634Y-147074687D02*
X148992777Y-147074687D01*
X148992777Y-147074687D02*
X148897539Y-147122306D01*
X148897539Y-147122306D02*
X148849920Y-147169925D01*
X148849920Y-147169925D02*
X148802300Y-147265163D01*
X148802300Y-147265163D02*
X148802300Y-147646115D01*
X148802300Y-147646115D02*
X149802300Y-147646115D01*
X149802300Y-147646115D02*
X149802300Y-147312782D01*
X149802300Y-147312782D02*
X149754681Y-147217544D01*
X149754681Y-147217544D02*
X149707062Y-147169925D01*
X149707062Y-147169925D02*
X149611824Y-147122306D01*
X149611824Y-147122306D02*
X149516586Y-147122306D01*
X149516586Y-147122306D02*
X149421348Y-147169925D01*
X149421348Y-147169925D02*
X149373729Y-147217544D01*
X149373729Y-147217544D02*
X149326110Y-147312782D01*
X149326110Y-147312782D02*
X149326110Y-147646115D01*
X148802300Y-146074687D02*
X149278491Y-146408020D01*
X148802300Y-146646115D02*
X149802300Y-146646115D01*
X149802300Y-146646115D02*
X149802300Y-146265163D01*
X149802300Y-146265163D02*
X149754681Y-146169925D01*
X149754681Y-146169925D02*
X149707062Y-146122306D01*
X149707062Y-146122306D02*
X149611824Y-146074687D01*
X149611824Y-146074687D02*
X149468967Y-146074687D01*
X149468967Y-146074687D02*
X149373729Y-146122306D01*
X149373729Y-146122306D02*
X149326110Y-146169925D01*
X149326110Y-146169925D02*
X149278491Y-146265163D01*
X149278491Y-146265163D02*
X149278491Y-146646115D01*
X149088015Y-145693734D02*
X149088015Y-145217544D01*
X148802300Y-145788972D02*
X149802300Y-145455639D01*
X149802300Y-145455639D02*
X148802300Y-145122306D01*
X148802300Y-144788972D02*
X149802300Y-144788972D01*
X148802300Y-144217544D02*
X149373729Y-144646115D01*
X149802300Y-144217544D02*
X149230872Y-144788972D01*
X149326110Y-143788972D02*
X149326110Y-143455639D01*
X148802300Y-143312782D02*
X148802300Y-143788972D01*
X148802300Y-143788972D02*
X149802300Y-143788972D01*
X149802300Y-143788972D02*
X149802300Y-143312782D01*
X147192356Y-147646115D02*
X148192356Y-147646115D01*
X148192356Y-147646115D02*
X147478071Y-147312782D01*
X147478071Y-147312782D02*
X148192356Y-146979449D01*
X148192356Y-146979449D02*
X147192356Y-146979449D01*
X147192356Y-146503258D02*
X148192356Y-146503258D01*
X148192356Y-146503258D02*
X148192356Y-146122306D01*
X148192356Y-146122306D02*
X148144737Y-146027068D01*
X148144737Y-146027068D02*
X148097118Y-145979449D01*
X148097118Y-145979449D02*
X148001880Y-145931830D01*
X148001880Y-145931830D02*
X147859023Y-145931830D01*
X147859023Y-145931830D02*
X147763785Y-145979449D01*
X147763785Y-145979449D02*
X147716166Y-146027068D01*
X147716166Y-146027068D02*
X147668547Y-146122306D01*
X147668547Y-146122306D02*
X147668547Y-146503258D01*
X147192356Y-145503258D02*
X148192356Y-145503258D01*
X148192356Y-144836592D02*
X148192356Y-144646116D01*
X148192356Y-144646116D02*
X148144737Y-144550878D01*
X148144737Y-144550878D02*
X148049499Y-144455640D01*
X148049499Y-144455640D02*
X147859023Y-144408021D01*
X147859023Y-144408021D02*
X147525690Y-144408021D01*
X147525690Y-144408021D02*
X147335214Y-144455640D01*
X147335214Y-144455640D02*
X147239976Y-144550878D01*
X147239976Y-144550878D02*
X147192356Y-144646116D01*
X147192356Y-144646116D02*
X147192356Y-144836592D01*
X147192356Y-144836592D02*
X147239976Y-144931830D01*
X147239976Y-144931830D02*
X147335214Y-145027068D01*
X147335214Y-145027068D02*
X147525690Y-145074687D01*
X147525690Y-145074687D02*
X147859023Y-145074687D01*
X147859023Y-145074687D02*
X148049499Y-145027068D01*
X148049499Y-145027068D02*
X148144737Y-144931830D01*
X148144737Y-144931830D02*
X148192356Y-144836592D01*
X145582412Y-147646115D02*
X146582412Y-147646115D01*
X146582412Y-147646115D02*
X146582412Y-147408020D01*
X146582412Y-147408020D02*
X146534793Y-147265163D01*
X146534793Y-147265163D02*
X146439555Y-147169925D01*
X146439555Y-147169925D02*
X146344317Y-147122306D01*
X146344317Y-147122306D02*
X146153841Y-147074687D01*
X146153841Y-147074687D02*
X146010984Y-147074687D01*
X146010984Y-147074687D02*
X145820508Y-147122306D01*
X145820508Y-147122306D02*
X145725270Y-147169925D01*
X145725270Y-147169925D02*
X145630032Y-147265163D01*
X145630032Y-147265163D02*
X145582412Y-147408020D01*
X145582412Y-147408020D02*
X145582412Y-147646115D01*
X145582412Y-146646115D02*
X146582412Y-146646115D01*
X145582412Y-145598497D02*
X146058603Y-145931830D01*
X145582412Y-146169925D02*
X146582412Y-146169925D01*
X146582412Y-146169925D02*
X146582412Y-145788973D01*
X146582412Y-145788973D02*
X146534793Y-145693735D01*
X146534793Y-145693735D02*
X146487174Y-145646116D01*
X146487174Y-145646116D02*
X146391936Y-145598497D01*
X146391936Y-145598497D02*
X146249079Y-145598497D01*
X146249079Y-145598497D02*
X146153841Y-145646116D01*
X146153841Y-145646116D02*
X146106222Y-145693735D01*
X146106222Y-145693735D02*
X146058603Y-145788973D01*
X146058603Y-145788973D02*
X146058603Y-146169925D01*
X144496278Y-147312782D02*
X144496278Y-147646115D01*
X143972468Y-147646115D02*
X144972468Y-147646115D01*
X144972468Y-147646115D02*
X144972468Y-147169925D01*
X144924849Y-146265163D02*
X144972468Y-146360401D01*
X144972468Y-146360401D02*
X144972468Y-146503258D01*
X144972468Y-146503258D02*
X144924849Y-146646115D01*
X144924849Y-146646115D02*
X144829611Y-146741353D01*
X144829611Y-146741353D02*
X144734373Y-146788972D01*
X144734373Y-146788972D02*
X144543897Y-146836591D01*
X144543897Y-146836591D02*
X144401040Y-146836591D01*
X144401040Y-146836591D02*
X144210564Y-146788972D01*
X144210564Y-146788972D02*
X144115326Y-146741353D01*
X144115326Y-146741353D02*
X144020088Y-146646115D01*
X144020088Y-146646115D02*
X143972468Y-146503258D01*
X143972468Y-146503258D02*
X143972468Y-146408020D01*
X143972468Y-146408020D02*
X144020088Y-146265163D01*
X144020088Y-146265163D02*
X144067707Y-146217544D01*
X144067707Y-146217544D02*
X144401040Y-146217544D01*
X144401040Y-146217544D02*
X144401040Y-146408020D01*
X142410144Y-147693734D02*
X142362524Y-147550877D01*
X142362524Y-147550877D02*
X142362524Y-147312782D01*
X142362524Y-147312782D02*
X142410144Y-147217544D01*
X142410144Y-147217544D02*
X142457763Y-147169925D01*
X142457763Y-147169925D02*
X142553001Y-147122306D01*
X142553001Y-147122306D02*
X142648239Y-147122306D01*
X142648239Y-147122306D02*
X142743477Y-147169925D01*
X142743477Y-147169925D02*
X142791096Y-147217544D01*
X142791096Y-147217544D02*
X142838715Y-147312782D01*
X142838715Y-147312782D02*
X142886334Y-147503258D01*
X142886334Y-147503258D02*
X142933953Y-147598496D01*
X142933953Y-147598496D02*
X142981572Y-147646115D01*
X142981572Y-147646115D02*
X143076810Y-147693734D01*
X143076810Y-147693734D02*
X143172048Y-147693734D01*
X143172048Y-147693734D02*
X143267286Y-147646115D01*
X143267286Y-147646115D02*
X143314905Y-147598496D01*
X143314905Y-147598496D02*
X143362524Y-147503258D01*
X143362524Y-147503258D02*
X143362524Y-147265163D01*
X143362524Y-147265163D02*
X143314905Y-147122306D01*
X142362524Y-146693734D02*
X143362524Y-146693734D01*
X143362524Y-146693734D02*
X143362524Y-146312782D01*
X143362524Y-146312782D02*
X143314905Y-146217544D01*
X143314905Y-146217544D02*
X143267286Y-146169925D01*
X143267286Y-146169925D02*
X143172048Y-146122306D01*
X143172048Y-146122306D02*
X143029191Y-146122306D01*
X143029191Y-146122306D02*
X142933953Y-146169925D01*
X142933953Y-146169925D02*
X142886334Y-146217544D01*
X142886334Y-146217544D02*
X142838715Y-146312782D01*
X142838715Y-146312782D02*
X142838715Y-146693734D01*
X142886334Y-145693734D02*
X142886334Y-145360401D01*
X142362524Y-145217544D02*
X142362524Y-145693734D01*
X142362524Y-145693734D02*
X143362524Y-145693734D01*
X143362524Y-145693734D02*
X143362524Y-145217544D01*
X142886334Y-144788972D02*
X142886334Y-144455639D01*
X142362524Y-144312782D02*
X142362524Y-144788972D01*
X142362524Y-144788972D02*
X143362524Y-144788972D01*
X143362524Y-144788972D02*
X143362524Y-144312782D01*
X142362524Y-143884210D02*
X143362524Y-143884210D01*
X143362524Y-143884210D02*
X143362524Y-143646115D01*
X143362524Y-143646115D02*
X143314905Y-143503258D01*
X143314905Y-143503258D02*
X143219667Y-143408020D01*
X143219667Y-143408020D02*
X143124429Y-143360401D01*
X143124429Y-143360401D02*
X142933953Y-143312782D01*
X142933953Y-143312782D02*
X142791096Y-143312782D01*
X142791096Y-143312782D02*
X142600620Y-143360401D01*
X142600620Y-143360401D02*
X142505382Y-143408020D01*
X142505382Y-143408020D02*
X142410144Y-143503258D01*
X142410144Y-143503258D02*
X142362524Y-143646115D01*
X142362524Y-143646115D02*
X142362524Y-143884210D01*
X140752580Y-147646115D02*
X141752580Y-147646115D01*
X141752580Y-147646115D02*
X141752580Y-147408020D01*
X141752580Y-147408020D02*
X141704961Y-147265163D01*
X141704961Y-147265163D02*
X141609723Y-147169925D01*
X141609723Y-147169925D02*
X141514485Y-147122306D01*
X141514485Y-147122306D02*
X141324009Y-147074687D01*
X141324009Y-147074687D02*
X141181152Y-147074687D01*
X141181152Y-147074687D02*
X140990676Y-147122306D01*
X140990676Y-147122306D02*
X140895438Y-147169925D01*
X140895438Y-147169925D02*
X140800200Y-147265163D01*
X140800200Y-147265163D02*
X140752580Y-147408020D01*
X140752580Y-147408020D02*
X140752580Y-147646115D01*
X140752580Y-146074687D02*
X141228771Y-146408020D01*
X140752580Y-146646115D02*
X141752580Y-146646115D01*
X141752580Y-146646115D02*
X141752580Y-146265163D01*
X141752580Y-146265163D02*
X141704961Y-146169925D01*
X141704961Y-146169925D02*
X141657342Y-146122306D01*
X141657342Y-146122306D02*
X141562104Y-146074687D01*
X141562104Y-146074687D02*
X141419247Y-146074687D01*
X141419247Y-146074687D02*
X141324009Y-146122306D01*
X141324009Y-146122306D02*
X141276390Y-146169925D01*
X141276390Y-146169925D02*
X141228771Y-146265163D01*
X141228771Y-146265163D02*
X141228771Y-146646115D01*
X141752580Y-145788972D02*
X140752580Y-145455639D01*
X140752580Y-145455639D02*
X141752580Y-145122306D01*
X140657342Y-145027068D02*
X140657342Y-144265163D01*
X141752580Y-143836591D02*
X141752580Y-143646115D01*
X141752580Y-143646115D02*
X141704961Y-143550877D01*
X141704961Y-143550877D02*
X141609723Y-143455639D01*
X141609723Y-143455639D02*
X141419247Y-143408020D01*
X141419247Y-143408020D02*
X141085914Y-143408020D01*
X141085914Y-143408020D02*
X140895438Y-143455639D01*
X140895438Y-143455639D02*
X140800200Y-143550877D01*
X140800200Y-143550877D02*
X140752580Y-143646115D01*
X140752580Y-143646115D02*
X140752580Y-143836591D01*
X140752580Y-143836591D02*
X140800200Y-143931829D01*
X140800200Y-143931829D02*
X140895438Y-144027067D01*
X140895438Y-144027067D02*
X141085914Y-144074686D01*
X141085914Y-144074686D02*
X141419247Y-144074686D01*
X141419247Y-144074686D02*
X141609723Y-144027067D01*
X141609723Y-144027067D02*
X141704961Y-143931829D01*
X141704961Y-143931829D02*
X141752580Y-143836591D01*
X141276390Y-142646115D02*
X141276390Y-142979448D01*
X140752580Y-142979448D02*
X141752580Y-142979448D01*
X141752580Y-142979448D02*
X141752580Y-142503258D01*
X141276390Y-141788972D02*
X141276390Y-142122305D01*
X140752580Y-142122305D02*
X141752580Y-142122305D01*
X141752580Y-142122305D02*
X141752580Y-141646115D01*
D14*
X152371427Y-125051080D02*
X151742855Y-125051080D01*
X152057141Y-126151080D02*
X152057141Y-125051080D01*
X151376189Y-126151080D02*
X151376189Y-125051080D01*
X150904760Y-126151080D02*
X150904760Y-125574890D01*
X150904760Y-125574890D02*
X150957141Y-125470128D01*
X150957141Y-125470128D02*
X151061903Y-125417747D01*
X151061903Y-125417747D02*
X151219046Y-125417747D01*
X151219046Y-125417747D02*
X151323808Y-125470128D01*
X151323808Y-125470128D02*
X151376189Y-125522509D01*
X149909522Y-125417747D02*
X149909522Y-126151080D01*
X150380951Y-125417747D02*
X150380951Y-125993938D01*
X150380951Y-125993938D02*
X150328570Y-126098700D01*
X150328570Y-126098700D02*
X150223808Y-126151080D01*
X150223808Y-126151080D02*
X150066665Y-126151080D01*
X150066665Y-126151080D02*
X149961903Y-126098700D01*
X149961903Y-126098700D02*
X149909522Y-126046319D01*
X149385713Y-125417747D02*
X149385713Y-126151080D01*
X149385713Y-125522509D02*
X149333332Y-125470128D01*
X149333332Y-125470128D02*
X149228570Y-125417747D01*
X149228570Y-125417747D02*
X149071427Y-125417747D01*
X149071427Y-125417747D02*
X148966665Y-125470128D01*
X148966665Y-125470128D02*
X148914284Y-125574890D01*
X148914284Y-125574890D02*
X148914284Y-126151080D01*
X147919046Y-126151080D02*
X147919046Y-125051080D01*
X147919046Y-126098700D02*
X148023808Y-126151080D01*
X148023808Y-126151080D02*
X148233332Y-126151080D01*
X148233332Y-126151080D02*
X148338094Y-126098700D01*
X148338094Y-126098700D02*
X148390475Y-126046319D01*
X148390475Y-126046319D02*
X148442856Y-125941557D01*
X148442856Y-125941557D02*
X148442856Y-125627271D01*
X148442856Y-125627271D02*
X148390475Y-125522509D01*
X148390475Y-125522509D02*
X148338094Y-125470128D01*
X148338094Y-125470128D02*
X148233332Y-125417747D01*
X148233332Y-125417747D02*
X148023808Y-125417747D01*
X148023808Y-125417747D02*
X147919046Y-125470128D01*
X146976189Y-126098700D02*
X147080951Y-126151080D01*
X147080951Y-126151080D02*
X147290475Y-126151080D01*
X147290475Y-126151080D02*
X147395237Y-126098700D01*
X147395237Y-126098700D02*
X147447618Y-125993938D01*
X147447618Y-125993938D02*
X147447618Y-125574890D01*
X147447618Y-125574890D02*
X147395237Y-125470128D01*
X147395237Y-125470128D02*
X147290475Y-125417747D01*
X147290475Y-125417747D02*
X147080951Y-125417747D01*
X147080951Y-125417747D02*
X146976189Y-125470128D01*
X146976189Y-125470128D02*
X146923808Y-125574890D01*
X146923808Y-125574890D02*
X146923808Y-125679652D01*
X146923808Y-125679652D02*
X147447618Y-125784414D01*
X146452380Y-126151080D02*
X146452380Y-125417747D01*
X146452380Y-125627271D02*
X146399999Y-125522509D01*
X146399999Y-125522509D02*
X146347618Y-125470128D01*
X146347618Y-125470128D02*
X146242856Y-125417747D01*
X146242856Y-125417747D02*
X146138094Y-125417747D01*
X145404761Y-125574890D02*
X145771428Y-125574890D01*
X145771428Y-126151080D02*
X145771428Y-125051080D01*
X145771428Y-125051080D02*
X145247618Y-125051080D01*
X144671428Y-126151080D02*
X144776190Y-126098700D01*
X144776190Y-126098700D02*
X144828571Y-125993938D01*
X144828571Y-125993938D02*
X144828571Y-125051080D01*
X144357143Y-125417747D02*
X144095238Y-126151080D01*
X143833333Y-125417747D02*
X144095238Y-126151080D01*
X144095238Y-126151080D02*
X144200000Y-126412985D01*
X144200000Y-126412985D02*
X144252381Y-126465366D01*
X144252381Y-126465366D02*
X144357143Y-126517747D01*
X143361905Y-126098700D02*
X143361905Y-126151080D01*
X143361905Y-126151080D02*
X143414286Y-126255842D01*
X143414286Y-126255842D02*
X143466667Y-126308223D01*
X142104762Y-125155842D02*
X142052381Y-125103461D01*
X142052381Y-125103461D02*
X141947619Y-125051080D01*
X141947619Y-125051080D02*
X141685714Y-125051080D01*
X141685714Y-125051080D02*
X141580952Y-125103461D01*
X141580952Y-125103461D02*
X141528571Y-125155842D01*
X141528571Y-125155842D02*
X141476190Y-125260604D01*
X141476190Y-125260604D02*
X141476190Y-125365366D01*
X141476190Y-125365366D02*
X141528571Y-125522509D01*
X141528571Y-125522509D02*
X142157143Y-126151080D01*
X142157143Y-126151080D02*
X141476190Y-126151080D01*
X140795238Y-125051080D02*
X140690476Y-125051080D01*
X140690476Y-125051080D02*
X140585714Y-125103461D01*
X140585714Y-125103461D02*
X140533333Y-125155842D01*
X140533333Y-125155842D02*
X140480952Y-125260604D01*
X140480952Y-125260604D02*
X140428571Y-125470128D01*
X140428571Y-125470128D02*
X140428571Y-125732033D01*
X140428571Y-125732033D02*
X140480952Y-125941557D01*
X140480952Y-125941557D02*
X140533333Y-126046319D01*
X140533333Y-126046319D02*
X140585714Y-126098700D01*
X140585714Y-126098700D02*
X140690476Y-126151080D01*
X140690476Y-126151080D02*
X140795238Y-126151080D01*
X140795238Y-126151080D02*
X140900000Y-126098700D01*
X140900000Y-126098700D02*
X140952381Y-126046319D01*
X140952381Y-126046319D02*
X141004762Y-125941557D01*
X141004762Y-125941557D02*
X141057143Y-125732033D01*
X141057143Y-125732033D02*
X141057143Y-125470128D01*
X141057143Y-125470128D02*
X141004762Y-125260604D01*
X141004762Y-125260604D02*
X140952381Y-125155842D01*
X140952381Y-125155842D02*
X140900000Y-125103461D01*
X140900000Y-125103461D02*
X140795238Y-125051080D01*
X140009524Y-125155842D02*
X139957143Y-125103461D01*
X139957143Y-125103461D02*
X139852381Y-125051080D01*
X139852381Y-125051080D02*
X139590476Y-125051080D01*
X139590476Y-125051080D02*
X139485714Y-125103461D01*
X139485714Y-125103461D02*
X139433333Y-125155842D01*
X139433333Y-125155842D02*
X139380952Y-125260604D01*
X139380952Y-125260604D02*
X139380952Y-125365366D01*
X139380952Y-125365366D02*
X139433333Y-125522509D01*
X139433333Y-125522509D02*
X140061905Y-126151080D01*
X140061905Y-126151080D02*
X139380952Y-126151080D01*
X138438095Y-125417747D02*
X138438095Y-126151080D01*
X138700000Y-124998700D02*
X138961905Y-125784414D01*
X138961905Y-125784414D02*
X138280952Y-125784414D01*
X160640477Y-128839819D02*
X160640477Y-127839819D01*
X160640477Y-128316009D02*
X160069049Y-128316009D01*
X160069049Y-128839819D02*
X160069049Y-127839819D01*
X159592858Y-128839819D02*
X159592858Y-128173152D01*
X159592858Y-127839819D02*
X159640477Y-127887438D01*
X159640477Y-127887438D02*
X159592858Y-127935057D01*
X159592858Y-127935057D02*
X159545239Y-127887438D01*
X159545239Y-127887438D02*
X159592858Y-127839819D01*
X159592858Y-127839819D02*
X159592858Y-127935057D01*
X158688097Y-128173152D02*
X158688097Y-128982676D01*
X158688097Y-128982676D02*
X158735716Y-129077914D01*
X158735716Y-129077914D02*
X158783335Y-129125533D01*
X158783335Y-129125533D02*
X158878573Y-129173152D01*
X158878573Y-129173152D02*
X159021430Y-129173152D01*
X159021430Y-129173152D02*
X159116668Y-129125533D01*
X158688097Y-128792200D02*
X158783335Y-128839819D01*
X158783335Y-128839819D02*
X158973811Y-128839819D01*
X158973811Y-128839819D02*
X159069049Y-128792200D01*
X159069049Y-128792200D02*
X159116668Y-128744580D01*
X159116668Y-128744580D02*
X159164287Y-128649342D01*
X159164287Y-128649342D02*
X159164287Y-128363628D01*
X159164287Y-128363628D02*
X159116668Y-128268390D01*
X159116668Y-128268390D02*
X159069049Y-128220771D01*
X159069049Y-128220771D02*
X158973811Y-128173152D01*
X158973811Y-128173152D02*
X158783335Y-128173152D01*
X158783335Y-128173152D02*
X158688097Y-128220771D01*
X158211906Y-128839819D02*
X158211906Y-127839819D01*
X157783335Y-128839819D02*
X157783335Y-128316009D01*
X157783335Y-128316009D02*
X157830954Y-128220771D01*
X157830954Y-128220771D02*
X157926192Y-128173152D01*
X157926192Y-128173152D02*
X158069049Y-128173152D01*
X158069049Y-128173152D02*
X158164287Y-128220771D01*
X158164287Y-128220771D02*
X158211906Y-128268390D01*
X156545239Y-128173152D02*
X156545239Y-129173152D01*
X156545239Y-128220771D02*
X156450001Y-128173152D01*
X156450001Y-128173152D02*
X156259525Y-128173152D01*
X156259525Y-128173152D02*
X156164287Y-128220771D01*
X156164287Y-128220771D02*
X156116668Y-128268390D01*
X156116668Y-128268390D02*
X156069049Y-128363628D01*
X156069049Y-128363628D02*
X156069049Y-128649342D01*
X156069049Y-128649342D02*
X156116668Y-128744580D01*
X156116668Y-128744580D02*
X156164287Y-128792200D01*
X156164287Y-128792200D02*
X156259525Y-128839819D01*
X156259525Y-128839819D02*
X156450001Y-128839819D01*
X156450001Y-128839819D02*
X156545239Y-128792200D01*
X155259525Y-128792200D02*
X155354763Y-128839819D01*
X155354763Y-128839819D02*
X155545239Y-128839819D01*
X155545239Y-128839819D02*
X155640477Y-128792200D01*
X155640477Y-128792200D02*
X155688096Y-128696961D01*
X155688096Y-128696961D02*
X155688096Y-128316009D01*
X155688096Y-128316009D02*
X155640477Y-128220771D01*
X155640477Y-128220771D02*
X155545239Y-128173152D01*
X155545239Y-128173152D02*
X155354763Y-128173152D01*
X155354763Y-128173152D02*
X155259525Y-128220771D01*
X155259525Y-128220771D02*
X155211906Y-128316009D01*
X155211906Y-128316009D02*
X155211906Y-128411247D01*
X155211906Y-128411247D02*
X155688096Y-128506485D01*
X154783334Y-128839819D02*
X154783334Y-128173152D01*
X154783334Y-128363628D02*
X154735715Y-128268390D01*
X154735715Y-128268390D02*
X154688096Y-128220771D01*
X154688096Y-128220771D02*
X154592858Y-128173152D01*
X154592858Y-128173152D02*
X154497620Y-128173152D01*
X154307143Y-128173152D02*
X153926191Y-128173152D01*
X154164286Y-128839819D02*
X154164286Y-127982676D01*
X154164286Y-127982676D02*
X154116667Y-127887438D01*
X154116667Y-127887438D02*
X154021429Y-127839819D01*
X154021429Y-127839819D02*
X153926191Y-127839819D01*
X153450000Y-128839819D02*
X153545238Y-128792200D01*
X153545238Y-128792200D02*
X153592857Y-128744580D01*
X153592857Y-128744580D02*
X153640476Y-128649342D01*
X153640476Y-128649342D02*
X153640476Y-128363628D01*
X153640476Y-128363628D02*
X153592857Y-128268390D01*
X153592857Y-128268390D02*
X153545238Y-128220771D01*
X153545238Y-128220771D02*
X153450000Y-128173152D01*
X153450000Y-128173152D02*
X153307143Y-128173152D01*
X153307143Y-128173152D02*
X153211905Y-128220771D01*
X153211905Y-128220771D02*
X153164286Y-128268390D01*
X153164286Y-128268390D02*
X153116667Y-128363628D01*
X153116667Y-128363628D02*
X153116667Y-128649342D01*
X153116667Y-128649342D02*
X153164286Y-128744580D01*
X153164286Y-128744580D02*
X153211905Y-128792200D01*
X153211905Y-128792200D02*
X153307143Y-128839819D01*
X153307143Y-128839819D02*
X153450000Y-128839819D01*
X152688095Y-128839819D02*
X152688095Y-128173152D01*
X152688095Y-128363628D02*
X152640476Y-128268390D01*
X152640476Y-128268390D02*
X152592857Y-128220771D01*
X152592857Y-128220771D02*
X152497619Y-128173152D01*
X152497619Y-128173152D02*
X152402381Y-128173152D01*
X152069047Y-128839819D02*
X152069047Y-128173152D01*
X152069047Y-128268390D02*
X152021428Y-128220771D01*
X152021428Y-128220771D02*
X151926190Y-128173152D01*
X151926190Y-128173152D02*
X151783333Y-128173152D01*
X151783333Y-128173152D02*
X151688095Y-128220771D01*
X151688095Y-128220771D02*
X151640476Y-128316009D01*
X151640476Y-128316009D02*
X151640476Y-128839819D01*
X151640476Y-128316009D02*
X151592857Y-128220771D01*
X151592857Y-128220771D02*
X151497619Y-128173152D01*
X151497619Y-128173152D02*
X151354762Y-128173152D01*
X151354762Y-128173152D02*
X151259523Y-128220771D01*
X151259523Y-128220771D02*
X151211904Y-128316009D01*
X151211904Y-128316009D02*
X151211904Y-128839819D01*
X150307143Y-128839819D02*
X150307143Y-128316009D01*
X150307143Y-128316009D02*
X150354762Y-128220771D01*
X150354762Y-128220771D02*
X150450000Y-128173152D01*
X150450000Y-128173152D02*
X150640476Y-128173152D01*
X150640476Y-128173152D02*
X150735714Y-128220771D01*
X150307143Y-128792200D02*
X150402381Y-128839819D01*
X150402381Y-128839819D02*
X150640476Y-128839819D01*
X150640476Y-128839819D02*
X150735714Y-128792200D01*
X150735714Y-128792200D02*
X150783333Y-128696961D01*
X150783333Y-128696961D02*
X150783333Y-128601723D01*
X150783333Y-128601723D02*
X150735714Y-128506485D01*
X150735714Y-128506485D02*
X150640476Y-128458866D01*
X150640476Y-128458866D02*
X150402381Y-128458866D01*
X150402381Y-128458866D02*
X150307143Y-128411247D01*
X149830952Y-128173152D02*
X149830952Y-128839819D01*
X149830952Y-128268390D02*
X149783333Y-128220771D01*
X149783333Y-128220771D02*
X149688095Y-128173152D01*
X149688095Y-128173152D02*
X149545238Y-128173152D01*
X149545238Y-128173152D02*
X149450000Y-128220771D01*
X149450000Y-128220771D02*
X149402381Y-128316009D01*
X149402381Y-128316009D02*
X149402381Y-128839819D01*
X148497619Y-128792200D02*
X148592857Y-128839819D01*
X148592857Y-128839819D02*
X148783333Y-128839819D01*
X148783333Y-128839819D02*
X148878571Y-128792200D01*
X148878571Y-128792200D02*
X148926190Y-128744580D01*
X148926190Y-128744580D02*
X148973809Y-128649342D01*
X148973809Y-128649342D02*
X148973809Y-128363628D01*
X148973809Y-128363628D02*
X148926190Y-128268390D01*
X148926190Y-128268390D02*
X148878571Y-128220771D01*
X148878571Y-128220771D02*
X148783333Y-128173152D01*
X148783333Y-128173152D02*
X148592857Y-128173152D01*
X148592857Y-128173152D02*
X148497619Y-128220771D01*
X147688095Y-128792200D02*
X147783333Y-128839819D01*
X147783333Y-128839819D02*
X147973809Y-128839819D01*
X147973809Y-128839819D02*
X148069047Y-128792200D01*
X148069047Y-128792200D02*
X148116666Y-128696961D01*
X148116666Y-128696961D02*
X148116666Y-128316009D01*
X148116666Y-128316009D02*
X148069047Y-128220771D01*
X148069047Y-128220771D02*
X147973809Y-128173152D01*
X147973809Y-128173152D02*
X147783333Y-128173152D01*
X147783333Y-128173152D02*
X147688095Y-128220771D01*
X147688095Y-128220771D02*
X147640476Y-128316009D01*
X147640476Y-128316009D02*
X147640476Y-128411247D01*
X147640476Y-128411247D02*
X148116666Y-128506485D01*
X146116666Y-128316009D02*
X146449999Y-128316009D01*
X146449999Y-128839819D02*
X146449999Y-127839819D01*
X146449999Y-127839819D02*
X145973809Y-127839819D01*
X145402380Y-127839819D02*
X145211904Y-127839819D01*
X145211904Y-127839819D02*
X145116666Y-127887438D01*
X145116666Y-127887438D02*
X145021428Y-127982676D01*
X145021428Y-127982676D02*
X144973809Y-128173152D01*
X144973809Y-128173152D02*
X144973809Y-128506485D01*
X144973809Y-128506485D02*
X145021428Y-128696961D01*
X145021428Y-128696961D02*
X145116666Y-128792200D01*
X145116666Y-128792200D02*
X145211904Y-128839819D01*
X145211904Y-128839819D02*
X145402380Y-128839819D01*
X145402380Y-128839819D02*
X145497618Y-128792200D01*
X145497618Y-128792200D02*
X145592856Y-128696961D01*
X145592856Y-128696961D02*
X145640475Y-128506485D01*
X145640475Y-128506485D02*
X145640475Y-128173152D01*
X145640475Y-128173152D02*
X145592856Y-127982676D01*
X145592856Y-127982676D02*
X145497618Y-127887438D01*
X145497618Y-127887438D02*
X145402380Y-127839819D01*
X143973809Y-128744580D02*
X144021428Y-128792200D01*
X144021428Y-128792200D02*
X144164285Y-128839819D01*
X144164285Y-128839819D02*
X144259523Y-128839819D01*
X144259523Y-128839819D02*
X144402380Y-128792200D01*
X144402380Y-128792200D02*
X144497618Y-128696961D01*
X144497618Y-128696961D02*
X144545237Y-128601723D01*
X144545237Y-128601723D02*
X144592856Y-128411247D01*
X144592856Y-128411247D02*
X144592856Y-128268390D01*
X144592856Y-128268390D02*
X144545237Y-128077914D01*
X144545237Y-128077914D02*
X144497618Y-127982676D01*
X144497618Y-127982676D02*
X144402380Y-127887438D01*
X144402380Y-127887438D02*
X144259523Y-127839819D01*
X144259523Y-127839819D02*
X144164285Y-127839819D01*
X144164285Y-127839819D02*
X144021428Y-127887438D01*
X144021428Y-127887438D02*
X143973809Y-127935057D01*
X142783332Y-128839819D02*
X142783332Y-127839819D01*
X142354761Y-127935057D02*
X142307142Y-127887438D01*
X142307142Y-127887438D02*
X142211904Y-127839819D01*
X142211904Y-127839819D02*
X141973809Y-127839819D01*
X141973809Y-127839819D02*
X141878571Y-127887438D01*
X141878571Y-127887438D02*
X141830952Y-127935057D01*
X141830952Y-127935057D02*
X141783333Y-128030295D01*
X141783333Y-128030295D02*
X141783333Y-128125533D01*
X141783333Y-128125533D02*
X141830952Y-128268390D01*
X141830952Y-128268390D02*
X142402380Y-128839819D01*
X142402380Y-128839819D02*
X141783333Y-128839819D01*
X140783333Y-128744580D02*
X140830952Y-128792200D01*
X140830952Y-128792200D02*
X140973809Y-128839819D01*
X140973809Y-128839819D02*
X141069047Y-128839819D01*
X141069047Y-128839819D02*
X141211904Y-128792200D01*
X141211904Y-128792200D02*
X141307142Y-128696961D01*
X141307142Y-128696961D02*
X141354761Y-128601723D01*
X141354761Y-128601723D02*
X141402380Y-128411247D01*
X141402380Y-128411247D02*
X141402380Y-128268390D01*
X141402380Y-128268390D02*
X141354761Y-128077914D01*
X141354761Y-128077914D02*
X141307142Y-127982676D01*
X141307142Y-127982676D02*
X141211904Y-127887438D01*
X141211904Y-127887438D02*
X141069047Y-127839819D01*
X141069047Y-127839819D02*
X140973809Y-127839819D01*
X140973809Y-127839819D02*
X140830952Y-127887438D01*
X140830952Y-127887438D02*
X140783333Y-127935057D01*
X139592856Y-128839819D02*
X139592856Y-128173152D01*
X139592856Y-128268390D02*
X139545237Y-128220771D01*
X139545237Y-128220771D02*
X139449999Y-128173152D01*
X139449999Y-128173152D02*
X139307142Y-128173152D01*
X139307142Y-128173152D02*
X139211904Y-128220771D01*
X139211904Y-128220771D02*
X139164285Y-128316009D01*
X139164285Y-128316009D02*
X139164285Y-128839819D01*
X139164285Y-128316009D02*
X139116666Y-128220771D01*
X139116666Y-128220771D02*
X139021428Y-128173152D01*
X139021428Y-128173152D02*
X138878571Y-128173152D01*
X138878571Y-128173152D02*
X138783332Y-128220771D01*
X138783332Y-128220771D02*
X138735713Y-128316009D01*
X138735713Y-128316009D02*
X138735713Y-128839819D01*
X138116666Y-128839819D02*
X138211904Y-128792200D01*
X138211904Y-128792200D02*
X138259523Y-128744580D01*
X138259523Y-128744580D02*
X138307142Y-128649342D01*
X138307142Y-128649342D02*
X138307142Y-128363628D01*
X138307142Y-128363628D02*
X138259523Y-128268390D01*
X138259523Y-128268390D02*
X138211904Y-128220771D01*
X138211904Y-128220771D02*
X138116666Y-128173152D01*
X138116666Y-128173152D02*
X137973809Y-128173152D01*
X137973809Y-128173152D02*
X137878571Y-128220771D01*
X137878571Y-128220771D02*
X137830952Y-128268390D01*
X137830952Y-128268390D02*
X137783333Y-128363628D01*
X137783333Y-128363628D02*
X137783333Y-128649342D01*
X137783333Y-128649342D02*
X137830952Y-128744580D01*
X137830952Y-128744580D02*
X137878571Y-128792200D01*
X137878571Y-128792200D02*
X137973809Y-128839819D01*
X137973809Y-128839819D02*
X138116666Y-128839819D01*
X137497618Y-128173152D02*
X137116666Y-128173152D01*
X137354761Y-127839819D02*
X137354761Y-128696961D01*
X137354761Y-128696961D02*
X137307142Y-128792200D01*
X137307142Y-128792200D02*
X137211904Y-128839819D01*
X137211904Y-128839819D02*
X137116666Y-128839819D01*
X136640475Y-128839819D02*
X136735713Y-128792200D01*
X136735713Y-128792200D02*
X136783332Y-128744580D01*
X136783332Y-128744580D02*
X136830951Y-128649342D01*
X136830951Y-128649342D02*
X136830951Y-128363628D01*
X136830951Y-128363628D02*
X136783332Y-128268390D01*
X136783332Y-128268390D02*
X136735713Y-128220771D01*
X136735713Y-128220771D02*
X136640475Y-128173152D01*
X136640475Y-128173152D02*
X136497618Y-128173152D01*
X136497618Y-128173152D02*
X136402380Y-128220771D01*
X136402380Y-128220771D02*
X136354761Y-128268390D01*
X136354761Y-128268390D02*
X136307142Y-128363628D01*
X136307142Y-128363628D02*
X136307142Y-128649342D01*
X136307142Y-128649342D02*
X136354761Y-128744580D01*
X136354761Y-128744580D02*
X136402380Y-128792200D01*
X136402380Y-128792200D02*
X136497618Y-128839819D01*
X136497618Y-128839819D02*
X136640475Y-128839819D01*
X135878570Y-128839819D02*
X135878570Y-128173152D01*
X135878570Y-128363628D02*
X135830951Y-128268390D01*
X135830951Y-128268390D02*
X135783332Y-128220771D01*
X135783332Y-128220771D02*
X135688094Y-128173152D01*
X135688094Y-128173152D02*
X135592856Y-128173152D01*
X134069046Y-128839819D02*
X134069046Y-127839819D01*
X134069046Y-128792200D02*
X134164284Y-128839819D01*
X134164284Y-128839819D02*
X134354760Y-128839819D01*
X134354760Y-128839819D02*
X134449998Y-128792200D01*
X134449998Y-128792200D02*
X134497617Y-128744580D01*
X134497617Y-128744580D02*
X134545236Y-128649342D01*
X134545236Y-128649342D02*
X134545236Y-128363628D01*
X134545236Y-128363628D02*
X134497617Y-128268390D01*
X134497617Y-128268390D02*
X134449998Y-128220771D01*
X134449998Y-128220771D02*
X134354760Y-128173152D01*
X134354760Y-128173152D02*
X134164284Y-128173152D01*
X134164284Y-128173152D02*
X134069046Y-128220771D01*
X133592855Y-128839819D02*
X133592855Y-128173152D01*
X133592855Y-128363628D02*
X133545236Y-128268390D01*
X133545236Y-128268390D02*
X133497617Y-128220771D01*
X133497617Y-128220771D02*
X133402379Y-128173152D01*
X133402379Y-128173152D02*
X133307141Y-128173152D01*
X132973807Y-128839819D02*
X132973807Y-128173152D01*
X132973807Y-127839819D02*
X133021426Y-127887438D01*
X133021426Y-127887438D02*
X132973807Y-127935057D01*
X132973807Y-127935057D02*
X132926188Y-127887438D01*
X132926188Y-127887438D02*
X132973807Y-127839819D01*
X132973807Y-127839819D02*
X132973807Y-127935057D01*
X132592855Y-128173152D02*
X132354760Y-128839819D01*
X132354760Y-128839819D02*
X132116665Y-128173152D01*
X131354760Y-128792200D02*
X131449998Y-128839819D01*
X131449998Y-128839819D02*
X131640474Y-128839819D01*
X131640474Y-128839819D02*
X131735712Y-128792200D01*
X131735712Y-128792200D02*
X131783331Y-128696961D01*
X131783331Y-128696961D02*
X131783331Y-128316009D01*
X131783331Y-128316009D02*
X131735712Y-128220771D01*
X131735712Y-128220771D02*
X131640474Y-128173152D01*
X131640474Y-128173152D02*
X131449998Y-128173152D01*
X131449998Y-128173152D02*
X131354760Y-128220771D01*
X131354760Y-128220771D02*
X131307141Y-128316009D01*
X131307141Y-128316009D02*
X131307141Y-128411247D01*
X131307141Y-128411247D02*
X131783331Y-128506485D01*
X130878569Y-128839819D02*
X130878569Y-128173152D01*
X130878569Y-128363628D02*
X130830950Y-128268390D01*
X130830950Y-128268390D02*
X130783331Y-128220771D01*
X130783331Y-128220771D02*
X130688093Y-128173152D01*
X130688093Y-128173152D02*
X130592855Y-128173152D01*
X130211902Y-128792200D02*
X130211902Y-128839819D01*
X130211902Y-128839819D02*
X130259521Y-128935057D01*
X130259521Y-128935057D02*
X130307140Y-128982676D01*
X158045238Y-130402144D02*
X158140476Y-130449763D01*
X158140476Y-130449763D02*
X158330952Y-130449763D01*
X158330952Y-130449763D02*
X158426190Y-130402144D01*
X158426190Y-130402144D02*
X158473809Y-130354524D01*
X158473809Y-130354524D02*
X158521428Y-130259286D01*
X158521428Y-130259286D02*
X158521428Y-129973572D01*
X158521428Y-129973572D02*
X158473809Y-129878334D01*
X158473809Y-129878334D02*
X158426190Y-129830715D01*
X158426190Y-129830715D02*
X158330952Y-129783096D01*
X158330952Y-129783096D02*
X158140476Y-129783096D01*
X158140476Y-129783096D02*
X158045238Y-129830715D01*
X157473809Y-130449763D02*
X157569047Y-130402144D01*
X157569047Y-130402144D02*
X157616666Y-130354524D01*
X157616666Y-130354524D02*
X157664285Y-130259286D01*
X157664285Y-130259286D02*
X157664285Y-129973572D01*
X157664285Y-129973572D02*
X157616666Y-129878334D01*
X157616666Y-129878334D02*
X157569047Y-129830715D01*
X157569047Y-129830715D02*
X157473809Y-129783096D01*
X157473809Y-129783096D02*
X157330952Y-129783096D01*
X157330952Y-129783096D02*
X157235714Y-129830715D01*
X157235714Y-129830715D02*
X157188095Y-129878334D01*
X157188095Y-129878334D02*
X157140476Y-129973572D01*
X157140476Y-129973572D02*
X157140476Y-130259286D01*
X157140476Y-130259286D02*
X157188095Y-130354524D01*
X157188095Y-130354524D02*
X157235714Y-130402144D01*
X157235714Y-130402144D02*
X157330952Y-130449763D01*
X157330952Y-130449763D02*
X157473809Y-130449763D01*
X156711904Y-130449763D02*
X156711904Y-129783096D01*
X156711904Y-129878334D02*
X156664285Y-129830715D01*
X156664285Y-129830715D02*
X156569047Y-129783096D01*
X156569047Y-129783096D02*
X156426190Y-129783096D01*
X156426190Y-129783096D02*
X156330952Y-129830715D01*
X156330952Y-129830715D02*
X156283333Y-129925953D01*
X156283333Y-129925953D02*
X156283333Y-130449763D01*
X156283333Y-129925953D02*
X156235714Y-129830715D01*
X156235714Y-129830715D02*
X156140476Y-129783096D01*
X156140476Y-129783096D02*
X155997619Y-129783096D01*
X155997619Y-129783096D02*
X155902380Y-129830715D01*
X155902380Y-129830715D02*
X155854761Y-129925953D01*
X155854761Y-129925953D02*
X155854761Y-130449763D01*
X155378571Y-129783096D02*
X155378571Y-130783096D01*
X155378571Y-129830715D02*
X155283333Y-129783096D01*
X155283333Y-129783096D02*
X155092857Y-129783096D01*
X155092857Y-129783096D02*
X154997619Y-129830715D01*
X154997619Y-129830715D02*
X154950000Y-129878334D01*
X154950000Y-129878334D02*
X154902381Y-129973572D01*
X154902381Y-129973572D02*
X154902381Y-130259286D01*
X154902381Y-130259286D02*
X154950000Y-130354524D01*
X154950000Y-130354524D02*
X154997619Y-130402144D01*
X154997619Y-130402144D02*
X155092857Y-130449763D01*
X155092857Y-130449763D02*
X155283333Y-130449763D01*
X155283333Y-130449763D02*
X155378571Y-130402144D01*
X154045238Y-130449763D02*
X154045238Y-129925953D01*
X154045238Y-129925953D02*
X154092857Y-129830715D01*
X154092857Y-129830715D02*
X154188095Y-129783096D01*
X154188095Y-129783096D02*
X154378571Y-129783096D01*
X154378571Y-129783096D02*
X154473809Y-129830715D01*
X154045238Y-130402144D02*
X154140476Y-130449763D01*
X154140476Y-130449763D02*
X154378571Y-130449763D01*
X154378571Y-130449763D02*
X154473809Y-130402144D01*
X154473809Y-130402144D02*
X154521428Y-130306905D01*
X154521428Y-130306905D02*
X154521428Y-130211667D01*
X154521428Y-130211667D02*
X154473809Y-130116429D01*
X154473809Y-130116429D02*
X154378571Y-130068810D01*
X154378571Y-130068810D02*
X154140476Y-130068810D01*
X154140476Y-130068810D02*
X154045238Y-130021191D01*
X153711904Y-129783096D02*
X153330952Y-129783096D01*
X153569047Y-129449763D02*
X153569047Y-130306905D01*
X153569047Y-130306905D02*
X153521428Y-130402144D01*
X153521428Y-130402144D02*
X153426190Y-130449763D01*
X153426190Y-130449763D02*
X153330952Y-130449763D01*
X152997618Y-130449763D02*
X152997618Y-129783096D01*
X152997618Y-129449763D02*
X153045237Y-129497382D01*
X153045237Y-129497382D02*
X152997618Y-129545001D01*
X152997618Y-129545001D02*
X152949999Y-129497382D01*
X152949999Y-129497382D02*
X152997618Y-129449763D01*
X152997618Y-129449763D02*
X152997618Y-129545001D01*
X152521428Y-130449763D02*
X152521428Y-129449763D01*
X152521428Y-129830715D02*
X152426190Y-129783096D01*
X152426190Y-129783096D02*
X152235714Y-129783096D01*
X152235714Y-129783096D02*
X152140476Y-129830715D01*
X152140476Y-129830715D02*
X152092857Y-129878334D01*
X152092857Y-129878334D02*
X152045238Y-129973572D01*
X152045238Y-129973572D02*
X152045238Y-130259286D01*
X152045238Y-130259286D02*
X152092857Y-130354524D01*
X152092857Y-130354524D02*
X152140476Y-130402144D01*
X152140476Y-130402144D02*
X152235714Y-130449763D01*
X152235714Y-130449763D02*
X152426190Y-130449763D01*
X152426190Y-130449763D02*
X152521428Y-130402144D01*
X151616666Y-130449763D02*
X151616666Y-129783096D01*
X151616666Y-129449763D02*
X151664285Y-129497382D01*
X151664285Y-129497382D02*
X151616666Y-129545001D01*
X151616666Y-129545001D02*
X151569047Y-129497382D01*
X151569047Y-129497382D02*
X151616666Y-129449763D01*
X151616666Y-129449763D02*
X151616666Y-129545001D01*
X150997619Y-130449763D02*
X151092857Y-130402144D01*
X151092857Y-130402144D02*
X151140476Y-130306905D01*
X151140476Y-130306905D02*
X151140476Y-129449763D01*
X150235714Y-130402144D02*
X150330952Y-130449763D01*
X150330952Y-130449763D02*
X150521428Y-130449763D01*
X150521428Y-130449763D02*
X150616666Y-130402144D01*
X150616666Y-130402144D02*
X150664285Y-130306905D01*
X150664285Y-130306905D02*
X150664285Y-129925953D01*
X150664285Y-129925953D02*
X150616666Y-129830715D01*
X150616666Y-129830715D02*
X150521428Y-129783096D01*
X150521428Y-129783096D02*
X150330952Y-129783096D01*
X150330952Y-129783096D02*
X150235714Y-129830715D01*
X150235714Y-129830715D02*
X150188095Y-129925953D01*
X150188095Y-129925953D02*
X150188095Y-130021191D01*
X150188095Y-130021191D02*
X150664285Y-130116429D01*
X149092856Y-129783096D02*
X148902380Y-130449763D01*
X148902380Y-130449763D02*
X148711904Y-129973572D01*
X148711904Y-129973572D02*
X148521428Y-130449763D01*
X148521428Y-130449763D02*
X148330952Y-129783096D01*
X147949999Y-130449763D02*
X147949999Y-129783096D01*
X147949999Y-129449763D02*
X147997618Y-129497382D01*
X147997618Y-129497382D02*
X147949999Y-129545001D01*
X147949999Y-129545001D02*
X147902380Y-129497382D01*
X147902380Y-129497382D02*
X147949999Y-129449763D01*
X147949999Y-129449763D02*
X147949999Y-129545001D01*
X147616666Y-129783096D02*
X147235714Y-129783096D01*
X147473809Y-129449763D02*
X147473809Y-130306905D01*
X147473809Y-130306905D02*
X147426190Y-130402144D01*
X147426190Y-130402144D02*
X147330952Y-130449763D01*
X147330952Y-130449763D02*
X147235714Y-130449763D01*
X146902380Y-130449763D02*
X146902380Y-129449763D01*
X146473809Y-130449763D02*
X146473809Y-129925953D01*
X146473809Y-129925953D02*
X146521428Y-129830715D01*
X146521428Y-129830715D02*
X146616666Y-129783096D01*
X146616666Y-129783096D02*
X146759523Y-129783096D01*
X146759523Y-129783096D02*
X146854761Y-129830715D01*
X146854761Y-129830715D02*
X146902380Y-129878334D01*
X145235713Y-130449763D02*
X145235713Y-129449763D01*
X145235713Y-129449763D02*
X144854761Y-129449763D01*
X144854761Y-129449763D02*
X144759523Y-129497382D01*
X144759523Y-129497382D02*
X144711904Y-129545001D01*
X144711904Y-129545001D02*
X144664285Y-129640239D01*
X144664285Y-129640239D02*
X144664285Y-129783096D01*
X144664285Y-129783096D02*
X144711904Y-129878334D01*
X144711904Y-129878334D02*
X144759523Y-129925953D01*
X144759523Y-129925953D02*
X144854761Y-129973572D01*
X144854761Y-129973572D02*
X145235713Y-129973572D01*
X144235713Y-130449763D02*
X144235713Y-129783096D01*
X144235713Y-129449763D02*
X144283332Y-129497382D01*
X144283332Y-129497382D02*
X144235713Y-129545001D01*
X144235713Y-129545001D02*
X144188094Y-129497382D01*
X144188094Y-129497382D02*
X144235713Y-129449763D01*
X144235713Y-129449763D02*
X144235713Y-129545001D01*
X143854761Y-130449763D02*
X143330952Y-129783096D01*
X143854761Y-129783096D02*
X143330952Y-130449763D01*
X142949999Y-130449763D02*
X142949999Y-129449763D01*
X142521428Y-130449763D02*
X142521428Y-129925953D01*
X142521428Y-129925953D02*
X142569047Y-129830715D01*
X142569047Y-129830715D02*
X142664285Y-129783096D01*
X142664285Y-129783096D02*
X142807142Y-129783096D01*
X142807142Y-129783096D02*
X142902380Y-129830715D01*
X142902380Y-129830715D02*
X142949999Y-129878334D01*
X141616666Y-130449763D02*
X141616666Y-129925953D01*
X141616666Y-129925953D02*
X141664285Y-129830715D01*
X141664285Y-129830715D02*
X141759523Y-129783096D01*
X141759523Y-129783096D02*
X141949999Y-129783096D01*
X141949999Y-129783096D02*
X142045237Y-129830715D01*
X141616666Y-130402144D02*
X141711904Y-130449763D01*
X141711904Y-130449763D02*
X141949999Y-130449763D01*
X141949999Y-130449763D02*
X142045237Y-130402144D01*
X142045237Y-130402144D02*
X142092856Y-130306905D01*
X142092856Y-130306905D02*
X142092856Y-130211667D01*
X142092856Y-130211667D02*
X142045237Y-130116429D01*
X142045237Y-130116429D02*
X141949999Y-130068810D01*
X141949999Y-130068810D02*
X141711904Y-130068810D01*
X141711904Y-130068810D02*
X141616666Y-130021191D01*
X141235713Y-129783096D02*
X141045237Y-130449763D01*
X141045237Y-130449763D02*
X140854761Y-129973572D01*
X140854761Y-129973572D02*
X140664285Y-130449763D01*
X140664285Y-130449763D02*
X140473809Y-129783096D01*
X140092856Y-130449763D02*
X140092856Y-129449763D01*
X139997618Y-130068810D02*
X139711904Y-130449763D01*
X139711904Y-129783096D02*
X140092856Y-130164048D01*
X138092856Y-130449763D02*
X138092856Y-129925953D01*
X138092856Y-129925953D02*
X138140475Y-129830715D01*
X138140475Y-129830715D02*
X138235713Y-129783096D01*
X138235713Y-129783096D02*
X138426189Y-129783096D01*
X138426189Y-129783096D02*
X138521427Y-129830715D01*
X138092856Y-130402144D02*
X138188094Y-130449763D01*
X138188094Y-130449763D02*
X138426189Y-130449763D01*
X138426189Y-130449763D02*
X138521427Y-130402144D01*
X138521427Y-130402144D02*
X138569046Y-130306905D01*
X138569046Y-130306905D02*
X138569046Y-130211667D01*
X138569046Y-130211667D02*
X138521427Y-130116429D01*
X138521427Y-130116429D02*
X138426189Y-130068810D01*
X138426189Y-130068810D02*
X138188094Y-130068810D01*
X138188094Y-130068810D02*
X138092856Y-130021191D01*
X137711903Y-129783096D02*
X137473808Y-130449763D01*
X137473808Y-130449763D02*
X137235713Y-129783096D01*
X136854760Y-130449763D02*
X136854760Y-129783096D01*
X136854760Y-129449763D02*
X136902379Y-129497382D01*
X136902379Y-129497382D02*
X136854760Y-129545001D01*
X136854760Y-129545001D02*
X136807141Y-129497382D01*
X136807141Y-129497382D02*
X136854760Y-129449763D01*
X136854760Y-129449763D02*
X136854760Y-129545001D01*
X136235713Y-130449763D02*
X136330951Y-130402144D01*
X136330951Y-130402144D02*
X136378570Y-130354524D01*
X136378570Y-130354524D02*
X136426189Y-130259286D01*
X136426189Y-130259286D02*
X136426189Y-129973572D01*
X136426189Y-129973572D02*
X136378570Y-129878334D01*
X136378570Y-129878334D02*
X136330951Y-129830715D01*
X136330951Y-129830715D02*
X136235713Y-129783096D01*
X136235713Y-129783096D02*
X136092856Y-129783096D01*
X136092856Y-129783096D02*
X135997618Y-129830715D01*
X135997618Y-129830715D02*
X135949999Y-129878334D01*
X135949999Y-129878334D02*
X135902380Y-129973572D01*
X135902380Y-129973572D02*
X135902380Y-130259286D01*
X135902380Y-130259286D02*
X135949999Y-130354524D01*
X135949999Y-130354524D02*
X135997618Y-130402144D01*
X135997618Y-130402144D02*
X136092856Y-130449763D01*
X136092856Y-130449763D02*
X136235713Y-130449763D01*
X135473808Y-129783096D02*
X135473808Y-130449763D01*
X135473808Y-129878334D02*
X135426189Y-129830715D01*
X135426189Y-129830715D02*
X135330951Y-129783096D01*
X135330951Y-129783096D02*
X135188094Y-129783096D01*
X135188094Y-129783096D02*
X135092856Y-129830715D01*
X135092856Y-129830715D02*
X135045237Y-129925953D01*
X135045237Y-129925953D02*
X135045237Y-130449763D01*
X134569046Y-130449763D02*
X134569046Y-129783096D01*
X134569046Y-129449763D02*
X134616665Y-129497382D01*
X134616665Y-129497382D02*
X134569046Y-129545001D01*
X134569046Y-129545001D02*
X134521427Y-129497382D01*
X134521427Y-129497382D02*
X134569046Y-129449763D01*
X134569046Y-129449763D02*
X134569046Y-129545001D01*
X133664285Y-130402144D02*
X133759523Y-130449763D01*
X133759523Y-130449763D02*
X133949999Y-130449763D01*
X133949999Y-130449763D02*
X134045237Y-130402144D01*
X134045237Y-130402144D02*
X134092856Y-130354524D01*
X134092856Y-130354524D02*
X134140475Y-130259286D01*
X134140475Y-130259286D02*
X134140475Y-129973572D01*
X134140475Y-129973572D02*
X134092856Y-129878334D01*
X134092856Y-129878334D02*
X134045237Y-129830715D01*
X134045237Y-129830715D02*
X133949999Y-129783096D01*
X133949999Y-129783096D02*
X133759523Y-129783096D01*
X133759523Y-129783096D02*
X133664285Y-129830715D01*
X133283332Y-130402144D02*
X133188094Y-130449763D01*
X133188094Y-130449763D02*
X132997618Y-130449763D01*
X132997618Y-130449763D02*
X132902380Y-130402144D01*
X132902380Y-130402144D02*
X132854761Y-130306905D01*
X132854761Y-130306905D02*
X132854761Y-130259286D01*
X132854761Y-130259286D02*
X132902380Y-130164048D01*
X132902380Y-130164048D02*
X132997618Y-130116429D01*
X132997618Y-130116429D02*
X133140475Y-130116429D01*
X133140475Y-130116429D02*
X133235713Y-130068810D01*
X133235713Y-130068810D02*
X133283332Y-129973572D01*
X133283332Y-129973572D02*
X133283332Y-129925953D01*
X133283332Y-129925953D02*
X133235713Y-129830715D01*
X133235713Y-129830715D02*
X133140475Y-129783096D01*
X133140475Y-129783096D02*
X132997618Y-129783096D01*
X132997618Y-129783096D02*
X132902380Y-129830715D01*
X132426189Y-130354524D02*
X132378570Y-130402144D01*
X132378570Y-130402144D02*
X132426189Y-130449763D01*
X132426189Y-130449763D02*
X132473808Y-130402144D01*
X132473808Y-130402144D02*
X132426189Y-130354524D01*
X132426189Y-130354524D02*
X132426189Y-130449763D01*
D15*
%TO.C,TP1*%
X146200000Y-137275000D02*
G75*
G02*
X144300000Y-137275000I-950000J0D01*
G01*
X144300000Y-137275000D02*
G75*
G02*
X146200000Y-137275000I950000J0D01*
G01*
%TD*%
M02*
