%TF.GenerationSoftware,KiCad,Pcbnew,8.0.3+1*%
%TF.CreationDate,2024-07-20T14:58:04+00:00*%
%TF.ProjectId,TFESC02,54464553-4330-4322-9e6b-696361645f70,01A*%
%TF.SameCoordinates,Original*%
%TF.FileFunction,Soldermask,Top*%
%TF.FilePolarity,Negative*%
%FSLAX46Y46*%
G04 Gerber Fmt 4.6, Leading zero omitted, Abs format (unit mm)*
G04 Created by KiCad (PCBNEW 8.0.3+1) date 2024-07-20 14:58:04*
%MOMM*%
%LPD*%
G01*
G04 APERTURE LIST*
G04 Aperture macros list*
%AMRoundRect*
0 Rectangle with rounded corners*
0 $1 Rounding radius*
0 $2 $3 $4 $5 $6 $7 $8 $9 X,Y pos of 4 corners*
0 Add a 4 corners polygon primitive as box body*
4,1,4,$2,$3,$4,$5,$6,$7,$8,$9,$2,$3,0*
0 Add four circle primitives for the rounded corners*
1,1,$1+$1,$2,$3*
1,1,$1+$1,$4,$5*
1,1,$1+$1,$6,$7*
1,1,$1+$1,$8,$9*
0 Add four rect primitives between the rounded corners*
20,1,$1+$1,$2,$3,$4,$5,0*
20,1,$1+$1,$4,$5,$6,$7,0*
20,1,$1+$1,$6,$7,$8,$9,0*
20,1,$1+$1,$8,$9,$2,$3,0*%
G04 Aperture macros list end*
%ADD10RoundRect,0.225000X0.250000X-0.225000X0.250000X0.225000X-0.250000X0.225000X-0.250000X-0.225000X0*%
%ADD11C,1.400000*%
%ADD12R,3.000000X3.000000*%
%ADD13C,3.000000*%
%ADD14RoundRect,0.225000X0.225000X0.250000X-0.225000X0.250000X-0.225000X-0.250000X0.225000X-0.250000X0*%
%ADD15RoundRect,0.200000X0.200000X0.275000X-0.200000X0.275000X-0.200000X-0.275000X0.200000X-0.275000X0*%
%ADD16RoundRect,0.100000X0.205000X0.535000X-0.205000X0.535000X-0.205000X-0.535000X0.205000X-0.535000X0*%
%ADD17RoundRect,0.200000X2.600000X2.050000X-2.600000X2.050000X-2.600000X-2.050000X2.600000X-2.050000X0*%
%ADD18RoundRect,0.150000X0.700000X-0.150000X0.700000X0.150000X-0.700000X0.150000X-0.700000X-0.150000X0*%
%ADD19RoundRect,0.250000X1.100000X-0.250000X1.100000X0.250000X-1.100000X0.250000X-1.100000X-0.250000X0*%
%ADD20RoundRect,0.200000X-0.275000X0.200000X-0.275000X-0.200000X0.275000X-0.200000X0.275000X0.200000X0*%
%ADD21RoundRect,0.200000X-0.200000X-0.275000X0.200000X-0.275000X0.200000X0.275000X-0.200000X0.275000X0*%
%ADD22R,2.550160X2.499360*%
%ADD23RoundRect,0.225000X-0.225000X-0.250000X0.225000X-0.250000X0.225000X0.250000X-0.225000X0.250000X0*%
%ADD24C,1.000000*%
%ADD25R,0.800000X0.200000*%
%ADD26R,0.200000X0.800000*%
%ADD27R,2.800000X3.800000*%
%ADD28RoundRect,0.218750X0.256250X-0.218750X0.256250X0.218750X-0.256250X0.218750X-0.256250X-0.218750X0*%
%ADD29RoundRect,0.200000X0.275000X-0.200000X0.275000X0.200000X-0.275000X0.200000X-0.275000X-0.200000X0*%
%ADD30RoundRect,0.250000X-1.425000X0.362500X-1.425000X-0.362500X1.425000X-0.362500X1.425000X0.362500X0*%
%ADD31R,3.500000X3.500000*%
%ADD32C,3.500000*%
%ADD33RoundRect,0.250000X0.325000X0.650000X-0.325000X0.650000X-0.325000X-0.650000X0.325000X-0.650000X0*%
%ADD34RoundRect,0.225000X-0.250000X0.225000X-0.250000X-0.225000X0.250000X-0.225000X0.250000X0.225000X0*%
%ADD35RoundRect,0.100000X-0.205000X-0.535000X0.205000X-0.535000X0.205000X0.535000X-0.205000X0.535000X0*%
%ADD36RoundRect,0.200000X-2.600000X-2.050000X2.600000X-2.050000X2.600000X2.050000X-2.600000X2.050000X0*%
%ADD37RoundRect,0.150000X0.150000X-0.512500X0.150000X0.512500X-0.150000X0.512500X-0.150000X-0.512500X0*%
%ADD38RoundRect,0.150000X-0.150000X-0.700000X0.150000X-0.700000X0.150000X0.700000X-0.150000X0.700000X0*%
%ADD39RoundRect,0.250000X-0.250000X-1.100000X0.250000X-1.100000X0.250000X1.100000X-0.250000X1.100000X0*%
%ADD40RoundRect,0.150000X0.150000X0.200000X-0.150000X0.200000X-0.150000X-0.200000X0.150000X-0.200000X0*%
%ADD41RoundRect,0.218750X0.218750X0.381250X-0.218750X0.381250X-0.218750X-0.381250X0.218750X-0.381250X0*%
G04 APERTURE END LIST*
D10*
%TO.C,C10*%
X153400000Y-130500000D03*
X153400000Y-128950000D03*
%TD*%
D11*
%TO.C,J5*%
X139000000Y-107100000D03*
X152000000Y-107100000D03*
D12*
X149000000Y-112100000D03*
D13*
X145500000Y-112100000D03*
X142000000Y-112100000D03*
%TD*%
D14*
%TO.C,C11*%
X151075000Y-127200000D03*
X149525000Y-127200000D03*
%TD*%
D15*
%TO.C,R13*%
X153625000Y-123500000D03*
X151975000Y-123500000D03*
%TD*%
D16*
%TO.C,Q5*%
X130605000Y-115900000D03*
X129335000Y-115900000D03*
X128065000Y-115900000D03*
X126795000Y-115900000D03*
D17*
X128700000Y-119608400D03*
%TD*%
D18*
%TO.C,J1*%
X162850000Y-134775000D03*
X162850000Y-133525000D03*
X162850000Y-132275000D03*
X162850000Y-131025000D03*
D19*
X166050000Y-136625000D03*
X166050000Y-129175000D03*
%TD*%
D14*
%TO.C,C12*%
X147725000Y-128100000D03*
X146175000Y-128100000D03*
%TD*%
D20*
%TO.C,R5*%
X160100000Y-143175000D03*
X160100000Y-144825000D03*
%TD*%
D21*
%TO.C,R6*%
X147225000Y-141725000D03*
X148875000Y-141725000D03*
%TD*%
D22*
%TO.C,C20*%
X129875240Y-131725000D03*
X134924760Y-131725000D03*
%TD*%
D23*
%TO.C,C2*%
X164125000Y-140200000D03*
X165675000Y-140200000D03*
%TD*%
D10*
%TO.C,C13*%
X145275000Y-135775000D03*
X145275000Y-134225000D03*
%TD*%
D24*
%TO.C,FID4*%
X139900000Y-139500000D03*
%TD*%
D16*
%TO.C,Q1*%
X158005000Y-115638300D03*
X156735000Y-115638300D03*
X155465000Y-115638300D03*
X154195000Y-115638300D03*
D17*
X156100000Y-119346700D03*
%TD*%
D20*
%TO.C,R7*%
X155300000Y-143175000D03*
X155300000Y-144825000D03*
%TD*%
D25*
%TO.C,IC1*%
X151300000Y-134700000D03*
X151300000Y-134300000D03*
X151300000Y-133900000D03*
X151300000Y-133500000D03*
X151300000Y-133100000D03*
X151300000Y-132700000D03*
X151300000Y-132300000D03*
X151300000Y-131900000D03*
X151300000Y-131500000D03*
X151300000Y-131100000D03*
D26*
X150700000Y-130400000D03*
X150300000Y-130400000D03*
X149900000Y-130400000D03*
X149500000Y-130400000D03*
X149100000Y-130400000D03*
X148700000Y-130400000D03*
X148300000Y-130400000D03*
X147900000Y-130400000D03*
D25*
X147300000Y-131100000D03*
X147300000Y-131500000D03*
X147300000Y-131900000D03*
X147300000Y-132300000D03*
X147300000Y-132700000D03*
X147300000Y-133100000D03*
X147300000Y-133500000D03*
X147300000Y-133900000D03*
X147300000Y-134300000D03*
X147300000Y-134700000D03*
D26*
X147900000Y-135400000D03*
X148300000Y-135400000D03*
X148700000Y-135400000D03*
X149100000Y-135400000D03*
X149500000Y-135400000D03*
X149900000Y-135400000D03*
X150300000Y-135400000D03*
X150700000Y-135400000D03*
D27*
X149300000Y-132900000D03*
%TD*%
D15*
%TO.C,R12*%
X144350000Y-123500000D03*
X142700000Y-123500000D03*
%TD*%
D28*
%TO.C,D2*%
X163366666Y-147887500D03*
X163366666Y-146312500D03*
%TD*%
D23*
%TO.C,C16*%
X159600000Y-123400000D03*
X161150000Y-123400000D03*
%TD*%
D29*
%TO.C,R16*%
X159100000Y-134425000D03*
X159100000Y-132775000D03*
%TD*%
D30*
%TO.C,R_SENSE1*%
X138375000Y-125062500D03*
X138375000Y-130987500D03*
%TD*%
D21*
%TO.C,R8*%
X149525000Y-140150000D03*
X151175000Y-140150000D03*
%TD*%
D16*
%TO.C,Q3*%
X144505000Y-115700000D03*
X143235000Y-115700000D03*
X141965000Y-115700000D03*
X140695000Y-115700000D03*
D17*
X142600000Y-119408400D03*
%TD*%
D20*
%TO.C,R9*%
X158400000Y-143175000D03*
X158400000Y-144825000D03*
%TD*%
%TO.C,R3*%
X156900000Y-143175000D03*
X156900000Y-144825000D03*
%TD*%
D11*
%TO.C,J3*%
X136950000Y-145850000D03*
X125950000Y-145850000D03*
D31*
X128950000Y-135850000D03*
D32*
X133950000Y-135850000D03*
%TD*%
D33*
%TO.C,C6*%
X127575000Y-129525000D03*
X124625000Y-129525000D03*
%TD*%
D22*
%TO.C,C18*%
X129863170Y-128524000D03*
X134912690Y-128524000D03*
%TD*%
D20*
%TO.C,R22*%
X129575000Y-123475000D03*
X129575000Y-125125000D03*
%TD*%
D23*
%TO.C,C9*%
X151200000Y-137425000D03*
X152750000Y-137425000D03*
%TD*%
D20*
%TO.C,R19*%
X141300000Y-123300000D03*
X141300000Y-124950000D03*
%TD*%
D24*
%TO.C,FID3*%
X156700000Y-110825000D03*
%TD*%
D29*
%TO.C,R17*%
X160700000Y-134425000D03*
X160700000Y-132775000D03*
%TD*%
%TO.C,R14*%
X127775000Y-125100000D03*
X127775000Y-123450000D03*
%TD*%
D34*
%TO.C,C7*%
X154900000Y-135525000D03*
X154900000Y-137075000D03*
%TD*%
D23*
%TO.C,C14*%
X145925000Y-123500000D03*
X147475000Y-123500000D03*
%TD*%
D28*
%TO.C,D4*%
X160733333Y-147887500D03*
X160733333Y-146312500D03*
%TD*%
D23*
%TO.C,C1*%
X164125000Y-138700000D03*
X165675000Y-138700000D03*
%TD*%
D15*
%TO.C,R21*%
X164700000Y-122800000D03*
X163050000Y-122800000D03*
%TD*%
%TO.C,R18*%
X150625000Y-123500000D03*
X148975000Y-123500000D03*
%TD*%
%TO.C,R10*%
X158200000Y-123400000D03*
X156550000Y-123400000D03*
%TD*%
D14*
%TO.C,C3*%
X127500000Y-127575000D03*
X125950000Y-127575000D03*
%TD*%
D35*
%TO.C,Q2*%
X160495000Y-121015000D03*
X161765000Y-121015000D03*
X163035000Y-121015000D03*
X164305000Y-121015000D03*
D36*
X162400000Y-117306600D03*
%TD*%
D35*
%TO.C,Q4*%
X146995000Y-121061700D03*
X148265000Y-121061700D03*
X149535000Y-121061700D03*
X150805000Y-121061700D03*
D36*
X148900000Y-117353300D03*
%TD*%
D20*
%TO.C,R1*%
X166000000Y-143250000D03*
X166000000Y-144900000D03*
%TD*%
D37*
%TO.C,U1*%
X160450000Y-141162500D03*
X161400000Y-141162500D03*
X162350000Y-141162500D03*
X162350000Y-138887500D03*
X160450000Y-138887500D03*
%TD*%
D28*
%TO.C,D5*%
X158100000Y-147887500D03*
X158100000Y-146312500D03*
%TD*%
D23*
%TO.C,C15*%
X131325000Y-122800000D03*
X132875000Y-122800000D03*
%TD*%
%TO.C,C8*%
X154900000Y-130400000D03*
X156450000Y-130400000D03*
%TD*%
D34*
%TO.C,C17*%
X143725000Y-131725000D03*
X143725000Y-133275000D03*
%TD*%
D15*
%TO.C,R15*%
X139900000Y-123200000D03*
X138250000Y-123200000D03*
%TD*%
D20*
%TO.C,R2*%
X161700000Y-143175000D03*
X161700000Y-144825000D03*
%TD*%
D35*
%TO.C,Q6*%
X133195000Y-121108400D03*
X134465000Y-121108400D03*
X135735000Y-121108400D03*
X137005000Y-121108400D03*
D36*
X135100000Y-117400000D03*
%TD*%
D38*
%TO.C,J4*%
X142425000Y-144450000D03*
X143675000Y-144450000D03*
X144925000Y-144450000D03*
X146175000Y-144450000D03*
X147425000Y-144450000D03*
X148675000Y-144450000D03*
X149925000Y-144450000D03*
X151175000Y-144450000D03*
D39*
X140575000Y-147650000D03*
X153025000Y-147650000D03*
%TD*%
D40*
%TO.C,D3*%
X164100000Y-141700000D03*
X165500000Y-141700000D03*
%TD*%
D15*
%TO.C,R23*%
X136900000Y-123200000D03*
X135250000Y-123200000D03*
%TD*%
D28*
%TO.C,D1*%
X166000000Y-147887500D03*
X166000000Y-146312500D03*
%TD*%
D29*
%TO.C,R11*%
X164650000Y-126350000D03*
X164650000Y-124700000D03*
%TD*%
D20*
%TO.C,R20*%
X155100000Y-123375000D03*
X155100000Y-125025000D03*
%TD*%
D15*
%TO.C,R4*%
X142350000Y-142150000D03*
X140700000Y-142150000D03*
%TD*%
D34*
%TO.C,C4*%
X154875000Y-131900000D03*
X154875000Y-133450000D03*
%TD*%
D41*
%TO.C,L1*%
X143687500Y-135925000D03*
X141562500Y-135925000D03*
%TD*%
D14*
%TO.C,C5*%
X158875000Y-138900000D03*
X157325000Y-138900000D03*
%TD*%
D33*
%TO.C,C19*%
X127575000Y-131925000D03*
X124625000Y-131925000D03*
%TD*%
M02*
