%TF.GenerationSoftware,KiCad,Pcbnew,8.0.3+1*%
%TF.CreationDate,2024-07-16T14:24:49+00:00*%
%TF.ProjectId,TFESC02,54464553-4330-4322-9e6b-696361645f70,rev?*%
%TF.SameCoordinates,Original*%
%TF.FileFunction,Legend,Bot*%
%TF.FilePolarity,Positive*%
%FSLAX46Y46*%
G04 Gerber Fmt 4.6, Leading zero omitted, Abs format (unit mm)*
G04 Created by KiCad (PCBNEW 8.0.3+1) date 2024-07-16 14:24:49*
%MOMM*%
%LPD*%
G01*
G04 APERTURE LIST*
%ADD10C,0.000000*%
%ADD11C,0.100000*%
%ADD12C,0.400000*%
%ADD13C,0.240000*%
G04 APERTURE END LIST*
D10*
G36*
X125167727Y-136394091D02*
G01*
X124850455Y-136394091D01*
X124850455Y-136076819D01*
X125167727Y-136076819D01*
X125167727Y-136394091D01*
G37*
G36*
X125802273Y-135759546D02*
G01*
X125485000Y-135759546D01*
X125485000Y-135442273D01*
X125802273Y-135442273D01*
X125802273Y-135759546D01*
G37*
G36*
X126754091Y-135442273D02*
G01*
X126436818Y-135442273D01*
X126436818Y-135125000D01*
X126754091Y-135125000D01*
X126754091Y-135442273D01*
G37*
G36*
X131513181Y-136711364D02*
G01*
X131195909Y-136711364D01*
X131195909Y-136394091D01*
X131513181Y-136394091D01*
X131513181Y-136711364D01*
G37*
G36*
X124850455Y-136711364D02*
G01*
X124533182Y-136711364D01*
X124533182Y-136394091D01*
X124850455Y-136394091D01*
X124850455Y-136711364D01*
G37*
G36*
X128657727Y-136394091D02*
G01*
X128340454Y-136394091D01*
X128340454Y-136076819D01*
X128657727Y-136076819D01*
X128657727Y-136394091D01*
G37*
G36*
X124850455Y-133538637D02*
G01*
X124533182Y-133538637D01*
X124533182Y-133221364D01*
X124850455Y-133221364D01*
X124850455Y-133538637D01*
G37*
G36*
X128023182Y-134807728D02*
G01*
X127705909Y-134807728D01*
X127705909Y-134490455D01*
X128023182Y-134490455D01*
X128023182Y-134807728D01*
G37*
G36*
X130561363Y-132269546D02*
G01*
X130244091Y-132269546D01*
X130244091Y-131952273D01*
X130561363Y-131952273D01*
X130561363Y-132269546D01*
G37*
G36*
X131195909Y-134807728D02*
G01*
X130878636Y-134807728D01*
X130878636Y-134490455D01*
X131195909Y-134490455D01*
X131195909Y-134807728D01*
G37*
G36*
X125485000Y-134173182D02*
G01*
X125167727Y-134173182D01*
X125167727Y-133855910D01*
X125485000Y-133855910D01*
X125485000Y-134173182D01*
G37*
G36*
X131195909Y-132904091D02*
G01*
X130878636Y-132904091D01*
X130878636Y-132586819D01*
X131195909Y-132586819D01*
X131195909Y-132904091D01*
G37*
G36*
X128975000Y-132904091D02*
G01*
X128657727Y-132904091D01*
X128657727Y-132586819D01*
X128975000Y-132586819D01*
X128975000Y-132904091D01*
G37*
G36*
X128657727Y-137345909D02*
G01*
X128340454Y-137345909D01*
X128340454Y-137028637D01*
X128657727Y-137028637D01*
X128657727Y-137345909D01*
G37*
G36*
X128657727Y-139249545D02*
G01*
X128340454Y-139249545D01*
X128340454Y-138932273D01*
X128657727Y-138932273D01*
X128657727Y-139249545D01*
G37*
G36*
X128023182Y-131635001D02*
G01*
X127705909Y-131635001D01*
X127705909Y-131317728D01*
X128023182Y-131317728D01*
X128023182Y-131635001D01*
G37*
G36*
X128975000Y-138297727D02*
G01*
X128657727Y-138297727D01*
X128657727Y-137980455D01*
X128975000Y-137980455D01*
X128975000Y-138297727D01*
G37*
G36*
X129926818Y-134490455D02*
G01*
X129609545Y-134490455D01*
X129609545Y-134173182D01*
X129926818Y-134173182D01*
X129926818Y-134490455D01*
G37*
G36*
X128340454Y-132269546D02*
G01*
X128023182Y-132269546D01*
X128023182Y-131952273D01*
X128340454Y-131952273D01*
X128340454Y-132269546D01*
G37*
G36*
X126119545Y-137345909D02*
G01*
X125802273Y-137345909D01*
X125802273Y-137028637D01*
X126119545Y-137028637D01*
X126119545Y-137345909D01*
G37*
G36*
X129609545Y-131635001D02*
G01*
X129292273Y-131635001D01*
X129292273Y-131317728D01*
X129609545Y-131317728D01*
X129609545Y-131635001D01*
G37*
G36*
X128023182Y-136076819D02*
G01*
X127705909Y-136076819D01*
X127705909Y-135759546D01*
X128023182Y-135759546D01*
X128023182Y-136076819D01*
G37*
G36*
X131195909Y-137028637D02*
G01*
X130878636Y-137028637D01*
X130878636Y-136711364D01*
X131195909Y-136711364D01*
X131195909Y-137028637D01*
G37*
G36*
X128340454Y-137663182D02*
G01*
X128023182Y-137663182D01*
X128023182Y-137345909D01*
X128340454Y-137345909D01*
X128340454Y-137663182D01*
G37*
G36*
X128023182Y-132904091D02*
G01*
X127705909Y-132904091D01*
X127705909Y-132586819D01*
X128023182Y-132586819D01*
X128023182Y-132904091D01*
G37*
G36*
X126436818Y-136711364D02*
G01*
X126119545Y-136711364D01*
X126119545Y-136394091D01*
X126436818Y-136394091D01*
X126436818Y-136711364D01*
G37*
G36*
X128657727Y-132269546D02*
G01*
X128340454Y-132269546D01*
X128340454Y-131952273D01*
X128657727Y-131952273D01*
X128657727Y-132269546D01*
G37*
G36*
X127705909Y-133221364D02*
G01*
X127388636Y-133221364D01*
X127388636Y-132904091D01*
X127705909Y-132904091D01*
X127705909Y-133221364D01*
G37*
G36*
X129609545Y-132904091D02*
G01*
X129292273Y-132904091D01*
X129292273Y-132586819D01*
X129609545Y-132586819D01*
X129609545Y-132904091D01*
G37*
G36*
X129292273Y-133221364D02*
G01*
X128975000Y-133221364D01*
X128975000Y-132904091D01*
X129292273Y-132904091D01*
X129292273Y-133221364D01*
G37*
G36*
X126119545Y-134173182D02*
G01*
X125802273Y-134173182D01*
X125802273Y-133855910D01*
X126119545Y-133855910D01*
X126119545Y-134173182D01*
G37*
G36*
X129609545Y-136394091D02*
G01*
X129292273Y-136394091D01*
X129292273Y-136076819D01*
X129609545Y-136076819D01*
X129609545Y-136394091D01*
G37*
D11*
X167325000Y-147275000D02*
X155325000Y-147275000D01*
D10*
G36*
X125167727Y-134173182D02*
G01*
X124850455Y-134173182D01*
X124850455Y-133855910D01*
X125167727Y-133855910D01*
X125167727Y-134173182D01*
G37*
G36*
X127705909Y-136394091D02*
G01*
X127388636Y-136394091D01*
X127388636Y-136076819D01*
X127705909Y-136076819D01*
X127705909Y-136394091D01*
G37*
G36*
X125802273Y-136076819D02*
G01*
X125485000Y-136076819D01*
X125485000Y-135759546D01*
X125802273Y-135759546D01*
X125802273Y-136076819D01*
G37*
G36*
X129292273Y-135125000D02*
G01*
X128975000Y-135125000D01*
X128975000Y-134807728D01*
X129292273Y-134807728D01*
X129292273Y-135125000D01*
G37*
G36*
X126754091Y-131635001D02*
G01*
X126436818Y-131635001D01*
X126436818Y-131317728D01*
X126754091Y-131317728D01*
X126754091Y-131635001D01*
G37*
G36*
X128023182Y-135442273D02*
G01*
X127705909Y-135442273D01*
X127705909Y-135125000D01*
X128023182Y-135125000D01*
X128023182Y-135442273D01*
G37*
G36*
X128023182Y-137663182D02*
G01*
X127705909Y-137663182D01*
X127705909Y-137345909D01*
X128023182Y-137345909D01*
X128023182Y-137663182D01*
G37*
G36*
X131513181Y-132586819D02*
G01*
X131195909Y-132586819D01*
X131195909Y-132269546D01*
X131513181Y-132269546D01*
X131513181Y-132586819D01*
G37*
G36*
X126119545Y-132586819D02*
G01*
X125802273Y-132586819D01*
X125802273Y-132269546D01*
X126119545Y-132269546D01*
X126119545Y-132586819D01*
G37*
G36*
X127705909Y-131952273D02*
G01*
X127388636Y-131952273D01*
X127388636Y-131635001D01*
X127705909Y-131635001D01*
X127705909Y-131952273D01*
G37*
G36*
X132464999Y-134807728D02*
G01*
X132147727Y-134807728D01*
X132147727Y-134490455D01*
X132464999Y-134490455D01*
X132464999Y-134807728D01*
G37*
G36*
X126119545Y-138297727D02*
G01*
X125802273Y-138297727D01*
X125802273Y-137980455D01*
X126119545Y-137980455D01*
X126119545Y-138297727D01*
G37*
G36*
X129292273Y-137663182D02*
G01*
X128975000Y-137663182D01*
X128975000Y-137345909D01*
X129292273Y-137345909D01*
X129292273Y-137663182D01*
G37*
G36*
X128657727Y-133538637D02*
G01*
X128340454Y-133538637D01*
X128340454Y-133221364D01*
X128657727Y-133221364D01*
X128657727Y-133538637D01*
G37*
G36*
X131513181Y-131635001D02*
G01*
X131195909Y-131635001D01*
X131195909Y-131317728D01*
X131513181Y-131317728D01*
X131513181Y-131635001D01*
G37*
G36*
X131513181Y-133538637D02*
G01*
X131195909Y-133538637D01*
X131195909Y-133221364D01*
X131513181Y-133221364D01*
X131513181Y-133538637D01*
G37*
G36*
X132464999Y-133221364D02*
G01*
X132147727Y-133221364D01*
X132147727Y-132904091D01*
X132464999Y-132904091D01*
X132464999Y-133221364D01*
G37*
G36*
X128023182Y-133855910D02*
G01*
X127705909Y-133855910D01*
X127705909Y-133538637D01*
X128023182Y-133538637D01*
X128023182Y-133855910D01*
G37*
G36*
X126754091Y-132904091D02*
G01*
X126436818Y-132904091D01*
X126436818Y-132586819D01*
X126754091Y-132586819D01*
X126754091Y-132904091D01*
G37*
G36*
X130561363Y-135759546D02*
G01*
X130244091Y-135759546D01*
X130244091Y-135442273D01*
X130561363Y-135442273D01*
X130561363Y-135759546D01*
G37*
G36*
X131195909Y-137345909D02*
G01*
X130878636Y-137345909D01*
X130878636Y-137028637D01*
X131195909Y-137028637D01*
X131195909Y-137345909D01*
G37*
G36*
X129926818Y-134807728D02*
G01*
X129609545Y-134807728D01*
X129609545Y-134490455D01*
X129926818Y-134490455D01*
X129926818Y-134807728D01*
G37*
G36*
X129926818Y-134173182D02*
G01*
X129609545Y-134173182D01*
X129609545Y-133855910D01*
X129926818Y-133855910D01*
X129926818Y-134173182D01*
G37*
G36*
X132464999Y-132269546D02*
G01*
X132147727Y-132269546D01*
X132147727Y-131952273D01*
X132464999Y-131952273D01*
X132464999Y-132269546D01*
G37*
G36*
X125485000Y-133538637D02*
G01*
X125167727Y-133538637D01*
X125167727Y-133221364D01*
X125485000Y-133221364D01*
X125485000Y-133538637D01*
G37*
G36*
X127071364Y-136711364D02*
G01*
X126754091Y-136711364D01*
X126754091Y-136394091D01*
X127071364Y-136394091D01*
X127071364Y-136711364D01*
G37*
G36*
X130561363Y-136076819D02*
G01*
X130244091Y-136076819D01*
X130244091Y-135759546D01*
X130561363Y-135759546D01*
X130561363Y-136076819D01*
G37*
G36*
X128975000Y-137345909D02*
G01*
X128657727Y-137345909D01*
X128657727Y-137028637D01*
X128975000Y-137028637D01*
X128975000Y-137345909D01*
G37*
G36*
X126754091Y-132269546D02*
G01*
X126436818Y-132269546D01*
X126436818Y-131952273D01*
X126754091Y-131952273D01*
X126754091Y-132269546D01*
G37*
G36*
X128023182Y-137345909D02*
G01*
X127705909Y-137345909D01*
X127705909Y-137028637D01*
X128023182Y-137028637D01*
X128023182Y-137345909D01*
G37*
G36*
X128657727Y-137028637D02*
G01*
X128340454Y-137028637D01*
X128340454Y-136711364D01*
X128657727Y-136711364D01*
X128657727Y-137028637D01*
G37*
G36*
X128975000Y-131952273D02*
G01*
X128657727Y-131952273D01*
X128657727Y-131635001D01*
X128975000Y-131635001D01*
X128975000Y-131952273D01*
G37*
G36*
X125167727Y-131635001D02*
G01*
X124850455Y-131635001D01*
X124850455Y-131317728D01*
X125167727Y-131317728D01*
X125167727Y-131635001D01*
G37*
G36*
X132464999Y-137028637D02*
G01*
X132147727Y-137028637D01*
X132147727Y-136711364D01*
X132464999Y-136711364D01*
X132464999Y-137028637D01*
G37*
G36*
X129926818Y-137345909D02*
G01*
X129609545Y-137345909D01*
X129609545Y-137028637D01*
X129926818Y-137028637D01*
X129926818Y-137345909D01*
G37*
G36*
X125802273Y-132904091D02*
G01*
X125485000Y-132904091D01*
X125485000Y-132586819D01*
X125802273Y-132586819D01*
X125802273Y-132904091D01*
G37*
G36*
X128023182Y-132269546D02*
G01*
X127705909Y-132269546D01*
X127705909Y-131952273D01*
X128023182Y-131952273D01*
X128023182Y-132269546D01*
G37*
G36*
X132464999Y-135442273D02*
G01*
X132147727Y-135442273D01*
X132147727Y-135125000D01*
X132464999Y-135125000D01*
X132464999Y-135442273D01*
G37*
G36*
X128340454Y-138932273D02*
G01*
X128023182Y-138932273D01*
X128023182Y-138615000D01*
X128340454Y-138615000D01*
X128340454Y-138932273D01*
G37*
G36*
X131513181Y-137980455D02*
G01*
X131195909Y-137980455D01*
X131195909Y-137663182D01*
X131513181Y-137663182D01*
X131513181Y-137980455D01*
G37*
G36*
X132147727Y-135125000D02*
G01*
X131830454Y-135125000D01*
X131830454Y-134807728D01*
X132147727Y-134807728D01*
X132147727Y-135125000D01*
G37*
G36*
X129609545Y-131952273D02*
G01*
X129292273Y-131952273D01*
X129292273Y-131635001D01*
X129609545Y-131635001D01*
X129609545Y-131952273D01*
G37*
G36*
X131830454Y-132904091D02*
G01*
X131513181Y-132904091D01*
X131513181Y-132586819D01*
X131830454Y-132586819D01*
X131830454Y-132904091D01*
G37*
G36*
X128975000Y-137980455D02*
G01*
X128657727Y-137980455D01*
X128657727Y-137663182D01*
X128975000Y-137663182D01*
X128975000Y-137980455D01*
G37*
G36*
X130561363Y-132586819D02*
G01*
X130244091Y-132586819D01*
X130244091Y-132269546D01*
X130561363Y-132269546D01*
X130561363Y-132586819D01*
G37*
G36*
X127071364Y-136076819D02*
G01*
X126754091Y-136076819D01*
X126754091Y-135759546D01*
X127071364Y-135759546D01*
X127071364Y-136076819D01*
G37*
G36*
X127388636Y-137345909D02*
G01*
X127071364Y-137345909D01*
X127071364Y-137028637D01*
X127388636Y-137028637D01*
X127388636Y-137345909D01*
G37*
G36*
X125802273Y-138297727D02*
G01*
X125485000Y-138297727D01*
X125485000Y-137980455D01*
X125802273Y-137980455D01*
X125802273Y-138297727D01*
G37*
G36*
X132147727Y-136076819D02*
G01*
X131830454Y-136076819D01*
X131830454Y-135759546D01*
X132147727Y-135759546D01*
X132147727Y-136076819D01*
G37*
G36*
X125802273Y-135125000D02*
G01*
X125485000Y-135125000D01*
X125485000Y-134807728D01*
X125802273Y-134807728D01*
X125802273Y-135125000D01*
G37*
G36*
X129292273Y-132904091D02*
G01*
X128975000Y-132904091D01*
X128975000Y-132586819D01*
X129292273Y-132586819D01*
X129292273Y-132904091D01*
G37*
G36*
X125485000Y-138615000D02*
G01*
X125167727Y-138615000D01*
X125167727Y-138297727D01*
X125485000Y-138297727D01*
X125485000Y-138615000D01*
G37*
G36*
X125802273Y-132269546D02*
G01*
X125485000Y-132269546D01*
X125485000Y-131952273D01*
X125802273Y-131952273D01*
X125802273Y-132269546D01*
G37*
G36*
X126436818Y-134807728D02*
G01*
X126119545Y-134807728D01*
X126119545Y-134490455D01*
X126436818Y-134490455D01*
X126436818Y-134807728D01*
G37*
G36*
X126119545Y-137980455D02*
G01*
X125802273Y-137980455D01*
X125802273Y-137663182D01*
X126119545Y-137663182D01*
X126119545Y-137980455D01*
G37*
G36*
X127705909Y-137980455D02*
G01*
X127388636Y-137980455D01*
X127388636Y-137663182D01*
X127705909Y-137663182D01*
X127705909Y-137980455D01*
G37*
G36*
X131513181Y-135759546D02*
G01*
X131195909Y-135759546D01*
X131195909Y-135442273D01*
X131513181Y-135442273D01*
X131513181Y-135759546D01*
G37*
G36*
X125485000Y-134807728D02*
G01*
X125167727Y-134807728D01*
X125167727Y-134490455D01*
X125485000Y-134490455D01*
X125485000Y-134807728D01*
G37*
G36*
X126436818Y-131635001D02*
G01*
X126119545Y-131635001D01*
X126119545Y-131317728D01*
X126436818Y-131317728D01*
X126436818Y-131635001D01*
G37*
G36*
X130244091Y-136711364D02*
G01*
X129926818Y-136711364D01*
X129926818Y-136394091D01*
X130244091Y-136394091D01*
X130244091Y-136711364D01*
G37*
G36*
X132464999Y-133538637D02*
G01*
X132147727Y-133538637D01*
X132147727Y-133221364D01*
X132464999Y-133221364D01*
X132464999Y-133538637D01*
G37*
G36*
X130878636Y-137980455D02*
G01*
X130561363Y-137980455D01*
X130561363Y-137663182D01*
X130878636Y-137663182D01*
X130878636Y-137980455D01*
G37*
G36*
X128340454Y-131635001D02*
G01*
X128023182Y-131635001D01*
X128023182Y-131317728D01*
X128340454Y-131317728D01*
X128340454Y-131635001D01*
G37*
G36*
X131513181Y-138932273D02*
G01*
X131195909Y-138932273D01*
X131195909Y-138615000D01*
X131513181Y-138615000D01*
X131513181Y-138932273D01*
G37*
G36*
X127705909Y-138932273D02*
G01*
X127388636Y-138932273D01*
X127388636Y-138615000D01*
X127705909Y-138615000D01*
X127705909Y-138932273D01*
G37*
G36*
X132464999Y-135759546D02*
G01*
X132147727Y-135759546D01*
X132147727Y-135442273D01*
X132464999Y-135442273D01*
X132464999Y-135759546D01*
G37*
G36*
X128340454Y-133221364D02*
G01*
X128023182Y-133221364D01*
X128023182Y-132904091D01*
X128340454Y-132904091D01*
X128340454Y-133221364D01*
G37*
G36*
X128975000Y-137663182D02*
G01*
X128657727Y-137663182D01*
X128657727Y-137345909D01*
X128975000Y-137345909D01*
X128975000Y-137663182D01*
G37*
D11*
X164950000Y-129700000D02*
X164975000Y-136075000D01*
D10*
G36*
X130561363Y-132904091D02*
G01*
X130244091Y-132904091D01*
X130244091Y-132586819D01*
X130561363Y-132586819D01*
X130561363Y-132904091D01*
G37*
G36*
X130561363Y-138932273D02*
G01*
X130244091Y-138932273D01*
X130244091Y-138615000D01*
X130561363Y-138615000D01*
X130561363Y-138932273D01*
G37*
G36*
X131830454Y-136076819D02*
G01*
X131513181Y-136076819D01*
X131513181Y-135759546D01*
X131830454Y-135759546D01*
X131830454Y-136076819D01*
G37*
G36*
X129609545Y-137028637D02*
G01*
X129292273Y-137028637D01*
X129292273Y-136711364D01*
X129609545Y-136711364D01*
X129609545Y-137028637D01*
G37*
G36*
X127388636Y-139249545D02*
G01*
X127071364Y-139249545D01*
X127071364Y-138932273D01*
X127388636Y-138932273D01*
X127388636Y-139249545D01*
G37*
G36*
X126754091Y-137663182D02*
G01*
X126436818Y-137663182D01*
X126436818Y-137345909D01*
X126754091Y-137345909D01*
X126754091Y-137663182D01*
G37*
G36*
X125485000Y-138297727D02*
G01*
X125167727Y-138297727D01*
X125167727Y-137980455D01*
X125485000Y-137980455D01*
X125485000Y-138297727D01*
G37*
G36*
X132147727Y-137663182D02*
G01*
X131830454Y-137663182D01*
X131830454Y-137345909D01*
X132147727Y-137345909D01*
X132147727Y-137663182D01*
G37*
G36*
X127071364Y-134173182D02*
G01*
X126754091Y-134173182D01*
X126754091Y-133855910D01*
X127071364Y-133855910D01*
X127071364Y-134173182D01*
G37*
G36*
X126754091Y-139249545D02*
G01*
X126436818Y-139249545D01*
X126436818Y-138932273D01*
X126754091Y-138932273D01*
X126754091Y-139249545D01*
G37*
G36*
X130878636Y-131635001D02*
G01*
X130561363Y-131635001D01*
X130561363Y-131317728D01*
X130878636Y-131317728D01*
X130878636Y-131635001D01*
G37*
G36*
X130244091Y-134173182D02*
G01*
X129926818Y-134173182D01*
X129926818Y-133855910D01*
X130244091Y-133855910D01*
X130244091Y-134173182D01*
G37*
G36*
X125802273Y-131635001D02*
G01*
X125485000Y-131635001D01*
X125485000Y-131317728D01*
X125802273Y-131317728D01*
X125802273Y-131635001D01*
G37*
G36*
X131195909Y-138932273D02*
G01*
X130878636Y-138932273D01*
X130878636Y-138615000D01*
X131195909Y-138615000D01*
X131195909Y-138932273D01*
G37*
G36*
X132147727Y-134807728D02*
G01*
X131830454Y-134807728D01*
X131830454Y-134490455D01*
X132147727Y-134490455D01*
X132147727Y-134807728D01*
G37*
G36*
X126754091Y-131952273D02*
G01*
X126436818Y-131952273D01*
X126436818Y-131635001D01*
X126754091Y-131635001D01*
X126754091Y-131952273D01*
G37*
G36*
X129292273Y-138297727D02*
G01*
X128975000Y-138297727D01*
X128975000Y-137980455D01*
X129292273Y-137980455D01*
X129292273Y-138297727D01*
G37*
G36*
X132464999Y-131635001D02*
G01*
X132147727Y-131635001D01*
X132147727Y-131317728D01*
X132464999Y-131317728D01*
X132464999Y-131635001D01*
G37*
G36*
X128657727Y-136711364D02*
G01*
X128340454Y-136711364D01*
X128340454Y-136394091D01*
X128657727Y-136394091D01*
X128657727Y-136711364D01*
G37*
G36*
X127705909Y-132586819D02*
G01*
X127388636Y-132586819D01*
X127388636Y-132269546D01*
X127705909Y-132269546D01*
X127705909Y-132586819D01*
G37*
G36*
X126754091Y-136711364D02*
G01*
X126436818Y-136711364D01*
X126436818Y-136394091D01*
X126754091Y-136394091D01*
X126754091Y-136711364D01*
G37*
G36*
X126119545Y-131635001D02*
G01*
X125802273Y-131635001D01*
X125802273Y-131317728D01*
X126119545Y-131317728D01*
X126119545Y-131635001D01*
G37*
G36*
X128023182Y-133538637D02*
G01*
X127705909Y-133538637D01*
X127705909Y-133221364D01*
X128023182Y-133221364D01*
X128023182Y-133538637D01*
G37*
G36*
X127388636Y-138615000D02*
G01*
X127071364Y-138615000D01*
X127071364Y-138297727D01*
X127388636Y-138297727D01*
X127388636Y-138615000D01*
G37*
G36*
X129609545Y-138297727D02*
G01*
X129292273Y-138297727D01*
X129292273Y-137980455D01*
X129609545Y-137980455D01*
X129609545Y-138297727D01*
G37*
G36*
X131195909Y-136394091D02*
G01*
X130878636Y-136394091D01*
X130878636Y-136076819D01*
X131195909Y-136076819D01*
X131195909Y-136394091D01*
G37*
G36*
X128657727Y-138932273D02*
G01*
X128340454Y-138932273D01*
X128340454Y-138615000D01*
X128657727Y-138615000D01*
X128657727Y-138932273D01*
G37*
G36*
X125167727Y-135125000D02*
G01*
X124850455Y-135125000D01*
X124850455Y-134807728D01*
X125167727Y-134807728D01*
X125167727Y-135125000D01*
G37*
G36*
X128023182Y-137980455D02*
G01*
X127705909Y-137980455D01*
X127705909Y-137663182D01*
X128023182Y-137663182D01*
X128023182Y-137980455D01*
G37*
G36*
X131195909Y-136711364D02*
G01*
X130878636Y-136711364D01*
X130878636Y-136394091D01*
X131195909Y-136394091D01*
X131195909Y-136711364D01*
G37*
G36*
X125485000Y-132269546D02*
G01*
X125167727Y-132269546D01*
X125167727Y-131952273D01*
X125485000Y-131952273D01*
X125485000Y-132269546D01*
G37*
G36*
X128657727Y-138615000D02*
G01*
X128340454Y-138615000D01*
X128340454Y-138297727D01*
X128657727Y-138297727D01*
X128657727Y-138615000D01*
G37*
G36*
X128657727Y-132586819D02*
G01*
X128340454Y-132586819D01*
X128340454Y-132269546D01*
X128657727Y-132269546D01*
X128657727Y-132586819D01*
G37*
G36*
X125167727Y-134490455D02*
G01*
X124850455Y-134490455D01*
X124850455Y-134173182D01*
X125167727Y-134173182D01*
X125167727Y-134490455D01*
G37*
G36*
X128657727Y-133855910D02*
G01*
X128340454Y-133855910D01*
X128340454Y-133538637D01*
X128657727Y-133538637D01*
X128657727Y-133855910D01*
G37*
G36*
X127705909Y-133855910D02*
G01*
X127388636Y-133855910D01*
X127388636Y-133538637D01*
X127705909Y-133538637D01*
X127705909Y-133855910D01*
G37*
G36*
X131513181Y-132269546D02*
G01*
X131195909Y-132269546D01*
X131195909Y-131952273D01*
X131513181Y-131952273D01*
X131513181Y-132269546D01*
G37*
G36*
X129926818Y-133538637D02*
G01*
X129609545Y-133538637D01*
X129609545Y-133221364D01*
X129926818Y-133221364D01*
X129926818Y-133538637D01*
G37*
G36*
X128023182Y-136711364D02*
G01*
X127705909Y-136711364D01*
X127705909Y-136394091D01*
X128023182Y-136394091D01*
X128023182Y-136711364D01*
G37*
G36*
X128975000Y-138932273D02*
G01*
X128657727Y-138932273D01*
X128657727Y-138615000D01*
X128975000Y-138615000D01*
X128975000Y-138932273D01*
G37*
G36*
X132464999Y-136076819D02*
G01*
X132147727Y-136076819D01*
X132147727Y-135759546D01*
X132464999Y-135759546D01*
X132464999Y-136076819D01*
G37*
G36*
X128657727Y-134490455D02*
G01*
X128340454Y-134490455D01*
X128340454Y-134173182D01*
X128657727Y-134173182D01*
X128657727Y-134490455D01*
G37*
G36*
X132147727Y-138932273D02*
G01*
X131830454Y-138932273D01*
X131830454Y-138615000D01*
X132147727Y-138615000D01*
X132147727Y-138932273D01*
G37*
G36*
X131195909Y-137663182D02*
G01*
X130878636Y-137663182D01*
X130878636Y-137345909D01*
X131195909Y-137345909D01*
X131195909Y-137663182D01*
G37*
G36*
X132464999Y-132904091D02*
G01*
X132147727Y-132904091D01*
X132147727Y-132586819D01*
X132464999Y-132586819D01*
X132464999Y-132904091D01*
G37*
G36*
X127388636Y-132269546D02*
G01*
X127071364Y-132269546D01*
X127071364Y-131952273D01*
X127388636Y-131952273D01*
X127388636Y-132269546D01*
G37*
G36*
X130244091Y-135125000D02*
G01*
X129926818Y-135125000D01*
X129926818Y-134807728D01*
X130244091Y-134807728D01*
X130244091Y-135125000D01*
G37*
G36*
X131513181Y-132904091D02*
G01*
X131195909Y-132904091D01*
X131195909Y-132586819D01*
X131513181Y-132586819D01*
X131513181Y-132904091D01*
G37*
G36*
X129926818Y-137028637D02*
G01*
X129609545Y-137028637D01*
X129609545Y-136711364D01*
X129926818Y-136711364D01*
X129926818Y-137028637D01*
G37*
G36*
X128340454Y-136076819D02*
G01*
X128023182Y-136076819D01*
X128023182Y-135759546D01*
X128340454Y-135759546D01*
X128340454Y-136076819D01*
G37*
G36*
X126754091Y-137345909D02*
G01*
X126436818Y-137345909D01*
X126436818Y-137028637D01*
X126754091Y-137028637D01*
X126754091Y-137345909D01*
G37*
G36*
X131513181Y-135442273D02*
G01*
X131195909Y-135442273D01*
X131195909Y-135125000D01*
X131513181Y-135125000D01*
X131513181Y-135442273D01*
G37*
G36*
X130561363Y-131952273D02*
G01*
X130244091Y-131952273D01*
X130244091Y-131635001D01*
X130561363Y-131635001D01*
X130561363Y-131952273D01*
G37*
G36*
X132147727Y-131635001D02*
G01*
X131830454Y-131635001D01*
X131830454Y-131317728D01*
X132147727Y-131317728D01*
X132147727Y-131635001D01*
G37*
G36*
X126119545Y-138615000D02*
G01*
X125802273Y-138615000D01*
X125802273Y-138297727D01*
X126119545Y-138297727D01*
X126119545Y-138615000D01*
G37*
G36*
X130244091Y-135442273D02*
G01*
X129926818Y-135442273D01*
X129926818Y-135125000D01*
X130244091Y-135125000D01*
X130244091Y-135442273D01*
G37*
G36*
X132464999Y-131952273D02*
G01*
X132147727Y-131952273D01*
X132147727Y-131635001D01*
X132464999Y-131635001D01*
X132464999Y-131952273D01*
G37*
G36*
X128657727Y-134807728D02*
G01*
X128340454Y-134807728D01*
X128340454Y-134490455D01*
X128657727Y-134490455D01*
X128657727Y-134807728D01*
G37*
G36*
X126754091Y-138297727D02*
G01*
X126436818Y-138297727D01*
X126436818Y-137980455D01*
X126754091Y-137980455D01*
X126754091Y-138297727D01*
G37*
G36*
X124850455Y-132586819D02*
G01*
X124533182Y-132586819D01*
X124533182Y-132269546D01*
X124850455Y-132269546D01*
X124850455Y-132586819D01*
G37*
G36*
X132147727Y-133538637D02*
G01*
X131830454Y-133538637D01*
X131830454Y-133221364D01*
X132147727Y-133221364D01*
X132147727Y-133538637D01*
G37*
G36*
X128975000Y-135125000D02*
G01*
X128657727Y-135125000D01*
X128657727Y-134807728D01*
X128975000Y-134807728D01*
X128975000Y-135125000D01*
G37*
G36*
X129926818Y-137663182D02*
G01*
X129609545Y-137663182D01*
X129609545Y-137345909D01*
X129926818Y-137345909D01*
X129926818Y-137663182D01*
G37*
G36*
X131830454Y-132269546D02*
G01*
X131513181Y-132269546D01*
X131513181Y-131952273D01*
X131830454Y-131952273D01*
X131830454Y-132269546D01*
G37*
G36*
X128975000Y-135442273D02*
G01*
X128657727Y-135442273D01*
X128657727Y-135125000D01*
X128975000Y-135125000D01*
X128975000Y-135442273D01*
G37*
G36*
X128657727Y-137980455D02*
G01*
X128340454Y-137980455D01*
X128340454Y-137663182D01*
X128657727Y-137663182D01*
X128657727Y-137980455D01*
G37*
G36*
X129926818Y-136711364D02*
G01*
X129609545Y-136711364D01*
X129609545Y-136394091D01*
X129926818Y-136394091D01*
X129926818Y-136711364D01*
G37*
G36*
X125485000Y-136711364D02*
G01*
X125167727Y-136711364D01*
X125167727Y-136394091D01*
X125485000Y-136394091D01*
X125485000Y-136711364D01*
G37*
G36*
X130561363Y-135442273D02*
G01*
X130244091Y-135442273D01*
X130244091Y-135125000D01*
X130561363Y-135125000D01*
X130561363Y-135442273D01*
G37*
G36*
X127388636Y-134173182D02*
G01*
X127071364Y-134173182D01*
X127071364Y-133855910D01*
X127388636Y-133855910D01*
X127388636Y-134173182D01*
G37*
G36*
X132464999Y-138615000D02*
G01*
X132147727Y-138615000D01*
X132147727Y-138297727D01*
X132464999Y-138297727D01*
X132464999Y-138615000D01*
G37*
G36*
X129926818Y-133855910D02*
G01*
X129609545Y-133855910D01*
X129609545Y-133538637D01*
X129926818Y-133538637D01*
X129926818Y-133855910D01*
G37*
G36*
X128975000Y-139249545D02*
G01*
X128657727Y-139249545D01*
X128657727Y-138932273D01*
X128975000Y-138932273D01*
X128975000Y-139249545D01*
G37*
G36*
X131195909Y-138615000D02*
G01*
X130878636Y-138615000D01*
X130878636Y-138297727D01*
X131195909Y-138297727D01*
X131195909Y-138615000D01*
G37*
G36*
X126119545Y-139249545D02*
G01*
X125802273Y-139249545D01*
X125802273Y-138932273D01*
X126119545Y-138932273D01*
X126119545Y-139249545D01*
G37*
G36*
X129609545Y-133221364D02*
G01*
X129292273Y-133221364D01*
X129292273Y-132904091D01*
X129609545Y-132904091D01*
X129609545Y-133221364D01*
G37*
G36*
X126436818Y-137345909D02*
G01*
X126119545Y-137345909D01*
X126119545Y-137028637D01*
X126436818Y-137028637D01*
X126436818Y-137345909D01*
G37*
G36*
X125167727Y-134807728D02*
G01*
X124850455Y-134807728D01*
X124850455Y-134490455D01*
X125167727Y-134490455D01*
X125167727Y-134807728D01*
G37*
G36*
X126754091Y-138932273D02*
G01*
X126436818Y-138932273D01*
X126436818Y-138615000D01*
X126754091Y-138615000D01*
X126754091Y-138932273D01*
G37*
G36*
X124850455Y-134173182D02*
G01*
X124533182Y-134173182D01*
X124533182Y-133855910D01*
X124850455Y-133855910D01*
X124850455Y-134173182D01*
G37*
G36*
X129926818Y-136394091D02*
G01*
X129609545Y-136394091D01*
X129609545Y-136076819D01*
X129926818Y-136076819D01*
X129926818Y-136394091D01*
G37*
G36*
X124850455Y-131952273D02*
G01*
X124533182Y-131952273D01*
X124533182Y-131635001D01*
X124850455Y-131635001D01*
X124850455Y-131952273D01*
G37*
G36*
X124850455Y-132904091D02*
G01*
X124533182Y-132904091D01*
X124533182Y-132586819D01*
X124850455Y-132586819D01*
X124850455Y-132904091D01*
G37*
G36*
X131830454Y-138297727D02*
G01*
X131513181Y-138297727D01*
X131513181Y-137980455D01*
X131830454Y-137980455D01*
X131830454Y-138297727D01*
G37*
G36*
X129926818Y-138615000D02*
G01*
X129609545Y-138615000D01*
X129609545Y-138297727D01*
X129926818Y-138297727D01*
X129926818Y-138615000D01*
G37*
G36*
X131195909Y-138297727D02*
G01*
X130878636Y-138297727D01*
X130878636Y-137980455D01*
X131195909Y-137980455D01*
X131195909Y-138297727D01*
G37*
G36*
X125802273Y-139249545D02*
G01*
X125485000Y-139249545D01*
X125485000Y-138932273D01*
X125802273Y-138932273D01*
X125802273Y-139249545D01*
G37*
G36*
X129292273Y-133538637D02*
G01*
X128975000Y-133538637D01*
X128975000Y-133221364D01*
X129292273Y-133221364D01*
X129292273Y-133538637D01*
G37*
G36*
X128340454Y-134490455D02*
G01*
X128023182Y-134490455D01*
X128023182Y-134173182D01*
X128340454Y-134173182D01*
X128340454Y-134490455D01*
G37*
G36*
X127388636Y-133538637D02*
G01*
X127071364Y-133538637D01*
X127071364Y-133221364D01*
X127388636Y-133221364D01*
X127388636Y-133538637D01*
G37*
G36*
X132147727Y-137028637D02*
G01*
X131830454Y-137028637D01*
X131830454Y-136711364D01*
X132147727Y-136711364D01*
X132147727Y-137028637D01*
G37*
G36*
X128340454Y-132586819D02*
G01*
X128023182Y-132586819D01*
X128023182Y-132269546D01*
X128340454Y-132269546D01*
X128340454Y-132586819D01*
G37*
G36*
X130561363Y-133221364D02*
G01*
X130244091Y-133221364D01*
X130244091Y-132904091D01*
X130561363Y-132904091D01*
X130561363Y-133221364D01*
G37*
G36*
X126754091Y-134173182D02*
G01*
X126436818Y-134173182D01*
X126436818Y-133855910D01*
X126754091Y-133855910D01*
X126754091Y-134173182D01*
G37*
G36*
X127388636Y-138932273D02*
G01*
X127071364Y-138932273D01*
X127071364Y-138615000D01*
X127388636Y-138615000D01*
X127388636Y-138932273D01*
G37*
G36*
X130878636Y-133538637D02*
G01*
X130561363Y-133538637D01*
X130561363Y-133221364D01*
X130878636Y-133221364D01*
X130878636Y-133538637D01*
G37*
G36*
X125167727Y-139249545D02*
G01*
X124850455Y-139249545D01*
X124850455Y-138932273D01*
X125167727Y-138932273D01*
X125167727Y-139249545D01*
G37*
G36*
X131513181Y-137663182D02*
G01*
X131195909Y-137663182D01*
X131195909Y-137345909D01*
X131513181Y-137345909D01*
X131513181Y-137663182D01*
G37*
G36*
X125485000Y-131635001D02*
G01*
X125167727Y-131635001D01*
X125167727Y-131317728D01*
X125485000Y-131317728D01*
X125485000Y-131635001D01*
G37*
G36*
X127388636Y-137663182D02*
G01*
X127071364Y-137663182D01*
X127071364Y-137345909D01*
X127388636Y-137345909D01*
X127388636Y-137663182D01*
G37*
G36*
X124850455Y-139249545D02*
G01*
X124533182Y-139249545D01*
X124533182Y-138932273D01*
X124850455Y-138932273D01*
X124850455Y-139249545D01*
G37*
G36*
X125485000Y-132904091D02*
G01*
X125167727Y-132904091D01*
X125167727Y-132586819D01*
X125485000Y-132586819D01*
X125485000Y-132904091D01*
G37*
G36*
X126119545Y-132904091D02*
G01*
X125802273Y-132904091D01*
X125802273Y-132586819D01*
X126119545Y-132586819D01*
X126119545Y-132904091D01*
G37*
G36*
X131830454Y-131635001D02*
G01*
X131513181Y-131635001D01*
X131513181Y-131317728D01*
X131830454Y-131317728D01*
X131830454Y-131635001D01*
G37*
G36*
X124850455Y-132269546D02*
G01*
X124533182Y-132269546D01*
X124533182Y-131952273D01*
X124850455Y-131952273D01*
X124850455Y-132269546D01*
G37*
G36*
X128657727Y-135125000D02*
G01*
X128340454Y-135125000D01*
X128340454Y-134807728D01*
X128657727Y-134807728D01*
X128657727Y-135125000D01*
G37*
G36*
X130878636Y-136711364D02*
G01*
X130561363Y-136711364D01*
X130561363Y-136394091D01*
X130878636Y-136394091D01*
X130878636Y-136711364D01*
G37*
G36*
X129926818Y-139249545D02*
G01*
X129609545Y-139249545D01*
X129609545Y-138932273D01*
X129926818Y-138932273D01*
X129926818Y-139249545D01*
G37*
G36*
X124850455Y-137345909D02*
G01*
X124533182Y-137345909D01*
X124533182Y-137028637D01*
X124850455Y-137028637D01*
X124850455Y-137345909D01*
G37*
G36*
X128340454Y-139249545D02*
G01*
X128023182Y-139249545D01*
X128023182Y-138932273D01*
X128340454Y-138932273D01*
X128340454Y-139249545D01*
G37*
G36*
X124850455Y-134807728D02*
G01*
X124533182Y-134807728D01*
X124533182Y-134490455D01*
X124850455Y-134490455D01*
X124850455Y-134807728D01*
G37*
G36*
X125485000Y-132586819D02*
G01*
X125167727Y-132586819D01*
X125167727Y-132269546D01*
X125485000Y-132269546D01*
X125485000Y-132586819D01*
G37*
G36*
X129926818Y-135759546D02*
G01*
X129609545Y-135759546D01*
X129609545Y-135442273D01*
X129926818Y-135442273D01*
X129926818Y-135759546D01*
G37*
G36*
X126754091Y-134807728D02*
G01*
X126436818Y-134807728D01*
X126436818Y-134490455D01*
X126754091Y-134490455D01*
X126754091Y-134807728D01*
G37*
G36*
X128975000Y-136394091D02*
G01*
X128657727Y-136394091D01*
X128657727Y-136076819D01*
X128975000Y-136076819D01*
X128975000Y-136394091D01*
G37*
G36*
X125167727Y-133538637D02*
G01*
X124850455Y-133538637D01*
X124850455Y-133221364D01*
X125167727Y-133221364D01*
X125167727Y-133538637D01*
G37*
G36*
X129609545Y-138615000D02*
G01*
X129292273Y-138615000D01*
X129292273Y-138297727D01*
X129609545Y-138297727D01*
X129609545Y-138615000D01*
G37*
G36*
X128340454Y-135125000D02*
G01*
X128023182Y-135125000D01*
X128023182Y-134807728D01*
X128340454Y-134807728D01*
X128340454Y-135125000D01*
G37*
G36*
X130244091Y-137980455D02*
G01*
X129926818Y-137980455D01*
X129926818Y-137663182D01*
X130244091Y-137663182D01*
X130244091Y-137980455D01*
G37*
G36*
X125167727Y-137345909D02*
G01*
X124850455Y-137345909D01*
X124850455Y-137028637D01*
X125167727Y-137028637D01*
X125167727Y-137345909D01*
G37*
G36*
X128975000Y-131635001D02*
G01*
X128657727Y-131635001D01*
X128657727Y-131317728D01*
X128975000Y-131317728D01*
X128975000Y-131635001D01*
G37*
G36*
X130561363Y-133538637D02*
G01*
X130244091Y-133538637D01*
X130244091Y-133221364D01*
X130561363Y-133221364D01*
X130561363Y-133538637D01*
G37*
G36*
X124850455Y-131635001D02*
G01*
X124533182Y-131635001D01*
X124533182Y-131317728D01*
X124850455Y-131317728D01*
X124850455Y-131635001D01*
G37*
G36*
X132147727Y-135442273D02*
G01*
X131830454Y-135442273D01*
X131830454Y-135125000D01*
X132147727Y-135125000D01*
X132147727Y-135442273D01*
G37*
G36*
X127705909Y-136076819D02*
G01*
X127388636Y-136076819D01*
X127388636Y-135759546D01*
X127705909Y-135759546D01*
X127705909Y-136076819D01*
G37*
G36*
X124850455Y-138297727D02*
G01*
X124533182Y-138297727D01*
X124533182Y-137980455D01*
X124850455Y-137980455D01*
X124850455Y-138297727D01*
G37*
G36*
X131195909Y-132586819D02*
G01*
X130878636Y-132586819D01*
X130878636Y-132269546D01*
X131195909Y-132269546D01*
X131195909Y-132586819D01*
G37*
G36*
X124850455Y-136076819D02*
G01*
X124533182Y-136076819D01*
X124533182Y-135759546D01*
X124850455Y-135759546D01*
X124850455Y-136076819D01*
G37*
G36*
X128975000Y-134490455D02*
G01*
X128657727Y-134490455D01*
X128657727Y-134173182D01*
X128975000Y-134173182D01*
X128975000Y-134490455D01*
G37*
G36*
X129292273Y-134807728D02*
G01*
X128975000Y-134807728D01*
X128975000Y-134490455D01*
X129292273Y-134490455D01*
X129292273Y-134807728D01*
G37*
G36*
X132464999Y-132586819D02*
G01*
X132147727Y-132586819D01*
X132147727Y-132269546D01*
X132464999Y-132269546D01*
X132464999Y-132586819D01*
G37*
G36*
X125802273Y-138615000D02*
G01*
X125485000Y-138615000D01*
X125485000Y-138297727D01*
X125802273Y-138297727D01*
X125802273Y-138615000D01*
G37*
G36*
X129609545Y-139249545D02*
G01*
X129292273Y-139249545D01*
X129292273Y-138932273D01*
X129609545Y-138932273D01*
X129609545Y-139249545D01*
G37*
G36*
X127705909Y-138615000D02*
G01*
X127388636Y-138615000D01*
X127388636Y-138297727D01*
X127705909Y-138297727D01*
X127705909Y-138615000D01*
G37*
G36*
X127388636Y-137028637D02*
G01*
X127071364Y-137028637D01*
X127071364Y-136711364D01*
X127388636Y-136711364D01*
X127388636Y-137028637D01*
G37*
G36*
X132464999Y-134490455D02*
G01*
X132147727Y-134490455D01*
X132147727Y-134173182D01*
X132464999Y-134173182D01*
X132464999Y-134490455D01*
G37*
G36*
X125485000Y-135442273D02*
G01*
X125167727Y-135442273D01*
X125167727Y-135125000D01*
X125485000Y-135125000D01*
X125485000Y-135442273D01*
G37*
G36*
X130878636Y-139249545D02*
G01*
X130561363Y-139249545D01*
X130561363Y-138932273D01*
X130878636Y-138932273D01*
X130878636Y-139249545D01*
G37*
G36*
X130244091Y-134490455D02*
G01*
X129926818Y-134490455D01*
X129926818Y-134173182D01*
X130244091Y-134173182D01*
X130244091Y-134490455D01*
G37*
G36*
X126119545Y-136076819D02*
G01*
X125802273Y-136076819D01*
X125802273Y-135759546D01*
X126119545Y-135759546D01*
X126119545Y-136076819D01*
G37*
G36*
X130561363Y-134173182D02*
G01*
X130244091Y-134173182D01*
X130244091Y-133855910D01*
X130561363Y-133855910D01*
X130561363Y-134173182D01*
G37*
G36*
X132147727Y-137345909D02*
G01*
X131830454Y-137345909D01*
X131830454Y-137028637D01*
X132147727Y-137028637D01*
X132147727Y-137345909D01*
G37*
G36*
X128975000Y-134807728D02*
G01*
X128657727Y-134807728D01*
X128657727Y-134490455D01*
X128975000Y-134490455D01*
X128975000Y-134807728D01*
G37*
G36*
X127388636Y-133855910D02*
G01*
X127071364Y-133855910D01*
X127071364Y-133538637D01*
X127388636Y-133538637D01*
X127388636Y-133855910D01*
G37*
G36*
X126754091Y-133221364D02*
G01*
X126436818Y-133221364D01*
X126436818Y-132904091D01*
X126754091Y-132904091D01*
X126754091Y-133221364D01*
G37*
G36*
X132464999Y-137345909D02*
G01*
X132147727Y-137345909D01*
X132147727Y-137028637D01*
X132464999Y-137028637D01*
X132464999Y-137345909D01*
G37*
G36*
X131830454Y-134173182D02*
G01*
X131513181Y-134173182D01*
X131513181Y-133855910D01*
X131830454Y-133855910D01*
X131830454Y-134173182D01*
G37*
G36*
X128023182Y-134173182D02*
G01*
X127705909Y-134173182D01*
X127705909Y-133855910D01*
X128023182Y-133855910D01*
X128023182Y-134173182D01*
G37*
G36*
X127705909Y-137663182D02*
G01*
X127388636Y-137663182D01*
X127388636Y-137345909D01*
X127705909Y-137345909D01*
X127705909Y-137663182D01*
G37*
G36*
X131830454Y-134807728D02*
G01*
X131513181Y-134807728D01*
X131513181Y-134490455D01*
X131830454Y-134490455D01*
X131830454Y-134807728D01*
G37*
G36*
X130561363Y-137345909D02*
G01*
X130244091Y-137345909D01*
X130244091Y-137028637D01*
X130561363Y-137028637D01*
X130561363Y-137345909D01*
G37*
G36*
X126119545Y-133538637D02*
G01*
X125802273Y-133538637D01*
X125802273Y-133221364D01*
X126119545Y-133221364D01*
X126119545Y-133538637D01*
G37*
G36*
X125802273Y-132586819D02*
G01*
X125485000Y-132586819D01*
X125485000Y-132269546D01*
X125802273Y-132269546D01*
X125802273Y-132586819D01*
G37*
G36*
X126119545Y-134807728D02*
G01*
X125802273Y-134807728D01*
X125802273Y-134490455D01*
X126119545Y-134490455D01*
X126119545Y-134807728D01*
G37*
G36*
X126436818Y-135759546D02*
G01*
X126119545Y-135759546D01*
X126119545Y-135442273D01*
X126436818Y-135442273D01*
X126436818Y-135759546D01*
G37*
G36*
X128340454Y-137028637D02*
G01*
X128023182Y-137028637D01*
X128023182Y-136711364D01*
X128340454Y-136711364D01*
X128340454Y-137028637D01*
G37*
G36*
X132147727Y-139249545D02*
G01*
X131830454Y-139249545D01*
X131830454Y-138932273D01*
X132147727Y-138932273D01*
X132147727Y-139249545D01*
G37*
G36*
X131195909Y-137980455D02*
G01*
X130878636Y-137980455D01*
X130878636Y-137663182D01*
X131195909Y-137663182D01*
X131195909Y-137980455D01*
G37*
G36*
X124850455Y-137663182D02*
G01*
X124533182Y-137663182D01*
X124533182Y-137345909D01*
X124850455Y-137345909D01*
X124850455Y-137663182D01*
G37*
G36*
X127388636Y-137980455D02*
G01*
X127071364Y-137980455D01*
X127071364Y-137663182D01*
X127388636Y-137663182D01*
X127388636Y-137980455D01*
G37*
G36*
X131830454Y-133538637D02*
G01*
X131513181Y-133538637D01*
X131513181Y-133221364D01*
X131830454Y-133221364D01*
X131830454Y-133538637D01*
G37*
G36*
X132464999Y-139249545D02*
G01*
X132147727Y-139249545D01*
X132147727Y-138932273D01*
X132464999Y-138932273D01*
X132464999Y-139249545D01*
G37*
G36*
X125802273Y-137980455D02*
G01*
X125485000Y-137980455D01*
X125485000Y-137663182D01*
X125802273Y-137663182D01*
X125802273Y-137980455D01*
G37*
G36*
X130878636Y-136076819D02*
G01*
X130561363Y-136076819D01*
X130561363Y-135759546D01*
X130878636Y-135759546D01*
X130878636Y-136076819D01*
G37*
G36*
X125167727Y-135442273D02*
G01*
X124850455Y-135442273D01*
X124850455Y-135125000D01*
X125167727Y-135125000D01*
X125167727Y-135442273D01*
G37*
G36*
X126436818Y-139249545D02*
G01*
X126119545Y-139249545D01*
X126119545Y-138932273D01*
X126436818Y-138932273D01*
X126436818Y-139249545D01*
G37*
G36*
X127071364Y-135759546D02*
G01*
X126754091Y-135759546D01*
X126754091Y-135442273D01*
X127071364Y-135442273D01*
X127071364Y-135759546D01*
G37*
G36*
X126119545Y-136711364D02*
G01*
X125802273Y-136711364D01*
X125802273Y-136394091D01*
X126119545Y-136394091D01*
X126119545Y-136711364D01*
G37*
G36*
X130561363Y-131635001D02*
G01*
X130244091Y-131635001D01*
X130244091Y-131317728D01*
X130561363Y-131317728D01*
X130561363Y-131635001D01*
G37*
G36*
X127071364Y-135442273D02*
G01*
X126754091Y-135442273D01*
X126754091Y-135125000D01*
X127071364Y-135125000D01*
X127071364Y-135442273D01*
G37*
G36*
X125485000Y-139249545D02*
G01*
X125167727Y-139249545D01*
X125167727Y-138932273D01*
X125485000Y-138932273D01*
X125485000Y-139249545D01*
G37*
G36*
X129292273Y-136076819D02*
G01*
X128975000Y-136076819D01*
X128975000Y-135759546D01*
X129292273Y-135759546D01*
X129292273Y-136076819D01*
G37*
G36*
X127705909Y-135125000D02*
G01*
X127388636Y-135125000D01*
X127388636Y-134807728D01*
X127705909Y-134807728D01*
X127705909Y-135125000D01*
G37*
G36*
X126119545Y-132269546D02*
G01*
X125802273Y-132269546D01*
X125802273Y-131952273D01*
X126119545Y-131952273D01*
X126119545Y-132269546D01*
G37*
G36*
X124850455Y-133221364D02*
G01*
X124533182Y-133221364D01*
X124533182Y-132904091D01*
X124850455Y-132904091D01*
X124850455Y-133221364D01*
G37*
G36*
X124850455Y-138932273D02*
G01*
X124533182Y-138932273D01*
X124533182Y-138615000D01*
X124850455Y-138615000D01*
X124850455Y-138932273D01*
G37*
G36*
X128657727Y-132904091D02*
G01*
X128340454Y-132904091D01*
X128340454Y-132586819D01*
X128657727Y-132586819D01*
X128657727Y-132904091D01*
G37*
G36*
X128975000Y-134173182D02*
G01*
X128657727Y-134173182D01*
X128657727Y-133855910D01*
X128975000Y-133855910D01*
X128975000Y-134173182D01*
G37*
G36*
X126436818Y-136394091D02*
G01*
X126119545Y-136394091D01*
X126119545Y-136076819D01*
X126436818Y-136076819D01*
X126436818Y-136394091D01*
G37*
G36*
X128340454Y-132904091D02*
G01*
X128023182Y-132904091D01*
X128023182Y-132586819D01*
X128340454Y-132586819D01*
X128340454Y-132904091D01*
G37*
G36*
X125802273Y-133538637D02*
G01*
X125485000Y-133538637D01*
X125485000Y-133221364D01*
X125802273Y-133221364D01*
X125802273Y-133538637D01*
G37*
G36*
X127071364Y-135125000D02*
G01*
X126754091Y-135125000D01*
X126754091Y-134807728D01*
X127071364Y-134807728D01*
X127071364Y-135125000D01*
G37*
G36*
X131513181Y-137028637D02*
G01*
X131195909Y-137028637D01*
X131195909Y-136711364D01*
X131513181Y-136711364D01*
X131513181Y-137028637D01*
G37*
G36*
X129292273Y-138615000D02*
G01*
X128975000Y-138615000D01*
X128975000Y-138297727D01*
X129292273Y-138297727D01*
X129292273Y-138615000D01*
G37*
G36*
X127705909Y-134490455D02*
G01*
X127388636Y-134490455D01*
X127388636Y-134173182D01*
X127705909Y-134173182D01*
X127705909Y-134490455D01*
G37*
G36*
X131513181Y-137345909D02*
G01*
X131195909Y-137345909D01*
X131195909Y-137028637D01*
X131513181Y-137028637D01*
X131513181Y-137345909D01*
G37*
G36*
X125485000Y-137345909D02*
G01*
X125167727Y-137345909D01*
X125167727Y-137028637D01*
X125485000Y-137028637D01*
X125485000Y-137345909D01*
G37*
G36*
X130561363Y-136711364D02*
G01*
X130244091Y-136711364D01*
X130244091Y-136394091D01*
X130561363Y-136394091D01*
X130561363Y-136711364D01*
G37*
G36*
X126754091Y-138615000D02*
G01*
X126436818Y-138615000D01*
X126436818Y-138297727D01*
X126754091Y-138297727D01*
X126754091Y-138615000D01*
G37*
G36*
X125802273Y-137345909D02*
G01*
X125485000Y-137345909D01*
X125485000Y-137028637D01*
X125802273Y-137028637D01*
X125802273Y-137345909D01*
G37*
G36*
X131195909Y-131635001D02*
G01*
X130878636Y-131635001D01*
X130878636Y-131317728D01*
X131195909Y-131317728D01*
X131195909Y-131635001D01*
G37*
G36*
X128975000Y-136076819D02*
G01*
X128657727Y-136076819D01*
X128657727Y-135759546D01*
X128975000Y-135759546D01*
X128975000Y-136076819D01*
G37*
G36*
X125485000Y-136394091D02*
G01*
X125167727Y-136394091D01*
X125167727Y-136076819D01*
X125485000Y-136076819D01*
X125485000Y-136394091D01*
G37*
G36*
X129609545Y-138932273D02*
G01*
X129292273Y-138932273D01*
X129292273Y-138615000D01*
X129609545Y-138615000D01*
X129609545Y-138932273D01*
G37*
G36*
X126436818Y-133538637D02*
G01*
X126119545Y-133538637D01*
X126119545Y-133221364D01*
X126436818Y-133221364D01*
X126436818Y-133538637D01*
G37*
G36*
X125802273Y-135442273D02*
G01*
X125485000Y-135442273D01*
X125485000Y-135125000D01*
X125802273Y-135125000D01*
X125802273Y-135442273D01*
G37*
G36*
X126754091Y-137980455D02*
G01*
X126436818Y-137980455D01*
X126436818Y-137663182D01*
X126754091Y-137663182D01*
X126754091Y-137980455D01*
G37*
G36*
X128340454Y-135442273D02*
G01*
X128023182Y-135442273D01*
X128023182Y-135125000D01*
X128340454Y-135125000D01*
X128340454Y-135442273D01*
G37*
G36*
X130561363Y-137980455D02*
G01*
X130244091Y-137980455D01*
X130244091Y-137663182D01*
X130561363Y-137663182D01*
X130561363Y-137980455D01*
G37*
G36*
X128975000Y-133855910D02*
G01*
X128657727Y-133855910D01*
X128657727Y-133538637D01*
X128975000Y-133538637D01*
X128975000Y-133855910D01*
G37*
G36*
X128657727Y-131952273D02*
G01*
X128340454Y-131952273D01*
X128340454Y-131635001D01*
X128657727Y-131635001D01*
X128657727Y-131952273D01*
G37*
G36*
X124850455Y-137980455D02*
G01*
X124533182Y-137980455D01*
X124533182Y-137663182D01*
X124850455Y-137663182D01*
X124850455Y-137980455D01*
G37*
G36*
X126754091Y-132586819D02*
G01*
X126436818Y-132586819D01*
X126436818Y-132269546D01*
X126754091Y-132269546D01*
X126754091Y-132586819D01*
G37*
G36*
X129926818Y-138932273D02*
G01*
X129609545Y-138932273D01*
X129609545Y-138615000D01*
X129926818Y-138615000D01*
X129926818Y-138932273D01*
G37*
G36*
X130561363Y-134490455D02*
G01*
X130244091Y-134490455D01*
X130244091Y-134173182D01*
X130561363Y-134173182D01*
X130561363Y-134490455D01*
G37*
G36*
X126754091Y-136076819D02*
G01*
X126436818Y-136076819D01*
X126436818Y-135759546D01*
X126754091Y-135759546D01*
X126754091Y-136076819D01*
G37*
G36*
X129926818Y-137980455D02*
G01*
X129609545Y-137980455D01*
X129609545Y-137663182D01*
X129926818Y-137663182D01*
X129926818Y-137980455D01*
G37*
G36*
X128975000Y-136711364D02*
G01*
X128657727Y-136711364D01*
X128657727Y-136394091D01*
X128975000Y-136394091D01*
X128975000Y-136711364D01*
G37*
G36*
X130878636Y-135442273D02*
G01*
X130561363Y-135442273D01*
X130561363Y-135125000D01*
X130878636Y-135125000D01*
X130878636Y-135442273D01*
G37*
G36*
X126119545Y-134490455D02*
G01*
X125802273Y-134490455D01*
X125802273Y-134173182D01*
X126119545Y-134173182D01*
X126119545Y-134490455D01*
G37*
G36*
X128657727Y-135442273D02*
G01*
X128340454Y-135442273D01*
X128340454Y-135125000D01*
X128657727Y-135125000D01*
X128657727Y-135442273D01*
G37*
G36*
X129609545Y-137345909D02*
G01*
X129292273Y-137345909D01*
X129292273Y-137028637D01*
X129609545Y-137028637D01*
X129609545Y-137345909D01*
G37*
G36*
X128023182Y-138297727D02*
G01*
X127705909Y-138297727D01*
X127705909Y-137980455D01*
X128023182Y-137980455D01*
X128023182Y-138297727D01*
G37*
G36*
X124850455Y-138615000D02*
G01*
X124533182Y-138615000D01*
X124533182Y-138297727D01*
X124850455Y-138297727D01*
X124850455Y-138615000D01*
G37*
G36*
X125485000Y-137980455D02*
G01*
X125167727Y-137980455D01*
X125167727Y-137663182D01*
X125485000Y-137663182D01*
X125485000Y-137980455D01*
G37*
G36*
X126754091Y-133538637D02*
G01*
X126436818Y-133538637D01*
X126436818Y-133221364D01*
X126754091Y-133221364D01*
X126754091Y-133538637D01*
G37*
G36*
X131513181Y-138297727D02*
G01*
X131195909Y-138297727D01*
X131195909Y-137980455D01*
X131513181Y-137980455D01*
X131513181Y-138297727D01*
G37*
G36*
X130244091Y-136076819D02*
G01*
X129926818Y-136076819D01*
X129926818Y-135759546D01*
X130244091Y-135759546D01*
X130244091Y-136076819D01*
G37*
G36*
X130878636Y-138297727D02*
G01*
X130561363Y-138297727D01*
X130561363Y-137980455D01*
X130878636Y-137980455D01*
X130878636Y-138297727D01*
G37*
G36*
X129292273Y-135759546D02*
G01*
X128975000Y-135759546D01*
X128975000Y-135442273D01*
X129292273Y-135442273D01*
X129292273Y-135759546D01*
G37*
G36*
X126436818Y-134173182D02*
G01*
X126119545Y-134173182D01*
X126119545Y-133855910D01*
X126436818Y-133855910D01*
X126436818Y-134173182D01*
G37*
G36*
X131830454Y-132586819D02*
G01*
X131513181Y-132586819D01*
X131513181Y-132269546D01*
X131830454Y-132269546D01*
X131830454Y-132586819D01*
G37*
G36*
X131195909Y-132269546D02*
G01*
X130878636Y-132269546D01*
X130878636Y-131952273D01*
X131195909Y-131952273D01*
X131195909Y-132269546D01*
G37*
G36*
X129292273Y-136711364D02*
G01*
X128975000Y-136711364D01*
X128975000Y-136394091D01*
X129292273Y-136394091D01*
X129292273Y-136711364D01*
G37*
G36*
X132147727Y-136394091D02*
G01*
X131830454Y-136394091D01*
X131830454Y-136076819D01*
X132147727Y-136076819D01*
X132147727Y-136394091D01*
G37*
G36*
X131195909Y-133538637D02*
G01*
X130878636Y-133538637D01*
X130878636Y-133221364D01*
X131195909Y-133221364D01*
X131195909Y-133538637D01*
G37*
D11*
X166812782Y-148671895D02*
X167241353Y-148671895D01*
X167027068Y-148671895D02*
X167027068Y-147871895D01*
X167027068Y-147871895D02*
X167098496Y-147986180D01*
X167098496Y-147986180D02*
X167169925Y-148062371D01*
X167169925Y-148062371D02*
X167241353Y-148100466D01*
X166527067Y-147948085D02*
X166491353Y-147909990D01*
X166491353Y-147909990D02*
X166419925Y-147871895D01*
X166419925Y-147871895D02*
X166241353Y-147871895D01*
X166241353Y-147871895D02*
X166169925Y-147909990D01*
X166169925Y-147909990D02*
X166134210Y-147948085D01*
X166134210Y-147948085D02*
X166098496Y-148024276D01*
X166098496Y-148024276D02*
X166098496Y-148100466D01*
X166098496Y-148100466D02*
X166134210Y-148214752D01*
X166134210Y-148214752D02*
X166562782Y-148671895D01*
X166562782Y-148671895D02*
X166098496Y-148671895D01*
X165884210Y-147871895D02*
X165634210Y-148671895D01*
X165634210Y-148671895D02*
X165384210Y-147871895D01*
X164062781Y-147871895D02*
X163598495Y-147871895D01*
X163598495Y-147871895D02*
X163848495Y-148176657D01*
X163848495Y-148176657D02*
X163741352Y-148176657D01*
X163741352Y-148176657D02*
X163669924Y-148214752D01*
X163669924Y-148214752D02*
X163634209Y-148252847D01*
X163634209Y-148252847D02*
X163598495Y-148329038D01*
X163598495Y-148329038D02*
X163598495Y-148519514D01*
X163598495Y-148519514D02*
X163634209Y-148595704D01*
X163634209Y-148595704D02*
X163669924Y-148633800D01*
X163669924Y-148633800D02*
X163741352Y-148671895D01*
X163741352Y-148671895D02*
X163955638Y-148671895D01*
X163955638Y-148671895D02*
X164027066Y-148633800D01*
X164027066Y-148633800D02*
X164062781Y-148595704D01*
X163348495Y-148138561D02*
X163169923Y-148671895D01*
X163169923Y-148671895D02*
X162991352Y-148138561D01*
X162777066Y-147871895D02*
X162312780Y-147871895D01*
X162312780Y-147871895D02*
X162562780Y-148176657D01*
X162562780Y-148176657D02*
X162455637Y-148176657D01*
X162455637Y-148176657D02*
X162384209Y-148214752D01*
X162384209Y-148214752D02*
X162348494Y-148252847D01*
X162348494Y-148252847D02*
X162312780Y-148329038D01*
X162312780Y-148329038D02*
X162312780Y-148519514D01*
X162312780Y-148519514D02*
X162348494Y-148595704D01*
X162348494Y-148595704D02*
X162384209Y-148633800D01*
X162384209Y-148633800D02*
X162455637Y-148671895D01*
X162455637Y-148671895D02*
X162669923Y-148671895D01*
X162669923Y-148671895D02*
X162741351Y-148633800D01*
X162741351Y-148633800D02*
X162777066Y-148595704D01*
X160598493Y-148252847D02*
X160848493Y-148252847D01*
X160848493Y-148671895D02*
X160848493Y-147871895D01*
X160848493Y-147871895D02*
X160491350Y-147871895D01*
X159812779Y-147909990D02*
X159884208Y-147871895D01*
X159884208Y-147871895D02*
X159991350Y-147871895D01*
X159991350Y-147871895D02*
X160098493Y-147909990D01*
X160098493Y-147909990D02*
X160169922Y-147986180D01*
X160169922Y-147986180D02*
X160205636Y-148062371D01*
X160205636Y-148062371D02*
X160241350Y-148214752D01*
X160241350Y-148214752D02*
X160241350Y-148329038D01*
X160241350Y-148329038D02*
X160205636Y-148481419D01*
X160205636Y-148481419D02*
X160169922Y-148557609D01*
X160169922Y-148557609D02*
X160098493Y-148633800D01*
X160098493Y-148633800D02*
X159991350Y-148671895D01*
X159991350Y-148671895D02*
X159919922Y-148671895D01*
X159919922Y-148671895D02*
X159812779Y-148633800D01*
X159812779Y-148633800D02*
X159777065Y-148595704D01*
X159777065Y-148595704D02*
X159777065Y-148329038D01*
X159777065Y-148329038D02*
X159919922Y-148329038D01*
X158062778Y-148252847D02*
X158312778Y-148252847D01*
X158312778Y-148671895D02*
X158312778Y-147871895D01*
X158312778Y-147871895D02*
X157955635Y-147871895D01*
X157705635Y-148443323D02*
X157348493Y-148443323D01*
X157777064Y-148671895D02*
X157527064Y-147871895D01*
X157527064Y-147871895D02*
X157277064Y-148671895D01*
X157027064Y-147871895D02*
X157027064Y-148519514D01*
X157027064Y-148519514D02*
X156991350Y-148595704D01*
X156991350Y-148595704D02*
X156955636Y-148633800D01*
X156955636Y-148633800D02*
X156884207Y-148671895D01*
X156884207Y-148671895D02*
X156741350Y-148671895D01*
X156741350Y-148671895D02*
X156669921Y-148633800D01*
X156669921Y-148633800D02*
X156634207Y-148595704D01*
X156634207Y-148595704D02*
X156598493Y-148519514D01*
X156598493Y-148519514D02*
X156598493Y-147871895D01*
X155884207Y-148671895D02*
X156241350Y-148671895D01*
X156241350Y-148671895D02*
X156241350Y-147871895D01*
X155741350Y-147871895D02*
X155312779Y-147871895D01*
X155527064Y-148671895D02*
X155527064Y-147871895D01*
D12*
X152597619Y-124579438D02*
X151454762Y-124579438D01*
X152026191Y-126579438D02*
X152026191Y-124579438D01*
X150121428Y-125531819D02*
X150788095Y-125531819D01*
X150788095Y-126579438D02*
X150788095Y-124579438D01*
X150788095Y-124579438D02*
X149835714Y-124579438D01*
X149073809Y-125531819D02*
X148407142Y-125531819D01*
X148121428Y-126579438D02*
X149073809Y-126579438D01*
X149073809Y-126579438D02*
X149073809Y-124579438D01*
X149073809Y-124579438D02*
X148121428Y-124579438D01*
X147359523Y-126484200D02*
X147073809Y-126579438D01*
X147073809Y-126579438D02*
X146597618Y-126579438D01*
X146597618Y-126579438D02*
X146407142Y-126484200D01*
X146407142Y-126484200D02*
X146311904Y-126388961D01*
X146311904Y-126388961D02*
X146216666Y-126198485D01*
X146216666Y-126198485D02*
X146216666Y-126008009D01*
X146216666Y-126008009D02*
X146311904Y-125817533D01*
X146311904Y-125817533D02*
X146407142Y-125722295D01*
X146407142Y-125722295D02*
X146597618Y-125627057D01*
X146597618Y-125627057D02*
X146978571Y-125531819D01*
X146978571Y-125531819D02*
X147169047Y-125436580D01*
X147169047Y-125436580D02*
X147264285Y-125341342D01*
X147264285Y-125341342D02*
X147359523Y-125150866D01*
X147359523Y-125150866D02*
X147359523Y-124960390D01*
X147359523Y-124960390D02*
X147264285Y-124769914D01*
X147264285Y-124769914D02*
X147169047Y-124674676D01*
X147169047Y-124674676D02*
X146978571Y-124579438D01*
X146978571Y-124579438D02*
X146502380Y-124579438D01*
X146502380Y-124579438D02*
X146216666Y-124674676D01*
X144216666Y-126388961D02*
X144311904Y-126484200D01*
X144311904Y-126484200D02*
X144597618Y-126579438D01*
X144597618Y-126579438D02*
X144788094Y-126579438D01*
X144788094Y-126579438D02*
X145073809Y-126484200D01*
X145073809Y-126484200D02*
X145264285Y-126293723D01*
X145264285Y-126293723D02*
X145359523Y-126103247D01*
X145359523Y-126103247D02*
X145454761Y-125722295D01*
X145454761Y-125722295D02*
X145454761Y-125436580D01*
X145454761Y-125436580D02*
X145359523Y-125055628D01*
X145359523Y-125055628D02*
X145264285Y-124865152D01*
X145264285Y-124865152D02*
X145073809Y-124674676D01*
X145073809Y-124674676D02*
X144788094Y-124579438D01*
X144788094Y-124579438D02*
X144597618Y-124579438D01*
X144597618Y-124579438D02*
X144311904Y-124674676D01*
X144311904Y-124674676D02*
X144216666Y-124769914D01*
X142978571Y-124579438D02*
X142788094Y-124579438D01*
X142788094Y-124579438D02*
X142597618Y-124674676D01*
X142597618Y-124674676D02*
X142502380Y-124769914D01*
X142502380Y-124769914D02*
X142407142Y-124960390D01*
X142407142Y-124960390D02*
X142311904Y-125341342D01*
X142311904Y-125341342D02*
X142311904Y-125817533D01*
X142311904Y-125817533D02*
X142407142Y-126198485D01*
X142407142Y-126198485D02*
X142502380Y-126388961D01*
X142502380Y-126388961D02*
X142597618Y-126484200D01*
X142597618Y-126484200D02*
X142788094Y-126579438D01*
X142788094Y-126579438D02*
X142978571Y-126579438D01*
X142978571Y-126579438D02*
X143169047Y-126484200D01*
X143169047Y-126484200D02*
X143264285Y-126388961D01*
X143264285Y-126388961D02*
X143359523Y-126198485D01*
X143359523Y-126198485D02*
X143454761Y-125817533D01*
X143454761Y-125817533D02*
X143454761Y-125341342D01*
X143454761Y-125341342D02*
X143359523Y-124960390D01*
X143359523Y-124960390D02*
X143264285Y-124769914D01*
X143264285Y-124769914D02*
X143169047Y-124674676D01*
X143169047Y-124674676D02*
X142978571Y-124579438D01*
X141549999Y-124769914D02*
X141454761Y-124674676D01*
X141454761Y-124674676D02*
X141264285Y-124579438D01*
X141264285Y-124579438D02*
X140788094Y-124579438D01*
X140788094Y-124579438D02*
X140597618Y-124674676D01*
X140597618Y-124674676D02*
X140502380Y-124769914D01*
X140502380Y-124769914D02*
X140407142Y-124960390D01*
X140407142Y-124960390D02*
X140407142Y-125150866D01*
X140407142Y-125150866D02*
X140502380Y-125436580D01*
X140502380Y-125436580D02*
X141645237Y-126579438D01*
X141645237Y-126579438D02*
X140407142Y-126579438D01*
X139645237Y-126008009D02*
X138692856Y-126008009D01*
X139835713Y-126579438D02*
X139169047Y-124579438D01*
X139169047Y-124579438D02*
X138502380Y-126579438D01*
D13*
X166567662Y-131728571D02*
X165367662Y-131728571D01*
X165481948Y-132242857D02*
X165424805Y-132300000D01*
X165424805Y-132300000D02*
X165367662Y-132414286D01*
X165367662Y-132414286D02*
X165367662Y-132700000D01*
X165367662Y-132700000D02*
X165424805Y-132814286D01*
X165424805Y-132814286D02*
X165481948Y-132871428D01*
X165481948Y-132871428D02*
X165596234Y-132928571D01*
X165596234Y-132928571D02*
X165710520Y-132928571D01*
X165710520Y-132928571D02*
X165881948Y-132871428D01*
X165881948Y-132871428D02*
X166567662Y-132185714D01*
X166567662Y-132185714D02*
X166567662Y-132928571D01*
X166453377Y-134128571D02*
X166510520Y-134071428D01*
X166510520Y-134071428D02*
X166567662Y-133900000D01*
X166567662Y-133900000D02*
X166567662Y-133785714D01*
X166567662Y-133785714D02*
X166510520Y-133614285D01*
X166510520Y-133614285D02*
X166396234Y-133500000D01*
X166396234Y-133500000D02*
X166281948Y-133442857D01*
X166281948Y-133442857D02*
X166053377Y-133385714D01*
X166053377Y-133385714D02*
X165881948Y-133385714D01*
X165881948Y-133385714D02*
X165653377Y-133442857D01*
X165653377Y-133442857D02*
X165539091Y-133500000D01*
X165539091Y-133500000D02*
X165424805Y-133614285D01*
X165424805Y-133614285D02*
X165367662Y-133785714D01*
X165367662Y-133785714D02*
X165367662Y-133900000D01*
X165367662Y-133900000D02*
X165424805Y-134071428D01*
X165424805Y-134071428D02*
X165481948Y-134128571D01*
D11*
X164036904Y-129990122D02*
X164132142Y-129942503D01*
X164132142Y-129942503D02*
X164274999Y-129942503D01*
X164274999Y-129942503D02*
X164417856Y-129990122D01*
X164417856Y-129990122D02*
X164513094Y-130085360D01*
X164513094Y-130085360D02*
X164560713Y-130180598D01*
X164560713Y-130180598D02*
X164608332Y-130371074D01*
X164608332Y-130371074D02*
X164608332Y-130513931D01*
X164608332Y-130513931D02*
X164560713Y-130704407D01*
X164560713Y-130704407D02*
X164513094Y-130799645D01*
X164513094Y-130799645D02*
X164417856Y-130894884D01*
X164417856Y-130894884D02*
X164274999Y-130942503D01*
X164274999Y-130942503D02*
X164179761Y-130942503D01*
X164179761Y-130942503D02*
X164036904Y-130894884D01*
X164036904Y-130894884D02*
X163989285Y-130847264D01*
X163989285Y-130847264D02*
X163989285Y-130513931D01*
X163989285Y-130513931D02*
X164179761Y-130513931D01*
X163560713Y-130942503D02*
X163560713Y-129942503D01*
X163560713Y-129942503D02*
X162989285Y-130942503D01*
X162989285Y-130942503D02*
X162989285Y-129942503D01*
X162513094Y-130942503D02*
X162513094Y-129942503D01*
X162513094Y-129942503D02*
X162274999Y-129942503D01*
X162274999Y-129942503D02*
X162132142Y-129990122D01*
X162132142Y-129990122D02*
X162036904Y-130085360D01*
X162036904Y-130085360D02*
X161989285Y-130180598D01*
X161989285Y-130180598D02*
X161941666Y-130371074D01*
X161941666Y-130371074D02*
X161941666Y-130513931D01*
X161941666Y-130513931D02*
X161989285Y-130704407D01*
X161989285Y-130704407D02*
X162036904Y-130799645D01*
X162036904Y-130799645D02*
X162132142Y-130894884D01*
X162132142Y-130894884D02*
X162274999Y-130942503D01*
X162274999Y-130942503D02*
X162513094Y-130942503D01*
X164489285Y-132504828D02*
X164346428Y-132552447D01*
X164346428Y-132552447D02*
X164108333Y-132552447D01*
X164108333Y-132552447D02*
X164013095Y-132504828D01*
X164013095Y-132504828D02*
X163965476Y-132457208D01*
X163965476Y-132457208D02*
X163917857Y-132361970D01*
X163917857Y-132361970D02*
X163917857Y-132266732D01*
X163917857Y-132266732D02*
X163965476Y-132171494D01*
X163965476Y-132171494D02*
X164013095Y-132123875D01*
X164013095Y-132123875D02*
X164108333Y-132076256D01*
X164108333Y-132076256D02*
X164298809Y-132028637D01*
X164298809Y-132028637D02*
X164394047Y-131981018D01*
X164394047Y-131981018D02*
X164441666Y-131933399D01*
X164441666Y-131933399D02*
X164489285Y-131838161D01*
X164489285Y-131838161D02*
X164489285Y-131742923D01*
X164489285Y-131742923D02*
X164441666Y-131647685D01*
X164441666Y-131647685D02*
X164394047Y-131600066D01*
X164394047Y-131600066D02*
X164298809Y-131552447D01*
X164298809Y-131552447D02*
X164060714Y-131552447D01*
X164060714Y-131552447D02*
X163917857Y-131600066D01*
X163489285Y-132552447D02*
X163489285Y-131552447D01*
X163489285Y-131552447D02*
X163251190Y-131552447D01*
X163251190Y-131552447D02*
X163108333Y-131600066D01*
X163108333Y-131600066D02*
X163013095Y-131695304D01*
X163013095Y-131695304D02*
X162965476Y-131790542D01*
X162965476Y-131790542D02*
X162917857Y-131981018D01*
X162917857Y-131981018D02*
X162917857Y-132123875D01*
X162917857Y-132123875D02*
X162965476Y-132314351D01*
X162965476Y-132314351D02*
X163013095Y-132409589D01*
X163013095Y-132409589D02*
X163108333Y-132504828D01*
X163108333Y-132504828D02*
X163251190Y-132552447D01*
X163251190Y-132552447D02*
X163489285Y-132552447D01*
X162536904Y-132266732D02*
X162060714Y-132266732D01*
X162632142Y-132552447D02*
X162298809Y-131552447D01*
X162298809Y-131552447D02*
X161965476Y-132552447D01*
X164465475Y-134114772D02*
X164322618Y-134162391D01*
X164322618Y-134162391D02*
X164084523Y-134162391D01*
X164084523Y-134162391D02*
X163989285Y-134114772D01*
X163989285Y-134114772D02*
X163941666Y-134067152D01*
X163941666Y-134067152D02*
X163894047Y-133971914D01*
X163894047Y-133971914D02*
X163894047Y-133876676D01*
X163894047Y-133876676D02*
X163941666Y-133781438D01*
X163941666Y-133781438D02*
X163989285Y-133733819D01*
X163989285Y-133733819D02*
X164084523Y-133686200D01*
X164084523Y-133686200D02*
X164274999Y-133638581D01*
X164274999Y-133638581D02*
X164370237Y-133590962D01*
X164370237Y-133590962D02*
X164417856Y-133543343D01*
X164417856Y-133543343D02*
X164465475Y-133448105D01*
X164465475Y-133448105D02*
X164465475Y-133352867D01*
X164465475Y-133352867D02*
X164417856Y-133257629D01*
X164417856Y-133257629D02*
X164370237Y-133210010D01*
X164370237Y-133210010D02*
X164274999Y-133162391D01*
X164274999Y-133162391D02*
X164036904Y-133162391D01*
X164036904Y-133162391D02*
X163894047Y-133210010D01*
X162894047Y-134067152D02*
X162941666Y-134114772D01*
X162941666Y-134114772D02*
X163084523Y-134162391D01*
X163084523Y-134162391D02*
X163179761Y-134162391D01*
X163179761Y-134162391D02*
X163322618Y-134114772D01*
X163322618Y-134114772D02*
X163417856Y-134019533D01*
X163417856Y-134019533D02*
X163465475Y-133924295D01*
X163465475Y-133924295D02*
X163513094Y-133733819D01*
X163513094Y-133733819D02*
X163513094Y-133590962D01*
X163513094Y-133590962D02*
X163465475Y-133400486D01*
X163465475Y-133400486D02*
X163417856Y-133305248D01*
X163417856Y-133305248D02*
X163322618Y-133210010D01*
X163322618Y-133210010D02*
X163179761Y-133162391D01*
X163179761Y-133162391D02*
X163084523Y-133162391D01*
X163084523Y-133162391D02*
X162941666Y-133210010D01*
X162941666Y-133210010D02*
X162894047Y-133257629D01*
X161989285Y-134162391D02*
X162465475Y-134162391D01*
X162465475Y-134162391D02*
X162465475Y-133162391D01*
X163894047Y-134772335D02*
X164370237Y-134772335D01*
X164370237Y-134772335D02*
X164417856Y-135248525D01*
X164417856Y-135248525D02*
X164370237Y-135200906D01*
X164370237Y-135200906D02*
X164274999Y-135153287D01*
X164274999Y-135153287D02*
X164036904Y-135153287D01*
X164036904Y-135153287D02*
X163941666Y-135200906D01*
X163941666Y-135200906D02*
X163894047Y-135248525D01*
X163894047Y-135248525D02*
X163846428Y-135343763D01*
X163846428Y-135343763D02*
X163846428Y-135581858D01*
X163846428Y-135581858D02*
X163894047Y-135677096D01*
X163894047Y-135677096D02*
X163941666Y-135724716D01*
X163941666Y-135724716D02*
X164036904Y-135772335D01*
X164036904Y-135772335D02*
X164274999Y-135772335D01*
X164274999Y-135772335D02*
X164370237Y-135724716D01*
X164370237Y-135724716D02*
X164417856Y-135677096D01*
X163513094Y-135105668D02*
X163274999Y-135772335D01*
X163274999Y-135772335D02*
X163036904Y-135105668D01*
X162227380Y-135105668D02*
X162227380Y-135772335D01*
X162465475Y-134724716D02*
X162703570Y-135439001D01*
X162703570Y-135439001D02*
X162084523Y-135439001D01*
X166569925Y-146972419D02*
X167046115Y-146972419D01*
X167046115Y-146972419D02*
X167046115Y-145972419D01*
X166236591Y-146448609D02*
X165903258Y-146448609D01*
X165760401Y-146972419D02*
X166236591Y-146972419D01*
X166236591Y-146972419D02*
X166236591Y-145972419D01*
X166236591Y-145972419D02*
X165760401Y-145972419D01*
X165331829Y-146972419D02*
X165331829Y-145972419D01*
X165331829Y-145972419D02*
X165093734Y-145972419D01*
X165093734Y-145972419D02*
X164950877Y-146020038D01*
X164950877Y-146020038D02*
X164855639Y-146115276D01*
X164855639Y-146115276D02*
X164808020Y-146210514D01*
X164808020Y-146210514D02*
X164760401Y-146400990D01*
X164760401Y-146400990D02*
X164760401Y-146543847D01*
X164760401Y-146543847D02*
X164808020Y-146734323D01*
X164808020Y-146734323D02*
X164855639Y-146829561D01*
X164855639Y-146829561D02*
X164950877Y-146924800D01*
X164950877Y-146924800D02*
X165093734Y-146972419D01*
X165093734Y-146972419D02*
X165331829Y-146972419D01*
X164379448Y-146924800D02*
X164284210Y-146972419D01*
X164284210Y-146972419D02*
X164093734Y-146972419D01*
X164093734Y-146972419D02*
X163998496Y-146924800D01*
X163998496Y-146924800D02*
X163950877Y-146829561D01*
X163950877Y-146829561D02*
X163950877Y-146781942D01*
X163950877Y-146781942D02*
X163998496Y-146686704D01*
X163998496Y-146686704D02*
X164093734Y-146639085D01*
X164093734Y-146639085D02*
X164236591Y-146639085D01*
X164236591Y-146639085D02*
X164331829Y-146591466D01*
X164331829Y-146591466D02*
X164379448Y-146496228D01*
X164379448Y-146496228D02*
X164379448Y-146448609D01*
X164379448Y-146448609D02*
X164331829Y-146353371D01*
X164331829Y-146353371D02*
X164236591Y-146305752D01*
X164236591Y-146305752D02*
X164093734Y-146305752D01*
X164093734Y-146305752D02*
X163998496Y-146353371D01*
X152974569Y-147122306D02*
X153022188Y-147217544D01*
X153022188Y-147217544D02*
X153022188Y-147360401D01*
X153022188Y-147360401D02*
X152974569Y-147503258D01*
X152974569Y-147503258D02*
X152879331Y-147598496D01*
X152879331Y-147598496D02*
X152784093Y-147646115D01*
X152784093Y-147646115D02*
X152593617Y-147693734D01*
X152593617Y-147693734D02*
X152450760Y-147693734D01*
X152450760Y-147693734D02*
X152260284Y-147646115D01*
X152260284Y-147646115D02*
X152165046Y-147598496D01*
X152165046Y-147598496D02*
X152069808Y-147503258D01*
X152069808Y-147503258D02*
X152022188Y-147360401D01*
X152022188Y-147360401D02*
X152022188Y-147265163D01*
X152022188Y-147265163D02*
X152069808Y-147122306D01*
X152069808Y-147122306D02*
X152117427Y-147074687D01*
X152117427Y-147074687D02*
X152450760Y-147074687D01*
X152450760Y-147074687D02*
X152450760Y-147265163D01*
X152022188Y-146646115D02*
X153022188Y-146646115D01*
X153022188Y-146646115D02*
X152022188Y-146074687D01*
X152022188Y-146074687D02*
X153022188Y-146074687D01*
X152022188Y-145598496D02*
X153022188Y-145598496D01*
X153022188Y-145598496D02*
X153022188Y-145360401D01*
X153022188Y-145360401D02*
X152974569Y-145217544D01*
X152974569Y-145217544D02*
X152879331Y-145122306D01*
X152879331Y-145122306D02*
X152784093Y-145074687D01*
X152784093Y-145074687D02*
X152593617Y-145027068D01*
X152593617Y-145027068D02*
X152450760Y-145027068D01*
X152450760Y-145027068D02*
X152260284Y-145074687D01*
X152260284Y-145074687D02*
X152165046Y-145122306D01*
X152165046Y-145122306D02*
X152069808Y-145217544D01*
X152069808Y-145217544D02*
X152022188Y-145360401D01*
X152022188Y-145360401D02*
X152022188Y-145598496D01*
X151078911Y-147693734D02*
X151078911Y-146979449D01*
X151507483Y-147408020D02*
X150221768Y-147693734D01*
X150650340Y-147074687D02*
X150650340Y-147788972D01*
X150221768Y-147360401D02*
X151507483Y-147074687D01*
X150936054Y-146312782D02*
X150936054Y-146646115D01*
X150412244Y-146646115D02*
X151412244Y-146646115D01*
X151412244Y-146646115D02*
X151412244Y-146169925D01*
X150697959Y-145836591D02*
X150697959Y-145360401D01*
X150412244Y-145931829D02*
X151412244Y-145598496D01*
X151412244Y-145598496D02*
X150412244Y-145265163D01*
X151412244Y-144931829D02*
X150602721Y-144931829D01*
X150602721Y-144931829D02*
X150507483Y-144884210D01*
X150507483Y-144884210D02*
X150459864Y-144836591D01*
X150459864Y-144836591D02*
X150412244Y-144741353D01*
X150412244Y-144741353D02*
X150412244Y-144550877D01*
X150412244Y-144550877D02*
X150459864Y-144455639D01*
X150459864Y-144455639D02*
X150507483Y-144408020D01*
X150507483Y-144408020D02*
X150602721Y-144360401D01*
X150602721Y-144360401D02*
X151412244Y-144360401D01*
X150412244Y-143408020D02*
X150412244Y-143884210D01*
X150412244Y-143884210D02*
X151412244Y-143884210D01*
X151412244Y-143217543D02*
X151412244Y-142646115D01*
X150412244Y-142931829D02*
X151412244Y-142931829D01*
X149326110Y-147312782D02*
X149278491Y-147169925D01*
X149278491Y-147169925D02*
X149230872Y-147122306D01*
X149230872Y-147122306D02*
X149135634Y-147074687D01*
X149135634Y-147074687D02*
X148992777Y-147074687D01*
X148992777Y-147074687D02*
X148897539Y-147122306D01*
X148897539Y-147122306D02*
X148849920Y-147169925D01*
X148849920Y-147169925D02*
X148802300Y-147265163D01*
X148802300Y-147265163D02*
X148802300Y-147646115D01*
X148802300Y-147646115D02*
X149802300Y-147646115D01*
X149802300Y-147646115D02*
X149802300Y-147312782D01*
X149802300Y-147312782D02*
X149754681Y-147217544D01*
X149754681Y-147217544D02*
X149707062Y-147169925D01*
X149707062Y-147169925D02*
X149611824Y-147122306D01*
X149611824Y-147122306D02*
X149516586Y-147122306D01*
X149516586Y-147122306D02*
X149421348Y-147169925D01*
X149421348Y-147169925D02*
X149373729Y-147217544D01*
X149373729Y-147217544D02*
X149326110Y-147312782D01*
X149326110Y-147312782D02*
X149326110Y-147646115D01*
X148802300Y-146074687D02*
X149278491Y-146408020D01*
X148802300Y-146646115D02*
X149802300Y-146646115D01*
X149802300Y-146646115D02*
X149802300Y-146265163D01*
X149802300Y-146265163D02*
X149754681Y-146169925D01*
X149754681Y-146169925D02*
X149707062Y-146122306D01*
X149707062Y-146122306D02*
X149611824Y-146074687D01*
X149611824Y-146074687D02*
X149468967Y-146074687D01*
X149468967Y-146074687D02*
X149373729Y-146122306D01*
X149373729Y-146122306D02*
X149326110Y-146169925D01*
X149326110Y-146169925D02*
X149278491Y-146265163D01*
X149278491Y-146265163D02*
X149278491Y-146646115D01*
X149088015Y-145693734D02*
X149088015Y-145217544D01*
X148802300Y-145788972D02*
X149802300Y-145455639D01*
X149802300Y-145455639D02*
X148802300Y-145122306D01*
X148802300Y-144788972D02*
X149802300Y-144788972D01*
X148802300Y-144217544D02*
X149373729Y-144646115D01*
X149802300Y-144217544D02*
X149230872Y-144788972D01*
X149326110Y-143788972D02*
X149326110Y-143455639D01*
X148802300Y-143312782D02*
X148802300Y-143788972D01*
X148802300Y-143788972D02*
X149802300Y-143788972D01*
X149802300Y-143788972D02*
X149802300Y-143312782D01*
X147192356Y-147646115D02*
X148192356Y-147646115D01*
X148192356Y-147646115D02*
X147478071Y-147312782D01*
X147478071Y-147312782D02*
X148192356Y-146979449D01*
X148192356Y-146979449D02*
X147192356Y-146979449D01*
X147192356Y-146503258D02*
X148192356Y-146503258D01*
X148192356Y-146503258D02*
X148192356Y-146122306D01*
X148192356Y-146122306D02*
X148144737Y-146027068D01*
X148144737Y-146027068D02*
X148097118Y-145979449D01*
X148097118Y-145979449D02*
X148001880Y-145931830D01*
X148001880Y-145931830D02*
X147859023Y-145931830D01*
X147859023Y-145931830D02*
X147763785Y-145979449D01*
X147763785Y-145979449D02*
X147716166Y-146027068D01*
X147716166Y-146027068D02*
X147668547Y-146122306D01*
X147668547Y-146122306D02*
X147668547Y-146503258D01*
X147192356Y-145503258D02*
X148192356Y-145503258D01*
X148192356Y-144836592D02*
X148192356Y-144646116D01*
X148192356Y-144646116D02*
X148144737Y-144550878D01*
X148144737Y-144550878D02*
X148049499Y-144455640D01*
X148049499Y-144455640D02*
X147859023Y-144408021D01*
X147859023Y-144408021D02*
X147525690Y-144408021D01*
X147525690Y-144408021D02*
X147335214Y-144455640D01*
X147335214Y-144455640D02*
X147239976Y-144550878D01*
X147239976Y-144550878D02*
X147192356Y-144646116D01*
X147192356Y-144646116D02*
X147192356Y-144836592D01*
X147192356Y-144836592D02*
X147239976Y-144931830D01*
X147239976Y-144931830D02*
X147335214Y-145027068D01*
X147335214Y-145027068D02*
X147525690Y-145074687D01*
X147525690Y-145074687D02*
X147859023Y-145074687D01*
X147859023Y-145074687D02*
X148049499Y-145027068D01*
X148049499Y-145027068D02*
X148144737Y-144931830D01*
X148144737Y-144931830D02*
X148192356Y-144836592D01*
X145582412Y-147646115D02*
X146582412Y-147646115D01*
X146582412Y-147646115D02*
X146582412Y-147408020D01*
X146582412Y-147408020D02*
X146534793Y-147265163D01*
X146534793Y-147265163D02*
X146439555Y-147169925D01*
X146439555Y-147169925D02*
X146344317Y-147122306D01*
X146344317Y-147122306D02*
X146153841Y-147074687D01*
X146153841Y-147074687D02*
X146010984Y-147074687D01*
X146010984Y-147074687D02*
X145820508Y-147122306D01*
X145820508Y-147122306D02*
X145725270Y-147169925D01*
X145725270Y-147169925D02*
X145630032Y-147265163D01*
X145630032Y-147265163D02*
X145582412Y-147408020D01*
X145582412Y-147408020D02*
X145582412Y-147646115D01*
X145582412Y-146646115D02*
X146582412Y-146646115D01*
X145582412Y-145598497D02*
X146058603Y-145931830D01*
X145582412Y-146169925D02*
X146582412Y-146169925D01*
X146582412Y-146169925D02*
X146582412Y-145788973D01*
X146582412Y-145788973D02*
X146534793Y-145693735D01*
X146534793Y-145693735D02*
X146487174Y-145646116D01*
X146487174Y-145646116D02*
X146391936Y-145598497D01*
X146391936Y-145598497D02*
X146249079Y-145598497D01*
X146249079Y-145598497D02*
X146153841Y-145646116D01*
X146153841Y-145646116D02*
X146106222Y-145693735D01*
X146106222Y-145693735D02*
X146058603Y-145788973D01*
X146058603Y-145788973D02*
X146058603Y-146169925D01*
X144496278Y-147312782D02*
X144496278Y-147646115D01*
X143972468Y-147646115D02*
X144972468Y-147646115D01*
X144972468Y-147646115D02*
X144972468Y-147169925D01*
X144924849Y-146265163D02*
X144972468Y-146360401D01*
X144972468Y-146360401D02*
X144972468Y-146503258D01*
X144972468Y-146503258D02*
X144924849Y-146646115D01*
X144924849Y-146646115D02*
X144829611Y-146741353D01*
X144829611Y-146741353D02*
X144734373Y-146788972D01*
X144734373Y-146788972D02*
X144543897Y-146836591D01*
X144543897Y-146836591D02*
X144401040Y-146836591D01*
X144401040Y-146836591D02*
X144210564Y-146788972D01*
X144210564Y-146788972D02*
X144115326Y-146741353D01*
X144115326Y-146741353D02*
X144020088Y-146646115D01*
X144020088Y-146646115D02*
X143972468Y-146503258D01*
X143972468Y-146503258D02*
X143972468Y-146408020D01*
X143972468Y-146408020D02*
X144020088Y-146265163D01*
X144020088Y-146265163D02*
X144067707Y-146217544D01*
X144067707Y-146217544D02*
X144401040Y-146217544D01*
X144401040Y-146217544D02*
X144401040Y-146408020D01*
X142410144Y-147693734D02*
X142362524Y-147550877D01*
X142362524Y-147550877D02*
X142362524Y-147312782D01*
X142362524Y-147312782D02*
X142410144Y-147217544D01*
X142410144Y-147217544D02*
X142457763Y-147169925D01*
X142457763Y-147169925D02*
X142553001Y-147122306D01*
X142553001Y-147122306D02*
X142648239Y-147122306D01*
X142648239Y-147122306D02*
X142743477Y-147169925D01*
X142743477Y-147169925D02*
X142791096Y-147217544D01*
X142791096Y-147217544D02*
X142838715Y-147312782D01*
X142838715Y-147312782D02*
X142886334Y-147503258D01*
X142886334Y-147503258D02*
X142933953Y-147598496D01*
X142933953Y-147598496D02*
X142981572Y-147646115D01*
X142981572Y-147646115D02*
X143076810Y-147693734D01*
X143076810Y-147693734D02*
X143172048Y-147693734D01*
X143172048Y-147693734D02*
X143267286Y-147646115D01*
X143267286Y-147646115D02*
X143314905Y-147598496D01*
X143314905Y-147598496D02*
X143362524Y-147503258D01*
X143362524Y-147503258D02*
X143362524Y-147265163D01*
X143362524Y-147265163D02*
X143314905Y-147122306D01*
X142362524Y-146693734D02*
X143362524Y-146693734D01*
X143362524Y-146693734D02*
X143362524Y-146312782D01*
X143362524Y-146312782D02*
X143314905Y-146217544D01*
X143314905Y-146217544D02*
X143267286Y-146169925D01*
X143267286Y-146169925D02*
X143172048Y-146122306D01*
X143172048Y-146122306D02*
X143029191Y-146122306D01*
X143029191Y-146122306D02*
X142933953Y-146169925D01*
X142933953Y-146169925D02*
X142886334Y-146217544D01*
X142886334Y-146217544D02*
X142838715Y-146312782D01*
X142838715Y-146312782D02*
X142838715Y-146693734D01*
X142886334Y-145693734D02*
X142886334Y-145360401D01*
X142362524Y-145217544D02*
X142362524Y-145693734D01*
X142362524Y-145693734D02*
X143362524Y-145693734D01*
X143362524Y-145693734D02*
X143362524Y-145217544D01*
X142886334Y-144788972D02*
X142886334Y-144455639D01*
X142362524Y-144312782D02*
X142362524Y-144788972D01*
X142362524Y-144788972D02*
X143362524Y-144788972D01*
X143362524Y-144788972D02*
X143362524Y-144312782D01*
X142362524Y-143884210D02*
X143362524Y-143884210D01*
X143362524Y-143884210D02*
X143362524Y-143646115D01*
X143362524Y-143646115D02*
X143314905Y-143503258D01*
X143314905Y-143503258D02*
X143219667Y-143408020D01*
X143219667Y-143408020D02*
X143124429Y-143360401D01*
X143124429Y-143360401D02*
X142933953Y-143312782D01*
X142933953Y-143312782D02*
X142791096Y-143312782D01*
X142791096Y-143312782D02*
X142600620Y-143360401D01*
X142600620Y-143360401D02*
X142505382Y-143408020D01*
X142505382Y-143408020D02*
X142410144Y-143503258D01*
X142410144Y-143503258D02*
X142362524Y-143646115D01*
X142362524Y-143646115D02*
X142362524Y-143884210D01*
X140752580Y-147646115D02*
X141752580Y-147646115D01*
X141752580Y-147646115D02*
X141752580Y-147408020D01*
X141752580Y-147408020D02*
X141704961Y-147265163D01*
X141704961Y-147265163D02*
X141609723Y-147169925D01*
X141609723Y-147169925D02*
X141514485Y-147122306D01*
X141514485Y-147122306D02*
X141324009Y-147074687D01*
X141324009Y-147074687D02*
X141181152Y-147074687D01*
X141181152Y-147074687D02*
X140990676Y-147122306D01*
X140990676Y-147122306D02*
X140895438Y-147169925D01*
X140895438Y-147169925D02*
X140800200Y-147265163D01*
X140800200Y-147265163D02*
X140752580Y-147408020D01*
X140752580Y-147408020D02*
X140752580Y-147646115D01*
X140752580Y-146074687D02*
X141228771Y-146408020D01*
X140752580Y-146646115D02*
X141752580Y-146646115D01*
X141752580Y-146646115D02*
X141752580Y-146265163D01*
X141752580Y-146265163D02*
X141704961Y-146169925D01*
X141704961Y-146169925D02*
X141657342Y-146122306D01*
X141657342Y-146122306D02*
X141562104Y-146074687D01*
X141562104Y-146074687D02*
X141419247Y-146074687D01*
X141419247Y-146074687D02*
X141324009Y-146122306D01*
X141324009Y-146122306D02*
X141276390Y-146169925D01*
X141276390Y-146169925D02*
X141228771Y-146265163D01*
X141228771Y-146265163D02*
X141228771Y-146646115D01*
X141752580Y-145788972D02*
X140752580Y-145455639D01*
X140752580Y-145455639D02*
X141752580Y-145122306D01*
X140657342Y-145027068D02*
X140657342Y-144265163D01*
X141752580Y-143836591D02*
X141752580Y-143646115D01*
X141752580Y-143646115D02*
X141704961Y-143550877D01*
X141704961Y-143550877D02*
X141609723Y-143455639D01*
X141609723Y-143455639D02*
X141419247Y-143408020D01*
X141419247Y-143408020D02*
X141085914Y-143408020D01*
X141085914Y-143408020D02*
X140895438Y-143455639D01*
X140895438Y-143455639D02*
X140800200Y-143550877D01*
X140800200Y-143550877D02*
X140752580Y-143646115D01*
X140752580Y-143646115D02*
X140752580Y-143836591D01*
X140752580Y-143836591D02*
X140800200Y-143931829D01*
X140800200Y-143931829D02*
X140895438Y-144027067D01*
X140895438Y-144027067D02*
X141085914Y-144074686D01*
X141085914Y-144074686D02*
X141419247Y-144074686D01*
X141419247Y-144074686D02*
X141609723Y-144027067D01*
X141609723Y-144027067D02*
X141704961Y-143931829D01*
X141704961Y-143931829D02*
X141752580Y-143836591D01*
X141276390Y-142646115D02*
X141276390Y-142979448D01*
X140752580Y-142979448D02*
X141752580Y-142979448D01*
X141752580Y-142979448D02*
X141752580Y-142503258D01*
X141276390Y-141788972D02*
X141276390Y-142122305D01*
X140752580Y-142122305D02*
X141752580Y-142122305D01*
X141752580Y-142122305D02*
X141752580Y-141646115D01*
X151678571Y-127507419D02*
X151107143Y-127507419D01*
X151392857Y-128507419D02*
X151392857Y-127507419D01*
X150773809Y-128507419D02*
X150773809Y-127507419D01*
X150345238Y-128507419D02*
X150345238Y-127983609D01*
X150345238Y-127983609D02*
X150392857Y-127888371D01*
X150392857Y-127888371D02*
X150488095Y-127840752D01*
X150488095Y-127840752D02*
X150630952Y-127840752D01*
X150630952Y-127840752D02*
X150726190Y-127888371D01*
X150726190Y-127888371D02*
X150773809Y-127935990D01*
X149440476Y-127840752D02*
X149440476Y-128507419D01*
X149869047Y-127840752D02*
X149869047Y-128364561D01*
X149869047Y-128364561D02*
X149821428Y-128459800D01*
X149821428Y-128459800D02*
X149726190Y-128507419D01*
X149726190Y-128507419D02*
X149583333Y-128507419D01*
X149583333Y-128507419D02*
X149488095Y-128459800D01*
X149488095Y-128459800D02*
X149440476Y-128412180D01*
X148964285Y-127840752D02*
X148964285Y-128507419D01*
X148964285Y-127935990D02*
X148916666Y-127888371D01*
X148916666Y-127888371D02*
X148821428Y-127840752D01*
X148821428Y-127840752D02*
X148678571Y-127840752D01*
X148678571Y-127840752D02*
X148583333Y-127888371D01*
X148583333Y-127888371D02*
X148535714Y-127983609D01*
X148535714Y-127983609D02*
X148535714Y-128507419D01*
X147630952Y-128507419D02*
X147630952Y-127507419D01*
X147630952Y-128459800D02*
X147726190Y-128507419D01*
X147726190Y-128507419D02*
X147916666Y-128507419D01*
X147916666Y-128507419D02*
X148011904Y-128459800D01*
X148011904Y-128459800D02*
X148059523Y-128412180D01*
X148059523Y-128412180D02*
X148107142Y-128316942D01*
X148107142Y-128316942D02*
X148107142Y-128031228D01*
X148107142Y-128031228D02*
X148059523Y-127935990D01*
X148059523Y-127935990D02*
X148011904Y-127888371D01*
X148011904Y-127888371D02*
X147916666Y-127840752D01*
X147916666Y-127840752D02*
X147726190Y-127840752D01*
X147726190Y-127840752D02*
X147630952Y-127888371D01*
X146773809Y-128459800D02*
X146869047Y-128507419D01*
X146869047Y-128507419D02*
X147059523Y-128507419D01*
X147059523Y-128507419D02*
X147154761Y-128459800D01*
X147154761Y-128459800D02*
X147202380Y-128364561D01*
X147202380Y-128364561D02*
X147202380Y-127983609D01*
X147202380Y-127983609D02*
X147154761Y-127888371D01*
X147154761Y-127888371D02*
X147059523Y-127840752D01*
X147059523Y-127840752D02*
X146869047Y-127840752D01*
X146869047Y-127840752D02*
X146773809Y-127888371D01*
X146773809Y-127888371D02*
X146726190Y-127983609D01*
X146726190Y-127983609D02*
X146726190Y-128078847D01*
X146726190Y-128078847D02*
X147202380Y-128174085D01*
X146297618Y-128507419D02*
X146297618Y-127840752D01*
X146297618Y-128031228D02*
X146249999Y-127935990D01*
X146249999Y-127935990D02*
X146202380Y-127888371D01*
X146202380Y-127888371D02*
X146107142Y-127840752D01*
X146107142Y-127840752D02*
X146011904Y-127840752D01*
X145345237Y-127983609D02*
X145678570Y-127983609D01*
X145678570Y-128507419D02*
X145678570Y-127507419D01*
X145678570Y-127507419D02*
X145202380Y-127507419D01*
X144678570Y-128507419D02*
X144773808Y-128459800D01*
X144773808Y-128459800D02*
X144821427Y-128364561D01*
X144821427Y-128364561D02*
X144821427Y-127507419D01*
X144392855Y-127840752D02*
X144154760Y-128507419D01*
X143916665Y-127840752D02*
X144154760Y-128507419D01*
X144154760Y-128507419D02*
X144249998Y-128745514D01*
X144249998Y-128745514D02*
X144297617Y-128793133D01*
X144297617Y-128793133D02*
X144392855Y-128840752D01*
X143488093Y-128459800D02*
X143488093Y-128507419D01*
X143488093Y-128507419D02*
X143535712Y-128602657D01*
X143535712Y-128602657D02*
X143583331Y-128650276D01*
X142345236Y-127602657D02*
X142297617Y-127555038D01*
X142297617Y-127555038D02*
X142202379Y-127507419D01*
X142202379Y-127507419D02*
X141964284Y-127507419D01*
X141964284Y-127507419D02*
X141869046Y-127555038D01*
X141869046Y-127555038D02*
X141821427Y-127602657D01*
X141821427Y-127602657D02*
X141773808Y-127697895D01*
X141773808Y-127697895D02*
X141773808Y-127793133D01*
X141773808Y-127793133D02*
X141821427Y-127935990D01*
X141821427Y-127935990D02*
X142392855Y-128507419D01*
X142392855Y-128507419D02*
X141773808Y-128507419D01*
X141154760Y-127507419D02*
X141059522Y-127507419D01*
X141059522Y-127507419D02*
X140964284Y-127555038D01*
X140964284Y-127555038D02*
X140916665Y-127602657D01*
X140916665Y-127602657D02*
X140869046Y-127697895D01*
X140869046Y-127697895D02*
X140821427Y-127888371D01*
X140821427Y-127888371D02*
X140821427Y-128126466D01*
X140821427Y-128126466D02*
X140869046Y-128316942D01*
X140869046Y-128316942D02*
X140916665Y-128412180D01*
X140916665Y-128412180D02*
X140964284Y-128459800D01*
X140964284Y-128459800D02*
X141059522Y-128507419D01*
X141059522Y-128507419D02*
X141154760Y-128507419D01*
X141154760Y-128507419D02*
X141249998Y-128459800D01*
X141249998Y-128459800D02*
X141297617Y-128412180D01*
X141297617Y-128412180D02*
X141345236Y-128316942D01*
X141345236Y-128316942D02*
X141392855Y-128126466D01*
X141392855Y-128126466D02*
X141392855Y-127888371D01*
X141392855Y-127888371D02*
X141345236Y-127697895D01*
X141345236Y-127697895D02*
X141297617Y-127602657D01*
X141297617Y-127602657D02*
X141249998Y-127555038D01*
X141249998Y-127555038D02*
X141154760Y-127507419D01*
X140440474Y-127602657D02*
X140392855Y-127555038D01*
X140392855Y-127555038D02*
X140297617Y-127507419D01*
X140297617Y-127507419D02*
X140059522Y-127507419D01*
X140059522Y-127507419D02*
X139964284Y-127555038D01*
X139964284Y-127555038D02*
X139916665Y-127602657D01*
X139916665Y-127602657D02*
X139869046Y-127697895D01*
X139869046Y-127697895D02*
X139869046Y-127793133D01*
X139869046Y-127793133D02*
X139916665Y-127935990D01*
X139916665Y-127935990D02*
X140488093Y-128507419D01*
X140488093Y-128507419D02*
X139869046Y-128507419D01*
X139011903Y-127840752D02*
X139011903Y-128507419D01*
X139249998Y-127459800D02*
X139488093Y-128174085D01*
X139488093Y-128174085D02*
X138869046Y-128174085D01*
M02*
